<?xml version="1.0" encoding="UTF-8"?><svg xmlns="http://www.w3.org/2000/svg" xmlns:xlink="http://www.w3.org/1999/xlink" width="61.52479553222656" height="146.95004272460938" viewBox="-0.09000000357627869 -0.3787637948989868 61.52479553222656 146.95004272460938" version="1.1">
    <!-- Generator: Sketch 46.2 (44496) - http://www.bohemiancoding.com/sketch -->
    <title>三国主题素材-08</title>
    <desc>Created with Sketch.</desc>
    <defs/>
    <g id="Page-1" stroke="none" fill-rule="evenodd">
        <g id="三国主题素材-08" fill-rule="nonzero">
            <path d="M13.74,136.19 C13.74,136.19 13.05,142.71 15.86,144.96 C18.06,146.72 20.76,146.29 22.86,144.37 C24.03,143.28 24.69,137.37 23.52,136.06 L13.74,136.19 Z" id="Shape" fill="#FFF6E6" stroke-width="1"/>
            <path d="M13.61,136.77 C13.61,136.77 13.67,142.57 16.43,144.35 C18.3627795,145.661999 20.9562123,145.409801 22.6,143.75 C23.6,142.81 24.68,138.55 26.03,136.31 L13.61,136.77 Z" id="Shape" fill="#443A37" stroke-width="1"/>
            <path d="M36.67,136.35 C36.67,136.35 35.49,142.71 38.3,144.96 C40.5,146.72 43.2,146.29 45.3,144.37 C46.47,143.28 48.3,137 47.16,135.69 L36.67,136.35 Z" id="Shape" fill="#FFF6E6" stroke-width="1"/>
            <path d="M36,136.77 C36,136.77 36.06,142.57 38.82,144.35 C40.7527795,145.661999 43.3462123,145.409801 44.99,143.75 C45.99,142.81 47.07,138.55 48.42,136.31 L36,136.77 Z" id="Shape" fill="#443A37" stroke-width="1"/>
            <path d="M13.37,99 C11.89,103.79 11.14,132.46 11.14,132.46 C10.7600346,133.411363 10.6325743,134.444825 10.77,135.46 C11.7045172,137.55839 13.9876234,138.708306 16.23,138.21 C16.6467139,139.219615 17.482898,139.997375 18.52,140.34 C20.41,141.42 22.52,139.7 22.52,139.7 C23.8525273,139.144071 25.3878325,139.430714 26.43,140.43 C28.71,141.02 29.07,138.43 29.07,138.43 L29.82,103.74 L13.37,99 Z" id="Shape" fill="#476048" stroke-width="1"/>
            <path d="M19.88,141 C19.3728435,141.003799 18.8733289,140.876336 18.43,140.63 C17.4054497,140.27642 16.5682408,139.52221 16.11,138.54 C13.8062162,138.993455 11.4972556,137.78281 10.56,135.63 L10.56,135.57 C10.4088882,134.512245 10.5364234,133.433367 10.93,132.44 C10.93,130.74 11.72,103.68 13.17,98.97 C13.2082763,98.8532295 13.3315821,98.7871729 13.45,98.82 L29.87,103.61 C29.9656322,103.640554 30.0303974,103.729606 30.03,103.83 L29.28,138.52 C29.1743411,139.307108 28.7696835,140.023316 28.15,140.52 C27.6133343,140.858521 26.9545438,140.942699 26.35,140.75 C26.3073488,140.737766 26.2691469,140.713455 26.24,140.68 C25.2717322,139.753887 23.8478257,139.48715 22.61,140 C21.8259069,140.60871 20.871758,140.958215 19.88,141 Z M16.23,138 C16.3135084,138.000724 16.3900628,138.046657 16.43,138.12 C16.8178283,139.063004 17.5944715,139.792247 18.56,140.12 L18.63,140.12 C20.36,141.12 22.32,139.52 22.34,139.51 L22.41,139.51 C23.8069582,138.932901 25.4120563,139.221897 26.52,140.25 C26.9814525,140.38796 27.4798458,140.322477 27.89,140.07 C28.3919451,139.652735 28.7229452,139.065476 28.82,138.42 L29.57,103.93 L13.57,99.25 C12.16,104.54 11.42,132.15 11.41,132.43 C11.4159268,132.459707 11.4159268,132.490293 11.41,132.52 C11.0431046,133.436252 10.9190992,134.431739 11.05,135.41 C11.9573557,137.385423 14.1145432,138.466095 16.24,138.01 L16.23,138 Z" id="Shape" fill="#603404" stroke-width="1"/>
            <path d="M48.67,107.86 C50.06,112.64 49.97,132.44 49.97,132.44 C50.329212,133.396608 50.4460198,134.427265 50.31,135.44 C49.4813238,137.515447 47.2732288,138.687176 45.09,138.21 C44.7078025,139.209092 43.9076508,139.990975 42.9,140.35 C41.09,141.44 39.12,139.73 39.12,139.73 C37.8378903,139.185455 36.3530213,139.483223 35.38,140.48 C33.21,141.08 32.86,138.48 32.86,138.48 L33,112.71 L48.67,107.86 Z" id="Shape" fill="#476048" stroke-width="1"/>
            <path d="M41.58,141 C40.6354362,140.949995 39.7315263,140.599642 39,140 C37.817316,139.500742 36.449686,139.774268 35.55,140.69 C35.5208531,140.723455 35.4826512,140.747766 35.44,140.76 C34.8749868,140.948282 34.2554573,140.874965 33.75,140.56 C33.1369879,140.060535 32.7395528,139.344435 32.64,138.56 L32.75,112.71 C32.7496026,112.609606 32.8143678,112.520554 32.91,112.49 L48.6,107.63 C48.7184179,107.597173 48.8417237,107.66323 48.88,107.78 C50.24,112.47 50.2,131.07 50.19,132.38 C50.5613559,133.375466 50.6782252,134.447913 50.53,135.5 C49.7004764,137.642003 47.4721747,138.898564 45.21,138.5 C44.7907123,139.472212 43.9923343,140.230852 43,140.6 C42.5723447,140.861122 42.0810725,140.999509 41.58,141 L41.58,141 Z M37.76,139.32 C38.247893,139.325666 38.7313376,139.413565 39.19,139.58 L39.26,139.58 C39.26,139.58 41.13,141.17 42.77,140.18 L42.84,140.18 C43.7576568,139.823331 44.4833311,139.097657 44.84,138.18 C44.8881603,138.084347 44.9959652,138.034591 45.1,138.06 C47.191673,138.548926 49.3240736,137.423018 50.1,135.42 L50.1,135.42 C50.2146414,134.453193 50.0981128,133.472983 49.76,132.56 C49.7540732,132.530293 49.7540732,132.499707 49.76,132.47 C49.76,132.27 49.83,113.23 48.53,108.17 L33.2,112.88 L33.09,138.54 L33.09,138.54 C33.1864529,139.175428 33.5097083,139.754446 34,140.17 C34.3784918,140.400015 34.8380864,140.454729 35.26,140.32 C35.9258499,139.663066 36.8246366,139.296361 37.76,139.3 L37.76,139.32 Z" id="Shape" fill="#603404" stroke-width="1"/>
            <path d="M14.54,67.72 L46.75,67.72 C54.3812615,71.5523529 59.5501104,78.9912789 60.48,87.48 C60.48,87.48 63.07,96.55 51.79,102.57 L52.79,115.65 C52.79,115.65 35.22,119.97 21.53,115.65 C18.7,114.76 18.39,107.05 18.23,103.99 C18.23,103.13 18.08,111.37 16.96,112.82 C14.56,115.94 9.76,116.05 8.15,115.33 L9.35,99.44 C9.35,99.44 0.64,101.44 0.6,84.01 C0.63,84 0.85,72.46 14.54,67.72 Z" id="Shape" fill="#638465" stroke-width="1"/>
            <path d="M35.68,117.79 C30.8811641,117.865435 26.098097,117.221625 21.49,115.88 C19.33,115.2 18.58,111.02 18.26,107.5 C18.07,109.89 17.75,112.22 17.17,112.98 C14.66,116.24 9.67,116.26 8.09,115.56 C8.00616738,115.5197 7.95486083,115.432874 7.96,115.34 L9.14,99.73 C7.57742433,99.8782101 6.01994846,99.3998168 4.81,98.4 C1.91,96.1 0.43,91.26 0.41,84.04 C0.41,83.92 0.79,72.26 14.46,67.52 L46.75,67.52 L46.84,67.52 C54.5151324,71.4126524 59.7220287,78.8999139 60.7,87.45 C60.7,87.51 63.18,96.66 52.02,102.7 L53.02,115.64 C53.0285683,115.750513 52.9570952,115.851416 52.85,115.88 C47.2103641,117.122362 41.4547906,117.762615 35.68,117.79 Z M18.25,103.72 C18.33,103.72 18.47,103.72 18.48,104 L18.48,104.26 C18.64,107.36 19,114.64 21.6,115.45 C34.33,119.45 50.6,115.92 52.6,115.45 L51.6,102.56 C51.59303,102.469401 51.6400537,102.38319 51.72,102.34 C62.72,96.48 60.32,87.6 60.3,87.51 C59.3377537,79.1178431 54.2300086,71.767948 46.7,67.94 L14.57,67.94 C7.57,70.37 4.25,74.6 2.66,77.73 C1.63715704,79.6854778 1.02463106,81.8293188 0.86,84.03 C0.86,92.85 3.17,96.52 5.09,98.03 C6.27148223,99.0163228 7.81713466,99.4527424 9.34,99.23 C9.40281359,99.1979456 9.47718641,99.1979456 9.54,99.23 C9.59514651,99.2771669 9.62479948,99.3475927 9.62,99.42 L8.42,115.2 C10.04,115.8 14.52,115.68 16.81,112.7 C17.64,111.63 17.9,106.34 17.98,104.6 C17.98,103.72 17.98,103.72 18.25,103.72 Z" id="Shape" fill="#603404" stroke-width="1"/>
            <path d="M10.22,85.57 C10.1283599,85.5693375 10.0458577,85.514336 10.01,85.43 C8.88,82.81 11.3,80.87 11.33,80.85 C11.4191853,80.7636362 11.5608147,80.7636362 11.65,80.85 C11.7363638,80.9391853 11.7363638,81.0808147 11.65,81.17 C11.56,81.24 9.48,82.91 10.47,85.17 C10.5188039,85.2859893 10.4653333,85.4196656 10.35,85.47 L10.22,85.57 Z" id="Shape" fill="#603404" stroke-width="1"/>
            <path d="M53.23,85.08 L53.23,85.08 C53.1068984,85.0693934 53.0141718,84.9634201 53.02,84.84 C53.0221407,83.3081093 52.3219266,81.8597717 51.12,80.91 C51.0349863,80.8705359 50.9824232,80.7834329 50.987133,80.6898244 C50.9918428,80.5962158 51.0528832,80.5148286 51.1414286,80.4840969 C51.2299741,80.4533651 51.3283106,80.4794368 51.39,80.55 C52.7300272,81.5824096 53.5016336,83.1886864 53.47,84.88 C53.4544948,84.9991067 53.3499501,85.0862272 53.23,85.08 Z" id="Shape" fill="#603404" stroke-width="1"/>
            <path d="M9.6,99.76 C9.6,99.76 28.22,104.21 47.6,101.65 L51.5,102.65 C51.5,102.65 40.6,108.65 9.34,102.4 L9.6,99.76 Z" id="Shape" fill="#E9F2CE" stroke-width="1"/>
            <path d="M20.42,68.09 L24,68.09 C24,68.09 25.07,81.39 34.53,82.09 L34.53,84.89 C34.53,84.89 24.2,83.77 20.42,68.09 Z" id="Shape" fill="#99AA71" stroke-width="1"/>
            <path d="M34.78,85.12 L34.53,85.12 C34.42,85.12 23.98,83.83 20.2,68.17 L20.13,67.89 L24.23,67.89 L24.23,68.1 C24.23,68.23 25.4,81.21 34.55,81.87 L34.76,81.87 L34.78,85.12 Z M20.71,68.32 C22.66,76.15 26.29,80.17 29.01,82.16 C30.5804575,83.3515446 32.3929799,84.1844174 34.32,84.6 L34.32,82.28 C25.63,81.47 24,70 23.82,68.32 L20.71,68.32 Z" id="Shape" fill="#603404" stroke-width="1"/>
            <path d="M39.45,68.09 C39.45,68.09 41.45,80.19 25.17,88.86 L24.56,95.27 C24.56,95.27 42.62,88.59 44.18,68.08 L39.45,68.09 Z" id="Shape" fill="#99AA71" stroke-width="1"/>
            <path d="M24.29,95.62 L24.95,88.73 L25.06,88.67 C41.06,80.19 39.25,68.26 39.23,68.14 L39.23,67.88 L44.47,67.88 L44.47,68.12 C42.91,88.54 24.88,95.43 24.7,95.5 L24.29,95.62 Z M25.38,89 L24.82,94.92 C27.29,93.87 42.41,86.7 43.94,68.31 L39.7,68.31 C39.87,70.15 40.21,81.07 25.38,89 Z" id="Shape" fill="#603404" stroke-width="1"/>
            <path d="M10.09,43.12 C10.09,43.12 6.09,40.07 4.65,45.41 C4.65,45.41 4.03,47.31 6.07,49.82 C6.07,49.82 7.55,51.52 7.07,53.12 C6.59848369,53.9067085 6.44134092,54.8424223 6.63,55.74 C6.96238839,57.3753935 8.43254755,58.5277949 10.1,58.46 C10.1,58.46 14,44.7 10.09,43.12 Z" id="Shape" fill="#EC897A" stroke-width="1"/>
            <path d="M9.79,58.58 C8.19713291,58.4829487 6.86612785,57.3321412 6.54,55.77 C6.33933665,54.8455662 6.50036695,53.8793844 6.99,53.07 C7.44,51.55 5.99,49.91 5.99,49.89 C3.94,47.36 4.53,45.45 4.55,45.37 C4.99,43.75 5.71,42.73 6.69,42.37 C8.27,41.73 9.96,42.95 10.11,43.06 C11.78,43.74 12.29,46.56 11.63,51.43 C11.285626,53.8252875 10.7913219,56.1966115 10.15,58.53 C10.1414333,58.5682715 10.10907,58.5965894 10.07,58.6 L9.79,58.58 Z M7.67,42.36 C7.35848614,42.3568171 7.04935482,42.4145669 6.76,42.53 C5.84,42.9 5.15,43.89 4.76,45.44 C4.76,45.44 4.19,47.32 6.16,49.75 C6.22,49.82 7.67,51.51 7.16,53.15 L7.16,53.15 C6.70619555,53.9102079 6.55283273,54.8125519 6.73,55.68 C7.02892438,57.2477611 8.40402051,58.3789564 10,58.37 C10.28,57.37 13.71,44.69 10,43.22 L10,43.22 C9.31964472,42.7199559 8.51207938,42.4218846 7.67,42.36 L7.67,42.36 Z" id="Shape" fill="#603404" stroke-width="1"/>
            <path d="M9.43,52.78 L9.32,52.78 C8.9913694,52.7226782 8.73702666,52.460261 8.69,52.13 C8.63818938,51.8624855 8.63818938,51.5875145 8.69,51.32 C8.74839084,51.1410726 8.87832996,50.9943493 9.04888628,50.9147563 C9.21944259,50.8351634 9.41535936,50.8298207 9.59,50.9 C9.88882118,51.05537 10.0659498,51.3742016 10.04,51.71 C10.1763643,51.0503065 10.1763643,50.3696935 10.04,49.71 C9.49,46.9 7.51,46.86 7.49,46.86 C7.40439586,46.86 7.335,46.7906041 7.335,46.705 C7.335,46.6193959 7.40439586,46.55 7.49,46.55 C7.49,46.55 9.7,46.55 10.3,49.63 C10.5124889,50.5000881 10.4708407,51.4128775 10.18,52.26 C10.0607305,52.5710796 9.76315008,52.7774021 9.43,52.78 L9.43,52.78 Z M9,51.39 C8.95838093,51.6080317 8.95838093,51.8319683 9,52.05 C9.03125371,52.2584833 9.19235179,52.4236089 9.4,52.46 C9.64194852,52.4857744 9.87125139,52.3465548 9.96,52.12 L10,52 L9.93,52 C9.85509288,51.9850052 9.80342104,51.9161094 9.81,51.84 C9.81,51.32 9.55,51.21 9.55,51.21 C9.34798469,51.1139723 9.10615364,51.193117 9,51.39 L9,51.39 Z" id="Shape" fill="#603404" stroke-width="1"/>
            <path d="M53.32,43.12 C53.32,43.12 57.32,40.07 58.76,45.41 C58.76,45.41 59.38,47.31 57.34,49.82 C57.34,49.82 55.86,51.52 56.34,53.12 C56.8115163,53.9067085 56.9686591,54.8424223 56.78,55.74 C56.0357382,57.4634317 54.3055966,58.5492447 52.43,58.47 C52.43,58.47 49.38,44.7 53.32,43.12 Z" id="Shape" fill="#EC897A" stroke-width="1"/>
            <path d="M52.74,58.59 L52.43,58.59 C52.39093,58.5865894 52.3585667,58.5582715 52.35,58.52 C52.35,58.52 52.24,55.02 51.75,51.42 C51.09,46.55 51.6,43.73 53.27,43.05 C53.43,42.93 55.11,41.71 56.69,42.36 C57.69,42.76 58.39,43.78 58.83,45.36 C58.83,45.43 59.44,47.36 57.39,49.87 C57.39,49.87 55.96,51.53 56.39,53.05 C56.8796331,53.8593844 57.0406634,54.8255662 56.84,55.75 C56.125918,57.4003956 54.5360825,58.5016474 52.74,58.59 Z M52.5,58.38 C54.3117008,58.4337088 55.9741644,57.3808152 56.7,55.72 C56.8771673,54.8525519 56.7238045,53.9502079 56.27,53.19 L56.27,53.19 C55.77,51.55 57.27,49.86 57.27,49.78 C59.27,47.35 58.67,45.5 58.67,45.48 C58.24,43.92 57.56,42.93 56.67,42.56 C55.13,41.93 53.41,43.23 53.39,43.24 L53.39,43.24 C49.67,44.69 52.22,57.35 52.51,58.37 L52.5,58.38 Z" id="Shape" fill="#603404" stroke-width="1"/>
            <path d="M54,52.78 C53.6766634,52.7710066 53.3896755,52.5705082 53.27,52.27 C52.9777697,51.4196952 52.9361158,50.50331 53.15,49.63 C53.74,46.63 55.93,46.56 55.95,46.56 C56.0356041,46.56 56.105,46.6293959 56.105,46.715 C56.105,46.8006041 56.0356041,46.87 55.95,46.87 C55.87,46.87 53.95,46.87 53.4,49.71 C53.265306,50.3698632 53.265306,51.0501368 53.4,51.71 C53.3712994,51.3736067 53.5492205,51.0533488 53.85,50.9 C54.0183088,50.8311719 54.2071728,50.832621 54.3744056,50.9040238 C54.5416384,50.9754266 54.6733067,51.1108339 54.74,51.28 C54.7971078,51.5604557 54.7971078,51.8495443 54.74,52.13 C54.6929733,52.460261 54.4386306,52.7226782 54.11,52.78 L54,52.78 Z M53.43,52 L53.5,52.16 C53.5887486,52.3865548 53.8180515,52.5257744 54.06,52.5 C54.2676482,52.4636089 54.4287463,52.2984833 54.46,52.09 C54.5016191,51.8719683 54.5016191,51.6480317 54.46,51.43 C54.416089,51.3255661 54.3318509,51.2433003 54.226406,51.2018756 C54.1209612,51.1604508 54.0032534,51.1633806 53.9,51.21 C53.9,51.21 53.6,51.34 53.63,51.84 C53.636579,51.9161094 53.5849071,51.9850052 53.51,52 L53.43,52 Z" id="Shape" fill="#603404" stroke-width="1"/>
            <path d="M12.71,37.4 C12.71,37.4 10,58.71 16.49,67.67 C16.49,67.67 30.06,80.97 47.63,67.53 C47.63,67.53 53.41,50.97 51.88,37.4 C51.88,37.4 21.68,27.5 12.71,37.4 Z" id="Shape" fill="#EC897A" stroke-width="1"/>
            <path d="M9.78,39.11 C9.78,39.11 10.21,44.88 11.21,46.71 C11.3548844,48.5825135 11.1132141,50.4648192 10.5,52.24 C10.5,52.24 9.04,56.72 10.68,64.15 C12.0750442,68.9477275 15.1718377,73.0720449 19.39,75.75 C21.5830469,80.2395685 24.490927,84.3430229 28,87.9 C28,87.9 35.25,96.25 26.41,105.75 C26.41,105.75 38.88,99.98 39.41,87.67 C39.41,87.67 40.47,79.83 42.9,76.27 C42.9,76.27 48.47,73.17 49.67,69.76 C52.6923131,62.8458289 53.6306879,55.1998121 52.37,47.76 C52.37,47.76 54.47,41.76 54.25,39.02 L50.65,38.02 C50.65,38.02 51.34,49.22 49.53,55.88 C49.53,55.88 48.82,59.95 45.68,61.12 C41.7473228,57.4896124 36.6821112,55.3278903 31.34,55 C31.34,55 19.34,56.07 17.8,61.72 C17.8,61.72 10.91,58.72 13.86,37.56 C12.435585,37.887879 11.0628163,38.4093966 9.78,39.11 Z" id="Shape" fill="#161616" stroke-width="1"/>
            <path d="M31.43,56 C31.43,56 22.55,58.85 22.08,64 C22.08,64 21.2,67.6 26.59,67.22 C27.4546051,67.0800568 28.2223462,66.5875436 28.71,65.86 C30.6360583,64.5655801 33.1539417,64.5655801 35.08,65.86 C35.9860413,66.6983501 37.2143636,67.0968237 38.44,66.95 C39.4511081,66.8342578 40.353274,66.2611645 40.8877417,65.3950928 C41.4222093,64.5290212 41.5299272,63.4656604 41.18,62.51 C41.18,62.51 37.89,56.85 31.43,56 Z" id="Shape" fill="#EC897A" stroke-width="1"/>
            <path d="M29.82,52.49 L29.75,52.49 C29.6579858,52.4341379 29.6199059,52.3198982 29.66,52.22 C29.66,52.15 30.39,50.45 31.55,50.36 C32.29,50.36 33.03,50.92 33.73,52.19 C33.7840193,52.2830073 33.762871,52.4014374 33.68,52.47 C33.6415331,52.4985631 33.5922904,52.5083844 33.545809,52.4967641 C33.4993276,52.4851437 33.4604999,52.4533048 33.44,52.41 C32.81,51.27 32.18,50.72 31.58,50.77 C30.58,50.84 29.99,52.38 29.99,52.39 C29.9582632,52.4541753 29.8915112,52.4934412 29.82,52.49 L29.82,52.49 Z" id="Shape" fill="#161616" stroke-width="1"/>
            <path d="M26.4,59 C29.8757133,59.9024207 33.5242867,59.9024207 37,59 C37,59 37.8,63.9 31.23,63.54 C31.23,63.52 26.27,63.36 26.4,59 Z" id="Shape" fill="#830004" stroke-width="1"/>
            <path d="M31.92,63.64 L31.23,63.64 C31.23,63.64 26.17,63.41 26.3,59 C26.2888687,58.974495 26.2888687,58.945505 26.3,58.92 C26.3283048,58.9057371 26.3616952,58.9057371 26.39,58.92 C29.8503183,59.8103002 33.4796817,59.8103002 36.94,58.92 C36.965505,58.9088687 36.994495,58.9088687 37.02,58.92 C37.0284334,58.9425713 37.0284334,58.9674287 37.02,58.99 C37.1699375,60.1224725 36.8441163,61.2664669 36.12,62.15 C34.9976912,63.2247506 33.4687066,63.7671761 31.92,63.64 L31.92,63.64 Z M26.5,59.12 C26.4190153,60.7076341 27.3374254,62.1770904 28.8,62.8 C29.5649447,63.1544433 30.3887481,63.3646319 31.23,63.42 C33.49,63.55 35.11,63.07 36.05,61.99 C36.7037307,61.1797931 37.0158301,60.1466367 36.92,59.11 C33.4968531,59.9693596 29.9147884,59.972794 26.49,59.12 L26.5,59.12 Z" id="Shape" fill="#161616" stroke-width="1"/>
            <path d="M28.21,62.48 C30.5883949,61.7487446 33.1316051,61.7487446 35.51,62.48 C34.2994386,63.2375134 32.8703042,63.5683967 31.45,63.42 C30.3041783,63.410094 29.1832075,63.0848741 28.21,62.48 Z" id="Shape" fill="#D27366" stroke-width="1"/>
            <path d="M26.49,59.12 L26.49,59.84 C29.8771139,60.9304916 33.5267093,60.8918901 36.89,59.73 L36.89,59.1 C36.89,59.1 32.89,60.58 26.49,59.12 Z" id="Shape" fill="#FFFFFF" stroke-width="1"/>
            <path d="M10,34.15 C10,34.15 9.26,14.74 27.13,10.74 C27.13,10.74 36.69,8.16 46.3,15.56 C46.3,15.56 53.67,21.67 53.85,34.83 C53.84,34.83 34.46,23 10,34.15 Z" id="Shape" fill="#638465" stroke-width="1"/>
            <path d="M53.84,35 L53.76,35 C53.57,34.88 34.16,23.33 10.06,34.33 C10.0104958,34.3585812 9.94950417,34.3585812 9.9,34.33 C9.85081527,34.291259 9.82148194,34.2325924 9.82,34.17 C9.82054086,30.6513997 10.4574583,27.161905 11.7,23.87 C14.1392263,17.036487 19.9783149,11.9789788 27.09,10.54 C33.9228695,9.26181141 40.9731011,11.0335017 46.39,15.39 C46.47,15.46 53.84,21.71 54.02,34.83 C54.0248721,34.8995609 53.9948976,34.9670034 53.94,35.01 C53.9064578,35.0174935 53.8713941,35.0139871 53.84,35 L53.84,35 Z M31.4,29.19 C39.1399959,29.1358867 46.7778706,30.9578595 53.66,34.5 C53.37,21.82 46.26,15.79 46.19,15.73 C40.8563427,11.4430155 33.9173241,9.69730455 27.19,10.95 C20.1885434,12.3352894 14.4245389,17.2872485 12,24 C10.8158458,27.147819 10.1865227,30.4771409 10.14,33.84 C16.8124579,30.7870831 24.0622983,29.2013937 31.4,29.19 L31.4,29.19 Z" id="Shape" fill="#603404" stroke-width="1"/>
            <path d="M17.59,15.08 C17.59,15.08 16.82,2.15 22.48,1.47 C22.48,1.47 32.99,-1.62 43.37,2.05 C43.37,2.05 47.87,2.9 47.22,16.05 C47.21,16.1 34.34,4.56 17.59,15.08 Z" id="Shape" fill="#638465" stroke-width="1"/>
            <path d="M47.21,16.3 C47.1744857,16.3130003 47.1355143,16.3130003 47.1,16.3 C46.97,16.19 34.1,4.97 17.67,15.3 C17.6180203,15.3325941 17.5519797,15.3325941 17.5,15.3 C17.447043,15.2632977 17.4138658,15.2043161 17.41,15.14 C17.3111839,12.9348357 17.4183148,10.7252612 17.73,8.54 C18.42,4.1 20.05,1.6 22.45,1.32 C22.53,1.32 33.1,-1.73 43.45,1.9 C43.62,1.9 48.07,2.9 47.45,16.15 C47.4488679,16.2203054 47.4108995,16.2848518 47.35,16.32 L47.21,16.3 Z M31.85,10.48 C37.3503689,10.5253293 42.6862533,12.3612948 47.05,15.71 C47.58,3.25 43.38,2.26 43.33,2.25 C33.1,-1.36 22.62,1.64 22.52,1.67 C17.52,2.27 17.68,12.77 17.75,14.75 C21.9537841,12.0265561 26.8415527,10.5463595 31.85,10.48 L31.85,10.48 Z" id="Shape" fill="#603404" stroke-width="1"/>
            <path d="M10.06,33.76 C9.06060427,35.5311502 8.99334193,37.6798081 9.88,39.51 C9.88,39.51 28.94,28.72 54.29,39.18 C54.29,39.18 55.04,37.75 54.02,34.7 C54,34.7 38.26,22.18 10.06,33.76 Z" id="Shape" fill="#99AA71" stroke-width="1"/>
            <path d="M9.73,40 L9.58,39.66 C8.63695463,37.7240065 8.71562497,35.4463128 9.79,33.58 L9.85,33.49 L9.95,33.49 C24.6,27.49 35.85,28.06 42.71,29.6 C50.17,31.28 54.09,34.35 54.26,34.48 L54.34,34.54 L54.34,34.64 C55.34,37.79 54.62,39.32 54.58,39.38 L54.44,39.65 L54.15,39.53 C44.2103672,35.3070956 33.2717297,34.0095852 22.62,35.79 C18.2430119,36.4696937 13.9966641,37.8188114 10.03,39.79 L9.73,40 Z M10.3,34 C9.4707291,35.5453735 9.38255642,37.3823043 10.06,39 C12.73,37.64 30.88,29.26 54.06,38.69 C54.3045495,37.4090729 54.1832486,36.0851603 53.71,34.87 C52.51,34 36.89,23.15 10.29,34 L10.3,34 Z" id="Shape" fill="#603404" stroke-width="1"/>
            <ellipse id="Oval" fill="#7E9E7F" cx="24.62" cy="5.93" rx="1" ry="2.18" stroke-width="1"/>
            <ellipse id="Oval" fill="#7E9E7F" cx="21.72" cy="8.2" rx="1" ry="1.11" stroke-width="1"/>
            <path d="M41.23,81 C41.23,81 44.36,89.27 39.69,96.41 C39.69,96.45 36.15,87.21 41.23,81 Z" id="Shape" fill="#99AA71" stroke-width="1"/>
            <path d="M39.64,96.94 L39.48,96.53 C39.48,96.44 35.95,87.1 41.05,80.9 L41.3,80.6 L41.44,80.96 C41.44,81.04 44.56,89.43 39.88,96.57 L39.64,96.94 Z M41.15,81.51 C37.15,86.73 39.15,94.07 39.76,95.93 C43.41,89.94 41.66,83.18 41.14,81.51 L41.15,81.51 Z" id="Shape" fill="#603404" stroke-width="1"/>
            <path d="M39.69,96.67 L39.69,96.67 C39.6033488,96.6600694 39.5297696,96.6019806 39.5,96.52 C39.5,96.43 35.97,87.09 41.07,80.89 C41.1213216,80.828624 41.2008503,80.7983273 41.28,80.81 C41.3567777,80.8247411 41.4208101,80.8774737 41.45,80.95 C41.45,81.03 44.57,89.41 39.89,96.56 C39.8475141,96.629494 39.7714413,96.671334 39.69,96.67 Z M41.15,81.51 C37.15,86.73 39.15,94.07 39.76,95.93 C43.4,89.94 41.66,83.18 41.14,81.51 L41.15,81.51 Z" id="Shape" fill="#99AA71" stroke-width="1"/>
            <path d="M39.69,96.9 L39.69,96.9 C39.5228542,96.8784123 39.380896,96.7671478 39.32,96.61 C38.6747641,94.8004784 38.2680082,92.91461 38.11,91 C37.79,86.87 38.75,83.32 40.88,80.73 C40.9823691,80.6053504 41.1436233,80.5450241 41.3026703,80.5718762 C41.4617172,80.5987283 41.594228,80.7086512 41.65,80.86 C41.65,80.94 44.78,89.47 40.07,96.67 C39.9926334,96.8081955 39.8483153,96.8955459 39.69,96.9 L39.69,96.9 Z M41.37,93 C41.0041937,94.0491693 40.5246728,95.0551571 39.94,96 L39.84,96.16 C40.4705037,95.1693883 40.9839369,94.1089642 41.37,93 Z M38.58,87.68 C38.3298871,90.5650388 38.6701389,93.4707895 39.58,96.22 L39.52,96.03 C38.6539122,93.323269 38.3377155,90.4706984 38.59,87.64 L38.58,87.68 Z M41.06,82 C37.8,86.69 39.06,92.9 39.82,95.35 C42.82,90 41.68,84.25 41.06,82 Z M41.31,81.27 L41.31,81.43 C41.6308524,82.4824223 41.8649684,83.5593558 42.01,84.65 C41.8764044,83.5082379 41.6421598,82.3805173 41.31,81.28 L41.31,81.27 Z" id="Shape" fill="#603404" stroke-width="1"/>
            <path d="M10.19,99.86 C9.94,99.86 9.68,99.74 9.43,99.73 C9.30689591,99.7246426 9.20988348,99.6232206 9.21,99.5 C9.21535736,99.3768959 9.31677944,99.2798835 9.44,99.28 C18.99,99.48 24.38,96.28 24.44,96.28 C24.5454312,96.2167119 24.6819938,96.2475487 24.75,96.35 C24.8132881,96.4554312 24.7824513,96.5919938 24.68,96.66 C24.62,96.67 19.4,99.86 10.19,99.86 Z" id="Shape" fill="#603404" stroke-width="1"/>
            <path d="M51.86,102.68 L51.86,102.68 C42.86,101.02 39.68,96.96 39.55,96.79 C39.5042552,96.6914565 39.5337034,96.5743436 39.6206182,96.5091576 C39.7075329,96.4439715 39.8282068,96.4484929 39.91,96.52 C39.91,96.52 43.12,100.61 51.91,102.24 C52.0162816,102.26253 52.092303,102.356357 52.092303,102.465 C52.092303,102.573643 52.0162816,102.66747 51.91,102.69 L51.86,102.68 Z" id="Shape" fill="#603404" stroke-width="1"/>
            <path d="M12.22,83.33 C11.5533333,83.33 10.8433333,83.3033333 10.09,83.25 C9.96689842,83.2393934 9.87417183,83.1334201 9.88,83.01 C9.87557081,82.9475256 9.90066355,82.8865839 9.94779834,82.845341 C9.99493313,82.804098 10.0586664,82.7873169 10.12,82.8 C14.5538086,83.1982551 19.0141641,82.4186415 23.05,80.54 C23.122087,80.4878664 23.217775,80.4819803 23.2957081,80.5248857 C23.3736413,80.5677911 23.4198423,80.6517929 23.4143433,80.740586 C23.4088443,80.8293791 23.3526316,80.9070384 23.27,80.94 C19.8160053,82.5656113 16.0370521,83.3829595 12.22,83.33 Z" id="Shape" fill="#603404" stroke-width="1"/>
            <path d="M51.68,83.29 C47.48,83.29 41.68,81.34 41.41,81.29 C41.3217273,81.2726311 41.251685,81.2053896 41.2307303,81.1178987 C41.2097757,81.0304077 41.2417559,80.9387312 41.3125821,80.8832569 C41.3834084,80.8277826 41.4800767,80.8186959 41.56,80.86 C41.63,80.86 48.46,83.16 52.56,82.86 C52.6516894,82.8405631 52.7460017,82.8787076 52.798399,82.9564203 C52.8507963,83.034133 52.8507963,83.135867 52.798399,83.2135797 C52.7460017,83.2912924 52.6516894,83.3294369 52.56,83.31 C52.31,83.28 52,83.29 51.68,83.29 Z" id="Shape" fill="#603404" stroke-width="1"/>
            <path d="M23.17,80.73 C23.17,80.73 27.78,88.5 24.56,96.45 C24.55,96.45 19.36,87.81 23.17,80.73 Z" id="Shape" fill="#99AA71" stroke-width="1"/>
            <path d="M24.59,97 L24.36,96.61 C24.31,96.52 19.15,87.78 22.97,80.67 L23.16,80.32 L23.36,80.66 C23.36,80.74 27.99,88.66 24.76,96.58 L24.59,97 Z M23.17,81.22 C20.27,87.16 23.58,94.16 24.51,95.92 C27,89.29 24,82.81 23.17,81.22 Z" id="Shape" fill="#603404" stroke-width="1"/>
            <path d="M24.55,96.67 C24.4721245,96.6678775 24.4006168,96.6264783 24.36,96.56 C24.31,96.47 19.15,87.73 22.97,80.62 C23.0099372,80.546657 23.0864916,80.5007243 23.17,80.5 L23.17,80.5 C23.2478755,80.5021225 23.3193832,80.5435217 23.36,80.61 C23.36,80.69 27.99,88.61 24.76,96.53 C24.7291747,96.6095634 24.6551237,96.6641273 24.57,96.67 L24.55,96.67 Z M23.17,81.22 C20.28,87.15 23.58,94.15 24.52,95.91 C27,89.29 24,82.81 23.17,81.22 Z" id="Shape" fill="#99AA71" stroke-width="1"/>
            <path d="M24.55,96.9 C24.3906723,96.8991575 24.2431264,96.8159265 24.16,96.68 C24.11,96.59 18.9,87.68 22.76,80.52 C22.8388715,80.3754869 22.9903648,80.2855806 23.155,80.2855806 C23.3196352,80.2855806 23.4711285,80.3754869 23.55,80.52 C23.55,80.6 28.24,88.52 24.97,96.63 C24.9063755,96.7876067 24.7593802,96.8959189 24.59,96.91 L24.55,96.9 Z M25.48,93.07 C25.3220951,94.0624474 25.0675513,95.0370822 24.72,95.98 L24.62,96.26 C25.0245347,95.2312666 25.3162422,94.1616725 25.49,93.07 L25.48,93.07 Z M24.31,96 L24.37,96.11 L24.32,96.01 L24.31,96 Z M23.18,81.74 C20.88,87.02 23.32,93 24.48,95.34 C26.4,89.49 24.21,83.88 23.18,81.74 Z M23.3,81 L23.37,81.14 C23.46,81.32 23.57,81.53 23.69,81.79 C23.53,81.42 23.4,81.15 23.3,81 Z" id="Shape" fill="#603404" stroke-width="1"/>
            <path d="M34.13,89 C34.13,89 40.69,91.46 42.13,88.36 C42.13,88.36 43.24,82.36 38.89,80.21 C38.89,80.21 35.8,77.14 31.32,80.79 C31.32,80.79 29.32,86.79 31.32,89.49 C31.32,89.49 32.56,91.2 33.82,90.21 C34.1619947,89.9085883 34.284935,89.4287243 34.13,89 Z" id="Shape" fill="#EC897A" stroke-width="1"/>
            <path d="M33,90.77 L32.79,90.77 C32.1296686,90.604689 31.5488824,90.2115959 31.15,89.66 C29.1,86.87 31.03,81 31.15,80.76 C31.1639007,80.7209703 31.1880858,80.6864202 31.22,80.66 C35.58,77.11 38.73,79.76 39.07,80.06 C43.49,82.27 42.41,88.38 42.4,88.44 L42.4,88.5 C41.04,91.34 35.92,89.88 34.46,89.39 C34.4659468,89.7673895 34.3136356,90.1300352 34.04,90.39 C33.7505184,90.6379669 33.3811543,90.7729269 33,90.77 L33,90.77 Z M31.56,81 C31.36,81.63 29.74,87 31.56,89.43 C31.8884703,89.882793 32.3609101,90.2106803 32.9,90.36 C33.2027486,90.3991264 33.507915,90.308303 33.74,90.11 C33.9876347,89.8598341 34.0623683,89.4861665 33.93,89.16 C33.8990895,89.0770442 33.9185339,88.9837107 33.98,88.92 C34.0437107,88.8585339 34.1370442,88.8390895 34.22,88.87 C34.28,88.87 40.56,91.21 41.97,88.37 C42.04,87.92 42.84,82.46 38.85,80.49 L38.79,80.49 C38.66,80.28 35.8,77.54 31.56,81 Z" id="Shape" fill="#603404" stroke-width="1"/>
            <path d="M32.6,87.17 C32.8677687,87.9092395 33.3565599,88.5481594 34,89" id="Shape" fill="#FFE9DC" stroke-width="1"/>
            <path d="M34,89.22 C33.9638731,89.2288972 33.9261269,89.2288972 33.89,89.22 C33.1806112,88.7541398 32.6377789,88.0747239 32.34,87.28 C32.317893,87.1676474 32.3817999,87.0561449 32.4899173,87.0184295 C32.5980347,86.9807142 32.7174286,87.0282745 32.77,87.13 C33.0354948,87.8214279 33.5066869,88.4147808 34.12,88.83 C34.2010523,88.8846084 34.238743,88.9844757 34.2139817,89.079019 C34.1892203,89.1735623 34.1074149,89.242133 34.01,89.25 L34,89.22 Z" id="Shape" fill="#603404" stroke-width="1"/>
            <path d="M21.87,84.87 C21.87,84.87 22.46,77.29 26.53,75.09 C28.2224114,74.4440268 30.072162,74.3323437 31.83,74.77 C31.83,74.77 33.27,75.09 32.98,76.2 C32.98,76.2 35.74,76.74 34.98,78.2 C34.98,78.2 37.24,78.84 36.74,80.04 C36.7510323,80.3203136 36.614432,80.5859252 36.38,80.74 C36.38,80.74 38.1,81.56 37.6,82.82 C37.4897048,83.1441163 37.2472649,83.4063366 36.9327758,83.5416622 C36.6182868,83.6769878 36.2611893,83.6727503 35.95,83.53 C33.7952892,83.1912198 31.7015002,84.4223677 30.95,86.47 C30.9051042,87.80844 29.9058628,88.921519 28.58,89.11 C28.58,89.11 24.12,91.17 22.05,89.83 C21.8992836,88.1812061 21.8391931,86.5253815 21.87,84.87 L21.87,84.87 Z" id="Shape" fill="#EC897A" stroke-width="1"/>
            <path d="M24,90.52 C23.3000117,90.553141 22.6053937,90.3829596 22,90.03 C21.9428287,89.991226 21.9061125,89.9288086 21.9,89.86 C21.7297562,88.1989559 21.6529686,86.5296588 21.67,84.86 C21.67,84.52 22.32,77.13 26.44,74.86 C28.1866633,74.1786442 30.1025088,74.0597779 31.92,74.52 C32.3900635,74.6272493 32.8055617,74.9006969 33.09,75.29 C33.2180219,75.4997314 33.2741922,75.7454768 33.25,75.99 C34.0448057,76.1347998 34.7575328,76.5695634 35.25,77.21 C35.3779496,77.460575 35.4030644,77.7511893 35.32,78.02 C36.007359,78.2137443 36.6030589,78.646336 37,79.24 C37.1264089,79.509234 37.1264089,79.820766 37,80.09 C36.9967016,80.3089046 36.926953,80.5216379 36.8,80.7 C37.6275652,81.094335 38.0500612,82.0280512 37.8,82.91 C37.6746248,83.2515181 37.4294041,83.5358319 37.11,83.71 C36.7139354,83.8789704 36.2660646,83.8789704 35.87,83.71 C33.8454915,83.4085876 31.88734,84.5692829 31.18,86.49 C31.1027849,87.9032998 30.0482621,89.0703606 28.65,89.29 C27.186874,89.9771072 25.6115,90.393819 24,90.52 L24,90.52 Z M22.36,89.71 C24.36,90.84 28.53,88.94 28.58,88.92 L28.64,88.92 C29.8645465,88.7623139 30.7906019,87.7343074 30.82,86.5 C30.8137981,86.4703205 30.8137981,86.4396795 30.82,86.41 C31.612309,84.2959702 33.7633712,83.0128076 36,83.32 C36.2563188,83.4482704 36.5553561,83.4603894 36.821214,83.3532812 C37.0870719,83.246173 37.29419,83.0301352 37.39,82.76 C37.81,81.7 36.3,80.96 36.29,80.96 C36.2180376,80.9191332 36.1735782,80.8427567 36.1735782,80.76 C36.1735782,80.6772433 36.2180376,80.6008668 36.29,80.56 C36.454217,80.4513838 36.552119,80.2668762 36.55,80.07 C36.5423238,80.0371086 36.5423238,80.0028914 36.55,79.97 C36.629013,79.8056711 36.629013,79.6143289 36.55,79.45 C36.29,78.91 35.3,78.53 34.95,78.45 C34.8835271,78.433641 34.8284574,78.3872709 34.8010189,78.3245542 C34.7735803,78.2618375 34.7769001,78.1899221 34.81,78.13 C34.9202227,77.9238057 34.9202227,77.6761943 34.81,77.47 C34.51,76.87 33.33,76.52 32.9,76.47 C32.8382507,76.4580973 32.784068,76.42143 32.7500619,76.3685316 C32.7160558,76.3156333 32.7051924,76.2511178 32.72,76.19 C32.7796745,75.9954612 32.7542445,75.7847554 32.65,75.61 C32.4197514,75.3226738 32.0990054,75.121767 31.74,75.04 C30.0250425,74.6173463 28.2221658,74.7254491 26.57,75.35 C22.68,77.45 22.06,84.86 22.06,84.93 L22.06,84.93 C22.0570251,86.5269466 22.1438287,88.1227977 22.32,89.71 L22.36,89.71 Z" id="Shape" fill="#603404" stroke-width="1"/>
            <path d="M28.93,77.48 C28.8385937,77.4779445 28.7570846,77.4219437 28.722382,77.3373561 C28.6876794,77.2527685 28.7063738,77.1556586 28.77,77.09 C29.8988341,75.98697 31.5310715,75.5712833 33.05,76 C33.1415638,76.0120211 33.2170586,76.0776424 33.2417131,76.1666401 C33.2663676,76.2556379 33.2354003,76.3507517 33.1630741,76.4081743 C33.0907478,76.4655969 32.9910897,76.4741917 32.91,76.43 C31.5494129,76.0677948 30.0985937,76.4475904 29.09,77.43 C29.0448555,77.4662007 28.9877242,77.4840542 28.93,77.48 L28.93,77.48 Z" id="Shape" fill="#603404" stroke-width="1"/>
            <path d="M30.26,79.79 C30.1677178,79.7842024 30.0878794,79.7237062 30.0573338,79.6364332 C30.0267883,79.5491601 30.051475,79.4520801 30.12,79.39 C31.5390376,78.3805526 33.2620406,77.8897793 35,78 C35.0916894,77.9805631 35.1860017,78.0187076 35.238399,78.0964203 C35.2907963,78.174133 35.2907963,78.275867 35.238399,78.3535797 C35.1860017,78.4312924 35.0916894,78.4694369 35,78.45 C33.3625401,78.352958 31.7406593,78.8148415 30.4,79.76 C30.3577138,79.7846406 30.3086699,79.79515 30.26,79.79 L30.26,79.79 Z" id="Shape" fill="#603404" stroke-width="1"/>
            <path d="M31.62,81.84 C31.5180221,81.8342559 31.4320489,81.7619469 31.4089129,81.6624621 C31.385777,81.5629774 31.4310213,81.4601527 31.52,81.41 C33.0469171,80.5815818 34.8019945,80.2726882 36.52,80.53 C36.6400277,80.5596763 36.7151172,80.6789361 36.69,80.8 C36.6648782,80.9240837 36.544201,81.0045351 36.42,80.98 C34.8202863,80.766414 33.1938792,81.0602166 31.77,81.82 L31.62,81.84 Z" id="Shape" fill="#603404" stroke-width="1"/>
            <path d="M20.42,82.07 C20.42,82.07 21.8,81.59 22.24,81.42 C22.100018,82.0182387 21.9297996,82.6089968 21.73,83.19 C21.57,83.54 20.42,82.07 20.42,82.07 Z" id="Shape" fill="#638465" stroke-width="1"/>
            <path d="M26.14,48.94 C26.14,48.94 25.65,46.12 22.01,45.86 C22.01,45.86 19.89,45.69 18.52,45.73 C17.5182936,45.8529888 16.5359087,45.3851864 16,44.53 C16,44.53 17.48,48.19 20.58,48.65 C20.62,48.65 25.48,49.29 26.14,48.94 Z" id="Shape" fill="#FFFFFF" stroke-width="1"/>
            <path d="M26.12,48.93 C25.9333665,48.2151684 25.5444867,47.5693501 25,47.07 C24.4334536,46.56573 23.7433439,46.2206751 23,46.07 C22.2634683,45.9405538 21.517749,45.8703291 20.77,45.86 C20.02,45.86 19.27,45.81 18.53,45.86 L18.53,45.86 C18.0105619,45.9123854 17.4861143,45.8404024 17,45.65 C16.5137407,45.4577357 16.1079232,45.1048508 15.85,44.65 L15.85,44.65 L16.18,44.5 C16.6030064,45.377252 17.1596343,46.1835191 17.83,46.89 C18.4754822,47.6006573 19.306758,48.116741 20.23,48.38 C21.15,48.6 22.23,48.68 23.16,48.81 C23.65,48.87 24.16,48.92 24.64,48.97 C25.1327401,49.0267798 25.6310462,49.013312 26.12,48.93 L26.12,48.93 Z M26.12,48.93 C25.630602,49.0756115 25.1199132,49.1364883 24.61,49.11 C24.11,49.11 23.61,49.11 23.11,49.11 C22.1050052,49.0626424 21.1034431,48.9591476 20.11,48.8 C19.0973412,48.5315438 18.1839623,47.975876 17.48,47.2 C16.7783016,46.4489631 16.2222039,45.5741264 15.84,44.62 C15.8083674,44.5339587 15.846452,44.4378885 15.9284458,44.3968916 C16.0104396,44.3558948 16.1101465,44.3830691 16.16,44.46 L16.16,44.46 C16.3771754,44.8659205 16.7316258,45.1813814 17.16,45.35 C17.5831793,45.5282045 18.0416177,45.6068917 18.5,45.58 L18.5,45.58 C19.26,45.58 20.01,45.58 20.77,45.66 C21.5296795,45.6850595 22.2857975,45.7753922 23.03,45.93 C23.767382,46.1122848 24.4456697,46.4806949 25,47 C25.5782393,47.5150436 25.983356,48.1960587 26.16,48.95 L26.12,48.93 Z" id="Shape" fill="#161616" stroke-width="1"/>
            <path d="M21.62,45.9 C21.30703,45.9052596 21.0089732,46.0346538 20.7914214,46.2597073 C20.5738696,46.4847609 20.4546505,46.7870315 20.46,47.1 C20.4749448,47.3851401 20.5253324,47.6673104 20.61,47.94 C20.74482,48.3853276 21.1452483,48.6976617 21.61,48.72 L23.61,48.93 C24.0313276,48.6633248 24.2962734,48.208066 24.32,47.71 C24.3799701,47.2087426 24.1936677,46.7094523 23.82,46.37 C23.1594924,45.9726499 22.3852138,45.8072358 21.62,45.9 L21.62,45.9 Z" id="Shape" fill="#161616" stroke-width="1"/>
            <ellipse id="Oval" fill="#FFFFFF" cx="23.07" cy="46.8" rx="1" ry="1" stroke-width="1"/>
            <path d="M35.79,48.94 C35.79,48.94 36.28,46.12 39.92,45.86 C39.92,45.86 42.04,45.69 43.41,45.73 C44.3959901,45.8389148 45.3580349,45.3772885 45.89,44.54 C45.89,44.54 44.41,48.2 41.31,48.66 C41.31,48.65 36.45,49.29 35.79,48.94 Z" id="Shape" fill="#FFFFFF" stroke-width="1"/>
            <path d="M35.77,48.95 C35.9260665,48.18301 36.3175999,47.4838432 36.89,46.95 C37.4538924,46.4298114 38.1429511,46.0646103 38.89,45.89 C39.6342025,45.7353922 40.3903205,45.6450595 41.15,45.62 C41.9,45.62 42.66,45.53 43.42,45.54 L43.42,45.54 C43.8783823,45.5668917 44.3368207,45.4882045 44.76,45.31 C45.1883742,45.1413814 45.5428246,44.8259205 45.76,44.42 L45.76,44.42 C45.8098535,44.3430691 45.9095604,44.3158948 45.9915542,44.3568916 C46.073548,44.3978885 46.1116326,44.4939587 46.08,44.58 C45.6977961,45.5341264 45.1416984,46.4089631 44.44,47.16 C43.7360377,47.935876 42.8226588,48.4915438 41.81,48.76 C40.8165569,48.9191476 39.8149948,49.0226424 38.81,49.07 C38.31,49.07 37.81,49.07 37.31,49.07 C36.7935907,49.1194658 36.2725136,49.0788624 35.77,48.95 Z M35.77,48.95 C36.2542822,49.0181312 36.7457178,49.0181312 37.23,48.95 C37.72,48.95 38.23,48.86 38.71,48.79 C39.71,48.65 40.71,48.58 41.64,48.36 C42.563242,48.096741 43.3945178,47.5806573 44.04,46.87 C44.7103657,46.1635191 45.2669936,45.357252 45.69,44.48 L46.02,44.63 L46.02,44.63 C45.7620768,45.0848508 45.3562593,45.4377357 44.87,45.63 C44.3908638,45.8206591 43.8736191,45.8960192 43.36,45.85 L43.36,45.85 C42.62,45.85 41.86,45.85 41.12,45.85 C40.372251,45.8603291 39.6265317,45.9305538 38.89,46.06 C38.1466561,46.2106751 37.4565464,46.55573 36.89,47.06 C36.3585339,47.5671912 35.9837107,48.2161907 35.81,48.93 L35.77,48.95 Z" id="Shape" fill="#161616" stroke-width="1"/>
            <path d="M40.3,45.9 C40.61297,45.9052596 40.9110268,46.0346538 41.1285786,46.2597073 C41.3461304,46.4847609 41.4653495,46.7870315 41.46,47.1 C41.4450552,47.3851401 41.3946676,47.6673104 41.31,47.94 C41.17518,48.3853276 40.7747517,48.6976617 40.31,48.72 L38.31,48.93 C37.8886724,48.6633248 37.6237266,48.208066 37.6,47.71 C37.5400299,47.2087426 37.7263323,46.7094523 38.1,46.37 C38.7605076,45.9726499 39.5347862,45.8072358 40.3,45.9 Z" id="Shape" fill="#161616" stroke-width="1"/>
            <ellipse id="Oval" fill="#FFFFFF" cx="38.85" cy="46.8" rx="1" ry="1" stroke-width="1"/>
            <path d="M27.95,47.44 C27.216909,45.4400147 25.7563419,43.7901809 23.86,42.82 C20.8,41.39 17.73,39.82 17.73,39.82 C17.73,39.82 12.79,37.61 14.73,34.01 C14.9150931,33.6828213 15.136492,33.3775591 15.39,33.1 L15.84,32.59 L16.09,32.82 C15.8640103,33.3041127 15.8511127,33.8607482 16.0544375,34.3548084 C16.2577622,34.8488686 16.6587213,35.2351862 17.16,35.42 L24.92,40.42 L25.44,40.73 C26.15,41.14 28.44,42.56 28.85,44.11 C29.2436489,45.2291198 28.9900537,46.4740418 28.19,47.35 C28.1422629,47.4340583 28.0412375,47.4719428 27.95,47.44 Z" id="Shape" fill="#121212" stroke-width="1"/>
            <path d="M35.46,47.44 C36.193091,45.4400147 37.6536581,43.7901809 39.55,42.82 C42.61,41.39 45.68,39.82 45.68,39.82 C45.68,39.82 50.62,37.61 48.68,34.01 C48.4949069,33.6828213 48.273508,33.3775591 48.02,33.1 L47.57,32.59 L47.32,32.82 C47.5459897,33.3041127 47.5588873,33.8607482 47.3555625,34.3548084 C47.1522378,34.8488686 46.7512787,35.2351862 46.25,35.42 L38.49,40.42 L37.97,40.73 C37.26,41.14 34.97,42.56 34.56,44.11 C34.1663511,45.2291198 34.4199463,46.4740418 35.22,47.35 C35.2677371,47.4340583 35.3687625,47.4719428 35.46,47.44 Z" id="Shape" fill="#121212" stroke-width="1"/>
        </g>
    </g>
</svg>