<?xml version="1.0" encoding="UTF-8"?><svg xmlns="http://www.w3.org/2000/svg" xmlns:xlink="http://www.w3.org/1999/xlink" width="86.960205078125" height="178.51168823242188" viewBox="-0.10291719436645508 0.21039444208145142 86.960205078125 178.51168823242188" version="1.1">
    <!-- Generator: Sketch 46.2 (44496) - http://www.bohemiancoding.com/sketch -->
    <title>三国主题素材-21</title>
    <desc>Created with Sketch.</desc>
    <defs/>
    <g id="Page-1" stroke="none" fill-rule="evenodd">
        <g id="三国主题素材-21" fill-rule="nonzero">
            <path d="M12.2,118.38 C12.2,118.38 18.2,117.24 18.55,123.07 C18.9,128.9 15.18,130.58 13.55,131.18" id="Shape" fill="#EC897A" stroke-width="1"/>
            <path d="M13.52,131.41 C13.4138879,131.404001 13.3257052,131.326078 13.3066929,131.22151 C13.2876807,131.116943 13.3427908,131.012967 13.44,130.97 C16.91,129.71 18.55,127.06 18.32,123.09 C18.3344029,121.714002 17.7373088,120.402593 16.69,119.51 C15.3719217,118.662801 13.7837074,118.341589 12.24,118.61 C12.1232573,118.617334 12.0196045,118.535877 11.9991303,118.42071 C11.9786562,118.305543 12.0478828,118.193352 12.16,118.16 C13.8354629,117.862421 15.5612014,118.220458 16.98,119.16 C18.1309451,120.131304 18.7905046,121.564014 18.78,123.07 C19.03,127.27 17.28,130.07 13.6,131.41 L13.52,131.41 Z" id="Shape" fill="#603404" stroke-width="1"/>
            <path d="M13.48,131.44 C13.368375,131.408114 13.2914143,131.30609 13.2914143,131.19 C13.2914143,131.07391 13.368375,130.971886 13.48,130.94 C16.94,129.69 18.57,127.04 18.34,123.09 C18.3537226,121.722009 17.7604538,120.418282 16.72,119.53 C15.4077187,118.686868 13.8272515,118.365779 12.29,118.63 C12.1928681,118.670472 12.0809187,118.648406 12.0064088,118.574104 C11.931899,118.499802 11.9095215,118.387914 11.949722,118.29067 C11.9899225,118.193425 12.0847738,118.13 12.19,118.13 C13.8718915,117.829187 15.6050379,118.187275 17.03,119.13 C18.1866665,120.106472 18.849795,121.546303 18.84,123.06 C19.09,127.27 17.34,130.06 13.64,131.43 C13.5890513,131.450103 13.5330553,131.453603 13.48,131.44 L13.48,131.44 Z" id="Shape" fill="#603404" stroke-width="1"/>
            <path d="M30.2,160.92 C30.1025851,160.912133 30.0207797,160.843562 29.9960183,160.749019 C29.971257,160.654476 30.0089477,160.554608 30.09,160.5 C31.4344791,159.598549 32.3576854,158.192102 32.65,156.6 C32.6704785,156.476439 32.7860572,156.391978 32.91,156.41 C33.0335607,156.430479 33.118022,156.546057 33.1,156.67 C32.7925417,158.398895 31.7871462,159.92507 30.32,160.89 C30.2834899,160.91077 30.241989,160.921145 30.2,160.92 Z" id="Shape" fill="#603404" stroke-width="1"/>
            <path d="M63.88,171.32 C63.88,171.32 62.57,174.87 65.37,177.11 C67.56,178.87 70.26,178.44 72.3,176.53 C73.46,175.44 74.3,172.34 73.09,171.03 L63.88,171.32 Z" id="Shape" fill="#FFF6E6" stroke-width="1"/>
            <path d="M63.25,171.74 C63.3075431,173.673147 64.3088647,175.45535 65.93,176.51 C67.8531197,177.82574 70.4421052,177.577366 72.08,175.92 C73.4690824,174.549627 74.6635565,172.995128 75.63,171.3 L63.25,171.74 Z" id="Shape" fill="#443A37" stroke-width="1"/>
            <path d="M43,171 C43,171 41.7,174.55 44.5,176.79 C46.69,178.55 49.39,178.11 51.43,176.2 C52.59,175.11 53.43,172 52.21,170.7 L43,171 Z" id="Shape" fill="#FFF6E6" stroke-width="1"/>
            <path d="M42.36,171.44 C42.4085816,173.365623 43.3941054,175.146286 45,176.21 C46.9254568,177.523158 49.5146613,177.270552 51.15,175.61 C52.5524684,174.245287 53.7604661,172.69407 54.74,171 L42.36,171.44 Z" id="Shape" fill="#443A37" stroke-width="1"/>
            <polygon id="Shape" fill="#D2CFCC" points="13.97 49.42 8.78 49.35 9.19 162.81 14.86 163.91" stroke-width="1"/>
            <path d="M14.86,164 L14.86,164 L9.19,162.9 C9.12421879,162.890633 9.07408255,162.836319 9.07,162.77 L8.66,49.33 C8.66227162,49.30139 8.67672622,49.2751351 8.69968627,49.257915 C8.72264632,49.240695 8.75189833,49.2341699 8.78,49.24 L14,49.3 C14.0294552,49.2919146 14.0605448,49.2919146 14.09,49.3 C14.1007159,49.3290431 14.1007159,49.3609569 14.09,49.39 L15,163.93 C15.0125032,163.955201 15.0125032,163.984799 15,164.01 C14.9560463,164.037151 14.8996484,164.033123 14.86,164 L14.86,164 Z M9.32,162.7 L14.73,163.7 L13.85,49.52 L8.91,49.52 L9.32,162.7 Z" id="Shape" fill="#603404" stroke-width="1"/>
            <polygon id="Shape" fill="#FAFBFD" points="12.23 49.5 10.08 49.49 10.81 163.23 13.19 163.13" stroke-width="1"/>
            <path d="M14.46,162.63 C14.46,162.63 11.06,163.89 9.27,162.55 L8.16,165 C8.16,165 12.16,167.36 15.49,165 L14.46,162.63 Z" id="Shape" fill="#FFE687" stroke-width="1"/>
            <path d="M12.17,166.11 C10.752788,166.107734 9.35689371,165.764762 8.1,165.11 L8,165 L9.2,162.37 L9.32,162.46 C11.04,163.74 14.32,162.54 14.4,162.53 L14.51,162.53 L15.63,165 L15.56,165 C14.5752884,165.718154 13.3887662,166.106661 12.17,166.11 Z M8.31,164.93 C8.92,165.25 12.42,166.93 15.31,164.93 L14.37,162.81 C13.77,163.01 10.98,163.87 9.29,162.75 L8.31,164.93 Z" id="Shape" fill="#603404" stroke-width="1"/>
            <path d="M14.61,165.52 L16.29,168.38 L11.78,177.71 C11.78,177.71 11.13,178.06 10.85,177.56 L7.27,168.24 L8.89,165.34 C8.89,165.34 12.34,166.88 14.61,165.52 Z" id="Shape" fill="#FFE687" stroke-width="1"/>
            <path d="M11.29,177.93 L11.13,177.93 C10.9704014,177.879887 10.8372856,177.768358 10.76,177.62 L7.16,168.24 L8.85,165.24 L8.95,165.24 C8.95,165.24 12.36,166.75 14.56,165.43 L14.66,165.37 L16.43,168.37 L11.89,177.78 L11.89,177.78 C11.7070747,177.882912 11.4998339,177.934722 11.29,177.93 Z M7.41,168.24 L11,177.51 C11.0472858,177.596201 11.126142,177.66072 11.22,177.69 C11.3930693,177.723493 11.5723553,177.698885 11.73,177.62 L16.2,168.38 L14.61,165.68 C12.51,166.84 9.61,165.68 8.99,165.48 L7.41,168.24 Z" id="Shape" fill="#603404" stroke-width="1"/>
            <path d="M19.44,44.2 C19.44,44.2 16.74,36 28.13,31 C28.13,31 25.67,25.5 20.43,29.38 C20.43,29.38 20.93,18.04 24.74,9.9 C24.74,9.9 11.45,6.69 9.4,23.62 L9,50.74 L18.57,50.24 L19.44,44.2 Z" id="Shape" fill="#938DC5" stroke-width="1"/>
            <path d="M18.52,50.38 L18.52,50.38 L8.95,50.88 C8.95,50.88 8.86,50.83 8.86,50.75 L9.3,23.62 C9.84,19.13 11.22,15.62 13.39,13.25 C17.99,8.19 24.68,9.74 24.75,9.75 C24.7828547,9.76403412 24.8057266,9.79452995 24.81,9.83 C24.8244763,9.87212432 24.8244763,9.91787568 24.81,9.96 C21.35,17.35 20.63,27.52 20.53,29.14 C23.2,27.23 25.13,27.78 26.29,28.59 C27.1091046,29.191583 27.7683259,29.9847086 28.21,30.9 C28.2244763,30.9421243 28.2244763,30.9878757 28.21,31.03 C28.200493,31.068573 28.175046,31.1012907 28.14,31.12 C23.62,33.12 20.78,35.78 19.7,39.12 C19.1558972,40.7334849 19.0899143,42.469876 19.51,44.12 C19.5168377,44.1496104 19.5168377,44.1803896 19.51,44.21 L18.59,50.21 C18.6176142,50.2762742 18.5862742,50.3523858 18.52,50.38 L18.52,50.38 Z M9.05,50.6 L18.45,50.11 L19.34,44.24 C18.903128,42.5237206 18.9725922,40.7176533 19.54,39.04 C20.64,35.65 23.47,32.92 27.97,30.93 C27.51,30.07 25.06,26.1 20.46,29.51 C20.4339754,29.5318413 20.3960246,29.5318413 20.37,29.51 C20.353303,29.4717424 20.353303,29.4282576 20.37,29.39 C20.37,29.28 20.91,18.08 24.61,10.02 C23.61,9.83 17.7,8.9 13.53,13.49 C11.4,15.83 10.06,19.25 9.53,23.64 L9.05,50.6 Z" id="Shape" fill="#603404" stroke-width="1"/>
            <path d="M24.74,9.9 C24.74,9.9 28.74,2.15 32.39,2.23 C32.39,2.23 16.26,-4.09 7.32,10.31 C4.26673925,15.5462598 2.97667552,21.624984 3.64,27.65 L4.8,48.31 L9.07,46.62 L9.36,25.94 C9.36,25.94 9.6,15.7 15.66,12.41 C15.67,12.41 22.7,9 24.74,9.9 Z" id="Shape" fill="#E7E6EB" stroke-width="1"/>
            <path d="M4.8,48.45 C4.78143594,48.460718 4.75856406,48.460718 4.74,48.45 C4.73009431,48.4208177 4.73009431,48.3891823 4.74,48.36 L3.54,27.67 C2.89433769,21.6070538 4.19362198,15.4958649 7.25,10.22 C10.5769615,4.49627738 16.6319133,0.904934107 23.25,0.73 C26.377872,0.606449561 29.501334,1.06767738 32.46,2.09 C32.5097416,2.1222533 32.5337762,2.18233958 32.52,2.24 C32.52,2.31 32.47,2.36 32.42,2.36 C28.84,2.28 24.89,9.89 24.85,9.97 C24.81,10.05 24.78,10.04 24.75,10.03 C22.75,9.19 15.8,12.5 15.75,12.54 C9.82,15.75 9.52,25.82 9.52,25.93 L9.23,46.61 C9.23051629,46.6676748 9.19995121,46.7211637 9.15,46.75 L4.88,48.44 L4.8,48.45 Z M21.51,1.18 C15.6035194,1.836264 10.3595112,5.25804431 7.38,10.4 C4.3691158,15.604463 3.09088204,21.6314227 3.73,27.61 L4.89,48.13 L9,46.51 L9.29,25.94 C9.29,25.83 9.6,15.55 15.66,12.27 C15.95,12.13 22.66,8.96 24.73,9.73 C25.4418375,8.40219445 26.2507011,7.12873562 27.15,5.92 C28.34,4.34 30.05,2.51 31.76,2.14 C28.4448475,1.12285555 24.9563695,0.796129808 21.51,1.18 L21.51,1.18 Z" id="Shape" fill="#603404" stroke-width="1"/>
            <path d="M25.51,49.85 C25.51,49.85 22.88,48.14 19.62,52.64 C19.62,52.64 16.24,58.47 13.62,57.93 C11.4024774,58.0805222 9.2397345,57.1984479 7.76,55.54 C7.76,55.54 2.42,50.14 0.42,51.42 C1.15696374,47.7495933 4.55426951,45.234031 8.28,45.6 C10.2642446,46.2273332 11.7114266,47.9390539 12,50 C12,50 12.76,43.79 18.38,44 C21.7375464,44.28839 24.5713453,46.6134565 25.51,49.85 L25.51,49.85 Z" id="Shape" fill="#D0A53F" stroke-width="1"/>
            <path d="M14.25,58.09 C14.0513928,58.12338 13.8486072,58.12338 13.65,58.09 C11.4187233,58.2284153 9.24625436,57.3410169 7.75,55.68 C7.7,55.63 2.43,50.33 0.5,51.57 C0.473975352,51.5918413 0.436024648,51.5918413 0.41,51.57 C0.392777041,51.528378 0.392777041,51.481622 0.41,51.44 C0.650252593,50.3168476 1.13131673,49.2591888 1.82,48.34 C3.36240635,46.3206302 5.84172663,45.2456272 8.37,45.5 C10.2124899,46.0969153 11.6084285,47.6142398 12.05,49.5 C12.2446386,48.5672072 12.5819343,47.6700007 13.05,46.84 C14.1057689,44.8773095 16.205368,43.7065293 18.43,43.84 C19.4739425,43.9354676 20.4911346,44.2236721 21.43,44.69 C23.5114489,45.7053929 25.0507353,47.5729631 25.65,49.81 C25.6722626,49.8610101 25.6722626,49.9189899 25.65,49.97 C25.65,49.97 25.58,50.03 25.54,49.97 C25.5,49.91 22.92,48.36 19.75,52.73 C19.56,52.94 16.72,57.79 14.25,58.09 Z M13.67,57.79 C16.18,58.31 19.52,52.61 19.56,52.55 C22.3,48.78 24.63,49.32 25.34,49.61 C24.707146,47.5637824 23.2607084,45.8678343 21.34,44.92 C20.4294,44.4647346 19.4431391,44.1800408 18.43,44.08 C16.2613021,43.9391243 14.2111492,45.081576 13.19,47 C12.6556411,47.9274317 12.2931578,48.9437399 12.12,50 C12.1196833,50.0577481 12.0839407,50.1093762 12.03,50.13 C12.03,50.13 11.95,50.13 11.94,50.04 C11.6398614,48.0402498 10.2339275,46.3825647 8.31,45.76 C5.84758622,45.5088269 3.43041731,46.5490795 1.92,48.51 C1.3167269,49.325199 0.87542046,50.2485479 0.62,51.23 C2.75,50.31 7.62,55.23 7.87,55.45 C9.34593014,57.0728071 11.4811505,57.934258 13.67,57.79 L13.67,57.79 Z" id="Shape" fill="#603404" stroke-width="1"/>
            <path d="M25.33,49.58 C25.33,49.58 19.45,41.13 15.8,47.68 C15.2535876,48.6999605 14.9781313,49.8431043 15,51 C15,52.41 15.34,54.91 16.72,55 C17.4106187,55.0091711 18.0570939,54.6613599 18.43,54.08 C19.83,52.34 22.09,48.36 25.33,49.58 Z" id="Shape" fill="#F3D295" stroke-width="1"/>
            <path d="M4.95,52 C4.28,50.5 5.95,47.41 7.21,47.13 C8.80561221,46.7520408 10.4702941,47.3862053 11.41,48.73 C12.18,49.73 11.67,51.63 11.13,53.09 C10.5877994,54.1728122 9.67104728,55.0220516 8.55,55.48 C8.55,55.48 6.4,55.23 4.95,52 Z" id="Shape" fill="#F3D295" stroke-width="1"/>
            <path d="M15,57 C14.4897977,57.0729277 13.9728084,56.9236562 13.58,56.59 C12.23,55.47 11.99,52.45 11.95,50.9 C11.6706629,52.3396656 11.0307066,53.68495 10.09,54.81 C9.44567608,55.5182871 8.42994585,55.7532992 7.54,55.4 C7.54,55.4 7.47,55.31 7.48,55.23 C7.49,55.15 7.55,55.11 7.6,55.13 C8.43258894,55.4670807 9.38679586,55.25636 10,54.6 C11.46,53.16 12,49.98 12,49.95 C12,49.92 12.06,49.82 12.1,49.83 C12.14,49.84 12.18,49.89 12.18,49.96 C12.18,50.03 11.99,54.96 13.72,56.35 C14.72,57.15 16.08,56.72 17.86,55.08 C18.01,54.79 19.73,51.47 18.63,49.21 C18.63,49.21 18.26,48.52 17.81,48.6 C17.56,48.6 17.32,48.9 17.11,49.37 C16.7814932,49.9376832 16.7158081,50.6200784 16.93,51.24 C16.9639402,51.2987862 16.9639402,51.3712138 16.93,51.43 C16.93,51.43 16.83,51.43 16.81,51.43 C16.5676304,50.7064397 16.6439673,49.9139895 17.02,49.25 C17.26,48.72 17.55,48.41 17.86,48.37 L17.86,48.37 C18.4,48.3 18.8,49.05 18.86,49.08 C20.09,51.6 18.09,55.28 18.07,55.32 L18.07,55.32 C17.2464894,56.1859104 16.1732601,56.773215 15,57 L15,57 Z" id="Shape" fill="#603404" stroke-width="1"/>
            <path d="M5.66,53.74 C5.63834192,53.7525043 5.61165808,53.7525043 5.59,53.74 C4.9737473,52.902837 4.66633749,51.8781376 4.72,50.84 C4.76004881,49.8871258 5.2309967,49.0040985 6,48.44 C7.34,47.65 8,49.65 8,49.67 C8.03394023,49.7287862 8.03394023,49.8012138 8,49.86 C8,49.86 7.9,49.86 7.88,49.81 C7.86,49.76 7.2,48 6,48.7 C5.33364533,49.2068588 4.92695654,49.9835978 4.89,50.82 C4.85211094,51.7819557 5.14505289,52.7278406 5.72,53.5 C5.75792674,53.5612725 5.75792674,53.6387275 5.72,53.7 C5.70644917,53.7211131 5.68470087,53.735612 5.66,53.74 L5.66,53.74 Z" id="Shape" fill="#603404" stroke-width="1"/>
            <path d="M14.49,13 L13.19,14.27 C13.0389473,14.4106782 12.9047174,14.5683982 12.79,14.74 L11.79,16.22 L9.15,8 C10.0634105,6.88308635 11.1037467,5.87630937 12.25,5 L14.49,13 Z" id="Shape" fill="#FFFFFF" stroke-width="1"/>
            <path d="M9.1,28.41 L4.29,18.47 C4.29,18.47 3.12,22.67 3.89,30.12 L9.05,38.67 L9.1,28.41 Z" id="Shape" fill="#FFFFFF" stroke-width="1"/>
            <path d="M24.49,10.05 C23.514967,9.85903086 22.5057343,9.94920286 21.58,10.31 C21.58,10.31 16.65,24.62 17.22,29.94 C17.3,30.73 17.82,31.2 18.35,31.04 C19.1729835,30.7594399 19.8775093,30.2099098 20.35,29.48 C20.5135835,25.6390754 21.0392469,21.8221565 21.92,18.08 C22.5316827,15.3310171 23.3918858,12.6433006 24.49,10.05 L24.49,10.05 Z" id="Shape" fill="#A9ADCC" stroke-width="1"/>
            <path d="M27.9,30.86 C27.9,30.86 22,33.4 20.06,37.56 C20.06,37.56 18.45,40.88 19.2,43.86 L17.2,43.86 C17.2,43.86 15.82,35.46 21.62,31.74 C21.59,31.69 25.93,29.2 27.9,30.86 Z" id="Shape" fill="#A9ADCC" stroke-width="1"/>
            <path d="M17.71,19.08 C17.71,19.08 17.12,17.93 16.56,18.29 L15.72,20.67 C15.4144776,20.1870161 15.2676256,19.6205868 15.3,19.05 C15.3,19.05 13.49,20.71 14.89,22.34 L12.49,30 C12.49,30 14.8,29.8 14.28,31.58 C14.28,31.58 13.6,38.58 11.28,40 L11.53,45.07 L13.34,39.93 C14.1705277,39.0615283 14.5860284,37.8769868 14.48,36.68 C14.48,36.68 16.32,29.88 14.48,28.94 C14.4810641,28.2969498 14.6995673,27.6731584 15.1,27.17 C16.2533557,26.1849744 16.8008555,24.6641417 16.54,23.17 L17.71,19.08 Z" id="Shape" fill="#FFE687" stroke-width="1"/>
            <path d="M69.75,101.11 C69.75,101.11 77.75,99.11 82.91,115.79 C84.5689173,119.878103 85.4833131,124.22995 85.61,128.64 C85.61,133.36 83.2,137.3 79.97,138.2 C78.4239365,138.653727 76.7754591,138.618802 75.25,138.1 C75.25,138.1 76.53,155.98 83.34,166.6 C83.34,166.6 84.57,175.35 55.49,174.83 C55.49,174.83 25.18,173.27 28,161.29 C28,161.29 29.27,157.1 32.86,156.63 L36.2,137.94 L38.09,117.08 L69.75,101.11 Z" id="Shape" fill="#0FB553" stroke-width="1"/>
            <path d="M58,175.08 L55.54,175.08 C51.7795482,174.836178 48.0385637,174.351854 44.34,173.63 C36.43,172.06 31.26,169.71 28.97,166.63 C27.7748606,165.103303 27.3572837,163.107803 27.84,161.23 C27.9,161.04 29.16,157 32.72,156.42 L36,137.9 L37.88,117.06 C37.8875252,116.983759 37.932518,116.91627 38,116.88 L69.66,100.88 L69.66,100.88 C70,100.79 77.98,98.99 83.09,115.71 C84.7512468,119.822222 85.6688331,124.19684 85.8,128.63 C85.8,133.44 83.39,137.46 80,138.4 C78.5215375,138.836448 76.9484625,138.836448 75.47,138.4 C75.69,140.9 77.3,156.81 83.47,166.46 C83.4762019,166.489679 83.4762019,166.520321 83.47,166.55 C83.5018452,167.67879 83.0550841,168.768451 82.24,169.55 C80.06,172.1 74,175.08 58,175.08 Z M38.3,117.23 L36.43,138 L33.09,156.71 C33.070306,156.803699 32.9946255,156.875396 32.9,156.89 C29.5,157.33 28.24,161.35 28.23,161.39 C27.7875512,163.129354 28.1752538,164.975557 29.28,166.39 C34.59,173.47 55.28,174.62 55.51,174.63 C73.15,174.97 79.64,171.9 81.98,169.28 C82.6823313,168.600922 83.0944707,167.676296 83.13,166.7 C76.39,156.15 75.04,138.32 75.03,138.14 C75.0263948,138.064671 75.0599478,137.99236 75.1197978,137.946475 C75.1796478,137.90059 75.25819,137.886961 75.33,137.91 C76.8108482,138.411634 78.4105878,138.44307 79.91,138 C83.06,137.12 85.36,133.2 85.38,128.66 C85.2479779,124.281684 84.3405971,119.961468 82.7,115.9 C77.83,99.98 70.28,101.25 69.82,101.34 L38.3,117.23 Z" id="Shape" fill="#603404" stroke-width="1"/>
            <path d="M28.16,161.21 C28.0789918,161.436741 28.0220128,161.67136 27.99,161.91 C27.7833851,163.306116 28.0965301,164.729503 28.87,165.91 C28.87,165.91 29.99,167.91 33.51,169.73 C35.8821378,170.950876 38.3986111,171.868095 41,172.46 C44.0230963,173.225953 47.0929512,173.793826 50.19,174.16 C50.19,174.16 55.97,175.23 66.03,174.37 C66.03,174.37 74.32,173.98 78.89,171.52 C78.89,171.52 83.22,169.81 83.28,166.65 C82.7179392,165.803076 82.2102501,164.9213 81.76,164.01 C81.76,164.01 55.35,178.65 28.16,161.21 Z" id="Shape" fill="#FFDC4E" stroke-width="1"/>
            <path d="M36,134 L36,134 C35.8148308,134.606403 35.7872973,135.249999 35.92,135.87 L36.09,136.49 C36.2319662,136.911176 36.5009727,137.278003 36.86,137.54 C40.36,139.35 57.74,143.92 74.95,138.07 L73.9,137.07 C73.5812829,136.713441 73.3546891,136.284286 73.24,135.82 L73.14,135.45 C73.14,135.45 57.68,142 37,133.55 C36.53,133.35 36.26,133.43 36,134 Z" id="Shape" fill="#9B4E01" stroke-width="1"/>
            <path d="M56.78,141.22 C46.33,141.22 38.32,138.6 36.72,137.77 C36.3132905,137.482101 36.0086219,137.072374 35.85,136.6 L35.67,135.95 C35.5291579,135.285956 35.5636215,134.596683 35.77,133.95 L35.77,133.95 C36.11,133.28 36.48,133.12 37.11,133.37 C45.2152941,136.771618 54.0178416,138.180986 62.78,137.48 C66.2794596,137.229423 69.7264226,136.488865 73.02,135.28 L73.26,135.18 L73.43,135.8 C73.5335818,136.226393 73.7395244,136.621117 74.03,136.95 L75.34,138.22 L74.99,138.34 C69.118496,140.290017 62.9667018,141.262953 56.78,141.22 Z M36.17,134.12 C36.0063067,134.682682 35.9856831,135.277329 36.11,135.85 L36.28,136.46 C36.402647,136.82056 36.6287076,137.137044 36.93,137.37 C40.93,139.43 57.84,143.53 74.49,138.01 L73.7,137.25 C73.3520179,136.86649 73.1046271,136.402633 72.98,135.9 L72.98,135.78 C69.714434,136.929878 66.3120204,137.645999 62.86,137.91 C54.0198324,138.620704 45.1381341,137.201004 36.96,133.77 C36.6,133.62 36.45,133.62 36.2,134.13 L36.17,134.12 Z" id="Shape" fill="#603404" stroke-width="1"/>
            <path d="M19,116.16 L18,116.94 C18,116.94 16,116.86 15.55,118.18 C15.55,118.18 14.12,125.36 16.93,129.6 C16.93,129.6 17.4,129.96 18.24,128.6 L21.89,127.43 C21.89,127.43 18.83,117.32 19,116.16 Z" id="Shape" fill="#9B4E01" stroke-width="1"/>
            <path d="M17.07,129.87 C16.962942,129.872903 16.8577805,129.841355 16.77,129.78 L16.77,129.73 C13.94,125.46 15.3,118.43 15.36,118.14 C15.77,116.8 17.54,116.72 17.96,116.72 L18.87,115.99 C18.9419843,115.934327 19.0400249,115.92633 19.1200794,115.969603 C19.2001339,116.012876 19.2471473,116.09928 19.24,116.19 C19.15,117.01 20.93,123.32 22.14,127.35 C22.1728271,127.468418 22.1067705,127.591724 21.99,127.63 L18.42,128.78 C18.01,129.43 17.61,129.78 17.24,129.86 L17.07,129.87 Z M17.07,129.43 C17.16,129.43 17.52,129.31 18.07,128.43 C18.0971094,128.383688 18.139559,128.348314 18.19,128.33 L21.63,127.22 C21.16,125.66 19.08,118.66 18.8,116.56 L18.16,117.07 C18.1110858,117.084736 18.0589142,117.084736 18.01,117.07 C18.01,117.07 16.13,117.02 15.78,118.15 C15.74,118.29 14.38,125.31 17.06,129.43 L17.07,129.43 Z" id="Shape" fill="#603404" stroke-width="1"/>
            <path d="M26.23,108.62 C21.4496926,110.502673 18.417384,115.240656 18.71,120.37 C18.71,120.37 19.65,129.17 25.36,128.37 C25.36,128.37 28.78,127.97 29.67,127.21 C29.68,127.19 24.75,112.14 26.23,108.62 Z" id="Shape" fill="#0FB553" stroke-width="1"/>
            <path d="M24.63,128.63 C23.6064688,128.628212 22.6145529,128.275217 21.82,127.63 C19.06,125.49 18.51,120.58 18.49,120.37 C18.05,111.37 26.07,108.37 26.16,108.37 C26.2432621,108.345868 26.33302,108.370601 26.3921692,108.433975 C26.4513185,108.49735 26.4698101,108.588598 26.44,108.67 C25.01,112.07 29.85,126.93 29.89,127.08 C29.9159774,127.166804 29.8885702,127.260772 29.82,127.32 C28.88,128.12 25.53,128.52 25.39,128.54 C25.1391665,128.588275 24.8851711,128.618354 24.63,128.63 L24.63,128.63 Z M25.87,109 C21.4194754,110.968375 18.657583,115.49182 18.94,120.35 C18.94,120.35 19.5,125.27 22.1,127.29 C23.0156602,128.008779 24.1926544,128.306661 25.34,128.11 C26.7441155,127.993238 28.1210309,127.655759 29.42,127.11 C28.89,125.49 25,113.06 25.87,109 Z" id="Shape" fill="#603404" stroke-width="1"/>
            <path d="M40.89,100.67 L32.4,103.27 C32.4,103.27 25.29,105.42 24.22,114.5 C24.22,114.5 21.7,124.92 27.87,127.93 L30.92,126.66 C30.92,126.66 39.63,127.88 46.08,123.85 C46.09,123.86 52,103.77 40.89,100.67 Z" id="Shape" fill="#984F01" stroke-width="1"/>
            <path d="M27.87,128.16 L27.77,128.16 C25.17,126.89 23.69,124.16 23.5,120.16 C23.4258725,118.263573 23.5904971,116.365351 23.99,114.51 C25.07,105.42 32.25,103.14 32.33,103.12 L40.82,100.52 C40.8625081,100.50804 40.9074919,100.50804 40.95,100.52 C43.1650552,101.116101 45.033565,102.604391 46.11,104.63 C49.9,111.46 46.46,123.48 46.31,123.99 C46.2937747,124.04415 46.2581761,124.090428 46.21,124.12 C40,127.89 31.76,127 31,126.9 L28,128.14 L27.87,128.16 Z M40.87,100.91 L32.44,103.49 C32.37,103.49 25.44,105.71 24.44,114.49 C24.44,114.62 22.05,124.69 27.88,127.65 L30.88,126.42 L31,126.42 C31.09,126.42 39.64,127.57 45.94,123.69 C46.24,122.6 49.3,111.13 45.76,104.76 C44.7355568,102.861247 42.9739229,101.46858 40.89,100.91 L40.87,100.91 Z" id="Shape" fill="#603404" stroke-width="1"/>
            <path d="M33.3,103.12 C33.3,103.12 29.78,104.92 28.16,110.39 C27.06,114.11 26.07,125.06 30.95,126.33 C33.0109632,126.833554 35.1561007,126.888121 37.24,126.49 L37,133.55 C37,133.55 42.59,127.01 48.84,124.74 C48.84,124.74 45.26,104.56 40.84,100.83 L33.3,103.12 Z" id="Shape" fill="#F9D759" stroke-width="1"/>
            <path d="M40.85,100.83 C45.28,104.56 48.85,124.74 48.85,124.74 C42.6,127 37,133.55 37,133.55 L37.22,126.49 C36.152679,126.638087 35.0773878,126.721573 34,126.74 C32.9628604,126.742395 31.9301633,126.604477 30.93,126.33 C26.05,125.06 27.04,114.11 28.14,110.39 C29.76,104.91 33.28,103.12 33.28,103.12 L40.84,100.84 L40.85,100.83 Z M40.84,100.39 L40.71,100.39 L33.15,102.67 L33.08,102.67 C32.93,102.75 29.36,104.62 27.71,110.22 C26.82,113.22 26.01,120.74 28.15,124.53 C28.6927301,125.60481 29.6612366,126.40283 30.82,126.73 C31.859658,127.012566 32.9326339,127.153836 34.01,127.15 C34.9295077,127.138368 35.8476296,127.074934 36.76,126.96 L36.55,133.49 C36.5376808,133.685779 36.6536041,133.86698 36.8365173,133.937859 C37.0194304,134.008737 37.2271827,133.952961 37.35,133.8 C37.41,133.74 42.94,127.33 49,125.12 C49.2050773,125.045652 49.3272986,124.834926 49.29,124.62 C49.14,123.79 45.63,104.24 41.13,100.44 C41.0494232,100.370126 40.9466477,100.331142 40.84,100.33 L40.84,100.39 Z" id="Shape" fill="#603404" stroke-width="1"/>
            <path d="M28.36,124.19 C28.2708899,124.188326 28.1907688,124.13532 28.1543728,124.053965 C28.1179769,123.972609 28.1318588,123.87755 28.19,123.81 L36.62,114.81 C36.6701454,114.732894 36.7614061,114.693077 36.8520362,114.708763 C36.9426663,114.724449 37.0152367,114.792622 37.0365509,114.882095 C37.0578651,114.971569 37.0238243,115.065138 36.95,115.12 L28.52,124.12 C28.478609,124.164409 28.420707,124.189742 28.36,124.19 Z" id="Shape" fill="#603404" stroke-width="1"/>
            <path d="M27.38,115.14 L27.29,115.14 C27.178517,115.085949 27.1298809,114.953305 27.18,114.84 C30.18,108.37 33.87,105.09 36.47,103.48 C37.9732109,102.46108 39.6787643,101.778858 41.47,101.48 C41.5300029,101.471537 41.5908396,101.488198 41.6381578,101.526053 C41.6854759,101.563907 41.7150851,101.619603 41.72,101.68 C41.7317917,101.803672 41.6432436,101.914357 41.52,101.93 C41.44,101.93 33.19,102.84 27.6,114.99 C27.5660069,115.081681 27.4777628,115.141848 27.38,115.14 L27.38,115.14 Z" id="Shape" fill="#603404" stroke-width="1"/>
            <path d="M27.38,121 L27.29,121 C27.1746667,120.949666 27.1211961,120.815989 27.17,120.7 C29.4973992,114.723144 34.8919755,110.485643 41.25,109.64 C41.3106794,109.631238 41.3721575,109.649431 41.418297,109.689803 C41.4644365,109.730175 41.4906293,109.788695 41.49,109.85 C41.4955313,109.910026 41.4761899,109.969693 41.436495,110.015058 C41.3968001,110.060424 41.3402291,110.087514 41.28,110.09 C35.092802,110.926594 29.849071,115.059527 27.59,120.88 C27.5483806,120.956548 27.467079,121.003006 27.38,121 L27.38,121 Z" id="Shape" fill="#603404" stroke-width="1"/>
            <path d="M32.25,126.45 L32.2,126.45 C32.0792075,126.41595 32.00801,126.291354 32.04,126.17 C33.52,120.38 43.12,110.27 43.52,109.84 C43.6093785,109.773579 43.7335018,109.780728 43.8146637,109.856971 C43.8958256,109.933214 43.9107106,110.056649 43.85,110.15 C43.75,110.25 33.93,120.6 32.48,126.28 C32.4521699,126.38324 32.3568622,126.453685 32.25,126.45 Z" id="Shape" fill="#603404" stroke-width="1"/>
            <path d="M37.24,126.72 C37.1526907,126.71468 37.0759564,126.660295 37.0420126,126.579679 C37.0080688,126.499062 37.0227916,126.40617 37.08,126.34 L43.56,119.49 C43.6493785,119.423579 43.7735018,119.430728 43.8546637,119.506971 C43.9358256,119.583214 43.9507106,119.706649 43.89,119.8 L37.41,126.65 C37.3655284,126.695951 37.3039338,126.721314 37.24,126.72 Z" id="Shape" fill="#603404" stroke-width="1"/>
            <path d="M39.62,131.06 C39.5392074,131.059303 39.4647056,131.016264 39.4237406,130.946623 C39.3827756,130.876983 39.3813556,130.790955 39.42,130.72 L44.6,121.67 C44.6723373,121.59152 44.7891605,121.573117 44.8821219,121.625557 C44.9750833,121.677996 45.0197543,121.787499 44.99,121.89 L39.81,130.94 C39.7734132,131.011769 39.7005268,131.057803 39.62,131.06 L39.62,131.06 Z" id="Shape" fill="#603404" stroke-width="1"/>
            <path d="M43.3,113.16 C43.2607047,113.170619 43.2192953,113.170619 43.18,113.16 C40.18,111.3 41.18,105 41.24,104.74 C41.2411662,104.650042 41.2946748,104.569023 41.3769527,104.532635 C41.4592306,104.496246 41.5551712,104.51117 41.6225081,104.570832 C41.6898449,104.630494 41.7162146,104.723939 41.69,104.81 C41.69,104.87 40.69,111.08 43.43,112.81 C43.5120627,112.865806 43.5490774,112.967954 43.521814,113.063375 C43.4945507,113.158797 43.4091582,113.225972 43.31,113.23 L43.3,113.16 Z" id="Shape" fill="#603404" stroke-width="1"/>
            <path d="M42.86,118 L42.78,118 C41.1988602,117.444939 39.9270294,116.245784 39.28,114.7 C37.03,109.55 40.49,101.13 40.64,100.77 C40.6991538,100.675232 40.817851,100.636675 40.9214043,100.678589 C41.0249577,100.720504 41.0834177,100.830768 41.06,100.94 C41.06,101.02 37.52,109.54 39.7,114.51 C40.3000606,115.939125 41.4772622,117.047293 42.94,117.56 C43.0372092,117.602967 43.0923193,117.706943 43.0733071,117.81151 C43.0542948,117.916078 42.9661121,117.994001 42.86,118 L42.86,118 Z" id="Shape" fill="#603404" stroke-width="1"/>
            <path d="M38.46,111.95 C38.417656,111.963095 38.372344,111.963095 38.33,111.95 C35.21,109.72 33.17,103.5 33.08,103.23 C33.0611925,103.171655 33.0664545,103.108217 33.0946176,103.053768 C33.1227808,102.999319 33.1715147,102.958366 33.23,102.94 C33.2883448,102.921193 33.3517835,102.926454 33.4062323,102.954618 C33.460681,102.982781 33.5016342,103.031515 33.52,103.09 C33.52,103.15 35.6,109.43 38.6,111.58 C38.6749371,111.639306 38.7053936,111.738773 38.6765094,111.829869 C38.6476253,111.920965 38.5654192,111.984709 38.47,111.99 L38.46,111.95 Z" id="Shape" fill="#603404" stroke-width="1"/>
            <path d="M42.34,121.33 L42.25,121.33 C38.08,119.42 32,104.82 31.73,104.2 C31.7065823,104.090768 31.7650423,103.980504 31.8685957,103.938589 C31.972149,103.896675 32.0908462,103.935232 32.15,104.03 C32.21,104.18 38.42,119.08 42.43,120.9 C42.518067,120.948953 42.5640188,121.049528 42.5433772,121.148149 C42.5227356,121.24677 42.4403067,121.320474 42.34,121.33 L42.34,121.33 Z" id="Shape" fill="#603404" stroke-width="1"/>
            <path d="M46.19,126.19 C46.1538731,126.198897 46.1161269,126.198897 46.08,126.19 L27.27,115.11 C27.1837673,115.078003 27.1248888,114.997709 27.1202978,114.905846 C27.1157068,114.813983 27.1662862,114.728218 27.248899,114.687783 C27.3315118,114.647348 27.4302708,114.660019 27.5,114.72 L46.31,125.77 C46.3910523,125.824608 46.428743,125.924476 46.4039817,126.019019 C46.3792203,126.113562 46.2974149,126.182133 46.2,126.19 L46.19,126.19 Z" id="Shape" fill="#603404" stroke-width="1"/>
            <path d="M32.58,81.67 C32.58,81.67 28.43,78.3 26.9,84.2 C26.9,84.2 26.25,86.3 28.38,89.07 C28.38,89.07 29.92,90.94 29.38,92.71 C28.9123906,93.5970798 28.7776007,94.6221924 29,95.6 C29.39,97.06 30.57,98.8 32.62,98.6 C32.58,98.6 36.68,83.41 32.58,81.67 Z" id="Shape" fill="#EC897A" stroke-width="1"/>
            <path d="M32.26,98.73 C30.38,98.73 29.26,97.1 28.87,95.63 C28.6547355,94.6061666 28.8219336,93.5389449 29.34,92.63 C29.81,90.95 28.34,89.14 28.34,89.12 C26.2,86.33 26.82,84.22 26.84,84.12 C27.3,82.33 28.05,81.2 29.07,80.76 C30.72,80.05 32.47,81.4 32.64,81.53 C34.38,82.28 34.92,85.39 34.23,90.77 C33.8724585,93.4082404 33.358216,96.0228629 32.69,98.6 C32.6824314,98.6406384 32.6506384,98.6724314 32.61,98.68 L32.26,98.73 Z M30.06,80.82 C29.7336559,80.8175299 29.4102907,80.8822029 29.11,81.01 C28.11,81.42 27.44,82.51 26.99,84.23 C26.99,84.23 26.39,86.31 28.45,88.99 C28.51,89.07 30.03,90.93 29.51,92.75 L29.51,92.75 C29.008728,93.5952756 28.8277403,94.592482 29,95.56 C29.39,97.01 30.53,98.64 32.46,98.49 C32.76,97.36 36.33,83.39 32.46,81.77 L32.46,81.77 C31.7687652,81.2277963 30.9350652,80.89779 30.06,80.82 L30.06,80.82 Z" id="Shape" fill="#603404" stroke-width="1"/>
            <path d="M31.88,92.32 L31.77,92.32 C31.417125,92.248549 31.1505545,91.9577448 31.11,91.6 C31.0551089,91.3025109 31.0551089,90.9974891 31.11,90.7 C31.1636092,90.5073348 31.2970638,90.3467987 31.4766933,90.2588949 C31.6563227,90.1709912 31.8649724,90.1641145 32.05,90.24 C32.3636784,90.4216673 32.5432182,90.7690379 32.51,91.13 C32.6510975,90.4034537 32.6510975,89.6565463 32.51,88.93 C31.94,85.82 29.87,85.79 29.85,85.79 C29.7561116,85.79 29.68,85.7138884 29.68,85.62 C29.68,85.5261116 29.7561116,85.45 29.85,85.45 C29.85,85.45 32.16,85.45 32.77,88.84 C32.9909873,89.8038747 32.9460548,90.8096702 32.64,91.75 C32.5263935,92.0770489 32.2257768,92.3025114 31.88,92.32 Z M31.4,90.8 C31.357733,91.0381391 31.357733,91.2818609 31.4,91.52 C31.4225167,91.7494986 31.5934905,91.9367557 31.82,91.98 C32.0814891,92.0075523 32.3269322,91.8494703 32.41,91.6 L32.48,91.42 L32.41,91.42 C32.3253118,91.404723 32.2678762,91.3251968 32.28,91.24 C32.28,90.67 32.01,90.54 32.01,90.54 C31.8960719,90.4810394 31.7617689,90.4760237 31.6437604,90.5263224 C31.5257518,90.5766211 31.436363,90.6769809 31.4,90.8 Z" id="Shape" fill="#603404" stroke-width="1"/>
            <path d="M77.64,81.67 C77.64,81.67 81.79,78.3 83.31,84.2 C83.31,84.2 83.96,86.3 81.83,89.07 C81.83,89.07 80.29,90.94 80.83,92.71 C81.3248319,93.5870377 81.4880816,94.6126715 81.29,95.6 C80.5658582,97.4614828 78.7463541,98.6637983 76.75,98.6 C76.75,98.6 73.54,83.41 77.64,81.67 Z" id="Shape" fill="#EC897A" stroke-width="1"/>
            <path d="M77,98.74 L76.68,98.74 C76.6393616,98.7324314 76.6075686,98.7006384 76.6,98.66 C76.6,98.66 76.48,94.8 75.97,90.82 C75.28,85.44 75.82,82.33 77.56,81.58 C77.72,81.45 79.48,80.11 81.13,80.81 C82.13,81.25 82.9,82.38 83.36,84.17 C83.36,84.25 84,86.36 81.86,89.17 C81.86,89.17 80.37,91.01 80.86,92.68 C81.3780664,93.5889449 81.5452645,94.6561666 81.33,95.68 C80.6026939,97.4537762 78.9148189,98.6465932 77,98.74 Z M76.75,98.51 C78.6801203,98.5388724 80.4256224,97.367234 81.13,95.57 C81.3153849,94.6160589 81.1559047,93.6272815 80.68,92.78 L80.68,92.78 C80.16,90.96 81.68,89.1 81.74,89.02 C83.74,86.34 83.2,84.29 83.19,84.27 C82.74,82.54 82.03,81.46 81.07,81.05 C79.46,80.36 77.67,81.78 77.66,81.8 L77.66,81.8 C73.84,83.4 76.5,97.37 76.79,98.5 L76.75,98.51 Z" id="Shape" fill="#603404" stroke-width="1"/>
            <path d="M78.33,92.32 C77.9867657,92.3041016 77.686861,92.0831192 77.57,91.76 C77.2626046,90.8164773 77.2176668,89.8071065 77.44,88.84 C78.05,85.49 80.34,85.45 80.36,85.45 C80.4538884,85.45 80.53,85.5261116 80.53,85.62 C80.53,85.7138884 80.4538884,85.79 80.36,85.79 C80.27,85.79 78.27,85.79 77.7,88.92 C77.5588509,89.6499054 77.5588509,90.4000946 77.7,91.13 C77.6687299,90.7668651 77.8524678,90.4189359 78.17,90.24 C78.3482815,90.1629244 78.5507916,90.1645583 78.7278063,90.2445004 C78.9048209,90.3244425 79.0399449,90.4752885 79.1,90.66 C79.1596796,90.9704916 79.1596796,91.2895084 79.1,91.6 C79.0594455,91.9577448 78.792875,92.248549 78.44,92.32 L78.33,92.32 Z M77.75,91.42 L77.82,91.6 C77.8998074,91.8519816 78.1475729,92.0115594 78.41,91.98 C78.6365095,91.9367557 78.8074833,91.7494986 78.83,91.52 C78.8724764,91.2818794 78.8724764,91.0381206 78.83,90.8 C78.788069,90.6887068 78.7019167,90.5997503 78.5920233,90.5542771 C78.4821298,90.508804 78.3583106,90.5108758 78.25,90.56 C78.25,90.56 77.94,90.71 77.97,91.26 C77.9821238,91.3451968 77.9246882,91.424723 77.84,91.44 L77.75,91.42 Z" id="Shape" fill="#603404" stroke-width="1"/>
            <path d="M35.31,75.36 C35.31,75.36 32.48,98.88 39.25,108.76 C39.25,108.76 53.39,123.44 71.71,108.61 C71.71,108.61 77.71,90.34 76.14,75.36 C76.14,75.36 44.66,64.43 35.31,75.36 Z" id="Shape" fill="#EC897A" stroke-width="1"/>
            <path d="M32.25,77.24 C32.25,77.24 32.7,83.6 33.74,85.63 C33.889763,87.6920464 33.6384629,89.7635744 33,91.73 C33,91.73 31.48,96.67 33.18,104.87 C34.5897165,110.082642 37.8083862,114.623519 42.26,117.68 C44.5309363,122.598396 47.5687943,127.124805 51.26,131.09 C51.26,131.09 58.82,140.3 49.6,150.79 C49.6,150.79 62.6,144.42 63.16,130.79 C63.16,130.79 64.27,122.14 66.8,118.21 C66.8,118.21 72.61,114.78 73.86,111.02 C77.0262184,103.328803 77.998884,94.9105731 76.67,86.7 C76.67,86.7 78.86,80.03 78.67,77.06 L75.2,75.74 C75.2,75.74 75.64,88.27 73.75,95.63 C73.75,95.63 73.01,100.12 69.75,101.42 C65.7062464,97.4763075 60.3864699,95.1072338 54.75,94.74 C54.75,94.74 42.21,95.92 40.64,102.15 C40.64,102.15 33.46,98.85 36.54,75.49 C35.0331054,75.8634458 33.5881468,76.4528811 32.25,77.24 L32.25,77.24 Z" id="Shape" fill="#161616" stroke-width="1"/>
            <path d="M54.82,95.92 C54.82,95.92 45.57,99.03 45.07,104.68 C45.07,104.68 44.15,108.68 49.77,108.24 C50.6875819,108.079799 51.4923235,107.533595 51.98,106.74 C53.963866,105.314675 56.636134,105.314675 58.62,106.74 C59.5429919,107.652218 60.8314555,108.093977 62.12,107.94 C63.2263077,107.78859 64.2013724,107.136444 64.7637623,106.171789 C65.3261522,105.207134 65.4132807,104.037324 65,103 C65,103 61.55,96.82 54.82,95.92 Z" id="Shape" fill="#EC897A" stroke-width="1"/>
            <path d="M53.15,92 L53.07,92 C52.9733132,91.9335133 52.935878,91.8087294 52.98,91.7 C52.98,91.62 53.74,89.7 54.98,89.7 C55.76,89.65 56.52,90.32 57.25,91.7 C57.3022197,91.8050371 57.27764,91.9320326 57.19,92.01 C57.1485967,92.0380723 57.0969311,92.0464846 57.0487609,92.0329969 C57.0005907,92.0195093 56.9608057,91.9854908 56.94,91.94 C56.26,90.65 55.6,90 55,90.08 C54,90.16 53.35,91.85 53.34,91.87 C53.313118,91.9511378 53.2353649,92.0043373 53.15,92 L53.15,92 Z" id="Shape" fill="#161616" stroke-width="1"/>
            <path d="M60.2,101.67 C60.1675228,101.680684 60.1324772,101.680684 60.1,101.67 C55.37,98.17 49.91,101.67 49.86,101.67 C49.8159628,101.69709 49.7619906,101.702667 49.7133443,101.685155 C49.664698,101.667642 49.6266653,101.628943 49.61,101.58 C49.5638137,101.473552 49.5969433,101.349316 49.69,101.28 C49.75,101.28 55.38,97.65 60.3,101.28 C60.3909816,101.356031 60.4160426,101.485513 60.36,101.59 C60.3246299,101.643157 60.2637473,101.673598 60.2,101.67 L60.2,101.67 Z" id="Shape" fill="#161616" stroke-width="1"/>
            <path d="M49.78,103.07 L49.73,103.07 C49.6211635,103.023929 49.5649581,102.902871 49.6,102.79 C49.7249553,102.423697 49.7249553,102.026303 49.6,101.66 C49.4876974,101.416114 49.2878074,101.223363 49.04,101.12 C48.9311635,101.073929 48.8749581,100.952871 48.91,100.84 C48.913865,100.785718 48.9420805,100.736098 48.9867538,100.705021 C49.0314272,100.673944 49.087762,100.664746 49.14,100.68 C49.4876156,100.819091 49.7673896,101.088104 49.92,101.43 C50.1163589,101.898994 50.1480823,102.420668 50.01,102.91 C50.0028873,102.962797 49.9739359,103.010182 49.9302033,103.040605 C49.8864707,103.071027 49.8319747,103.081692 49.78,103.07 L49.78,103.07 Z" id="Shape" fill="#161616" stroke-width="1"/>
            <path d="M60.4,103.07 C60.3095446,103.066359 60.2342208,102.999405 60.22,102.91 C60.0819177,102.420668 60.1136411,101.898994 60.31,101.43 C60.4626104,101.088104 60.7423844,100.819091 61.09,100.68 C61.142238,100.664746 61.1985728,100.673944 61.2432462,100.705021 C61.2879195,100.736098 61.316135,100.785718 61.32,100.84 C61.3550419,100.952871 61.2988365,101.073929 61.19,101.12 C60.9421926,101.223363 60.7423026,101.416114 60.63,101.66 C60.5050447,102.026303 60.5050447,102.423697 60.63,102.79 C60.6650419,102.902871 60.6088365,103.023929 60.5,103.07 L60.4,103.07 Z" id="Shape" fill="#161616" stroke-width="1"/>
            <path d="M55.79,105.46 C55.7382669,105.457685 55.6904099,105.431916 55.66,105.39 C55.5429427,105.201667 55.3414088,105.08224 55.12,105.07 C54.9062428,105.098316 54.7122406,105.209687 54.58,105.38 C54.5499469,105.421886 54.5015525,105.446726 54.45,105.446726 C54.3984475,105.446726 54.3500531,105.421886 54.32,105.38 C54.2465854,105.285965 54.2465854,105.154035 54.32,105.06 C54.5123802,104.803536 54.8015723,104.637251 55.12,104.6 C55.4509636,104.605045 55.7579873,104.773533 55.94,105.05 C56.0134146,105.144035 56.0134146,105.275965 55.94,105.37 C55.910455,105.425397 55.852783,105.46 55.79,105.46 L55.79,105.46 Z" id="Shape" fill="#161616" stroke-width="1"/>
            <path d="M32.48,74 C32.48,74 31.7,52.57 50.34,48.15 C50.34,48.15 60.34,45.3 70.34,53.47 C70.34,53.47 78.03,60.21 78.21,74.74 C78.19,74.74 58,61.67 32.48,74 Z" id="Shape" fill="#0FB553" stroke-width="1"/>
            <path d="M78.19,75 L78.1,75 C77.9,74.87 57.67,62.13 32.55,74.26 C32.4980203,74.2925941 32.4319797,74.2925941 32.38,74.26 C32.3020494,74.1982727 32.2702335,74.094871 32.3,74 C32.3134125,70.1269381 32.9898517,66.2847634 34.3,62.64 C36.3,57.2 40.64,50.24 50.3,47.93 C50.39,47.93 60.45,45.16 70.42,53.28 C70.5,53.35 78.19,60.28 78.42,74.73 C78.4239961,74.8072772 78.3904877,74.8817404 78.33,74.93 C78.2987111,74.9761253 78.2456736,75.002644 78.19,75 Z M54.79,68.55 C62.8948689,68.4917037 70.8815711,70.4944011 78,74.37 C77.69,60.37 70.29,53.72 70.21,53.65 C60.38,45.65 50.48,48.34 50.38,48.37 C40.83,50.63 36.53,57.47 34.6,62.8 C33.3665291,66.289946 32.714521,69.9587582 32.67,73.66 C39.5625083,70.3025186 47.1232983,68.5422081 54.79,68.51 L54.79,68.55 Z" id="Shape" fill="#603404" stroke-width="1"/>
            <path d="M40.39,52.94 C40.39,52.94 39.58,38.67 45.49,37.94 C45.49,37.94 56.49,34.53 67.26,38.58 C67.26,38.58 71.95,39.52 71.26,54.08 C71.27,54.07 57.86,41.34 40.39,52.94 Z" id="Shape" fill="#0FB553" stroke-width="1"/>
            <path d="M71.27,54.29 C71.2344857,54.3030003 71.1955143,54.3030003 71.16,54.29 C71.03,54.16 57.63,41.79 40.48,53.19 C40.4256887,53.2269499 40.3543113,53.2269499 40.3,53.19 C40.2401701,53.1491052 40.2031137,53.0824037 40.2,53.01 C40.0993138,50.5780573 40.213087,48.1419724 40.54,45.73 C41.26,40.83 42.96,38.08 45.46,37.73 C45.54,37.73 56.56,34.36 67.31,38.38 C67.48,38.38 72.13,39.52 71.45,54.11 C71.4478775,54.1878755 71.4064783,54.2593832 71.34,54.3 L71.27,54.29 Z M55.27,47.87 C61.0507325,47.9458745 66.6348526,49.9799889 71.11,53.64 C71.67,39.89 67.28,38.79 67.24,38.78 C56.57,34.78 45.65,38.11 45.54,38.14 C40.37,38.8 40.54,50.39 40.54,52.57 C44.8735024,49.5812917 49.9963601,47.9455966 55.26,47.87 L55.27,47.87 Z" id="Shape" fill="#603404" stroke-width="1"/>
            <ellipse id="Oval" fill="#8BD8AA" cx="46.92" cy="42.84" rx="1.09" ry="2.41" stroke-width="1"/>
            <ellipse id="Oval" fill="#8BD8AA" cx="44.06" cy="45.35" rx="1" ry="1.23" stroke-width="1"/>
            <path d="M32.25,77.24 C32.25,77.24 56,70 78.64,77.13 L86.14,71.54 L73,71.12 L75.55,63.87 L68.39,66.34 L66.88,59.34 L60.37,63.34 L54.57,56.29 L48.05,63.29 L42.05,60.01 L41.2,66.48 L32.66,63.32 L36.59,70.75 L26.72,69 L32.25,77.24 Z" id="Shape" fill="#FFDC4E" stroke-width="1"/>
            <path d="M32.25,77.47 C32.1740392,77.4700869 32.1029343,77.4326633 32.06,77.37 L26.52,69.17 C26.4718529,69.0937128 26.4727482,68.9963223 26.5222896,68.9209332 C26.5718311,68.8455441 26.6608707,68.806077 26.75,68.82 L36.26,70.48 L32.54,63.48 C32.4986105,63.3965709 32.511618,63.2964162 32.5729457,63.2263275 C32.6342734,63.1562387 32.731815,63.1300514 32.82,63.16 L41.1,66.2 L41.91,60 C41.9206135,59.9274442 41.9651875,59.8642977 42.03,59.83 C42.0954826,59.7944349 42.1745174,59.7944349 42.24,59.83 L48,63 L54.4,56.16 C54.4419488,56.1104609 54.5053313,56.0843622 54.57,56.09 C54.6354713,56.0912505 54.6973055,56.1203489 54.74,56.17 L60.41,63.07 L66.76,59.15 C66.8259146,59.1161784 66.9040854,59.1161784 66.97,59.15 C67.0361474,59.1798392 67.0843335,59.2391451 67.1,59.31 L68.6,66 L75.52,63.61 C75.6000335,63.5832042 75.6883144,63.6023957 75.75,63.66 C75.8097253,63.7205558 75.8291944,63.8101138 75.8,63.89 L73.35,70.89 L86.14,71.3 C86.2354192,71.3052909 86.3176253,71.369035 86.3465094,71.4601312 C86.3753936,71.5512273 86.3449371,71.6506937 86.27,71.71 L78.77,77.3 C78.7068223,77.3305025 78.6331777,77.3305025 78.57,77.3 C56.22,70.3 32.57,77.3 32.32,77.41 L32.25,77.47 Z M27.2,69.35 L32.35,77 C34.48,76.38 57.12,70.17 78.6,76.9 L85.49,71.76 L73,71.34 C72.9281876,71.3371777 72.8618224,71.3009502 72.8206089,71.2420738 C72.7793954,71.1831973 72.7680717,71.1084407 72.79,71.04 L75.19,64.23 L68.47,66.55 C68.4096263,66.5773819 68.3403737,66.5773819 68.28,66.55 C68.2238485,66.5177187 68.1839106,66.463258 68.17,66.4 L66.73,59.75 L60.49,63.6 C60.4070128,63.6727281 60.2829872,63.6727281 60.2,63.6 L54.6,56.68 L48.25,63.46 C48.1705818,63.5217206 48.0594182,63.5217206 47.98,63.46 L42.31,60.34 L41.51,66.49 C41.4987458,66.5569547 41.4584847,66.6155163 41.4,66.65 C41.3371864,66.6820544 41.2628136,66.6820544 41.2,66.65 L33.2,63.65 L36.86,70.56 C36.8982427,70.6367774 36.8905848,70.7284562 36.8401346,70.7978252 C36.7896844,70.8671942 36.7048252,70.9027265 36.62,70.89 L27.2,69.35 Z" id="Shape" fill="#603404" stroke-width="1"/>
            <path d="M53.71,71.41 C54.1461162,71.9932414 54.8317364,72.3366707 55.56,72.3366707 C56.2882636,72.3366707 56.9738838,71.9932414 57.41,71.41 C58.1638882,70.0636114 58.3093351,68.4600596 57.81,67 C57.81,67 57.6,65.35 55.21,63.33 C55.21,63.33 55.31,64.92 54.43,65.51 C53.5230075,66.2233143 52.9424579,67.2726305 52.82,68.42 C52.82,68.42 52.71,70.49 53.71,71.41 Z" id="Shape" fill="#FF352C" stroke-width="1"/>
            <path d="M72,124 L71.92,124 C71.8061108,123.953628 71.7488426,123.825876 71.79,123.71 C71.79,123.65 74.2,117.44 79.27,118.4 C79.3895124,118.425133 79.4685437,118.53929 79.45,118.66 C79.4248668,118.779512 79.3107105,118.858544 79.19,118.84 C74.49,117.94 72.24,123.84 72.19,123.84 C72.1633867,123.925888 72.0891639,123.988391 72,124 Z" id="Shape" fill="#603404" stroke-width="1"/>
            <path d="M73.92,120.64 C73.834316,120.637325 73.7572303,120.587219 73.72,120.51 C73.2199187,119.422353 73.0730443,118.205393 73.3,117.03 C73.3446819,116.92972 73.4540073,116.874998 73.5610617,116.899329 C73.668116,116.923659 73.7430504,117.020258 73.74,117.13 C73.540273,118.203977 73.6728365,119.313324 74.12,120.31 C74.1701191,120.423305 74.121483,120.555949 74.01,120.61 L73.92,120.64 Z" id="Shape" fill="#603404" stroke-width="1"/>
            <path d="M74.92,122.73 C74.92,122.73 75.92,121.06 76.52,122.16 C76.52,122.16 79.71,131.22 76.7,136.63 C76.7,136.63 76.57,137.11 75.7,135.9 C75.7,135.9 71.48,134.69 70.07,135.16 C70.07,135.16 69,136.16 69.02,134.89 C69.02,134.89 70.91,127.31 69.17,123.02 C69.17,123.02 69.17,121.77 70.37,123.1 C70.4,123.09 73.05,124.9 74.92,122.73 Z" id="Shape" fill="#9B4E01" stroke-width="1"/>
            <path d="M76.57,136.95 C76.31,136.95 76.01,136.69 75.57,136.1 C75,135.94 71.46,134.99 70.19,135.36 C70.02,135.5 69.54,135.87 69.19,135.7 C68.84,135.53 68.83,135.31 68.84,134.88 C68.84,134.75 70.7,127.27 69.01,123.1 C69.0051108,123.073557 69.0051108,123.046443 69.01,123.02 C69.01,122.96 69.01,122.44 69.37,122.29 C69.73,122.14 70.07,122.37 70.6,122.94 C70.66,122.94 73.06,124.57 74.77,122.6 C74.87,122.43 75.43,121.6 76.05,121.6 L76.05,121.6 C76.3546358,121.61835 76.6222919,121.808425 76.74,122.09 C76.89,122.5 79.95,131.34 76.92,136.78 C76.8778092,136.891956 76.7783267,136.972307 76.66,136.99 L76.57,136.95 Z M71,134.83 C72.6330696,134.941271 74.2492179,135.22963 75.82,135.69 C75.869308,135.705016 75.9117781,135.736869 75.94,135.78 C76.1021215,136.049284 76.3122659,136.286544 76.56,136.48 C79.42,131.16 76.36,122.33 76.33,122.24 C76.2759234,122.102717 76.1472659,122.009148 76,122 L76,122 C75.69,122 75.26,122.56 75.1,122.83 L75.1,122.83 C73.1,125.13 70.31,123.25 70.28,123.23 C69.7,122.61 69.52,122.66 69.52,122.66 C69.4645215,122.735037 69.4363007,122.826755 69.44,122.92 C71.16,127.24 69.36,134.58 69.28,134.92 C69.2,135.26 69.34,135.25 69.37,135.27 C69.4,135.29 69.74,135.16 69.96,134.97 L70.04,134.97 C70.3507062,134.873402 70.6746467,134.826161 71,134.83 Z" id="Shape" fill="#603404" stroke-width="1"/>
            <path d="M75.25,138.32 L75.17,138.32 C73.9013798,137.859603 73.0442494,136.669144 73.01,135.32 C73.0153574,135.196896 73.1167794,135.099883 73.24,135.1 L73.24,135.1 C73.3631041,135.105357 73.4601165,135.206779 73.46,135.33 C73.4853912,136.496259 74.2361931,137.522621 75.34,137.9 C75.4372092,137.942967 75.4923193,138.046943 75.4733071,138.15151 C75.4542948,138.256078 75.3661121,138.334001 75.26,138.34 L75.25,138.32 Z" id="Shape" fill="#603404" stroke-width="1"/>
            <path d="M62.79,119.48 C63.9523525,119.818439 65.015814,120.432502 65.89,121.27 C66.2736178,121.647159 66.7293738,121.943061 67.23,122.14 C67.968942,122.407872 68.6903578,122.721822 69.39,123.08 C69.39,123.08 71.34,124.78 70.83,131.08 C70.7868497,132.394225 70.173532,133.624511 69.15,134.45 C67.5633412,135.482625 65.7223528,136.057069 63.83,136.11 C63.4825236,136.133313 63.1356093,136.056992 62.83,135.89 L62.71,135.82 C62.2823433,135.527661 61.8092988,135.308033 61.31,135.17 C59.78,134.8 56.97,133.78 57.59,131.39 C56.7175099,130.613249 56.2555988,129.4751 56.34,128.31 C56.34,128.31 55.34,126.39 56.06,125.51 C56.06,125.51 56.53,125.07 57.23,125.71 C57.204265,125.41232 57.3465617,125.125108 57.5989854,124.96524 C57.8514091,124.805372 58.1718843,124.799495 58.43,124.95 C58.43,124.95 61.51,127.23 63.36,126.07 C64.020256,125.489691 64.2444287,124.556972 63.92,123.74 C63.7971335,123.402952 63.5987315,123.098507 63.34,122.85 C62.84,122.36 61.74,121.1 62.01,119.75 C62,119.78 62.33,119.15 62.79,119.48 Z" id="Shape" fill="#EC897A" stroke-width="1"/>
            <path d="M63.72,136.39 C63.3708669,136.392757 63.0267613,136.30673 62.72,136.14 L62.59,136.06 C62.1842159,135.780834 61.7347173,135.571293 61.26,135.44 C59.99,135.13 58.33,134.51 57.62,133.32 C57.2957855,132.779371 57.1953272,132.133567 57.34,131.52 C56.4772596,130.720246 56.0216169,129.57379 56.1,128.4 C55.92,128.04 55.1,126.31 55.88,125.4 C56.2224003,125.123164 56.7055841,125.102863 57.07,125.35 C57.1318716,125.132167 57.2658456,124.941783 57.45,124.81 C57.7783181,124.635774 58.1716819,124.635774 58.5,124.81 L58.55,124.81 C58.55,124.81 61.55,126.99 63.23,125.92 C63.8089954,125.399023 63.9972436,124.56993 63.7,123.85 C63.5907431,123.543859 63.4128685,123.266785 63.18,123.04 C62.66,122.53 61.49,121.2 61.79,119.73 L61.79,119.67 C61.9069985,119.434971 62.1117317,119.255381 62.36,119.17 C62.5318711,119.127204 62.7138398,119.159958 62.86,119.26 C64.0383769,119.619361 65.1145686,120.253423 66,121.11 C66.3625379,121.470088 66.7946668,121.752503 67.27,121.94 C68.0191911,122.210449 68.7506344,122.527742 69.46,122.89 C69.59,122.99 71.53,124.77 71.02,131.15 C70.9731074,132.53078 70.3223414,133.821344 69.24,134.68 C67.6169719,135.735021 65.7349566,136.32315 63.8,136.38 L63.72,136.39 Z M56.48,125.62 C56.3822685,125.617663 56.286783,125.649492 56.21,125.71 C55.72,126.31 56.28,127.71 56.54,128.24 C56.5552446,128.285422 56.5552446,128.334578 56.54,128.38 C56.4675884,129.470695 56.9031131,130.53367 57.72,131.26 C57.7847348,131.317399 57.8117824,131.40627 57.79,131.49 C57.632136,132.024709 57.7046309,132.601043 57.99,133.08 C58.66,134.19 60.38,134.76 61.35,134.99 C61.8743925,135.133378 62.3712057,135.363196 62.82,135.67 L62.93,135.73 C63.1980752,135.879002 63.5043291,135.945125 63.81,135.92 C65.663449,135.86571 67.4660969,135.301734 69.02,134.29 C69.9869777,133.502783 70.566651,132.336145 70.61,131.09 C71.1,124.97 69.27,123.25 69.25,123.23 C68.5708388,122.8938 67.8730366,122.59665 67.16,122.34 C66.6289005,122.133339 66.1456691,121.82026 65.74,121.42 C64.8924112,120.609933 63.8640176,120.013465 62.74,119.68 L62.66,119.68 C62.6061532,119.654718 62.5438468,119.654718 62.49,119.68 C62.378839,119.72853 62.2872532,119.81307 62.23,119.92 C62.1922039,121.017675 62.6603633,122.071955 63.5,122.78 C63.78455,123.060094 64.0002082,123.402409 64.13,123.78 C64.4809612,124.692118 64.2254035,125.726328 63.49,126.37 C61.59,127.57 58.65,125.51 58.31,125.27 C58.1177068,125.175241 57.8922932,125.175241 57.7,125.27 C57.5384791,125.416046 57.4444045,125.622287 57.44,125.84 C57.4379967,125.928819 57.3827685,126.007716 57.3,126.04 C57.2270445,126.087479 57.1329555,126.087479 57.06,126.04 C56.9310521,125.829597 56.7213668,125.681371 56.48,125.63 L56.48,125.62 Z" id="Shape" fill="#603404" stroke-width="1"/>
            <path d="M60.9,129.3 C60.3305471,129.304957 59.7693374,129.163794 59.27,128.89 C58.1666047,128.170738 57.3604015,127.076858 57,125.81 C56.9844135,125.695628 57.0560146,125.587419 57.1673765,125.557047 C57.2787385,125.526676 57.3953626,125.583551 57.44,125.69 C57.7742535,126.83465 58.4997791,127.825612 59.49,128.49 C60.285377,128.902933 61.2171618,128.964569 62.06,128.66 C62.1676356,128.65173 62.2665387,128.719431 62.2977791,128.822764 C62.3290195,128.926098 62.2841893,129.037254 62.19,129.09 C61.7729939,129.224418 61.3381089,129.295213 60.9,129.3 Z" id="Shape" fill="#603404" stroke-width="1"/>
            <path d="M61.22,131.2 C58.54,131.2 56.22,128.61 56.16,128.5 C56.0887628,128.442556 56.058358,128.348345 56.0825749,128.260094 C56.1067919,128.171844 56.1810226,128.106346 56.2716017,128.093306 C56.3621807,128.080266 56.4518726,128.122165 56.5,128.2 C56.5,128.2 59,131.02 61.63,130.73 C61.6900029,130.721537 61.7508396,130.738198 61.7981578,130.776053 C61.8454759,130.813907 61.8750851,130.869603 61.88,130.93 C61.8917917,131.053672 61.8032436,131.164357 61.68,131.18 L61.22,131.2 Z" id="Shape" fill="#603404" stroke-width="1"/>
            <path d="M62,133.5 L62,133.5 C60.2,133.5 57.61,131.69 57.5,131.62 C57.4010261,131.548884 57.3747085,131.41291 57.44,131.31 C57.5111162,131.211026 57.6470905,131.184708 57.75,131.25 C57.75,131.25 60.3,133 62,133.05 C62.1062816,133.07253 62.182303,133.166357 62.182303,133.275 C62.182303,133.383643 62.1062816,133.47747 62,133.5 Z" id="Shape" fill="#603404" stroke-width="1"/>
            <path d="M7.48,123 C11.54,121.87 12.08,123.31 12.08,123.31 C12.65,125.91 7.2,126.02 7.2,126.02 C8.50288909,125.651628 9.84653419,125.446722 11.2,125.41 C11.5069366,125.408569 11.7939126,125.561967 11.9632408,125.817975 C12.1325689,126.073983 12.1614301,126.398101 12.04,126.68 C10.97,129.24 7.34,128.68 7.34,128.68 C11.9,127.86 11.29,129 11.29,129 C11.03,132.06 7.55,131.33 6.24,130.94 C5.92779047,130.850464 5.65370342,130.660711 5.46,130.4 C1.31,124.67 4.68,120.4 4.68,120.4 C6.82,118.9 9.79,119 11.24,118.99 C11.4492703,118.97874 11.6537063,119.055553 11.8037844,119.201832 C11.9538624,119.34811 12.0358913,119.55051 12.03,119.76 C12,120.6 11.65,122 7.48,123 Z" id="Shape" fill="#EC897A" stroke-width="1"/>
            <path d="M8.53,131.48 C7.73615057,131.462478 6.94859987,131.334585 6.19,131.1 C5.8288725,130.994707 5.51254058,130.773274 5.29,130.47 C3.62383198,128.415802 2.89803644,125.755762 3.29,123.14 C3.4595416,122.060884 3.87340679,121.034772 4.5,120.14 L4.5,120.14 C6.56,118.69 9.36,118.68 10.9,118.69 L11.2,118.69 C11.4997001,118.667878 11.7934597,118.78171 12,119 C12.1764954,119.18471 12.2672178,119.435104 12.25,119.69 C12.19,120.56 11.84,121.5 10.2,122.31 C11.88,122.31 12.2,123.09 12.27,123.2 C12.4267096,123.714311 12.3262149,124.272615 12,124.7 C11.8407176,124.895011 11.6517394,125.063741 11.44,125.2 C11.7799288,125.260388 12.0735998,125.472864 12.2372833,125.776847 C12.4009668,126.080831 12.416701,126.442965 12.28,126.76 C12.0212706,127.374123 11.5727061,127.889271 11,128.23 C11.1770335,128.276328 11.3346741,128.377919 11.45,128.52 C11.5545583,128.661042 11.5808841,128.845323 11.52,129.01 C11.515348,129.795788 11.145839,130.534806 10.52,131.01 C9.91963746,131.364746 9.22563835,131.528656 8.53,131.48 L8.53,131.48 Z M4.85,120.48 C4.59,120.84 1.85,124.91 5.66,130.2 C5.82433917,130.420803 6.05596477,130.582239 6.32,130.66 C7.12,130.9 9.1,131.36 10.23,130.59 C10.7573276,130.195562 11.0714165,129.57847 11.08,128.92 C11.0734959,128.890353 11.0734959,128.859647 11.08,128.83 C11.0890059,128.811014 11.0890059,128.788986 11.08,128.77 C11.08,128.77 10.89,128.59 10.32,128.56 C9.35519287,128.884472 8.32818825,128.980326 7.32,128.84 C7.21371838,128.81747 7.13769696,128.723643 7.13769696,128.615 C7.13769696,128.506357 7.21371838,128.41253 7.32,128.39 C8.28711919,128.190504 9.27254208,128.093303 10.26,128.1 C10.9751585,127.831446 11.5495406,127.282351 11.85,126.58 C11.9414175,126.37173 11.9226531,126.131546 11.8,125.94 C11.6725638,125.742817 11.4547635,125.622652 11.22,125.62 C10.9901473,125.608358 10.7598527,125.608358 10.53,125.62 C9.46113868,125.97623 8.34611625,126.17498 7.22,126.21 L7.22,126.21 C7.10889252,126.202558 7.01907575,126.116589 7.00677849,126.005914 C6.99448123,125.895238 7.06323615,125.79165 7.17,125.76 C8.24679388,125.48046 9.34328965,125.283225 10.45,125.17 C10.9121052,125.015937 11.3258222,124.743573 11.65,124.38 C11.8928048,124.080368 11.9782333,123.682939 11.88,123.31 L11.88,123.31 C11.88,123.31 11.37,122.31 8.37,122.97 L7.56,123.17 C7.44812898,123.178655 7.34634004,123.105324 7.31912625,122.996468 C7.29191247,122.887613 7.34721738,122.775008 7.45,122.73 L8.26,122.53 C11.7,121.53 11.8,120.28 11.84,119.64 C11.8480904,119.510202 11.8008605,119.383045 11.71,119.29 C11.5965476,119.168783 11.4358821,119.103056 11.27,119.11 L11,119.11 C9.49,119.15 6.79,119.14 4.85,120.49 L4.85,120.48 Z" id="Shape" fill="#603404" stroke-width="1"/>
            <path d="M7.48,131.43 C7.04070329,131.362332 6.60640685,131.26545 6.18,131.14 C5.8114677,131.033286 5.48821805,130.808416 5.26,130.5 C1.05,124.68 4.45,120.22 4.48,120.17 L4.53,120.12 C6.6,118.67 9.42,118.67 10.94,118.67 L11.24,118.67 C11.5271313,118.674585 11.8006144,118.793334 12,119 C12.1812578,119.193935 12.2720675,119.455466 12.25,119.72 C12.1543202,120.902932 11.3702799,121.918265 10.25,122.31 C11.85,122.36 12.19,123.1 12.25,123.22 C12.3922603,123.744004 12.2772062,124.304429 11.94,124.73 C11.7940733,124.910927 11.6222181,125.069304 11.43,125.2 C11.7627364,125.28079 12.0427819,125.504455 12.1951377,125.811095 C12.3474935,126.117735 12.3565933,126.476021 12.22,126.79 C11.9754762,127.383347 11.5571489,127.888826 11.02,128.24 C11.1732392,128.290664 11.3086385,128.384402 11.41,128.51 C11.5163606,128.657914 11.5425741,128.848899 11.48,129.02 C11.4565974,129.815149 11.0648818,130.554235 10.42,131.02 C9.51973847,131.501323 8.47759878,131.646656 7.48,131.43 L7.48,131.43 Z M4.87,120.52 C4.57,120.93 1.87,124.89 5.68,130.2 C5.84071294,130.417989 6.06939151,130.576305 6.33,130.65 C7.12,130.89 9.09,131.35 10.21,130.58 C10.7316357,130.190791 11.0421822,129.580789 11.05,128.93 C11.0432653,128.897007 11.0432653,128.862993 11.05,128.83 C11.05,128.77 10.87,128.64 10.33,128.6 C9.36581204,128.927384 8.33811875,129.023303 7.33,128.88 C7.20835394,128.855793 7.12074446,128.749031 7.12074446,128.625 C7.12074446,128.500969 7.20835394,128.394207 7.33,128.37 C8.29719668,128.171015 9.28256575,128.073818 10.27,128.08 C10.9782255,127.813207 11.5458265,127.267298 11.84,126.57 C11.9431334,126.379744 11.9431334,126.150256 11.84,125.96 C11.7156222,125.772232 11.5052251,125.65952 11.28,125.66 C11.050146,125.648409 10.819854,125.648409 10.59,125.66 C9.51790726,126.017047 8.39946718,126.215806 7.27,126.25 C7.13905841,126.256173 7.02558501,126.160157 7.01,126.03 C6.99562517,125.902584 7.0762876,125.783713 7.2,125.75 C8.27684343,125.470686 9.37332192,125.273454 10.48,125.16 C10.9346159,125.007336 11.341406,124.738441 11.66,124.38 C11.8816673,124.097504 11.9626404,123.729444 11.88,123.38 L11.88,123.38 C11.88,123.38 11.36,122.38 8.41,123.06 L7.6,123.26 C7.46915028,123.278486 7.34524792,123.195878 7.31199472,123.067981 C7.27874153,122.940084 7.34671677,122.807588 7.47,122.76 L8.28,122.56 C11.7,121.61 11.79,120.34 11.84,119.7 C11.8487822,119.577936 11.8051372,119.457912 11.72,119.37 C11.6132809,119.258256 11.4644791,119.196558 11.31,119.2 L11,119.2 C9.5,119.17 6.8,119.17 4.87,120.51 L4.87,120.52 Z" id="Shape" fill="#603404" stroke-width="1"/>
            <path d="M50.3,87.26 C50.3,87.26 49.81,84.44 46.18,84.19 C46.18,84.19 44.07,84.02 42.7,84.06 C41.7140099,84.1689148 40.7519651,83.7072885 40.22,82.87 C40.22,82.87 41.7,86.52 44.79,86.98 C44.79,87 49.64,87.61 50.3,87.26 Z" id="Shape" fill="#FFFFFF" stroke-width="1"/>
            <path d="M50.28,87.25 C50.0838068,86.535024 49.6843134,85.8923607 49.13,85.4 C48.5637243,84.8953305 47.873501,84.5502188 47.13,84.4 C46.3968065,84.2707452 45.6544251,84.20052 44.91,84.19 C44.16,84.19 43.41,84.14 42.67,84.19 L42.67,84.19 C42.1596913,84.2344386 41.6460556,84.1591054 41.17,83.97 C40.6833144,83.7784378 40.2772871,83.4253705 40.02,82.97 L40.02,82.97 L40.35,82.82 C40.7762696,83.6832917 41.3327747,84.4758899 42,85.17 C42.6424025,85.8794998 43.4701456,86.3955405 44.39,86.66 C45.31,86.88 46.34,86.95 47.31,87.09 C47.8,87.15 48.31,87.2 48.79,87.25 C49.2841311,87.3209744 49.7858689,87.3209744 50.28,87.25 Z M50.28,87.25 C49.790642,87.3958048 49.2799197,87.4566856 48.77,87.43 C48.27,87.43 47.77,87.43 47.27,87.43 C46.2649864,87.382893 45.2634103,87.2793968 44.27,87.12 C43.2607194,86.8503113 42.3508847,86.294687 41.65,85.52 C40.9433123,84.767105 40.3836891,83.8886663 40,82.93 C39.9683674,82.8439587 40.006452,82.7478885 40.0884458,82.7068916 C40.1704396,82.6658948 40.2701465,82.6930691 40.32,82.77 L40.32,82.77 C40.5364752,83.1764718 40.8911595,83.4921408 41.32,83.66 C41.7431793,83.8382045 42.2016177,83.9168917 42.66,83.89 L42.66,83.89 C43.42,83.89 44.17,83.89 44.92,83.97 C45.6763418,83.9954831 46.4291025,84.0858144 47.17,84.24 C47.9173725,84.4137459 48.6066413,84.7790584 49.17,85.3 C49.7486012,85.8213166 50.1505354,86.5098473 50.32,87.27 L50.28,87.25 Z" id="Shape" fill="#161616" stroke-width="1"/>
            <path d="M45.79,84.23 C45.4779377,84.2326215 45.1798546,84.3598038 44.9620202,84.5832718 C44.7441858,84.8067398 44.6246544,85.1079725 44.63,85.42 C44.6449448,85.7051401 44.6953324,85.9873104 44.78,86.26 C44.91482,86.7053276 45.3152483,87.0176617 45.78,87.04 L47.78,87.24 C48.1987737,86.9722479 48.4601775,86.5166585 48.48,86.02 C48.5399775,85.528594 48.3616158,85.0380994 48,84.7 C47.3369713,84.2997127 46.5585391,84.1341638 45.79,84.23 L45.79,84.23 Z" id="Shape" fill="#161616" stroke-width="1"/>
            <ellipse id="Oval" fill="#FFFFFF" cx="47.24" cy="85.13" rx="1" ry="1" stroke-width="1"/>
            <path d="M59.92,87.26 C59.92,87.26 60.41,84.44 64.04,84.19 C64.04,84.19 66.15,84.02 67.52,84.06 C68.5080715,84.1668566 69.4706205,83.7011071 70,82.86 C70,82.86 68.52,86.51 65.43,87 C65.43,87 60.58,87.61 59.92,87.26 Z" id="Shape" fill="#FFFFFF" stroke-width="1"/>
            <path d="M59.9,87.27 C60.0554325,86.5027746 60.447068,85.8034256 61.02,85.27 C61.5833587,84.7490584 62.2726275,84.3837459 63.02,84.21 C63.7626382,84.0759582 64.5153834,84.005702 65.27,84 C66.02,84 66.77,83.91 67.53,83.92 L67.53,83.92 C67.9883823,83.9468917 68.4468207,83.8682045 68.87,83.69 C69.2988405,83.5221408 69.6535248,83.2064718 69.87,82.8 L69.87,82.8 C69.9198535,82.7230691 70.0195604,82.6958948 70.1015542,82.7368916 C70.183548,82.7778885 70.2216326,82.8739587 70.19,82.96 C69.8071169,83.9107909 69.2510259,84.7822263 68.55,85.53 C67.8491153,86.304687 66.9392806,86.8603113 65.93,87.13 C64.9365897,87.2893968 63.9350136,87.392893 62.93,87.44 C62.43,87.44 61.93,87.44 61.43,87.44 C60.9140065,87.4722395 60.3963313,87.4147201 59.9,87.27 L59.9,87.27 Z M59.9,87.27 C60.3842822,87.3381312 60.8757178,87.3381312 61.36,87.27 C61.85,87.27 62.36,87.18 62.84,87.11 C63.84,86.97 64.84,86.9 65.76,86.68 C66.6798544,86.4155405 67.5075975,85.8994998 68.15,85.19 C68.8197647,84.4867643 69.3763831,83.6838844 69.8,82.81 L70.13,82.96 L70.13,82.96 C69.8849316,83.4269088 69.4855986,83.7944365 69,84 C68.5239444,84.1891054 68.0103087,84.2644386 67.5,84.22 L67.5,84.22 C66.76,84.22 66.01,84.22 65.26,84.22 C64.5155749,84.23052 63.7731935,84.3007452 63.04,84.43 C62.296499,84.5802188 61.6062757,84.9253305 61.04,85.43 C60.5088832,85.9206675 60.1275139,86.5516604 59.94,87.25 L59.9,87.27 Z" id="Shape" fill="#161616" stroke-width="1"/>
            <path d="M64.43,84.23 C64.7420623,84.2326215 65.0401454,84.3598038 65.2579798,84.5832718 C65.4758142,84.8067398 65.5953456,85.1079725 65.59,85.42 C65.5750552,85.7051401 65.5246676,85.9873104 65.44,86.26 C65.30518,86.7053276 64.9047517,87.0176617 64.44,87.04 L62.44,87.24 C62.0212263,86.9722479 61.7598225,86.5166585 61.74,86.02 C61.6816845,85.521884 61.8679807,85.026336 62.24,84.69 C62.8986132,84.297598 63.6691669,84.1357465 64.43,84.23 Z" id="Shape" fill="#161616" stroke-width="1"/>
            <ellipse id="Oval" fill="#FFFFFF" cx="62.98" cy="85.13" rx="1" ry="1" stroke-width="1"/>
            <path d="M52.1,85.77 C51.3640617,83.7709954 49.8994553,82.1242063 48,81.16 C45,79.74 41.9,78.21 41.9,78.21 C41.9,78.21 36.98,76.01 38.9,72.42 C39.0850931,72.0928213 39.306492,71.7875591 39.56,71.51 L40,71 L40.25,71.23 C40.0273902,71.7130665 40.016295,72.2670789 40.2193851,72.758671 C40.4224753,73.2502631 40.821354,73.634904 41.32,73.82 L49.07,78.82 L49.59,79.13 C50.3,79.53 52.59,80.95 52.99,82.5 C53.3819114,83.6160339 53.128305,84.8571682 52.33,85.73 C52.2698759,85.7913371 52.1773022,85.8074368 52.1,85.77 L52.1,85.77 Z" id="Shape" fill="#121212" stroke-width="1"/>
            <path d="M59.6,85.77 C60.3310798,83.7744549 61.7880918,82.1281742 63.68,81.16 C66.73,79.74 69.8,78.21 69.8,78.21 C69.8,78.21 74.72,76.01 72.8,72.42 C72.6149069,72.0928213 72.393508,71.7875591 72.14,71.51 L71.69,71 L71.44,71.23 C71.6626098,71.7130665 71.673705,72.2670789 71.4706149,72.758671 C71.2675247,73.2502631 70.868646,73.634904 70.37,73.82 L62.62,78.82 L62.1,79.13 C61.39,79.53 59.1,80.95 58.7,82.5 C58.3080886,83.6160339 58.561695,84.8571682 59.36,85.73 C59.4217571,85.7960582 59.5201568,85.8124581 59.6,85.77 L59.6,85.77 Z" id="Shape" fill="#121212" stroke-width="1"/>
        </g>
    </g>
</svg>