<?xml version="1.0" encoding="UTF-8"?><svg xmlns="http://www.w3.org/2000/svg" xmlns:xlink="http://www.w3.org/1999/xlink" width="111.2208480834961" height="147.04421997070312" viewBox="-0.5 -0.09782910346984863 111.2208480834961 147.04421997070312" version="1.1">
    <!-- Generator: Sketch 46.2 (44496) - http://www.bohemiancoding.com/sketch -->
    <title>三国主题素材-18</title>
    <desc>Created with Sketch.</desc>
    <defs>
        <linearGradient x1="11.6995204%" y1="118.556402%" x2="90.4514833%" y2="-6.84759547%" id="linearGradient-1">
            <stop stop-color="#C79896" offset="35%"/>
            <stop stop-color="#C49290" offset="48%"/>
            <stop stop-color="#BC817F" offset="65%"/>
            <stop stop-color="#AF6462" offset="85%"/>
            <stop stop-color="#AA5957" offset="92%"/>
        </linearGradient>
    </defs>
    <g id="Page-1" stroke="none" fill-rule="evenodd">
        <g id="三国主题素材-18">
            <path d="M18.24,83.64 C18.24,83.64 23.42,95.3 11.73,108.73 C11.73,108.73 5.54,90.8 18.24,83.64 Z" id="Shape" fill="#AA5957" fill-rule="nonzero" stroke-width="1"/>
            <path d="M11.73,109 L11.73,109 C11.6509146,108.983341 11.5863762,108.926396 11.56,108.85 C11.5,108.67 5.45,90.66 18.17,83.49 C18.2272547,83.4643315 18.2927453,83.4643315 18.35,83.49 C18.4113601,83.5087245 18.4621113,83.5522256 18.49,83.61 C18.54,83.73 23.59,95.56 11.94,108.94 C11.8855703,108.995787 11.8056863,109.018611 11.73,109 Z M18.13,84 C7.03,90.48 11.04,105.7 11.83,108.31 C22.05,96.28 18.75,85.66 18.13,84 L18.13,84 Z" id="Shape" fill="#603404" fill-rule="nonzero" stroke-width="1"/>
            <path d="M41.71,138.92 C41.71,138.92 40.08,142.33 42.66,144.83 C44.66,146.83 47.4,146.61 49.66,144.89 C50.92,143.89 52,140.89 50.95,139.49 L41.71,138.92 Z" id="Shape" fill="#FFF6E6" fill-rule="nonzero" stroke-width="1"/>
            <path d="M41,139.28 C40.8782682,141.211541 41.7115848,143.079964 43.23,144.28 C45.0189911,145.77436 47.6210089,145.77436 49.41,144.28 C50.9338338,143.044092 52.2798588,141.603845 53.41,140 L41,139.28 Z" id="Shape" fill="#443A37" fill-rule="nonzero" stroke-width="1"/>
            <path d="M64.59,139.85 C64.59,139.85 63.53,143.48 66.47,145.53 C68.77,147.14 71.47,146.53 73.35,144.47 C74.44,143.31 75.01,140.15 73.75,138.93 L64.59,139.85 Z" id="Shape" fill="#FFF6E6" fill-rule="nonzero" stroke-width="1"/>
            <path d="M64,140.31 C64.1882283,142.236327 65.309298,143.947826 67,144.89 C69.005263,146.070341 71.5674884,145.649615 73.09,143.89 C74.3830067,142.415761 75.4665454,140.770263 76.31,139 L64,140.31 Z" id="Shape" fill="#443A37" fill-rule="nonzero" stroke-width="1"/>
            <path d="M74.34,70.43 C85.3907136,79.6125522 94.1893853,91.2061364 100.06,104.32 C100.06,104.32 92.35,118 82.38,118.64 C79.2622431,112.310848 77.3110384,105.471469 76.62,98.45 C76.6031866,98.2686775 76.5764802,98.0884089 76.54,97.91 C76.3,96.73 75.31,91.73 74.75,87.53 C74.75,87.53 78.75,118.97 82.5,136.96 C82.5,136.96 84.19,141.75 77.56,141.75 C77.56,141.75 52.56,146.54 37.29,139.11 C37.29,139.11 32.11,137.95 35.36,128.88 L40.06,102.63 C40.06,102.63 22.94,113.85 11.73,108.74 C11.73,108.74 22.34,96.19 18.24,83.65 L31.24,81.34 C31.24,81.34 37,73.41 43.08,70.43 L74.34,70.43 Z" id="Shape" fill="#C79896" fill-rule="nonzero" stroke-width="1"/>
            <path d="M60,143.47 C52.47,143.47 43.88,142.56 37.18,139.31 L37.18,139.31 C36.1382265,138.998598 35.2681138,138.276512 34.77,137.31 C33.69,135.31 33.77,132.5 35.14,128.82 L39.74,103.11 C36.6976211,104.96645 33.4947749,106.54612 30.17,107.83 C24.95,109.83 17.49,111.64 11.62,108.96 C11.5571485,108.92959 11.5115135,108.872276 11.4959555,108.80421 C11.4803975,108.736144 11.4966011,108.664696 11.54,108.61 C13.4400968,106.214737 15.0387371,103.595116 16.3,100.81 C18.23,96.56 20.1,90.14 18,83.73 C17.9819889,83.667496 17.9912865,83.6002882 18.02559,83.5450214 C18.0598935,83.4897546 18.1159949,83.4515974 18.18,83.44 L31.11,81.15 C31.72,80.34 37.26,73.07 42.95,70.26 L43.05,70.26 L74.34,70.26 C74.3855329,70.245452 74.4344671,70.245452 74.48,70.26 C85.5415796,79.4930372 94.3602989,91.1191115 100.27,104.26 C100.302054,104.322814 100.302054,104.397186 100.27,104.46 C100.19,104.6 92.38,118.22 82.41,118.88 C82.3210034,118.891654 82.2351428,118.84259 82.2,118.76 C80.0065874,114.314501 78.3805149,109.610986 77.36,104.76 C78.85,115.02 80.84,127.76 82.74,136.96 C83.10448,138.068022 82.957933,139.280699 82.34,140.27 C81.52,141.43 79.92,142.02 77.57,142.02 C71.7643371,142.995022 65.8869591,143.480064 60,143.47 Z M40.06,102.4 C40.1268546,102.401884 40.1895781,102.432775 40.2318252,102.484624 C40.2740722,102.536473 40.2916581,102.604143 40.28,102.67 L35.58,128.92 C34.32,132.45 34.18,135.26 35.17,137.07 C35.620381,137.944948 36.4015883,138.603755 37.34,138.9 C52.46,146.23 77.27,141.59 77.52,141.54 C79.75,141.54 81.23,141.01 81.96,139.98 C82.4908611,139.097797 82.6113296,138.028183 82.29,137.05 C78.59,119.23 74.57,87.88 74.53,87.57 C74.5182083,87.4463285 74.6067564,87.3356434 74.73,87.32 C74.8536715,87.3082083 74.9643566,87.3967564 74.98,87.52 L74.98,87.52 C75.52,91.65 76.48,96.52 76.77,97.88 C76.8070107,98.0684041 76.8337171,98.2586867 76.85,98.45 C77.5455365,105.398917 79.4651258,112.169955 82.52,118.45 C91.74,117.72 99.1,105.58 99.82,104.37 C93.948855,91.3509518 85.2111802,79.8272031 74.26,70.66 L43.13,70.66 C37.24,73.59 31.5,81.38 31.44,81.46 C31.4069194,81.5071756 31.3566517,81.5394906 31.3,81.55 L18.53,83.82 C20.53,90.29 18.67,96.71 16.72,100.99 C15.4756997,103.714674 13.9185607,106.285296 12.08,108.65 C17.76,111.09 24.95,109.32 30.01,107.39 C33.469304,106.045188 36.7912617,104.370814 39.93,102.39 C39.9733907,102.380724 40.0185384,102.384197 40.06,102.4 Z" id="Shape" fill="#603404" fill-rule="nonzero" stroke-width="1"/>
            <path d="M82.38,118.64 C82.38,118.64 92.15,120.35 100.06,104.33 C100.06,104.33 85,108.52 82.38,118.64 Z" id="Shape" fill="#AA5957" fill-rule="nonzero" stroke-width="1"/>
            <path d="M83.23,118.92 C82.932211,118.923655 82.6346038,118.903591 82.34,118.86 C82.2782507,118.848097 82.224068,118.81143 82.1900619,118.758532 C82.1560558,118.705633 82.1451924,118.641118 82.16,118.58 C84.81,108.46 99.85,104.16 100,104.11 C100.08373,104.088218 100.172601,104.115265 100.23,104.18 C100.277479,104.252956 100.277479,104.347044 100.23,104.42 C96.11,112.75 91.48,116.23 88.31,117.68 C86.7241659,118.450028 84.9922663,118.872775 83.23,118.92 L83.23,118.92 Z M82.66,118.44 C84.21,118.55 92.66,118.44 99.66,104.7 C97.1240102,105.519436 94.6753966,106.587983 92.35,107.89 C88.69,109.95 84.1,113.43 82.67,118.44 L82.66,118.44 Z" id="Shape" fill="#603404" fill-rule="nonzero" stroke-width="1"/>
            <path d="M46.7,70.43 L50.3,70.43 C50.3,70.43 51.37,83.71 60.8,84.43 L60.8,87.22 C60.8,87.22 50.47,86.09 46.7,70.43 Z" id="Shape" fill="#AA5957" fill-rule="nonzero" stroke-width="1"/>
            <path d="M65,70.43 C65,70.43 63.8,89.05 40.89,96.18 L40.18,102.43 C40.18,102.43 68.18,90.91 69.71,70.43 L65,70.43 Z" id="Shape" fill="#AA5957" fill-rule="nonzero" stroke-width="1"/>
            <path d="M40.32,102.62 C40.32,102.62 58.91,108.11 76.81,102.62 L77.16,105.06 C77.16,105.06 63.64,111.48 39.89,105.06 L40.32,102.62 Z" id="Shape" fill="#AA5957" fill-rule="nonzero" stroke-width="1"/>
            <path d="M45.72,106 C45.72,106 47.11,111.79 42.99,115.54 C42.4534457,116.018186 42.1445915,116.701299 42.14,117.42 L42.14,117.42 C42.1385407,117.596553 42.2267665,117.761784 42.374291,117.858787 C42.5218154,117.955789 42.7084821,117.971309 42.87,117.9 C44.36,117.23 47.59,114.9 47.31,106.83 L45.72,106 Z" id="Shape" fill="#AA5957" fill-rule="nonzero" stroke-width="1"/>
            <path d="M48.28,106.51 C48.28,106.51 45.9,120.29 49.36,122.39 C49.4625333,122.454613 49.5871772,122.474073 49.7045262,122.443789 C49.8218752,122.413505 49.9215371,122.33616 49.98,122.23 L49.98,122.23 C50.2735806,121.688344 50.2388175,121.027845 49.89,120.52 C49.25,119.52 48.65,116.42 49.89,106.89 L48.28,106.51 Z" id="Shape" fill="#AA5957" fill-rule="nonzero" stroke-width="1"/>
            <path d="M64.08,130.83 C64.08,130.83 72.55,134.26 78.74,128.57 C78.74,128.57 74.46,135.8 64.08,130.83 Z" id="Shape" fill="#AF8B8B" fill-rule="nonzero" stroke-width="1"/>
            <path d="M42.13,133 C42.13,133 51.56,143.55 73.75,134.55 C73.76,134.52 53.56,141.68 42.13,133 Z" id="Shape" fill="#AF8B8B" fill-rule="nonzero" stroke-width="1"/>
            <path d="M16.13,109.93 C16.13,109.93 22.79,107.93 21.68,104.13 C21.68,104.13 24.07,107.54 16.13,109.93 Z" id="Shape" fill="#B28A8A" fill-rule="nonzero" stroke-width="1"/>
            <path d="M79.89,112.8 C79.89,112.8 80.53,108.09 85.2,107.29 C85.2,107.3 80.58,107.2 79.89,112.8 Z" id="Shape" fill="#B28A8A" fill-rule="nonzero" stroke-width="1"/>
            <path d="M19.95,92.1 C19.95,92.1 18.6,97.3 13.84,95.38 C9.08,93.46 9.14,89.89 9.29,88.38" id="Shape" fill="#FFE9DC" fill-rule="nonzero" stroke-width="1"/>
            <path d="M15.82,96 C15.1081655,95.987459 14.405392,95.8380772 13.75,95.56 C10.31,94.18 8.75,91.73 9.06,88.29 C9.04056309,88.1983106 9.07870764,88.1039983 9.15642031,88.051601 C9.23413298,87.9992037 9.33586702,87.9992037 9.41357969,88.051601 C9.49129236,88.1039983 9.52943691,88.1983106 9.51,88.29 C9.21,91.51 10.69,93.8 13.92,95.1 C14.9998003,95.6225788 16.2554263,95.6408824 17.35,95.15 C18.5064916,94.4314507 19.3547188,93.3087972 19.73,92 C19.7750085,91.8972174 19.8876133,91.8419125 19.9964684,91.8691263 C20.1053236,91.89634 20.1786549,91.998129 20.17,92.11 C19.7773609,93.5586597 18.8429323,94.8009844 17.56,95.58 C17.0215831,95.8561913 16.4251235,96.0001643 15.82,96 Z" id="Shape" fill="#603404" fill-rule="nonzero" stroke-width="1"/>
            <polygon id="Shape" fill="#A8A6A6" fill-rule="nonzero" points="27.04 88.79 90.73 106.38 97.63 111.78 89.79 112.72 25.46 95.07" stroke-width="1"/>
            <path d="M27,88.79 L90.69,106.38 L97.59,111.78 L89.75,112.72 L25.46,95.07 L27,88.79 L27,88.79 Z M27,88.34 C26.7924804,88.3383177 26.6107219,88.4787675 26.56,88.68 L25,95 C24.9365202,95.2402394 25.0797763,95.4864608 25.32,95.55 L89.65,113.2 L89.77,113.2 L89.82,113.2 L97.66,112.26 C97.8465656,112.244248 98.0038852,112.114623 98.0550273,111.934514 C98.1061695,111.754405 98.0404474,111.561447 97.89,111.45 L91,106 C90.9525578,105.962895 90.8981496,105.935691 90.84,105.92 L27.16,88.35 L27.04,88.35 L27,88.34 Z" id="Shape" fill="#898989" fill-rule="nonzero" stroke-width="1"/>
            <polygon id="Shape" fill="#D8D8D8" fill-rule="nonzero" points="95.64 112.02 25.97 93.04 25.46 95.07 89.79 112.72" stroke-width="1"/>
            <polygon id="Shape" fill="#D8D8D8" fill-rule="nonzero" points="80.95 108.01 78.06 107.22 77.59 102.75 80.08 103.44" stroke-width="1"/>
            <polygon id="Shape" fill="#D8D8D8" fill-rule="nonzero" points="76.99 106.94 74.1 106.14 73.62 101.65 76.11 102.34" stroke-width="1"/>
            <polygon id="Shape" fill="#FFFFFF" fill-rule="nonzero" points="80.95 108.01 80.08 110.05 77.48 109.34 78.06 107.22" stroke-width="1"/>
            <polygon id="Shape" fill="#FFFFFF" fill-rule="nonzero" points="76.99 106.94 76.12 108.97 73.52 108.26 74.1 106.14" stroke-width="1"/>
            <rect id="Rectangle-path" fill="#562707" fill-rule="nonzero" transform="matrix(-0.270432420448667,0.9627389604510017,-0.9627389604510017,-0.270432420448667,106.44964182814724,97.32278166160555)" x="13.0640169" y="82.5753815" width="6.57" height="12.84" stroke-width="1"/>
            <rect id="Rectangle-path" fill="#FBE462" fill-rule="nonzero" transform="matrix(0.27043242044866694,-0.9627389604510017,0.9627389604510017,0.27043242044866694,-77.14798195328541,71.98740967592654)" x="5.5533799" y="85.5910268" width="6.74" height="2.61" stroke-width="1"/>
            <path d="M7.67,86.55 L8.53,83.49 C8.55833374,83.3630427 8.51174686,83.2310465 8.41,83.15 L7.55,82.36 C7.39776583,82.2239844 7.1883316,82.1716259 6.99,82.22 L0.55,84 L0.41,84.49 L0.41,84.49 L0.27,84.98 L4.84,89.83 C4.98431879,89.9735039 5.18987674,90.03704 5.39,90 L6.54,89.78 C6.66981487,89.7635985 6.77869921,89.6741578 6.82,89.55 L7.67,86.55" id="Shape" fill="#FBE462" fill-rule="nonzero" stroke-width="1"/>
            <path d="M5.28,90.26 C5.05131458,90.2621212 4.83142211,90.1720013 4.67,90.01 L0,85.06 L0.36,83.79 L6.92,82 C7.19229421,81.9323717 7.48042072,82.0034678 7.69,82.19 L8.55,82.98 C8.71645987,83.1184872 8.79007557,83.3393343 8.74,83.55 L7,89.63 C6.93573753,89.8385132 6.75621708,89.9907153 6.54,90.02 L5.39,90.24 L5.28,90.26 Z M0.52,84.94 L5,89.7 C5.08974507,89.7880673 5.21567701,89.82881 5.34,89.81 L6.49,89.59 C6.56,89.59 6.59,89.59 6.6,89.52 L7.45,86.52 L7.67,86.58 L7.45,86.52 L8.31,83.46 C8.31,83.46 8.31,83.39 8.25,83.35 L7.39,82.56 C7.29430736,82.4760039 7.16434144,82.4425841 7.04,82.47 L0.73,84.2 L0.52,84.94 Z" id="Shape" fill="#6D4703" fill-rule="nonzero" stroke-width="1"/>
            <path d="M23.19,88.4 L10.83,84.93" id="Shape" fill="#FBE462" fill-rule="nonzero" stroke-width="1"/>
            <rect id="Rectangle-path" fill="#6D4703" fill-rule="nonzero" transform="matrix(0.27043242044866694,-0.9627389604510017,0.9627389604510017,0.27043242044866694,-70.7108392074824,79.47311520583006)" x="16.5810282" y="79.9716457" width="1" height="12.84" stroke-width="1"/>
            <path d="M23,89.09 L10.64,85.62" id="Shape" fill="#FBE462" fill-rule="nonzero" stroke-width="1"/>
            <rect id="Rectangle-path" fill="#6D4703" fill-rule="nonzero" transform="matrix(0.27043242044866694,-0.9627389604510017,0.9627389604510017,0.27043242044866694,-71.5127759194499,79.79316978126978)" x="16.3912316" y="80.6607919" width="1" height="12.84" stroke-width="1"/>
            <path d="M22.81,89.78 L10.44,86.31" id="Shape" fill="#FBE462" fill-rule="nonzero" stroke-width="1"/>
            <rect id="Rectangle-path" fill="#6D4703" fill-rule="nonzero" transform="matrix(0.27043242044866694,-0.9627389604510017,0.9627389604510017,0.27043242044866694,-72.31597435717075,80.11771338066859)" x="16.2037667" y="81.353015" width="1" height="12.84" stroke-width="1"/>
            <path d="M22.61,90.48 L10.25,87" id="Shape" fill="#FBE462" fill-rule="nonzero" stroke-width="1"/>
            <rect id="Rectangle-path" fill="#6D4703" fill-rule="nonzero" transform="matrix(0.27043242044866694,-0.9627389604510017,0.9627389604510017,0.27043242044866694,-73.14446225371036,80.44273095535588)" x="16.0039701" y="82.0621611" width="1" height="12.84" stroke-width="1"/>
            <path d="M22.42,91.17 L10.05,87.7" id="Shape" fill="#FBE462" fill-rule="nonzero" stroke-width="1"/>
            <rect id="Rectangle-path" fill="#6D4703" fill-rule="nonzero" transform="matrix(0.27043242044866694,-0.9627389604510017,0.9627389604510017,0.27043242044866694,-73.942453602766,80.74873784025182)" x="15.8068778" y="82.7416799" width="1" height="12.84" stroke-width="1"/>
            <path d="M22.22,91.86 L9.86,88.39" id="Shape" fill="#FBE462" fill-rule="nonzero" stroke-width="1"/>
            <polygon id="Shape" fill="#6D4703" fill-rule="nonzero" points="22.16 92.08 9.8 88.61 9.92 88.17 22.28 91.64" stroke-width="1"/>
            <path d="M22.03,92.55 L9.66,89.08" id="Shape" fill="#FBE462" fill-rule="nonzero" stroke-width="1"/>
            <rect id="Rectangle-path" fill="#6D4703" fill-rule="nonzero" transform="matrix(0.27043242044866694,-0.9627389604510017,0.9627389604510017,0.27043242044866694,-75.55488515781742,81.38370766274687)" x="15.4196164" y="84.1230492" width="1" height="12.84" stroke-width="1"/>
            <path d="M21.83,93.25 L9.47,89.77" id="Shape" fill="#FBE462" fill-rule="nonzero" stroke-width="1"/>
            <rect id="Rectangle-path" fill="#6D4703" fill-rule="nonzero" transform="matrix(0.27043242044866694,-0.9627389604510017,0.9627389604510017,0.27043242044866694,-76.36483561028659,81.71393328883836)" x="15.2325241" y="84.8225679" width="1" height="12.84" stroke-width="1"/>
            <path d="M28.15,84.24 C27.9203363,82.6431919 26.6345837,81.4068913 25.03,81.24 C24.2400371,81.1723724 23.4640557,81.4789764 22.9336655,82.0682989 C22.4032752,82.6576214 22.1798218,83.4615006 22.33,84.24 C22.33,84.24 24.45,91.24 19.2,96.45 C19.2,96.45 15.39,99.69 20.73,100.38 C20.73,100.38 22.32,101.53 25.23,97.31 C27.384954,93.3040906 28.3952146,88.7821368 28.15,84.24 L28.15,84.24 Z" id="Shape" fill="#FBE462" fill-rule="nonzero" stroke-width="1"/>
            <path d="M25,81.22 L25,81.22 C26.6045837,81.3868913 27.8903363,82.6231919 28.12,84.22 C28.3522703,88.7386945 27.3423999,93.234693 25.2,97.22 C23.31,99.95 21.98,100.43 21.28,100.43 C21.0769247,100.443441 20.8745825,100.3946 20.7,100.29 C15.35,99.61 19.17,96.36 19.17,96.36 C24.42,91.18 22.3,84.15 22.3,84.15 C22.1442722,83.3793922 22.3586066,82.5803365 22.8790886,81.9911116 C23.3995706,81.4018867 24.1660639,81.0905714 24.95,81.15 L25,81.22 Z M24.95,80.7 C24.0482206,80.6977623 23.1833919,81.0581076 22.55,81.7 C21.9714123,82.3878169 21.7164331,83.2911717 21.85,84.18 L21.85,84.27 C21.85,84.34 23.85,91.11 18.85,96.03 C18.69,96.17 17.05,97.61 17.46,99.03 C17.73,99.94 18.74,100.5 20.55,100.75 C20.7775379,100.859498 21.0275224,100.914289 21.28,100.91 C22.16,100.91 23.63,100.32 25.57,97.51 C27.7811157,93.4431766 28.8196862,88.8423091 28.57,84.22 C28.3471056,82.3828804 26.872751,80.9501742 25.03,80.78 L24.95,80.7 Z" id="Shape" fill="#6D4703" fill-rule="nonzero" stroke-width="1"/>
            <path d="M22.16,83.32 C22.2519429,84.3131396 22.8707043,85.1801695 23.78,85.59 C24.4120578,85.9556711 25.2106295,85.8532901 25.73,85.34 C25.9688494,85.04929 26.1366243,84.7068921 26.22,84.34 C26.2867715,83.9815848 26.2068415,83.611368 25.9981463,83.3124262 C25.789451,83.0134844 25.4694676,82.8108521 25.11,82.75 C25.11,82.75 23.48,82.42 24.31,83.99" id="Shape" fill="#FBE462" fill-rule="nonzero" stroke-width="1"/>
            <path d="M24.63,86 C24.2827762,86.007203 23.9391864,85.9281773 23.63,85.77 C22.6474767,85.3201348 21.9828162,84.3766225 21.89,83.3 C21.8836781,83.2372745 21.9058707,83.1750273 21.950449,83.130449 C21.9950273,83.0858707 22.0572745,83.0636781 22.12,83.07 C22.2432206,83.0698835 22.3446426,83.1668959 22.35,83.29 C22.4336457,84.2018903 23.0035106,84.9974064 23.84,85.37 C24.3791451,85.6824073 25.0598718,85.6008831 25.51,85.17 C25.7257602,84.9014364 25.8763646,84.5865363 25.95,84.25 C26.0272581,83.6439685 25.6045903,83.0878267 25,83 C24.82,83 24.41,82.94 24.29,83.11 C24.17,83.28 24.29,83.53 24.45,83.91 C24.4819767,84.0155932 24.4344688,84.1290181 24.3367839,84.1803027 C24.239099,84.2315872 24.1187583,84.2062829 24.05,84.12 C23.75,83.55 23.71,83.12 23.92,82.84 C24.25,82.4 25,82.54 25.09,82.56 C25.5095817,82.6279626 25.8836774,82.8631456 26.1267949,83.2118025 C26.3699124,83.5604593 26.4612737,83.9927922 26.38,84.41 C26.2906476,84.820627 26.1056312,85.2043646 25.84,85.53 C25.5178207,85.8454038 25.0806075,86.0152304 24.63,86 L24.63,86 Z" id="Shape" fill="#6D4703" fill-rule="nonzero" stroke-width="1"/>
            <path d="M19,96.4 C19.6858201,95.6652593 20.7079447,95.3460828 21.69,95.56 C22.4137103,95.6417218 22.9877988,96.2075501 23.08,96.93 C23.0883529,97.3105098 23.0060895,97.6875504 22.84,98.03 C22.4817538,98.6975229 21.6575119,98.958976 20.98,98.62 C20.98,98.62 19.48,97.91 21.11,97.16" id="Shape" fill="#FBE462" fill-rule="nonzero" stroke-width="1"/>
            <path d="M21.65,99 C21.3866259,98.9957045 21.1273227,98.9342906 20.89,98.82 C20.81,98.82 20.13,98.44 20.13,97.9 C20.13,97.54 20.42,97.23 21.02,96.95 C21.0952268,96.8960597 21.1954593,96.8924734 21.2743487,96.9408995 C21.3532381,96.9893256 21.3954089,97.0803258 21.3813608,97.1718205 C21.3673127,97.2633151 21.2997837,97.337472 21.21,97.36 C20.81,97.54 20.58,97.74 20.58,97.9 C20.58,98.06 20.92,98.33 21.08,98.41 C21.3530198,98.5540302 21.6721864,98.5833025 21.9668505,98.4913373 C22.2615145,98.3993721 22.5073717,98.1937548 22.65,97.92 C22.7982349,97.6080108 22.8702119,97.265263 22.86,96.92 C22.7647641,96.310095 22.2734038,95.839208 21.66,95.77 C20.7602251,95.5693412 19.8213354,95.8582303 19.19,96.53 C19.1060026,96.596444 18.9872605,96.5961177 18.9036296,96.529213 C18.8199987,96.4623082 18.793615,96.346534 18.84,96.25 C19.5679338,95.4395532 20.6779948,95.0873959 21.74,95.33 C22.5693794,95.4264613 23.2235387,96.0806206 23.32,96.91 C23.328849,97.324875 23.2397734,97.7359932 23.06,98.11 C22.7871263,98.6412841 22.246998,98.9822162 21.65,99 L21.65,99 Z" id="Shape" fill="#6D4703" fill-rule="nonzero" stroke-width="1"/>
            <path d="M50.86,94.63 C50.86,94.63 52.38,100.41 48.2,103.49 C48.2,103.49 46.57,105 49.58,105.01 C50.8897534,104.892522 52.1005006,104.263796 52.95,103.26 L105.78,117.48 C105.78,117.48 108.78,117.48 109.52,115.24 C109.52,115.24 110.83,112.36 106.96,110.53 L55.57,96.53 C55.3362143,95.5232811 54.7600581,94.6290018 53.94,94 C53.94,94 50,91.52 50.86,94.63 Z" id="Shape" fill="#FBE462" fill-rule="nonzero" stroke-width="1"/>
            <path d="M51.51,93.06 C52.3790532,93.1973355 53.2100082,93.5140519 53.95,93.99 C54.7682632,94.6231383 55.3409544,95.5210615 55.57,96.53 L106.96,110.53 C110.83,112.36 109.52,115.24 109.52,115.24 C108.82,117.45 105.94,117.48 105.79,117.48 L105.79,117.48 L52.95,103.27 C52.0954672,104.258975 50.8913988,104.878927 49.59,105 L49.59,105 C46.59,105 48.21,103.48 48.21,103.48 C52.39,100.4 50.87,94.62 50.87,94.62 C50.53,93.41 50.87,93.04 51.52,93.04 L51.51,93.06 Z M51.52,92.59 C51.1359342,92.5583274 50.7612133,92.7194574 50.52,93.02 C50.2184103,93.5458168 50.1813778,94.1827756 50.42,94.74 C50.42,94.74 51.8,100.26 47.93,103.11 L47.93,103.11 L47.93,103.11 C47.85,103.19 47.13,103.88 47.41,104.58 C47.69,105.28 48.81,105.41 49.62,105.42 C50.9567563,105.313437 52.2052707,104.710583 53.12,103.73 L105.7,117.88 L105.76,117.88 L105.82,117.88 C105.97,117.88 109.18,117.88 109.99,115.34 C110.13,114.98 111.19,111.95 107.2,110.07 L107.2,110.07 L107.2,110.07 L55.93,96.15 C55.6564277,95.1190894 55.0345842,94.2145898 54.17,93.59 C53.3649743,93.0631768 52.453039,92.721628 51.5,92.59 L51.52,92.59 Z" id="Shape" fill="#6D4703" fill-rule="nonzero" stroke-width="1"/>
            <path d="M98.59,108.93 C98.98,112.62 97.65,112.87 97.65,112.87 C95.32,112.99 96.01,108.25 96.01,108.25 C96.1387006,109.437857 96.1185446,110.637138 95.95,111.82 C95.9051087,112.084626 95.7305049,112.309105 95.4850662,112.417742 C95.2396275,112.526379 94.9560658,112.504694 94.73,112.36 C92.67,111.06 93.73,108.01 93.73,108.01 C93.73,112.08 92.87,111.38 92.87,111.38 C90.26,110.71 91.4,107.8 91.93,106.72 C92.0521428,106.461695 92.2559831,106.250826 92.51,106.12 C98.07,103.36 101.3,106.9 101.3,106.9 C102.3,108.97 101.77,111.53 101.56,112.79 C101.538616,112.974054 101.440849,113.140641 101.290586,113.249058 C101.140324,113.357475 100.951409,113.397735 100.77,113.36 C100,113.17 98.81,112.68 98.59,108.93 Z" id="Shape" fill="#FFE9DC" fill-rule="nonzero" stroke-width="1"/>
            <path d="M100.93,113.61 L100.73,113.61 C99.7100723,113.380784 98.9240078,112.567207 98.73,111.54 C98.45,112.92 97.73,113.1 97.65,113.12 C97.1764805,113.162714 96.710252,112.981403 96.39,112.63 C96.2556351,112.477065 96.1444497,112.305233 96.06,112.12 C95.9585251,112.364349 95.7643493,112.558525 95.52,112.66 C95.1964326,112.814554 94.8148806,112.78403 94.52,112.58 C94.0387722,112.282968 93.6587652,111.84718 93.43,111.33 C93.3641109,111.455747 93.2634419,111.559887 93.14,111.63 C92.9988696,111.70295 92.8311304,111.70295 92.69,111.63 C92.007628,111.491333 91.4279072,111.044542 91.12,110.42 C90.56,109.21 91.2,107.54 91.63,106.66 C91.776751,106.357128 92.019271,106.111093 92.32,105.96 C97.97,103.15 101.32,106.75 101.38,106.79 L101.38,106.84 C102.38,108.84 101.93,111.3 101.71,112.61 L101.71,112.86 C101.671923,113.119843 101.526881,113.351909 101.31,113.5 C101.194051,113.566758 101.063681,113.604497 100.93,113.61 Z M98.88,109.61 C99.2,112.71 100.3,112.98 100.88,113.11 C100.982544,113.137103 101.091789,113.118896 101.18,113.06 C101.292773,112.98392 101.368843,112.864382 101.39,112.73 L101.39,112.47 C101.6,111.21 102,108.87 101.12,107 C100.81,106.68 97.78,103.73 92.62,106.29 C92.4094123,106.399404 92.2407215,106.575124 92.14,106.79 C91.82,107.44 91.14,109.08 91.63,110.16 C91.8813391,110.679729 92.3631895,111.050383 92.93,111.16 L93.01,111.16 C93.07,111.16 93.2,111.02 93.31,110.57 C93.1613269,109.67353 93.2299133,108.754473 93.51,107.89 C93.5296496,107.80247 93.5945033,107.732072 93.6801314,107.705324 C93.7657595,107.678576 93.8591529,107.699542 93.9251314,107.760324 C93.9911099,107.821106 94.0196496,107.91247 94,108 C94.0342425,108.866905 93.9772628,109.735008 93.83,110.59 C93.9587127,111.242228 94.349026,111.813242 94.91,112.17 C95.0754847,112.258893 95.2745153,112.258893 95.44,112.17 C95.6196755,112.089284 95.7472197,111.924226 95.78,111.73 C95.8133333,111.556667 95.84,111.356667 95.86,111.13 C95.7122838,110.135455 95.7122838,109.124545 95.86,108.13 C95.8831124,108.066719 95.9351823,108.018368 96,108 C96.1157549,108.004606 96.210018,108.094584 96.22,108.21 C96.2937445,109.185275 96.2937445,110.164725 96.22,111.14 C96.2860732,111.553588 96.4583562,111.942948 96.72,112.27 C96.9339298,112.523839 97.2598827,112.65497 97.59,112.62 C97.59,112.62 98.51,112.34 98.37,109.62 C98.37,109.39 98.37,109.14 98.31,108.88 C98.3041718,108.75658 98.3968984,108.650607 98.52,108.64 C98.5783994,108.634448 98.6365977,108.652449 98.6816636,108.690004 C98.7267296,108.727559 98.7549304,108.781557 98.76,108.84 C98.85,109.17 98.87,109.41 98.88,109.64 L98.88,109.61 Z" id="Shape" fill="#603404" fill-rule="nonzero" stroke-width="1"/>
            <path d="M42.18,17.53 C42.18,17.53 44.52,22.81 42.18,27.4 L45.18,23.48 C45.18,23.48 46.54,20.16 43.67,16.09 L42.18,17.53 Z" id="Shape" fill="#AA5957" fill-rule="nonzero" stroke-width="1"/>
            <path d="M77.17,17.58 C79.31,20.65 80.37,28.08 80.79,31.89 C80.8443612,32.3816417 80.6333579,32.8651331 80.2359246,33.1596045 C79.8384912,33.4540758 79.3145109,33.5151578 78.86,33.32 L76.86,32.46 C76.3776785,32.2607637 76.0462026,31.8098023 76,31.29 L74.94,17.59" id="Shape" fill="#AA5957" fill-rule="nonzero" stroke-width="1"/>
            <path d="M83.21,13.64 L40.07,16.06 C39.7639553,15.4829491 39.1816454,15.1048258 38.53,15.06 C37.1623692,15.071003 35.9897048,16.0391814 35.72,17.38 C35.66,18.71 37.22,19.83 38.32,19.88 C39.1547169,19.8712808 39.8962263,19.3450483 40.18,18.56 L83.21,13.64 Z" id="Shape" fill="#3C2B31" fill-rule="nonzero" stroke-width="1"/>
            <path d="M50.35,13.23 C50.35,13.23 44.81,7.35 51.03,2.77 C51.03,2.77 56.34,-1.75 67.31,1.7 C67.31,1.7 72.12,4.07 69.31,10.58 C68.97,10.86 68.97,12.5 64.79,12.67 L50.35,13.23 Z" id="Shape" fill="#32190C" fill-rule="nonzero" stroke-width="1"/>
            <path d="M49.72,22 L49.72,14.58 C49.7087488,13.502695 50.1779311,12.4763587 51,11.78 C52.3226521,10.7209539 53.9760372,10.1615645 55.67,10.2 L67.06,10.2 C67.06,10.2 69.37,10.11 68.19,14.86 C68.0968832,15.2344323 68.033354,15.6156072 68,16 L67.45,22 C67.45,22 54.81,20.48 49.72,22 Z" id="Shape" fill="url(#linearGradient-1)" fill-rule="nonzero" stroke-width="1"/>
            <path d="M39.74,54.66 C39.74,54.66 31.52,46.15 36.5,30.66 C36.5,30.66 40.42,20.66 56.85,20.26 C56.85,20.26 73.24,19.05 78.99,31.97 C80.2224828,34.8615204 80.7503112,38.0044989 80.53,41.14 C80.3,45.3 78.95,52.79 74.87,55.86 L39.74,54.66 Z" id="Shape" fill="#32190C" fill-rule="nonzero" stroke-width="1"/>
            <path d="M74.87,56.12 L74.87,56.12 L39.73,54.89 C39.6727938,54.8870839 39.6189806,54.861971 39.58,54.82 C39.5,54.73 31.33,46.03 36.29,30.63 C36.29,30.52 40.46,20.45 56.85,20.07 C57.01,20.07 73.46,19 79.2,31.91 C80.4532932,34.8344651 80.9882026,38.0164904 80.76,41.19 C80.65,43 79.89,52.39 75,56.07 C74.9632254,56.1003062 74.9176048,56.1178526 74.87,56.12 Z M39.87,54.44 L74.87,55.67 C78.49,52.88 80.1,46.12 80.37,41.16 C80.5944789,38.0586846 80.0732891,34.9486906 78.85,32.09 C73.16,19.47 57,20.51 56.86,20.52 C40.75,20.89 36.74,30.68 36.7,30.78 C32.06,45.21 39.11,53.62 39.84,54.44 L39.87,54.44 Z" id="Shape" fill="#603404" fill-rule="nonzero" stroke-width="1"/>
            <path d="M36,34.92 C36,34.92 36.44,28.59 41.81,25.08 C41.81,25.08 51.11,19.08 62.4,21.16 C62.4,21.16 53.8,19.69 43.74,25.49 C40.2257916,27.733592 37.5153857,31.0358049 36,34.92 L36,34.92 Z" id="Shape" fill="#604B43" fill-rule="nonzero" stroke-width="1"/>
            <path d="M66.16,12 C66.16,12 68.57,12.26 67.86,15.54 C67.9965186,14.1355397 67.341482,12.7715222 66.16,12 Z" id="Shape" fill="#C79896" fill-rule="nonzero" stroke-width="1"/>
            <path d="M65.51,10.38 C65.51,10.38 68.29,9.89 68.39,11.97 C67.8547419,10.8920049 66.7074285,10.2585922 65.51,10.38 L65.51,10.38 Z" id="Shape" fill="#C79896" fill-rule="nonzero" stroke-width="1"/>
            <path d="M69.35,14.55 C69.35,14.55 68.9,11 73.21,13.37 C73.21,13.37 90.87,27.67 89.44,39.54 L84.51,44.33 C84.51,44.33 88,36.83 84.2,31.19 C84.2,31.18 78.31,18.18 69.35,14.55 Z" id="Shape" fill="#C79896" fill-rule="nonzero" stroke-width="1"/>
            <path d="M42.92,16.1 C42.92,16.1 33.58,24.15 29.92,31.77 C29.92,31.77 26.36,37.57 29.48,42.84 C29.48,42.84 32.24,44.34 33.54,43.45 C33.54,43.45 29.21,34.96 43.62,17.45 C43.63,17.48 44.44,16.19 42.92,16.1 Z" id="Shape" fill="#C79896" fill-rule="nonzero" stroke-width="1"/>
            <path d="M37.32,49.24 C37.32,49.24 33.85,47.24 35.21,54.44 C36.058572,56.4513249 37.1320714,58.360141 38.41,60.13 C39.2158921,61.1104713 39.7257912,62.3002359 39.88,63.56 C40.2019887,64.7473451 41.164963,65.6523089 42.37,65.9 C42.37,65.9 43.43,66.28 43.54,65.26 C43.54,65.25 41.69,51.38 37.32,49.24 Z" id="Shape" fill="#FFE9DC" fill-rule="nonzero" stroke-width="1"/>
            <path d="M42.79,66.19 C42.6234433,66.1896623 42.4580153,66.1626537 42.3,66.11 C41.0182235,65.8465724 39.9980112,64.8767888 39.67,63.61 C39.5201905,62.3852797 39.0280191,61.2276372 38.25,60.27 C36.9495875,58.4879806 35.8590483,56.5619207 35,54.53 C34.43,51.53 34.61,49.69 35.53,49.03 C36.1153154,48.6944332 36.8346846,48.6944332 37.42,49.03 C41.85,51.22 43.68,64.65 43.76,65.22 C43.7594615,65.5472236 43.5988622,65.8534827 43.33,66.04 C43.1679771,66.1404492 42.980618,66.1924934 42.79,66.19 Z M35.43,54.39 C36.2735298,56.370662 37.333291,58.2520736 38.59,60 C39.4288832,61.0155539 39.9566887,62.25173 40.11,63.56 C40.4152439,64.6459468 41.303854,65.4688771 42.41,65.69 C42.6314907,65.7784793 42.8785093,65.7784793 43.1,65.69 C43.2369223,65.5892801 43.3184298,65.4299698 43.32,65.26 C43.32,65.18 41.44,51.54 37.23,49.47 L37.23,49.47 C36.7871021,49.2299491 36.2528979,49.2299491 35.81,49.47 C35.28,49.85 34.81,51.02 35.45,54.47 L35.43,54.39 Z" id="Shape" fill="#603404" fill-rule="nonzero" stroke-width="1"/>
            <path d="M79.75,49.24 C79.75,49.24 83.22,47.24 81.86,54.44 C81.011428,56.4513249 79.9379286,58.360141 78.66,60.13 C77.8541079,61.1104713 77.3442088,62.3002359 77.19,63.56 C76.8680113,64.7473451 75.905037,65.6523089 74.7,65.9 C74.7,65.9 73.64,66.28 73.53,65.26 C73.54,65.25 75.38,51.38 79.75,49.24 Z" id="Shape" fill="#FFE9DC" fill-rule="nonzero" stroke-width="1"/>
            <path d="M74.29,66.19 C74.0969935,66.1974287 73.9059656,66.1488035 73.74,66.05 C73.4851141,65.8738129 73.3262993,65.5894237 73.31,65.28 C73.39,64.65 75.22,51.22 79.65,49.04 C80.234768,48.702384 80.955232,48.702384 81.54,49.04 C82.46,49.7 82.65,51.54 82.08,54.49 C81.2266155,56.5403551 80.1358399,58.4836139 78.83,60.28 C78.0555779,61.2244689 77.5633852,62.368297 77.41,63.58 C77.0863999,64.8775831 76.0420579,65.8712667 74.73,66.13 C74.587534,66.1736216 74.438944,66.1938839 74.29,66.19 Z M80.69,49.19 C80.4035716,49.2005445 80.1232405,49.2757553 79.87,49.41 L79.87,49.41 C75.66,51.48 73.79,65.12 73.78,65.25 C73.7936353,65.4029346 73.8741615,65.5420252 74,65.63 C74.2085293,65.7139785 74.4414707,65.7139785 74.65,65.63 C75.7678288,65.4109523 76.6724836,64.5909886 77,63.5 C77.1525027,62.215053 77.6695212,61.00058 78.49,60 C79.7538562,58.2477676 80.8171709,56.3592938 81.66,54.37 C82.3,50.97 81.81,49.79 81.28,49.37 C81.1037018,49.259898 80.8974764,49.2074678 80.69,49.22 L80.69,49.19 Z" id="Shape" fill="#603404" fill-rule="nonzero" stroke-width="1"/>
            <path d="M43.22,37.41 C43.22,37.41 46.56,31.04 56.12,34.07 C56.12,34.07 58.87,35.59 63.25,33.77 C66.7520312,33.0919439 70.3285521,34.5131815 72.41,37.41 C72.41,37.41 76.47,44.06 76,50.41 C75.9402537,51.3623972 75.9402537,52.3176028 76,53.27 L76,59.27 C76,59.27 75.62,72.47 61.68,73.83 C61.68,73.83 47.44,75.99 41.76,63.25 C40.6801593,60.7608427 40.1024438,58.0829613 40.06,55.37 C39.94,50.75 40.17,42 43.22,37.41 Z" id="Shape" fill="#FFE9DC" fill-rule="nonzero" stroke-width="1"/>
            <path d="M59.4,74.17 C55.09,74.17 45.84,72.98 41.54,63.33 C40.4418451,60.803773 39.8571669,58.0843394 39.82,55.33 C39.7,50.58 39.96,41.91 43.02,37.26 C43.19,36.95 46.75,30.83 56.18,33.82 C56.25,33.82 58.94,35.27 63.18,33.52 C66.7794599,32.8187859 70.4587045,34.2701952 72.61,37.24 C72.61,37.32 76.71,44.04 76.24,50.42 C76.1813216,51.3624208 76.1813216,52.3075792 76.24,53.25 L76.24,59.25 C76.24,59.39 75.69,72.67 61.72,74.04 C60.9503387,74.133988 60.1753433,74.1774144 59.4,74.17 Z M51.3,33.47 C48.1483961,33.3047457 45.1468033,34.8283969 43.42,37.47 L43.42,37.47 C40.42,42.02 40.18,50.59 40.29,55.29 C40.3305487,57.9977714 40.9119381,60.6701227 42,63.15 C47.5,75.59 61.49,73.62 61.63,73.59 C67.34,73.03 71.44,70.45 73.84,65.93 C74.931056,63.8555178 75.5813386,61.5778266 75.75,59.24 L75.75,53.24 C75.6906163,52.2842549 75.6906163,51.3257451 75.75,50.37 C76.21,44.13 72.23,37.54 72.19,37.48 C70.1350254,34.7107302 66.6783735,33.3591404 63.29,34 C58.9,35.83 56.11,34.34 56,34.28 C54.4842275,33.7702335 52.8989676,33.4970291 51.3,33.47 L51.3,33.47 Z" id="Shape" fill="#603404" fill-rule="nonzero" stroke-width="1"/>
            <path d="M48,42 L53,43.74 C53.2,43.81 53.41,43.86 53.61,43.91 C53.81,43.96 54.26,44.13 54.19,44.48 C54.19,44.48 54.19,45.48 52.94,45.15 L48.74,44.25 C48.1558306,44.0587566 47.5316816,44.0242732 46.93,44.15 C46.7206543,44.2012693 46.5054787,44.2248041 46.29,44.22 L44.75,44.22 C44.702427,44.2201669 44.6585624,44.1943347 44.6356359,44.1526502 C44.6127095,44.1109658 44.6143833,44.0600874 44.64,44.02 C45.2175027,43.1350063 46.0364869,42.4340113 47,42 C47.3230907,41.8831374 47.6769093,41.8831374 48,42 L48,42 Z" id="Shape" fill="#32190C" fill-rule="nonzero" stroke-width="1"/>
            <path d="M68.09,42 L63.09,43.74 C62.89,43.81 62.68,43.86 62.48,43.91 C62.28,43.96 61.83,44.13 61.9,44.48 C61.9,44.48 61.9,45.48 63.15,45.15 L67.35,44.25 C67.9341694,44.0587566 68.5583184,44.0242732 69.16,44.15 C69.3693457,44.2012693 69.5845213,44.2248041 69.8,44.22 L71.34,44.22 C71.387573,44.2201669 71.4314376,44.1943347 71.4543641,44.1526502 C71.4772905,44.1109658 71.4756167,44.0600874 71.45,44.02 C70.8483667,43.1216361 69.9965789,42.4193457 69,42 C68.7043022,41.9037477 68.3856978,41.9037477 68.09,42 L68.09,42 Z" id="Shape" fill="#32190C" fill-rule="nonzero" stroke-width="1"/>
            <path d="M56.27,59.82 C56.1195387,59.8211207 55.9784731,59.7469673 55.8940848,59.6223941 C55.8096965,59.497821 55.7931533,59.3393137 55.85,59.2 C56.2657682,58.2361274 57.2203619,57.6168248 58.27,57.63 L58.33,57.63 C59.2147261,57.7567043 59.9490098,58.3783201 60.22,59.23 C60.2664445,59.3854105 60.2264505,59.5537937 60.1150833,59.6717211 C60.0037161,59.7896485 59.837895,59.8392042 59.6800833,59.8017211 C59.5222716,59.764238 59.3964445,59.6454106 59.35,59.49 C59.2010459,58.9760292 58.7757992,58.5894413 58.25,58.49 L58.25,58.49 C57.5845584,58.4910733 56.9816887,58.8825472 56.71,59.49 C56.6554426,59.6872594 56.4746451,59.8228575 56.27,59.82 L56.27,59.82 Z" id="Shape" fill="#32190C" fill-rule="nonzero" stroke-width="1"/>
            <path d="M54.67,65.49 C56.8285559,66.3259611 59.2214441,66.3259611 61.38,65.49 C61.38,65.49 61.68,69.33 57.73,69.14 C57.73,69.14 54.88,69 54.67,65.49 Z" id="Shape" fill="#830004" fill-rule="nonzero" stroke-width="1"/>
            <path d="M55.82,68.27 C57.2856397,67.5931992 58.9743603,67.5931992 60.44,68.27 C59.7565251,68.9304337 58.8148422,69.2528776 57.87,69.15 C57.0989516,69.1310934 56.3648062,68.815948 55.82,68.27 L55.82,68.27 Z" id="Shape" fill="#D27366" fill-rule="nonzero" stroke-width="1"/>
            <path d="M54.67,65 L54.67,65.74 C56.790392,66.7663528 59.268329,66.7441623 61.37,65.68 L61.37,64.98 C59.219902,65.8355001 56.8251671,65.8426486 54.67,65 L54.67,65 Z" id="Shape" fill="#FFFFFF" fill-rule="nonzero" stroke-width="1"/>
            <path d="M61.39,64.59 C61.39,64.59 60.86,64.71 60.05,63.47 C59.8048745,63.0505466 59.7861029,62.5362061 60,62.1 C60.1329229,61.9042087 60.3448214,61.7763389 60.58,61.75 C61.58,61.6 67.4,62.27 69.29,66.28 C68.478413,65.5863266 67.4992288,65.1174215 66.45,64.92 L63.45,64.58 C63.0339554,64.5478018 62.6160446,64.5478018 62.2,64.58 C61.9321222,64.6249838 61.6589067,64.6283568 61.39,64.59 L61.39,64.59 Z" id="Shape" fill="#32190C" fill-rule="nonzero" stroke-width="1"/>
            <path d="M55.11,64.59 C55.11,64.59 55.64,64.71 56.45,63.47 C56.6983237,63.0522443 56.7208513,62.5378655 56.51,62.1 C56.3770771,61.9042087 56.1651786,61.7763389 55.93,61.75 C54.93,61.6 49.11,62.27 47.22,66.28 C48.031587,65.5863266 49.0107712,65.1174215 50.06,64.92 L53.06,64.58 C53.4760446,64.5478018 53.8939554,64.5478018 54.31,64.58 C54.5746101,64.6239558 54.8443738,64.6273279 55.11,64.59 L55.11,64.59 Z" id="Shape" fill="#32190C" fill-rule="nonzero" stroke-width="1"/>
            <path d="M62,54.61 L70.9,54.61 C70.9,54.61 71.45,48.27 66.45,48.19 C66.42,48.19 61.89,47.8 62,54.61 Z" id="Shape" stroke-width="1" fill="none"/>
            <circle id="Oval" fill="#FFFFFF" fill-rule="nonzero" cx="67.63" cy="51.19" r="1" stroke-width="1"/>
            <circle id="Oval" fill="#FFFFFF" fill-rule="nonzero" cx="65.71" cy="52.8" r="1" stroke-width="1"/>
            <path d="M44.57,54.61 L53.47,54.61 C53.47,54.61 54,48.27 49,48.19 C49,48.19 44.49,47.8 44.57,54.61 Z" id="Shape" stroke-width="1" fill="none"/>
            <circle id="Oval" fill="#FFFFFF" fill-rule="nonzero" cx="50.23" cy="51.19" r="1" stroke-width="1"/>
            <circle id="Oval" fill="#FFFFFF" fill-rule="nonzero" cx="48.31" cy="52.8" r="1" stroke-width="1"/>
            <path d="M62,54.61 L70.9,54.61 C70.9,54.61 71.45,48.27 66.45,48.19 C66.42,48.19 61.89,47.8 62,54.61 Z" id="Shape" fill="#FFFFFF" fill-rule="nonzero" stroke-width="1"/>
            <path d="M71,54.72 L61.86,54.72 L61.86,54.61 C61.86,52.09 62.42,50.25 63.61,49.14 C64.3724672,48.4270522 65.3866965,48.0458171 66.43,48.08 C67.6116558,48.0496744 68.748905,48.5308183 69.55,49.4 C71.25,51.29 71,54.49 70.98,54.62 L71,54.72 Z M62.11,54.49 L70.79,54.49 C70.79,53.92 70.88,51.17 69.41,49.54 C68.6384839,48.7092346 67.5429199,48.2564015 66.41,48.3 C65.4271947,48.2757226 64.4734108,48.634288 63.75,49.3 C62.64,50.36 62.07,52.1 62.08,54.5 L62.11,54.49 Z" id="Shape" fill="#32190C" fill-rule="nonzero" stroke-width="1"/>
            <path d="M69.36,52.32 C69.3666953,50.9679643 68.447381,49.7869069 67.1350529,49.4615759 C65.8227247,49.136245 64.4581902,49.7511278 63.8325729,50.9497305 C63.2069556,52.1483331 63.4827263,53.6193824 64.5,54.51 L68.36,54.51 C68.9938358,53.9585774 69.3584253,53.1601263 69.36,52.32 Z" id="Shape" fill="#32190C" fill-rule="nonzero" stroke-width="1"/>
            <circle id="Oval" fill="#FFFFFF" fill-rule="nonzero" cx="67.31" cy="51.19" r="1" stroke-width="1"/>
            <circle id="Oval" fill="#FFFFFF" fill-rule="nonzero" cx="65.38" cy="52.8" r="1" stroke-width="1"/>
            <path d="M44.57,54.61 L53.47,54.61 C53.47,54.61 54,48.27 49,48.19 C49,48.19 44.49,47.8 44.57,54.61 Z" id="Shape" fill="#FFFFFF" fill-rule="nonzero" stroke-width="1"/>
            <path d="M53.57,54.72 L44.46,54.72 L44.46,54.61 C44.46,52.09 45.02,50.25 46.21,49.14 C46.9684153,48.4399484 47.9680737,48.0601498 49,48.08 C50.1816558,48.0496744 51.318905,48.5308183 52.12,49.4 C53.82,51.29 53.57,54.49 53.55,54.62 L53.57,54.72 Z M44.68,54.49 L53.36,54.49 C53.36,53.92 53.45,51.17 51.98,49.54 C51.2084839,48.7092346 50.1129199,48.2564015 48.98,48.3 C47.9971947,48.2757226 47.0434108,48.634288 46.32,49.3 C45.24,50.36 44.67,52.1 44.68,54.5 L44.68,54.49 Z" id="Shape" fill="#32190C" fill-rule="nonzero" stroke-width="1"/>
            <path d="M52,52.32 C52.0066953,50.9679643 51.087381,49.7869069 49.7750529,49.4615759 C48.4627247,49.136245 47.0981902,49.7511278 46.4725729,50.9497305 C45.8469556,52.1483331 46.1227263,53.6193824 47.14,54.51 L51,54.51 C51.6338358,53.9585774 51.9984253,53.1601263 52,52.32 L52,52.32 Z" id="Shape" fill="#32190C" fill-rule="nonzero" stroke-width="1"/>
            <circle id="Oval" fill="#FFFFFF" fill-rule="nonzero" cx="49.91" cy="51.19" r="1" stroke-width="1"/>
            <circle id="Oval" fill="#FFFFFF" fill-rule="nonzero" cx="47.98" cy="52.8" r="1" stroke-width="1"/>
            <path d="M51.4,71.75 C52.62,72.6 55.59,74.25 57.88,72.13 C58.1352728,71.9186764 58.5047272,71.9186764 58.76,72.13 C59.84,72.95 62.65,74.45 65.76,70.92 C65.884575,70.7763228 66.0787399,70.7138873 66.2637093,70.7580277 C66.4486787,70.8021682 66.5937275,70.9455524 66.64,71.13 C67.07,73.06 66.4,81.13 59.22,87.44 C58.8831984,87.728079 58.3868016,87.728079 58.05,87.44 C56.21,85.89 49.95,77.91 50.73,72.13 C50.7343622,71.9725047 50.8207768,71.8287611 50.9578244,71.7510326 C51.0948721,71.673304 51.2625908,71.6729124 51.4,71.75 L51.4,71.75 Z" id="Shape" fill="#32190C" fill-rule="nonzero" stroke-width="1"/>
            <path d="M18.06,86.62 C17.43,90.27 16.06,90.15 16.06,90.15 C13.78,89.63 15.74,85.26 15.74,85.26 C15.5500456,86.437118 15.2141233,87.5859724 14.74,88.68 C14.6251645,88.9224007 14.3964929,89.0911212 14.1310029,89.1293357 C13.8655128,89.1675502 13.5985392,89.0701725 13.42,88.87 C11.79,87.06 13.63,84.41 13.63,84.41 C12.57,88.34 11.89,87.41 11.89,87.41 C9.56,86.05 11.44,83.57 12.25,82.67 C12.4373943,82.4547665 12.6904058,82.3071765 12.97,82.25 C19.07,81.1 21.22,85.39 21.22,85.39 C21.61,87.65 20.41,89.98 19.87,91.13 C19.8004745,91.3009964 19.6625166,91.4350628 19.4896014,91.4996685 C19.3166862,91.5642742 19.1246175,91.5535144 18.96,91.47 C18.27,91.08 17.25,90.29 18.06,86.62 Z" id="Shape" fill="#FFE9DC" fill-rule="nonzero" stroke-width="1"/>
            <path d="M19.26,91.78 C19.1160471,91.7799572 18.9746421,91.7420193 18.85,91.67 C17.9490394,91.161286 17.431843,90.1699928 17.53,89.14 C16.89,90.39 16.17,90.38 16.06,90.37 C15.5919772,90.2864115 15.1912914,89.9858971 14.98,89.56 C14.8924766,89.3763067 14.8318547,89.1809697 14.8,88.98 C14.6102032,89.2165713 14.3232965,89.3542205 14.02,89.3542205 C13.7167035,89.3542205 13.4297968,89.2165713 13.24,88.98 C12.8566645,88.5635908 12.6090407,88.040442 12.53,87.48 C12.4329565,87.5834959 12.3078572,87.6564704 12.17,87.69 C12.0139826,87.7205506 11.8529602,87.6718694 11.74,87.56 C11.1332209,87.2447925 10.702701,86.6707661 10.57,86 C10.36,84.68 11.43,83.25 12.08,82.52 C12.3023356,82.2683663 12.6008232,82.096297 12.93,82.03 C19.13,80.87 21.4,85.25 21.42,85.29 C21.4225098,85.3099213 21.4225098,85.3300787 21.42,85.35 C21.8,87.54 20.74,89.78 20.17,90.99 L20.06,91.22 C19.9508777,91.4572092 19.748008,91.6383428 19.5,91.72 C19.4233541,91.751597 19.3424979,91.771811 19.26,91.78 L19.26,91.78 Z M18.14,87.38 C17.61,90.45 18.59,91.01 19.08,91.28 C19.1755143,91.3223591 19.2844857,91.3223591 19.38,91.28 C19.5084384,91.237125 19.6134095,91.143013 19.67,91.02 L19.78,90.78 C20.33,89.63 21.34,87.48 21,85.45 C20.79,85.05 18.67,81.39 13,82.45 C12.766915,82.4974118 12.5560013,82.6204448 12.4,82.8 C11.92,83.34 10.81,84.73 11,85.91 C11.112492,86.473072 11.4827447,86.950698 12,87.2 L12.07,87.26 C12.13,87.26 12.29,87.18 12.52,86.78 C12.6206733,85.8785013 12.93617,85.0143145 13.44,84.26 C13.5024186,84.1701207 13.6195196,84.1366632 13.72,84.18 C13.8156526,84.2281603 13.8654087,84.3359652 13.84,84.44 C13.6360549,85.2814985 13.3444615,86.0993004 12.97,86.88 C12.9177543,87.5413038 13.1381348,88.1952198 13.58,88.69 C13.7047592,88.8324555 13.8921198,88.9036526 14.08,88.88 C14.2758275,88.8523717 14.4447879,88.7284674 14.53,88.55 C14.6194368,88.3709308 14.699544,88.1873518 14.77,88 C14.8900109,87.0171215 15.1527782,86.0570102 15.55,85.15 C15.6030099,85.0527293 15.7178266,85.0070653 15.8231617,85.0413605 C15.9284968,85.0756556 15.9944199,85.1801651 15.98,85.29 C15.7950722,86.2514025 15.537671,87.1974358 15.21,88.12 C15.1587274,88.5378073 15.2173229,88.961763 15.38,89.35 C15.5192469,89.6532277 15.8005603,89.867026 16.13,89.92 C16.13,89.92 17.13,89.92 17.69,87.28 C17.73,87.0533333 17.7766667,86.8133333 17.83,86.56 C17.8739585,86.4615084 17.9804532,86.4067918 18.0861215,86.4284058 C18.1917899,86.4500197 18.2682461,86.5421581 18.27,86.65 C18.2366667,86.8833333 18.1933333,87.1266667 18.14,87.38 Z" id="Shape" fill="#603404" fill-rule="nonzero" stroke-width="1"/>
        </g>
    </g>
</svg>