<?xml version="1.0" encoding="UTF-8"?><svg xmlns="http://www.w3.org/2000/svg" xmlns:xlink="http://www.w3.org/1999/xlink" width="81.74457550048828" height="149.11502075195312" viewBox="-0.4676893949508667 -0.17782902717590332 81.74457550048828 149.11502075195312" version="1.1">
    <!-- Generator: Sketch 46.2 (44496) - http://www.bohemiancoding.com/sketch -->
    <title>三国主题素材-16</title>
    <desc>Created with Sketch.</desc>
    <defs>
        <linearGradient x1="11.8392447%" y1="118.64122%" x2="90.4665926%" y2="-6.84808378%" id="linearGradient-1">
            <stop stop-color="#C79896" offset="35%"/>
            <stop stop-color="#C49290" offset="48%"/>
            <stop stop-color="#BC817F" offset="65%"/>
            <stop stop-color="#AF6462" offset="85%"/>
            <stop stop-color="#AA5957" offset="92%"/>
        </linearGradient>
    </defs>
    <g id="Page-1" stroke="none" fill-rule="evenodd">
        <g id="三国主题素材-16" fill-rule="nonzero">
            <path d="M43.31,141.76 C43.31,141.76 42.18,145.37 45.08,147.47 C47.35,149.12 50.03,148.56 51.98,146.54 C53.09,145.4 54.4,142.11 53.16,140.86 L43.31,141.76 Z" id="Shape" fill="#FFF6E6" stroke-width="1"/>
            <path d="M42.7,142.21 C42.855191,144.13879 43.9463074,145.868882 45.62,146.84 C47.6066256,148.055566 50.1782515,147.676767 51.73,145.94 C53.0513687,144.499675 54.1684901,142.88456 55.05,141.14 L42.7,142.21 Z" id="Shape" fill="#443A37" stroke-width="1"/>
            <path d="M24.45,141.17 C24.45,141.17 23.15,144.72 25.95,146.96 C28.14,148.72 30.84,148.28 32.88,146.37 C34.04,145.28 34.88,142.17 33.66,140.87 L24.45,141.17 Z" id="Shape" fill="#FFF6E6" stroke-width="1"/>
            <path d="M23.82,141.59 C23.879774,143.525037 24.8850513,145.307629 26.51,146.36 C28.4354568,147.673158 31.0246613,147.420552 32.66,145.76 C34.0498156,144.386552 35.2443203,142.828649 36.21,141.13 L23.82,141.59 Z" id="Shape" fill="#443A37" stroke-width="1"/>
            <path d="M54.66,70.89 C65.7107136,80.0725522 74.5093853,91.6661364 80.38,104.78 C80.38,104.78 72.66,118.43 62.7,119.09 C59.5822431,112.760848 57.6310384,105.921469 56.94,98.9 C56.9231866,98.7186775 56.8964802,98.5384089 56.86,98.36 C56.62,97.18 55.63,92.18 55.07,87.98 C55.07,87.98 59.07,119.42 62.82,137.41 C62.82,137.41 64.51,142.2 57.88,142.2 C57.88,142.2 32.88,146.99 17.61,139.56 C17.61,139.56 12.43,138.4 15.68,129.33 L20.38,103.08 C20.38,103.08 25.6,95.08 21.21,96.64 C16.3,98.38 23.64,107.26 28.33,108.74 C28.33,108.74 17.7,129.01 14.61,122.91 L1.95,105.73 C-0.05,103.18 0.07,98.87 1.83,96.12 L1.83,96.12 L5.83,89.19 C9.56,83.06 14.59,76.78 20.33,72.72 C21.2815419,72.0338954 22.2845071,71.4220866 23.33,70.89 L54.66,70.89 Z" id="Shape" fill="#C79896" stroke-width="1"/>
            <path d="M54.66,70.89 C65.7107136,80.0725522 74.5093853,91.6661364 80.38,104.78 C80.38,104.78 72.66,118.43 62.7,119.09 C59.5822431,112.760848 57.6310384,105.921469 56.94,98.9 C56.9233068,98.7186631 56.8965993,98.5383879 56.86,98.36 C56.62,97.18 55.63,92.18 55.07,87.98 C55.07,87.98 59.07,119.42 62.82,137.41 C62.82,137.41 64.51,142.2 57.88,142.2 C52.0802239,143.202652 46.2057994,143.711144 40.32,143.72 C32.83,143.72 24.32,142.81 17.61,139.56 C17.61,139.56 12.43,138.4 15.68,129.33 L16.68,124 C20.92,123 28.38,108.75 28.38,108.75 C25.89,107.97 22.66,105.1 20.9,102.32 C21.95,100.57 24.22,96.45 22.21,96.45 C21.8676953,96.4591071 21.5294763,96.5267509 21.21,96.65 C18.91,97.47 19.3,99.86 20.86,102.32 C20.58,102.79 20.38,103.09 20.38,103.09 L16.63,124 C16.4795131,124.037775 16.3251416,124.057911 16.17,124.06 C15.4648857,124.028547 14.8486271,123.574253 14.61,122.91 L1.95,105.73 C-0.05,103.18 0.07,98.87 1.83,96.12 L5.83,89.19 C9.56,83.06 14.59,76.78 20.33,72.72 C21.2815419,72.0338954 22.2845071,71.4220866 23.33,70.89 L54.66,70.89 L54.66,70.89 Z M54.66,70.44 L23.39,70.44 C23.3241774,70.4249976 23.2558226,70.4249976 23.19,70.44 C22.1131861,70.982478 21.0800857,71.6076876 20.1,72.31 C15,76 9.8,81.85 5.48,89 L1.48,95.94 C-0.52,99.03 -0.43,103.48 1.64,106.06 L14.27,123.19 C14.5801975,123.960723 15.3015022,124.488129 16.13,124.55 L15.29,129.26 C13.96,132.99 13.84,135.9 14.95,137.9 C15.480718,138.896706 16.3766475,139.649287 17.45,140 C23.2,142.78 30.89,144.18 40.31,144.18 C46.2087589,144.164344 52.0958992,143.655909 57.91,142.66 C60.31,142.66 61.91,142.03 62.82,140.82 C63.4799468,139.769096 63.6375601,138.478866 63.25,137.3 C61.61,129.42 59.92,118.88 58.53,109.57 C59.4801393,112.925721 60.7388415,116.186295 62.29,119.31 C62.3682251,119.458257 62.5223728,119.550746 62.69,119.55 L62.69,119.55 C66.88,119.27 71.34,116.66 75.57,112 C77.5172351,109.843031 79.245698,107.498217 80.73,105 C80.7925162,104.873995 80.7925162,104.726005 80.73,104.6 C74.8215093,91.4385045 66.003438,79.7893502 54.94,70.53 C54.8621067,70.47158 54.7673666,70.44 54.67,70.44 L54.66,70.44 Z M20.86,101.44 C20.203104,100.493079 19.9478348,99.3245931 20.15,98.19 C20.357286,97.6492831 20.8107824,97.2403928 21.37,97.09 C21.6251577,96.9870673 21.8953444,96.9262753 22.17,96.91 C22.4,96.91 22.45,96.98 22.46,97.02 C22.7,97.44 22.28,98.95 20.86,101.44 Z M20.86,103.27 L20.92,103.17 C22.6318221,105.668514 24.9651423,107.677858 27.69,109 C25.6,112.91 20.49,121.49 17.22,123.28 L20.81,103.28 L20.86,103.27 Z" id="Shape" fill="#603404" stroke-width="1"/>
            <path d="M62.7,119.09 C62.7,119.09 72.47,120.8 80.38,104.78 C80.38,104.78 65.34,109 62.7,119.09 Z" id="Shape" fill="#AA5957" stroke-width="1"/>
            <path d="M63.55,119.37 C63.252211,119.373655 62.9546038,119.353591 62.66,119.31 C62.5980111,119.299624 62.5434201,119.26323 62.51,119.21 C62.4855468,119.152491 62.4855468,119.087509 62.51,119.03 C65.16,108.91 80.2,104.61 80.35,104.56 C80.4337302,104.538218 80.5226011,104.565265 80.58,104.63 C80.6274788,104.702956 80.6274788,104.797044 80.58,104.87 C76.46,113.2 71.83,116.68 68.66,118.13 C67.0650048,118.904182 65.3224337,119.327037 63.55,119.37 L63.55,119.37 Z M62.98,118.89 C64.53,119.01 72.98,118.89 79.98,105.15 C77.4440567,105.969558 74.995455,107.0381 72.67,108.34 C69,110.4 64.42,113.88 63,118.89 L62.98,118.89 Z" id="Shape" fill="#603404" stroke-width="1"/>
            <path d="M27,70.89 L30.59,70.89 C30.59,70.89 31.66,84.17 41.09,84.89 L41.09,87.68 C41.09,87.68 30.79,86.55 27,70.89 Z" id="Shape" fill="#AA5957" stroke-width="1"/>
            <path d="M45.32,70.89 C45.32,70.89 46.24,89.89 23.32,97.01 L21,102.36 C21,102.36 48.47,91.36 50,70.88 L45.32,70.89 Z" id="Shape" fill="#AA5957" stroke-width="1"/>
            <path d="M21.11,102.36 C21.11,102.36 39.23,108.56 57.11,103.07 L57.46,105.51 C57.46,105.51 44.41,111.22 20.65,104.8 L21.11,102.36 Z" id="Shape" fill="#AA5957" stroke-width="1"/>
            <path d="M26,105.5 C26,105.5 27.39,112.19 23.27,115.94 C22.7334457,116.418186 22.4245915,117.101299 22.42,117.82 L22.42,117.82 C22.4185407,117.996553 22.5067665,118.161784 22.654291,118.258787 C22.8018154,118.355789 22.9884821,118.371309 23.15,118.3 C24.64,117.63 27.87,115.3 27.59,106.3 L26,105.5 Z" id="Shape" fill="#AA5957" stroke-width="1"/>
            <path d="M28.6,106.06 C28.6,106.06 26.22,119.84 29.68,121.94 C29.7825333,122.004613 29.9071772,122.024073 30.0245262,121.993789 C30.1418752,121.963505 30.2415371,121.88616 30.3,121.78 L30.3,121.78 C30.5935806,121.238344 30.5588175,120.577845 30.21,120.07 C29.57,119.07 28.97,115.97 30.21,106.44 L28.6,106.06 Z" id="Shape" fill="#AA5957" stroke-width="1"/>
            <path d="M44.4,131.28 C44.4,131.28 52.87,134.71 59.06,129.02 C59.06,129 54.77,136.26 44.4,131.28 Z" id="Shape" fill="#AF8B8B" stroke-width="1"/>
            <path d="M22.45,133.43 C22.45,133.43 31.88,144 54.07,135 C54.07,135 33.87,142.13 22.45,133.43 Z" id="Shape" fill="#AF8B8B" stroke-width="1"/>
            <path d="M19.34,109.82 C15.8896901,110.615887 13.6276101,113.926354 14.14,117.43 C14.14,117.43 14.38,110.78 19.34,109.82 Z" id="Shape" fill="#B28A8A" stroke-width="1"/>
            <path d="M60.21,113.26 C60.21,113.26 60.85,108.55 65.52,107.75 C65.51,107.75 60.9,107.66 60.21,113.26 Z" id="Shape" fill="#B28A8A" stroke-width="1"/>
            <path d="M68.13,111.16 C68.13,111.16 67.28,116.08 69.88,118.16 C69.88,118.16 70.88,118.65 70.69,117.16 C70.69,117.16 69.75,114.96 70.28,114.1 C70.28,114.1 70.91,113.3 70.99,114.96 C70.99,114.96 71.14,118.74 74.5,118.21 C74.5,118.21 78.34,118.4 76.76,112.06 C76.76,112.06 75.44,107.23 72.84,107.98 C71.1744222,108.891054 69.5975746,109.955677 68.13,111.16 Z" id="Shape" fill="#FFE9DC" stroke-width="1"/>
            <path d="M73.86,118.47 C73.210117,118.483799 72.576217,118.267778 72.07,117.86 C71.282103,117.089827 70.8142087,116.050459 70.76,114.95 C70.76,114.21 70.58,114.11 70.58,114.11 C70.5313124,114.139825 70.4874722,114.17692 70.45,114.22 C70.08,114.82 70.64,116.47 70.89,117.05 L70.89,117.1 C70.98,117.69 70.89,118.1 70.62,118.29 C70.3518779,118.435823 70.0281221,118.435823 69.76,118.29 C67.04,116.17 67.85,111.29 67.88,111.09 C67.9082219,111.046869 67.950692,111.015016 68,111 C69.4807825,109.785577 71.0709138,108.710983 72.75,107.79 C73.3166842,107.607479 73.9341042,107.672853 74.45,107.97 C76.13,108.91 76.96,111.88 76.99,111.97 C77.62,114.5 77.49,116.33 76.59,117.42 C76.0754697,118.045972 75.3102595,118.412102 74.5,118.42 C74.2883818,118.454047 74.0743382,118.470769 73.86,118.47 L73.86,118.47 Z M70.6,113.66 L70.73,113.66 C71.03,113.76 71.18,114.14 71.22,114.91 C71.2741161,115.879895 71.6793286,116.796955 72.36,117.49 C72.9585845,117.944061 73.7264135,118.112252 74.46,117.95 L74.46,117.95 C75.1376972,117.947166 75.7790105,117.643001 76.21,117.12 C76.99,116.12 77.1,114.42 76.51,112.12 C76.51,112.12 75.7,109.21 74.18,108.36 C73.7854161,108.124372 73.3096963,108.066269 72.87,108.2 L72.87,108.2 C71.2630376,109.091639 69.7372136,110.122239 68.31,111.28 C68.22,111.91 67.7,116.15 69.99,117.94 C69.99,117.94 70.23,118.02 70.35,117.94 C70.47,117.86 70.52,117.74 70.44,117.21 C70.3,116.87 69.49,114.88 70.06,113.97 C70.1846948,113.791233 70.382747,113.677536 70.6,113.66 Z" id="Shape" fill="#603404" stroke-width="1"/>
            <path d="M26.18,107.3 C26.18,107.3 26.87,120.11 16.55,124.01 C16.55,124 15.82,111 26.18,107.3 Z" id="Shape" fill="#AA5957" stroke-width="1"/>
            <path d="M16.55,124.24 C16.5107047,124.250619 16.4692953,124.250619 16.43,124.24 C16.3701701,124.199105 16.3331137,124.132404 16.33,124.06 C16.33,123.93 15.7,110.88 26.11,107.13 C26.1728136,107.097946 26.2471864,107.097946 26.31,107.13 C26.371088,107.169735 26.408536,107.237141 26.41,107.31 C26.41,107.44 26.99,120.31 16.63,124.24 L16.55,124.24 Z M26,107.63 C17.1,111.07 16.79,121.71 16.81,123.69 C25.64,120.11 26,109.57 26,107.63 Z" id="Shape" fill="#603404" stroke-width="1"/>
            <path d="M26.08,107.32 C26.08,107.32 30.96,108.39 31.86,111.57 C31.86,111.57 31.92,112.71 30.65,111.95 C30.65,111.95 28.97,110.25 27.97,110.42 C27.97,110.42 26.97,110.7 28.5,111.42 C28.5,111.42 31.95,112.99 30.19,115.9 C30.19,115.9 28.91,119.53 23.65,115.68 C23.65,115.68 19.65,112.48 21.3,110.36 C22.6656065,109.026567 24.2933282,107.991363 26.08,107.32 Z" id="Shape" fill="#FFE9DC" stroke-width="1"/>
            <path d="M27.8,117.65 C26.2204891,117.49645 24.7263505,116.861092 23.52,115.83 C23.34,115.69 19.33,112.46 21.13,110.18 C22.5207577,108.82733 24.1798223,107.781472 26,107.11 C26.042344,107.096905 26.087656,107.096905 26.13,107.11 C26.33,107.11 31.13,108.25 32.13,111.52 C32.1761812,111.840794 32.0463135,112.161644 31.79,112.36 C31.5,112.53 31.1,112.47 30.59,112.16 L30.59,112.16 C30.15,111.71 28.84,110.57 28.11,110.69 C28.06488,110.708047 28.0240125,110.735292 27.99,110.77 L27.99,110.77 C27.99,110.77 28.05,110.94 28.7,111.24 C29.6988038,111.704451 30.4847943,112.529741 30.9,113.55 C31.1331449,114.40137 30.9795091,115.31221 30.48,116.04 C30.1746189,116.773913 29.5591933,117.33439 28.8,117.57 C28.4735197,117.652606 28.1354608,117.67965 27.8,117.65 Z M26.1,107.56 C24.3752375,108.215178 22.8004604,109.211744 21.47,110.49 C19.96,112.4 23.76,115.49 23.8,115.49 C25.74,116.91 27.39,117.49 28.58,117.1 C29.2227505,116.898782 29.7429606,116.422533 30,115.8 C30.4411445,115.172314 30.5837812,114.382326 30.39,113.64 C29.9891481,112.752013 29.2779874,112.040852 28.39,111.64 C27.69,111.32 27.39,111.03 27.39,110.72 C27.39,110.41 27.82,110.25 27.86,110.24 C28.95,110.05 30.48,111.55 30.74,111.81 C31.21,112.09 31.39,112.03 31.45,112 C31.51,111.97 31.59,111.68 31.58,111.62 C30.84,108.81 26.66,107.7 26.09,107.56 L26.1,107.56 Z" id="Shape" fill="#603404" stroke-width="1"/>
            <path d="M22.49,17.45 C22.49,17.45 24.83,22.73 22.49,27.32 L25.49,23.4 C25.49,23.4 26.86,20.09 24,16 L22.49,17.45 Z" id="Shape" fill="#AA5957" stroke-width="1"/>
            <path d="M57.49,17.51 C59.63,20.58 60.69,28.01 61.11,31.82 C61.1643612,32.3116417 60.9533579,32.7951331 60.5559246,33.0896045 C60.1584912,33.3840758 59.6345109,33.4451578 59.18,33.25 L57.18,32.39 C56.698576,32.1862174 56.3707972,31.7311832 56.33,31.21 L55.27,17.51" id="Shape" fill="#AA5957" stroke-width="1"/>
            <path d="M63.52,13.56 L20.38,16 C20.0739553,15.4229491 19.4916454,15.0448258 18.84,15 C17.4733056,14.992858 16.2884571,15.9440744 16,17.28 C15.94,18.61 17.5,19.73 18.6,19.78 C19.4347169,19.7712808 20.1762263,19.2450483 20.46,18.46 L63.52,13.56 Z" id="Shape" fill="#3C2B31" stroke-width="1"/>
            <path d="M30.66,13.15 C30.66,13.15 25.12,7.27 31.34,2.69 C31.34,2.69 36.65,-1.83 47.62,1.62 C47.62,1.62 52.43,3.99 49.62,10.5 C49.28,10.78 49.28,12.42 45.1,12.59 L30.66,13.15 Z" id="Shape" fill="#32190C" stroke-width="1"/>
            <path d="M30,21.92 L30,14.51 C29.9986308,13.4261187 30.4830073,12.3986536 31.32,11.71 C32.6439296,10.6451337 34.3013866,10.0820234 36,10.12 L47.37,10.12 C47.37,10.12 49.68,10.03 48.5,14.78 C48.4050396,15.1443397 48.3381767,15.515429 48.3,15.89 L47.75,21.89 C47.75,21.89 35.12,20.4 30,21.92 Z" id="Shape" fill="url(#linearGradient-1)" stroke-width="1"/>
            <path d="M20,54.58 C20,54.58 11.78,46.07 16.76,30.58 C16.76,30.58 20.68,20.58 37.11,20.18 C37.11,20.18 53.5,18.97 59.25,31.89 C60.4824828,34.7815204 61.0103112,37.9244989 60.79,41.06 C60.56,45.22 59.21,52.71 55.13,55.78 L20,54.58 Z" id="Shape" fill="#32190C" stroke-width="1"/>
            <path d="M55.18,56 L55.18,56 L20,54.81 C19.9427938,54.8070839 19.8889806,54.781971 19.85,54.74 C19.77,54.65 11.6,45.95 16.56,30.55 C16.56,30.44 20.73,20.37 37.12,19.99 C37.28,19.99 53.73,18.92 59.47,31.83 C60.7236682,34.7543549 61.258593,37.9364719 61.03,41.11 C61,42.95 60.2,52.31 55.31,56 C55.267656,56.0130953 55.222344,56.0130953 55.18,56 L55.18,56 Z M20.18,54.32 L55.18,55.55 C58.8,52.76 60.41,46 60.68,41.04 C60.8780136,37.9430136 60.3328659,34.8435574 59.09,32 C53.47,19.39 37.34,20.43 37.17,20.44 C21.07,20.81 17.06,30.6 17,30.7 C12.37,45.13 19.42,53.54 20.15,54.36 L20.18,54.32 Z" id="Shape" fill="#603404" stroke-width="1"/>
            <path d="M16.34,34.84 C16.34,34.84 16.78,28.51 22.15,25 C22.15,25 31.45,19 42.74,21.08 C42.74,21.08 34.14,19.61 24.08,25.41 C20.5657916,27.653592 17.8553857,30.9558049 16.34,34.84 L16.34,34.84 Z" id="Shape" fill="#604B43" stroke-width="1"/>
            <path d="M46.47,11.89 C46.47,11.89 48.88,12.15 48.17,15.43 C48.3065186,14.0255397 47.651482,12.6615222 46.47,11.89 L46.47,11.89 Z" id="Shape" fill="#C79896" stroke-width="1"/>
            <path d="M45.82,10.3 C45.82,10.3 48.6,9.81 48.7,11.89 C48.1647419,10.8120049 47.0174285,10.1785922 45.82,10.3 L45.82,10.3 Z" id="Shape" fill="#C79896" stroke-width="1"/>
            <path d="M49.66,14.47 C49.66,14.47 49.22,10.88 53.53,13.29 C53.53,13.29 71.19,27.59 69.76,39.46 L64.83,44.25 C64.83,44.25 68.32,36.75 64.52,31.11 C64.51,31.11 58.63,18.1 49.66,14.47 Z" id="Shape" fill="#C79896" stroke-width="1"/>
            <path d="M23.23,16 C23.23,16 13.89,24.05 10.23,31.67 C10.23,31.67 6.67,37.47 9.79,42.74 C9.79,42.74 12.55,44.24 13.85,43.35 C13.85,43.35 9.52,34.86 23.93,17.35 C23.95,17.41 24.75,16.11 23.23,16 Z" id="Shape" fill="#C79896" stroke-width="1"/>
            <circle id="Oval" fill="#FFFFFF" cx="48.34" cy="50.99" r="1" stroke-width="1"/>
            <circle id="Oval" fill="#FFFFFF" cx="46.42" cy="52.61" r="1" stroke-width="1"/>
            <circle id="Oval" fill="#FFFFFF" cx="30.95" cy="50.99" r="1" stroke-width="1"/>
            <circle id="Oval" fill="#FFFFFF" cx="29.02" cy="52.61" r="1" stroke-width="1"/>
            <path d="M17.63,49.16 C17.63,49.16 14.16,47.16 15.52,54.36 C16.3719322,56.3539819 17.4453402,58.2458635 18.72,60 C19.5258921,60.9804713 20.0357912,62.1702359 20.19,63.43 C20.5119887,64.6173451 21.474963,65.5223089 22.68,65.77 C22.68,65.77 23.74,66.15 23.85,65.13 C23.85,65.17 22,51.31 17.63,49.16 Z" id="Shape" fill="#FFE9DC" stroke-width="1"/>
            <path d="M23.1,66.11 C22.9334433,66.1096623 22.7680153,66.0826537 22.61,66.03 C21.3359156,65.7597817 20.3247956,64.7912759 20,63.53 C19.8501905,62.3052797 19.3580191,61.1476372 18.58,60.19 C17.2824016,58.4043533 16.1952096,56.4749231 15.34,54.44 C14.77,51.44 14.95,49.6 15.87,48.94 C16.4553154,48.6044332 17.1746846,48.6044332 17.76,48.94 C22.19,51.13 24.02,64.56 24.1,65.13 C24.0994615,65.4572236 23.9388622,65.7634827 23.67,65.95 C23.5005045,66.0596429 23.3017942,66.1154213 23.1,66.11 Z M15.74,54.32 C16.5854994,56.2902638 17.6452083,58.1615218 18.9,59.9 C19.7388832,60.9155539 20.2666887,62.15173 20.42,63.46 C20.7252439,64.5459468 21.613854,65.3688771 22.72,65.59 C22.9414907,65.6784793 23.1885093,65.6784793 23.41,65.59 C23.5469223,65.4892801 23.6284298,65.3299698 23.63,65.16 C23.63,65.08 21.75,51.44 17.54,49.37 L17.54,49.37 C17.0971021,49.1299491 16.5628979,49.1299491 16.12,49.37 C15.59,49.75 15.12,50.92 15.76,54.37 L15.74,54.32 Z" id="Shape" fill="#603404" stroke-width="1"/>
            <path d="M60.07,49.16 C60.07,49.16 63.54,47.16 62.18,54.36 C61.3343802,56.3530685 60.2677014,58.2449137 59,60 C58.1941079,60.9804713 57.6842088,62.1702359 57.53,63.43 C57.2180474,64.6478526 56.2336211,65.5778048 55,65.82 C55,65.82 53.94,66.2 53.83,65.18 C53.85,65.17 55.69,51.31 60.07,49.16 Z" id="Shape" fill="#FFE9DC" stroke-width="1"/>
            <path d="M54.6,66.11 C54.4069935,66.1174287 54.2159656,66.0688035 54.05,65.97 C53.7951141,65.7938129 53.6362993,65.5094237 53.62,65.2 C53.7,64.57 55.54,51.14 60,49 C60.5853154,48.6644332 61.3046846,48.6644332 61.89,49 C62.81,49.66 63,51.5 62.44,54.45 C61.5862848,56.5001941 60.4955302,58.4434154 59.19,60.24 C58.4160448,61.1847529 57.9239124,62.3284408 57.77,63.54 C57.4103407,64.8139063 56.3535177,65.7697095 55.05,66 C54.907209,66.06158 54.755097,66.0987629 54.6,66.11 Z M61,49.11 C60.7135196,49.1201985 60.4331123,49.1954297 60.18,49.33 L60.18,49.33 C56,51.43 54.09,65.07 54.07,65.2 C54.0849473,65.3525157 54.165178,65.491096 54.29,65.58 C54.4985293,65.6639785 54.7314707,65.6639785 54.94,65.58 C56.0667943,65.3490663 56.9699711,64.5076452 57.28,63.4 C57.4411461,62.1118748 57.9687093,60.897091 58.8,59.9 C60.0742225,58.1491459 61.1476263,56.260626 62,54.27 C62.64,50.87 62.15,49.69 61.62,49.27 C61.4328825,49.1606221 61.2152938,49.1149987 61,49.14 L61,49.11 Z" id="Shape" fill="#603404" stroke-width="1"/>
            <path d="M23.22,37.33 C23.22,37.33 26.56,31 36.12,34 C36.12,34 38.87,35.52 43.25,33.7 C46.7520312,33.0219439 50.3285521,34.4431815 52.41,37.34 C52.41,37.34 56.47,44 56,50.36 C55.9402537,51.3123972 55.9402537,52.2676028 56,53.22 L56,59.22 C56,59.22 55.62,72.42 41.68,73.78 C41.68,73.78 27.44,75.94 21.76,63.2 C20.6801593,60.7108427 20.1024438,58.0329613 20.06,55.32 C19.95,50.67 20.18,42 23.22,37.33 Z" id="Shape" fill="#FFE9DC" stroke-width="1"/>
            <path d="M39.41,74.09 C35.1,74.09 25.85,72.9 21.55,63.25 C20.4518451,60.723773 19.8671669,58.0043394 19.83,55.25 C19.71,50.5 19.97,41.83 23.03,37.18 C23.2,36.87 26.76,30.75 36.19,33.74 C36.26,33.74 38.95,35.19 43.19,33.44 C46.7910591,32.7557918 50.4620213,34.2226162 52.6,37.2 C52.6,37.28 56.7,44 56.23,50.38 C56.1715018,51.3224264 56.1715018,52.2675736 56.23,53.21 L56.23,59.21 C56.23,59.35 55.68,72.63 41.71,74 C40.94609,74.0797582 40.1778066,74.1098215 39.41,74.09 Z M31.31,33.39 C28.1583961,33.2247457 25.1568033,34.7483969 23.43,37.39 L23.43,37.39 C20.43,41.94 20.19,50.51 20.3,55.21 C20.3373925,57.9170886 20.9153759,60.5894118 22,63.07 C27.51,75.51 41.5,73.54 41.64,73.52 C47.35,72.96 51.45,70.38 53.85,65.86 C54.941056,63.7855178 55.5913386,61.5078266 55.76,59.17 L55.76,53.17 C55.7004099,52.2142613 55.7004099,51.2557387 55.76,50.3 C56.22,44.06 52.24,37.47 52.2,37.41 C50.1562795,34.6109531 46.6869175,33.2340987 43.28,33.87 C38.89,35.7 36.11,34.21 35.99,34.15 C34.4779456,33.6592372 32.8996507,33.4029329 31.31,33.39 L31.31,33.39 Z" id="Shape" fill="#603404" stroke-width="1"/>
            <path d="M28.28,41.93 L33.28,43.67 C33.48,43.74 33.69,43.79 33.89,43.84 C34.09,43.89 34.54,44.06 34.47,44.41 C34.47,44.41 34.47,45.41 33.22,45.08 L29.02,44.18 C28.4358306,43.9887566 27.8116816,43.9542732 27.21,44.08 C27.0006543,44.1312693 26.7854787,44.1548041 26.57,44.15 L25.03,44.15 C24.982427,44.1501669 24.9385624,44.1243347 24.9156359,44.0826502 C24.8927095,44.0409658 24.8943833,43.9900874 24.92,43.95 C25.5057695,43.0694696 26.3317449,42.3753726 27.3,41.95 C27.6147581,41.8314106 27.9606656,41.8243513 28.28,41.93 L28.28,41.93 Z" id="Shape" fill="#32190C" stroke-width="1"/>
            <path d="M48.4,41.93 L43.4,43.67 C43.2,43.74 42.99,43.79 42.79,43.84 C42.59,43.89 42.14,44.06 42.21,44.41 C42.21,44.41 42.21,45.41 43.46,45.08 L47.66,44.18 C48.2441694,43.9887566 48.8683184,43.9542732 49.47,44.08 C49.6793457,44.1312693 49.8945213,44.1548041 50.11,44.15 L51.65,44.15 C51.697573,44.1501669 51.7414376,44.1243347 51.7643641,44.0826502 C51.7872905,44.0409658 51.7856167,43.9900874 51.76,43.95 C51.1742305,43.0694696 50.3482551,42.3753726 49.38,41.95 C49.0652419,41.8314106 48.7193344,41.8243513 48.4,41.93 L48.4,41.93 Z" id="Shape" fill="#32190C" stroke-width="1"/>
            <path d="M40.1,59.74 C39.9018449,59.7396418 39.7272446,59.6097067 39.67,59.42 C39.5210459,58.9060292 39.0957992,58.5194413 38.57,58.42 L38.57,58.42 C37.9045584,58.4210733 37.3016887,58.8125472 37.03,59.42 C36.938873,59.6519596 36.6769596,59.766127 36.445,59.675 C36.2130404,59.583873 36.098873,59.3219596 36.19,59.09 C36.6197803,58.1057973 37.6066703,57.4835414 38.68,57.52 C39.5647261,57.6467043 40.2990098,58.2683201 40.57,59.12 C40.6413354,59.3574363 40.5071883,59.6078442 40.27,59.68 L40.1,59.74 Z" id="Shape" fill="#32190C" stroke-width="1"/>
            <path d="M35,65.41 C37.1585559,66.2459611 39.5514441,66.2459611 41.71,65.41 C41.71,65.41 42,69.25 38,69.06 C38,69.06 35.19,68.91 35,65.41 Z" id="Shape" fill="#830004" stroke-width="1"/>
            <path d="M36.13,68.19 C37.5956397,67.5131992 39.2843603,67.5131992 40.75,68.19 C40.0665251,68.8504337 39.1248422,69.1728776 38.18,69.07 C37.4089516,69.0510934 36.6748062,68.735948 36.13,68.19 Z" id="Shape" fill="#D27366" stroke-width="1"/>
            <path d="M35,64.87 L35,65.61 C37.120392,66.6363528 39.598329,66.6141623 41.7,65.55 L41.7,64.85 C39.549902,65.7055001 37.1551671,65.7126486 35,64.87 L35,64.87 Z" id="Shape" fill="#FFFFFF" stroke-width="1"/>
            <path d="M41.7,64.51 C41.7,64.51 41.17,64.63 40.36,63.39 C40.1045029,62.9671451 40.0818909,62.4432984 40.3,62 C40.4329229,61.8042087 40.6448214,61.6763389 40.88,61.65 C41.88,61.5 47.7,62.17 49.59,66.18 C48.778413,65.4863266 47.7992288,65.0174215 46.75,64.82 L43.75,64.48 C43.3339554,64.4478018 42.9160446,64.4478018 42.5,64.48 C42.2364088,64.5306094 41.9666412,64.5407257 41.7,64.51 Z" id="Shape" fill="#32190C" stroke-width="1"/>
            <path d="M35.42,64.51 C35.42,64.51 35.95,64.63 36.76,63.39 C37.0187022,62.9688764 37.0450853,62.4449834 36.83,62 C36.6970771,61.8042087 36.4851786,61.6763389 36.25,61.65 C35.25,61.5 29.43,62.17 27.54,66.18 C28.351587,65.4863266 29.3307712,65.0174215 30.38,64.82 L33.38,64.48 C33.7960446,64.4478018 34.2139554,64.4478018 34.63,64.48 C34.8903349,64.5295955 35.1566536,64.5397088 35.42,64.51 Z" id="Shape" fill="#32190C" stroke-width="1"/>
            <path d="M31.72,71.67 C32.94,72.52 35.91,74.17 38.2,72.05 C38.4552728,71.8386764 38.8247272,71.8386764 39.08,72.05 C40.16,72.87 42.97,74.37 46.08,70.84 C46.204575,70.6963228 46.3987399,70.6338873 46.5837093,70.6780277 C46.7686787,70.7221682 46.9137275,70.8655524 46.96,71.05 C47.39,72.98 46.72,81.05 39.54,87.36 C39.2031984,87.648079 38.7068016,87.648079 38.37,87.36 C36.5,85.77 30.24,77.78 31,72 C31.0107627,71.8349551 31.1111964,71.6891163 31.2615516,71.6202035 C31.4119068,71.5512907 31.5879473,71.5704122 31.72,71.67 Z" id="Shape" fill="#32190C" stroke-width="1"/>
            <path d="M42.68,53.51 L51.58,53.51 C51.58,53.51 52.13,47.17 47.13,47.09 C47.13,47.1 42.6,46.7 42.68,53.51 Z" id="Shape" fill="#FFFFFF" stroke-width="1"/>
            <path d="M51.58,53.63 L42.68,53.63 C42.6192487,53.63 42.57,53.5807513 42.57,53.52 C42.57,51 43.13,49.16 44.32,48.05 C45.0834735,47.3397378 46.0979245,46.9620167 47.14,47 C48.3216558,46.9696744 49.458905,47.4508183 50.26,48.32 C51.96,50.21 51.71,53.41 51.69,53.54 C51.6802375,53.5928405 51.6337273,53.6308943 51.58,53.63 Z M42.8,53.4 L51.48,53.4 C51.48,52.83 51.57,50.08 50.1,48.45 C49.3284839,47.6192346 48.2329199,47.1664015 47.1,47.21 C46.1170164,47.1846657 45.1628487,47.5433754 44.44,48.21 C43.35,49.26 42.79,51 42.8,53.4 Z" id="Shape" fill="#603404" stroke-width="1"/>
            <path d="M50.07,51.36 C50.0766953,50.0079643 49.157381,48.8269069 47.8450529,48.5015759 C46.5327247,48.176245 45.1681902,48.7911278 44.5425729,49.9897305 C43.9169556,51.1883331 44.1927263,52.6593824 45.21,53.55 L49.07,53.55 C49.7038358,52.9985774 50.0684253,52.2001263 50.07,51.36 Z" id="Shape" fill="#32190C" stroke-width="1"/>
            <circle id="Oval" fill="#FFFFFF" cx="48.02" cy="50.23" r="1" stroke-width="1"/>
            <circle id="Oval" fill="#FFFFFF" cx="46.1" cy="51.85" r="1" stroke-width="1"/>
            <path d="M25.29,53.51 L34.19,53.51 C34.19,53.51 34.74,47.17 29.74,47.09 C29.73,47.1 25.21,46.7 25.29,53.51 Z" id="Shape" fill="#FFFFFF" stroke-width="1"/>
            <path d="M34.18,53.63 L25.28,53.63 C25.2192487,53.63 25.17,53.5807513 25.17,53.52 C25.17,51 25.73,49.16 26.92,48.05 C27.6834735,47.3397378 28.6979245,46.9620167 29.74,47 C30.9216558,46.9696744 32.058905,47.4508183 32.86,48.32 C34.56,50.21 34.31,53.41 34.29,53.54 C34.2802375,53.5928405 34.2337273,53.6308943 34.18,53.63 L34.18,53.63 Z M25.4,53.4 L34.08,53.4 C34.08,52.83 34.17,50.08 32.7,48.45 C31.9284839,47.6192346 30.8329199,47.1664015 29.7,47.21 C28.7170164,47.1846657 27.7628487,47.5433754 27.04,48.21 C26,49.26 25.39,51 25.4,53.4 Z" id="Shape" fill="#603404" stroke-width="1"/>
            <path d="M32.67,51.36 C32.6766953,50.0079643 31.757381,48.8269069 30.4450529,48.5015759 C29.1327247,48.176245 27.7681902,48.7911278 27.1425729,49.9897305 C26.5169556,51.1883331 26.7927263,52.6593824 27.81,53.55 L31.67,53.55 C32.3038358,52.9985774 32.6684253,52.2001263 32.67,51.36 L32.67,51.36 Z" id="Shape" fill="#32190C" stroke-width="1"/>
            <circle id="Oval" fill="#FFFFFF" cx="30.62" cy="50.23" r="1" stroke-width="1"/>
            <circle id="Oval" fill="#FFFFFF" cx="28.7" cy="51.85" r="1" stroke-width="1"/>
            <path d="M19.8,101.09 C19.8,101.09 23.36,105.89 25.63,107.31 L18.63,107.48 L19.8,101.09 Z" id="Shape" fill="#C79896" stroke-width="1"/>
            <path d="M18.59,96 C18.59,96 14.86,98.14 18.08,101.76 C18.08,101.79 14,98 18.59,96 Z" id="Shape" fill="#B28A8A" stroke-width="1"/>
            <path d="M19.11,107 L18.2,114.5 L18.11,114.68 C18.4355258,113.989603 18.8063342,113.32148 19.22,112.68 L20.67,107.28 L19.11,106.94" id="Shape" fill="#C79896" stroke-width="1"/>
        </g>
    </g>
</svg>