<?xml version="1.0" encoding="UTF-8"?><svg xmlns="http://www.w3.org/2000/svg" xmlns:xlink="http://www.w3.org/1999/xlink" width="116.25994873046875" height="147.04421997070312" viewBox="0.32090818881988525 -0.09782910346984863 116.25994873046875 147.04421997070312" version="1.1">
    <!-- Generator: Sketch 46.2 (44496) - http://www.bohemiancoding.com/sketch -->
    <title>三国主题素材-19</title>
    <desc>Created with Sketch.</desc>
    <defs>
        <linearGradient x1="11.6986051%" y1="118.556402%" x2="90.4513843%" y2="-6.84759547%" id="linearGradient-1">
            <stop stop-color="#C79896" offset="35%"/>
            <stop stop-color="#C49290" offset="48%"/>
            <stop stop-color="#BC817F" offset="65%"/>
            <stop stop-color="#AF6462" offset="85%"/>
            <stop stop-color="#AA5957" offset="92%"/>
        </linearGradient>
    </defs>
    <g id="Page-1" stroke="none" fill-rule="evenodd">
        <g id="三国主题素材-19" fill-rule="nonzero">
            <path d="M34,83.64 C34,83.64 39.18,95.3 27.49,108.73 C27.48,108.73 21.28,90.8 34,83.64 Z" id="Shape" fill="#AA5957" stroke-width="1"/>
            <path d="M27.48,109 L27.48,109 C27.4009146,108.983341 27.3363762,108.926396 27.31,108.85 C27.25,108.67 21.2,90.66 33.92,83.49 C33.9772547,83.4643315 34.0427453,83.4643315 34.1,83.49 C34.1613601,83.5087245 34.2121113,83.5522256 34.24,83.61 C34.29,83.73 39.34,95.56 27.69,108.94 C27.6355703,108.995787 27.5556863,109.018611 27.48,109 Z M33.88,84 C22.78,90.48 26.79,105.7 27.58,108.31 C37.8,96.28 34.5,85.66 33.87,84 L33.88,84 Z" id="Shape" fill="#603404" stroke-width="1"/>
            <path d="M57.46,138.92 C57.46,138.92 55.83,142.33 58.41,144.83 C60.41,146.83 63.15,146.61 65.41,144.89 C66.67,143.89 67.75,140.89 66.7,139.49 L57.46,138.92 Z" id="Shape" fill="#FFF6E6" stroke-width="1"/>
            <path d="M56.8,139.28 C56.6782682,141.211541 57.5115848,143.079964 59.03,144.28 C60.8189911,145.77436 63.4210089,145.77436 65.21,144.28 C66.7338338,143.044092 68.0798588,141.603845 69.21,140 L56.8,139.28 Z" id="Shape" fill="#443A37" stroke-width="1"/>
            <path d="M80.34,139.85 C80.34,139.85 79.28,143.48 82.22,145.53 C84.52,147.14 87.22,146.53 89.1,144.47 C90.19,143.31 90.76,140.15 89.5,138.93 L80.34,139.85 Z" id="Shape" fill="#FFF6E6" stroke-width="1"/>
            <path d="M79.74,140.31 C79.9282283,142.236327 81.049298,143.947826 82.74,144.89 C84.745263,146.070341 87.3074884,145.649615 88.83,143.89 C90.1265279,142.416377 91.2134511,140.770849 92.06,139 L79.74,140.31 Z" id="Shape" fill="#443A37" stroke-width="1"/>
            <path d="M90.09,70.43 C101.140714,79.6125522 109.939385,91.2061364 115.81,104.32 C115.81,104.32 108.1,118 98.13,118.64 C95.0122431,112.310848 93.0610384,105.471469 92.37,98.45 C92.3531866,98.2686775 92.3264802,98.0884089 92.29,97.91 C92.05,96.73 91.06,91.73 90.5,87.53 C90.5,87.53 94.5,118.97 98.25,136.96 C98.25,136.96 99.94,141.75 93.31,141.75 C93.31,141.75 68.31,146.54 53.04,139.11 C53.04,139.11 47.86,137.95 51.11,128.88 L55.81,102.63 C55.81,102.63 38.69,113.85 27.48,108.74 C27.48,108.74 38.09,96.19 33.99,83.65 L46.99,81.34 C46.99,81.34 52.78,73.42 58.81,70.45 L90.09,70.43 Z" id="Shape" fill="#C79896" stroke-width="1"/>
            <path d="M75.76,143.47 C68.23,143.47 59.64,142.56 52.94,139.31 L52.94,139.31 C51.8982265,138.998598 51.0281138,138.276512 50.53,137.31 C49.45,135.31 49.53,132.5 50.9,128.82 L55.5,103.11 C52.4576211,104.96645 49.2547749,106.54612 45.93,107.83 C40.71,109.83 33.25,111.64 27.38,108.96 C27.3171485,108.92959 27.2715135,108.872276 27.2559555,108.80421 C27.2403975,108.736144 27.2566011,108.664696 27.3,108.61 C29.2000968,106.214737 30.7987371,103.595116 32.06,100.81 C33.99,96.56 35.86,90.14 33.76,83.73 C33.7419889,83.667496 33.7512865,83.6002882 33.78559,83.5450214 C33.8198935,83.4897546 33.8759949,83.4515974 33.94,83.44 L46.87,81.15 C47.48,80.34 53.02,73.07 58.71,70.26 L58.81,70.26 L90.09,70.26 C90.1355329,70.245452 90.1844671,70.245452 90.23,70.26 C101.29158,79.4930372 110.110299,91.1191115 116.02,104.26 C116.050502,104.323178 116.050502,104.396822 116.02,104.46 C115.94,104.6 108.13,118.22 98.16,118.88 C98.0716798,118.888374 97.9876252,118.840343 97.95,118.76 C95.7564897,114.314542 94.1304128,109.611014 93.11,104.76 C94.6,115.02 96.58,127.76 98.49,136.96 C98.8530668,138.068162 98.7065938,139.280226 98.09,140.27 C97.27,141.43 95.67,142.02 93.32,142.02 C87.5175946,142.994182 81.6436089,143.479221 75.76,143.47 L75.76,143.47 Z M55.81,102.4 C55.8768546,102.401884 55.9395781,102.432775 55.9818252,102.484624 C56.0240722,102.536473 56.0416581,102.604143 56.03,102.67 L51.33,128.92 C50.07,132.45 49.93,135.26 50.92,137.07 C51.370381,137.944948 52.1515883,138.603755 53.09,138.9 C68.21,146.23 93.02,141.59 93.27,141.54 C95.5,141.54 96.98,141.01 97.71,139.98 C98.2413174,139.078012 98.3474407,137.987504 98,137 C94.3,119.18 90.28,87.83 90.24,87.52 C90.2282083,87.3963285 90.3167564,87.2856434 90.44,87.27 C90.5636715,87.2582083 90.6743566,87.3467564 90.69,87.47 L90.69,87.47 C91.23,91.58 92.19,96.47 92.48,97.83 C92.5174817,98.0183245 92.5441917,98.2086336 92.56,98.4 C93.2549137,105.349036 95.1745335,112.120181 98.23,118.4 C107.45,117.67 114.81,105.53 115.53,104.32 C109.662578,91.3210819 100.935535,79.8149214 90,70.66 L58.88,70.66 C52.99,73.59 47.25,81.38 47.19,81.46 C47.1569194,81.5071756 47.1066517,81.5394906 47.05,81.55 L34.28,83.82 C36.28,90.29 34.42,96.71 32.47,100.99 C31.2256997,103.714674 29.6685607,106.285296 27.83,108.65 C33.51,111.09 40.7,109.32 45.76,107.39 C49.219304,106.045188 52.5412617,104.370814 55.68,102.39 C55.7233907,102.380724 55.7685384,102.384197 55.81,102.4 Z" id="Shape" fill="#603404" stroke-width="1"/>
            <path d="M98.13,118.64 C98.13,118.64 107.9,120.35 115.81,104.33 C115.81,104.33 100.78,108.52 98.13,118.64 Z" id="Shape" fill="#AA5957" stroke-width="1"/>
            <path d="M99,118.92 C98.702211,118.923655 98.4046038,118.903591 98.11,118.86 C98.0480111,118.849624 97.9934201,118.81323 97.96,118.76 C97.9355468,118.702491 97.9355468,118.637509 97.96,118.58 C100.61,108.46 115.65,104.16 115.8,104.11 C115.885307,104.090661 115.974199,104.121384 116.029358,104.189272 C116.084517,104.257159 116.096393,104.350459 116.06,104.43 C111.94,112.76 107.31,116.24 104.14,117.69 C102.535177,118.465202 100.781896,118.884761 99,118.92 Z M98.43,118.44 C99.98,118.55 108.43,118.44 115.43,104.7 C112.893987,105.519374 110.445367,106.587924 108.12,107.89 C104.44,109.95 99.85,113.43 98.42,118.44 L98.43,118.44 Z" id="Shape" fill="#603404" stroke-width="1"/>
            <path d="M62.45,70.43 L66,70.43 C66,70.43 67.07,83.71 76.5,84.43 L76.5,87.22 C76.5,87.22 66.22,86.09 62.45,70.43 Z" id="Shape" fill="#AA5957" stroke-width="1"/>
            <path d="M80.76,70.43 C80.76,70.43 79.56,89.05 56.65,96.18 L55.82,102.62 C55.82,102.62 83.92,90.91 85.48,70.43 L80.76,70.43 Z" id="Shape" fill="#AA5957" stroke-width="1"/>
            <path d="M56,102.69 C56,102.69 74.39,108.12 92.29,102.63 L92.64,105.07 C92.64,105.07 79.32,111.55 55.56,105.13 L56,102.69 Z" id="Shape" fill="#AA5957" stroke-width="1"/>
            <path d="M61.47,106 C61.47,106 62.86,111.79 58.74,115.54 C58.2034457,116.018186 57.8945915,116.701299 57.89,117.42 L57.89,117.42 C57.8885407,117.596553 57.9767665,117.761784 58.124291,117.858787 C58.2718154,117.955789 58.4584821,117.971309 58.62,117.9 C60.11,117.23 63.34,114.9 63.06,106.83 L61.47,106 Z" id="Shape" fill="#AA5957" stroke-width="1"/>
            <path d="M64,106.51 C64,106.51 61.62,120.29 65.08,122.39 C65.1825333,122.454613 65.3071772,122.474073 65.4245262,122.443789 C65.5418752,122.413505 65.6415371,122.33616 65.7,122.23 L65.7,122.23 C65.9935806,121.688344 65.9588175,121.027845 65.61,120.52 C64.97,119.52 64.37,116.42 65.61,106.89 L64,106.51 Z" id="Shape" fill="#AA5957" stroke-width="1"/>
            <path d="M79.83,130.83 C79.83,130.83 88.3,134.26 94.49,128.57 C94.49,128.57 90.21,135.8 79.83,130.83 Z" id="Shape" fill="#AF8B8B" stroke-width="1"/>
            <path d="M57.88,133 C57.88,133 67.31,143.55 89.5,134.55 C89.51,134.52 69.31,141.68 57.88,133 Z" id="Shape" fill="#AF8B8B" stroke-width="1"/>
            <path d="M31.88,109.93 C31.88,109.93 38.54,107.93 37.43,104.13 C37.42,104.13 39.82,107.54 31.88,109.93 Z" id="Shape" fill="#B28A8A" stroke-width="1"/>
            <path d="M95.64,112.8 C95.64,112.8 96.28,108.09 100.95,107.29 C100.95,107.3 96.33,107.2 95.64,112.8 Z" id="Shape" fill="#B28A8A" stroke-width="1"/>
            <path d="M103.56,110.7 C103.56,110.7 102.71,115.62 105.31,117.7 C105.31,117.7 106.31,118.19 106.12,116.7 C106.12,116.7 105.18,114.5 105.71,113.64 C105.71,113.64 106.34,112.84 106.42,114.5 C106.42,114.5 106.57,118.28 109.93,117.75 C109.93,117.75 113.77,117.94 112.19,111.6 C112.19,111.6 110.87,106.77 108.27,107.52 C106.604422,108.431054 105.027575,109.495677 103.56,110.7 Z" id="Shape" fill="#FFE9DC" stroke-width="1"/>
            <path d="M109.29,118 C108.640117,118.013799 108.006217,117.797778 107.5,117.39 C106.712103,116.619827 106.244209,115.580459 106.19,114.48 C106.19,113.74 106.01,113.64 106.01,113.64 C105.961312,113.669825 105.917472,113.70692 105.88,113.75 C105.51,114.35 106.07,116 106.32,116.58 L106.32,116.63 C106.41,117.22 106.32,117.63 106.05,117.82 C105.781878,117.965823 105.458122,117.965823 105.19,117.82 C102.47,115.7 103.28,110.82 103.31,110.62 C103.317661,110.569897 103.342388,110.523976 103.38,110.49 C104.860783,109.275577 106.450914,108.200983 108.13,107.28 C108.696684,107.097479 109.314104,107.162853 109.83,107.46 C111.51,108.4 112.34,111.37 112.37,111.46 C113,113.99 112.87,115.82 111.97,116.91 C111.45547,117.535972 110.69026,117.902102 109.88,117.91 C109.685849,117.954651 109.488633,117.984734 109.29,118 Z M106,113.21 L106.13,113.21 C106.43,113.31 106.58,113.69 106.62,114.46 C106.674116,115.429895 107.079329,116.346955 107.76,117.04 C108.361076,117.497005 109.133246,117.665346 109.87,117.5 L109.87,117.5 C110.546055,117.499636 111.187087,117.199267 111.62,116.68 C112.4,115.68 112.51,113.98 111.92,111.68 C111.92,111.68 111.11,108.77 109.59,107.92 C109.195416,107.684372 108.719696,107.626269 108.28,107.76 L108.28,107.76 C106.673038,108.651639 105.147214,109.682239 103.72,110.84 C103.63,111.47 103.11,115.71 105.4,117.5 C105.4,117.5 105.64,117.58 105.76,117.5 C105.88,117.42 105.93,117.3 105.85,116.77 C105.71,116.43 104.9,114.44 105.47,113.53 C105.590447,113.34999 105.78461,113.23276 106,113.21 L106,113.21 Z" id="Shape" fill="#603404" stroke-width="1"/>
            <path d="M29,83.29 C29,83.29 34.06,81.5 35.14,86.52 C36.22,91.54 33.22,93.52 31.85,94.23" id="Shape" fill="#FFE9DC" stroke-width="1"/>
            <path d="M31.84,94.45 C31.7425851,94.442133 31.6607797,94.3735623 31.6360183,94.279019 C31.611257,94.1844757 31.6489477,94.0846084 31.73,94.03 C34.57,92.48 35.63,89.97 34.91,86.57 C34.7354174,85.3729198 34.0348448,84.316559 33,83.69 C31.7383792,83.1243235 30.3095588,83.0564546 29,83.5 C28.9200767,83.5413041 28.8234084,83.5322174 28.7525821,83.4767431 C28.6817559,83.4212688 28.6497757,83.3295923 28.6707303,83.2421013 C28.691685,83.1546104 28.7617273,83.0873689 28.85,83.07 C30.2711062,82.5823284 31.8254931,82.6611223 33.19,83.29 C34.3259545,83.9824478 35.095399,85.1439426 35.29,86.46 C36.06,90.08 34.92,92.76 31.89,94.46 L31.84,94.45 Z" id="Shape" fill="#603404" stroke-width="1"/>
            <polygon id="Shape" fill="#A8A6A6" points="22.28 79.26 1.24 16.62 1.86 7.88 7.02 13.85 28.37 77.06" stroke-width="1"/>
            <path d="M1.86,7.88 L7.02,13.88 L28.37,77.08 L22.28,79.28 L1.28,16.65 L1.9,7.91 L1.86,7.88 Z M1.9,7.46 L1.76,7.46 C1.58438091,7.51709541 1.46147053,7.67568945 1.45,7.86 L0.83,16.6 C0.817877538,16.6593877 0.817877538,16.7206123 0.83,16.78 L21.83,79.41 C21.8908033,79.5957491 22.064555,79.721012 22.26,79.72 L22.41,79.72 L28.5,77.52 C28.7303696,77.4354087 28.8504825,77.181837 28.77,76.95 L7.45,13.71 C7.43010063,13.6545943 7.399523,13.6036316 7.36,13.56 L2.2,7.56 C2.11542288,7.45963581 1.99124338,7.4011984 1.86,7.4 L1.9,7.46 Z" id="Shape" fill="#898989" stroke-width="1"/>
            <polygon id="Shape" fill="#D8D8D8" points="3.17 9.39 26.4 77.77 28.37 77.06 7.02 13.85" stroke-width="1"/>
            <polygon id="Shape" fill="#D8D8D8" points="8.07 23.81 9.03 26.65 5.58 29.54 4.76 27.09" stroke-width="1"/>
            <polygon id="Shape" fill="#D8D8D8" points="9.39 27.7 10.35 30.54 6.89 33.45 6.06 31" stroke-width="1"/>
            <polygon id="Shape" fill="#FFFFFF" points="8.07 23.81 10.24 23.4 11.11 25.95 9.03 26.65" stroke-width="1"/>
            <polygon id="Shape" fill="#FFFFFF" points="9.39 27.7 11.56 27.28 12.43 29.84 10.35 30.54" stroke-width="1"/>
            <rect id="Rectangle-path" fill="#562707" transform="matrix(0.9493158157581613,-0.31432384884290393,0.31432384884290393,0.9493158157581613,-26.214164543000894,13.395041277092503)" x="25.1433693" y="81.5626116" width="6.57" height="12.84" stroke-width="1"/>
            <rect id="Rectangle-path" fill="#FBE462" transform="matrix(0.9493158157581613,-0.31432384884290393,0.31432384884290393,0.9493158157581613,-28.401395421303256,14.531653227603456)" x="27.4891688" y="94.0281009" width="6.74" height="2.61" stroke-width="1"/>
            <path d="M31.26,96.57 L28.26,97.57 C28.1406478,97.6189937 28.0593085,97.7313194 28.05,97.86 L27.86,99 C27.8339623,99.2019196 27.9087161,99.403755 28.06,99.54 L33.12,103.89 L33.6,103.73 L33.6,103.73 L34.08,103.57 L35.55,97.07 C35.5896268,96.8715411 35.5299007,96.6662327 35.39,96.52 L34.56,95.69 C34.4748227,95.5881339 34.3381372,95.5451756 34.21,95.58 L31.21,96.58" id="Shape" fill="#FBE462" stroke-width="1"/>
            <path d="M33.11,104.13 C33.0555315,104.132498 33.0020763,104.114679 32.96,104.08 L27.9,99.73 C27.6942373,99.5424394 27.5933742,99.2659997 27.63,98.99 L27.8,97.83 C27.8210081,97.6122565 27.9647775,97.4257449 28.17,97.35 L31.17,96.35 L31.17,96.35 L34.17,95.35 C34.3779992,95.2861259 34.6041681,95.3485173 34.75,95.51 L35.58,96.34 C35.7739547,96.5416807 35.8562282,96.825898 35.8,97.1 L34.34,103.6 C34.3233414,103.679085 34.2663957,103.743624 34.19,103.77 L33.19,104.1 L33.11,104.13 Z M31.33,96.78 L28.33,97.78 C28.33,97.78 28.28,97.78 28.27,97.89 L28.1,99.05 C28.0837569,99.1759569 28.1282932,99.3021431 28.22,99.39 L33.22,103.65 L33.98,103.4 L35.36,97 C35.3814316,96.877278 35.3444608,96.7515772 35.26,96.66 L34.43,95.83 C34.4006321,95.7946464 34.3557823,95.775959 34.31,95.78 L31.33,96.78 Z" id="Shape" fill="#6D4703" stroke-width="1"/>
            <path d="M24.11,82.66 L28.14,94.85" id="Shape" fill="#FBE462" stroke-width="1"/>
            <path d="M28.14,95.08 C28.0433122,95.0761517 27.9593735,95.0121983 27.93,94.92 L23.93,82.73 C23.8858083,82.6489103 23.8944031,82.5492522 23.9518257,82.4769259 C24.0092483,82.4045997 24.1043621,82.3736324 24.1933599,82.3982869 C24.2823576,82.4229414 24.3479789,82.4984362 24.36,82.59 L28.36,94.78 C28.4000769,94.8986611 28.3378422,95.0275757 28.22,95.07 L28.14,95.08 Z" id="Shape" fill="#6D4703" stroke-width="1"/>
            <path d="M24.79,82.44 L28.83,94.63" id="Shape" fill="#FBE462" stroke-width="1"/>
            <path d="M28.83,94.85 C28.7333122,94.8461517 28.6493735,94.7821983 28.62,94.69 L24.62,82.5 C24.6055801,82.3901651 24.6715032,82.2856556 24.7768383,82.2513605 C24.8821734,82.2170653 24.9969901,82.2627293 25.05,82.36 L29.05,94.55 C29.0900769,94.6686611 29.0278422,94.7975757 28.91,94.84 L28.83,94.85 Z" id="Shape" fill="#6D4703" stroke-width="1"/>
            <path d="M25.47,82.21 L29.51,94.4" id="Shape" fill="#FBE462" stroke-width="1"/>
            <path d="M29.51,94.63 C29.4133122,94.6261517 29.3293735,94.5621983 29.3,94.47 L25.3,82.28 C25.2599231,82.1613389 25.3221578,82.0324243 25.44,81.99 C25.5586611,81.9499231 25.6875757,82.0121578 25.73,82.13 L29.73,94.32 C29.7700769,94.4386611 29.7078422,94.5675757 29.59,94.61 L29.51,94.63 Z" id="Shape" fill="#6D4703" stroke-width="1"/>
            <path d="M26.16,81.98 L30.19,94.18" id="Shape" fill="#FBE462" stroke-width="1"/>
            <path d="M30.19,94.4 C30.0933122,94.3961517 30.0093735,94.3321983 29.98,94.24 L25.98,82.05 C25.9655801,81.9401651 26.0315032,81.8356556 26.1368383,81.8013605 C26.2421734,81.7670653 26.3569901,81.8127293 26.41,81.91 L30.41,94.1 C30.4500769,94.2186611 30.3878422,94.3475757 30.27,94.39 L30.19,94.4 Z" id="Shape" fill="#6D4703" stroke-width="1"/>
            <path d="M26.84,81.76 L30.88,93.95" id="Shape" fill="#FBE462" stroke-width="1"/>
            <path d="M30.87,94.18 C30.7733122,94.1761517 30.6893735,94.1121983 30.66,94.02 L26.66,81.83 C26.6158083,81.7489103 26.6244031,81.6492522 26.6818257,81.5769259 C26.7392483,81.5045997 26.8343621,81.4736324 26.9233599,81.4982869 C27.0123576,81.5229414 27.0779789,81.5984362 27.09,81.69 L31.09,93.88 C31.1300769,93.9986611 31.0678422,94.1275757 30.95,94.17 L30.87,94.18 Z" id="Shape" fill="#6D4703" stroke-width="1"/>
            <path d="M27.52,81.53 L31.56,93.72" id="Shape" fill="#FBE462" stroke-width="1"/>
            <path d="M31.56,93.95 C31.4633122,93.9461517 31.3793735,93.8821983 31.35,93.79 L27.35,81.6 C27.3355801,81.4901651 27.4015032,81.3856556 27.5068383,81.3513605 C27.6121734,81.3170653 27.7269901,81.3627293 27.78,81.46 L31.78,93.65 C31.8200769,93.7686611 31.7578422,93.8975757 31.64,93.94 L31.56,93.95 Z" id="Shape" fill="#6D4703" stroke-width="1"/>
            <path d="M28.2,81.31 L32.24,93.5" id="Shape" fill="#FBE462" stroke-width="1"/>
            <path d="M32.24,93.72 C32.1433122,93.7161517 32.0593735,93.6521983 32.03,93.56 L28.03,81.37 C27.9858083,81.2889103 27.9944031,81.1892522 28.0518257,81.1169259 C28.1092483,81.0445997 28.2043621,81.0136324 28.2933599,81.0382869 C28.3823576,81.0629414 28.4479789,81.1384362 28.46,81.23 L32.46,93.42 C32.5000769,93.5386611 32.4378422,93.6675757 32.32,93.71 L32.24,93.72 Z" id="Shape" fill="#6D4703" stroke-width="1"/>
            <path d="M28.89,81.08 L32.92,93.27" id="Shape" fill="#FBE462" stroke-width="1"/>
            <path d="M32.92,93.5 C32.8233122,93.4961517 32.7393735,93.4321983 32.71,93.34 L28.71,81.15 C28.6955801,81.0401651 28.7615032,80.9356556 28.8668383,80.9013605 C28.9721734,80.8670653 29.0869901,80.9127293 29.14,81.01 L33.14,93.2 C33.1800769,93.3186611 33.1178422,93.4475757 33,93.49 L32.92,93.5 Z" id="Shape" fill="#6D4703" stroke-width="1"/>
            <path d="M17.89,80.88 C16.6807879,81.9611487 16.3669354,83.7286339 17.13,85.16 C17.5101511,85.8581656 18.1963425,86.3370583 18.9827863,86.4530587 C19.7692302,86.5690592 20.5644646,86.3086769 21.13,85.75 C21.13,85.75 25.77,80.07 33,81.52 C33,81.52 37.82,82.87 35.4,78.05 C35.4,78.05 35.46,76.05 30.34,76.05 C25.8260803,76.4898637 21.5195636,78.1605847 17.89,80.88 L17.89,80.88 Z" id="Shape" fill="#FBE462" stroke-width="1"/>
            <path d="M30.3,76 C35.42,76.06 35.36,78 35.36,78 C36.91,81.09 35.49,81.64 34.27,81.64 C33.8280692,81.6364617 33.3881958,81.5793789 32.96,81.47 C32.1865454,81.3123881 31.3993476,81.2319934 30.61,81.23 C26.9567384,81.346392 23.512963,82.9633748 21.09,85.7 C20.5961489,86.1437194 19.9633105,86.4018044 19.3,86.43 C18.4092498,86.3559921 17.605313,85.8669614 17.13,85.11 C16.3669354,83.6786339 16.6807879,81.9111487 17.89,80.83 C21.5082151,78.1173642 25.7999924,76.4469948 30.3,76 L30.3,76 Z M30.3,75.55 L30.3,75.55 C25.7048146,75.9961073 21.3229079,77.7059508 17.64,80.49 C16.2381806,81.7002877 15.8715632,83.7250157 16.76,85.35 C17.3153622,86.2473343 18.267465,86.8238028 19.32,86.9 C20.0885363,86.8725827 20.82372,86.5792162 21.4,86.07 L21.47,86 C23.8147697,83.3793431 27.1257826,81.8267416 30.64,81.7 C31.3990711,81.7020217 32.156084,81.7790628 32.9,81.93 C33.3543904,82.0457759 33.8211073,82.1062141 34.29,82.11 C35.0664786,82.2137555 35.8365264,81.8787848 36.29,81.24 C36.75,80.5 36.61,79.4 35.86,77.89 C35.8030034,77.5101607 35.6239976,77.1591688 35.35,76.89 C34.51,76.01 32.83,75.55 30.35,75.52 L30.3,75.55 Z" id="Shape" fill="#6D4703" stroke-width="1"/>
            <path d="M20.48,86.36 C21.2600021,85.7342751 21.6422055,84.736724 21.48,83.75 C21.4265039,83.0234287 20.8945769,82.421942 20.18,82.28 C19.8025759,82.2456825 19.4223675,82.3004873 19.07,82.44 C18.7366891,82.5864653 18.4760192,82.8604555 18.3463332,83.2006464 C18.2166472,83.5408372 18.2287742,83.9188218 18.38,84.25 C18.38,84.25 19.01,85.79 19.85,84.25" id="Shape" fill="#FBE462" stroke-width="1"/>
            <path d="M20.48,86.59 C20.3845808,86.5847091 20.3023747,86.520965 20.2734906,86.4298688 C20.2446064,86.3387727 20.2750629,86.2393063 20.35,86.18 C21.0575498,85.5988834 21.397584,84.6819371 21.24,83.78 C21.1963366,83.1592426 20.7481704,82.6418144 20.14,82.51 C19.7995908,82.4831258 19.4575431,82.534433 19.14,82.66 C18.8619527,82.7819529 18.6453305,83.0115643 18.5397574,83.2962345 C18.4341844,83.5809048 18.4487076,83.896239 18.58,84.17 C18.65,84.34 18.86,84.69 19.07,84.7 C19.28,84.71 19.44,84.49 19.64,84.12 C19.7087583,84.0337171 19.829099,84.0084128 19.9267839,84.0596973 C20.0244688,84.1109819 20.0719767,84.2244068 20.04,84.33 C19.74,84.89 19.43,85.18 19.04,85.15 C18.49,85.15 18.19,84.42 18.15,84.34 C17.9728603,83.9548675 17.9589914,83.5144691 18.1115473,83.1189539 C18.2641031,82.7234388 18.5701171,82.4064238 18.96,82.24 C19.3498278,82.0829506 19.7715172,82.0212399 20.19,82.06 C21.0127932,82.2086338 21.6302147,82.8960298 21.69,83.73 C21.8638187,84.7958714 21.4513355,85.8729111 20.61,86.55 C20.5716902,86.5761344 20.526375,86.5900776 20.48,86.59 L20.48,86.59 Z" id="Shape" fill="#6D4703" stroke-width="1"/>
            <path d="M33.09,81.66 C32.0976893,81.5021628 31.2618118,80.8334608 30.89,79.9 C30.5502132,79.2558244 30.694767,78.4628439 31.24,77.98 C31.536917,77.7655266 31.8789846,77.6218582 32.24,77.56 C32.9933012,77.4832069 33.6711405,78.0192759 33.77,78.77 C33.77,78.77 34.02,80.41 32.49,79.48" id="Shape" fill="#FBE462" stroke-width="1"/>
            <path d="M33.09,81.89 L33.09,81.89 C32.0056581,81.7382477 31.0858572,81.0169101 30.68,80 C30.2988624,79.2585089 30.4767886,78.3523267 31.11,77.81 C31.4485089,77.5690973 31.8390972,77.4114915 32.25,77.35 C32.6733539,77.2963905 33.1005821,77.4141201 33.436717,77.6770189 C33.772852,77.9399178 33.990039,78.3262001 34.04,78.75 C34.04,78.84 34.16,79.6 33.7,79.9 C33.24,80.2 32.98,80.04 32.41,79.69 C32.3039878,79.6252304 32.2685685,79.4879809 32.33,79.38 C32.3947696,79.2739878 32.5320191,79.2385685 32.64,79.3 C33.01,79.53 33.31,79.61 33.44,79.52 C33.57,79.43 33.61,78.99 33.58,78.82 C33.5425988,78.5158529 33.3853556,78.2392116 33.1431651,78.051467 C32.9009746,77.8637224 32.593869,77.7804035 32.29,77.82 C31.9554034,77.8691787 31.6369327,77.9958821 31.36,78.19 C30.9074132,78.6109204 30.7927091,79.2827591 31.08,79.83 C31.4160462,80.6854805 32.1743117,81.3034669 33.08,81.46 C33.1862816,81.4825303 33.262303,81.5763566 33.262303,81.685 C33.262303,81.7936434 33.1862816,81.8874697 33.08,81.91 L33.09,81.89 Z" id="Shape" fill="#6D4703" stroke-width="1"/>
            <path d="M25.5,87.91 C28.88,86.39 29.5,87.57 29.5,87.57 C30.34,89.75 25.63,90.57 25.63,90.57 C26.7180986,90.0760653 27.8636325,89.7199755 29.04,89.51 C29.3085267,89.4664247 29.5807948,89.5622932 29.7627795,89.7644984 C29.9447642,89.9667037 30.0115225,90.2475311 29.94,90.51 C29.35,92.88 26.12,92.83 26.12,92.83 C29.97,91.51 29.59,92.59 29.59,92.59 C29.77,95.28 26.65,95.11 25.46,94.95 C25.1760706,94.9126419 24.9124222,94.7825754 24.71,94.58 C20.35,90.16 22.71,85.98 22.71,85.98 C24.37,84.39 26.96,84.08 28.22,83.89 C28.4014085,83.8522651 28.5903241,83.8925248 28.7405863,84.0009418 C28.8908485,84.1093588 28.988616,84.2759464 29.01,84.46 C29.09,85.25 29,86.53 25.5,87.91 Z" id="Shape" fill="#FFE9DC" stroke-width="1"/>
            <path d="M26.63,95.24 C26.238656,95.2393489 25.8477903,95.2126231 25.46,95.16 C25.1274738,95.1169648 24.8182917,94.9658871 24.58,94.73 C20.15,90.24 22.51,85.91 22.58,85.86 L22.58,85.81 C24.18,84.27 26.64,83.9 27.95,83.69 L28.21,83.69 C28.4688062,83.6556105 28.7307992,83.7238004 28.94,83.88 C29.1249748,84.0228434 29.2411557,84.237052 29.26,84.47 C29.3423137,85.5018661 28.8093701,86.4854606 27.9,86.98 C29.3,86.81 29.69,87.41 29.74,87.51 C29.932254,87.9456048 29.9062757,88.4466153 29.67,88.86 C29.5670106,89.0344146 29.4389795,89.1927688 29.29,89.33 C29.5917491,89.3488396 29.8687753,89.5031852 30.0435849,89.7498611 C30.2183946,89.996537 30.2722184,90.3090575 30.19,90.6 C30.0589713,91.1469553 29.7662616,91.641774 29.35,92.02 C29.4889619,92.0466569 29.6173681,92.1125953 29.72,92.21 C29.8303534,92.3238574 29.8787914,92.4840756 29.85,92.64 C29.9313666,93.3318964 29.6876388,94.0224585 29.19,94.51 C28.4534149,95.0557019 27.5436208,95.3151354 26.63,95.24 L26.63,95.24 Z M22.91,86.11 C22.7,86.51 20.85,90.31 24.91,94.41 C25.0779529,94.5756013 25.295917,94.6810677 25.53,94.71 C26.25,94.81 28.02,94.95 28.89,94.14 C29.2893303,93.7333556 29.4776794,93.1646152 29.4,92.6 C29.3937981,92.5703205 29.3937981,92.5396795 29.4,92.51 C29.4,92.51 29.22,92.37 28.75,92.41 C27.9443094,92.8317717 27.0493954,93.0546429 26.14,93.06 C26.0354761,93.0501785 25.950868,92.9708256 25.9343734,92.8671451 C25.9178788,92.7634647 25.9736843,92.6617732 26.07,92.62 C26.8820943,92.3198338 27.7233275,92.105336 28.58,91.98 C29.1581333,91.6531397 29.5772929,91.103896 29.74,90.46 C29.7886243,90.2774905 29.7436833,90.0827462 29.62,89.94 C29.4868953,89.7910197 29.2874406,89.719517 29.09,89.75 C28.8916215,89.7768015 28.6947085,89.8135141 28.5,89.86 C27.6177063,90.3108497 26.6744847,90.6308714 25.7,90.81 C25.5844089,90.8352597 25.469541,90.7645717 25.44,90.65 C25.4107127,90.540246 25.4659374,90.4255485 25.57,90.38 C26.4680117,89.9938202 27.393996,89.6762444 28.34,89.43 C28.7134989,89.2378604 29.0305584,88.9518176 29.26,88.6 C29.4355534,88.3162936 29.4580578,87.9637241 29.32,87.66 L29.32,87.66 C29.32,87.66 28.74,86.89 26.26,87.84 L25.58,88.13 C25.4680738,88.1633519 25.3489206,88.1075259 25.3029149,88.0001793 C25.2569092,87.8928327 25.2986581,87.7680487 25.4,87.71 L26.08,87.42 C28.92,86.14 28.84,85.02 28.79,84.42 C28.7804812,84.3128222 28.7259712,84.2147042 28.64,84.15 C28.5318126,84.0675013 28.3936974,84.0347897 28.26,84.06 L28,84.06 C26.75,84.33 24.41,84.69 22.91,86.11 Z" id="Shape" fill="#603404" stroke-width="1"/>
            <path d="M57.93,17.53 C57.93,17.53 60.27,22.81 57.93,27.4 L60.93,23.48 C60.93,23.48 62.29,20.16 59.42,16.09 L57.93,17.53 Z" id="Shape" fill="#AA5957" stroke-width="1"/>
            <path d="M92.92,17.58 C95.06,20.65 96.12,28.08 96.54,31.89 C96.5943612,32.3816417 96.3833579,32.8651331 95.9859246,33.1596045 C95.5884912,33.4540758 95.0645109,33.5151578 94.61,33.32 L92.61,32.46 C92.128576,32.2562174 91.8007972,31.8011832 91.76,31.28 L90.7,17.58" id="Shape" fill="#AA5957" stroke-width="1"/>
            <path d="M99,13.64 L55.82,16.06 C55.5139553,15.4829491 54.9316454,15.1048258 54.28,15.06 C52.9123692,15.071003 51.7397048,16.0391814 51.47,17.38 C51.41,18.71 52.97,19.83 54.07,19.88 C54.9047169,19.8712808 55.6462263,19.3450483 55.93,18.56 L99,13.64 Z" id="Shape" fill="#3C2B31" stroke-width="1"/>
            <path d="M66.09,13.23 C66.09,13.23 60.55,7.35 66.77,2.77 C66.77,2.77 72.08,-1.75 83.05,1.7 C83.05,1.7 87.86,4.07 85.05,10.58 C84.71,10.86 84.71,12.5 80.53,12.67 L66.09,13.23 Z" id="Shape" fill="#32190C" stroke-width="1"/>
            <path d="M65.47,22 L65.47,14.58 C65.4686308,13.4961187 65.9530073,12.4686536 66.79,11.78 C68.1126521,10.7209539 69.7660372,10.1615645 71.46,10.2 L82.81,10.2 C82.81,10.2 85.12,10.11 83.94,14.86 C83.8450396,15.2243397 83.7781767,15.595429 83.74,15.97 L83.19,21.97 C83.19,21.97 70.56,20.48 65.47,22 Z" id="Shape" fill="url(#linearGradient-1)" stroke-width="1"/>
            <path d="M55.49,54.66 C55.49,54.66 47.27,46.15 52.25,30.66 C52.25,30.66 56.17,20.66 72.6,20.26 C72.6,20.26 88.99,19.05 94.74,31.97 C95.9724828,34.8615204 96.5003112,38.0044989 96.28,41.14 C96.05,45.3 94.7,52.79 90.62,55.86 L55.49,54.66 Z" id="Shape" fill="#32190C" stroke-width="1"/>
            <path d="M90.62,56.12 L90.62,56.12 L55.48,54.89 C55.4227938,54.8870839 55.3689806,54.861971 55.33,54.82 C55.24,54.73 47.07,46 52,30.63 C52,30.52 56.17,20.45 72.56,20.07 C72.72,20.07 89.17,19 94.91,31.91 C96.1636682,34.8343549 96.698593,38.0164719 96.47,41.19 C96.37,43.03 95.61,52.4 90.72,56.08 C90.6904957,56.1014128 90.6561326,56.115158 90.62,56.12 L90.62,56.12 Z M55.62,54.44 L90.62,55.67 C94.24,52.88 95.85,46.12 96.12,41.16 C96.3448691,38.0586663 95.8236641,34.9485807 94.6,32.09 C88.91,19.47 72.77,20.51 72.61,20.52 C56.5,20.89 52.49,30.68 52.45,30.78 C47.81,45.21 54.86,53.62 55.59,54.44 L55.62,54.44 Z" id="Shape" fill="#603404" stroke-width="1"/>
            <path d="M51.78,34.92 C51.78,34.92 52.22,28.59 57.59,25.08 C57.59,25.08 66.89,19.08 78.18,21.16 C78.18,21.16 69.58,19.69 59.52,25.49 C56.0057916,27.733592 53.2953857,31.0358049 51.78,34.92 L51.78,34.92 Z" id="Shape" fill="#604B43" stroke-width="1"/>
            <path d="M81.91,12 C81.91,12 84.32,12.26 83.61,15.54 C83.7465186,14.1355397 83.091482,12.7715222 81.91,12 L81.91,12 Z" id="Shape" fill="#C79896" stroke-width="1"/>
            <path d="M81.25,10.38 C81.25,10.38 84,9.89 84.14,12 C83.6125283,10.9066111 82.4579676,10.2594179 81.25,10.38 L81.25,10.38 Z" id="Shape" fill="#C79896" stroke-width="1"/>
            <path d="M85.09,14.55 C85.09,14.55 84.65,11 89,13.37 C89,13.37 106.66,27.67 105.23,39.54 L100.3,44.33 C100.3,44.33 103.79,36.83 99.99,31.19 C100,31.18 94.06,18.18 85.09,14.55 Z" id="Shape" fill="#C79896" stroke-width="1"/>
            <path d="M58.67,16.1 C58.67,16.1 49.33,24.15 45.67,31.77 C45.67,31.77 42.11,37.57 45.23,42.84 C45.23,42.84 47.99,44.34 49.29,43.45 C49.29,43.45 44.96,34.96 59.37,17.45 C59.38,17.48 60.18,16.19 58.67,16.1 Z" id="Shape" fill="#C79896" stroke-width="1"/>
            <circle id="Oval" fill="#FFFFFF" cx="83.78" cy="51.07" r="1" stroke-width="1"/>
            <circle id="Oval" fill="#FFFFFF" cx="81.86" cy="52.69" r="1" stroke-width="1"/>
            <circle id="Oval" fill="#FFFFFF" cx="66.38" cy="51.07" r="1" stroke-width="1"/>
            <circle id="Oval" fill="#FFFFFF" cx="64.46" cy="52.69" r="1" stroke-width="1"/>
            <path d="M53.07,49.24 C53.07,49.24 49.6,47.24 50.96,54.44 C51.808572,56.4513249 52.8820714,58.360141 54.16,60.13 C54.9658921,61.1104713 55.4757912,62.3002359 55.63,63.56 C55.9519887,64.7473451 56.914963,65.6523089 58.12,65.9 C58.12,65.9 59.18,66.28 59.29,65.26 C59.29,65.25 57.44,51.38 53.07,49.24 Z" id="Shape" fill="#FFE9DC" stroke-width="1"/>
            <path d="M58.54,66.19 C58.3734433,66.1896623 58.2080153,66.1626537 58.05,66.11 C56.7682235,65.8465724 55.7480112,64.8767888 55.42,63.61 C55.2701905,62.3852797 54.7780191,61.2276372 54,60.27 C52.7024016,58.4843533 51.6152096,56.5549231 50.76,54.52 C50.19,51.52 50.37,49.68 51.29,49.02 C51.8753154,48.6844332 52.5946846,48.6844332 53.18,49.02 C57.61,51.21 59.44,64.64 59.52,65.21 C59.5194615,65.5372236 59.3588622,65.8434827 59.09,66.03 C58.9261902,66.1358223 58.7350127,66.1914376 58.54,66.19 Z M51.18,54.39 C52.0235298,56.370662 53.083291,58.2520736 54.34,60 C55.1788832,61.0155539 55.7066887,62.25173 55.86,63.56 C56.1652439,64.6459468 57.053854,65.4688771 58.16,65.69 C58.3814907,65.7784793 58.6285093,65.7784793 58.85,65.69 C58.9869223,65.5892801 59.0684298,65.4299698 59.07,65.26 C59.07,65.18 57.19,51.54 52.98,49.47 L52.98,49.47 C52.5371021,49.2299491 52.0028979,49.2299491 51.56,49.47 C51.03,49.85 50.56,51.02 51.2,54.47 L51.18,54.39 Z" id="Shape" fill="#603404" stroke-width="1"/>
            <path d="M95.5,49.24 C95.5,49.24 98.97,47.24 97.61,54.44 C96.761428,56.4513249 95.6879286,58.360141 94.41,60.13 C93.6041079,61.1104713 93.0942088,62.3002359 92.94,63.56 C92.6180113,64.7473451 91.655037,65.6523089 90.45,65.9 C90.45,65.9 89.39,66.28 89.28,65.26 C89.29,65.25 91.13,51.38 95.5,49.24 Z" id="Shape" fill="#FFE9DC" stroke-width="1"/>
            <path d="M90,66.19 C89.8069935,66.1974287 89.6159656,66.1488035 89.45,66.05 C89.1951141,65.8738129 89.0362993,65.5894237 89.02,65.28 C89.14,64.65 91,51.22 95.4,49 C95.9853154,48.6644332 96.7046846,48.6644332 97.29,49 C98.21,49.66 98.4,51.5 97.84,54.45 C96.9862848,56.5001941 95.8955302,58.4434154 94.59,60.24 C93.8160448,61.1847529 93.3239124,62.3284408 93.17,63.54 C92.8463999,64.8375831 91.8020579,65.8312667 90.49,66.09 C90.3340556,66.1526832 90.1680358,66.1865648 90,66.19 L90,66.19 Z M96.4,49.19 C96.1135196,49.2001985 95.8331123,49.2754297 95.58,49.41 L95.58,49.41 C91.37,51.48 89.5,65.12 89.49,65.25 C89.5049473,65.4025157 89.585178,65.541096 89.71,65.63 C89.9185293,65.7139785 90.1514707,65.7139785 90.36,65.63 C91.4867943,65.3990663 92.3899711,64.5576452 92.7,63.45 C92.8760773,62.1773146 93.4101488,60.9808559 94.24,60 C95.5037852,58.2477222 96.5670953,56.3592567 97.41,54.37 C98.05,50.97 97.56,49.79 97.03,49.37 C96.8537018,49.259898 96.6474764,49.2074678 96.44,49.22 L96.4,49.19 Z" id="Shape" fill="#603404" stroke-width="1"/>
            <path d="M58.66,37.41 C58.66,37.41 62,31 71.56,34.07 C71.56,34.07 74.31,35.59 78.69,33.77 C82.1920312,33.0919439 85.7685521,34.5131815 87.85,37.41 C87.85,37.41 91.91,44.06 91.44,50.41 C91.3802537,51.3623972 91.3802537,52.3176028 91.44,53.27 L91.44,59.27 C91.44,59.27 91.06,72.47 77.12,73.83 C77.12,73.83 62.88,75.99 57.2,63.25 C56.1201593,60.7608427 55.5424438,58.0829613 55.5,55.37 C55.38,50.75 55.62,42 58.66,37.41 Z" id="Shape" fill="#FFE9DC" stroke-width="1"/>
            <path d="M74.84,74.17 C70.54,74.17 61.29,73 57,63.33 C55.9018451,60.803773 55.3171669,58.0843394 55.28,55.33 C55.16,50.58 55.42,41.91 58.48,37.26 C58.65,36.95 62.21,30.83 71.64,33.82 C71.71,33.82 74.4,35.27 78.64,33.52 C82.2247185,32.8565555 85.8704236,34.3210695 88,37.28 C88,37.36 92.1,44.08 91.63,50.46 C91.5715018,51.4024264 91.5715018,52.3475736 91.63,53.29 L91.63,59.29 C91.63,59.43 91.08,72.71 77.11,74.08 C76.3560334,74.1584683 75.5978124,74.1885299 74.84,74.17 Z M66.74,33.47 C63.5883961,33.3047457 60.5868033,34.8283969 58.86,37.47 L58.86,37.47 C55.86,42.02 55.62,50.59 55.73,55.29 C55.7690215,57.975476 56.3400275,60.626575 57.41,63.09 C62.95,75.53 76.95,73.56 77.09,73.53 C82.8,72.97 86.9,70.39 89.3,65.87 C90.391056,63.7955178 91.0413386,61.5178266 91.21,59.18 L91.21,53.18 C91.1504099,52.2242613 91.1504099,51.2657387 91.21,50.31 C91.67,44.07 87.69,37.48 87.65,37.42 C85.5787263,34.6694783 82.1196851,33.3417655 78.74,34 C74.35,35.83 71.57,34.34 71.45,34.28 C69.9342275,33.7702335 68.3489676,33.4970291 66.75,33.47 L66.74,33.47 Z" id="Shape" fill="#603404" stroke-width="1"/>
            <path d="M63.72,42 L68.72,43.74 C68.92,43.81 69.13,43.86 69.33,43.91 C69.53,43.96 69.98,44.13 69.91,44.48 C69.91,44.48 69.91,45.48 68.66,45.15 L64.46,44.25 C63.8758306,44.0587566 63.2516816,44.0242732 62.65,44.15 C62.4406543,44.2012693 62.2254787,44.2248041 62.01,44.22 L60.47,44.22 C60.422427,44.2201669 60.3785624,44.1943347 60.3556359,44.1526502 C60.3327095,44.1109658 60.3343833,44.0600874 60.36,44.02 C60.9457695,43.1394696 61.7717449,42.4453726 62.74,42.02 C63.0547581,41.9014106 63.4006656,41.8943513 63.72,42 Z" id="Shape" fill="#32190C" stroke-width="1"/>
            <path d="M83.84,42 L78.84,43.74 C78.64,43.81 78.43,43.86 78.23,43.91 C78.03,43.96 77.58,44.13 77.65,44.48 C77.65,44.48 77.65,45.48 78.9,45.15 L83.1,44.25 C83.6841694,44.0587566 84.3083184,44.0242732 84.91,44.15 C85.1193457,44.2012693 85.3345213,44.2248041 85.55,44.22 L87.09,44.22 C87.137573,44.2201669 87.1814376,44.1943347 87.2043641,44.1526502 C87.2272905,44.1109658 87.2256167,44.0600874 87.2,44.02 C86.6142305,43.1394696 85.7882551,42.4453726 84.82,42.02 C84.5052419,41.9014106 84.1593344,41.8943513 83.84,42 Z" id="Shape" fill="#32190C" stroke-width="1"/>
            <path d="M75.54,59.82 C75.3418449,59.8196418 75.1672446,59.6897067 75.11,59.5 C74.9610459,58.9860292 74.5357992,58.5994413 74.01,58.5 C73.3329536,58.4864475 72.7139619,58.8807098 72.44,59.5 C72.348873,59.7319596 72.0869596,59.846127 71.855,59.755 C71.6230404,59.663873 71.508873,59.4019596 71.6,59.17 C72.0270755,58.2302922 72.9678397,57.6305551 74,57.64 L74.06,57.64 C74.9636667,57.7486416 75.7213454,58.3735312 76,59.24 C76.0713354,59.4774363 75.9371883,59.7278442 75.7,59.8 L75.54,59.82 Z" id="Shape" fill="#32190C" stroke-width="1"/>
            <path d="M70.42,65.49 C72.5785559,66.3259611 74.9714441,66.3259611 77.13,65.49 C77.13,65.49 77.43,69.33 73.48,69.14 C73.48,69.14 70.62,69 70.42,65.49 Z" id="Shape" fill="#830004" stroke-width="1"/>
            <path d="M71.57,68.27 C73.0356397,67.5931992 74.7243603,67.5931992 76.19,68.27 C75.5065251,68.9304337 74.5648422,69.2528776 73.62,69.15 C72.8489516,69.1310934 72.1148062,68.815948 71.57,68.27 Z" id="Shape" fill="#D27366" stroke-width="1"/>
            <path d="M70.42,65 L70.42,65.74 C72.540392,66.7663528 75.018329,66.7441623 77.12,65.68 L77.12,64.98 C74.969902,65.8355001 72.5751671,65.8426486 70.42,65 L70.42,65 Z" id="Shape" fill="#FFFFFF" stroke-width="1"/>
            <path d="M77.14,64.59 C77.14,64.59 76.61,64.71 75.8,63.47 C75.5516763,63.0522443 75.5291487,62.5378655 75.74,62.1 C75.8729229,61.9042087 76.0848214,61.7763389 76.32,61.75 C77.32,61.6 83.14,62.27 85.03,66.28 C84.218413,65.5863266 83.2392288,65.1174215 82.19,64.92 L79.19,64.58 C78.7739554,64.5478018 78.3560446,64.5478018 77.94,64.58 C77.6753899,64.6239558 77.4056262,64.6273279 77.14,64.59 L77.14,64.59 Z" id="Shape" fill="#32190C" stroke-width="1"/>
            <path d="M70.86,64.59 C70.86,64.59 71.39,64.71 72.2,63.47 C72.4483237,63.0522443 72.4708513,62.5378655 72.26,62.1 C72.1270771,61.9042087 71.9151786,61.7763389 71.68,61.75 C70.68,61.6 64.86,62.27 62.97,66.28 C63.781587,65.5863266 64.7607712,65.1174215 65.81,64.92 L68.81,64.58 C69.2260446,64.5478018 69.6439554,64.5478018 70.06,64.58 C70.3246101,64.6239558 70.5943738,64.6273279 70.86,64.59 L70.86,64.59 Z" id="Shape" fill="#32190C" stroke-width="1"/>
            <path d="M67.15,71.75 C68.37,72.6 71.34,74.25 73.63,72.13 C73.8852728,71.9186764 74.2547272,71.9186764 74.51,72.13 C75.59,72.95 78.4,74.45 81.51,70.92 C81.634575,70.7763228 81.8287399,70.7138873 82.0137093,70.7580277 C82.1986787,70.8021682 82.3437275,70.9455524 82.39,71.13 C82.82,73.06 82.15,81.13 74.97,87.44 C74.6331984,87.728079 74.1368016,87.728079 73.8,87.44 C71.96,85.89 65.7,77.91 66.48,72.13 C66.4843622,71.9725047 66.5707768,71.8287611 66.7078244,71.7510326 C66.8448721,71.673304 67.0125908,71.6729124 67.15,71.75 L67.15,71.75 Z" id="Shape" fill="#32190C" stroke-width="1"/>
            <path d="M78.12,53.59 L87,53.59 C87,53.59 87.55,47.25 82.55,47.17 C82.57,47.17 78,46.78 78.12,53.59 Z" id="Shape" fill="#FFFFFF" stroke-width="1"/>
            <path d="M87,53.7 L78.1,53.7 C78.0392487,53.7 77.99,53.6507513 77.99,53.59 C77.99,51.07 78.55,49.23 79.74,48.12 C80.5018756,47.4061002 81.5165144,47.0247111 82.56,47.06 C83.7416558,47.0296744 84.878905,47.5108183 85.68,48.38 C87.38,50.27 87.13,53.47 87.11,53.6 C87.104814,53.6568154 87.0570511,53.7002362 87,53.7 L87,53.7 Z M78.22,53.47 L86.9,53.47 C86.9,52.9 86.99,50.15 85.52,48.52 C84.7484839,47.6892346 83.6529199,47.2364015 82.52,47.28 C81.5370164,47.2546657 80.5828487,47.6133754 79.86,48.28 C78.79,49.34 78.22,51.08 78.23,53.48 L78.22,53.47 Z" id="Shape" fill="#603404" stroke-width="1"/>
            <path d="M85.51,51.44 C85.5166953,50.0879643 84.597381,48.9069069 83.2850529,48.5815759 C81.9727247,48.256245 80.6081902,48.8711278 79.9825729,50.0697305 C79.3569556,51.2683331 79.6327263,52.7393824 80.65,53.63 L84.51,53.63 C85.1438358,53.0785774 85.5084253,52.2801263 85.51,51.44 Z" id="Shape" fill="#32190C" stroke-width="1"/>
            <circle id="Oval" fill="#FFFFFF" cx="83.46" cy="50.31" r="1" stroke-width="1"/>
            <circle id="Oval" fill="#FFFFFF" cx="81.53" cy="51.93" r="1" stroke-width="1"/>
            <path d="M60.72,53.59 L69.62,53.59 C69.62,53.59 70.17,47.25 65.17,47.17 C65.17,47.17 60.64,46.78 60.72,53.59 Z" id="Shape" fill="#FFFFFF" stroke-width="1"/>
            <path d="M69.62,53.7 L60.72,53.7 C60.6592487,53.7 60.61,53.6507513 60.61,53.59 C60.61,51.07 61.17,49.23 62.36,48.12 C63.1218756,47.4061002 64.1365144,47.0247111 65.18,47.06 C66.3616558,47.0296744 67.498905,47.5108183 68.3,48.38 C70,50.27 69.75,53.47 69.73,53.6 C69.724814,53.6568154 69.6770511,53.7002362 69.62,53.7 L69.62,53.7 Z M60.84,53.47 L69.52,53.47 C69.52,52.9 69.61,50.15 68.14,48.52 C67.3684839,47.6892346 66.2729199,47.2364015 65.14,47.28 C64.1570164,47.2546657 63.2028487,47.6133754 62.48,48.28 C61.39,49.34 60.83,51.08 60.84,53.48 L60.84,53.47 Z" id="Shape" fill="#603404" stroke-width="1"/>
            <path d="M68.11,51.44 C68.1166953,50.0879643 67.197381,48.9069069 65.8850529,48.5815759 C64.5727247,48.256245 63.2081902,48.8711278 62.5825729,50.0697305 C61.9569556,51.2683331 62.2327263,52.7393824 63.25,53.63 L67.11,53.63 C67.7438358,53.0785774 68.1084253,52.2801263 68.11,51.44 L68.11,51.44 Z" id="Shape" fill="#32190C" stroke-width="1"/>
            <circle id="Oval" fill="#FFFFFF" cx="66.06" cy="50.31" r="1" stroke-width="1"/>
            <circle id="Oval" fill="#FFFFFF" cx="64.14" cy="51.93" r="1" stroke-width="1"/>
        </g>
    </g>
</svg>