<?xml version="1.0" encoding="UTF-8"?><svg xmlns="http://www.w3.org/2000/svg" xmlns:xlink="http://www.w3.org/1999/xlink" width="81.3415756225586" height="148.42694091796875" viewBox="-0.2756091207265854 -0.48782968521118164 81.3415756225586 148.42694091796875" version="1.1">
    <!-- Generator: Sketch 46.2 (44496) - http://www.bohemiancoding.com/sketch -->
    <title>三国主题素材-17</title>
    <desc>Created with Sketch.</desc>
    <defs>
        <linearGradient x1="11.7048292%" y1="118.656943%" x2="90.4463041%" y2="-6.85340252%" id="linearGradient-1">
            <stop stop-color="#C79896" offset="35%"/>
            <stop stop-color="#C49290" offset="48%"/>
            <stop stop-color="#BC817F" offset="65%"/>
            <stop stop-color="#AF6462" offset="85%"/>
            <stop stop-color="#AA5957" offset="92%"/>
        </linearGradient>
    </defs>
    <g id="Page-1" stroke="none" fill-rule="evenodd">
        <g id="三国主题素材-17" fill-rule="nonzero">
            <path d="M46.08,141.5 C46.08,141.5 45.52,145.24 48.71,146.87 C51.21,148.15 53.77,147.18 55.38,144.87 C56.3,143.57 57.09,140.12 55.68,139.08 L46.08,141.5 Z" id="Shape" fill="#FFF6E6" stroke-width="1"/>
            <path d="M45.55,142 C45.9993055,143.884145 47.3448107,145.427739 49.15,146.13 C51.300484,147.025998 53.7840198,146.255681 55.05,144.3 C56.1330487,142.67455 56.9877024,140.908042 57.59,139.05 L45.55,142 Z" id="Shape" fill="#443A37" stroke-width="1"/>
            <path d="M27.59,140 C27.59,140 26.29,143.55 29.09,145.79 C31.28,147.55 33.98,147.11 36.02,145.2 C37.18,144.11 38.02,141 36.8,139.7 L27.59,140 Z" id="Shape" fill="#FFF6E6" stroke-width="1"/>
            <path d="M27,140.37 C27.059774,142.305037 28.0650513,144.087629 29.69,145.14 C31.6154568,146.453158 34.2046613,146.200552 35.84,144.54 C37.2298156,143.166552 38.4243203,141.608649 39.39,139.91 L27,140.37 Z" id="Shape" fill="#443A37" stroke-width="1"/>
            <path d="M60,102 C58.82,100 56.1,95.07 59.65,96.33 C64.56,98.07 57.22,106.95 52.53,108.43 C52.53,108.43 63.16,128.7 66.25,122.6 L78.9,105.42 C80.9,102.87 80.78,98.56 79.02,95.81 L79.02,95.81 L75.02,88.88 C71.29,82.75 66.26,76.47 60.52,72.41 C59.5684581,71.7238954 58.5654929,71.1120866 57.52,70.58 L26.19,70.58 C15.1392864,79.7625522 6.34061471,91.3561364 0.47,104.47 C0.47,104.47 8.19,118.12 18.15,118.78 C21.2677569,112.450848 23.2189616,105.611469 23.91,98.59 C23.9282252,98.3917167 23.9582787,98.1946992 24,98 C24.24,96.82 25.23,91.82 25.79,87.62 C25.79,87.62 21.79,116.19 18.04,134.19 C18.04,134.19 16.35,138.98 22.98,138.98 C22.98,138.98 47.98,146.63 63.25,139.21 C63.25,139.21 68.43,138.05 65.18,128.98 L64.18,123.65" id="Shape" fill="#C79896" stroke-width="1"/>
            <path d="M46.41,142.7 C38.4704358,142.569241 30.5813363,141.409573 22.94,139.25 C20.62,139.25 19.02,138.66 18.21,137.5 C17.5956115,136.498033 17.4529846,135.276562 17.82,134.16 C19.45,126.28 21.15,116.29 22.54,107.59 C21.541403,111.492535 20.137086,115.279834 18.35,118.89 C18.3102396,118.968343 18.2276812,119.015519 18.14,119.01 C8.14,118.35 0.35,104.73 0.28,104.59 C0.249497536,104.526822 0.249497536,104.453178 0.28,104.39 C6.19000302,91.2492908 15.0086744,79.6232796 26.07,70.39 C26.1155329,70.375452 26.1644671,70.375452 26.21,70.39 L57.46,70.39 L57.56,70.39 C58.6264631,70.9263234 59.6495542,71.5448589 60.62,72.24 C65.71,75.83 70.88,81.7 75.18,88.77 L79.18,95.71 C81.08,98.71 81.02,103.11 79.04,105.58 L66.42,122.73 C66.1513117,123.462798 65.4696367,123.963218 64.69,124 L64.49,124 L65.39,129 C66.7,132.65 66.82,135.5 65.75,137.46 C65.2340398,138.43177 64.3466241,139.153246 63.29,139.46 C58.32,141.88 52.28,142.7 46.41,142.7 Z M25.71,89.7 C24.71,96.55 21.37,119.22 18.25,134.25 C17.9125041,135.249766 18.033255,136.347501 18.58,137.25 C19.31,138.25 20.79,138.8 22.97,138.8 L23,138.8 C23.25,138.88 48,146.34 63.1,139.04 C64.056729,138.749048 64.8565645,138.086121 65.32,137.2 C66.32,135.39 66.17,132.59 64.92,129.09 L64,123.86 C59.68,122.52 52.61,109.13 52.3,108.54 C52.2704417,108.48086 52.2677629,108.41186 52.2926472,108.350607 C52.3175315,108.289353 52.3675719,108.24177 52.43,108.22 C55.12,107.37 58.06,104.58 59.7,101.99 C58.42,99.85 57.11,97.16 57.86,96.24 C58.18,95.84 58.78,95.8 59.69,96.13 C60.7893485,96.4381981 61.5258765,97.4701696 61.46,98.61 C61.3426247,99.86921 60.897905,101.075814 60.17,102.11 L60.17,102.16 C58.42,104.91 55.28,107.69 52.85,108.57 C53.85,110.41 60.45,122.5 64.23,123.47 L64.32,123.47 C64.4462733,123.484118 64.5737267,123.484118 64.7,123.47 C65.3082056,123.433094 65.8374595,123.041054 66.05,122.47 L78.73,105.26 C80.6,102.92 80.65,98.73 78.84,95.91 L74.84,88.97 C70.57,81.97 65.44,76.13 60.4,72.57 C59.4470668,71.9036342 58.4440834,71.3118739 57.4,70.8 L26.27,70.8 C15.3335393,79.952415 6.60337972,91.4547591 0.73,104.45 C1.44,105.67 8.81,117.8 18.03,118.53 C21.0844796,112.249805 23.0040486,105.478838 23.7,98.53 C23.7165057,98.3420223 23.7432117,98.1550802 23.78,97.97 C23.95,97.14 24.71,93.35 25.28,89.63 C25.46,88.37 25.56,87.63 25.57,87.63 C25.6027141,87.5221388 25.7087725,87.4538767 25.8204969,87.4687733 C25.9322213,87.4836699 26.0166893,87.5773355 26.02,87.69 C25.92,88.36 25.82,89 25.71,89.73 L25.71,89.7 Z M58.71,96.32 C58.5436369,96.3034889 58.3785972,96.3621697 58.26,96.48 C57.83,97.01 58.5,98.92 60.01,101.48 C60.5804274,100.575296 60.9235193,99.54602 61.01,98.48 C61.0429967,97.5531355 60.434455,96.7251875 59.54,96.48 C59.261673,96.3929214 58.9716295,96.3490776 58.68,96.35 L58.71,96.32 Z" id="Shape" fill="#603404" stroke-width="1"/>
            <path d="M18.15,118.78 C18.15,118.78 8.38,120.49 0.47,104.47 C0.47,104.47 15.5,108.66 18.15,118.78 Z" id="Shape" fill="#AA5957" stroke-width="1"/>
            <path d="M17.39,119 C14.87,119 6.86,117.87 0.26,104.52 C0.212521186,104.447044 0.212521186,104.352956 0.26,104.28 C0.317398917,104.215265 0.406269759,104.188218 0.49,104.21 C0.64,104.21 15.68,108.56 18.33,118.68 C18.3544532,118.737509 18.3544532,118.802491 18.33,118.86 C18.2965799,118.91323 18.2419889,118.949624 18.18,118.96 C17.917968,118.992277 17.6539521,119.005645 17.39,119 Z M0.91,104.84 C7.91,118.64 16.32,118.69 17.91,118.58 C16.48,113.58 11.91,110.09 8.26,108.03 C5.9217863,106.725684 3.4596748,105.657094 0.91,104.84 L0.91,104.84 Z" id="Shape" fill="#603404" stroke-width="1"/>
            <path d="M28.63,70.58 L32.22,70.58 C32.22,70.58 33.29,83.86 42.72,84.58 L42.72,87.37 C42.72,87.37 32.4,86.24 28.63,70.58 Z" id="Shape" fill="#AA5957" stroke-width="1"/>
            <path d="M48.72,70.58 C48.72,70.58 47.52,89.2 24.61,96.33 L23.78,102.77 C23.78,102.77 51.88,91.06 53.44,70.58 L48.72,70.58 Z" id="Shape" fill="#AA5957" stroke-width="1"/>
            <path d="M23.78,102.76 C23.78,102.76 42.63,108.25 60.53,102.76 L60.88,105.2 C60.88,105.2 47.1,111.62 23.34,105.2 L23.78,102.76 Z" id="Shape" fill="#AA5957" stroke-width="1"/>
            <path d="M29.66,106.1 C29.66,106.1 31.05,111.89 26.93,115.64 C26.3934457,116.118186 26.0845915,116.801299 26.08,117.52 L26.08,117.52 C26.0785407,117.696553 26.1667665,117.861784 26.314291,117.958787 C26.4618154,118.055789 26.6484821,118.071309 26.81,118 C28.3,117.33 31.53,115 31.25,106.93 L29.66,106.1 Z" id="Shape" fill="#AA5957" stroke-width="1"/>
            <path d="M32.22,106.65 C32.22,106.65 29.84,120.43 33.3,122.53 C33.4025333,122.594613 33.5271772,122.614073 33.6445262,122.583789 C33.7618752,122.553505 33.8615371,122.47616 33.92,122.37 L33.92,122.37 C34.2135806,121.828344 34.1788175,121.167845 33.83,120.66 C33.19,119.66 32.59,116.56 33.83,107.03 L32.22,106.65 Z" id="Shape" fill="#AA5957" stroke-width="1"/>
            <path d="M36.45,131 C36.45,131 28,134.4 21.79,128.71 C21.79,128.71 26.08,135.94 36.45,131 Z" id="Shape" fill="#AF8B8B" stroke-width="1"/>
            <path d="M58.4,133.12 C58.4,133.12 49,143.67 26.77,134.66 C26.77,134.66 47,141.82 58.4,133.12 Z" id="Shape" fill="#AF8B8B" stroke-width="1"/>
            <path d="M61.51,109.51 C64.9603099,110.305887 67.2223899,113.616354 66.71,117.12 C66.71,117.12 66.47,110.47 61.51,109.51 Z" id="Shape" fill="#B28A8A" stroke-width="1"/>
            <path d="M20.64,112.95 C20.64,112.95 20,108.24 15.33,107.44 C15.34,107.44 20,107.35 20.64,112.95 Z" id="Shape" fill="#B28A8A" stroke-width="1"/>
            <path d="M12.72,110.85 C12.72,110.85 13.57,115.77 10.97,117.85 C10.97,117.85 9.97,118.34 10.16,116.85 C10.16,116.85 11.1,114.65 10.57,113.79 C10.57,113.79 9.94,112.99 9.86,114.65 C9.86,114.65 9.71,118.43 6.35,117.9 C6.35,117.9 2.51,118.09 4.09,111.75 C4.09,111.75 5.41,106.92 8.01,107.67 C9.67557778,108.581054 11.2524254,109.645677 12.72,110.85 L12.72,110.85 Z" id="Shape" fill="#FFE9DC" stroke-width="1"/>
            <path d="M7,118.16 C6.78237425,118.159961 6.56507146,118.143245 6.35,118.11 C5.56947546,118.08399 4.83912238,117.718814 4.35,117.11 C3.46,116.02 3.35,114.19 3.95,111.66 C3.95,111.53 4.81,108.56 6.49,107.66 C6.99179533,107.366431 7.5928369,107.294016 8.15,107.46 C9.84923696,108.381307 11.4565428,109.46289 12.95,110.69 C12.9876119,110.723976 13.0123386,110.769897 13.02,110.82 C13.02,111.03 13.86,115.9 11.19,117.99 C10.908445,118.152556 10.561555,118.152556 10.28,117.99 C10.01,117.79 9.92,117.39 10.01,116.8 L10.01,116.75 C10.26,116.17 10.82,114.53 10.43,113.9 C10.3961811,113.865059 10.3552606,113.837779 10.31,113.82 C10.31,113.82 10.18,113.94 10.14,114.66 C10.0857913,115.760459 9.61789697,116.799827 8.83,117.57 C8.31043702,117.979657 7.66099998,118.189038 7,118.16 L7,118.16 Z M6.37,117.66 C7.11944714,117.829338 7.90545226,117.66117 8.52,117.2 C9.20067144,116.506955 9.60588392,115.589895 9.66,114.62 C9.66,113.85 9.85,113.47 10.15,113.37 C10.3895036,113.329935 10.6307126,113.431088 10.77,113.63 C11.35,114.56 10.55,116.55 10.4,116.89 C10.32,117.43 10.4,117.58 10.5,117.62 C10.6,117.66 10.85,117.62 10.9,117.62 C13.15,115.85 12.63,111.62 12.54,110.98 C11.0999166,109.809822 9.55696714,108.772264 7.93,107.88 C7.49978524,107.765096 7.04134091,107.830072 6.66,108.06 C5.14,108.91 4.34,111.79 4.33,111.82 C3.75,114.15 3.85,115.9 4.63,116.82 C5.04836221,117.338313 5.67406479,117.645675 6.34,117.66 L6.37,117.66 Z" id="Shape" fill="#603404" stroke-width="1"/>
            <path d="M54.67,107 C54.67,107 54.52,119.5 64.5,123.74 C64.5,123.73 65,110.73 54.67,107 Z" id="Shape" fill="#AA5957" stroke-width="1"/>
            <path d="M64.5,124 L64.41,124 C54.41,119.75 54.41,107.18 54.41,107.05 C54.4131137,106.977596 54.4501701,106.910895 54.51,106.87 C54.5759146,106.836178 54.6540854,106.836178 54.72,106.87 C65.12,110.62 64.72,123.7 64.72,123.87 C64.7146326,123.944269 64.6736424,124.011344 64.61,124.05 C64.5693854,124.043927 64.5312814,124.026607 64.5,124 L64.5,124 Z M54.9,107.36 C54.97,109.36 55.74,119.56 64.28,123.43 C64.27,121.36 63.77,110.76 54.9,107.32 L54.9,107.36 Z" id="Shape" fill="#603404" stroke-width="1"/>
            <path d="M54.77,107 C54.77,107 49.89,108.07 48.99,111.25 C48.99,111.25 48.93,112.39 50.2,111.63 C50.2,111.63 51.88,109.93 52.88,110.1 C52.88,110.1 53.88,110.38 52.35,111.1 C52.35,111.1 48.9,112.67 50.66,115.58 C50.66,115.58 51.94,119.21 57.2,115.36 C57.2,115.36 61.2,112.16 59.55,110.04 C58.1843935,108.706567 56.5566718,107.671363 54.77,107 L54.77,107 Z" id="Shape" fill="#FFE9DC" stroke-width="1"/>
            <path d="M53.05,117.34 C52.7417895,117.343673 52.4348538,117.299825 52.14,117.21 C51.36715,116.967073 50.7435127,116.391126 50.44,115.64 C49.9536181,114.921377 49.8107904,114.024126 50.05,113.19 C50.4652057,112.169741 51.2511962,111.344451 52.25,110.88 C52.92,110.57 52.96,110.4 52.96,110.4 C52.9139748,110.368954 52.8633576,110.345333 52.81,110.33 C52.12,110.21 50.81,111.33 50.36,111.8 L50.36,111.8 C49.85,112.11 49.44,112.18 49.16,112 C48.9162875,111.813551 48.7843636,111.51578 48.81,111.21 C49.75,107.89 54.57,106.8 54.81,106.75 C54.852344,106.736905 54.897656,106.736905 54.94,106.75 C56.7590475,107.419053 58.4179396,108.461396 59.81,109.81 C61.62,112.1 57.61,115.33 57.44,115.47 C56.209754,116.53952 54.6735847,117.193879 53.05,117.34 Z M52.73,109.87 L52.91,109.87 C52.98,109.87 53.38,110.02 53.41,110.35 C53.44,110.68 53.13,110.95 52.41,111.27 C51.5220126,111.670852 50.8108519,112.382013 50.41,113.27 C50.2158929,113.996707 50.3512047,114.772007 50.78,115.39 C51.0342631,116.024548 51.5587149,116.512325 52.21,116.72 C53.4,117.08 55.05,116.52 56.99,115.1 C56.99,115.1 60.81,112.02 59.3,110.1 C57.9700124,108.830914 56.3990444,107.841408 54.68,107.19 C54.12,107.33 49.93,108.45 49.13,111.26 C49.13,111.26 49.13,111.52 49.27,111.59 C49.41,111.66 49.51,111.68 49.98,111.4 C50.3,111.21 51.69,109.87 52.73,109.87 Z" id="Shape" fill="#603404" stroke-width="1"/>
            <path d="M24.06,17.14 C24.06,17.14 26.4,22.42 24.06,27.01 L27.06,23.09 C27.06,23.09 28.42,19.77 25.55,15.7 L24.06,17.14 Z" id="Shape" fill="#AA5957" stroke-width="1"/>
            <path d="M59.06,17.19 C61.2,20.26 62.26,27.69 62.68,31.5 C62.7343612,31.9916417 62.5233579,32.4751331 62.1259246,32.7696045 C61.7284912,33.0640758 61.2045109,33.1251578 60.75,32.93 L58.75,32.07 C58.268576,31.8662174 57.9407972,31.4111832 57.9,30.89 L56.8,17.19" id="Shape" fill="#AA5957" stroke-width="1"/>
            <path d="M65.1,13.25 L22,15.67 C21.6939553,15.0929491 21.1116454,14.7148258 20.46,14.67 C19.0742412,14.6629188 17.8785062,15.6404846 17.61,17 C17.55,18.33 19.11,19.45 20.21,19.5 C21.0447169,19.4912808 21.7862263,18.9650483 22.07,18.18 L65.1,13.25 Z" id="Shape" fill="#3C2B31" stroke-width="1"/>
            <path d="M32.23,12.84 C32.23,12.84 26.69,6.96 32.91,2.38 C32.91,2.38 38.22,-2.14 49.19,1.31 C49.19,1.31 54,3.68 51.19,10.19 C50.85,10.47 50.85,12.11 46.67,12.28 L32.23,12.84 Z" id="Shape" fill="#32190C" stroke-width="1"/>
            <path d="M31.61,21.6 L31.61,14.19 C31.6086308,13.1061187 32.0930073,12.0786536 32.93,11.39 C34.2526521,10.3309539 35.9060372,9.7715645 37.6,9.81 L48.94,9.81 C48.94,9.81 51.25,9.72 50.07,14.47 C49.9750396,14.8343397 49.9081767,15.205429 49.87,15.58 L49.32,21.58 C49.32,21.58 36.7,20.09 31.61,21.6 Z" id="Shape" fill="url(#linearGradient-1)" stroke-width="1"/>
            <path d="M21.62,54.27 C21.62,54.27 13.4,45.76 18.38,30.27 C18.38,30.27 22.3,20.27 38.73,19.87 C38.73,19.87 55.12,18.66 60.87,31.58 C62.1024828,34.4715204 62.6303112,37.6144989 62.41,40.75 C62.18,44.91 60.83,52.4 56.75,55.47 L21.62,54.27 Z" id="Shape" fill="#32190C" stroke-width="1"/>
            <path d="M56.75,55.73 L56.75,55.73 L21.61,54.5 C21.5527938,54.4970839 21.4989806,54.471971 21.46,54.43 C21.38,54.34 13.21,45.64 18.17,30.24 C18.17,30.13 22.34,20.06 38.73,19.68 C38.89,19.68 55.34,18.61 61.08,31.52 C62.3336682,34.4443549 62.868593,37.6264719 62.64,40.8 C62.54,42.64 61.78,52.01 56.89,55.69 C56.8492261,55.7188371 56.7998541,55.7329434 56.75,55.73 L56.75,55.73 Z M21.72,54 L56.72,55.23 C60.34,52.44 61.95,45.68 62.22,40.72 C62.4448691,37.6186663 61.9236641,34.5085807 60.7,31.65 C55,19.08 38.91,20.12 38.75,20.13 C22.64,20.5 18.63,30.29 18.59,30.39 C13.94,44.82 21,53.23 21.72,54 Z" id="Shape" fill="#603404" stroke-width="1"/>
            <path d="M17.92,34.52 C17.92,34.52 18.36,28.19 23.73,24.68 C23.73,24.68 33.03,18.68 44.32,20.76 C44.32,20.76 35.72,19.29 25.66,25.09 C22.1457916,27.333592 19.4353857,30.6358049 17.92,34.52 L17.92,34.52 Z" id="Shape" fill="#604B43" stroke-width="1"/>
            <path d="M48,11.58 C48,11.58 50.41,11.84 49.7,15.12 C49.8365186,13.7155397 49.181482,12.3515222 48,11.58 Z" id="Shape" fill="#C79896" stroke-width="1"/>
            <path d="M47.39,10 C47.39,10 50.17,9.51 50.27,11.59 C49.7347419,10.5120049 48.5874285,9.87859222 47.39,10 Z" id="Shape" fill="#C79896" stroke-width="1"/>
            <path d="M51.23,14.16 C51.23,14.16 50.79,10.56 55.1,13 C55.1,13 72.76,27.3 71.33,39.17 L66.4,43.94 C66.4,43.94 69.89,36.44 66.09,30.8 C66.09,30.79 60.2,17.79 51.23,14.16 Z" id="Shape" fill="#C79896" stroke-width="1"/>
            <path d="M24.81,15.71 C24.81,15.71 15.47,23.76 11.81,31.38 C11.81,31.38 8.25,37.18 11.37,42.45 C11.37,42.45 14.13,43.95 15.43,43.06 C15.43,43.06 11.1,34.57 25.51,17.06 C25.52,17.09 26.32,15.8 24.81,15.71 Z" id="Shape" fill="#C79896" stroke-width="1"/>
            <circle id="Oval" fill="#FFFFFF" cx="49.92" cy="50.68" r="1" stroke-width="1"/>
            <circle id="Oval" fill="#FFFFFF" cx="47.99" cy="52.3" r="1" stroke-width="1"/>
            <circle id="Oval" fill="#FFFFFF" cx="32.52" cy="50.68" r="1" stroke-width="1"/>
            <circle id="Oval" fill="#FFFFFF" cx="30.6" cy="52.3" r="1" stroke-width="1"/>
            <path d="M19.21,48.85 C19.21,48.85 15.74,46.85 17.1,54.05 C17.948572,56.0613249 19.0220714,57.970141 20.3,59.74 C21.1058921,60.7204713 21.6157912,61.9102359 21.77,63.17 C22.0919887,64.3573451 23.054963,65.2623089 24.26,65.51 C24.26,65.51 25.32,65.89 25.43,64.87 C25.42,64.86 23.58,51 19.21,48.85 Z" id="Shape" fill="#FFE9DC" stroke-width="1"/>
            <path d="M24.67,65.8 C24.5034433,65.7996623 24.3380153,65.7726537 24.18,65.72 C22.8982235,65.4565724 21.8780112,64.4867888 21.55,63.22 C21.4001905,61.9952797 20.9080191,60.8376372 20.13,59.88 C18.8324016,58.0943533 17.7452096,56.1649231 16.89,54.13 C16.32,51.13 16.5,49.29 17.42,48.63 C18.0053154,48.2944332 18.7246846,48.2944332 19.31,48.63 C23.74,50.82 25.57,64.25 25.65,64.82 C25.6494615,65.1472236 25.4888622,65.4534827 25.22,65.64 C25.0561902,65.7458223 24.8650127,65.8014376 24.67,65.8 Z M17.32,54 C18.1616838,55.9732822 19.2180467,57.8479072 20.47,59.59 C21.312488,60.6043823 21.843811,61.8406634 22,63.15 C22.3052439,64.2359468 23.193854,65.0588771 24.3,65.28 C24.5214907,65.3684793 24.7685093,65.3684793 24.99,65.28 C25.1269223,65.1792801 25.2084298,65.0199698 25.21,64.85 C25.21,64.77 23.33,51.13 19.12,49.06 L19.12,49.06 C18.6771021,48.8199491 18.1428979,48.8199491 17.7,49.06 C17.17,49.44 16.7,50.61 17.34,54.06 L17.32,54 Z" id="Shape" fill="#603404" stroke-width="1"/>
            <path d="M61.64,48.85 C61.64,48.85 65.11,46.85 63.75,54.05 C62.901428,56.0613249 61.8279286,57.970141 60.55,59.74 C59.7441079,60.7204713 59.2342088,61.9102359 59.08,63.17 C58.7580113,64.3573451 57.795037,65.2623089 56.59,65.51 C56.59,65.51 55.53,65.89 55.42,64.87 C55.42,64.86 57.27,51 61.64,48.85 Z" id="Shape" fill="#FFE9DC" stroke-width="1"/>
            <path d="M56.18,65.8 C55.9869935,65.8074287 55.7959656,65.7588035 55.63,65.66 C55.3751141,65.4838129 55.2162993,65.1994237 55.2,64.89 C55.28,64.26 57.11,50.83 61.54,48.65 C62.1253154,48.3144332 62.8446846,48.3144332 63.43,48.65 C64.35,49.31 64.54,51.15 63.98,54.1 C63.1262848,56.1501941 62.0355302,58.0934154 60.73,59.89 C59.9560448,60.8347529 59.4639124,61.9784408 59.31,63.19 C58.9863999,64.4875831 57.9420579,65.4812667 56.63,65.74 C56.4843017,65.7845258 56.3322745,65.8047961 56.18,65.8 Z M62.58,48.8 C62.2935196,48.8101985 62.0131123,48.8854297 61.76,49.02 L61.76,49.02 C57.55,51.09 55.68,64.73 55.67,64.86 C55.6849473,65.0125157 55.765178,65.151096 55.89,65.24 C56.0985293,65.3239785 56.3314707,65.3239785 56.54,65.24 C57.6667943,65.0090663 58.5699711,64.1676452 58.88,63.06 C59.0374367,61.7648593 59.5652101,60.5426473 60.4,59.54 C61.6475445,57.8146375 62.7006023,55.9566948 63.54,54 C64.18,50.6 63.69,49.42 63.16,49 C62.9860266,48.8828645 62.7796278,48.8233937 62.57,48.83 L62.58,48.8 Z" id="Shape" fill="#603404" stroke-width="1"/>
            <path d="M24.8,37 C24.8,37 28.14,30.63 37.7,33.66 C37.7,33.66 40.45,35.18 44.83,33.36 C48.3352875,32.6777556 51.9168867,34.0994591 54,37 C54,37 58,43.66 57.57,50 C57.5102537,50.9523972 57.5102537,51.9076028 57.57,52.86 L57.57,58.86 C57.57,58.86 57.19,72.06 43.25,73.42 C43.25,73.42 29.01,75.58 23.33,62.84 C22.2587257,60.3625431 21.6845227,57.6987847 21.64,55 C21.52,50.36 21.75,41.64 24.8,37 Z" id="Shape" fill="#FFE9DC" stroke-width="1"/>
            <path d="M41,73.78 C36.69,73.78 27.44,72.59 23.14,62.94 C22.0418451,60.413773 21.4571669,57.6943394 21.42,54.94 C21.3,50.19 21.56,41.52 24.62,36.87 C24.79,36.56 28.35,30.44 37.78,33.43 C37.85,33.43 40.54,34.88 44.78,33.13 C48.3794599,32.4287859 52.0587045,33.8801952 54.21,36.85 C54.21,36.93 58.31,43.65 57.84,50.03 C57.7815018,50.9724264 57.7815018,51.9175736 57.84,52.86 L57.84,58.86 C57.84,59 57.29,72.28 43.32,73.65 C42.5503387,73.743988 41.7753433,73.7874144 41,73.78 L41,73.78 Z M32.9,33.08 C29.7483961,32.9147457 26.7468033,34.4383969 25.02,37.08 L25.02,37.08 C22,41.69 21.74,50.26 21.86,55 C21.8990215,57.685476 22.4700275,60.336575 23.54,62.8 C29.08,75.2 43.08,73.23 43.22,73.2 C48.93,72.64 53.03,70.06 55.43,65.54 C56.521056,63.4655178 57.1713386,61.1878266 57.34,58.85 L57.34,52.85 C57.2804099,51.8942613 57.2804099,50.9357387 57.34,49.98 C57.8,43.74 53.82,37.15 53.78,37.09 C51.7362795,34.2909531 48.2669175,32.9140987 44.86,33.55 C40.47,35.38 37.69,33.89 37.57,33.83 C36.0542215,33.3416225 34.4724892,33.0886803 32.88,33.08 L32.9,33.08 Z" id="Shape" fill="#603404" stroke-width="1"/>
            <path d="M29.86,41.62 L34.86,43.36 C35.06,43.43 35.27,43.48 35.47,43.53 C35.67,43.58 36.12,43.75 36.05,44.1 C36.05,44.1 36.05,45.1 34.8,44.77 L30.6,43.87 C30.0158306,43.6787566 29.3916816,43.6442732 28.79,43.77 C28.5806543,43.8212693 28.3654787,43.8448041 28.15,43.84 L26.61,43.84 C26.562427,43.8401669 26.5185624,43.8143347 26.4956359,43.7726502 C26.4727095,43.7309658 26.4743833,43.6800874 26.5,43.64 C27.0857695,42.7594696 27.9117449,42.0653726 28.88,41.64 C29.1947581,41.5214106 29.5406656,41.5143513 29.86,41.62 L29.86,41.62 Z" id="Shape" fill="#32190C" stroke-width="1"/>
            <path d="M50,41.62 L45,43.36 C44.8,43.43 44.59,43.48 44.39,43.53 C44.19,43.58 43.74,43.75 43.81,44.1 C43.81,44.1 43.81,45.1 45.06,44.77 L49.26,43.87 C49.8441694,43.6787566 50.4683184,43.6442732 51.07,43.77 C51.2793457,43.8212693 51.4945213,43.8448041 51.71,43.84 L53.25,43.84 C53.297573,43.8401669 53.3414376,43.8143347 53.3643641,43.7726502 C53.3872905,43.7309658 53.3856167,43.6800874 53.36,43.64 C52.7742305,42.7594696 51.9482551,42.0653726 50.98,41.64 C50.6652419,41.5214106 50.3193344,41.5143513 50,41.62 L50,41.62 Z" id="Shape" fill="#32190C" stroke-width="1"/>
            <path d="M38.15,59.43 C37.9995387,59.4311207 37.8584731,59.3569673 37.7740848,59.2323941 C37.6896965,59.107821 37.6731533,58.9493137 37.73,58.81 C38.1457682,57.8461274 39.1003619,57.2268248 40.15,57.24 L40.21,57.24 C41.0947261,57.3667043 41.8290098,57.9883201 42.1,58.84 C42.171797,59.0802439 42.0352439,59.333203 41.795,59.405 C41.5547561,59.476797 41.301797,59.3402439 41.23,59.1 C41.0810459,58.5860292 40.6557992,58.1994413 40.13,58.1 L40.13,58.1 C39.4645584,58.1010733 38.8616887,58.4925472 38.59,59.1 C38.5354426,59.2972594 38.3546451,59.4328575 38.15,59.43 L38.15,59.43 Z" id="Shape" fill="#32190C" stroke-width="1"/>
            <path d="M36.56,65.1 C38.7185559,65.9359611 41.1114441,65.9359611 43.27,65.1 C43.27,65.1 43.57,68.94 39.62,68.75 C39.62,68.75 36.76,68.59 36.56,65.1 Z" id="Shape" fill="#830004" stroke-width="1"/>
            <path d="M37.71,67.88 C39.1756397,67.2031992 40.8643603,67.2031992 42.33,67.88 C41.6465251,68.5404337 40.7048422,68.8628776 39.76,68.76 C38.9889516,68.7410934 38.2548062,68.425948 37.71,67.88 L37.71,67.88 Z" id="Shape" fill="#D27366" stroke-width="1"/>
            <path d="M36.56,64.56 L36.56,65.3 C38.680392,66.3263528 41.158329,66.3041623 43.26,65.24 L43.26,64.54 C41.109902,65.3955001 38.7151671,65.4026486 36.56,64.56 L36.56,64.56 Z" id="Shape" fill="#FFFFFF" stroke-width="1"/>
            <path d="M43.27,64.2 C43.27,64.2 42.74,64.32 41.93,63.08 C41.6816763,62.6622443 41.6591487,62.1478655 41.87,61.71 C42.0029229,61.5142087 42.2148214,61.3863389 42.45,61.36 C43.45,61.21 49.27,61.88 51.16,65.89 C50.348413,65.1963266 49.3692288,64.7274215 48.32,64.53 L45.32,64.19 C44.9039554,64.1578018 44.4860446,64.1578018 44.07,64.19 C43.8053899,64.2339558 43.5356262,64.2373279 43.27,64.2 L43.27,64.2 Z" id="Shape" fill="#32190C" stroke-width="1"/>
            <path d="M37,64.2 C37,64.2 37.53,64.32 38.34,63.08 C38.5883237,62.6622443 38.6108513,62.1478655 38.4,61.71 C38.2670771,61.5142087 38.0551786,61.3863389 37.82,61.36 C36.82,61.21 31,61.88 29.11,65.89 C29.921587,65.1963266 30.9007712,64.7274215 31.95,64.53 L34.95,64.19 C35.3660446,64.1578018 35.7839554,64.1578018 36.2,64.19 C36.4646101,64.2339558 36.7343738,64.2373279 37,64.2 L37,64.2 Z" id="Shape" fill="#32190C" stroke-width="1"/>
            <path d="M33.29,71.36 C34.51,72.21 37.48,73.86 39.77,71.74 C40.0252728,71.5286764 40.3947272,71.5286764 40.65,71.74 C41.73,72.56 44.54,74.06 47.65,70.53 C47.774575,70.3863228 47.9687399,70.3238873 48.1537093,70.3680277 C48.3386787,70.4121682 48.4837275,70.5555524 48.53,70.74 C48.96,72.67 48.29,80.74 41.11,87.05 C40.7731984,87.338079 40.2768016,87.338079 39.94,87.05 C38.1,85.5 31.84,77.52 32.62,71.74 C32.6243622,71.5825047 32.7107768,71.4387611 32.8478244,71.3610326 C32.9848721,71.283304 33.1525908,71.2829124 33.29,71.36 L33.29,71.36 Z" id="Shape" fill="#32190C" stroke-width="1"/>
            <path d="M44.26,53.2 L53.16,53.2 C53.16,53.2 53.71,46.86 48.71,46.78 C48.71,46.78 44.18,46.39 44.26,53.2 Z" id="Shape" fill="#FFFFFF" stroke-width="1"/>
            <path d="M53.15,53.31 L44.25,53.31 C44.1892487,53.31 44.14,53.2607513 44.14,53.2 C44.14,50.68 44.7,48.84 45.89,47.73 C46.6518756,47.0161002 47.6665144,46.6347111 48.71,46.67 C49.8932169,46.6422294 51.0307128,47.1271234 51.83,48 C53.53,49.89 53.28,53.09 53.26,53.22 C53.2502375,53.2728405 53.2037273,53.3108943 53.15,53.31 L53.15,53.31 Z M44.37,53.08 L53,53.08 C53,52.51 53.09,49.76 51.62,48.13 C50.8484839,47.2992346 49.7529199,46.8464015 48.62,46.89 C47.6370164,46.8646657 46.6828487,47.2233754 45.96,47.89 C44.92,48.95 44.36,50.69 44.37,53.09 L44.37,53.08 Z" id="Shape" fill="#603404" stroke-width="1"/>
            <path d="M51.64,51 C51.6466953,49.6479643 50.727381,48.4669069 49.4150529,48.1415759 C48.1027247,47.816245 46.7381902,48.4311278 46.1125729,49.6297305 C45.4869556,50.8283331 45.7627263,52.2993824 46.78,53.19 L50.64,53.19 C51.2738358,52.6385774 51.6384253,51.8401263 51.64,51 Z" id="Shape" fill="#32190C" stroke-width="1"/>
            <circle id="Oval" fill="#FFFFFF" cx="49.59" cy="49.92" r="1" stroke-width="1"/>
            <circle id="Oval" fill="#FFFFFF" cx="47.67" cy="51.54" r="1" stroke-width="1"/>
            <path d="M26.86,53.2 L35.76,53.2 C35.76,53.2 36.31,46.86 31.31,46.78 C31.31,46.78 26.78,46.39 26.86,53.2 Z" id="Shape" fill="#FFFFFF" stroke-width="1"/>
            <path d="M35.76,53.31 L26.86,53.31 C26.7992487,53.31 26.75,53.2607513 26.75,53.2 C26.75,50.68 27.31,48.84 28.5,47.73 C29.2618756,47.0161002 30.2765144,46.6347111 31.32,46.67 C32.4997573,46.6451326 33.6330295,47.1297796 34.43,48 C36.13,49.89 35.88,53.09 35.86,53.22 C35.851036,53.2692635 35.8099323,53.3062569 35.76,53.31 L35.76,53.31 Z M27,53.09 L35.68,53.09 C35.68,52.52 35.77,49.77 34.3,48.14 C33.5284839,47.3092346 32.4329199,46.8564015 31.3,46.9 C30.3170164,46.8746657 29.3628487,47.2333754 28.64,47.9 C27.53,48.95 27,50.69 27,53.09 Z" id="Shape" fill="#603404" stroke-width="1"/>
            <path d="M34.25,51 C34.2566953,49.6479643 33.337381,48.4669069 32.0250529,48.1415759 C30.7127247,47.816245 29.3481902,48.4311278 28.7225729,49.6297305 C28.0969556,50.8283331 28.3727263,52.2993824 29.39,53.19 L33.25,53.19 C33.8838358,52.6385774 34.2484253,51.8401263 34.25,51 L34.25,51 Z" id="Shape" fill="#32190C" stroke-width="1"/>
            <circle id="Oval" fill="#FFFFFF" cx="32.2" cy="49.92" r="1" stroke-width="1"/>
            <circle id="Oval" fill="#FFFFFF" cx="30.27" cy="51.54" r="1" stroke-width="1"/>
            <path d="M60.72,101.29 C60.72,101.29 56.99,105.39 54.47,106.8 L62.06,107.68 L60.72,101.29 Z" id="Shape" fill="#C79896" stroke-width="1"/>
            <path d="M62.26,95.71 C62.26,95.71 65.99,97.85 62.77,101.47 C62.77,101.48 66.84,97.69 62.26,95.71 Z" id="Shape" fill="#B28A8A" stroke-width="1"/>
            <path d="M74.38,94.81 C77.1888302,96.258534 78.8816459,99.2248799 78.7,102.38 C78.7,102.38 78.86,98.13 74.38,94.81 Z" id="Shape" fill="#B28A8A" stroke-width="1"/>
        </g>
    </g>
</svg>