<?xml version="1.0" encoding="UTF-8"?><svg xmlns="http://www.w3.org/2000/svg" xmlns:xlink="http://www.w3.org/1999/xlink" width="84.79065704345703" height="82.25972747802734" viewBox="0.43283843994140625 -0.4699999988079071 84.79065704345703 82.25972747802734" version="1.1">
    <!-- Generator: Sketch 46.2 (44496) - http://www.bohemiancoding.com/sketch -->
    <title>Paper-cuts-g</title>
    <desc>Created with Sketch.</desc>
    <defs/>
    <g id="Page-1" stroke="none" fill-rule="evenodd">
        <g id="Paper-cuts-g">
            <path d="M78.33,69.05 C73.6427188,61.2180175 69.5221851,53.0604969 66,44.64 C67.25,44.64 68.11,45.73 69.85,45.48 C71.59,45.23 72.91,43.23 73.19,41.48 C73.87,37.24 70.57,33.64 67.67,32.78 C69.67,28.4 76.35,33.5 79.21,32.78 C80.9,32.35 81.48,29.53 79.71,28.1 C81.18,28.41 81.5,29.88 83.22,29.94 C84.63,27.7 82.22,26.07 80.04,25.59 C78.59,25.27 76.8,26.11 75.86,25.09 C80.78,23.23 84.86,19.79 84.72,13.38 C83.39,10.38 81.15,13.16 79.03,13.88 C76.69,14.68 71.62,15.11 69.33,13.38 C66.64,11.38 65.33,5.73 64.98,0.84 C62.18,1.78 61.06,4.39 59.98,7.03 C58.56,5.6 58.27,2.75 58.64,0.03 L58.31,0.03 C54.18,3.13 51.24,7.34 52.46,13.74 C52.7154173,14.4783003 52.9192411,15.2334512 53.07,16 C53.07,17.43 52.07,19.29 51.73,20.85 C51.4328355,22.5370354 51.0422344,24.2062709 50.56,25.85 C50.51,26.64 49.33,26.3 48.89,26.69 C48.031266,27.6764473 47.3541307,28.8072633 46.89,30.03 C40.21,29.69 32.36,31.15 25.99,30.53 C21.3,30.08 16.54,27.34 15.29,24.17 C14.8648939,22.9882727 14.8056533,21.7058869 15.12,20.49 C15.9930497,19.2259578 17.2115868,18.240019 18.63,17.65 C20.77,17.2 22.42,18.24 22.63,19.82 C22.99,22.43 20.97,22.82 19.29,23.67 C20.18,25.87 23.43,26.13 25.98,25.01 C30.75,22.91 31.32,15.71 28.15,11.46 C26.0497502,8.82075088 22.8206582,7.33611091 19.45,7.46 C15,7.68 10,10.59 8.25,13.7 C6.25,17.17 5.64,21.92 5.91,25.91 C6.1939783,30.6058364 8.51761119,34.9425537 12.27,37.78 C11.06,41.55 9.47,45.55 7.75,49.65 C5.16,55.84 2.09,59.65 1.39,67.71 C1.1,71.05 0.02,75.87 2.73,77.08 L6.58,78.42 C8.79,79.61 13.18,80.11 15.58,78.75 C19.58,81.56 34.49,83.75 33.14,75.57 C32.78,73.42 30.9,72.32 29.14,71.22 C31.65,65 34.8,59.36 37,52.83 C38.5729508,52.8369619 40.1410813,53.0044972 41.68,53.33 C42.6,56.03 43.22,59.33 44.02,62.7 C44.76,65.81 45.88,69.1 46.19,72.07 C46.39,73.99 45.62,75.84 46.19,77.42 C47.51,81.06 62.61,83.42 64.42,78.09 C66.32,79.49 70.52,80.03 72.42,78.26 C73.86,78.67 74.59,79.55 76.6,79.43 C77.6,79.37 78.22,78.75 79.28,78.43 C81.06,77.88 83.03,77.8 83.63,76.59 C85.57,72.6 83.1,68.46 78.33,69.05 Z M83,13.86 C83.4008413,14.7982869 83.2753091,15.878625 82.67,16.7 C81.41,16.49 81.3,13.7 83,13.86 Z M79.15,21.22 C77.8859794,21.5821587 76.5999977,21.8627365 75.3,22.06 C76.27,21.17 78.69,18.7 79.16,21.22 L79.15,21.22 Z M78,18.88 C76.823725,18.9078251 75.6508487,19.0180955 74.49,19.21 C75,18.52 77.9,16.89 78,18.88 Z M25.15,23.56 C24.24,23.48 23.78,23.86 22.81,23.73 C23.06,22.98 23.38,22.29 23.65,21.56 C24.39,21.94 25.23,22.21 25.49,23.07 C25.12,23 25.16,23.3 25.15,23.56 Z M23.64,17.71 C24.47,17.64 26.44,17.78 26.98,18.55 L25.15,18.55 C25.43,19 26.69,18.46 26.99,18.88 C26.0404618,19.3887302 25.0332453,19.7815446 23.99,20.05 C24,19.56 23.48,18.24 23.64,17.71 L23.64,17.71 Z M22.47,12.86 C22.74,12.86 22.76,13.02 22.97,13.03 C23.42,13.98 22.97,15.32 22.97,16.37 C22.2,16.72 21.78,15.8 20.8,15.87 C21.269129,14.8205377 21.8278645,13.8134754 22.47,12.86 L22.47,12.86 Z M16.47,11.69 C17.73,12.5 18.09,14.2 18.64,15.69 C17.8094433,15.8423187 16.9717029,15.9524599 16.13,16.02 C16.0985619,14.5697703 16.2057151,13.119853 16.45,11.69 L16.47,11.69 Z M23.33,51.33 C22.53,51.28 20.94,49.01 23,48.33 C25.5,47.46 25.1,51.44 23.31,51.32 L23.33,51.33 Z M19,33.26 C18.69,32.4 17.5,32.42 17.33,31.42 C19.105608,31.6498507 20.8456706,32.0999827 22.51,32.76 C21.6,34.4 19.82,36.27 19.51,38.76 C19.1,41.98 20.25,44.51 21.35,46.76 C19.35,46.76 17.42,46.56 15.5,46.43 C15.96,45.27 17.58,45.28 18.84,44.92 C17.43,44.04 15.19,44 13.49,43.41 C14.3,42.33 16.09,42.22 17.49,41.74 C16.87,40.85 15.19,41.03 14.49,40.23 C15.31,39.6 16.8,39.65 17.67,39.06 C17.07,38.49 16.25,38.14 15.67,37.55 C16.31,36.96 17.52,36.95 18.51,36.71 C17.82,35.22 15.7,35.18 15,33.71 C15.8,33.12 17.83,33.64 19,33.26 Z M10.76,15.87 C12.21,15.48 13.83,16.37 15.11,16.71 C14.5700244,17.6891216 13.8307943,18.5441758 12.94,19.22 C11.9181364,18.3048149 11.0681001,17.21433 10.43,16 C10.75,16.11 11,15.92 10.76,15.87 Z M9.26,24.4 C9.26,23.93 9.92,23.98 9.26,23.73 C10.07,22.73 11.54,22.33 12.26,21.22 C12.88,21.88 12.55,23.49 13.1,24.22 C12.15,25 10.7,24.18 9.26,24.4 Z M11.94,29.92 C12.17,28.22 15.57,25.19 16.29,28.58 C14.64,28.83 13.65,29.74 11.93,29.92 L11.94,29.92 Z M11.43,48 C12.83,51.06 16.08,52.26 19.62,53.18 C19.1293067,54.3236687 18.320611,55.3024335 17.29,56 C17.4,55.44 17.41,54.78 17.79,54.49 C17.24,54.49 16.43,55.69 15.95,56.33 C15.31,55.93 16.05,54.43 15.95,53.49 C15.07,53.68 14.31,55.42 13.11,55.83 C13.2466886,54.68545 13.5289715,53.5630393 13.95,52.49 C13.19,52.49 12.49,53.93 11.44,54.16 C11.5969405,53.0012921 11.9343611,51.8743072 12.44,50.82 C11.37,51.14 11.23,52.39 9.93,52.49 C10.03,51.42 10.75,50.96 10.93,49.98 C10.25,50.08 10.14,50.75 9.42,50.82 C9.69806105,49.6545061 10.4189809,48.6430663 11.43,48 Z M7.25,55.19 C10.0453765,56.9748274 13.1761519,58.1692863 16.45,58.7 C15.8053644,59.9805683 14.8910819,61.1063639 13.77,62 C13.8624696,61.5290534 14.0313671,61.0764081 14.27,60.66 C13.17,60.9 13.14,62.2 12.1,62.5 C11.95,61.34 12.51,60.9 12.77,60.16 C11.67,60.16 11.01,61.95 9.77,62.33 C9.77,61.06 10.25,60.33 10.44,59.33 C9.49,59.56 8.57,61.25 7.44,61.84 C7.37,60.15 8.26,59.43 8.61,58.16 C7.71,58.05 7.06,59.62 5.93,59.83 C5.93,58.73 6.61,58.28 6.77,57.32 C6.52,56.98 6.12,57.89 5.6,57.82 C5.37,56.82 6.93,56.22 7.25,55.17 L7.25,55.19 Z M7.75,76.93 C7.75,76.93 4.32,77.08 2.63,75.26 C2.88,73.75 3.83,72.26 4.24,70.91 C5.7,71.01 5.53,72.21 6.08,73.25 C6.42,73.89 7.08,73.56 7.42,74.42 C8.13,73.7 7.52,72.1 7.92,71.42 C10.75,71.66 10.8,76.84 7.75,76.91 L7.75,76.93 Z M9.59,69.4 C9.55693345,68.781664 9.61420252,68.1618105 9.76,67.56 C8.86,68 8.9,69.38 7.92,69.73 C7.37,69.14 7.58,67.73 7.92,67.05 C6.67,67.41 6.76,69.12 5.92,69.89 C5.2,69.28 5.48,67.65 5.42,66.38 C4.42,66.44 4.77,67.84 3.91,68.05 C3.64163308,67.0680052 3.64163308,66.0319948 3.91,65.05 C3.91,64.46 3.36,65.41 3.41,64.88 C3.55336723,64.0575025 3.8375331,63.2658976 4.25,62.54 C6.67,63.54 8.25,65.44 12.11,65.05 C11.32,66.55 11,68.46 9.59,69.39 L9.59,69.4 Z M12.27,77.09 C12.27,76.75 11.82,76.76 11.6,76.59 C11.36,75.07 12.08,73.59 11.6,72.41 C14.18,71.61 16.28,77.31 12.27,77.08 L12.27,77.09 Z M14.95,71.74 C13.8,71.8 13.12,70.09 12.11,69.57 C13.11,65.11 15.96,62.49 18.11,59.2 C18.3283279,59.262377 18.4684806,59.4747294 18.44,59.7 C17.785734,61.7563271 17.3040654,63.8636271 17,66 C16.58,68.09 16.62,71.65 14.94,71.73 L14.95,71.74 Z M19.13,77.93 C19,76.13 19.95,75.4 19.8,73.58 C22.71,73.72 22.43,80.12 19.13,77.92 L19.13,77.93 Z M21.64,73.08 C21.4746124,72.1405568 21.4746124,71.1794432 21.64,70.24 C20.64,69.9 20.7,72.06 19.47,72.08 C19.2,71.46 19.64,70.29 19.47,69.24 C18.62,69.24 18.84,70.4 17.96,70.41 C17.8661552,69.1269678 18.158725,67.8452331 18.8,66.73 C20.64,68.55 24.64,69.29 27.8,68.73 C27.1,69.81 26.97,71.46 25.96,72.24 C25.64,71.84 25.85,70.9 25.79,70.24 C24.7,70.49 24.88,72.01 23.95,72.41 C23.7692551,71.701777 23.7117491,70.9677296 23.78,70.24 C22.57,70.66 22.65,72.41 21.63,73.07 L21.64,73.08 Z M27,77.92 C26.45,79 24.42,79.54 23.49,78.42 C23.13,77.02 23.58,74.94 23.49,73.74 C25.48,74.3 27.28,75.05 27,77.92 Z M30.51,74.92 C31.65,76.15 30.84,79.09 29.17,78.92 C27.74,78.79 28.17,77.27 27.83,75.92 C27.55,74.92 26.83,74.58 26.99,73.92 C28.52,74.15 29.62,74 30.5,74.91 L30.51,74.92 Z M28.66,66 C28.66,65.18 28.95,64.73 28.83,63.83 C27.97,64.42 27.83,65.76 26.83,66.17 C26.52,65.61 27.01,64.63 26.83,63.66 C26.1393437,64.4491154 25.5264998,65.3030782 25,66.21 C24.13,65.77 24.66,64.21 24.83,63.37 C23.66,63.93 23.3,65.3 22.49,66.21 C21.61,65.35 22.6,63.56 22.66,62.53 C21.66,62.91 21.79,64.45 20.66,64.7 C20.2,63.7 20.77,62.51 20.99,61.7 C20.16,61.7 20.33,62.6 19.48,62.54 C19.6154523,61.5050485 19.8983198,60.4948077 20.32,59.54 C23.21,60.86 27.52,62.37 31.19,61.38 C30.53,63.12 30,65 28.66,66 Z M32.51,58.47 C32.44,57.71 32.68,56.63 32.34,56.13 C31.59,56.83 31.34,58.06 31,59.13 C30.05,58.74 30.68,56.78 30.5,55.62 C29.29,56.43 28.75,58.76 27.5,58.96 C27.57,57.86 27.28,56.4 27.83,55.78 C26.35,56.08 26.62,58.14 25.15,58.46 L25.15,55.46 C24.15,55.86 24.34,57.46 23.15,57.63 L23.15,54.84 C22.33,54.84 22.15,56.22 21.48,55.84 C21.5943501,54.6335152 22.1329515,53.5067045 23,52.66 C25.93,53.99 30.43,53.56 34,53.16 C33.64,55.08 33.78,57.5 32.5,58.52 L32.51,58.47 Z M28.66,47.77 C28.23,46.67 30.35,46.67 30.83,45.93 C29.6201136,45.6787928 28.3852773,45.5680602 27.15,45.6 C26.83,45.18 27.29,44.94 26.98,44.43 C28.005821,44.1798123 29.0092306,43.8453425 29.98,43.43 C28.2139925,43.1125051 26.4242556,42.94524 24.63,42.93 C24.77,42.41 25.2,42.43 24.3,42.43 C24.91,41.32 26.77,41.43 27.81,40.76 C27.22,40.07 25.62,40.38 24.81,39.92 C24.81,39.44 25.51,39.61 25.98,39.59 C25.52,39.1 24.69,39.74 24.31,39.42 C25.26,38.42 27.01,38.33 28.31,37.75 C27.233551,37.4156264 26.123507,37.2009955 25,37.11 C25.07,36.54 25.45,36.9 25.17,36.27 C26.31,35.63 28.11,35.64 29.35,35.1 C29.48,34.58 28.77,34.9 29.02,34.26 C30.49,34 32.1,33.88 33.7,33.76 C31.21,37.48 32.57,44.17 35.54,46.3 C33.94,47.52 30.8,47.17 28.66,47.81 L28.66,47.77 Z M67.79,56.3 C68.61,57.3 68.79,58.99 69.3,60.3 C68.23,60.37 68.36,59.24 67.46,59.13 C67.19,59.52 67.78,60.47 67.79,61.13 C67.07,61.35 66.59,60.03 65.79,59.79 C65.3,60.57 66.2,61.39 66.12,62.3 C65.24,62.53 64.76,61.01 63.95,60.63 C63.63,61.43 64.18,62.39 64.12,63.14 C63,63 62.89,61.75 62.27,61 C61.78,61.34 62.43,62.83 61.94,63.17 C60.9892734,62.2318068 60.3982182,60.9895291 60.27,59.66 C63.1609712,59.8065827 65.9504899,58.5750399 67.79,56.34 L67.79,56.3 Z M67,53.83 C66,53.78 65.63,53.08 64.83,52.83 C64.94,53.61 65.54,54.62 65.33,55.17 C64.22,55.17 64.07,54.17 63.33,53.83 C62.87,54.66 64.08,56.04 63.66,56.83 C62.8641884,56.3063687 62.1836313,55.6258116 61.66,54.83 C61.08,55.53 61.94,56.93 61.49,57.51 C60.6461166,56.9811893 60.0457501,56.1399571 59.82,55.17 C59.36,55.55 59.51,56.53 59.49,57.34 C58.49,56.65 58.25,55.24 57.82,54 C60.66,53.32 63.44,52.6 64.82,50.49 C66,51.07 66.36,52.59 67,53.83 Z M57.3,47.31 C58.63,48.41 59.37,51.46 57.13,51.99 C55.68,51.15 56.43,48.31 57.26,47.31 L57.3,47.31 Z M58.93,44 C58.61,44.93 58.32,45.64 57.42,45.67 C54.34,45.76 57.17,40.85 58.93,44 Z M62.11,49.85 C61.18,50.02 59.72,48.57 59.94,47.51 C59.94,47.37 60.27,47.65 60.27,47.68 C60.0664725,47.3664074 59.8987576,47.0309776 59.77,46.68 C62.73,46.66 64,49.46 62.11,49.82 L62.11,49.85 Z M60.6,44.3 C61.08,42.49 65.8,43.41 64.28,45.47 C62.9293712,45.9133129 61.4466347,45.4418994 60.6,44.3 Z M71.6,40.45 C71.38,45.72 64.73,43.18 65.24,38.94 C66.12,40.81 69.36,41.53 71.64,40.45 L71.6,40.45 Z M70.43,37.94 C69.73,40.35 65.97,38.79 66.25,36.43 C66.3135859,35.7792078 66.7837251,35.2407578 67.42,35.09 C68.2543849,34.6867194 69.2509567,34.8388863 69.9269734,35.4727906 C70.6029902,36.1066948 70.8188541,37.0914348 70.47,37.95 L70.43,37.94 Z M61.43,24.06 C64.22,23.9 66.33,22.16 67.95,21.38 C68.85,24.61 63.49,26.32 61.44,24.06 L61.43,24.06 Z M57.75,27.57 C57.1,27.87 56.81,28.57 55.91,28.57 C55.91,27.69 56.32,27.3 56.41,26.57 C56.04,26.17 55.07,27.25 54.57,26.74 C54.78,25.94 55.41,25.58 55.74,24.9 C56.26,25.9 56.9,24.84 57.91,24.9 C58.22,25.42 57.4,25.99 57.41,26.74 C58.17,26.61 58.41,25.93 59.25,25.9 C59.1824599,26.7417029 59.0723187,27.5794433 58.92,28.41 C59.92,28.11 60.24,27.17 61.26,26.9 L61.26,28.74 C62,28.48 62.07,27.55 62.93,27.4 C62.2991682,28.8943308 61.5743859,30.3472353 60.76,31.75 C60.08,31.09 60.12,29.75 60.09,28.41 C59.5692375,29.0549866 59.0116415,29.6693438 58.42,30.25 C57.49,30.08 58.24,28.21 57.76,27.58 L57.75,27.57 Z M59.92,22.89 C60.07,21.76 60.92,21.3 61.43,20.55 C61.93,21.05 62.12,21.86 62.94,22.06 C62.35,22.75 61.22,22.9 59.93,22.89 L59.92,22.89 Z M67.28,18.89 C67.0845762,20.0312448 66.2332946,20.9492166 65.11,21.23 C65.17,20.51 64.84,19.38 64.94,18.72 C65.71,18.79 66.79,18.54 67.29,18.88 L67.28,18.89 Z M63.28,5.51 C63.64,8.28 65.2,10.72 65.79,12.7 C65.05,12.83 64.79,12.48 64.12,12.53 C63.7234867,11.7199079 63.3891884,10.8808192 63.12,10.02 C62.7,10.51 63.06,11.63 63.12,12.19 C62.88,12.45 62.26,12.34 61.78,12.36 C61.38,9.84 61.48,6.39 63.28,5.5 L63.28,5.51 Z M65.79,16.72 C61.62,16.56 60.14,19.1 58.43,21.4 C55.12,16.84 62.47,13.72 65.79,16.71 L65.79,16.72 Z M55.92,4.33 C56.19,4.33 56.21,4.49 56.42,4.5 C56.04,7.69 58.03,9.9 59.76,11.5 C59.45,12.36 58.02,12.1 57.25,12.5 C56.61,11.75 56.38,10.59 55.58,9.99 C55.84,10.9 55.99,11.92 56.25,12.83 C56.01,13.83 54.83,13.83 54.58,14.83 C52.77,11.73 54,6.32 55.92,4.33 Z M52.07,26.74 C55.38,30.07 58.96,34 65.28,33.74 C64.78,34.81 62.72,34.74 61.6,34.58 C59.52,34.35 56.44,32.58 54.6,31.07 C53.4,30.15 51.22,28.23 52.07,26.74 Z M61.77,38.95 C61.0997394,38.8368609 60.5962331,38.2761317 60.555617,37.5976039 C60.5150009,36.9190761 60.948022,36.3022872 61.6,36.11 C63.76,35.49 63.9,39.23 61.77,38.95 Z M59.43,37.61 C59.0127723,37.8468817 58.5604188,38.0156703 58.09,38.11 C55.18,38.11 56.51,33.47 58.93,34.93 C59.55,35.31 59.76,36.22 59.43,37.61 L59.43,37.61 Z M54.43,36.1 C53.22,35.94 52.18,35.32 52.09,34.43 C51.71,30.85 57.57,33.94 54.41,36.11 L54.43,36.1 Z M51.43,29.24 C52.33,30.24 51.93,32.17 50.93,32.42 C48.35,33.06 48.08,28 51.4,29.25 L51.43,29.24 Z M47.92,32.24 C51.52,36.38 56.54,40 63.78,40 C64.11,40.38 63.93,41.26 63.78,41.67 C55.78,42.4 51.13,38.27 47.22,34.31 C47.3696001,33.604732 47.5942112,32.9174893 47.89,32.26 L47.92,32.24 Z M50.92,42.24 C50.92,40.17 54.07,41.55 54.92,42.41 C54.13,44.08 50.86,44 50.9,42.29 L50.92,42.24 Z M54.58,46 C54.0333579,47.4903755 52.4202856,48.2969116 50.9,47.84 C50.07,45.68 53,45.29 54.58,46 Z M41,49.65 C39.65,50.59 37.84,50.12 37.82,48.65 C37.83,46.23 42.05,46.59 41,49.65 Z M43.34,45.65 C43.11,44.2 44.27,42.65 44.51,41.13 C42.84,40.86 40.98,41.84 39.33,42.13 C39.67,40.13 41.99,39.13 43.33,37.61 C42.84,37.29 40.75,37.61 39.82,37.28 C39.882377,37.0616721 40.0947294,36.9215194 40.32,36.95 C40.32,36.36 39.7,37.37 39.65,36.78 C40.5994715,35.9020491 41.7497147,35.2702737 43,34.94 C42.51,34.26 41.4,34.2 40.83,33.6 C41.09,32.6 43.77,33.11 45.18,32.76 C45.3899634,36.0740506 47.0419756,39.1295422 49.7,41.12 C49.13,42.78 48.56,44.44 47.86,45.97 C47.5,46.05 47.54,45.73 47.53,45.47 C47.1,45.6 47.53,46.55 46.86,46.47 C46.8292878,45.4071307 46.8861466,44.3435372 47.03,43.29 C45.64,43.69 45.03,44.84 44.03,45.63 C43.73,45.51 44.03,45.33 44.03,45.13 C43.88,44.72 43.63,45.59 43.37,45.64 L43.34,45.65 Z M44.68,58.36 C43.81,57.67 44.15,55.77 43.84,54.51 C46.48,54.82 51.68,55.69 53.84,53.84 C54.84,54.31 54.46,56.12 54.68,57.35 C54.24,57.4 54.13,57.12 54.18,56.68 C53.62,56.96 53.88,58.05 53.68,58.68 C52.86,58.39 52.83,57.3 52.17,56.84 C51.42,57.21 51.81,58.71 51.5,59.52 C50.44,59.13 50.29,57.83 49.66,57.01 C49.14,57.77 49.26,59.17 48.99,60.19 C47.88,59.68 47.87,58.08 47.48,56.85 C46.85,57.56 47.01,59.06 46.64,60.03 C45.64,59.5 45.64,57.86 45.3,56.69 C44.73,57.06 45.3,58.24 44.71,58.35 L44.68,58.36 Z M46.52,65.89 C45.78,65.13 45.69,63.71 45.68,62.21 C48.6938,63.0846066 51.9316941,62.7248406 54.68,61.21 C55.2377164,62.6515844 55.5225563,64.1842941 55.52,65.73 C54.59,65.38 54.52,64.16 54.01,63.39 C53.23,63.89 53.63,65.57 53.17,66.39 C52.42,65.86 52.42,64.58 51.66,64.05 C51.2523936,64.9435035 51.0247291,65.908529 50.99,66.89 C49.99,66.61 50.22,65.1 49.48,64.55 C49.01,65.03 49.04,66.01 48.98,66.89 C47.82,66.66 47.89,65.19 47.14,64.55 C46.83,64.81 46.87,65.52 46.55,65.87 L46.52,65.89 Z M51.9,77.75 C50.9047086,78.1176632 49.7860153,77.8537461 49.06,77.08 C48.87,75.33 49.58,74.48 49.9,73.23 C51.46,73.83 53.2,75.81 51.9,77.75 Z M52.57,70.56 C51.8,70.79 52.43,72.43 51.73,72.73 C50.84,72.06 50.32,71.02 49.39,70.39 C48.78,70.84 49.07,72.19 48.22,72.39 C48.01,71.24 47.13,69.95 47.38,68.88 C50.49,70.13 54.29,68.83 56.58,67.71 C56.6735232,68.5038537 56.8409154,69.2872492 57.08,70.05 C56.73,70.41 56.54,70.05 56.24,69.88 C55.97,70.62 55.99,71.64 55.74,72.39 C55.08,71.99 55.03,70.98 54.57,70.39 C54.0597064,71.0670519 53.7668094,71.8829794 53.73,72.73 C53,72.4 53,71.28 52.57,70.56 Z M57.75,77.42 C57.38,78.8 54.27,79.67 54.07,77.59 C53.92,76.06 55.77,75.83 55.24,73.59 C56.63,74.17 58.27,75.49 57.76,77.41 L57.75,77.42 Z M59.75,78.26 C58.65,76.93 59.87,75.09 59.58,73.08 C62.48,72.9 63.93,79.3 59.76,78.25 L59.75,78.26 Z M63.26,73.91 C62.52,72.53 61.08,71.86 59.58,71.23 C58.3672331,66.6212861 57.4190185,61.9469886 56.74,57.23 C59.65,62.12 61.8,67.78 64.93,72.45 C64.38,72.89 64,73.6 63.28,73.9 L63.26,73.91 Z M68.44,77.59 C67.5606284,77.4982013 66.7746919,77.0006933 66.3154789,76.2451505 C65.8562659,75.4896077 65.7765525,74.5628628 66.1,73.74 C66.48,72.74 67.73,72.26 68.61,71.57 C70.54,72 72.06,77.61 68.46,77.58 L68.44,77.59 Z M70,65.71 C69.7,66.9 70.73,68.21 71,69.39 C69.77,69.31 69,67.39 67.82,66.71 C67.63,67.52 68.29,68.92 68.32,70.05 C67.1,69.96 66.42,67.95 65.32,67.21 C65.27,67.82 65.46,68.69 65.15,69.05 C64.3335397,68.0612939 63.7094504,66.9284361 63.31,65.71 C67.57,65.71 69.85,63.78 71.84,61.53 C72.39,63.39 74.06,64.99 74.18,66.71 C73.18,66.38 72.78,65.44 72.01,64.87 C72.08,65.75 73.12,67.1 73.35,68.38 C71.86,67.83 71.1,66.58 70,65.71 Z M76.69,77.58 C74.02,77.7 74.21,73.24 73.85,71.22 C77,70.33 80.52,77.4 76.66,77.58 L76.69,77.58 Z M81.21,75.91 C78.91,75.36 79.38,72.05 78.03,70.56 C80.9,70.35 83.63,73.86 81.17,75.91 L81.21,75.91 Z" id="Shape" stroke-width="1" fill="#E50A11"/>
        </g>
    </g>
</svg>