<?xml version="1.0" encoding="UTF-8"?><svg xmlns="http://www.w3.org/2000/svg" xmlns:xlink="http://www.w3.org/1999/xlink" width="78.4699935913086" height="82.54999542236328" viewBox="0.23000001907348633 -0.3799999952316284 78.4699935913086 82.54999542236328" version="1.1">
    <!-- Generator: Sketch 46.2 (44496) - http://www.bohemiancoding.com/sketch -->
    <title>Paper-cuts-e</title>
    <desc>Created with Sketch.</desc>
    <defs/>
    <g id="Page-1" stroke="none" fill-rule="evenodd">
        <g id="Paper-cuts-e">
            <path d="M64.37,0.12 L65.53,0.12 L65.53,0.24 C68.47,1.51 74.9,8.34 72.53,13 C71.29,15.41 67.71,15.45 65.3,17 C70.59,17 73.59,20.38 73.95,25.55 C73.9934065,26.1692403 73.9934065,26.7907597 73.95,27.41 C73.64,30.6 71.43,36.65 69.69,38.68 C68.75,39.78 67.13,40.68 66.33,41.53 C72.09,42.53 76.96,44.3 78.2,49.58 L78.2,55.4 L78.07,55.4 C76.48,65.2 72.13,73.86 66.2,79.56 C65.1234541,80.460725 63.9031049,81.1740039 62.59,81.67 L60.24,81.67 C58.02,81.35 55.12,79.37 52.75,79.19 C47.87,78.82 44.75,81.48 40.49,81.19 C34.9,80.78 34.56,72.82 32.1,69.05 C31.81,72.05 31.41,74.89 30.03,77.1 C28.53,79.5 25.47,82.31 21.25,80.44 C15.81,78 13.9,71.11 14.42,62.93 C13.58,62.81 13.1,63.93 12.35,64.42 C9.19,66.62 6.47,63.68 4.86,61.57 C3.07,59.22 0.37,54.98 2.15,50.79 C4.09,46.23 10.15,43.95 12.22,39.52 C10.55,39.72 9.35,40.52 7.7,40.26 C5.16,39.87 3.21,36.08 2.28,33.2 C1.52,30.85 1.2,28.31 0.73,26.26 L0.73,25.52 C3.42412208,24.6762869 6.05421264,23.6402919 8.6,22.42 C11.01,21.23 14.7,19.42 14.15,15.98 C13.93,14.58 12.45,13.07 11.31,11.89 C9.21,9.7 6.81,7.89 6.92,3.59 C12.35,4.7 14.38,0.51 20.47,1.11 C25.88,1.65 28.86,5.11 31.7,8.67 C32.6,7.38 32.99,4.48 34.8,3.84 C36.61,3.2 39.55,3.84 41.38,3.96 C49.2266071,4.28653275 57.055451,2.97888765 64.37,0.12 Z M27.72,11.89 C28.4614644,11.8365781 29.1740297,11.5806081 29.78,11.15 C29.45,7.15 26.65,5.56 23.71,4.09 C24.2823362,5.61407942 24.7141334,7.18729381 25,8.79 C25.12,10.13 25,10.91 25.9,11.27 C25.9,10.27 25.76,9.07 26.16,8.42 C26.34,9.24 26.23,10.34 26.68,10.9 C26.8248391,10.0092764 27.1664609,9.16205431 27.68,8.42 C27.5146509,9.38097939 27.2976701,10.332357 27.03,11.27 C28.03,11 28.32,10.04 29.09,9.54 C28.7034061,10.3621376 28.2449585,11.148526 27.72,11.89 L27.72,11.89 Z M65.4,2.47 C63.99,2.15 61.83,3.15 60.11,3.58 C58.3309678,4.07402905 56.5200136,4.44490713 54.69,4.69 C55.1593062,5.30841384 55.4684752,6.03324337 55.59,6.8 C56.5,6.42 57.16,7.36 57.4,8.04 C57.5706655,7.40452614 58.0518055,6.89887467 58.6780223,6.69686923 C59.3042392,6.4948638 59.9901632,6.62404301 60.5,7.04 C61.2004564,6.56901441 62.1391698,6.67590373 62.7158073,7.29230931 C63.2924448,7.90871489 63.3365854,8.85246261 62.82,9.52 C63.2606663,9.91680247 63.5738528,10.4353001 63.72,11.01 C64.87,8.77 66.85,7.33 68.88,5.93 C67.75,4.89 66.94,2.82 65.4,2.47 Z M19.2,3 C18.5203769,4.79211935 17.4234009,6.39644672 16,7.68 C16.8144799,7.86499838 17.460526,8.48412592 17.68,9.29 C18.58,9.29 18.97,9.87 19.75,10.03 C19.87,9.16 20.61,8.87 20.91,8.17 C20.81,7 21.17,6.27 21.91,5.94 C21.51,4.94 22.49,4.19 22.91,3.59 C21.6921291,3.28933458 20.45106,3.0919678 19.2,3 L19.2,3 Z M16.49,6.1 C17.5026862,5.34062213 18.2653181,4.29592099 18.68,3.1 C15.87,2.58 17.41,4.86 16.49,6.07 L16.49,6.1 Z M15.33,3.87 C15.51,4.57 15.25,5.68 15.72,6.1 C15.92,5.22 16.89,4.41 16.49,3.37 C16.2,3.6 15.63,3.59 15.33,3.84 L15.33,3.87 Z M13.78,4.61 C13.78,5.4 13.95,6.1 14.55,6.34 C14.9314675,5.66136978 15.0251121,4.85818658 14.81,4.11 C14.5393942,4.39260593 14.1708004,4.56079925 13.78,4.58 L13.78,4.61 Z M12.23,5.35 C12.45,6.01 13.08,6.27 13.65,6.59 C13.65,5.93 13.32,5.67 13.39,4.98 C12.89,5 12.8,5.37 12.23,5.32 L12.23,5.35 Z M37.53,5.72 C38.84,7.32 41.08,7.91 43.08,8.57 C46.1686667,9.46541375 48.800368,11.503552 50.44,14.27 C49.77,12.55 48.75,10.05 50.44,8.7 C50.09,7.52 50.62,6.38 51.86,6.35 C51.61,5.76 52.62,5.26 51.99,5.11 C47.2119184,5.89455785 42.3555689,6.08934919 37.53,5.69 L37.53,5.72 Z M9.39,5.97 C9.51629854,6.62159828 9.82893608,7.22255712 10.29,7.7 C11.1789695,7.26945304 12.1439614,7.01801151 13.13,6.96 C12.48,6.68 12.32,5.96 11.71,5.6 C10.9598434,5.83675148 10.1765449,5.95154522 9.39,5.94 L9.39,5.97 Z M22.39,15.97 C23.77,13.4 23.18,8.69 22.78,5.97 C23.06,9.46 23.18,13.34 22.43,16 L22.39,15.97 Z M39.56,16.09 C38.9499201,15.5199905 38.7581264,14.6309721 39.078937,13.8601356 C39.3997475,13.0892992 40.1656508,12.5988598 41,12.63 C40.4557792,11.9798592 40.0599124,11.2188393 39.84,10.4 C37.43,10.19 37.14,7.95 36.48,6.06 C34.29,6.85 33.09,9.25 33.25,11.88 C37.33,10.83 37.73,15 39.59,16.1 L39.56,16.09 Z M66.66,11.38 C66.86,13.06 65.76,13.49 64.59,13.86 C64.3999338,14.3771997 64.0917567,14.8428896 63.69,15.22 C65.69,14.56 68.49,13.93 69.89,12.49 C71.29,11.05 70.75,8.19 69.24,6.79 C67.75,7.69 68.23,10.51 66.7,11.39 L66.66,11.38 Z M48.63,13.13 C46.57,9.82 40.9,9.31 38,7.18 C40.51,10.1 46.41,10.38 48.63,13.13 Z M62.18,15 C62.11,15 62.03,15.1 62.18,15.12 C64.18,12.88 65.18,9.7 67.6,7.81 C64.82,9.26 64,12.62 62.18,15 Z M11.46,9.3 C11.4,8.94 10.85,8.41 10.69,8.56 C10.94,8.79 11.1,9.13 11.46,9.29 L11.46,9.3 Z M18.69,15.62 C18.2456103,12.3241602 15.8432575,9.62893409 12.62,8.81 C15.5695026,10.031135 17.8007621,12.5311766 18.68,15.6 L18.69,15.62 Z M54.57,9.18 C51.12,7.48 50.92,13.46 52.12,15.62 C52.93,14.17 55.31,13.56 56.12,12.52 C56.47,14.13 58.01,14.59 57.93,16.61 C60.37,16.61 64.15,9.1 59.22,9.8 C58.55,10.55 59.04,11.39 59.61,11.91 C58.9909458,12.0676044 58.333935,11.94706 57.8111509,11.5799579 C57.2883667,11.2128558 56.951926,10.6357927 56.89,10 C56.3,10.53 55.16,11.63 54.05,10.87 C54.5446114,10.4519305 54.7448024,9.78070172 54.56,9.16 L54.57,9.18 Z M19.46,15.23 C19.39,12.78 18.38,10.57 17.01,9.78 C18.47,11 18.9,13.17 19.46,15.23 Z M21.14,15.48 C21.57,13.98 22.04,11.15 21.27,9.66 C21.67,11.51 21.18,14.08 21.14,15.48 Z M15.59,19.82 C16.59,18.42 17.8,16.94 17.4,14.82 C17,12.7 14.1,11.42 12.62,10.36 C14.91,12.27 17.44,16.23 15.59,19.82 Z M25.53,14.74 C25.5919271,14.0188629 25.7499941,13.3092428 26,12.63 C25.73,12.06 25.27,11.63 25,11.14 C24.7475658,12.3639029 24.9315384,13.6375598 25.52,14.74 L25.53,14.74 Z M20.24,15.36 C20.4665655,14.0685255 20.3315917,12.7395522 19.85,11.52 C20,12.74 20,14.14 20.23,15.36 L20.24,15.36 Z M26.31,12.76 C26.2668833,13.4675742 26.1631701,14.1701479 26,14.86 C26.72,14.76 26.86,13.46 27.42,13.62 C27.26,14.38 26.42,15.16 26.52,15.73 C28.33,15.23 28.72,13.38 29.52,11.89 C28.4,12.13 27.69,12.77 26.3,12.75 L26.31,12.76 Z M40.38,17.84 C37.49,16.6 36.91,13.16 33.38,12.51 C34.63,15.33 36.46,17.57 40.37,17.83 L40.38,17.84 Z M44.64,12.64 C44.0428232,12.9486414 43.3688544,13.0771818 42.7,13.01 C42.98,13.79 43.61,14.77 43.09,15.61 C42.9497628,15.1433237 42.6104154,14.7625016 42.1629236,14.5696172 C41.7154319,14.3767328 41.2055656,14.3915146 40.77,14.61 C40.3746391,15.0962387 40.275029,15.7590293 40.51,16.34 C43.51,18.34 47.21,15.4 49.8,16.22 C50.34,16.39 50.48,16.86 51.22,16.84 C50.77,13.76 46.51,14.33 44.63,12.63 L44.64,12.64 Z M62.58,13.26 C62.06,14.46 60.58,15.36 60.13,16.26 C61,15.5 62.54,14 62.57,13.25 L62.58,13.26 Z M24.88,15.36 C24.8670128,14.8140012 24.7795383,14.2723321 24.62,13.75 C24.5,14.26 24.32,15.17 24.88,15.36 Z M27.2,19.36 C29.01,19.36 30.2,18.27 31.72,18.62 C33.84,19.1 33.62,22.48 35.2,23.62 C35.74,21.75 37.33,20.87 38.56,19.62 C34.81,18.96 33.21,16.25 31.33,13.8 C30.36,16 28.72,17.6 27.2,19.32 L27.2,19.36 Z M23.46,18.12 C25.12,17.94 26.38,17.38 26.94,16.12 C26.29,16.29 25.94,16.71 25.13,16.74 C24.64,16.51 24.6,15.84 24.23,15.5 C24,16.28 23.29,17.3 23.46,18.08 L23.46,18.12 Z M55.85,19.36 C56.41,19.28 56.3,18.55 56.75,18.36 C56.75,18.99 55.99,19.53 56.23,19.97 C57.82,19.46 58.17,16.06 55.33,16.63 C53.66,14.44 51.25,18.21 53.26,19.36 C53.26,18.82 53.13,18.08 53.65,18 C53.6,18.25 53.33,18.92 53.65,19.12 C53.87,18.67 53.71,17.86 54.17,17.63 C54.1,17.9 53.86,18.63 54.17,18.87 C54.2563963,18.4860939 54.3872808,18.1135765 54.56,17.76 C54.64,18.06 54.4,18.66 54.69,18.76 C54.84,18.41 54.87,17.94 55.21,17.76 C55.01,18.02 55.12,18.58 54.95,18.87 C55.48,18.8 55.34,18.08 55.72,17.87 C55.82,18.34 55.19,18.76 55.59,19.11 C55.7822104,18.8025072 55.9996242,18.5115072 56.24,18.24 C56.1421148,18.6108002 56.0116057,18.97221 55.85,19.32 L55.85,19.36 Z M59.21,17.13 C60.2715504,16.9543769 61.2897913,16.5776278 62.21,16.02 C61.1847866,16.301579 60.1820047,16.6592379 59.21,17.09 L59.21,17.13 Z M19.07,16.39 C20.3130839,16.5163807 21.5070931,16.9418323 22.55,17.63 C21.91,16.68 20.82,16.2 19.07,16.35 L19.07,16.39 Z M17.52,18 C18.52,16.58 21.29,17.6 22.04,18.12 C21.41,16.79 17.79,16.54 17.52,18 Z M50.82,20 C50.65,19.55 49.98,19.56 49.92,19 C50.36,19.12 50.78,19.9 51.21,19.62 C50.91,19.37 50.52,19.21 50.44,18.75 C50.88,18.83 51.23,19.64 51.6,19.37 C51.2445569,19.1259368 50.9751168,18.7760145 50.83,18.37 C51.38,18.51 51.64,19.57 52.12,19.37 C51.95,18.05 48.21,15.87 48.64,18.75 C48.27,18.75 48.1,18.98 47.74,19 C46.81,20.65 48.74,21.86 50.45,21.35 C50.06,21.14 49.45,21.12 49.29,20.73 C49.77,20.65 50.18,21.27 50.58,20.85 C50.0829873,20.7448482 49.6316695,20.4859528 49.29,20.11 C49.79,20.05 50.35,20.57 50.58,20.36 C50.33,20.1 49.47,19.78 49.68,19.49 C49.94,19.63 50.57,20.14 50.82,19.94 L50.82,20 Z M17.65,18.45 C18.2725733,18.4453586 18.8891927,18.5714079 19.46,18.82 C19.93,18.62 20.23,18.24 21.01,18.32 C20.44,17.12 18.17,17.39 17.65,18.45 Z M42.82,18 C42.1040076,19.4130293 40.9782686,20.5771061 39.59,21.34 C42.17,22.09 45.3,23.43 48.11,21.96 C46.11,21.33 45.41,19.43 44.5,17.75 C43.9277711,17.6848521 43.3484656,17.7710583 42.82,18 L42.82,18 Z M64.76,20.11 C64.86,19.38 65.92,19.11 65.53,18.75 C63.78,18.24 59.25,17.19 58.53,19 C61.53,18.14 62.67,21 64.34,22.22 C63.5351679,22.540155 62.8861862,23.1604524 62.53,23.95 C64.98,24.25 67.08,23.33 66.92,20.73 C66.62,20.6 66.5,20.3 66.02,20.36 C66.02,20.46 65.91,20.5 65.76,20.48 C65.5400165,20.9209527 65.5904636,21.4487073 65.89,21.84 C65.5026082,21.7564586 65.1649033,21.5210438 64.9525059,21.186471 C64.7401086,20.8518981 64.6707639,20.4461198 64.76,20.06 L64.76,20.11 Z M24.62,20.73 C24.62,20.3 25.06,20.32 25.14,19.99 C24.5,19.79 24.54,18.85 25.01,18.5 C23.9,18.93 25.12,20.2 24.62,20.68 L24.62,20.73 Z M18.94,20.11 C19.7611422,19.9094867 20.626281,19.9977661 21.39,20.36 C21.6777952,19.910991 21.8559265,19.4005763 21.91,18.87 C20.57,18.45 19.12,18.92 18.94,20.06 L18.94,20.11 Z M15.84,20.48 C16.6903106,20.316313 17.5540816,20.2326142 18.42,20.23 C18.6356801,19.8813567 18.8101802,19.5088661 18.94,19.12 C18.3599138,18.829488 17.6814767,18.8085378 17.0845708,19.0627042 C16.487665,19.3168706 16.032588,19.8204784 15.84,20.44 L15.84,20.48 Z M65.53,24.32 C68.24,24.9 68.9,27.45 71.73,27.91 C72.3,24.33 71.15,20.42 68.12,19.49 C69.05,21.89 67.3,23.62 65.53,24.28 L65.53,24.32 Z M24.36,28 C21.54,27 21.23,22.25 22.3,19.58 C20.68,22.38 21.68,27.52 24.36,28 Z M57.27,20.57 C57.88,20.57 58.57,20.57 58.82,20.94 C58.51,20.94 57.34,20.83 57.66,21.06 C58.16,21.06 58.79,20.96 58.95,21.31 C58.6,21.39 57.95,21.15 57.79,21.43 C58.07,21.69 58.93,21.43 58.95,21.93 C58.56,21.77 58.5,21.93 57.95,21.81 C57.82,22.39 58.95,21.81 58.95,22.18 C58.59,22.29 58.04,22.18 57.79,22.43 C58.17,22.57 58.7,22.55 58.95,22.8 C58.43,22.88 57.58,22.64 57.27,22.92 C57.96,24.27 61.79,24.49 60.5,22.05 C62.75,20.33 58.36,18.89 57.27,20.56 L57.27,20.57 Z M18.43,22 C18.9066825,21.9519876 19.3881348,21.9926737 19.85,22.12 C20.01,21.45 20.72,21.31 21.27,21 C20.71,19.62 17.69,20.46 18.43,22 Z M22.69,21.26 C22.69,20.83 23.55,20.61 23.21,20.26 C23.09,20.62 22.34,21 22.68,21.3 L22.69,21.26 Z M16.5,22.87 C17.03,22.68 17.37,22.3 17.92,22.13 C17.8894048,21.6198604 17.9784385,21.1096291 18.18,20.64 C16.59,20.11 15.35,21.89 16.49,22.91 L16.5,22.87 Z M52.64,21.51 C53.7701755,21.6362741 54.8661809,21.9755946 55.87,22.51 C56.49,20.25 53.07,20 52.63,21.55 L52.64,21.51 Z M32.64,22.38 C31.78,19.38 27.24,21.26 24.77,21.64 C25.36,22.3 23.83,22.78 24.51,23.87 C24.86,24.03 25.34,24.07 25.67,24.24 C25.4425315,24.6547333 25.3515557,25.1306069 25.41,25.6 C25.7811169,25.8345287 26.1688072,26.0417425 26.57,26.22 C26.57,26.54 26.07,26.4 26.05,26.72 C27.0239228,27.2913097 28.1789236,27.4701024 29.28,27.22 C28.7914603,26.8937416 28.6239505,26.2537683 28.89,25.73 C27.64,25.73 27.89,23.98 28.63,23.62 C27.92,22.19 30.17,21.79 30.82,22.62 C31,21.8 32.31,22.45 32.62,22.42 L32.64,22.38 Z M13.64,23.62 C14.2982839,23.197502 15.0503679,22.9433731 15.83,22.88 C15.6566138,22.2246069 15.6566138,21.5353931 15.83,20.88 C14.6296924,21.3110325 13.7823908,22.3915364 13.65,23.66 L13.64,23.62 Z M9.38,24.62 C9.61576426,26.0181039 9.57157654,27.4491061 9.25,28.83 C11.63,27.48 12.87,23.3 14.25,21.03 C12.92,22.5 10.78,23.22 9.39,24.65 L9.38,24.62 Z M20,24.15 C20.55,24.15 20.66,23.79 21,23.65 C20.9842199,22.9808031 21.0277231,22.3115232 21.13,21.65 C19.93,21.71 19.66,23 20,24.15 Z M22.58,23.41 C22.72,22.92 23.58,22.41 23.35,22.05 C23.1,22.44 22.27,22.92 22.56,23.41 L22.58,23.41 Z M56.39,23.53 C54.9909373,22.7287814 53.4486365,22.2090193 51.85,22 C51.61,22 50.51,22 51.2,22.12 C52.9042651,22.3433297 54.5599057,22.8467796 56.1,23.61 C56.58,24 56.63,23.78 56.37,23.53 L56.39,23.53 Z M17,24.77 C17.7789497,24.2797384 18.6632294,23.9815511 19.58,23.9 C19.29,23.69 19.58,22.95 19.45,22.54 C17.94,22.08 16.09,23.3 17,24.77 Z M36.62,25.64 C37.3359418,25.4625265 38.0789535,25.4218135 38.81,25.52 C38.27,24.72 38.38,23.29 37.91,22.42 C36.9708625,23.2117228 36.487258,24.4188596 36.62,25.64 Z M43.2,28.24 C44.38,30.53 49.3,29.49 47.59,26.51 C50.8,25.74 48.84,21.87 45.53,23.41 C45.63,24.02 46.71,23.68 46.95,24.15 C46.33,24.32 45.78,23.79 45.4,24.15 C45.85,24.34 46.51,24.32 46.82,24.65 C46.23,24.8 45.68,24.27 45.27,24.65 C45.77,24.83 46.44,24.85 46.69,25.27 C46.16,25.27 45.53,24.82 45.14,25.15 C45.6785287,25.2437103 46.1746909,25.5022737 46.56,25.89 C46.07,25.7 45.46,25.62 45.01,25.39 C45.17,25.94 46.01,25.84 46.3,26.26 C45.72,26.32 45.1,25.77 44.75,26.01 C45.2,26.32 45.82,26.47 46.17,26.88 C45.68,26.69 45.07,26.61 44.62,26.38 C44.62,26.93 45.9,26.96 45.62,27.38 C45.12,27.38 44.62,26.72 44.2,27.01 C44.57,27.36 45.13,27.52 45.49,27.88 C44.83,27.97 44.49,27.15 43.94,27.51 C44.32,27.76 44.83,27.89 45.1,28.25 C44.54,28.25 44.05,27.62 43.68,27.88 C43.96,28.16 44.9,28.44 44.68,28.75 C44.32,28.57 43.62,28 43.21,28.24 L43.2,28.24 Z M14,25.64 C14.87,25.36 15.71,25.05 16.58,24.77 C16.25,24.51 16.33,23.86 16.32,23.28 C14.79,23.23 13.45,24 14,25.64 Z M22.91,25.27 C22.84,24.66 23.58,24.19 23.43,23.91 C23.23,24.22 22.55,24.76 22.94,25.27 L22.91,25.27 Z M12.46,26.14 C12.8518404,26.0828015 13.2393839,25.9992792 13.62,25.89 C13.32,25.36 13.78,24.29 13.36,24.16 C12.8123044,24.6697082 12.4978004,25.3818609 12.49,26.13 L12.46,26.14 Z M20.2,26.88 C20.62,26.62 20.84,26.17 21.49,26.14 C21.49,25.43 21,25.14 21.1,24.28 C19.9,24.16 19.43,26.2 20.23,26.88 L20.2,26.88 Z M17.49,26.88 C18.1442384,26.6121305 18.8690841,26.5699065 19.55,26.76 C19.3327833,26.0241559 19.3787518,25.2356197 19.68,24.53 C18,23.86 16.21,25.72 17.52,26.88 L17.49,26.88 Z M34.14,29.48 C33.22,28.09 33.14,25.85 32.2,24.48 C31.7417487,24.2128251 31.1602049,24.2937497 30.7923086,24.6758872 C30.4244123,25.0580246 30.365622,25.6422212 30.65,26.09 C31.0766985,26.3902778 31.5597112,26.6011707 32.07,26.71 C31.85,27.16 31.34,27.33 31.07,27.71 C32.1831728,28.1476484 33.227288,28.7438045 34.17,29.48 L34.14,29.48 Z M7.14,25.64 C7.36,26.51 7.25,28.31 8.04,28.98 C8.71905304,27.6852674 9.03032473,26.2292076 8.94,24.77 C8.48,24.64 7.6,25.24 7.2,25.64 L7.14,25.64 Z M61.09,24.64 C60.25,24.53 59.63,25.39 58.51,24.89 C60.27,26.64 62,28.34 62.82,31 C63.68,28.92 63.36,24.93 61.15,24.65 L61.09,24.64 Z M64.57,29.47 C66.57,30.47 66.52,27.81 65.57,27.36 C65.81,27.18 66.43,27.36 66.57,27.11 C65.57,25.96 64.57,24.7 62.44,24.63 C63.6953799,25.9538901 64.4670452,27.6628293 64.63,29.48 L64.57,29.47 Z M24,26.63 C24.1069539,26.0923561 24.3286664,25.5841226 24.65,25.14 C24.06,25.23 23.48,26.33 24,26.63 Z M13.91,28.36 C14.7823295,27.5889176 15.8524115,27.0763864 17,26.88 C16.779271,26.4162751 16.6893705,25.901076 16.74,25.39 C14.72,25.28 13.3,26.35 13.91,28.36 Z M36.24,30.47 C35.47,29.47 34.76,28.15 35.34,26.88 C34.87,26.42 34.51,25.88 34.05,25.39 C33.86,27.88 34.92,29.83 36.24,30.47 L36.24,30.47 Z M4.49,26.75 C4.96221146,27.8275888 5.8436793,28.6730783 6.94,29.1 C6.54,28.1 7.15,25.89 6.68,25.63 C6.1,26.16 5.08,26.25 4.49,26.75 Z M12.23,29.1 C12.65,28.89 13.34,28.93 13.78,28.73 C13.3154893,27.9799354 13.2664554,27.0445191 13.65,26.25 C11.94,26 12.25,28.14 12.23,29.11 L12.23,29.1 Z M21.52,26.37 C20.9598293,26.519019 20.4997214,26.9181114 20.2730369,27.4516017 C20.0463523,27.9850921 20.0784402,28.5933226 20.36,29.1 C21.262773,28.6287693 22.2153414,28.2598168 23.2,28 C22.723182,27.3799023 22.157021,26.8339613 21.52,26.38 L21.52,26.37 Z M8.74,31.37 C9.64986622,32.2464353 10.8396017,32.7740263 12.1,32.86 C11.8300962,30.8078673 11.6997967,28.7397808 11.71,26.67 C11.08,28.54 9.79,29.82 8.75,31.34 L8.74,31.37 Z M41.52,27.9 C40.86,27.66 40.57,27.08 39.97,26.79 C40.24,27.29 40.92,28.08 41.53,27.87 L41.52,27.9 Z M3.32,27.16 C3.08,29 4.78,29.61 6,29.6 C5.10375239,28.9223253 4.46530441,27.9593623 4.19,26.87 C3.69,26.74 3.73,27.14 3.32,27.13 L3.32,27.16 Z M16.87,29.51 C17.7457245,28.8940925 18.8708703,28.7553245 19.87,29.14 C19.87,28.61 19.55,27.87 19.87,27.41 C18.32,26.43 16.05,27.48 16.88,29.48 L16.87,29.51 Z M53.14,28.39 C51.68,26.64 49.07,29.96 51.07,30.5 C50.81,28.95 54.24,29.09 54.07,30.87 C57.47,28.38 58.13,34.29 56.26,36.2 C59.2,35.65 60.8,29.32 56.65,28.89 C56.72,26.63 53.69,26.88 53.14,28.36 L53.14,28.39 Z M25.26,28.64 C27.4320504,29.6764087 29.1676781,31.4474573 30.16,33.64 C30.71,33.64 30.85,33.32 31.45,33.39 C30.22,31.01 33.83,30.75 35.32,31.28 C34.46069,30.4596048 33.3853516,29.9011226 32.22,29.67 C29.53,29.26 26.83,29.17 25.51,27.32 C25.3036102,27.7166047 25.2200566,28.1657054 25.27,28.61 L25.26,28.64 Z M14.81,30.72 C15.2110394,30.1724373 15.8174736,29.8114645 16.49,29.72 C16.2793544,28.9834149 16.3251923,28.1971192 16.62,27.49 C14.7,27.3 13.4,29.61 14.81,30.72 Z M68.5,30.47 C70.63,31.21 68.45,33.65 69.5,34.81 C70.3864095,32.7324257 71.0760938,30.5763253 71.56,28.37 C70.41,28.48 68.98,28.21 68.2,28.37 C68.6935733,28.9549371 68.8100479,29.7702598 68.5,30.47 Z M19.84,36.17 C19.0353834,35.547982 18.5659829,34.5870045 18.57,33.57 C18.57,30.85 20.83,28.86 23.71,28.49 C19.63,28.11 16.23,34.09 19.84,36.17 Z M8.36,33.69 C9.61,33.18 8.07,31.98 7.97,31.21 C7.04962958,31.1460134 6.16117804,30.8464192 5.39,30.34 C4.68,29.94 4.01,29.16 3.45,29.34 C3.98,31.72 4.54,34.07 5.77,35.78 C6.14,35.78 6.77,36.12 7.06,35.78 C6.3347976,35.3320385 5.75209184,34.6869 5.38,33.92 C6.03,34.37 6.48,35.02 7.45,35.16 C7.34,34.16 6.45,33.78 6.16,32.93 C6.92674979,33.3028162 7.59224229,33.8551064 8.1,34.54 C8.01567929,33.7259414 7.79599047,32.9316818 7.45,32.19 C7.94043424,32.5493691 8.26782328,33.0890213 8.36,33.69 Z M18.17,31.83 C18.5259913,31.0181473 19.0049432,30.2659904 19.59,29.6 C17.86,28.06 15.43,31.52 18.17,31.83 Z M12.75,32.57 C13.18,32.11 14.08,32.18 14.56,32.07 C14.4,31.07 13.93,30.37 13.79,29.34 C11.52,28.84 12.28,31.65 12.75,32.58 L12.75,32.57 Z M25.4,30.84 C25.46,30.24 24.26,30.2 24.5,29.84 C25.2573349,30.1759579 25.9535044,30.6355649 26.56,31.2 C24.56,27.12 17.46,30.73 19.85,35.2 C20.62,34.95 21.79,35.08 22.56,34.83 C22.0376224,34.7615498 21.5453013,34.5465927 21.14,34.21 C21.74,34.09 22.26,34.69 22.69,34.33 C22.0862004,34.1784714 21.514024,33.9211612 21,33.57 C21.63,33.51 22.16,34.18 22.68,33.82 C22.17,33.36 21.25,33.29 20.74,32.82 C21.51,32.82 22.15,33.52 22.8,33.19 C22.31,32.88 21.6,32.77 21.25,32.32 C21.8270469,32.4228494 22.3906228,32.5905803 22.93,32.82 C22.76,32.11 21.69,32.28 21.38,31.71 C22.01,31.76 22.78,32.34 23.32,32.08 C22.83,31.77 22.12,31.66 21.77,31.21 C22.33,31.46 23.02,31.58 23.58,31.83 C23.34,31.27 22.58,31.25 22.16,30.83 C22.91,30.74 23.35,31.58 23.97,31.2 C23.5271931,30.9763625 23.0965857,30.7293474 22.68,30.46 C23.53,30.46 23.81,31.03 24.62,31.08 C24.57,30.59 23.46,30.47 23.72,30.08 C24.33,30.3 24.66,30.76 25.39,30.84 L25.4,30.84 Z M40,31.09 C40.13,31.67 40.65,31.87 40.77,32.45 C40.2,32.22 40.18,31.45 39.48,31.34 C39.61,31.92 40.13,32.12 40.25,32.7 C39.66,32.49 39.62,31.7 38.96,31.58 C39.06,32.19 39.47,32.5 39.61,33.07 C39.02,32.81 39.06,31.94 38.32,31.83 C38.66,33.49 38.88,35.26 41.32,34.93 C42.0541398,34.4649648 42.5307389,33.6854112 42.61,32.82 C45.97,33.77 45.03,28.25 42.09,29.48 C42.42,29.67 43.01,30.24 42.86,30.48 C42.5445829,30.2099991 42.2104109,29.9627119 41.86,29.74 C41.93,30.42 42.6,30.51 42.76,31.1 C42.3592938,30.7305015 41.9277213,30.3959491 41.47,30.1 C41.66,30.74 42.27,30.99 42.47,31.59 C41.93,31.28 41.69,30.69 41.05,30.48 C41.05,31.1 42.05,31.48 41.82,31.84 C41.33,31.69 41.01,30.72 40.53,30.97 C40.75,31.34 41.46,31.89 41.3,32.21 C40.88,31.8 40.59,31.29 40,31.09 Z M47.61,32.09 C47.5214199,31.6070246 47.6624249,31.1103175 47.9915564,30.7459219 C48.3206879,30.3815263 48.8005307,30.1908662 49.29,30.23 C49.77,30.23 50.09,30.95 50.29,30.6 C49.85,28.26 45.66,30.72 47.59,32.08 L47.61,32.09 Z M64.39,30.09 C63.9,32.59 68.95,32.21 67.1,29.59 C67.08,31.42 65,31.25 64.37,30.1 L64.39,30.09 Z M15.46,32.82 C15.8479148,32.2886308 16.4723466,31.9820235 17.13,32 C16.7761442,31.4368044 16.5539578,30.8010094 16.48,30.14 C15.3,30.13 13.94,32.1 15.46,32.82 Z M65.4,39.64 C66.7669435,38.7510263 67.9155063,37.5648617 68.76,36.17 C67.46,34.04 64.09,33.88 63.76,30.84 C63.66,34.28 66.8,36.47 65.4,39.64 Z M49.66,32.95 C48.01,32.4 47.24,34.53 48.24,35.55 C46.75,36.13 47.44,38.39 48.89,38.55 C48.97,40.47 52.66,40.03 52.76,38.8 C51.88,39.15 50.58,38.8 50.31,38.18 C50.31,36.88 49.6,37.13 49.54,36.32 C49.36,34.12 53.41,33.21 53.67,35.32 C53.86,36.8 51.81,37.32 51.35,36.19 C51.4379094,36.7818755 51.78621,37.3032975 52.2993067,37.6111555 C52.8124033,37.9190135 53.4363878,37.9809626 54,37.78 C55.18,37.5 55.14,36.4 55.29,35.18 C55.46,33.78 55.69,32.8 54.13,32.45 C53.7300862,32.5271213 53.3407095,32.6513191 52.97,32.82 C52.9,31 49.74,31.37 49.66,32.95 Z M37.53,33.69 C36.4501553,32.0989133 34.4503609,31.4105931 32.62,32 C32.8,32.42 33.23,32.79 32.88,33.36 C33.5,33.49 33.81,32.69 34.17,32.99 C33.67,33.99 31.68,33.65 30.56,34.1 C31.14,36.1 29.76,37.1 29.01,38.19 C29.47,39.08 29.01,40.55 29.14,41.29 C31.03,39.79 34.34,39.08 37.66,39.68 C37.5083578,37.6871543 37.4649607,35.6875483 37.53,33.69 L37.53,33.69 Z M37.4,32.69 C37.28,32.47 37.4,32.03 37.01,32.07 C37,32.4 37,32.72 37.4,32.7 L37.4,32.69 Z M24.62,34.19 C24.74,35.13 26.24,36.19 27.33,35.3 C24.33,35.02 27.44,31.3 28.33,33.94 C28.11,31.41 24.32,31.91 24.62,34.19 Z M18,34.56 C17.7855514,33.83659 17.7410621,33.073428 17.87,32.33 C14.65,31.57 15.6,36 18,34.56 Z M12.84,32.95 C13.937099,33.7355967 14.4474931,35.1085174 14.13,36.42 C14.76,35.95 14.75,34.87 15.68,34.69 C15.62,33.31 14.33,31.87 12.88,32.95 L12.84,32.95 Z M46.14,35.8 C44.74,34.97 45.86,32.91 47.04,32.7 C44.53,31.86 44.16,36.19 46.17,35.8 L46.14,35.8 Z M10.49,33 C11.93,33.53 13.6,33.84 13.78,35.58 C13.8703578,35.2970384 13.8703578,34.9929616 13.78,34.71 C13.37,33.65 12.15,33.27 10.62,32.99 L10.49,33 Z M56.89,40 C57.7,41.66 59.65,42.23 59.34,45 C60.91,44.91 61.92,44.91 62.82,45.62 C64.11,44.76 65.59,45.81 66.3,46.62 C68.3,46.49 68.48,48.17 69.4,49.1 C69.87,46.98 72.84,47.56 74.69,47.24 C73.08,45.05 68.1,43.1 63.85,43.4 C60.52,43.63 62.21,41.4 63.85,40.8 C59.85,41.38 62.76,36 64.24,39.07 C65.65,37.07 63.78,34.75 62.95,33.37 C62.34,36.9 60.68,39.48 56.89,40 Z M12.1,34.06 C12.71,34.11 10.9,33.59 10.29,33.69 C10.8790442,33.8750939 11.4855721,33.9990803 12.1,34.06 L12.1,34.06 Z M8.23,36.54 C7.57393241,36.6846944 6.88795045,36.5962946 6.29,36.29 C7.04,38.74 11.64,38.99 12.87,36.79 C11.62,36.79 10.12,36.95 9.39,36.42 C9.5,36.2 9.75,36.11 9.65,35.68 C9.48,35.43 8.97,35.51 8.88,35.18 C9.00560331,35.107539 9.09266177,34.9831673 9.11775161,34.8403483 C9.14284145,34.6975292 9.10338561,34.550932 9.01,34.44 C8.84,34.44 8.83,34.28 8.62,34.32 C8.62,35.18 8.66,36.08 8.23,36.54 Z M11.71,34.43 C9.24,34 12.2,35.04 12.71,34.68 C12.5,34.66 12.18,34.52 11.71,34.43 Z M28.71,36.16 C28.71,35.48 29.45,34.81 29.23,34.3 C29,34.68 28.42,36.44 28.75,36.17 L28.71,36.16 Z M29.1,37.03 C29.54,36.56 30.47,35.31 29.75,34.55 C29.51,35.25 28.94,36.31 29.14,37 L29.1,37.03 Z M16.19,37.77 C16.1442469,36.7391568 16.6314761,35.7571442 17.48,35.17 C15,34 13.76,37.53 16.23,37.78 L16.19,37.77 Z M12.75,35.3 C12.19,35.38 11.29,35.14 10.94,35.42 C11.5,35.35 12.4,35.59 12.75,35.3 Z M25,36.66 C23.94,36.66 22.76,36.74 22.16,36.29 C22.76,36.21 23.71,36.45 24.1,36.17 C23.19,35.97 21.97,36.07 21.39,35.55 C21.96,35.67 22.63,35.68 23.2,35.8 C22.67,35.15 21.27,35.34 20.1,35.3 C20.61,37.12 23.55,37.8 25,36.66 Z M16.75,37.9 C16.67,36.79 17.62,36.01 17.75,35.55 C17.15,36 16.25,36.81 16.75,37.9 Z M12.75,36.17 C12.8,36.12 10.75,35.78 10.94,36.05 C11.527044,36.223311 12.1452142,36.2642947 12.75,36.17 Z M44,40.38 C42.92,41.79 44.74,43.79 46.45,42.86 C48.97,45.72 52.74,42.15 53.55,39.86 C53.22,39.7 52.55,40.47 51.74,40.97 C51.0122001,41.5131905 50.176976,41.8950073 49.29,42.09 C47.29,42.33 46.35,41.09 46.97,39.61 C46.4122701,39.837353 45.772394,39.7040479 45.3518509,39.2728918 C44.9313079,38.8417357 44.8139887,38.1987365 45.0551687,37.646845 C45.2963487,37.0949535 45.8479167,36.7442621 46.45,36.76 C43.6,35.68 41.7,39.11 44,40.38 Z M15.2,37.78 C14.8,37.63 14.41,36.78 14.04,37.04 C14.28,37.35 14.9,37.94 15.2,37.78 Z M18.56,38.52 C18.04,37.8 18.48,37.21 19.08,36.91 C17.51,36.54 17.25,38.45 18.55,38.52 L18.56,38.52 Z M20.75,39.02 C20.04,38.81 20.38,37.66 21.01,37.66 C19.76,36.88 19.39,39.63 20.75,39 L20.75,39.02 Z M16.36,38.77 C16.76,40.85 18.83,42.77 16.88,44.72 C19.06,47.58 14.69,48.33 14.56,51.16 C14.47,53.16 15.67,54.03 16.24,55.99 C16.7054252,55.8840015 17.1833871,55.8436104 17.66,55.87 C16.47,54.8 16.24,51.76 17.27,49.92 C18.5500652,50.2133193 19.7990996,50.6285479 21,51.16 C19.91,49.46 19.59,45.16 22.94,45.59 C21.68,41.45 26.71,43.06 28.62,41.59 C28.903292,40.576083 28.903292,39.503917 28.62,38.49 C25.15,40.17 19.69,41 16.36,38.77 Z M7.58,47.77 C9.15,49.65 12.17,50.14 13.39,52.35 C12.96,49.76 14.49,48.48 14.55,46.78 C12.55,45.63 12.31,48.18 13,49.01 C12.42,48.74 11.84,48.47 11.71,47.77 C12.15,47.02 11.02,46.22 11.06,45.29 C11.1,44.36 11.8,43.89 12.87,43.56 C12.58,41.1 16.33,41.84 15.32,39.1 C13.23,42.5 10,44.74 7.58,47.81 L7.58,47.77 Z M30,41.74 C30.26,42.01 31.43,41.5 31.94,41.74 C31.39,42.04 30.44,41.95 30,42.36 C30.52,42.44 31.37,42.2 31.68,42.48 C31.2418832,42.5139398 30.8090774,42.5978169 30.39,42.73 C29.33,42.98 31.67,42.73 31.81,42.98 C31.22,43.12 30.37,42.98 30.13,43.48 C30.61,43.56 31.42,43.32 31.68,43.6 C31.24,43.84 30.2,43.5 30,43.97 C30.5242603,43.9963437 31.0440424,44.0801795 31.55,44.22 C30.9377512,44.2153591 30.3280677,44.2995695 29.74,44.47 C30.28,44.66 31.2,44.47 31.55,44.84 C30.86,44.92 29.83,44.68 29.36,44.96 C29.82,45.22 30.69,45.08 31.04,45.46 C30.44,45.54 29.49,45.3 29.1,45.58 C29.52,45.79 30.21,45.75 30.65,45.95 C30.31,46.28 29.17,45.85 28.84,46.2 C29.34,46.34 30.07,46.26 30.39,46.57 C29.6983154,46.5681914 29.0072602,46.5281302 28.32,46.45 C28.38,47.06 29.55,46.59 29.61,47.19 C29.0168904,47.0539786 28.4058755,47.0134693 27.8,47.07 C28.16,47.43 29.08,47.24 29.35,47.69 C28.29,47.77 27.91,47.22 27.16,47.57 C28.41,48.57 31.97,48.83 31.94,46.57 C33.94,46.98 34.16,44.48 33.23,43.57 C35.86,41.5 31.6,39.38 30,41.74 Z M38.91,42.24 C38.72,42.02 38.26,40.89 38.01,41.24 C39.67,43.69 42.18,45.99 45.62,46.32 C43.0543043,45.6210579 40.7407305,44.2058583 38.95,42.24 L38.91,42.24 Z M50.01,47.24 C51.01,47.77 52.59,47.82 52.72,49.24 C53.5072251,49.2704524 54.2278603,49.6900934 54.6428748,50.3597303 C55.0578893,51.0293672 55.1130274,51.8614571 54.79,52.58 C55.2995311,53.3718637 55.7061357,54.2253974 56,55.12 C55.8506134,53.2447359 56.5649094,51.4037669 57.94,50.12 C57.88,47.93 58.7,46.27 58.46,44.55 C58.22,42.83 57.11,42.13 56.11,41 C55.89,44.79 53,46 50,47.19 L50.01,47.24 Z M12.88,45.71 C13.3466989,45.4467087 13.9068062,45.4063453 14.4064343,45.5999996 C14.9060623,45.7936539 15.292656,46.2009556 15.46,46.71 C16.9,44.51 13.07,43.42 12.88,45.71 Z M40.24,45.21 C38.24,44.8 37.76,47.21 39.47,47.32 C39.24,44.64 42.2,47.19 41.79,48.81 C42.27,47.12 41.43,45.46 40.24,45.21 Z M58.83,50.54 C58.56,51.33 57.52,51.85 57.15,52.77 C56.78,53.69 56.98,54.48 56.63,55.5 C57.91,55.03 57.78,53.22 58.95,52.65 C59.2,52.44 59.67,52.43 59.95,52.28 C60.39,50.89 62.8,51.39 63.95,50.67 C62.784851,48.7858535 61.208923,47.1894145 59.34,46 C58.68,47.52 59.3,49.15 58.82,50.54 L58.83,50.54 Z M27.2,48.43 C26.0013717,48.0208741 24.8693011,47.4379925 23.84,46.7 C24.6905421,47.6940322 25.8968028,48.3151128 27.2,48.43 L27.2,48.43 Z M41.91,57.23 C42.64,58.23 44.27,60.09 46.69,59.46 C44.34,55.46 51.36,54.64 50.43,58.1 C50.01,59.66 47.43,58.66 48.88,57.23 C48.3919956,57.1448704 47.8895877,57.2333225 47.46,57.48 C46.69,60.48 49.46,61.61 52.11,61.32 C52.3313319,60.6398827 52.4196062,59.923503 52.37,59.21 C52.81,59.41 52.95,59.9 53.66,59.83 C54.88,56.54 52.18,56.53 51.98,54.13 C51.3065768,53.8891582 50.767209,53.3735152 50.4963384,52.7115993 C50.2254679,52.0496833 50.2486114,51.3038483 50.56,50.66 C49.5,50.07 49.43,48.53 49.14,47.19 C48.62,47.27 47.77,47.03 47.46,47.31 C48.6161852,49.3302691 48.6282165,51.8088818 47.4916985,53.8402799 C46.3551804,55.8716779 44.2366083,57.1582696 41.91,57.23 L41.91,57.23 Z M67.08,57 C67.2361993,53.6396887 66.0776745,50.3506262 63.85,47.83 C65.7840989,50.5134974 66.905357,53.6967597 67.08,57 Z M40.62,54.63 C42.56,53.07 42.39,47.45 38.55,48.44 C38.3969187,48.2534768 38.2223807,48.0856518 38.03,47.94 C36.42,47.8 35.72,48.73 35.84,49.67 C36.01,51.04 37.84,50.74 38.94,51.28 C38.6028513,50.6005005 38.1682645,49.973887 37.65,49.42 C38.4304489,49.9424246 39.0915822,50.6240053 39.59,51.42 C39.67,50.6 39.2,50.31 39.07,49.69 C39.82,50.17 39.84,51.35 40.49,51.92 C40.62,51.17 40.04,50.45 40.36,49.92 C40.72,50.77 40.72,51.92 41.01,52.92 C41.0979218,52.3740055 41.2283176,51.8357047 41.4,51.31 C41.66,52.81 40.73,53.86 40.62,54.63 Z M4.1,52.4 C4.41814382,52.1178073 4.83554055,51.9738774 5.26,52 C6.21,52.51 5.85,53.76 5.13,54.23 C8.13,54.74 8.81,51.44 12.36,52.5 C10.7,50.95 7.22,51.16 7.07,48.16 C5.68263512,49.2486699 4.64910238,50.724151 4.1,52.4 L4.1,52.4 Z M41.1,55.62 C43.77,55.91 47.35,53.55 45.49,51.04 C47,49.82 45.49,48.04 43.94,48.19 C42.39,48.34 42.19,50.19 42.78,51.66 C43.25,51.24 43.3,50.42 43.78,50.05 C43.5912985,50.7408824 43.3333235,51.4109471 43.01,52.05 C43.66,52.05 43.94,50.96 44.3,51.05 C44.08,51.79 43.12,52.48 43.14,53.05 C43.54,52.81 44.07,52.05 44.43,52.18 C43.91,52.83 43.3,53.41 42.75,54.04 C43.4,53.92 43.75,53.49 44.3,53.3 C43.53,54.28 42.2,54.82 41.14,55.62 L41.1,55.62 Z M68,57.1 C68.56,54.63 67.75,50.71 66.84,48.18 C67.6022608,51.0923272 67.9920381,54.0895801 68,57.1 Z M70.58,64.78 C71.04,64.69 71.23,64.33 71.87,64.41 C71.730146,63.7997601 72.0633091,63.180179 72.6495079,62.9603544 C73.2357067,62.7405299 73.8941158,62.9882714 74.19,63.54 C75.37,59.23 77.45,53.41 75.48,48.54 C70.74,51.17 70.92,58.6 70.57,64.79 L70.58,64.78 Z M52,50.66 C51.6318247,50.0397131 51.1994476,49.4598585 50.71,48.93 C51.0393056,49.5753232 51.4754661,50.1602516 52,50.66 Z M70.59,55.37 C70.87,52.83 72.41,50.84 73.04,49.05 C71.93,50.82 70.57,53 70.57,55.37 L70.59,55.37 Z M23.2,51.9 C23.29,52.56 23.82,52.79 23.97,53.39 C23.3,53.17 23.07,51.86 22.42,52.03 C22.53,53.85 24.65,56.41 26.16,54.26 C26.7142159,54.6377451 27.4525101,54.5986393 27.9637202,54.1644609 C28.4749303,53.7302825 28.6330414,53.0080577 28.35,52.4 C31.14,51.61 29.1,48.61 26.41,49.18 C26.5,49.8 27.75,49.96 27.57,50.42 C27.1533072,50.1508283 26.7227093,49.9038186 26.28,49.68 C26.34,50.28 27.51,50.48 27.28,50.92 C26.91,50.73 26.46,49.98 25.99,50.3 C26.15,50.65 26.94,51.04 26.76,51.3 C26.43,51.12 25.95,50.43 25.6,50.68 C25.78,51.13 26.8,51.42 26.6,51.8 C26.1420898,51.485547 25.6681146,51.1951538 25.18,50.93 C25.18,51.47 26.18,51.71 25.95,52.04 C25.5476718,51.7109435 25.1158415,51.4197092 24.66,51.17 C24.79,51.87 25.59,51.93 25.66,52.66 C25.18,52.29 24.73,51.9 24.24,51.54 C24.39,52.18 24.89,52.49 25.24,52.9 C24.41,52.75 24.24,51.97 23.56,51.66 C23.56,52.27 24.41,52.66 24.21,53.02 C23.9236029,52.6042293 23.5840566,52.2277027 23.2,51.9 L23.2,51.9 Z M69.53,56.24 C69.8191248,53.9215038 70.4739155,51.6634885 71.47,49.55 C71.08,50 69,54.11 69.53,56.24 L69.53,56.24 Z M53.66,51.65 C54.36,51.42 53.55,49.98 53.27,50.29 C53.595095,50.6631506 53.7379391,51.1612734 53.66,51.65 L53.66,51.65 Z M68.76,57.1 C69.0205989,55.2111958 69.1509067,53.3066967 69.15,51.4 C68.8422305,53.2836458 68.7116597,55.1919888 68.76,57.1 L68.76,57.1 Z M62.95,54.1 C62.8798859,55.4582696 61.7288978,56.5066503 60.37,56.45 C59.71,58.75 55.15,57.3 54.69,59.79 C55.49,59.94 55.36,59.2 55.98,59.17 C56.15,60.56 58.41,60.27 58.98,59.42 C59.48,60.58 61.23,59.82 61.56,59.05 C61.9026573,59.2734098 62.3157381,59.3624358 62.72,59.3 C63.58,58.85 63.52,57.51 63.88,56.57 C64.56,57.47 64.65,59.23 64.65,60.41 C66.5,58.41 66.17,53.48 64.52,51.49 C64.16,52.56 64,53.76 63,54.13 L62.95,54.1 Z M39.2,54.84 C39.583078,53.9871955 39.3406533,52.9832417 38.6106248,52.3992189 C37.8805963,51.8151961 36.8479141,51.7990644 36.1,52.36 C34.77,50 32,53.69 34.69,54.26 C33.69,55.76 36.09,57.47 37.4,56.37 C36.92,56.13 35.93,55.72 35.98,55.37 L36.98,55.87 C36.88,55.34 35.74,55.16 35.98,54.76 C36.2809492,55.01483 36.6179272,55.2237564 36.98,55.38 C36.98,54.84 35.98,54.6 36.21,54.26 C36.54,54.37 36.93,55.05 37.21,54.76 C36.8624965,54.4311842 36.5598863,54.0579649 36.31,53.65 C36.75,53.88 37.05,54.27 37.47,54.52 C37.38,53.99 36.97,53.76 36.82,53.28 C37.36,53.51 37.46,54.15 37.98,54.39 C37.98,53.96 37.44,53.39 37.72,53.15 C38,53.54 38.07,54.15 38.49,54.39 C38.6,53.95 38.12,53.39 38.36,53.28 C38.79,53.71 38.82,54.46 39.2,54.87 L39.2,54.84 Z M52.36,52.49 C51.91,52.49 51.58,51.76 51.36,51.99 C51.66,52.13 52,52.86 52.37,52.52 L52.36,52.49 Z M61.14,52.86 C61.14,52.45 61.52,52.31 61.66,51.99 C61.25,52 60.84,52.63 61.15,52.89 L61.14,52.86 Z M21.78,54.63 C21.64,53.23 20.12,51.07 18.94,52.9 C16.29,53.02 18.53,56.17 19.71,55.9 C19.52,55.58 19.1,54.84 19.32,54.54 C19.56,54.85 19.59,55.36 19.97,55.54 C20.12,54.94 19.38,54.54 19.71,54.18 C19.8161664,54.6045024 20.0417329,54.9897006 20.36,55.29 C20.52,54.55 19.6,54.21 19.97,53.68 C20.1255873,54.2139058 20.4393891,54.6880952 20.87,55.04 C20.87,54.5 20.21,53.94 20.48,53.55 C20.66,54.08 21.05,54.41 21.25,54.91 C21.4,54.31 20.66,53.91 20.99,53.55 C21.28,53.79 21.41,54.85 21.78,54.63 Z M22.43,54.38 C22.21,53.63 22.07,52.38 21.66,52.65 C22.82,55.21 23.01,59.36 24.76,60.95 C23.58,59.37 23,56.48 22.43,54.38 Z M61,53.88 C61.5242318,53.4829859 62.0007374,53.0266143 62.42,52.52 C61.8956514,52.9168771 61.4191308,53.3732631 61,53.88 L61,53.88 Z M62,53.76 C62.57,53.76 63.26,53.24 63,52.89 C62.88,53.32 62.4,53.48 62,53.76 L62,53.76 Z M10.37,53.39 C12.9,53.11 13.94,54.26 15.15,55.25 C14.787954,54.3604715 14.0772358,53.6581421 13.1834714,53.306683 C12.289707,52.9552238 11.2909677,52.9853352 10.42,53.39 L10.37,53.39 Z M55.03,54.88 C55.23,54.59 55.03,53.45 54.64,53.77 C55,54 54.78,54.67 55.08,54.87 L55.03,54.88 Z M58.77,54.63 C58.85,54.17 59.22,53.99 59.42,53.63 C59,53.64 58.58,54.35 58.82,54.63 L58.77,54.63 Z M56.24,57.1 C57.6,56.17 60.12,55.1 60.63,54.1 C59.56,55.42 57,55.92 56.24,57.1 Z M5,55.87 C4.49,55.76 4,54.78 3.71,55.13 C4.47029435,58.3891809 6.45822713,61.2295966 9.26,63.06 C11.89,63.06 12.98,61.51 14.26,60.21 C13.6860977,60.0942165 13.1238167,59.926871 12.58,59.71 C12.79,59.29 13.32,59.18 13.35,58.6 C12.12,58.82 9.98,60.02 9.74,58.1 C7.74,59.17 6.95,55.95 8.84,55.5 C8.38,55.16 8.79,54.3 8.71,54.14 C7.86,54.83 6.6,56.22 5,55.87 Z M34,56.12 C34.09,54.12 30.15,53.12 30.26,55.87 C30.52,56.28 30.97,56.51 31.26,56.87 C31.03,57.1 31.17,57.69 31.13,58.11 C32.13,60.19 37.45,59.42 37.71,57.61 C36.741587,58.6048863 35.3057115,58.9888102 33.97,58.61 C34.6052321,58.5944543 35.2268638,58.4227328 35.78,58.11 C34.8295225,58.3509688 33.8211531,58.1202718 33.07,57.49 C33.54,57.62 34.47,57.96 35.01,57.61 C34.0917206,57.4713881 33.286078,56.9232568 32.82,56.12 C33.32,56.22 33.82,57.01 34.24,56.74 C33.5123878,56.3258438 32.9083191,55.7252269 32.49,55 C33.14,55.25 33.42,55.85 34,56.11 L34,56.12 Z M54.52,56.24 C54.44,55.65 54.52,54.95 54.13,54.63 C54.1664633,55.1896564 54.3125654,55.73669 54.56,56.24 L54.52,56.24 Z M11.15,56.49 C11.21,57.49 12.4,57.9 13.86,57.85 C14.3333809,57.4273733 14.726379,56.922574 15.02,56.36 C14.36,55 11.08,54.59 11.2,56.49 L11.15,56.49 Z M60.32,55.62 C60.8492374,55.7267451 61.3944004,55.5347863 61.74,55.12 C61.2651455,55.2318297 60.8052567,55.3996723 60.37,55.62 L60.32,55.62 Z M22.81,59 C22.71,58 22.31,57.25 22.16,56.27 C20.28,56.3 21,59.34 22.81,59 Z M57.92,57.27 C58.54,57.32 59.45,57.01 59.21,56.65 C59,57 58.1,56.79 57.92,57.23 L57.92,57.27 Z M16.1,58.84 C14.73,60.84 19.1,60.96 19.2,59.71 C18.9,59.84 18.1,60.13 17.78,59.83 C18.28,59.61 19.08,59.67 19.33,59.21 C18.96,59.21 18.33,59.55 18.04,59.21 C18.38,59.04 19.04,59.15 19.04,58.71 C18.57,58.64 17.97,59.08 17.62,58.71 C17.83,58.45 19.14,58.61 18.78,58.21 C18.59,58.21 17.62,58.44 17.49,58.09 C18.09,58.09 18.77,58.16 19.04,57.84 C18.5550105,57.8485486 18.0729085,57.7636715 17.62,57.59 C17.97,57.31 19.03,57.71 19.17,57.22 C17.61,56.68 14.66,57 16.1,58.84 Z M28,59.58 C28.6,60.64 31,60.2 31.87,59.58 C30.26,60.18 27.54,59.25 29.42,58.09 C29.91,57.88 30.27,58.8 30.32,58.21 C30.0927678,57.7609712 29.6346362,57.4756104 29.1314206,57.4696582 C28.628205,57.4637061 28.1634519,57.7381508 27.9256623,58.1816793 C27.6878728,58.6252077 27.7165259,59.164183 28,59.58 L28,59.58 Z M41,61.69 C41.31,62.47 41.89,62.98 41.9,64.04 C44.39,63.54 47.48,63.61 49.39,62.55 C48.48,62.21 48.51,61.43 47.71,61.06 C46.91,60.69 46.25,60.98 45.39,60.81 C43.52,60.44 42.65,58.87 41.26,58.21 C41.3419422,59.3764693 41.254365,60.5486571 41,61.69 L41,61.69 Z M66.68,58.59 C67.87,57.97 69.42,58.75 70.16,58.84 C69.6,58.25 67.47,57.84 66.7,58.59 L66.68,58.59 Z M36.36,61.32 C36.7512959,60.9122833 37.08749,60.4550593 37.36,59.96 C36.56,60.52 35.7,61.67 34.78,61.69 C35.3885415,61.3535276 35.9172557,60.8896235 36.33,60.33 C35.45,60.48 34.77,61.47 33.88,61.2 C34.5347504,60.9696516 35.1464817,60.6316785 35.69,60.2 C33.14,59.46 31.16,60.99 31.95,62.8 C32.56,64.19 34.84,63.9 35.82,62.92 C38.71,63.72 39.89,60.6 39.18,58.34 C38.86,59.23 38.35,60.6 37.63,60.69 C37.87,60.34 38.46,59.69 38.28,59.33 C37.84,60.09 37.09,61.23 36.36,61.32 Z M70.05,59.71 C69.44,58.71 66.83,58.77 66.05,59.59 C67.19,58.76 69.68,59.35 70.05,59.71 Z M68,61.56 C68.3952195,61.5969921 68.7846278,61.6809163 69.16,61.81 C69.3,60.4 68.96,59.44 67.48,59.58 C67.35,60.06 68.24,60.55 68,61.56 Z M64.52,61.56 C65.31,61.88 66.52,60.94 67.52,61.81 C68.23,59.29 64.73,59.84 64.5,61.56 L64.52,61.56 Z M69.52,61.68 C69.91,61.59 69.9,61.89 70.29,61.8 C70.42042,61.4341248 70.3985929,61.0312202 70.2294101,60.6815758 C70.0602273,60.3319313 69.7578356,60.0647838 69.39,59.94 C69.5213635,60.5134454 69.5685249,61.1029635 69.53,61.69 L69.52,61.68 Z M61.91,61.43 C62.47,61.43 62.91,60.65 62.68,60.32 L61.91,61.43 Z M20.91,64.28 C21.4,64.28 21.54,63.89 21.91,63.78 C23.55,65.78 24.65,61.44 23.2,60.68 C23.2685785,61.2695247 23.1788332,61.8666759 22.94,62.41 C22.86,61.95 23.11,61.18 22.81,60.92 C22.57,61.31 22.72,62.07 22.42,62.41 C22.3431236,62.0439932 22.3431236,61.6660068 22.42,61.3 C21.88,61.3 22.24,62.2 21.9,62.41 C21.82,61.99 22.07,61.26 21.77,61.05 C21.58,61.48 21.59,62.12 21.25,62.41 C21.11,61.81 21.65,61.23 21.25,60.8 C20.94,61.29 20.93,62.06 20.48,62.41 C20.48,61.71 21.11,60.96 20.87,60.41 C20.23,61.28 19,63.88 20.88,64.29 L20.91,64.28 Z M54.34,61.68 C54.8647249,61.4882513 55.2853328,61.085773 55.5,60.57 C55.11,60.9 54.27,61.4 54.3,61.69 L54.34,61.68 Z M57.34,61.8 C57.91,61.8 58.47,61.15 58.24,60.8 C58,61.26 57.58,61.49 57.27,61.81 L57.34,61.8 Z M59.79,61.92 C60.07,61.64 60.87,61.23 60.56,60.81 C60.41,61.27 59.44,61.53 59.73,61.94 L59.79,61.92 Z M16.55,61.3 C16.339634,63.3178654 16.339634,65.3521346 16.55,67.37 C17.18,66.2 18.2,67.15 19,67.12 C19.6,67.12 20,66.19 20.81,66.62 C19.81,65.29 18.21,63.28 19.39,61.05 C18.4460671,61.3061783 17.4650012,61.3975189 16.49,61.32 L16.55,61.3 Z M63,62.06 C63,61.9 63.2,61.81 62.87,61.81 C60.06,63.59 54.36,61.81 51.25,62.55 C55.19,62.48 59.86,63.42 63,62.06 Z M65.19,62.06 C65.3908919,62.6183635 65.521888,63.1994491 65.58,63.79 C66.34,63.68 66.65,64 67.26,64.04 C67.78,62.59 66.59,61.2 65.15,62.06 L65.19,62.06 Z M62.35,62.68 C62.35,63.2 63.15,62.99 63.12,63.55 C63.7728282,63.3540748 64.4781712,63.4449695 65.06,63.8 C65.4,61.43 63.42,62 62.31,62.68 L62.35,62.68 Z M67.77,62.43 C67.58,62.89 67.77,63.34 67.64,64.04 C68.2028518,64.0032702 68.7680829,64.0436438 69.32,64.16 C70,62.94 68.67,61.28 67.73,62.43 L67.77,62.43 Z M69.96,65.28 C70.36,64.5 71.07,62.19 69.57,62.06 C69.94,63.14 69.15,64.63 69.92,65.28 L69.96,65.28 Z M39.76,63.67 C40.3018391,63.4393455 40.9307648,63.5894761 41.31,64.04 C41.31,63.2 41.12,62.57 40.54,62.31 C40.37,62.89 39.85,63.09 39.72,63.67 L39.76,63.67 Z M28.23,70.24 C28.23,72.78 25.23,74.94 27.33,77.3 C29.6,74.63 30.65,70.46 30.17,65.53 C28.6334558,64.8705727 27.1989714,63.9950658 25.91,62.93 C27,65.52 28.24,67.36 28.23,70.24 Z M51.72,63.3 C52.72,63.74 53.1,64.7 53.91,65.3 C54.64,65.14 54.7,64.3 54.68,63.44 C53.7591779,62.9705857 52.6810164,62.9195916 51.72,63.3 L51.72,63.3 Z M60.37,65.16 C61.55,64.73 61.72,66.16 62.31,66.03 C62.68,65.96 63.14,64.68 63.08,64.3 C62.94,63.37 61.87,62.93 60.76,63.06 C60.8122306,63.7818617 60.6779288,64.505025 60.37,65.16 L60.37,65.16 Z M56.5,65.16 C57.1979568,64.8188518 57.6003729,64.0703578 57.5,63.3 C56.5,63.48 55.62,62.96 54.92,63.3 C55.5298518,63.8442388 56.0615499,64.4701619 56.5,65.16 Z M58.18,63.43 C58.8677492,63.7606457 59.4495734,64.2766684 59.86,64.92 C60.39,64.72 60.51,63.78 60.38,63.31 C59.6529749,63.1179109 58.8842381,63.1563477 58.18,63.42 L58.18,63.43 Z M52.37,73 C55.81,71.14 54.15,64 50.95,63.59 C54.09,64.56 55.25,70.76 52.37,73 Z M72.25,63.59 C72.13,64.49 72.46,64.96 73.41,64.83 C73.6403858,64.5090963 73.733906,64.1098369 73.67,63.72 C73.43,63.33 72.65,63.38 72.24,63.55 L72.25,63.59 Z M25.4,64.33 C25.4,64.33 25.13,63.59 25.27,64.21 C25.74,66.21 26.19,68.86 25.01,70.4 C26.71,69.19 26.24,65.63 25.39,64.29 L25.4,64.33 Z M63.08,66 C63.5440339,65.9181081 64.0199175,66.0546018 64.37,66.37 C65.28,65.58 65.37,63.37 63.37,63.77 C63.3705529,64.5227709 63.2730664,65.2724083 63.08,66 L63.08,66 Z M54.08,66 C54.3731177,66.4464008 54.5517161,66.9581539 54.6,67.49 C55.3454649,67.2665994 55.8936529,66.6310623 56.0052113,65.8608802 C56.1167697,65.0906981 55.7714393,64.3257377 55.12,63.9 C54.8703762,64.6592706 54.4914724,65.3697153 54,66 L54.08,66 Z M57.82,63.89 C57.71,64.78 56.93,65.02 56.66,65.75 C57.66,65.75 57.74,66.53 58.47,66.75 C60,66.46 59.65,63.66 57.79,63.92 L57.82,63.89 Z M65.56,64.26 C65.39,64.97 65.21,65.66 65.04,66.37 C65.56,66.11 66.04,66.37 66.59,66.49 C67.36,65.71 67.18,63.65 65.53,64.29 L65.56,64.26 Z M33.29,66.26 C33.8442675,67.8241771 34.4921036,69.3536046 35.23,70.84 C36.0031856,69.5071209 37.2319685,68.4985246 38.69,68 C38.4752953,67.5871768 38.4359437,67.1052672 38.5808304,66.6630806 C38.7257171,66.220894 39.0426249,65.8557162 39.46,65.65 C38.86,65.53 39.2,64.5 38.69,64.29 C37.0498575,65.3383968 35.1997175,66.0142782 33.27,66.27 L33.29,66.26 Z M51.23,67.62 C50.84,67.53 50.08,67.17 49.81,67.37 C50.26,67.73 51.02,67.77 51.36,68.24 C50.84,68.24 50.27,67.64 49.81,67.99 C50.3,68.35 51.12,68.39 51.49,68.86 C50.8785076,68.724418 50.2743792,68.5575317 49.68,68.36 C49.87,68.96 50.84,68.82 51.1,69.36 C50.5632184,69.2637185 50.04186,69.0955384 49.55,68.86 C49.64,69.48 51.04,69.49 50.84,69.98 C50.33,69.84 49.53,69.34 49.16,69.48 C49.44,69.76 50.38,70.04 50.16,70.35 C49.73,70.22 49,69.74 48.74,69.85 C49.02,70.28 49.6,70.43 49.9,70.85 C49.32,70.85 48.82,70.07 48.35,70.35 C48.67,70.7 49.22,70.84 49.35,71.35 C48.76,71.13 48.35,70.73 47.8,70.48 C47.69,70.92 48.46,71.16 48.19,71.35 C47.76,71.23 47.59,70.85 47.19,70.73 C47.19,71.41 48.24,71.73 48.09,72.09 C47.54,71.74 46.86,70.88 46.28,70.98 C46.44,71.33 47.23,71.72 47.05,71.98 C46.39,71.66 46.05,70.98 45.37,70.74 C45.44,71.29 46.26,71.74 46.14,72.1 C45.51,71.55 45.14,70.77 44.33,70.37 C44.52,73.11 50.05,74.92 50.78,71.48 C52.72,71.35 53.46,68.61 52.07,67.39 C52.99,64.89 49.54,63.45 47.68,64.79 C48.6126248,64.7862237 49.5201045,65.0922343 50.26,65.66 C49.84,65.44 49.13,65.51 48.71,65.29 C49.14,65.86 50.37,65.68 50.77,66.29 C50.21,66.29 49.54,65.82 49.09,66.17 C49.7412011,66.2777818 50.3598091,66.5306934 50.9,66.91 C50.43,66.98 49.79,66.58 49.61,66.79 C50.06,67.16 50.95,67.1 51.21,67.63 L51.23,67.62 Z M67.36,64.62 C67.6,65.17 67.28,65.53 67.23,66.35 C68.23,66.17 68.49,66.79 69.17,66.97 C70.29,65.9 69,63.5 67.34,64.66 L67.36,64.62 Z M20.62,69.49 C23.73,70.85 25.74,66.74 23.98,64.49 C23.67,66.85 19.75,66.86 20.62,69.49 Z M40.88,66 C40.7,65.54 41.21,64.69 40.75,64.76 C40.57,65.21 40.4,65.72 40.88,66 Z M71.34,64.89 C70.9545066,64.9647641 70.6761249,65.3023235 70.6761249,65.695 C70.6761249,66.0876765 70.9545066,66.4252359 71.34,66.5 C72.32,66.24 72.25,64.8 71.34,64.91 L71.34,64.89 Z M72.34,65.26 C72.48,66.1 71.98,66.31 71.82,66.87 C72.34,66.87 72.22,67.4 72.59,67.49 C72.84,66.66 73.18,65.91 73.49,65.14 C73.13,65.18 72.59,65.07 72.37,65.28 L72.34,65.26 Z M48.24,66.77 C47.9711801,66.1087296 47.3943398,65.6219592 46.6972812,65.4681669 C46.0002226,65.3143746 45.2721118,65.5132331 44.75,66 C47.54,65.07 47.64,68.78 45.52,68.73 C44.66,68.73 44.46,67.99 43.84,67.49 C44.16,70.78 49,69.84 48.24,66.77 Z M59.08,67 C60.08,67 60.4,67.63 61.02,68 C62.53,67.49 62.02,64.94 59.86,65.52 C60,66.4 59.19,66.38 59.08,67 Z M63.34,74.56 C64.53,75.11 65.26,76.1 66.44,76.67 C68.5136377,74.2193828 70.3298513,71.5620813 71.86,68.74 C71.3197053,68.9335833 70.7213807,68.6792394 70.4858611,68.1558625 C70.2503415,67.6324857 70.45679,67.0159938 70.96,66.74 C70.53,66.62 70.51,66.1 70.06,66 C68.67,69.69 66,72.14 63.34,74.57 L63.34,74.56 Z M56.34,66.14 C56.1068997,66.7327885 55.7680672,67.2783089 55.34,67.75 C56.23,67.88 56.42,68.69 57.02,69.11 C58.43,68.58 58.34,66 56.37,66.15 L56.34,66.14 Z M62.28,66.51 C62.2241198,67.0357826 62.0570942,67.543677 61.79,68 C62.34,68.14 62.7,68.45 63.21,68.62 C63.8626701,68.2428804 64.219312,67.5058206 64.11,66.76 C63.5956172,66.365005 62.9099052,66.2735768 62.31,66.52 L62.28,66.51 Z M64.47,66.88 C64.55,67.66 64.1,67.88 63.95,68.49 C64.5636299,68.4600586 65.1774612,68.5448419 65.76,68.74 C67,67.81 66.14,66 64.5,66.89 L64.47,66.88 Z M39.85,68 C40.69,68.22 41.24,67.15 40.62,66.76 C40.55,67.35 40.13,67.61 39.85,68 Z M66.85,66.89 C66.66,67.37 66.65,68.02 66.46,68.5 C67.0685875,68.3701909 67.7014336,68.558538 68.14,69 C68.6537017,68.4689256 68.806534,67.6851704 68.53,67 C67.9971062,66.7381494 67.3820513,66.6985845 66.82,66.89 L66.85,66.89 Z M70.85,68.13 C71.33,68.46 72.17,68.41 72.14,67.63 C71.86,66.85 70.24,67.37 70.83,68.13 L70.85,68.13 Z M57.92,69 C58.6923645,69.0856373 59.3711982,69.5506946 59.73,70.24 C61.09,69.41 60.73,67.01 58.44,67.39 C58.48,68.13 58,68.4 57.92,69 Z M25.52,75.57 C25.84,72.91 28.05,70.86 26.94,67.64 C27.27,70.91 24.69,72.61 25.52,75.56 L25.52,75.57 Z M41,69.62 C42,70.56 43,68.41 42,67.76 C42,68.69 41.45,69.09 41,69.62 Z M54.42,71.35 C56.75,71.5 57.24,67.97 54.68,68.01 C54.7137463,69.1290136 54.629954,70.2484789 54.43,71.35 L54.42,71.35 Z M60.63,70 C61.280521,70.1793856 61.8935707,70.4740559 62.44,70.87 C62.9109071,70.3697347 63.1184314,69.6767517 63,69 C62.63,68.52 61.87,68.43 60.93,68.5 C60.90753,69.0124279 60.8063461,69.5183473 60.63,70 L60.63,70 Z M39.72,68.75 C38.09,68.18 35.43,70.43 35.33,71.48 C35.2,72.84 37.19,74.65 37.27,75.82 C38.49,75.05 41.66,75.08 42.82,73.82 C41.6987069,72.18538 40.6639512,70.4930538 39.72,68.75 L39.72,68.75 Z M63.47,69.12 C63.26,69.58 63.25,70.23 63.08,70.73 C65.15,72.56 66.47,67.81 63.47,69.12 Z M65.28,70.85 C66.6,70.8 67.63,70.47 67.6,69.12 C66.1,68.15 65.58,69.89 65.28,70.86 L65.28,70.85 Z M20.1,76.93 C19.95,74.14 22.49,73.93 23.1,71.85 C22.4576693,71.8910076 21.8201986,71.7149107 21.29,71.35 C20.47,72.49 18.21,72.2 18.58,70.24 C17.27,70.43 16.9,69.71 16.39,69.13 C16.94,72.37 18,75.18 20.1,76.93 Z M59.34,70.36 C59.17,69.26 56.5,68.6 56.76,70.61 C57.2262398,70.9487252 57.575688,71.4239749 57.76,71.97 C58.71,71.78 59.46,71.15 59.34,70.36 L59.34,70.36 Z M59.34,71.6 C60.051677,71.6475257 60.6841835,72.0704667 61,72.71 C63.55,71.61 59.86,68.91 59.34,71.6 L59.34,71.6 Z M57.28,72.72 C58.04,70.99 55.79,70.61 54.7,71.85 C55.2282186,72.3128661 55.4749433,73.0188783 55.35,73.71 C56.19,73.51 57,73.26 57.27,72.71 L57.28,72.72 Z M62.18,71.48 C62.32,72.11 61.89,72.19 61.92,72.72 C62.92,72.59 63.24,73.1 63.73,73.46 C65.32,72.53 63.64,70.2 62.18,71.47 L62.18,71.48 Z M64.76,71.48 C64.84,71.82 64.6,72.48 64.89,72.6 C65.36,72.1 66.03,71.79 66.31,71.11 C65.7670961,71.0443882 65.2184114,71.1718246 64.76,71.47 L64.76,71.48 Z M52.76,73.48 C53.2042175,73.8548115 53.4812222,74.3908337 53.53,74.97 C55.33,75.05 55.53,72.25 53.92,71.97 C53.66,72.59 53.11,72.93 52.76,73.46 L52.76,73.48 Z M60.37,72.37 C59.5516085,71.8637744 58.4959728,71.9660647 57.79,72.62 C58.4934658,73.0442104 58.9310954,73.7987441 58.95,74.62 C59.506359,74.6454334 60.0330985,74.368492 60.3275303,73.8957425 C60.621962,73.422993 60.6382015,72.8281087 60.37,72.34 L60.37,72.37 Z M20.49,77.57 C21.35,79 25.49,79.66 26.43,77.82 C25.38,77.26 24.31,76.88 24.11,75.71 C23.94,74.71 24.49,73.6 23.72,72.71 C23,74.67 20.63,75 20.49,77.55 L20.49,77.57 Z M57.4,73 C56.9846021,73.552497 56.3911555,73.9445956 55.72,74.11 C56.4735056,74.6351633 56.7465357,75.6222721 56.37,76.46 C58.51,76.56 59.29,73.65 57.4,73 Z M61.01,73.12 C60.9376012,73.4730236 60.805723,73.8111728 60.62,74.12 C61.73,73.93 63,74.66 63.2,73.62 C62.6153253,73.060581 61.7752848,72.8582076 61,73.09 L61.01,73.12 Z M45.78,75.12 C45.54,74.94 45.21,74.84 45.26,74.38 C45.301396,74.1277146 45.4684532,73.9138934 45.7032311,73.812696 C45.9380089,73.7114987 46.2081646,73.7368661 46.42,73.88 C45.06,71.67 43.44,75.51 45.79,75.07 L45.78,75.12 Z M52.36,76.73 C53.46,76.28 53.21,73.85 52.23,73.88 C53.33,74.41 52.65,76.19 52.37,76.68 L52.36,76.73 Z M49.65,76.73 C49.56,76.24 48.73,76.46 48.65,75.99 C48.47,74.99 49.06,74.82 49.65,74.63 C46.68,73.5 46.87,77.23 49.66,76.68 L49.65,76.73 Z M53.52,75.37 C53.52,75.99 52.87,76.56 53.13,76.98 C53.72,76.84 55.01,76.87 55.84,76.61 C56.36,75.85 56.08,74.52 55.07,74.5 C54.7092293,74.994632 54.1417819,75.2967793 53.53,75.32 L53.52,75.37 Z M39.45,76.11 C40.57,75.99 41.96,75.47 42.16,74.87 C41.47,75.42 40.28,75.56 39.46,76.06 L39.45,76.11 Z M58.29,76.23 C58.6052333,76.2658958 58.9153837,76.1293253 59.1017469,75.8725582 C59.2881101,75.6157912 59.3218296,75.2785853 59.19,74.99 C58.712789,75.2104739 58.381004,75.6591377 58.31,76.18 L58.29,76.23 Z M64.1,75.86 C63.7,75.62 63.1,74.96 62.68,75.12 C63.24,75.16 63.77,75.93 64.11,75.81 L64.1,75.86 Z M40.1,76.73 C41.1,76.46 42.41,75.89 42.55,75.24 C42,75.94 40.84,76.1 40.11,76.68 L40.1,76.73 Z M60.24,78 C59.54,77.38 59.87,75.84 59.98,75.27 C59.34,75.86 59.52,78.14 60.24,78 Z M40.24,78.37 C39.41,78.21 39.24,77.07 38.3,77.63 C40.68,80.35 46.53,78.18 49.53,77.38 C47.7008436,77.0391344 45.9510703,76.3609277 44.37,75.38 C43.77,76.87 42.19,78.79 40.24,78.41 L40.24,78.37 Z M63.86,76.8 C63.24,76.49 62.74,75.4 62.05,75.56 C62.75,75.8 63.3,76.83 63.86,76.8 Z M41,77.17 C41.62,76.73 42.9,76.27 42.94,75.68 C42.51,76.31 41.09,76.62 41,77.17 Z M41.77,77.42 C42.46,77.13 43.5,76.52 43.45,75.93 C43.1,76.62 42.3,76.88 41.79,77.42 L41.77,77.42 Z M62.68,76.92 C62.28,76.72 61.99,75.77 61.52,76.05 C62,76.22 62.36,77.08 62.69,76.93 L62.68,76.92 Z M61.91,77.66 C61.6825512,77.1375965 61.3408314,76.6728575 60.91,76.3 C61.1422649,76.8251273 61.4870581,77.2928171 61.92,77.67 L61.91,77.66 Z M58.55,76.55 C56.7697352,76.9856097 54.9571625,77.2765577 53.13,77.42 C56.07,77.57 57.41,79.26 60.13,79.65 C59.42,78.79 59.43,77.25 58.56,76.55 L58.55,76.55 Z M64.75,78.29 C65.49,78.22 65.75,77.72 66.04,77.18 C65.3,76.78 64.55,77.35 64.76,78.29 L64.75,78.29 Z M63,79.4 C63.5137092,79.302017 63.9989313,79.0901595 64.42,78.78 C64.23,77.73 62.46,78.09 63,79.4 Z M60.93,79.77 C61.4493372,79.7804158 61.9684544,79.7402261 62.48,79.65 C62.59,79.3 62.3,79.33 62.35,79.03 C61.65,78.74 60.8,79 60.89,79.77 L60.93,79.77 Z" id="Shape" stroke-width="1" fill="#E61F19"/>
        </g>
    </g>
</svg>