<?xml version="1.0" encoding="UTF-8" standalone="no"?><svg xmlns="http://www.w3.org/2000/svg" xmlns:xlink="http://www.w3.org/1999/xlink" width="61.1706657409668" height="184.8931884765625" viewBox="0.34973907470703125 -0.10091710090637207 61.1706657409668 184.8931884765625" version="1.1">
    <!-- Generator: Sketch 46.2 (44496) - http://www.bohemiancoding.com/sketch -->
    <title>Grandma-a</title>
    <desc>Created with Sketch.</desc>
    <defs/>
    <g id="Page-1" stroke="none" fill-rule="evenodd">
        <g id="Grandma-a">
            <path d="M22.5,63.26 L19.44,62.83 C19.44,62.83 22.8,58.75 26.67,56.97 C28.5164895,56.1431443 30.618489,56.0962729 32.5,56.84 C34.72,57.69 38.05,59.48 39.61,62.84 L37,63 C37,63 32.08,60.16 29.54,60.63 C27.0440067,61.0381599 24.6522387,61.9316755 22.5,63.26 Z" id="Shape" fill="#FF3035" fill-rule="nonzero" stroke-width="1"/>
            <polygon id="Shape" fill="#FCEAD9" fill-rule="nonzero" points="24.74 56.11 24.74 69.08 35.98 69.08 35.98 55.4" stroke-width="1"/>
            <path d="M19.4,124.56 C19.4,124.56 20.19,138.25 21.27,141 C21.27,141 19.27,149.93 24.47,164.81 L24.47,174.47 C24.47,174.47 22.59,179.65 23.21,181.9 C23.21,181.9 25.52,184.01 28.35,181.48 C28.736553,179.769301 28.6325692,177.984246 28.05,176.33 L27.05,124.56" id="Shape" fill="#FCEAD9" fill-rule="nonzero" stroke-width="1"/>
            <path d="M37.74,124.56 C37.74,124.56 37,138.25 35.87,141 C35.87,141 37.87,149.93 32.67,164.81 L32.67,174.47 C32.67,174.47 34.55,179.65 33.93,181.9 C33.93,181.9 31.93,184.6 28.8,181.74 C28.417821,179.942022 28.5213694,178.074699 29.1,176.33 L30.1,124.56" id="Shape" fill="#FCEAD9" fill-rule="nonzero" stroke-width="1"/>
            <path d="M23.28,179 C23.28,179 26.87,180.75 28.45,178.26 C28.45,178.26 29.81,182.58 26.9,184.06 C26.9,184.06 20.9,185.35 22.26,181.85 C22.4788513,180.860902 22.8215546,179.903349 23.28,179 L23.28,179 Z" id="Shape" fill="#F24E4E" fill-rule="nonzero" stroke-width="1"/>
            <path d="M33.82,179 C33.82,179 30.31,180.75 28.76,178.26 C28.76,178.26 27.43,182.58 30.28,184.06 C30.28,184.06 36.12,185.35 34.83,181.85 C34.6125177,180.861879 34.2732589,179.904565 33.82,179 L33.82,179 Z" id="Shape" fill="#F24E4E" fill-rule="nonzero" stroke-width="1"/>
            <path d="M12.82,29.95 C12.82,29.95 11.8,45 15,49.44 C15,49.44 17.42,55.36 26.08,57.21 C26.08,57.21 38.7,59.65 45.08,50.37 C47.8636023,44.2187403 48.7446593,37.3757484 47.61,30.72 C47.61,30.72 28.59,8 12.82,29.95 Z" id="Shape" fill="#FCEAD9" fill-rule="nonzero" stroke-width="1"/>
            <path d="M13.78,45.58 C13.78,45.58 8.38,44.99 9.06,37.74 C9.06,37.74 9.31,34.28 13.78,34.2" id="Shape" fill="#FCEAD9" fill-rule="nonzero" stroke-width="1"/>
            <path d="M46.9,45.58 C46.9,45.58 52.3,44.99 51.62,37.74 C51.62,37.74 51.37,34.28 46.9,34.2" id="Shape" fill="#FCEAD9" fill-rule="nonzero" stroke-width="1"/>
            <path d="M11,40.18 L11,40.18 C10.8288109,39.9133199 10.5526612,39.7316425 10.24,39.68 C7.97,39.31 -1.27,37.28 4.24,29.03 C4.53035147,28.5988195 4.4890823,28.025178 4.14,27.64 C2.65,26.01 -0.6,21.59 4.63,18.28 C4.997916,18.0550998 5.20404379,17.638955 5.16,17.21 C4.92,15.21 5.04,9.27 13.88,6.96 C14.1375019,6.89693074 14.3642826,6.74456245 14.52,6.53 C15.18,5.59 17.52,2.96 22.29,3.53 C22.5810795,3.55989028 22.8721876,3.47363603 23.1,3.29 C24.64,2 31.15,-2.4 38,3.09 C38.2496529,3.29172165 38.5727756,3.37885587 38.89,3.33 C40.39,3.09 44.89,2.71 46.78,6.65 C46.9315742,6.97505984 47.2284637,7.20886035 47.58,7.28 C49.73,7.71 57.11,9.75 56.04,17.33 C55.9927574,17.6762358 56.111317,18.0245048 56.36,18.27 C57.62,19.51 61.09,23.57 57.16,27.45 C56.815012,27.8075589 56.749657,28.3508224 57,28.78 C58.24,31.16 61.16,38.45 51,39.38 C50.7364096,39.4014669 50.4886982,39.5147064 50.3,39.7 L50.21,39.79 C49.8809119,40.1191846 49.3825232,40.210513 48.9580935,40.0194086 C48.5336638,39.8283041 48.2716743,39.3946064 48.3,38.93 C48.4609912,37.0490434 48.2952111,35.1544139 47.81,33.33 C47.6552029,32.819102 47.1613409,32.4884656 46.63,32.54 C44.71,32.73 39.88,32.54 35.92,27.21 C35.737256,26.9426927 35.4486202,26.7666239 35.1273174,26.7264611 C34.8060145,26.6862982 34.4829198,26.7859006 34.24,27 C33.03,28 30.54,29.19 26.65,26.77 C26.1775093,26.4787024 25.5624757,26.581208 25.21,27.01 C23.67,28.87 19.45,33.32 14.93,32.68 C14.6166661,32.6314652 14.2974427,32.7180137 14.0515348,32.9181713 C13.8056269,33.1183289 13.6560802,33.4133374 13.64,33.73 C13.5693581,35.7399666 13.3756621,37.7437187 13.06,39.73 C12.9990901,40.1988846 12.6502869,40.57901 12.1883557,40.6799173 C11.7264245,40.7808246 11.2508839,40.5807743 11,40.18 Z" id="Shape" fill="#E3DDD8" fill-rule="nonzero" stroke-width="1"/>
            <path d="M15.25,37.1 C18.0645501,34.6305376 22.3152619,34.7795316 24.95,37.44 C24.95,37.44 20.14,34.91 15.25,37.1 Z" id="Shape" fill="#E3DCDA" fill-rule="nonzero" stroke-width="1"/>
            <path d="M35.14,37.1 C37.9545501,34.6305376 42.2052619,34.7795316 44.84,37.44 C44.84,37.44 40,34.91 35.14,37.1 Z" id="Shape" fill="#E3DCDA" fill-rule="nonzero" stroke-width="1"/>
            <path d="M37.11,43.75 C37.11,43.75 41.25,40.75 44.11,44.75 C44.11,44.75 44.54,45 44.44,44.36 C44.44,44.36 46.08,43.18 45.78,42.43 C45.3450526,42.8502731 44.764812,43.0866675 44.16,43.09 C44.16,43.09 44.84,42.37 44.39,41.83 C44.39,41.83 43.73,42.83 43.33,42.56 C43.34,42.53 39.61,39.11 37.11,43.75 Z" id="Shape" fill="#5E4944" fill-rule="nonzero" stroke-width="1"/>
            <path d="M22.89,43.41 C22.89,43.41 18.75,40.41 15.89,44.41 C15.89,44.41 15.46,44.66 15.56,44.02 C15.56,44.02 13.92,42.84 14.22,42.09 C14.6549474,42.5102731 15.235188,42.7466675 15.84,42.75 C15.84,42.75 15.16,42.03 15.61,41.49 C15.61,41.49 16.27,42.49 16.67,42.22 C16.65,42.2 20.39,38.77 22.89,43.41 Z" id="Shape" fill="#5E4944" fill-rule="nonzero" stroke-width="1"/>
            <path d="M26.23,52.4 L34.5,52.4 C34.5,52.4 30.47,58.56 26.23,52.4 Z" id="Shape" fill="#FC8F84" fill-rule="nonzero" stroke-width="1"/>
            <path d="M27.89,54.23 L32.84,54.15 C32.84,54.15 30.26,56.34 27.89,54.23 Z" id="Shape" fill="#EF5C5F" fill-rule="nonzero" stroke-width="1"/>
            <path d="M24.08,32.71 C24.08,32.71 31.17,36.51 36.65,33.13" id="Shape" stroke="#F7DECB" stroke-width="0.75" fill="none"/>
            <path d="M24.08,30.55 C24.08,30.55 31.17,34.35 36.65,30.97" id="Shape" stroke="#F7DECB" stroke-width="0.75" fill="none"/>
            <path d="M15.93,45.72 C15.93,45.72 18.93,49.43 22,46.14" id="Shape" stroke="#F7DECB" stroke-width="0.75" fill="none"/>
            <path d="M37.52,46.06 C37.52,46.06 40.52,49.77 43.59,46.48" id="Shape" stroke="#F7DECB" stroke-width="0.75" fill="none"/>
            <path d="M51.18,66.23 C51,65 46.56,62.9 44.53,62 C43.3472563,61.3893227 42.0308278,61.0834164 40.7,61.11 L40.17,61.11 C38.69,61.11 37.27,60.64 36.09,61.53 C31.62,64.9 26.75,62.61 24.44,61.12 C23.44,60.45 22.18,61.12 20.94,61.12 L19.11,61.12 C18.170377,61.1132787 17.2366527,61.2688995 16.35,61.58 L16.35,61.58 C15.9608725,61.7211538 15.5858871,61.8986022 15.23,62.11 C13.37,63.02 9.89,64.88 9.71,66.11 C9.71,66.11 -1,93.11 1.13,99.65 C1.13,99.65 3.82,106.74 10.41,100.65 L12.95,97.44 C11.46,115.71 8.33,134.72 9.55,144.74 C9.96,148.15 9.55,152.4 13.38,153.21 C34.62,157.74 33.92,156.21 45.26,152.96 C49.09,151.87 49.34,147.96 49.53,144.02 C50.27,128.38 49.53,111.58 48.69,97.1 L51.49,100.65 C58.08,106.78 60.77,99.65 60.77,99.65 C62.86,93 51.18,66.23 51.18,66.23 Z M12.77,84.69 C12.77,84.69 11.66,85.25 12.1,83.19 L13.63,79 C13.63,80.34 13.63,81.71 13.63,83.09 L12.77,84.69 Z M49.06,84.69 L47.79,82.4 C47.69,80.57 47.6,78.82 47.52,77.15 L49.73,83.15 C50.17,85.25 49.06,84.69 49.06,84.69 Z" id="Shape" fill="#FE6766" fill-rule="nonzero" stroke-width="1"/>
            <path d="M42.09,101.2 C40.6715323,101.308617 39.2955604,100.686602 38.44,99.55 C37.1,97.36 37.53,96.66 38.44,96.55 C40.23,96.35 41.74,95.47 41.91,94.15 C42.52,89.55 41.2,88.94 39.85,89.35 C38.5,89.76 36.92,89.25 36.64,88.19 C33.23,74.93 49.93,64.93 49.93,64.93 C48.37,63.53 43.93,61.71 43.93,61.71 C42.57,60.8 39.39,60.92 38.15,61 L37,61 C37,61 32.49,63.73 30.16,63.28 C27.8523531,62.8788681 25.6507978,62.0111763 23.69,60.73 L20.89,61.15 L20.89,61.2 L20.89,61.2 C18.9236267,60.9770435 16.9346123,61.3241664 15.16,62.2 C15.16,62.2 11.05,64.1 10.89,64.68 C10.89,64.68 24.54,75.25 26.18,88.06 C26.2579928,88.6263869 26.5746537,89.1323164 27.05,89.45 C27.95,90.07 28.84,91.72 24.7,95.78 C24.7,95.78 21.55,96.61 23.55,100.65 C24.0059813,102.088241 23.2662697,103.633319 21.86,104.18 C21.86,104.18 20.3,105.64 21.42,108.98 C21.42,108.98 25.48,113.57 28.11,103.08 C28.8928674,101.5964 29.561472,100.055266 30.11,98.47 C30.11,109.27 34.11,111.22 34.11,111.22 C40.73,115.64 36.2,107.89 36.2,107.89 C32.89,103.37 37.12,103.76 40.09,104.45 C42.01,104.89 44.16,104.2 44.82,102.82 C45.48,101.44 43.74,101.16 42.09,101.2 Z M31.43,85.53 C31.37,85.0966667 31.3233333,84.66 31.29,84.22 C31.04,81.4 31.72,73.28 23.61,63.92 C24.8034012,65.0387964 26.1503023,65.9816272 27.61,66.72 C29.2921536,67.5138835 31.2312085,67.561089 32.95,66.85 C33.9407079,66.4517928 34.8860662,65.9489426 35.77,65.35 C33.73,71.17 32.24,80 31.43,85.53 Z" id="Shape" fill="#FF3035" fill-rule="nonzero" stroke-width="1"/>
            <path d="M20.36,90.79 L28,81 C28,81 33.49,74 30.45,70.65 C29.8670739,70.0358601 28.9746113,69.8274878 28.18,70.12 C26.01,70.89 21.53,73.19 21.82,78.87 L16.66,85.46" id="Shape" fill="#FCEAD9" fill-rule="nonzero" stroke-width="1"/>
            <path d="M42,90.37 L29.8,80.1 C29.8,80.1 23.53,73.34 29.98,70.5 C29.98,70.5 38.3,69.62 36.62,78.01 L44.62,84.7" id="Shape" fill="#FCEAD9" fill-rule="nonzero" stroke-width="1"/>
        </g>
    </g>
</svg>