<?xml version="1.0" encoding="UTF-8" standalone="no"?><svg xmlns="http://www.w3.org/2000/svg" xmlns:xlink="http://www.w3.org/1999/xlink" width="61.27355194091797" height="184.8931884765625" viewBox="-0.2802600860595703 -0.10091710090637207 61.27355194091797 184.8931884765625" version="1.1">
    <!-- Generator: Sketch 46.2 (44496) - http://www.bohemiancoding.com/sketch -->
    <title>Grandma-b</title>
    <desc>Created with Sketch.</desc>
    <defs/>
    <g id="Page-1" stroke="none" fill-rule="evenodd">
        <g id="Grandma-b">
            <path d="M21.87,63.26 L18.81,62.83 C18.81,62.83 22.17,58.75 26,57 C27.8464895,56.1731443 29.948489,56.1262729 31.83,56.87 C34.05,57.72 37.38,59.51 38.94,62.87 L36.35,62.99 C36.35,62.99 31.43,60.15 28.89,60.62 C26.4002191,61.0337501 24.0154314,61.9305934 21.87,63.26 L21.87,63.26 Z" id="Shape" fill="#FF3035" fill-rule="nonzero" stroke-width="1"/>
            <polygon id="Shape" fill="#FCEAD9" fill-rule="nonzero" points="24.12 56.11 24.12 69.08 35.35 69.08 35.35 55.4" stroke-width="1"/>
            <path d="M18.77,124.56 C18.77,124.56 19.56,138.25 20.64,141 C20.64,141 18.64,149.93 23.84,164.81 L23.84,174.47 C23.84,174.47 21.96,179.65 22.58,181.9 C22.58,181.9 24.89,184.01 27.72,181.48 C28.106553,179.769301 28.0025692,177.984246 27.42,176.33 L26.42,124.56" id="Shape" fill="#FCEAD9" fill-rule="nonzero" stroke-width="1"/>
            <path d="M37.11,124.56 C37.11,124.56 36.32,138.25 35.24,141 C35.24,141 37.24,149.93 32.04,164.81 L32.04,174.47 C32.04,174.47 33.92,179.65 33.3,181.9 C33.3,181.9 31.3,184.6 28.17,181.74 C27.787821,179.942022 27.8913694,178.074699 28.47,176.33 L29.47,124.56" id="Shape" fill="#FCEAD9" fill-rule="nonzero" stroke-width="1"/>
            <path d="M22.65,179 C22.65,179 26.24,180.75 27.82,178.26 C27.82,178.26 29.18,182.58 26.27,184.06 C26.27,184.06 20.27,185.35 21.63,181.85 C21.8488513,180.860902 22.1915546,179.903349 22.65,179 L22.65,179 Z" id="Shape" fill="#F24E4E" fill-rule="nonzero" stroke-width="1"/>
            <path d="M33.19,179 C33.19,179 29.68,180.75 28.13,178.26 C28.13,178.26 26.8,182.58 29.65,184.06 C29.65,184.06 35.49,185.35 34.2,181.85 C33.9825177,180.861879 33.6432589,179.904565 33.19,179 L33.19,179 Z" id="Shape" fill="#F24E4E" fill-rule="nonzero" stroke-width="1"/>
            <path d="M12.19,29.95 C12.19,29.95 11.19,44.95 14.38,49.44 C14.38,49.44 16.8,55.36 25.46,57.21 C25.46,57.21 38.08,59.65 44.46,50.37 C47.2436023,44.2187403 48.1246593,37.3757484 46.99,30.72 C46.99,30.72 28,8 12.19,29.95 Z" id="Shape" fill="#FCEAD9" fill-rule="nonzero" stroke-width="1"/>
            <path d="M13.15,45.58 C13.15,45.58 7.75,44.99 8.43,37.74 C8.43,37.74 8.68,34.28 13.15,34.2" id="Shape" fill="#FCEAD9" fill-rule="nonzero" stroke-width="1"/>
            <path d="M46.27,45.58 C46.27,45.58 51.67,45 51,37.74 C51,37.74 50.75,34.28 46.28,34.2" id="Shape" fill="#FCEAD9" fill-rule="nonzero" stroke-width="1"/>
            <path d="M10.38,40.18 L10.38,40.18 C10.2088109,39.9133199 9.93266119,39.7316425 9.62,39.68 C7.35,39.31 -1.89,37.28 3.62,29.03 C3.91035147,28.5988195 3.8690823,28.025178 3.52,27.64 C2,26 -1.25,21.59 4,18.28 C4.367916,18.0550998 4.57404379,17.638955 4.53,17.21 C4.29,15.21 4.41,9.27 13.25,6.96 C13.5075019,6.89693074 13.7342826,6.74456245 13.89,6.53 C14.55,5.59 16.89,2.96 21.66,3.53 C21.9510795,3.55989028 22.2421876,3.47363603 22.47,3.29 C24,2 30.52,-2.4 37.37,3.09 C37.6196529,3.29172165 37.9427756,3.37885587 38.26,3.33 C39.76,3.09 44.26,2.71 46.15,6.65 C46.3015742,6.97505984 46.5984637,7.20886035 46.95,7.28 C49.1,7.71 56.48,9.75 55.41,17.33 C55.3627574,17.6762358 55.481317,18.0245048 55.73,18.27 C56.99,19.51 60.46,23.57 56.53,27.45 C56.1847436,27.7970041 56.1075539,28.329207 56.34,28.76 C57.58,31.14 60.5,38.43 50.34,39.36 C50.0764096,39.3814669 49.8286982,39.4947064 49.64,39.68 L49.55,39.77 C49.2209119,40.0991846 48.7225232,40.190513 48.2980935,39.9994086 C47.8736638,39.8083041 47.6116743,39.3746064 47.64,38.91 C47.8009912,37.0290434 47.6352111,35.1344139 47.15,33.31 C46.9864182,32.8228379 46.5122948,32.5095042 46,32.55 C44.08,32.74 39.25,32.55 35.29,27.22 C35.1088655,26.9511962 34.8210203,26.7731196 34.4996267,26.7310323 C34.1782331,26.6889451 33.8542409,26.7869001 33.61,27 C32.4,28 29.91,29.19 26.02,26.77 C25.5475093,26.4787024 24.9324757,26.581208 24.58,27.01 C23,28.9 18.83,33.35 14.3,32.72 C13.9851144,32.6683285 13.6631391,32.7534239 13.4149004,32.9539243 C13.1666618,33.1544248 13.0157322,33.4512911 13,33.77 C12.9293581,35.7799666 12.7356621,37.7837187 12.42,39.77 C12.3374887,40.2209815 11.9884522,40.5761376 11.5389727,40.6664742 C11.0894933,40.7568107 10.6303432,40.5640843 10.38,40.18 Z" id="Shape" fill="#E3DDD8" fill-rule="nonzero" stroke-width="1"/>
            <path d="M14.62,37.1 C17.4345501,34.6305376 21.6852619,34.7795316 24.32,37.44 C24.32,37.44 19.51,34.91 14.62,37.1 Z" id="Shape" fill="#E3DCDA" fill-rule="nonzero" stroke-width="1"/>
            <path d="M34.51,37.1 C37.3245501,34.6305376 41.5752619,34.7795316 44.21,37.44 C44.21,37.44 39.4,34.91 34.51,37.1 Z" id="Shape" fill="#E3DCDA" fill-rule="nonzero" stroke-width="1"/>
            <path d="M36.48,43.75 C36.48,43.75 40.62,40.75 43.48,44.75 C43.48,44.75 43.91,45 43.81,44.36 C43.81,44.36 45.45,43.18 45.15,42.43 C44.7150526,42.8502731 44.134812,43.0866675 43.53,43.09 C43.53,43.09 44.21,42.37 43.76,41.83 C43.76,41.83 43.1,42.83 42.7,42.56 C42.71,42.53 39,39.11 36.48,43.75 Z" id="Shape" fill="#5E4944" fill-rule="nonzero" stroke-width="1"/>
            <path d="M22.26,43.41 C22.26,43.41 18.12,40.41 15.26,44.41 C15.26,44.41 14.83,44.66 14.93,44.02 C14.93,44.02 13.29,42.84 13.59,42.09 C14.0249474,42.5102731 14.605188,42.7466675 15.21,42.75 C15.21,42.75 14.51,42 15,41.47 C15,41.47 15.66,42.47 16.06,42.2 C16,42.2 19.76,38.77 22.26,43.41 Z" id="Shape" fill="#5E4944" fill-rule="nonzero" stroke-width="1"/>
            <path d="M25.6,52.4 L33.87,52.4 C33.87,52.4 29.84,58.56 25.6,52.4 Z" id="Shape" fill="#FC8F84" fill-rule="nonzero" stroke-width="1"/>
            <path d="M27.26,54.23 L32.21,54.15 C32.21,54.15 29.63,56.34 27.26,54.23 Z" id="Shape" fill="#EF5C5F" fill-rule="nonzero" stroke-width="1"/>
            <path d="M23.45,32.71 C23.45,32.71 30.54,36.51 36.02,33.13" id="Shape" stroke="#F7DECB" stroke-width="0.75" fill="none"/>
            <path d="M23.45,30.55 C23.45,30.55 30.53,34.34 36,31" id="Shape" stroke="#F7DECB" stroke-width="0.75" fill="none"/>
            <path d="M15.3,45.72 C15.3,45.72 18.3,49.43 21.37,46.14" id="Shape" stroke="#F7DECB" stroke-width="0.75" fill="none"/>
            <path d="M36.89,46.06 C36.89,46.06 39.89,49.77 42.96,46.48" id="Shape" stroke="#F7DECB" stroke-width="0.75" fill="none"/>
            <path d="M50.55,66.23 C50.36,64.98 45.93,62.9 43.89,62 C42.7072563,61.3893227 41.3908278,61.0834164 40.06,61.11 L39.53,61.11 C38.05,61.11 36.63,60.64 35.45,61.53 C30.98,64.9 26.11,62.61 23.8,61.12 C22.8,60.45 21.54,61.12 20.3,61.12 L18.48,61.12 C17.540377,61.1132787 16.6066527,61.2688995 15.72,61.58 L15.72,61.58 C15.3308725,61.7211538 14.9558871,61.8986022 14.6,62.11 C12.74,63.02 9.26,64.88 9.08,66.11 C9.08,66.11 -1.63,93.11 0.5,99.65 C0.5,99.65 0.75,102.73 8.5,104.35 L12.5,104.82 C11,123 7.67,134.63 8.89,144.65 C9.3,148.06 8.89,152.31 12.72,153.12 C33.96,157.65 33.26,156.12 44.6,152.87 C48.43,151.78 48.68,147.87 48.87,143.93 C49.6524341,130.921755 49.6524341,117.878245 48.87,104.87 L51.68,104.3 C58.01,102.53 60.23,98.91 60.23,98.91 C62.39,92.34 50.55,66.23 50.55,66.23 Z M12.8,93.06 C12.8,93.06 9.87,92.84 10.31,90.78 L13,79 C13,80.34 13,81.71 13,83.09 L12.8,93.06 Z M48.38,91.79 L47.92,88.44 C47.82,86.61 46.92,78.82 46.92,77.16 L49.92,89.23 C50.0590564,89.77249 49.9756664,90.3480507 49.6883629,90.8287677 C49.4010594,91.3094846 48.9336452,91.6555309 48.39,91.79 L48.38,91.79 Z" id="Shape" fill="#FE6766" fill-rule="nonzero" stroke-width="1"/>
            <path d="M41.4,101.2 C39.9815323,101.308617 38.6055604,100.686602 37.75,99.55 C36.41,97.36 36.84,96.66 37.75,96.55 C39.54,96.35 41.05,95.47 41.22,94.15 C41.83,89.55 40.51,88.94 39.16,89.35 C37.81,89.76 36.23,89.25 35.95,88.19 C32.54,74.93 49.24,64.93 49.24,64.93 C47.68,63.53 43.24,61.71 43.24,61.71 C41.88,60.8 38.7,60.92 37.46,61 L36.36,61 C36.36,61 31.85,63.73 29.52,63.28 C27.2123531,62.8788681 25.0107978,62.0111763 23.05,60.73 L20.25,61.15 L20.25,61.2 L20.25,61.2 C18.2836267,60.9770435 16.2946123,61.3241664 14.52,62.2 C14.52,62.2 10.41,64.1 10.25,64.68 C10.25,64.68 23.9,75.25 25.54,88.06 C25.6179928,88.6263869 25.9346537,89.1323164 26.41,89.45 C27.31,90.07 28.2,91.72 24.06,95.78 C24.06,95.78 20.91,96.61 22.91,100.65 C23.3659813,102.088241 22.6262697,103.633319 21.22,104.18 C21.22,104.18 19.66,105.64 20.78,108.98 C20.78,108.98 24.84,113.57 27.47,103.08 C28.2528674,101.5964 28.921472,100.055266 29.47,98.47 C29.47,109.27 33.47,111.22 33.47,111.22 C40.09,115.64 35.56,107.89 35.56,107.89 C32.25,103.37 36.48,103.76 39.45,104.45 C41.37,104.89 43.52,104.2 44.18,102.82 C44.84,101.44 43.05,101.16 41.4,101.2 Z M30.75,85.53 C30.69,85.0966667 30.6433333,84.66 30.61,84.22 C30.36,81.4 31.04,73.28 22.93,63.92 C24.1234012,65.0387964 25.4703023,65.9816272 26.93,66.72 C28.6121536,67.5138835 30.5512085,67.561089 32.27,66.85 C33.2607079,66.4517928 34.2060662,65.9489426 35.09,65.35 C33,71.17 31.56,80 30.75,85.53 Z" id="Shape" fill="#FF3035" fill-rule="nonzero" stroke-width="1"/>
            <path d="M18,96.53 C18,96.53 13.94,100.08 15.49,101.53 L23.13,104.77 L26,99.59 L18,96.53 Z" id="Shape" fill="#FCEAD9" fill-rule="nonzero" stroke-width="1"/>
            <path d="M43.28,95.71 C43.28,95.71 46.49,99.44 44.99,102.28 L33.57,104.95 L33.17,99.71 L43.28,95.71 Z" id="Shape" fill="#FCEAD9" fill-rule="nonzero" stroke-width="1"/>
            <path d="M24.16,99 C24.74,100 25.89,97.77 27.03,97.58 C29.16,97.22 31.7,98.19 33.58,101.74 C33.58,101.74 32.74,109.35 27.08,108.24 C25.9661634,107.913762 24.9220375,107.384919 24,106.68 C23,105.68 21.9,103.21 20.58,100.98" id="Shape" fill="#FCEAD9" fill-rule="nonzero" stroke-width="1"/>
            <path d="M34,99.67 C33.6,100.67 31.87,98.13 30.9,97.97 C29.46,97.72 25.61,100.11 24.72,102.97 C24.5795763,104.013402 24.7283155,105.07533 25.15,106.04 C26.9446459,108.113247 29.9797112,108.575289 32.31,107.13 C33.3927325,106.375285 34.2471892,105.337484 34.78,104.13 C35.3,103 36.56,102.13 37.53,100.01" id="Shape" fill="#FCEAD9" fill-rule="nonzero" stroke-width="1"/>
        </g>
    </g>
</svg>