<?xml version="1.0" encoding="UTF-8"?><svg xmlns="http://www.w3.org/2000/svg" xmlns:xlink="http://www.w3.org/1999/xlink" width="159.49539184570312" height="144.8545684814453" viewBox="-0.3930893689393997 -0.07893979549407959 159.49539184570312 144.8545684814453" version="1.1">
    <!-- Generator: Sketch 46.2 (44496) - http://www.bohemiancoding.com/sketch -->
    <title>三国主题素材-23</title>
    <desc>Created with Sketch.</desc>
    <defs/>
    <g id="Page-1" stroke="none" fill-rule="evenodd">
        <g id="三国主题素材-23" fill-rule="nonzero">
            <polygon id="Shape" fill="#D2CFCC" points="47.81 100.04 50.15 104.49 146.63 51.86 144.95 46.53" stroke-width="1"/>
            <path d="M145,46.48 L145,46.48 L146.68,51.81 C146.698642,51.87077 146.674004,51.9364722 146.62,51.97 L50.19,104.61 C50.1637412,104.623038 50.1330838,104.623896 50.106137,104.612347 C50.0791901,104.600798 50.0586684,104.578007 50.05,104.55 L47.71,100.1 C47.6993158,100.067523 47.6993158,100.032477 47.71,100 C47.7198811,99.9696081 47.7414769,99.944413 47.77,99.93 L144.91,46.42 C144.935201,46.4074968 144.964799,46.4074968 144.99,46.42 C144.998907,46.4386625 145.002373,46.4594576 145,46.48 Z M146.44,51.8 L144.84,46.7 L48,100.1 L50.25,104.32 L146.44,51.8 Z" id="Shape" fill="#603404" stroke-width="1"/>
            <polygon id="Shape" fill="#FAFBFD" points="48.69 101.48 49.67 103.32 146.24 50.29 145.06 48.31" stroke-width="1"/>
            <path d="M144,47.46 C144,47.46 146.64,49.77 146.32,51.92 L148.89,51.75 C148.89,51.75 149.05,47.24 145.48,45.53 L144,47.46 Z" id="Shape" fill="#FFE687" stroke-width="1"/>
            <path d="M148.06,47.81 C148.706413,49.0269823 149.049465,50.3820358 149.06,51.76 L149.06,51.86 L146.26,52.05 L146.26,51.91 C146.56,49.85 144,47.58 143.98,47.55 L143.9,47.48 L145.5,45.39 L145.57,45.39 C146.635841,45.9119015 147.507926,46.7594705 148.06,47.81 Z M148.83,51.64 C148.83,50.97 148.65,47.21 145.56,45.64 L144.19,47.42 C144.64,47.83 146.66,49.82 146.48,51.78 L148.83,51.64 Z" id="Shape" fill="#603404" stroke-width="1"/>
            <path d="M146.43,46 L148.09,43.25 L158.09,42.79 C158.09,42.79 158.69,43.18 158.39,43.66 L152.12,51 L148.9,51 C148.9,51 148.64,47.31 146.43,46 Z" id="Shape" fill="#FFE687" stroke-width="1"/>
            <path d="M158.54,43.11 C158.562443,43.1578856 158.579223,43.2082258 158.59,43.26 C158.622458,43.4192003 158.590064,43.5847715 158.5,43.72 L152.17,51.11 L148.81,51.11 L148.81,51 C148.81,51 148.52,47.4 146.39,46.13 L146.29,46.07 L148.04,43.17 L158.15,42.71 L158.15,42.71 C158.31143,42.80859 158.445528,42.9461265 158.54,43.11 L158.54,43.11 Z M152.08,50.88 L158.34,43.58 C158.37401,43.493213 158.37401,43.396787 158.34,43.31 C158.286602,43.1473594 158.181184,43.0068014 158.04,42.91 L148.11,43.36 L146.58,46 C148.58,47.25 148.94,50.27 149,50.88 L152.08,50.88 Z" id="Shape" fill="#603404" stroke-width="1"/>
            <path d="M50.51,104.1 C50.51,104.1 56.19,104.84 57.78,107.59 C58.614582,108.665525 60.0932839,109.000642 61.31,108.39 C61.31,108.39 59.17,108.12 58.88,106.39 C58.88,106.39 58.57,103.61 57.39,102.49 C57.0223524,102.164226 56.5842323,101.928052 56.11,101.8 C56.11,101.8 60.73,100.3 62.8,103.08 C62.8,103.08 65.75,106.24 68.8,103.36 C68.8,103.36 65.54,104.23 65.54,102.13 C65.5504014,101.758927 65.4786925,101.390138 65.33,101.05 C64.5576331,99.4145223 62.908673,98.3736894 61.1,98.38 C61.1,98.38 64,96 66.6,97 C66.6,97 67.66,97.47 69.6,96.16 C68.4782183,96.2524017 67.358825,95.9557802 66.43,95.32 C65.7304165,94.7255296 64.8714407,94.3499451 63.96,94.24 C62.0295248,94.0810301 60.0958425,94.5060918 58.41,95.46 C59.391744,94.3039542 60.6818825,93.4507981 62.13,93 C62.6475416,92.8917035 63.1251067,92.6425391 63.51,92.28 C63.8088429,92.016937 64.0185176,91.6674793 64.11,91.28 C63.277826,91.6334201 62.3635644,91.7477028 61.47,91.61 C61.0465557,91.5358412 60.6134443,91.5358412 60.19,91.61 C58.6824412,91.9053432 57.2440209,92.4820683 55.95,93.31 C56.9454416,92.7563519 57.5156297,91.6631637 57.4,90.53 C57.2788559,89.7042142 57.6206407,88.8785541 58.29,88.38 C58.29,88.38 56.87,87.96 54.62,91.46 C53.6035987,92.8546552 52.3433107,94.0539615 50.9,95 C50.9,95 47.76,96.41 47.12,98.66 C47.12,98.7 51.81,99.64 50.51,104.1 Z" id="Shape" fill="#C2041F" stroke-width="1"/>
            <path d="M69.77,96 L69.77,96 C69.8029361,96.0948382 69.7705535,96.2000816 69.69,96.26 C67.69,97.63 66.55,97.15 66.5,97.13 C64.68,96.48 62.65,97.56 61.74,98.13 C63.3966364,98.3212163 64.8353055,99.3585724 65.54,100.87 C65.7022592,101.238188 65.7808132,101.637789 65.77,102.04 C65.7398063,102.373671 65.878714,102.700292 66.14,102.91 C66.9604275,103.27287 67.885351,103.322673 68.74,103.05 C68.8416231,103.022909 68.9486766,103.068201 69,103.16 L69,103.16 C69.0583837,103.240532 69.0583837,103.349468 69,103.43 C68.2166048,104.248225 67.1327841,104.710655 66,104.71 C64.7481106,104.60407 63.5764246,104.050182 62.7,103.15 C61.2,101.15 58.26,101.48 56.93,101.76 C57.1658015,101.898095 57.3898852,102.055288 57.6,102.23 C58.83,103.41 59.16,106.16 59.17,106.28 C59.42,107.83 61.38,108.1 61.4,108.1 C61.4987252,108.113005 61.5778691,108.188063 61.5960827,108.285961 C61.6142963,108.38386 61.5674424,108.48236 61.48,108.53 C60.1641044,109.177843 58.5742664,108.814809 57.67,107.66 C56.14,105 50.61,104.26 50.55,104.25 C50.4848195,104.241083 50.4265772,104.204682 50.39,104.15 C50.3597109,104.090288 50.3597109,104.019712 50.39,103.96 C50.7655958,102.919811 50.6744864,101.768189 50.14,100.8 C49.4235368,99.7834313 48.3539339,99.0703627 47.14,98.8 C47.0785692,98.7884784 47.0249387,98.7513713 46.9925016,98.6979454 C46.9600645,98.6445196 46.9518829,98.5798185 46.97,98.52 C47.63,96.2 50.74,94.77 50.87,94.71 C52.279977,93.7662585 53.5094107,92.5774673 54.5,91.2 C56.77,87.67 58.25,87.99 58.42,88.04 C58.4993623,88.0687475 58.5566016,88.1386569 58.5691228,88.2221316 C58.581644,88.3056062 58.5474351,88.3892328 58.48,88.44 C57.8790865,88.8824937 57.5745079,89.6227353 57.69,90.36 C57.7934909,90.988985 57.669399,91.634263 57.34,92.18 C58.2629816,91.7743371 59.2245103,91.4627616 60.21,91.25 C60.6571492,91.1557708 61.1171387,91.1388594 61.57,91.2 C62.383467,91.3487309 63.2217974,91.2797325 64,91 C64.0736584,90.9549522 64.1663416,90.9549522 64.24,91 C64.3085055,91.0509465 64.3431556,91.1356467 64.33,91.22 C64.2345816,91.661972 63.9997106,92.0616032 63.66,92.36 C63.2456213,92.753626 62.7295893,93.0237635 62.17,93.14 C61.1560931,93.4091781 60.2226948,93.9204883 59.45,94.63 C60.8906851,94.044922 62.4545424,93.8283879 64,94 C64.9558818,94.1129964 65.8570008,94.5061487 66.59,95.13 C67.4714331,95.7260175 68.5293379,96.0045991 69.59,95.92 C69.6589609,95.9183247 69.7250326,95.9476899 69.77,96 Z M60.92,98.45 L60.92,98.45 C60.889576,98.3602042 60.9173698,98.2609406 60.99,98.2 C61.11,98.1 63.99,95.81 66.69,96.77 C67.416548,96.9320507 68.1777607,96.783433 68.79,96.36 C67.8823404,96.3252458 67.0068075,96.0147979 66.28,95.47 C65.6118193,94.9132004 64.7945159,94.5654118 63.93,94.47 C62.0439822,94.318984 60.1560109,94.736985 58.51,95.67 C58.4140802,95.7176259 58.2979826,95.6927478 58.23,95.61 C58.1572719,95.5270128 58.1572719,95.4029872 58.23,95.32 C59.2490993,94.1211914 60.5930579,93.2425828 62.1,92.79 C62.5762068,92.6916352 63.0158204,92.4631746 63.37,92.13 C63.5197443,91.9934878 63.6478737,91.8350119 63.75,91.66 C63.0075139,91.8792679 62.226724,91.9372305 61.46,91.83 C61.0630354,91.7603109 60.6569646,91.7603109 60.26,91.83 C58.8938156,92.1056994 57.5827364,92.6058018 56.38,93.31 C56.2843215,93.3829317 56.184121,93.449732 56.08,93.51 C55.9743706,93.565034 55.8442012,93.5303221 55.78,93.43 L55.78,93.43 C55.7289758,93.3292569 55.7586373,93.2063738 55.85,93.14 L56.18,92.92 C56.9203989,92.3849324 57.3050251,91.4849069 57.18,90.58 C57.09177,89.9300866 57.2486207,89.2706009 57.62,88.73 C57.04,88.97 56.07,89.65 54.82,91.6 C53.7900695,93.0440657 52.5016922,94.2849764 51.02,95.26 C50.97,95.26 48.16,96.57 47.42,98.57 C48.6403961,98.8855944 49.7057489,99.6313413 50.42,100.67 C50.983006,101.664291 51.1166086,102.845049 50.79,103.94 C51.94,104.12 56.52,104.99 57.97,107.51 C58.5794937,108.293999 59.5713448,108.678438 60.55,108.51 C59.5897954,108.255633 58.854824,107.481979 58.65,106.51 C58.65,106.51 58.33,103.78 57.22,102.73 C56.9113449,102.399495 56.5269775,102.148969 56.1,102 C55.9969376,101.986694 55.9155995,101.905934 55.9015589,101.802969 C55.8875182,101.700004 55.9442632,101.600415 56.04,101.56 C56.23,101.5 60.84,100.05 62.98,102.92 L62.98,102.92 C63.7848463,103.724084 64.8467496,104.219639 65.98,104.32 C66.6940008,104.330447 67.3933638,104.117142 67.98,103.71 C67.2570827,103.837642 66.5123466,103.70288 65.88,103.33 C65.5071316,103.034164 65.3018777,102.575141 65.33,102.1 C65.3431817,101.756582 65.2782153,101.414653 65.14,101.1 C64.4114541,99.5498054 62.852858,98.5600969 61.14,98.56 C61.0556467,98.5731556 60.9709465,98.5385055 60.92,98.47 L60.92,98.45 Z" id="Shape" fill="#603404" stroke-width="1"/>
            <path d="M53.69,101.54 C53.69,101.54 57.38,98.34 61.75,100.33" id="Shape" fill="#C2041F" stroke-width="1"/>
            <path d="M61.95,100.23 C61.988116,100.314607 61.9716548,100.413832 61.9082602,100.481598 C61.8448656,100.549365 61.7469575,100.572397 61.66,100.54 C57.48,98.63 53.88,101.68 53.84,101.71 C53.7446704,101.768944 53.6207336,101.750591 53.5465784,101.666548 C53.4724231,101.582506 53.4696445,101.457248 53.54,101.37 C53.54,101.37 57.4,98.1 61.84,100.13 C61.8871593,100.14956 61.9260474,100.184913 61.95,100.23 L61.95,100.23 Z" id="Shape" fill="#603404" stroke-width="1"/>
            <path d="M54.81,97.94 C55.3973062,95.6657918 57.1119864,93.8529141 59.35,93.14" id="Shape" fill="#C2041F" stroke-width="1"/>
            <path d="M59.56,93 L59.56,93 C59.5928271,93.1184179 59.5267705,93.2417237 59.41,93.28 C57.2232612,93.9857638 55.5558123,95.7704256 55,98 C54.9553181,98.1002803 54.8459927,98.1550018 54.7389383,98.1306713 C54.631884,98.1063408 54.5569496,98.009742 54.56,97.9 C55.1654635,95.5375656 56.9394963,93.6502967 59.26,92.9 C59.3706898,92.8483991 59.5024087,92.8923054 59.56,93 L59.56,93 Z" id="Shape" fill="#603404" stroke-width="1"/>
            <path d="M49.22,107.15 C48.5570972,103.795788 46.8941419,100.720889 44.45,98.33 C45.9551917,97.301575 47.9733476,97.4596986 49.3,98.71 C49.3,98.71 52.49,102.52 51.37,104.42 C51.0027747,105.557782 50.2400098,106.526316 49.22,107.15 L49.22,107.15 Z" id="Shape" fill="#A4A4A6" stroke-width="1"/>
            <path d="M51,100.82 C51.66,102.04 52.16,103.5 51.58,104.51 C51.1983475,105.692223 50.4029916,106.69707 49.34,107.34 C49.2740854,107.373822 49.1959146,107.373822 49.13,107.34 C49.0613367,107.308173 49.0127251,107.244604 49,107.17 C48.33796,103.868372 46.7007368,100.841251 44.3,98.48 C44.2513855,98.4331776 44.2257916,98.3673646 44.23,98.3 C44.2323256,98.2325255 44.2655041,98.1698549 44.32,98.13 C45.9107731,97.0500476 48.0357085,97.2074502 49.45,98.51 C50.0380465,99.2296277 50.557005,100.003043 51,100.82 L51,100.82 Z M49.39,106.82 C50.2210551,106.225113 50.8410219,105.380977 51.16,104.41 L51.16,104.35 C52.16,102.61 49.16,98.93 49.16,98.9 C47.9853134,97.8111947 46.2391194,97.6126715 44.85,98.41 C47.1070163,100.72442 48.6725286,103.623389 49.37,106.78 L49.39,106.82 Z" id="Shape" fill="#603404" stroke-width="1"/>
            <path d="M0.35,123 C0.35,123 -0.44,119.89 4.44,117 C6.7902996,115.325047 9.62540596,114.46784 12.51,114.56 C12.7730844,114.576192 13.0369156,114.576192 13.3,114.56 C14.19,114.56 16.02,114.3 16.79,113.38 C17.03,113.09 17.24,112.79 17.48,112.5 C17.86,112.05 18.48,111.3 19.21,110.22 C20.5995864,107.732554 23.3978833,106.381377 26.21,106.84 C26.21,106.84 30.77,107.62 32.89,104.06 C32.89,104.06 34.34,100.37 36.66,99.79 C36.9246896,99.744078 37.1953104,99.744078 37.46,99.79 C39.1609966,100.021431 40.8881421,99.6269597 42.32,98.68 C42.6294087,98.4404189 43.0275516,98.3468837 43.4112744,98.4236282 C43.7949971,98.5003728 44.1265385,98.7398449 44.32,99.08 C45.02,100.38 45.86,102.21 45.75,103.42 C45.75,103.42 44.26,106.31 41.59,106.07 C41.59,106.07 37.92,105.59 36.42,108.57 C36.26,108.89 35.93,109.1 35.83,109.46 C35.3359508,111.884768 33.0259867,113.495143 30.58,113.12 C30.4168395,113.109374 30.2531605,113.109374 30.09,113.12 C28.93,113.12 24.64,113.42 22.77,117 C21.7752357,118.930373 20.1528927,120.464545 18.17,121.35 C17.7031874,121.544061 17.2052386,121.652458 16.7,121.67 C14.7,121.76 10.24,123.47 7.38,122.8 C7.41,122.76 1.44,121.42 0.35,123 Z" id="Shape" fill="#D1D1D3" stroke-width="1"/>
            <path d="M44.54,99 C45.26,100.34 46.11,102.2 46,103.47 C46.0048892,103.496443 46.0048892,103.523557 46,103.55 C45.94,103.67 44.41,106.55 41.62,106.32 C41.62,106.32 38.08,105.9 36.67,108.69 C36.5876505,108.841803 36.4868897,108.982868 36.37,109.11 C36.2459984,109.230849 36.1503654,109.377714 36.09,109.54 C35.5663534,112.07474 33.1480434,113.754366 30.59,113.36 C30.4368316,113.349942 30.2831684,113.349942 30.13,113.36 C28.91,113.36 24.81,113.68 23.01,117.12 C21.9989913,119.103611 20.3357495,120.67857 18.3,121.58 C17.8111343,121.78453 17.2895373,121.899688 16.76,121.92 C15.8556845,122.016184 14.9598447,122.179976 14.08,122.41 C11.96,122.89 9.32,123.49 7.38,123.04 C5.76,122.68 1.38,122.04 0.56,123.23 C0.511699734,123.308048 0.420020548,123.347909 0.33,123.33 C0.242016576,123.313217 0.171779586,123.246882 0.15,123.16 C0.15,123.03 -0.62,119.86 4.35,116.89 C6.7342307,115.181001 9.61851359,114.312199 12.55,114.42 C12.8030863,114.435823 13.0569137,114.435823 13.31,114.42 C14.07,114.42 15.91,114.19 16.63,113.32 C16.75,113.18 16.86,113.04 16.97,112.89 C17.08,112.74 17.2,112.59 17.32,112.44 C17.69,112 18.32,111.26 19.03,110.18 C20.4713955,107.612915 23.3649815,106.222076 26.27,106.7 C26.32,106.7 30.71,107.41 32.73,104.03 C32.73,103.91 34.23,100.26 36.64,99.65 C36.9310445,99.5981778 37.2289555,99.5981778 37.52,99.65 C39.1655748,99.8996597 40.8446701,99.5173976 42.22,98.58 C42.5936656,98.2973193 43.0719381,98.1914422 43.53,98.29 C43.9514465,98.3743011 44.3180009,98.6319779 44.54,99 Z M45.54,103.39 C45.4147548,101.9063 44.9308746,100.47525 44.13,99.22 C43.9800055,98.9438109 43.71714,98.7466618 43.41,98.68 C43.0810332,98.6090933 42.737515,98.6858367 42.47,98.89 C41.0103302,99.8958078 39.2234231,100.31037 37.47,100.05 C37.2318071,100.008349 36.9881929,100.008349 36.75,100.05 C34.57,100.6 33.15,104.15 33.14,104.19 C30.95,107.87 26.25,107.11 26.21,107.11 C23.4859921,106.639242 20.7632826,107.948391 19.43,110.37 C18.65,111.5 18.05,112.25 17.67,112.7 C17.55,112.84 17.44,112.99 17.33,113.13 C17.22,113.27 17.1,113.43 16.98,113.58 C16.17,114.58 14.35,114.78 13.33,114.84 C13.0602508,114.856459 12.7897492,114.856459 12.52,114.84 C9.69018308,114.753 6.90932015,115.592174 4.6,117.23 C0.98,119.39 0.6,121.65 0.55,122.58 C2.21,121.43 6.9,122.44 7.47,122.58 C9.31,123.01 11.89,122.42 13.97,121.95 C14.8760545,121.713879 15.7986943,121.546734 16.73,121.45 C17.2081465,121.430645 17.6789402,121.325647 18.12,121.14 C20.0514671,120.272667 21.6335567,118.778667 22.61,116.9 C24.53,113.22 28.85,112.9 30.13,112.9 C30.2998328,112.889338 30.4701672,112.889338 30.64,112.9 C32.9695169,113.251209 35.1664408,111.717756 35.64,109.41 C35.7145576,109.180816 35.8412025,108.972023 36.01,108.8 C36.1025239,108.699677 36.1830651,108.588933 36.25,108.47 C37.81,105.39 41.61,105.85 41.65,105.85 C44,106 45.37,103.68 45.55,103.34 L45.54,103.39 Z" id="Shape" fill="#603404" stroke-width="1"/>
            <path d="M9,134.5 C9,134.5 6.45,129.17 8.79,123.82 C10.0690535,121.642306 12.483165,120.390544 15,120.6 C15.2897484,120.617085 15.5802516,120.617085 15.87,120.6 C16.87,120.54 19.01,120.28 19.55,119.07 C20.3477162,118.188133 21.0796796,117.248947 21.74,116.26 C23.1295864,113.772554 25.9278833,112.421377 28.74,112.88 C28.74,112.88 33.3,113.66 35.42,110.1 C35.42,110.1 36.87,106.41 39.19,105.83 C39.4546896,105.784078 39.7253104,105.784078 39.99,105.83 C42.1986511,106.12113 44.393706,105.204934 45.74,103.43 C45.74,103.43 48.1,106.75 47.93,108.8 C47.93,108.8 46.58,111.57 43.93,111.33 C43.93,111.33 40.26,111.49 38.76,114.46 C38.6033023,114.780021 38.4793394,115.115056 38.39,115.46 C37.8959508,117.884768 35.5859867,119.495143 33.14,119.12 C32.9735049,119.109305 32.8064951,119.109305 32.64,119.12 C31.47,119.12 27.2,119.43 25.33,123 C24.3352357,124.930373 22.7128927,126.464545 20.73,127.35 C20.2631874,127.544061 19.7652386,127.652458 19.26,127.67 C17.26,127.76 11.57,128.2 10.58,130.12 C9.65966587,131.406449 9.11286219,132.922272 9,134.5 L9,134.5 Z" id="Shape" fill="#A4A4A6" stroke-width="1"/>
            <path d="M47,105 C47.708674,106.137744 48.1084885,107.440587 48.16,108.78 C48.1651263,108.80642 48.1651263,108.83358 48.16,108.86 C48.16,108.86 46.7,111.77 43.91,111.51 C43.91,111.51 40.38,111.7 38.96,114.51 C38.8048126,114.829597 38.684131,115.164823 38.6,115.51 C38.0855597,118.047337 35.6689198,119.733262 33.11,119.34 C32.953496,119.329903 32.796504,119.329903 32.64,119.34 C31.43,119.34 27.33,119.66 25.53,123.1 C24.5189913,125.083611 22.8557495,126.65857 20.82,127.56 C20.3311343,127.76453 19.8095373,127.879688 19.28,127.9 C17.53,127.98 11.73,128.4 10.79,130.22 C9.86455153,131.476925 9.3039695,132.96489 9.17,134.52 C9.16425585,134.621978 9.09194686,134.707951 8.99246211,134.731087 C8.89297735,134.754223 8.79015265,134.708979 8.74,134.62 L8.74,134.62 C8.74,134.57 6.18,129.14 8.53,123.76 C9.85403843,121.478492 12.370505,120.159973 15,120.37 C15.279766,120.38619 15.560234,120.38619 15.84,120.37 C16.72,120.32 18.84,120.08 19.33,118.98 L19.33,118.91 C20.1195493,118.036979 20.8447827,117.107878 21.5,116.13 C22.9413955,113.562915 25.8349815,112.172076 28.74,112.65 C28.79,112.65 33.18,113.36 35.2,109.98 C35.2,109.86 36.7,106.2 39.11,105.6 C39.4010445,105.548178 39.6989555,105.548178 39.99,105.6 C42.1148944,105.877679 44.226574,105.000989 45.53,103.3 C45.573364,103.241296 45.6420162,103.206657 45.715,103.206657 C45.7879838,103.206657 45.856636,103.241296 45.9,103.3 C46.2979805,103.84578 46.6652173,104.413327 47,105 L47,105 Z M47.71,108.69 C47.81,107.06 46.27,104.58 45.71,103.77 C44.2955092,105.416029 42.1556493,106.251736 40,106 C39.7618427,105.95794 39.5181573,105.95794 39.28,106 C37.1,106.55 35.68,110.1 35.67,110.14 C33.48,113.82 28.78,113.07 28.74,113.06 C26.0225141,112.647295 23.3348084,113.967222 22,116.37 C21.3315405,117.367824 20.5930136,118.316882 19.79,119.21 C19.19,120.46 17.12,120.77 15.93,120.84 C15.6302606,120.857686 15.3297394,120.857686 15.03,120.84 C12.6000965,120.645287 10.271624,121.852212 9.03,123.95 C7.80792912,127.035588 7.76166695,130.462547 8.9,133.58 C9.1475202,132.292519 9.66561293,131.072275 10.42,130 C11.42,128 16.94,127.58 19.27,127.47 C19.7481465,127.450645 20.2189402,127.345647 20.66,127.16 C22.5914671,126.292667 24.1735567,124.798667 25.15,122.92 C27.07,119.24 31.39,118.92 32.67,118.92 C32.8464827,118.908597 33.0235173,118.908597 33.2,118.92 C35.5295169,119.271209 37.7264408,117.737756 38.2,115.43 C38.2919924,115.060605 38.4227166,114.701952 38.59,114.36 C40.13,111.31 43.8,111.11 43.95,111.11 C46.28,111.3 47.58,109 47.75,108.72 L47.71,108.69 Z" id="Shape" fill="#603404" stroke-width="1"/>
            <path d="M20.16,127.09 L12,121.21 C12.8587629,120.89914 13.7668023,120.746671 14.68,120.76 L22,126.13 C21.4226068,126.514617 20.8057727,126.836444 20.16,127.09 L20.16,127.09 Z" id="Shape" fill="#D1D1D3" stroke-width="1"/>
            <path d="M11.92,121 L6.12,116.54 C6.7679672,116.217409 7.43601294,115.93683 8.12,115.7 L14.5,120.5 C13.617469,120.515381 12.7443844,120.684583 11.92,121 L11.92,121 Z" id="Shape" fill="#FFFFFF" stroke-width="1"/>
            <path d="M25.17,122.6 C25.9659267,121.172752 27.2519247,120.082141 28.79,119.53 L23.12,114.86 C23.12,114.86 20.75,117.91 19.97,118.86 L25.17,122.6 Z" id="Shape" fill="#D1D1D3" stroke-width="1"/>
            <path d="M19.75,118.69 L14.75,114.78 C15.464219,114.614621 16.1420828,114.319751 16.75,113.91 C16.930986,113.731458 17.0828331,113.525621 17.2,113.3 C17.7901805,112.68229 18.344425,112.03122 18.86,111.35 L22.86,114.7 L19.75,118.69 Z" id="Shape" fill="#FFFFFF" stroke-width="1"/>
            <path d="M47.65,109.23 C46.8021614,105.322936 44.8028142,101.759639 41.91,99 C42.3777717,98.3456182 43.1259097,97.9491461 43.9300485,97.929485 C44.7341874,97.9098239 45.5008073,98.2692604 46,98.9 C46,98.9 50.14,103.66 49.55,107.5 C49.54,107.46 49.43,108.18 47.65,109.23 Z" id="Shape" fill="#A4A4A6" stroke-width="1"/>
            <path d="M48.43,102 C49.441419,103.640473 49.9102806,105.557907 49.77,107.48 C49.77,107.56 49.59,108.34 47.77,109.41 C47.7040854,109.443822 47.6259146,109.443822 47.56,109.41 C47.4913367,109.378173 47.4427251,109.314604 47.43,109.24 C46.5867882,105.369849 44.6133909,101.837224 41.76,99.09 C41.6812464,99.0055053 41.6812464,98.8744947 41.76,98.79 C42.2750822,98.137942 43.0256026,97.7142032 43.85,97.61 C44.7443633,97.5951386 45.598707,97.9801433 46.18,98.66 C47.0404648,99.6947959 47.7942853,100.813801 48.43,102 L48.43,102 Z M47.81,108.85 C49.18,107.98 49.32,107.41 49.32,107.4 C49.89,103.71 45.87,99.04 45.83,98.99 C45.3322765,98.4037504 44.5989728,98.0700972 43.83,98.08 C43.2015637,98.1562812 42.6222709,98.4583664 42.2,98.93 C44.9619947,101.654093 46.9054555,105.097587 47.81,108.87 L47.81,108.85 Z" id="Shape" fill="#603404" stroke-width="1"/>
            <path d="M70.06,81.29 C68.89,80.77 65.89,80.29 63.64,87.47 C63.64,87.47 63.07,90.22 64.58,90.42 C65.1155165,90.4579813 65.635395,90.2298332 65.97,89.81 C66.54,89.19 67.81,88.37 69.47,90.74 C69.47,90.74 70.24,92.09 68.68,94.52 C68.4655206,94.8793096 68.4974404,95.3341669 68.76,95.66 C69.59,96.45 71.5,97.4 74.43,93.76 C75.1057733,92.7194575 75.5113467,91.5267965 75.61,90.29 L70.83,82 C70.6518357,81.6902743 70.3831313,81.442508 70.06,81.29 L70.06,81.29 Z" id="Shape" fill="#936258" stroke-width="1"/>
            <path d="M70.49,96.61 C69.7794823,96.6014275 69.1007555,96.3141357 68.6,95.81 C68.2479985,95.4123923 68.1991861,94.8307111 68.48,94.38 C69.93,92.11 69.27,90.85 69.26,90.83 C68.61,89.91 67.97,89.41 67.35,89.36 C66.8731978,89.3565249 66.420654,89.5699195 66.12,89.94 C65.7371396,90.4126174 65.1464277,90.6668478 64.54,90.62 C64.1919386,90.5782725 63.8786451,90.3888392 63.68,90.1 C63.2952132,89.2542664 63.2003047,88.3051818 63.41,87.4 C64.5,83.93 65.89,81.8 67.54,81.06 C68.3679081,80.6772733 69.3220919,80.6772733 70.15,81.06 C70.5197337,81.2435135 70.8236303,81.5369309 71.02,81.9 L75.8,90.14 C75.814548,90.1855329 75.814548,90.2344671 75.8,90.28 C75.7002313,91.5568106 75.2806751,92.7879675 74.58,93.86 C73.19,95.59 71.87,96.5 70.64,96.58 L70.49,96.61 Z M67.28,88.92 L67.39,88.92 C68.3570373,89.1130068 69.1865082,89.7296046 69.65,90.6 C69.65,90.68 70.48,92.11 68.87,94.6 C68.6922104,94.8591006 68.6922104,95.2008994 68.87,95.46 C69.3259834,95.9116216 69.9486747,96.1541816 70.59,96.13 C71.69,96.06 72.91,95.2 74.21,93.58 C74.8408784,92.5922615 75.2250083,91.4673096 75.33,90.3 L70.59,82.12 C70.4429886,81.8399404 70.2122713,81.6127188 69.93,81.47 L69.93,81.47 C69.2194319,81.141649 68.4005681,81.141649 67.69,81.47 C66.16,82.16 64.86,84.19 63.82,87.47 L63.82,87.47 C63.6441323,88.2486626 63.7140067,89.0626989 64.02,89.8 C64.1456618,89.9857637 64.3469559,90.1065402 64.57,90.13 C65.0311702,90.1557761 65.4757238,89.9540459 65.76,89.59 C66.1455761,89.1568701 66.7001613,88.9124148 67.28,88.92 Z" id="Shape" fill="#603404" stroke-width="1"/>
            <path d="M65.41,83.66 C65.367656,83.6730953 65.322344,83.6730953 65.28,83.66 C65.1810261,83.5888838 65.1547085,83.4529095 65.22,83.35 C65.22,83.29 66.22,81.97 68.42,82.81 C68.5130016,82.8239926 68.5881144,82.8931973 68.6096623,82.9847439 C68.6312101,83.0762905 68.5948511,83.1717328 68.5178547,83.2257388 C68.4408583,83.2797447 68.3387388,83.2814323 68.26,83.23 C66.39,82.52 65.62,83.56 65.59,83.61 C65.5397753,83.6513807 65.4743716,83.6695483 65.41,83.66 L65.41,83.66 Z" id="Shape" fill="#603404" stroke-width="1"/>
            <path d="M64,86.73 C63.9489454,86.7300829 63.8994513,86.7124065 63.86,86.68 C63.7736362,86.5908147 63.7736362,86.4491853 63.86,86.36 C64.8404555,85.2906432 66.3052807,84.8061532 67.73,85.08 C67.8421172,85.1133524 67.9113438,85.2255431 67.8908697,85.3407102 C67.8703955,85.4558772 67.7667427,85.5373338 67.65,85.53 C66.3876522,85.2966483 65.0929855,85.7181677 64.21,86.65 C64.1586784,86.711376 64.0791497,86.7416727 64,86.73 Z" id="Shape" fill="#603404" stroke-width="1"/>
            <path d="M85.77,126.3 C85.6725851,126.292133 85.5907797,126.223562 85.5660183,126.129019 C85.541257,126.034476 85.5789477,125.934608 85.66,125.88 C87.0557786,124.938665 88.0143612,123.475565 88.32,121.82 C88.3211662,121.730042 88.3746748,121.649023 88.4569527,121.612635 C88.5392306,121.576246 88.6351712,121.59117 88.7025081,121.650832 C88.7698449,121.710494 88.7962146,121.803939 88.77,121.89 C88.44891,123.684874 87.4038541,125.26873 85.88,126.27 C85.8464324,126.289074 85.8086034,126.299391 85.77,126.3 Z" id="Shape" fill="#603404" stroke-width="1"/>
            <path d="M120.79,137.12 C120.79,137.12 119.43,140.81 122.34,143.12 C124.61,144.95 127.42,144.5 129.55,142.52 C130.76,141.39 131.55,138.16 130.37,136.8 L120.79,137.12 Z" id="Shape" fill="#FFF6E6" stroke-width="1"/>
            <path d="M120.14,137.56 C120.186671,139.585294 121.230938,141.45674 122.93,142.56 C124.926589,143.931243 127.61891,143.674229 129.32,141.95 C130.763862,140.510254 132.002202,138.878203 133,137.1 L120.14,137.56 Z" id="Shape" fill="#443A37" stroke-width="1"/>
            <path d="M99.07,136.81 C99.07,136.81 97.72,140.5 100.62,142.81 C102.9,144.64 105.7,144.19 107.83,142.2 C109.04,141.07 109.83,137.84 108.64,136.48 L99.07,136.81 Z" id="Shape" fill="#FFF6E6" stroke-width="1"/>
            <path d="M98.42,137.25 C98.4688924,139.277195 99.5171236,141.149036 101.22,142.25 C103.218931,143.618661 105.911471,143.357413 107.61,141.63 C109.054446,140.203195 110.296052,138.584734 111.3,136.82 L98.42,137.25 Z" id="Shape" fill="#443A37" stroke-width="1"/>
            <path d="M126.89,64.12 C126.89,64.12 135.26,62.01 140.58,79.39 C142.302893,83.6406281 143.251175,88.1652859 143.38,92.75 C143.38,97.66 140.87,101.75 137.52,102.69 C135.912156,103.163606 134.197227,103.128679 132.61,102.59 C132.61,102.59 133.94,121.18 141.03,132.23 C141.03,132.23 142.31,141.32 112.03,140.78 C112.03,140.78 80.51,139.16 83.45,126.71 C83.45,126.71 84.77,122.35 88.5,121.87 L92,102.42 L94,80.73 L126.89,64.12 Z" id="Shape" fill="#175F7F" stroke-width="1"/>
            <path d="M114.63,141 L112.07,141 C111.17,141 90.07,139.79 84.45,132.25 C83.2125063,130.665855 82.7802837,128.597097 83.28,126.65 C83.34,126.46 84.65,122.26 88.36,121.65 L91.8,102.38 L93.8,80.71 C93.8075252,80.633759 93.852518,80.5662698 93.92,80.53 L126.83,63.92 L126.83,63.92 C127.18,63.83 135.47,61.92 140.83,79.34 C142.554195,83.6150572 143.505628,88.1622992 143.64,92.77 C143.64,97.77 141.13,101.94 137.64,102.92 C136.102447,103.371407 134.467553,103.371407 132.93,102.92 C133.15,105.48 134.83,122.06 141.28,132.12 C141.286202,132.149679 141.286202,132.180321 141.28,132.21 C141.30632,133.366226 140.84546,134.480276 140.01,135.28 C137.62,137.92 131.28,141 114.63,141 Z M94.19,80.88 L92.24,102.44 L88.77,121.89 C88.750306,121.983699 88.6746255,122.055396 88.58,122.07 C85.03,122.53 83.73,126.71 83.71,126.76 C83.2437575,128.573172 83.6505853,130.500057 84.81,131.97 C90.34,139.34 111.87,140.53 112.08,140.54 C130.41,140.86 137.17,137.7 139.61,134.98 C140.339053,134.270575 140.765467,133.306666 140.8,132.29 C133.8,121.29 132.39,102.78 132.38,102.59 C132.376395,102.514671 132.409948,102.44236 132.469798,102.396475 C132.529648,102.35059 132.60819,102.336961 132.68,102.36 C134.221234,102.886752 135.888044,102.921696 137.45,102.46 C140.72,101.55 143.12,97.46 143.15,92.74 C143.012222,88.1864615 142.067581,83.6934895 140.36,79.47 C137.64,70.57 134.12,66.94 131.65,65.47 C130.286837,64.5447233 128.636552,64.1401373 127,64.33 L94.19,80.88 Z" id="Shape" fill="#603404" stroke-width="1"/>
            <path d="M83.66,126.62 C83.5778752,126.856694 83.5208946,127.101376 83.49,127.35 C83.2672953,128.81558 83.5950216,130.311722 84.41,131.55 C84.41,131.55 85.57,133.65 89.23,135.55 C91.6944227,136.791233 94.3047949,137.71847 97,138.31 C100.144752,139.107416 103.33821,139.698673 106.56,140.08 C106.56,140.08 112.56,141.2 123.03,140.3 C123.03,140.3 131.65,139.89 136.4,137.3 C136.4,137.3 140.9,135.52 140.96,132.24 C140.375522,131.357783 139.847789,130.43926 139.38,129.49 C139.38,129.49 111.93,144.75 83.66,126.62 Z" id="Shape" fill="#C9D4D7" stroke-width="1"/>
            <path d="M91.77,98.34 L91.77,98.34 C91.5776237,98.9725668 91.5500859,99.6438008 91.69,100.29 L91.87,100.94 C92.0174404,101.377368 92.2969585,101.758211 92.67,102.03 C96.31,103.91 114.38,108.67 132.27,102.58 L131.17,101.52 C130.839236,101.149623 130.605583,100.702933 130.49,100.22 L130.39,99.84 C130.39,99.84 114.39,106.64 92.87,97.84 C92.35,97.65 92.08,97.73 91.77,98.34 Z" id="Shape" fill="#5F8C93" stroke-width="1"/>
            <path d="M73.55,81 L72.63,81.91 C72.63,81.91 70.5,82.06 70.23,83.46 C70.23,83.46 69.54,91.05 72.91,95.12 C72.91,95.12 73.43,95.44 74.15,93.92 L77.79,92.3 C77.79,92.3 73.55,82.18 73.55,81 Z" id="Shape" fill="#5F8C93" stroke-width="1"/>
            <path d="M73.1,95.34 C72.9929213,95.353297 72.8843844,95.3322899 72.79,95.28 L72.74,95.28 C69.35,91.18 69.98,83.77 70.01,83.46 C70.29,82.04 72.11,81.76 72.53,81.71 L73.4,80.85 C73.4752374,80.7980516 73.5747626,80.7980516 73.65,80.85 C73.734336,80.8858577 73.7893375,80.9683599 73.79,81.06 C73.79,82.06 76.79,89.49 78.02,92.29 C78.062412,92.403181 78.0099849,92.5298798 77.9,92.58 L74.33,94.16 C73.98,94.88 73.61,95.3 73.24,95.41 L73.1,95.34 Z M73,94.9 C73.12,94.9 73.46,94.73 73.9,93.8 C73.9227773,93.7516699 73.9616699,93.7127773 74.01,93.69 L77.45,92.16 C76.8,90.61 73.86,83.55 73.35,81.43 L72.73,82.04 C72.6937428,82.0786488 72.642992,82.1003991 72.59,82.1 C72.59,82.1 70.59,82.26 70.4,83.47 C70.44,83.53 69.81,90.94 73,94.9 Z" id="Shape" fill="#603404" stroke-width="1"/>
            <path d="M80.24,72.38 C75.495335,74.855408 72.8805227,80.1011734 73.76,85.38 C73.76,85.38 75.7,94.38 81.52,92.89 C81.52,92.89 85.01,92.1 85.85,91.21 C85.85,91.19 79.1,76.17 80.24,72.38 Z" id="Shape" fill="#175F7F" stroke-width="1"/>
            <path d="M80.78,93.23 C79.7306176,93.3480821 78.6723471,93.1046799 77.78,92.54 C74.7,90.63 73.59,85.62 73.54,85.4 C72.1,76.14 80.06,72.21 80.14,72.17 C80.2129555,72.1225212 80.3070445,72.1225212 80.38,72.17 C80.4485702,72.229228 80.4759774,72.3231956 80.45,72.41 C79.35,76.09 85.98,90.92 86.05,91.07 C86.0992435,91.1460586 86.0992435,91.2439414 86.05,91.32 C85.17,92.25 81.75,93.03 81.61,93.06 C81.3380413,93.1376188 81.060575,93.1944492 80.78,93.23 Z M79.92,72.81 C75.5301693,75.3367137 73.1703926,80.3233364 74,85.32 C74,85.32 75.12,90.32 78,92.16 C79.0271112,92.798796 80.2753758,92.9766011 81.44,92.65 C82.8812625,92.3672891 84.2685199,91.8576154 85.55,91.14 C84.87,89.54 79.4,77.07 79.92,72.81 Z" id="Shape" fill="#603404" stroke-width="1"/>
            <path d="M94.52,62.54 L86,66.17 C86,66.17 78.89,69.17 78.77,78.68 C78.77,78.68 77.31,89.73 84.02,92.17 L87.02,90.52 C87.02,90.52 91.14,90.52 97.37,85.66 C97.42,85.65 106.3,64.53 94.52,62.54 Z" id="Shape" fill="#5F8C93" stroke-width="1"/>
            <path d="M84.08,92.39 L84,92.39 C77.19,89.92 78.58,78.77 78.6,78.66 C78.69,69.13 85.87,66 85.94,66 L94.43,62.38 C94.4725081,62.3680404 94.5174919,62.3680404 94.56,62.38 C96.7080976,62.6501646 98.5968313,63.9328676 99.64,65.83 C103.22,72.34 97.86,85.26 97.64,85.83 C97.6249811,85.8656302 97.6008369,85.8966727 97.57,85.92 C91.68,90.52 87.7,90.81 87.14,90.83 L84.14,92.45 L84.08,92.39 Z M94.55,62.78 L86.12,66.38 C86.05,66.38 79.12,69.45 79.03,78.68 C79.03,78.81 77.69,89.5 84.03,91.92 L86.96,90.32 L87.07,90.32 C87.07,90.32 91.18,90.26 97.23,85.54 C97.61,84.61 102.6,72.13 99.23,66.01 C98.2710372,64.2515986 96.534216,63.0528951 94.55,62.78 L94.55,62.78 Z" id="Shape" fill="#603404" stroke-width="1"/>
            <path d="M86.9,66.58 C86.9,66.58 83.38,68.7 82.1,74.5 C81.23,78.44 80.99,89.87 86.15,90.83 C88.3255707,91.2034693 90.5560242,91.1045654 92.69,90.54 L92.69,97.12 C92.69,97.12 92.87,87.65 114.58,67.79 C114.58,67.79 102.68,65.96 97.82,62.4 L86.9,66.58 Z" id="Shape" fill="#C9D4D7" stroke-width="1"/>
            <path d="M97.83,62.41 C102.69,65.96 114.59,67.8 114.59,67.8 C92.87,87.66 92.59,97.31 92.59,97.31 L92.64,90.55 C91.5441937,90.7799468 90.4355132,90.9435774 89.32,91.04 C88.2425573,91.1185781 87.1594377,91.0513036 86.1,90.84 C80.94,89.84 81.18,78.44 82.05,74.51 C83.33,68.71 86.85,66.59 86.85,66.59 L97.77,62.41 L97.83,62.41 Z M97.77,61.96 L97.64,61.96 L86.74,66.16 L86.67,66.16 C86.52,66.25 82.96,68.45 81.67,74.37 C80.97,77.55 80.67,85.37 83.16,89.16 C83.797309,90.2289747 84.8522797,90.9830431 86.07,91.24 C87.1653414,91.4606818 88.2856129,91.5313295 89.4,91.45 C90.3601144,91.3707138 91.3149738,91.237167 92.26,91.05 L92.19,97.28 C92.2008162,97.5246085 92.4052183,97.7156801 92.65,97.71 L92.65,97.71 C92.8906493,97.6939932 93.0758913,97.4911091 93.07,97.25 C93.07,97.15 93.64,87.5 114.87,68.08 C115.000012,67.9627694 115.050237,67.7807791 114.998754,67.6134602 C114.947272,67.4461414 114.803426,67.3238651 114.63,67.3 C114.51,67.3 102.79,65.44 98.07,62 C97.9840034,61.9350441 97.8775508,61.9031083 97.77,61.91 L97.77,61.96 Z" id="Shape" fill="#603404" stroke-width="1"/>
            <path d="M129.25,87.87 L129.17,87.87 C129.056111,87.8236279 128.998843,87.6958757 129.04,87.58 C129.04,87.51 131.53,81.06 136.81,82.06 C136.929512,82.0851332 137.008544,82.1992895 136.99,82.32 C136.964867,82.4395124 136.85071,82.5185437 136.73,82.5 C131.82,81.56 129.5,87.67 129.47,87.73 C129.432762,87.8177461 129.345259,87.8734301 129.25,87.87 Z" id="Shape" fill="#603404" stroke-width="1"/>
            <path d="M131.23,84.42 C131.144316,84.4173249 131.06723,84.3672192 131.03,84.29 C130.516781,83.1600927 130.36655,81.8988458 130.6,80.68 C130.611844,80.6208543 130.647454,80.569166 130.698498,80.5370268 C130.749543,80.5048875 130.811545,80.4951167 130.87,80.51 C130.990028,80.5396763 131.065117,80.6589361 131.04,80.78 C130.833535,81.898335 130.973076,83.0530413 131.44,84.09 C131.490119,84.203305 131.441483,84.3359491 131.33,84.39 L131.23,84.42 Z" id="Shape" fill="#603404" stroke-width="1"/>
            <path d="M132.27,86.6 C132.27,86.6 133.27,84.87 133.93,86 C133.93,86 137.25,95.42 134.12,101 C134.12,101 133.99,101.5 133.12,100.24 C133.12,100.24 128.74,98.98 127.27,99.47 C127.27,99.47 126.16,100.47 126.18,99.19 C126.18,99.19 128.18,91.31 126.34,86.85 C126.34,86.85 126.34,85.55 127.58,86.93 C127.57,87 130.33,88.86 132.27,86.6 Z" id="Shape" fill="#5F8C93" stroke-width="1"/>
            <path d="M134,101.38 C133.73,101.38 133.42,101.11 133,100.49 C132.42,100.33 128.72,99.33 127.4,99.72 C127.23,99.87 126.73,100.25 126.33,100.08 C125.93,99.91 125.96,99.68 125.97,99.23 C125.97,99.1 127.91,91.32 126.15,86.98 C126.145111,86.9535574 126.145111,86.9264426 126.15,86.9 C126.15,86.84 126.15,86.3 126.52,86.15 C126.89,86 127.24,86.24 127.78,86.82 C127.85,86.82 130.35,88.52 132.13,86.46 C132.23,86.29 132.81,85.38 133.45,85.38 L133.45,85.38 C133.761931,85.3996906 134.036353,85.5929456 134.16,85.88 C134.31,86.3 137.49,95.5 134.35,101.15 C134.307809,101.261956 134.208327,101.342307 134.09,101.36 L134,101.38 Z M128.18,99.19 C129.873933,99.3050968 131.550395,99.6035071 133.18,100.08 C133.229308,100.095016 133.271778,100.126869 133.3,100.17 C133.467339,100.455973 133.687994,100.707181 133.95,100.91 C136.95,95.38 133.75,86.18 133.72,86.08 C133.665643,85.9513735 133.548142,85.860405 133.41,85.84 L133.41,85.84 C133.08,85.84 132.64,86.43 132.47,86.71 L132.47,86.71 C130.47,89.09 127.47,87.15 127.47,87.13 C126.86,86.48 126.67,86.53 126.67,86.54 C126.67,86.55 126.59,86.69 126.58,86.82 C128.37,91.31 126.49,98.94 126.41,99.26 C126.33,99.58 126.48,99.62 126.51,99.63 C126.54,99.64 126.93,99.5 127.13,99.32 L127.21,99.32 C127.521677,99.2288011 127.845293,99.184978 128.17,99.19 L128.18,99.19 Z" id="Shape" fill="#603404" stroke-width="1"/>
            <path d="M132.61,102.81 L132.53,102.81 C131.214502,102.333046 130.325557,101.098841 130.29,99.7 C130.295357,99.5768959 130.396779,99.4798835 130.52,99.48 L130.52,99.48 C130.643104,99.4853574 130.740117,99.5867794 130.74,99.71 C130.772637,100.93646 131.573543,102.009674 132.74,102.39 C132.837209,102.432967 132.892319,102.536943 132.873307,102.64151 C132.854295,102.746078 132.766112,102.824001 132.66,102.83 L132.61,102.81 Z" id="Shape" fill="#603404" stroke-width="1"/>
            <path d="M119.66,83.23 C120.870845,83.5806001 121.978986,84.2187249 122.89,85.09 C123.290193,85.4850522 123.766499,85.7946512 124.29,86 C125.060277,86.2857015 125.811768,86.6196978 126.54,87 C126.54,87 128.54,88.76 128.03,95.36 C127.98316,96.7255817 127.344361,98.0031786 126.28,98.86 C124.631083,99.9347666 122.717448,100.533426 120.75,100.59 C120.401927,100.605983 120.056114,100.526446 119.75,100.36 L119.62,100.29 C119.177413,99.9850281 118.687483,99.755268 118.17,99.61 C116.58,99.22 113.66,98.16 114.3,95.68 C113.390584,94.8707185 112.909995,93.6840314 113,92.47 C113,92.47 112,90.47 112.71,89.56 C112.71,89.56 113.2,89.1 113.93,89.77 C113.908683,89.4618952 114.058156,89.166942 114.319229,89.0019443 C114.580301,88.8369466 114.910859,88.8285194 115.18,88.98 C115.18,88.98 118.39,91.35 120.31,90.15 C121.003201,89.5477581 121.239855,88.5730661 120.9,87.72 C120.773554,87.3682931 120.568318,87.0501772 120.3,86.79 C119.78,86.28 118.63,84.97 118.92,83.56 C118.86,83.54 119.18,82.88 119.66,83.23 Z" id="Shape" fill="#936258" stroke-width="1"/>
            <path d="M120.62,100.8 C120.27038,100.796721 119.926942,100.707427 119.62,100.54 L119.48,100.46 C119.056422,100.166872 118.586524,99.9471352 118.09,99.81 C116.77,99.49 115.09,98.81 114.31,97.61 C113.973063,97.0483747 113.868992,96.3772959 114.02,95.74 C113.123227,94.9099171 112.649188,93.7193068 112.73,92.5 C112.55,92.13 111.73,90.33 112.5,89.4 C112.863445,89.1128024 113.376555,89.1128024 113.74,89.4 C113.804615,89.1700317 113.945711,88.9689689 114.14,88.83 C114.480259,88.6468765 114.889741,88.6468765 115.23,88.83 L115.28,88.83 C115.28,88.83 118.39,91.1 120.15,89.99 C120.75133,89.4446942 120.94717,88.5814006 120.64,87.83 C120.526446,87.5124677 120.341731,87.2251332 120.1,86.99 C119.56,86.46 118.35,85.08 118.66,83.56 L118.66,83.5 C118.7751,83.2553957 118.984328,83.0678119 119.24,82.98 C119.419642,82.9367008 119.609231,82.9731603 119.76,83.08 C120.993205,83.4453893 122.121211,84.1002502 123.05,84.99 C123.427267,85.3630412 123.876335,85.6556156 124.37,85.85 C125.146892,86.1353913 125.905057,86.4693845 126.64,86.85 C126.77,86.96 128.79,88.79 128.25,95.43 C128.173737,96.830213 127.50002,98.1303051 126.4,99 C124.713831,100.09529 122.759706,100.707467 120.75,100.77 L120.62,100.8 Z M113.1,89.61 C112.995826,89.6054953 112.89332,89.6373074 112.81,89.7 C112.29,90.33 112.88,91.82 113.15,92.34 C113.165245,92.3854217 113.165245,92.4345783 113.15,92.48 C113.075162,93.6162158 113.529084,94.7233435 114.38,95.48 C114.444735,95.5373989 114.471782,95.6262698 114.45,95.71 C114.287018,96.2685324 114.363063,96.8696502 114.66,97.37 C115.36,98.53 117.15,99.12 118.16,99.37 C118.703038,99.5193701 119.216937,99.759415 119.68,100.08 L119.79,100.15 C120.070735,100.3046 120.390418,100.374097 120.71,100.35 C122.637663,100.295569 124.513019,99.7108178 126.13,98.66 C127.133029,97.8387272 127.734152,96.6255519 127.78,95.33 C128.29,88.96 126.38,87.17 126.36,87.15 C125.655226,86.7983692 124.93068,86.4878493 124.19,86.22 C123.632943,85.9923737 123.129037,85.6518967 122.71,85.22 C121.828903,84.3769151 120.75925,83.756379 119.59,83.41 L119.51,83.41 C119.461125,83.3660937 119.394518,83.3475917 119.33,83.36 C119.212806,83.4130789 119.117462,83.5048916 119.06,83.62 C118.82,84.91 119.9,86.14 120.38,86.62 C120.669567,86.8998358 120.891819,87.2417633 121.03,87.62 C121.393982,88.5633336 121.130416,89.6335703 120.37,90.3 C118.37,91.54 115.37,89.4 115,89.16 C114.798764,89.0583974 114.561236,89.0583974 114.36,89.16 C114.191187,89.3142647 114.093501,89.5313448 114.09,89.76 C114.087997,89.8488192 114.032769,89.9277165 113.95,89.96 C113.877044,90.0074788 113.782956,90.0074788 113.71,89.96 C113.559613,89.7687991 113.340961,89.6433427 113.1,89.61 L113.1,89.61 Z" id="Shape" fill="#603404" stroke-width="1"/>
            <path d="M117.7,93.42 C117.106694,93.4280838 116.521279,93.2834518 116,93 C114.858542,92.2538636 114.024233,91.1213335 113.65,89.81 C113.615436,89.7275735 113.631755,89.632587 113.691847,89.5664227 C113.75194,89.5002584 113.844922,89.4748997 113.930285,89.5013943 C114.015648,89.527889 114.077931,89.6014385 114.09,89.69 C114.438496,90.8843399 115.196051,91.9180131 116.23,92.61 C117.060209,93.03911 118.032224,93.1007677 118.91,92.78 C119.017636,92.7717297 119.116539,92.8394308 119.147779,92.9427645 C119.179019,93.0460981 119.134189,93.1572535 119.04,93.21 C118.606403,93.3468519 118.154674,93.4176452 117.7,93.42 L117.7,93.42 Z" id="Shape" fill="#603404" stroke-width="1"/>
            <path d="M118,95.4 C115.22,95.4 112.85,92.71 112.74,92.59 C112.681056,92.4946704 112.699409,92.3707336 112.783452,92.2965784 C112.867494,92.2224231 112.992752,92.2196445 113.08,92.29 C113.08,92.29 115.68,95.23 118.42,94.92 C118.508184,94.8938577 118.603464,94.9227663 118.662254,94.993502 C118.721045,95.0642377 118.73204,95.1631973 118.690211,95.245113 C118.648382,95.3270286 118.561772,95.3761472 118.47,95.37 L118,95.4 Z" id="Shape" fill="#603404" stroke-width="1"/>
            <path d="M118.8,97.79 L118.8,97.79 C116.93,97.79 114.24,95.91 114.12,95.79 C114.021026,95.7188838 113.994708,95.5829095 114.06,95.48 C114.131116,95.3810261 114.26709,95.3547085 114.37,95.42 C114.37,95.42 117.06,97.26 118.8,97.3 C118.906282,97.3225303 118.982303,97.4163566 118.982303,97.525 C118.982303,97.6336434 118.906282,97.7274697 118.8,97.75 L118.8,97.79 Z" id="Shape" fill="#603404" stroke-width="1"/>
            <path d="M128.91,38.1 C130.212028,38.400999 131.343453,39.2019761 132.06,40.33 C132.06,40.33 134.51,42.09 135.79,40.58 C135.79,40.58 136.09,39.86 134.88,39.35 C134.88,39.35 137.63,38.63 137.19,41.41 C136.464218,42.6140561 135.145232,43.3328078 133.74,43.29 C133.74,43.29 134.74,45.75 139.26,44.71 C139.26,44.71 141.26,43.33 140.32,42.14 C140.32,42.14 140.15,41.65 138.92,41.84 C138.92,41.84 141.53,39.48 142.92,43.07 C142.92,43.07 143.35,50.07 135.68,47.96 C135.68,47.96 136.13,51.96 141.51,51.96 C141.51,51.96 144.07,52.96 144.51,50.32 C144.51,50.32 144.32,49.1 142.61,50.32 C142.61,50.32 143.06,46.88 145.75,48.76 C146.491384,50.2698875 146.564919,52.0216454 145.952685,53.5883552 C145.340452,55.1550651 144.09868,56.3928315 142.53,57 C140.816694,57.7853623 138.859078,57.8466505 137.1,57.17 C137.1,57.17 135.8,60.34 139.51,61.01 C139.51,61.01 141.79,61.31 142.06,59.73 C142.06,59.73 141.71,58.55 140.47,59.61 C140.47,59.61 141.08,56.88 143.59,58.94 C143.59,58.94 146.48,64.14 138.39,65.8 C135.826187,66.0852658 133.23147,65.7420492 130.83,64.8 C130.83,64.8 131.19,69.08 136.24,69.57 C136.24,69.57 134.24,73.69 124.24,71.31 C124.24,71.31 123.66,72.68 125.61,72.99 C126.478673,73.2709111 127.417304,73.2462103 128.27,72.92 C128.27,72.92 127.05,76.3 121.52,75.92 C119.618065,75.6569575 117.805355,74.947636 116.23,73.85 C116.23,73.85 113.57,72.31 112.56,74.04 C111.957134,74.7669128 111.987091,75.8282502 112.63,76.52 C112.63,76.52 114.01,77.68 114.76,76.36 C114.76,76.36 115.56,75.05 114.06,74.95 C113.714276,75.2399498 113.576307,75.7090452 113.71,76.14 C113.71,76.14 112.43,75.91 113.37,74.14 C113.37,74.14 115.37,72.99 116.14,75.47 C116.14,75.47 116.45,78.87 113.14,78.67 C111.564499,78.5426846 110.191425,77.5475911 109.58,76.09 C109.411282,75.0441116 109.438409,73.9759758 109.66,72.94 C109.66,72.94 108.42,76.55 103.45,76.74 C103.45,76.74 99.18,77.39 96.64,75.93 C96.64,75.93 100.26,76.86 101.49,73.44 C101.794171,72.7625775 101.794171,71.9874225 101.49,71.31 C101.49,71.31 99.95,73.9 94.49,74.81 C93.0774406,74.7755593 91.6984624,74.3722082 90.49,73.64 C90.49,73.64 93.6,73.78 94.94,69.2 C94.94,69.2 91.78,72.41 88.67,70.81 C88.67,70.81 91.67,67.96 91.67,65.64 C91.67,65.64 85.95,68.09 81.77,62.21 C81.77,62.21 89.68,64.37 90.05,62.14 C90.05,62.14 77.61,64.24 81.7,55.44 C81.7,55.44 81.64,58.5 85.02,56.77 C85.02,56.77 87.59,55.44 87.59,53.22 C86.5197275,53.9772066 85.1845298,54.25945 83.8993808,54.000149 C82.6142319,53.7408479 81.4929332,52.9629638 80.8,51.85 C80.4660969,51.0575532 80.4718,50.1628419 80.8157782,49.3747161 C81.1597563,48.5865904 81.8119069,47.9740215 82.62,47.68 C82.62,47.68 80.48,50.68 84.13,50.63 C84.13,50.63 87.51,50.32 88.47,45.78 C88.2502391,45.7631007 88.0343835,45.7125096 87.83,45.63 C87.0226012,45.3498464 86.4285656,44.6566972 86.2753217,43.8159266 C86.1220778,42.975156 86.4333627,42.1169976 87.09,41.57 L87.17,41.5 C87.17,41.5 85.75,43.7 87.76,43.65 C87.76,43.65 89.84,42.98 90.92,39.32 L128.91,38.1 Z" id="Shape" fill="#000000" stroke-width="1"/>
            <path d="M91,40.14 C91,40.14 89.17,48.38 89.62,53 C89.62,53 89.55,68.53 106.89,68.7 C107.43,68.7 107.98,68.7 108.52,68.8 C112.61,69.18 129.82,70.02 132.41,57.57 C132.731869,56.1955599 132.909496,54.7912953 132.94,53.38 C133.320971,49.2443955 133.108826,45.0755664 132.31,41 C132.31,41 110.37,29.34 91,40.14 Z" id="Shape" fill="#936258" stroke-width="1"/>
            <path d="M110.92,55.58 C107.67424,55.8595617 104.481618,56.5794998 101.43,57.72 C100.545185,58.0972965 99.5346831,58.0380729 98.7,57.56 C98.2017703,57.2570774 97.7503579,56.8831462 97.36,56.45 C97.36,56.45 96.45,60.8 105,60 L109.11,58.87 C110.39547,58.420184 111.781443,58.3404906 113.11,58.64 C115.45,59.42 119.28,60.64 122.91,60.23 C122.91,60.23 127.03,59.78 126.35,56.34 C126.17081,57.0351175 125.698081,57.6178931 125.054875,57.9366157 C124.41167,58.2553384 123.661626,58.2784741 123,58 C119.32767,56.9018331 115.576733,56.0861213 111.78,55.56 C111.493492,55.5343502 111.205006,55.5410591 110.92,55.58 L110.92,55.58 Z" id="Shape" fill="#000102" stroke-width="1"/>
            <path d="M109.09,53.44 L109.01,53.44 C108.907658,53.3829225 108.86459,53.2580265 108.91,53.15 C108.91,53.07 109.74,51.26 111.06,51.15 C111.9,51.1 112.74,51.75 113.53,53.15 C113.589051,53.2507328 113.563252,53.3797277 113.47,53.45 C113.424758,53.4821344 113.367729,53.4928841 113.313894,53.4794252 C113.260058,53.4659662 113.214797,53.4296441 113.19,53.38 C112.48,52.17 111.76,51.57 111.08,51.62 C110,51.7 109.28,53.33 109.27,53.35 C109.230563,53.4102005 109.161823,53.4445706 109.09,53.44 L109.09,53.44 Z" id="Shape" fill="#161616" stroke-width="1"/>
            <ellipse id="Oval" fill="#F5F9F8" cx="99.07" cy="46.32" rx="5.59" ry="4.47" stroke-width="1"/>
            <path d="M99.07,50.9 C95.91,50.9 93.34,48.84 93.34,46.32 C93.34,43.8 95.91,41.74 99.07,41.74 C102.23,41.74 104.8,43.8 104.8,46.32 C104.8,48.84 102.23,50.9 99.07,50.9 Z M99.07,41.95 C96.07,41.95 93.62,43.95 93.62,46.31 C93.62,48.67 96.07,50.67 99.07,50.67 C102.07,50.67 104.53,48.67 104.53,46.31 C104.53,43.95 102.08,42 99.07,42 L99.07,41.95 Z" id="Shape" fill="#161616" stroke-width="1"/>
            <ellipse id="Oval" fill="#161616" cx="100.51" cy="46.5" rx="2.43" ry="1.94" stroke-width="1"/>
            <ellipse id="Oval" fill="#F5F9F8" cx="123.39" cy="46.32" rx="5.59" ry="4.47" stroke-width="1"/>
            <path d="M123.39,50.9 C120.23,50.9 117.66,48.84 117.66,46.32 C117.66,43.8 120.23,41.74 123.39,41.74 C126.55,41.74 129.12,43.8 129.12,46.32 C129.12,48.84 126.54,50.9 123.39,50.9 Z M123.39,41.95 C120.39,41.95 117.93,43.95 117.93,46.31 C117.93,48.67 120.38,50.67 123.39,50.67 C126.4,50.67 128.85,48.67 128.85,46.31 C128.85,43.95 126.39,42 123.39,42 L123.39,41.95 Z" id="Shape" fill="#161616" stroke-width="1"/>
            <ellipse id="Oval" fill="#161616" cx="121.95" cy="46.5" rx="2.43" ry="1.94" stroke-width="1"/>
            <path d="M105.2,60.38 C109.142633,61.338056 113.257367,61.338056 117.2,60.38 C117.2,60.38 118.11,65.61 110.65,65.22 C110.69,65.22 105.06,65 105.2,60.38 Z" id="Shape" fill="#830004" stroke-width="1"/>
            <path d="M111.47,65.35 L110.68,65.35 C110.63,65.35 104.94,65.12 105.08,60.35 C105.069959,60.3242785 105.069959,60.2957215 105.08,60.27 C105.111745,60.2554495 105.148255,60.2554495 105.18,60.27 C109.123095,61.2241917 113.236905,61.2241917 117.18,60.27 C117.208864,60.258324 117.241136,60.258324 117.27,60.27 C117.295478,60.2855789 117.313526,60.3108469 117.32,60.34 C117.494028,61.55541 117.1288,62.7862304 116.32,63.71 C115.33,64.8 113.7,65.35 111.47,65.35 Z M105.31,60.52 C105.234116,62.2608298 106.293894,63.8504965 107.93,64.45 C108.804651,64.8287325 109.738634,65.0520763 110.69,65.11 C113.25,65.24 115.09,64.73 116.16,63.59 C116.909885,62.7526312 117.272832,61.6383841 117.16,60.52 C113.262993,61.435036 109.207007,61.435036 105.31,60.52 L105.31,60.52 Z" id="Shape" fill="#161616" stroke-width="1"/>
            <path d="M107.26,64.11 C109.965336,63.3331527 112.834664,63.3331527 115.54,64.11 C115.54,64.11 114.13,65.2 110.93,65.11 C109.640683,65.1003037 108.376017,64.755708 107.26,64.11 Z" id="Shape" fill="#D27366" stroke-width="1"/>
            <path d="M105.31,60.52 L105.36,61.29 C109.216008,62.4568929 113.336396,62.4185151 117.17,61.18 L117.17,60.5 C117.17,60.5 112.57,62.08 105.31,60.52 Z" id="Shape" fill="#FFFFFF" stroke-width="1"/>
            <path d="M88.15,39.52 C88.15,39.52 87.34,17.25 106.71,12.66 C106.71,12.66 117.07,9.66 127.49,18.19 C127.49,18.19 135.49,25.19 135.67,40.3 C135.67,40.3 114.66,26.71 88.15,39.52 Z" id="Shape" fill="#175F7F" stroke-width="1"/>
            <path d="M135.67,40.53 L135.58,40.53 C135.37,40.39 114.34,27.14 88.22,39.76 C88.1680203,39.7925941 88.1019797,39.7925941 88.05,39.76 C87.9935336,39.7129721 87.9606176,39.6434826 87.96,39.57 C87.9486258,35.5481116 88.6250394,31.5538893 89.96,27.76 C91.96,22.11 96.56,14.86 106.64,12.47 C106.74,12.47 117.19,9.59 127.56,18.03 C127.65,18.11 135.64,25.29 135.83,40.33 C135.832404,40.4069699 135.799202,40.4807528 135.74,40.53 C135.716919,40.5348559 135.693081,40.5348559 135.67,40.53 Z M111.34,33.82 C119.769539,33.7716407 128.072977,35.8672867 135.47,39.91 C135.15,25.36 127.47,18.44 127.37,18.37 C117.15,10.05 106.85,12.85 106.75,12.88 C96.83,15.23 92.35,22.34 90.34,27.88 C89.0598981,31.508503 88.3842445,35.3225674 88.34,39.17 C95.507585,35.6831495 103.369327,33.8578581 111.34,33.83 L111.34,33.82 Z" id="Shape" fill="#603404" stroke-width="1"/>
            <path d="M96.38,17.64 C96.38,17.64 95.54,2.81 101.68,2.03 C101.68,2.03 113.07,-1.51 124.32,2.69 C124.32,2.69 129.2,3.69 128.49,18.81 C128.48,18.81 114.53,5.57 96.38,17.64 Z" id="Shape" fill="#175F7F" stroke-width="1"/>
            <path d="M128.48,19 C128.44133,19.014587 128.39867,19.014587 128.36,19 C128.22,18.87 114.3,6 96.47,17.85 C96.4156887,17.8869499 96.3443113,17.8869499 96.29,17.85 C96.228616,17.8059395 96.1915656,17.7355439 96.19,17.66 C96.0841248,15.1312846 96.2012443,12.5981578 96.54,10.09 C97.29,5 99.06,2.09 101.66,1.8 C101.75,1.8 113.2,-1.71 124.37,2.47 C124.55,2.47 129.37,3.65 128.67,18.82 C128.669411,18.900952 128.628051,18.976152 128.56,19.02 L128.48,19 Z M111.83,12.32 C117.840799,12.3985481 123.647178,14.5138045 128.3,18.32 C128.88,4.03 124.3,2.88 124.3,2.87 C113.21,-1.27 101.85,2.17 101.74,2.2 C96.36,2.88 96.5,14.93 96.57,17.2 C101.069491,14.1212586 106.378483,12.4408895 111.83,12.37 L111.83,12.32 Z" id="Shape" fill="#603404" stroke-width="1"/>
            <ellipse id="Oval" fill="#35819B" cx="103.16" cy="7.14" rx="1.14" ry="2.5" stroke-width="1"/>
            <ellipse id="Oval" fill="#35819B" cx="100.18" cy="9.75" rx="1" ry="1.28" stroke-width="1"/>
            <path d="M87.89,41.4 C86.9976965,39.6614242 87.1045297,37.5781771 88.17,35.94 C91.3250063,34.6983056 94.5757059,33.7150693 97.89,33 C96.7400215,31.3464642 97.0630307,29.0854004 98.63,27.82 C99.3192202,27.2507194 100.197386,26.9615672 101.09,27.01 C101.958906,27.0385393 102.784556,27.3959637 103.4,28.01 C103.807849,28.4363863 104.024484,29.0104693 104,29.6 C104.002479,30.0713609 103.80445,30.52155 103.455321,30.838246 C103.106193,31.154942 102.638888,31.3082791 102.17,31.26 C102.476665,30.899074 102.584734,30.4097255 102.458594,29.9532176 C102.332453,29.4967096 101.988469,29.1322706 101.54,28.98 C101.062754,28.7002783 100.469821,28.7079787 100,29 C99.52,29.35 99.15,30 100,31.37 C100.288368,31.7691678 100.624161,32.1318245 101,32.45 C102.848504,31.9374021 104.785618,31.828269 106.68,32.13 C105.80714,29.7275866 106.313142,27.0404124 108,25.12 C109.045472,23.9397525 110.451747,23.1381754 112,22.84 C113.664817,22.5121593 115.390605,22.9045491 116.75,23.92 C119.513705,25.6988582 120.449113,29.3012676 118.9,32.2 C120.666347,32.1750428 122.428252,32.3835125 124.14,32.82 C124.851722,32.6143754 125.43691,32.1059933 125.74,31.43 C125.944284,30.8424088 125.648691,30.1982809 125.07,29.97 C124.492915,29.7324425 123.831183,29.8407963 123.36,30.25 C123.36,30.25 122.6,30.91 123.75,31.44 C123.75,31.44 122.14,32.51 121.64,30.86 C121.458796,30.2555293 121.527223,29.6036661 121.83,29.05 C122.456929,27.9239888 123.732979,27.3242053 125,27.56 L125.21,27.56 C126.807305,27.8827686 127.966727,29.2707497 128,30.9 C128.147348,31.9392155 127.841442,32.9916785 127.16,33.79 C127.16,33.79 133.85,35.71 136.16,37.61 C136.709682,38.9649938 136.787178,40.4655908 136.38,41.87 C136.38,41.87 123.31,37.43 116.49,37.42 C116.49,37.42 105.1,36.66 98.93,38.25 C99,38.24 90.58,39.7 87.89,41.4 Z" id="Shape" fill="#C9D4D7" stroke-width="1"/>
            <path d="M87.89,41.59 L87.89,41.59 C87.8393496,41.5777273 87.7959639,41.5451881 87.77,41.5 C86.8314988,39.7038953 86.919106,37.5441892 88,35.83 C88.0221264,35.7980032 88.0535413,35.7735695 88.09,35.76 C91.1715681,34.5534136 94.3407832,33.5839279 97.57,32.86 C96.5323235,31.1439723 96.9257042,28.9247917 98.49,27.67 C99.2182431,27.0685234 100.147094,26.7648606 101.09,26.82 C102.000739,26.8317394 102.87297,27.1892108 103.53,27.82 C103.975399,28.2867687 104.210282,28.9155343 104.18,29.56 C104.17891,30.0760413 103.96233,30.5681739 103.582559,30.9175638 C103.202787,31.2669537 102.694343,31.4418424 102.18,31.4 C102.106132,31.4024869 102.036913,31.3640323 102,31.3 C101.957801,31.2363598 101.957801,31.1536402 102,31.09 C102.237594,30.7644801 102.338118,30.3587938 102.28,29.96 C102.144842,29.5630425 101.83533,29.2498462 101.44,29.11 C101.016496,28.8971094 100.510688,28.9315963 100.12,29.2 C99.53,29.63 99.55,30.34 100.12,31.31 C100.388517,31.6734286 100.693431,32.0084986 101.03,32.31 C102.780973,31.8484985 104.605695,31.7363647 106.4,31.98 C105.581322,29.5689312 106.102781,26.9045432 107.77,24.98 C108.877812,23.7496868 110.368074,22.9288094 112,22.65 C113.71346,22.3224871 115.485865,22.7248121 116.89,23.76 C119.617911,25.5371867 120.616715,29.0543394 119.23,32 C120.916576,31.9764152 122.598564,32.1816177 124.23,32.61 C124.858246,32.4161232 125.372215,31.9604769 125.64,31.36 C125.794575,30.8698506 125.552439,30.34234 125.08,30.14 C124.566739,29.9299382 123.978944,30.0266151 123.56,30.39 L123.56,30.39 C123.450313,30.4898106 123.388461,30.6317061 123.39,30.78 C123.39,30.95 123.6,31.11 123.91,31.25 C123.974434,31.2821611 124.015147,31.3479859 124.015147,31.42 C124.015147,31.4920141 123.974434,31.5578389 123.91,31.59 C123.448511,31.9066729 122.875443,32.0154832 122.33,31.89 C121.907732,31.7132949 121.600565,31.3387015 121.51,30.89 C121.301219,30.2239461 121.373461,29.5015219 121.71,28.89 C122.382404,27.7468436 123.693667,27.1410321 125,27.37 L125.24,27.37 C126.931827,27.6908367 128.176821,29.1391799 128.24,30.86 C128.374352,31.8485647 128.123753,32.8509615 127.54,33.66 C128.86,34.06 134.25,35.73 136.34,37.43 C136.366785,37.4508307 136.387502,37.4784541 136.4,37.51 C136.972719,38.9087155 137.05034,40.4611316 136.62,41.91 C136.582699,42.0053359 136.47657,42.053978 136.38,42.02 C136.25,42.02 123.55,37.69 116.78,37.58 L116.55,37.58 C116.42,37.58 105.11,36.84 99.04,38.4 C98.94,38.4 90.65,39.88 88.04,41.53 C88.0014163,41.5713198 87.9464364,41.5933118 87.89,41.59 L87.89,41.59 Z M88.3,36.1 C87.3485931,37.6026616 87.2243368,39.4853318 87.97,41.1 C90.82,39.45 98.59,38.1 98.97,38.03 C105.08,36.45 116.46,37.19 116.57,37.2 L116.8,37.2 C123.17,37.3 134.75,41.08 136.32,41.6 C136.638661,40.307731 136.547804,38.9483664 136.06,37.71 C133.74,35.87 127.21,33.98 127.14,33.96 C127.072757,33.9441382 127.019423,33.8930252 127.000718,33.8265169 C126.982012,33.7600086 127.000883,33.6885881 127.05,33.64 C127.685949,32.8857488 127.972956,31.8975728 127.84,30.92 C127.810225,29.3674391 126.69581,28.0485061 125.17,27.76 L124.98,27.76 C123.793259,27.5312867 122.593204,28.0870168 122,29.14 C121.724344,29.6485572 121.663147,30.2461256 121.83,30.8 C121.891127,31.1240882 122.108117,31.3971972 122.41,31.53 C122.725007,31.6128999 123.059484,31.5773173 123.35,31.43 C123.132695,31.3017618 122.980035,31.0873117 122.93,30.84 C122.91315,30.5586347 123.027637,30.2853439 123.24,30.1 C123.76757,29.6454051 124.505734,29.5255985 125.15,29.79 C125.820247,30.0595608 126.162781,30.8061085 125.93,31.49 C125.61437,32.2198589 124.991997,32.7726732 124.23,33 C124.188015,33.0152857 124.141985,33.0152857 124.1,33 C122.410603,32.5722913 120.67255,32.3672212 118.93,32.39 C118.863779,32.3926986 118.800937,32.3606955 118.764174,32.3055506 C118.727411,32.2504057 118.722039,32.1800891 118.75,32.12 C120.259953,29.3202617 119.352413,25.8297231 116.67,24.12 C115.365774,23.1093641 113.692841,22.7020413 112.07,23 C110.525664,23.271128 109.11707,24.0528972 108.07,25.22 C106.461939,27.1192675 106.006716,29.7396668 106.88,32.07 C106.910467,32.1335121 106.903296,32.208668 106.861367,32.265272 C106.819438,32.3218761 106.749634,32.3506372 106.68,32.34 C104.815624,32.0485835 102.910721,32.1542221 101.09,32.65 C101.039267,32.6735508 100.980733,32.6735508 100.93,32.65 C100.51442,32.3242537 100.144449,31.9441929 99.83,31.52 C98.83,29.97 99.43,29.2 99.83,28.87 C100.335177,28.5203295 100.990939,28.4743111 101.54,28.75 C102.043282,28.9370196 102.431207,29.3471119 102.59,29.86 C102.669908,30.2351981 102.620568,30.6263936 102.45,30.97 C103.191625,30.9065863 103.753973,30.2739455 103.73,29.53 C103.751826,28.9937934 103.557246,28.4713109 103.19,28.08 C102.599064,27.5229182 101.821973,27.2056656 101.01,27.19 C100.164164,27.1447237 99.332297,27.4196326 98.68,27.96 C97.1800384,29.1555435 96.8730053,31.3135481 97.98,32.88 C98.0193929,32.9343514 98.0271834,33.0054555 98.0004936,33.0670472 C97.9738039,33.128639 97.9165953,33.1715768 97.85,33.18 C94.5932302,33.8945815 91.3995094,34.8710909 88.3,36.1 L88.3,36.1 Z" id="Shape" fill="#603404" stroke-width="1"/>
            <path d="M111.14,31.46 C111.644318,31.9828169 112.336205,32.2830841 113.06253,32.294345 C113.788854,32.3056058 114.489717,32.0269316 115.01,31.52 C115.798243,30.4262166 115.982451,29.00894 115.5,27.75 C115.5,27.75 115.3,26.32 112.83,24.55 C112.83,24.55 112.91,25.92 111.98,26.41 C111.98,26.41 110.23,27.51 110.26,28.89 C110.169465,29.8334301 110.490184,30.7700752 111.14,31.46 L111.14,31.46 Z" id="Shape" fill="#FF352C" stroke-width="1"/>
            <path d="M107.79,43.23 C102.335002,41.7268813 97.873505,37.8000267 95.69,32.58 C94.8717764,33.6084949 94.6587564,34.9931255 95.13,36.22 C95.13,36.22 94.53,37.22 91.47,35.84 C91.47,35.84 93.13,41.33 101.77,43.23 C101.76,43.23 106.13,43.83 107.79,43.23 Z" id="Shape" fill="#161616" stroke-width="1"/>
            <path d="M114.67,43.23 C120.124998,41.7268813 124.586495,37.8000267 126.77,32.58 C127.588224,33.6084949 127.801244,34.9931255 127.33,36.22 C127.33,36.22 127.93,37.22 130.99,35.84 C130.99,35.84 129.33,41.33 120.69,43.23 C120.69,43.23 116.32,43.83 114.67,43.23 Z" id="Shape" fill="#161616" stroke-width="1"/>
        </g>
    </g>
</svg>