<?xml version="1.0" encoding="UTF-8"?><svg xmlns="http://www.w3.org/2000/svg" xmlns:xlink="http://www.w3.org/1999/xlink" width="94.88634490966797" height="178.49134826660156" viewBox="0.06000000238418579 0.2842899560928345 94.88634490966797 178.49134826660156" version="1.1">
    <!-- Generator: Sketch 46.2 (44496) - http://www.bohemiancoding.com/sketch -->
    <title>三国主题素材-22</title>
    <desc>Created with Sketch.</desc>
    <defs/>
    <g id="Page-1" stroke="none" fill-rule="evenodd">
        <g id="三国主题素材-22" fill-rule="nonzero">
            <polygon id="Shape" fill="#D2CFCC" points="15.04 53.69 10.01 53.62 10.4 163.52 15.89 164.59" stroke-width="1"/>
            <path d="M15.89,164.7 L15.89,164.7 L10.4,163.64 C10.3342188,163.630633 10.2840825,163.576319 10.28,163.51 L9.89,53.6 C9.89227162,53.57139 9.90672622,53.5451351 9.92968627,53.527915 C9.95264632,53.510695 9.98189833,53.5041699 10.01,53.51 L15.01,53.57 C15.039382,53.5613887 15.070618,53.5613887 15.1,53.57 C15.1091506,53.5958817 15.1091506,53.6241183 15.1,53.65 L16,164.6 C16.0094458,164.622377 16.0094458,164.647623 16,164.67 C15.9717818,164.699705 15.9293923,164.711266 15.89,164.7 L15.89,164.7 Z M10.53,163.44 L15.77,164.44 L14.92,53.78 L10.13,53.78 L10.53,163.44 Z" id="Shape" fill="#603404" stroke-width="1"/>
            <polygon id="Shape" fill="#FAFBFD" points="13.35 53.77 11.26 53.76 11.97 163.93 14.27 163.83" stroke-width="1"/>
            <path d="M15.51,163.35 C15.51,163.35 12.22,164.57 10.51,163.27 L9.44,165.61 C9.44,165.61 13.33,167.89 16.54,165.61 L15.51,163.35 Z" id="Shape" fill="#FFE687" stroke-width="1"/>
            <path d="M13.29,166.71 C11.915424,166.697859 10.5639884,166.354856 9.35,165.71 L9.26,165.66 L10.43,163.11 L10.55,163.2 C12.22,164.44 15.44,163.28 15.47,163.26 L15.57,163.26 L16.64,165.66 L16.57,165.66 C15.6144162,166.346469 14.4665904,166.713913 13.29,166.71 L13.29,166.71 Z M9.55,165.57 C10.14,165.88 13.55,167.57 16.36,165.57 L15.45,163.57 C14.87,163.77 12.16,164.57 10.53,163.52 L9.55,165.57 Z" id="Shape" fill="#603404" stroke-width="1"/>
            <path d="M15.65,166.14 L17.28,168.91 L12.92,177.91 C12.92,177.91 12.29,178.25 12.02,177.76 L8.55,168.76 L10.11,166 C10.11,166 13.45,167.46 15.65,166.14 Z" id="Shape" fill="#FFE687" stroke-width="1"/>
            <path d="M12.43,178.16 L12.27,178.16 C12.1148432,178.11192 11.9852705,178.003943 11.91,177.86 L8.42,168.77 L10.06,165.84 L10.16,165.84 C10.16,165.84 13.47,167.3 15.59,166.03 L15.69,165.97 L17.41,168.89 L13,178 L13,178 C12.827596,178.103043 12.630843,178.158271 12.43,178.16 L12.43,178.16 Z M8.67,168.78 L12.12,177.78 C12.1660677,177.861112 12.2410731,177.921831 12.33,177.95 C12.4998181,177.982743 12.6757027,177.958119 12.83,177.88 L17.16,168.88 L15.62,166.26 C13.62,167.39 10.74,166.26 10.17,166.06 L8.67,168.78 Z" id="Shape" fill="#603404" stroke-width="1"/>
            <path d="M9.63,54.13 C9.63,54.13 6.28,58.78 3.1,58.86 C1.75574131,59.0791079 0.754386518,60.218725 0.71,61.58 C0.71,61.58 1.97,59.82 3.64,60.41 C3.64,60.41 6.24,61.41 7.78,60.95 C8.23957915,60.7801128 8.65368479,60.5063239 8.99,60.15 C8.99,60.15 8.11,64.92 4.68,65.42 C4.68,65.42 0.49,66.51 1.58,70.57 C1.58,70.57 2.36,67.29 4.21,68.29 C4.51637425,68.4691954 4.85714666,68.5816503 5.21,68.62 C7.01558751,68.7184321 8.71511162,67.7634243 9.57,66.17 C9.57,66.17 10.24,69.81 8.19,71.65 C8.19,71.65 7.27,72.36 7.52,74.65 C7.97481666,73.6220777 8.76921747,72.7817781 9.77,72.27 C10.6603975,71.9634007 11.43759,71.3953183 12,70.64 C13.0587907,69.0185138 13.6057853,67.1162269 13.57,65.18 C14.1151216,66.6011927 14.243478,68.1484077 13.94,69.64 C13.7959652,70.150026 13.7959652,70.689974 13.94,71.2 C14.034206,71.5887355 14.2474671,71.9383439 14.55,72.2 C14.6448816,71.2960902 14.9913299,70.4368983 15.55,69.72 C15.7611432,69.3706541 15.9131861,68.9888576 16,68.59 C16.4570299,67.1227773 16.6334421,65.5825631 16.52,64.05 C16.5333729,65.1908213 17.2258063,66.2137343 18.28,66.65 C19.0632699,66.9346657 19.6275715,67.6256472 19.75,68.45 C19.75,68.45 20.75,67.45 18.75,63.76 C17.9892604,62.1913129 17.5215791,60.4968154 17.37,58.76 C17.37,58.76 17.62,55.33 15.95,53.69 C16,53.71 12.94,57.4 9.63,54.13 Z" id="Shape" fill="#C2041F" stroke-width="1"/>
            <path d="M7.58,74.91 L7.58,74.91 C7.4792782,74.8929274 7.40188834,74.8114644 7.39,74.71 C7.13,72.31 8.1,71.52 8.15,71.49 C9.59,70.2 9.6,67.9 9.52,66.82 C8.55430732,68.1721305 6.95801407,68.9286676 5.3,68.82 C4.89800474,68.7860269 4.50860034,68.663057 4.16,68.46 C3.87972399,68.2779229 3.52701405,68.2479051 3.22,68.38 C2.46,68.72 1.98,70.09 1.86,70.59 C1.83309163,70.6895932 1.74316024,70.7590857 1.64,70.76 L1.64,70.76 C1.53683976,70.7590857 1.44690837,70.6895932 1.42,70.59 C1.07226529,69.502393 1.18801641,68.3195612 1.74,67.32 C2.42831674,66.2698345 3.47210881,65.5029669 4.68,65.16 C7.17,64.8 8.27,62.05 8.68,60.74 C8.44397834,60.8835644 8.19646455,61.0073213 7.94,61.11 C6.32,61.64 3.74,60.61 3.63,60.57 C2.15,60.05 0.98,61.65 0.97,61.66 C0.909488045,61.7360976 0.807663446,61.7659268 0.715655327,61.7345094 C0.623647209,61.703092 0.561332001,61.6172151 0.56,61.52 C0.6151583,60.0526415 1.69223502,58.825275 3.14,58.58 C6.2,58.5 9.49,53.99 9.52,53.94 C9.5607988,53.8866069 9.62290694,53.8537261 9.69,53.85 C9.75612994,53.8402096 9.82297027,53.8624897 9.87,53.91 C10.6049307,54.7317354 11.6575896,55.1979649 12.76,55.19 C13.9773794,55.0343476 15.09499,54.4363904 15.9,53.51 C15.9417633,53.4626449 16.0018599,53.4355163 16.065,53.4355163 C16.1281401,53.4355163 16.1882367,53.4626449 16.23,53.51 C17.96,55.2 17.73,58.61 17.72,58.75 C17.8484188,60.4502417 18.2820062,62.1134561 19,63.66 C21,67.34 20,68.49 19.92,68.61 C19.8570259,68.6719197 19.7641583,68.692312 19.6810353,68.662473 C19.5979124,68.632634 19.5392163,68.5578342 19.53,68.47 C19.4277832,67.731013 18.9227652,67.110342 18.22,66.86 C17.6181287,66.64932 17.111102,66.2309343 16.79,65.68 C16.7090736,66.6960898 16.5247879,67.7012848 16.24,68.68 C16.1110825,69.1179252 15.9081519,69.5305508 15.64,69.9 C15.1243808,70.5845624 14.8061939,71.3973222 14.72,72.25 C14.7173249,72.335684 14.6672192,72.4127697 14.59,72.45 C14.5163416,72.4950478 14.4236584,72.4950478 14.35,72.45 C14.0047185,72.1571198 13.7628043,71.7609415 13.66,71.32 C13.5037948,70.7708929 13.5037948,70.1891071 13.66,69.64 C13.9108112,68.6218859 13.9108112,67.5581141 13.66,66.54 C13.5144223,68.0733694 12.9922873,69.5470266 12.14,70.83 C11.5847403,71.6174287 10.8088074,72.2228651 9.91,72.57 C8.96394904,73.0595834 8.21274424,73.8566364 7.78,74.83 C7.73071289,74.8881663 7.65580538,74.9181293 7.58,74.91 L7.58,74.91 Z M9.63,65.91 L9.63,65.91 C9.72076068,65.928301 9.79169903,65.9992393 9.81,66.09 C9.81,66.24 10.48,69.88 8.36,71.78 C7.88245686,72.3312722 7.65121506,73.0539028 7.72,73.78 C8.18755988,72.9925429 8.8857079,72.3677004 9.72,71.99 C10.5270522,71.67063 11.2225087,71.1212193 11.72,70.41 C12.7509628,68.8260516 13.2838622,66.9696111 13.25,65.08 C13.2530908,64.9708663 13.3324786,64.8789436 13.44,64.86 C13.5464658,64.838564 13.6526448,64.8980243 13.69,65 C14.2586753,66.4678461 14.3906451,68.0688477 14.07,69.61 C13.9379247,70.0775178 13.9379247,70.5724822 14.07,71.04 C14.1209315,71.237828 14.2018704,71.4266855 14.31,71.6 C14.4710819,70.8443944 14.7915512,70.1318616 15.25,69.51 C15.4882006,69.1836044 15.6675623,68.8181126 15.78,68.43 C16.1864072,67.095937 16.3688801,65.7037366 16.32,64.31 C16.3124135,64.1901199 16.3124135,64.0698801 16.32,63.95 C16.319547,63.830392 16.4108442,63.7303999 16.53,63.72 L16.53,63.72 C16.6423586,63.7239367 16.7354045,63.8085239 16.75,63.92 C16.75,64.05 16.75,64.18 16.75,64.31 C16.8636633,65.2155166 17.4673713,65.9845713 18.32,66.31 C18.9331937,66.5393966 19.4392757,66.9884553 19.74,67.57 C19.81,66.95 19.67,65.77 18.55,63.74 C17.7707397,62.148111 17.292696,60.4257976 17.14,58.66 C17.14,58.6 17.35,55.52 15.95,53.92 C15.0910487,54.8541597 13.9217428,55.4441438 12.66,55.58 C11.535674,55.5880832 10.4550506,55.1450276 9.66,54.35 C9,55.4 6,59 3.1,59.09 C2.11905683,59.2583781 1.31125041,59.9546303 1,60.9 C1.69005087,60.1731889 2.73320126,59.9017371 3.69,60.2 C3.69,60.2 6.24,61.2 7.69,60.74 C8.10322063,60.5954154 8.47661798,60.355619 8.78,60.04 C8.83914278,59.949457 8.95337621,59.9123482 9.05443879,59.9508482 C9.15550136,59.9893482 9.21609031,60.0930561 9.2,60.2 C9.2,60.4 8.25,65.14 4.7,65.66 L4.7,65.66 C3.6201242,65.9834434 2.68664179,66.6729475 2.06,67.61 C1.70300712,68.2412657 1.55592498,68.9696725 1.64,69.69 C1.87338956,68.9803815 2.35672319,68.3797684 3,68 C3.43637657,67.8135919 3.93612504,67.8508866 4.34,68.1 C4.64549729,68.2763371 4.98788548,68.3790536 5.34,68.4 C7.0613039,68.4960843 8.68139328,67.5825881 9.49,66.06 C9.52849757,66.0246797 9.57787318,66.0035187 9.63,66 L9.63,65.91 Z" id="Shape" fill="#603404" stroke-width="1"/>
            <path d="M10.37,58.14 C10.37,58.14 11.43,62.91 7.6,65.8" id="Shape" fill="#C2041F" stroke-width="1"/>
            <path d="M7.6,66 C7.50278491,65.998668 7.41690801,65.9363528 7.3854906,65.8443447 C7.3540732,65.7523366 7.38390236,65.650512 7.46,65.59 C11.13,62.83 10.16,58.2 10.15,58.16 C10.1469496,58.050258 10.221884,57.9536592 10.3289383,57.9293287 C10.4359927,57.9049982 10.5453181,57.9597197 10.59,58.06 C10.59,58.06 11.59,63.01 7.73,65.95 C7.69322544,65.9803062 7.64760485,65.9978526 7.6,66 L7.6,66 Z" id="Shape" fill="#603404" stroke-width="1"/>
            <path d="M13,60.84 C14.7212177,62.4396098 15.4993171,64.8116798 15.06,67.12" id="Shape" fill="#C2041F" stroke-width="1"/>
            <path d="M15.06,67.35 L15.06,67.35 C14.9399723,67.3203237 14.8648828,67.2010639 14.89,67.08 C15.2994096,64.8511763 14.5456503,62.5672857 12.89,61.02 C12.8279558,60.9340356 12.8327082,60.8167986 12.9015068,60.7361381 C12.9703054,60.6554777 13.0853252,60.6322922 13.18,60.68 C14.9540329,62.340368 15.7573195,64.7917119 15.31,67.18 C15.2808445,67.291169 15.1741028,67.3637534 15.06,67.35 L15.06,67.35 Z" id="Shape" fill="#603404" stroke-width="1"/>
            <path d="M7.57,51.54 C10.8272944,52.5469026 14.3127056,52.5469026 17.57,51.54 C17.7649914,53.331851 16.7003467,55.0220262 15,55.62 C15,55.62 10.13,56.62 9,54.72 C8.1572083,53.8659228 7.64965908,52.7372469 7.57,51.54 L7.57,51.54 Z" id="Shape" fill="#A4A4A6" stroke-width="1"/>
            <path d="M12.29,56.11 C10.9,56.11 9.39,55.86 8.76,54.87 C7.90080777,53.9745256 7.39312318,52.7993955 7.33,51.56 C7.32760522,51.4858589 7.36111588,51.4151142 7.42,51.37 C7.48591465,51.3361784 7.56408535,51.3361784 7.63,51.37 C10.8460658,52.3563942 14.2839342,52.3563942 17.5,51.37 C17.5603737,51.3426181 17.6296263,51.3426181 17.69,51.37 C17.7494915,51.4033928 17.7901249,51.4624959 17.8,51.53 C17.9745412,53.4386688 16.8161644,55.2176046 15,55.83 C14.1071968,56.0064558 13.2000208,56.1001861 12.29,56.11 L12.29,56.11 Z M7.82,51.86 C7.9492119,52.8730642 8.39751737,53.8187086 9.1,54.56 L9.1,54.56 C10.1,56.29 14.82,55.37 14.87,55.35 C16.3867295,54.8340178 17.3915917,53.3915543 17.35,51.79 C14.2421441,52.7024425 10.9409241,52.7266907 7.82,51.86 L7.82,51.86 Z" id="Shape" fill="#603404" stroke-width="1"/>
            <path d="M16.83,1 C16.83,1 19.94,1.78 20.18,7.47 C20.5362557,10.3341057 19.9425322,13.2359732 18.49,15.73 C18.3493509,15.9520178 18.2224461,16.1824501 18.11,16.42 C17.73,17.23 17.05,18.94 17.49,20.05 C17.63,20.4 17.8,20.73 17.94,21.05 C18.16,21.6 18.53,22.48 19.13,23.65 C20.6648978,26.0640428 20.5167905,29.1823018 18.76,31.44 C18.76,31.44 15.9,35.1 18,38.66 C18,38.66 20.56,41.66 20,44.01 C19.9255588,44.2683233 19.8071598,44.5118871 19.65,44.73 C18.6399147,46.1160937 18.1673136,47.8217217 18.32,49.53 C18.3842904,49.9191398 18.2751875,50.3169335 18.0213678,50.6188251 C17.7675481,50.9207168 17.3943993,51.0965102 17,51.1 C15.53,51.1 13.52,50.96 12.5,50.3 C12.5,50.3 10.66,47.61 12.15,45.38 C12.15,45.38 14.31,42.38 12.41,39.64 C12.2,39.34 12.18,38.95 11.91,38.7 C10.0121816,37.1113174 9.69536092,34.3127344 11.19,32.34 C11.2853856,32.2090614 11.3722323,32.0721109 11.45,31.93 C11.99,30.93 13.78,27 11.52,23.64 C10.2935639,21.8457264 9.71511171,19.6871122 9.88,17.52 C9.92953051,17.0193585 10.0683927,16.5316474 10.29,16.08 C11.14,14.31 11.78,9.54 13.73,7.35 C13.73,7.34 17.75,2.73 16.83,1 Z" id="Shape" fill="#D1D1D3" stroke-width="1"/>
            <path d="M17,51.33 C15.48,51.33 13.44,51.18 12.37,50.49 L12.31,50.43 C12.23,50.32 10.4,47.59 11.96,45.26 C11.96,45.26 14.01,42.35 12.23,39.78 C12.1382543,39.636172 12.0643765,39.4817002 12.01,39.32 C11.9611081,39.1533001 11.8757079,38.9995798 11.76,38.87 C9.76513442,37.2068984 9.43040946,34.2692465 11,32.2 C11.0884039,32.0753627 11.1685745,31.9450855 11.24,31.81 C11.81,30.74 13.49,26.98 11.32,23.76 C10.0558074,21.925301 9.46249919,19.71099 9.64,17.49 C9.69775068,16.9712921 9.84670754,16.46687 10.08,16 C10.4247163,15.1555922 10.7055065,14.2864797 10.92,13.4 C11.51,11.3 12.24,8.7 13.56,7.21 C14.65,5.96 17.33,2.43 16.64,1.12 C16.5880516,1.04476259 16.5880516,0.945237412 16.64,0.87 C16.6951031,0.801605593 16.7843472,0.770564172 16.87,0.79 C17,0.79 20.14,1.68 20.39,7.47 C20.7590105,10.3811052 20.150477,13.3323172 18.66,15.86 C18.523106,16.0721183 18.3995342,16.2925436 18.29,16.52 C17.97,17.21 17.29,18.92 17.67,19.96 C17.74,20.13 17.81,20.29 17.89,20.46 C17.97,20.63 18.05,20.81 18.12,20.99 C18.33,21.52 18.7,22.4 19.3,23.57 C20.8591829,26.0549399 20.7034967,29.2485032 18.91,31.57 C18.91,31.57 16.17,35.14 18.18,38.57 C18.27,38.67 20.79,41.69 20.18,44.09 C20.1006559,44.3735855 19.9720278,44.6409965 19.8,44.88 C18.79646,46.2070999 18.3320514,47.8646813 18.5,49.52 C18.5703,49.9833569 18.4352097,50.4543475 18.13,50.81 C17.8439704,51.1355379 17.4333103,51.3245143 17,51.33 Z M12.66,50.13 C14.0253401,50.7246676 15.5147443,50.9786213 17,50.87 C17.3157392,50.8692873 17.6153545,50.7304412 17.82,50.49 C18.0389275,50.2331669 18.1339908,49.8931329 18.08,49.56 C17.8799121,47.7794196 18.3702398,45.9899021 19.45,44.56 C19.5936935,44.3636145 19.7019869,44.1436435 19.77,43.91 C20.33,41.73 17.88,38.79 17.85,38.76 C15.66,35.08 18.55,31.31 18.58,31.27 C20.2931817,29.0972656 20.4377951,26.0764514 18.94,23.75 C18.32,22.53 17.94,21.64 17.73,21.1 C17.66,20.93 17.59,20.76 17.51,20.6 C17.43,20.44 17.35,20.26 17.28,20.08 C16.82,18.91 17.47,17.2 17.91,16.28 C18.0254512,16.035628 18.1556928,15.7985215 18.3,15.57 C19.7275218,13.1358059 20.3242269,10.3032118 20,7.5 C19.82,3.29 18,1.84 17.22,1.39 C17.44,3.39 14.32,7.04 13.93,7.48 C12.68,8.89 11.93,11.48 11.39,13.48 C11.167916,14.3907142 10.877082,15.2832739 10.52,16.15 C10.3090809,16.5796553 10.1769869,17.0436779 10.13,17.52 C9.96825822,19.643502 10.5323889,21.7589921 11.73,23.52 C14.05,26.96 12.28,30.92 11.73,32.05 C11.6494016,32.2022324 11.5592202,32.3491946 11.46,32.49 C10.0350126,34.3737312 10.3385709,37.0441646 12.15,38.56 C12.3151844,38.7330407 12.438359,38.9417534 12.51,39.17 C12.5528683,39.2960435 12.6098997,39.416816 12.68,39.53 C14.68,42.36 12.44,45.53 12.41,45.53 C11,47.44 12.45,49.81 12.66,50.13 Z" id="Shape" fill="#603404" stroke-width="1"/>
            <path d="M2.66,3.11 C2.66,3.11 8.56,3.4 12.15,8.01 C13.4468343,10.1753796 13.3885325,12.8922463 12,15 C11.8452247,15.2448822 11.7049827,15.4986535 11.58,15.76 C11.15,16.67 10.37,18.68 11.17,19.76 C11.5705297,20.8735975 12.0518084,21.9564745 12.61,23 C14.1448978,25.4140428 13.9967905,28.5323018 12.24,30.79 C12.24,30.79 9.38,34.43 11.5,37.99 C11.5,37.99 14.06,40.99 13.5,43.34 C13.4255588,43.5983233 13.3071598,43.8418871 13.15,44.06 C11.8411405,45.863306 11.6006257,48.2302767 12.52,50.26 C12.52,50.26 8.52,50.76 6.75,49.63 C6.75,49.63 4.95,47.12 6.44,44.89 C6.44,44.89 8.05,41.59 6.15,38.89 C5.93576517,38.592088 5.69111466,38.3172751 5.42,38.07 C3.52218163,36.4813174 3.20536092,33.6827344 4.7,31.71 C4.79582002,31.5724048 4.8826669,31.4287734 4.96,31.28 C5.5,30.28 7.28,26.35 5.02,23 C3.79356388,21.2057264 3.21511171,19.0471122 3.38,16.88 C3.42953051,16.3793585 3.56839268,15.8916474 3.79,15.44 C4.64,13.67 6.98,8.44 5.79,6.64 C5.09702255,5.19397054 4.01269335,3.97106891 2.66,3.11 Z" id="Shape" fill="#A4A4A6" stroke-width="1"/>
            <path d="M10.47,50.63 C9.13416797,50.7102683 7.80044573,50.441456 6.6,49.85 L6.54,49.79 C6.54,49.79 4.67,47.12 6.22,44.79 C6.22,44.79 7.73,41.6 5.93,39.01 C5.72463537,38.726196 5.49001349,38.4647602 5.23,38.23 C3.24579103,36.5684703 2.91570827,33.6417365 4.48,31.58 C4.57187069,31.4521965 4.65537835,31.3185842 4.73,31.18 C5.3,30.11 6.98,26.35 4.81,23.18 C3.5458074,21.345301 2.95249919,19.13099 3.13,16.91 C3.18111256,16.3816637 3.32676094,15.8668137 3.56,15.39 C4.32,13.81 6.71,8.52 5.56,6.82 C4.89776321,5.40969902 3.85978616,4.20910557 2.56,3.35 C2.47894766,3.29539159 2.44125697,3.19552429 2.46601831,3.10098099 C2.49077965,3.00643768 2.57258506,2.93786698 2.67,2.93 L2.67,2.93 C2.73,2.93 8.67,3.28 12.33,7.93 C13.6981564,10.1836665 13.6514903,13.0225194 12.21,15.23 C12.0590851,15.468499 11.9221867,15.7155839 11.8,15.97 C11.42,16.77 10.63,18.74 11.37,19.7 L11.37,19.77 C11.7613966,20.8792983 12.2326296,21.9587894 12.78,23 C14.3391829,25.4849399 14.1834967,28.6785032 12.39,31 C12.39,31 9.65,34.57 11.67,38 C11.76,38.1 14.28,41.12 13.67,43.52 C13.5906559,43.8035855 13.4620278,44.0709965 13.29,44.31 C12.0232555,46.0550744 11.7903757,48.3456948 12.68,50.31 C12.7127805,50.3756118 12.7123028,50.4529237 12.678714,50.5181254 C12.6451253,50.5833272 12.5824535,50.6285996 12.51,50.64 C11.8303493,50.6748727 11.1492761,50.6715341 10.47,50.63 Z M6.88,49.5 C8.26,50.37 11.19,50.19 12.15,50.1 C11.3763511,48.0638367 11.6688965,45.7759818 12.93,44 C13.0740487,43.8038299 13.1823742,43.5837937 13.25,43.35 C13.81,41.17 11.36,38.23 11.33,38.2 C9.14,34.52 12.03,30.75 12.06,30.71 C13.7438242,28.5263806 13.8875321,25.5244822 12.42,23.19 C11.8687853,22.1217304 11.3942545,21.015606 11,19.88 C10.18,18.76 10.9,16.79 11.41,15.71 C11.5412891,15.4416203 11.6882081,15.181173 11.85,14.93 C13.2006203,12.8835361 13.2589286,10.2441123 12,8.14 C9.86605433,5.59897105 6.87331268,3.93001049 3.59,3.45 C4.60683634,4.30206321 5.42871912,5.36266713 6,6.56 C7.24,8.37 5,13.45 4,15.56 C3.78908094,15.9896553 3.65698691,16.4536779 3.61,16.93 C3.44825822,19.053502 4.01238889,21.1689921 5.21,22.93 C7.53,26.37 5.76,30.32 5.21,31.45 C5.12644548,31.6058679 5.03291773,31.7561803 4.93,31.9 C3.51146736,33.7819659 3.81469603,36.4451046 5.62,37.96 C5.9025673,38.2157713 6.15731515,38.5006867 6.38,38.81 C8.38,41.62 6.76,44.94 6.69,45.08 C5.31,47 6.69,49.2 6.88,49.5 Z" id="Shape" fill="#603404" stroke-width="1"/>
            <path d="M3.85,16.49 L12.85,12.14 C12.7249788,13.0443166 12.4369851,13.9184622 12,14.72 L3.8,18.61 C3.73946011,17.9036197 3.75622612,17.1927408 3.85,16.49 L3.85,16.49 Z" id="Shape" fill="#D1D1D3" stroke-width="1"/>
            <path d="M13.13,12.15 L19.82,9.15 C19.8021721,9.86664415 19.7387102,10.5814248 19.63,11.29 L12.38,14.62 C12.7692008,13.8455307 13.0228687,13.0101179 13.13,12.15 L13.13,12.15 Z" id="Shape" fill="#FFFFFF" stroke-width="1"/>
            <path d="M5.41,23 C6.29561869,24.3776852 6.65096361,26.030039 6.41,27.65 L13.21,24.89 C13.21,24.89 11.65,21.35 11.21,20.22 L5.41,23 Z" id="Shape" fill="#D1D1D3" stroke-width="1"/>
            <path d="M11.43,20.13 L17.24,17.6 C17.0365044,18.3178238 16.968678,19.0673058 17.04,19.81 C17.1097872,20.055371 17.2177764,20.2882227 17.36,20.5 C17.6206929,21.3136105 17.9278646,22.1115891 18.28,22.89 L13.45,24.8 L11.43,20.13 Z" id="Shape" fill="#FFFFFF" stroke-width="1"/>
            <path d="M6.48,49.17 C10.3315556,50.2953189 14.4325514,50.2360862 18.25,49 C18.6010145,49.7226021 18.5924726,50.5680687 18.2269301,51.2834313 C17.8613877,51.998794 17.1812433,52.501079 16.39,52.64 C16.39,52.64 10.23,54.02 7.14,51.64 C7.14,51.68 6.55,51.24 6.48,49.17 Z" id="Shape" fill="#A4A4A6" stroke-width="1"/>
            <path d="M12.45,53.29 C10.5282791,53.3970991 8.62157638,52.8968083 7,51.86 C6.93,51.81 6.33,51.29 6.25,49.18 C6.24760522,49.1058589 6.28111588,49.0351142 6.34,48.99 C6.40591465,48.9561784 6.48408535,48.9561784 6.55,48.99 C10.3537934,50.0879564 14.3978792,50.0322719 18.17,48.83 C18.2774673,48.794622 18.3942458,48.8465235 18.44,48.95 C18.7545431,49.7190821 18.7545431,50.5809179 18.44,51.35 C18.0344925,52.1362917 17.3026016,52.7035071 16.44,52.9 C15.1264191,53.1633081 13.7897053,53.2939643 12.45,53.29 L12.45,53.29 Z M6.72,49.48 C6.83,51.1 7.27,51.48 7.28,51.48 C10.28,53.74 16.28,52.42 16.34,52.41 C17.0830338,52.2538109 17.7195452,51.7782564 18.08,51.11 C18.3033623,50.5170026 18.3033623,49.8629974 18.08,49.27 C14.3865373,50.3950201 10.452519,50.467744 6.72,49.48 L6.72,49.48 Z" id="Shape" fill="#603404" stroke-width="1"/>
            <path d="M15.1,116.08 C15.1,116.08 21.35,114.9 21.7,120.96 C22.05,127.02 18.2,128.76 16.47,129.39" id="Shape" fill="#936258" stroke-width="1"/>
            <path d="M16.48,129.62 C16.3738879,129.614001 16.2857052,129.536078 16.2666929,129.43151 C16.2476807,129.326943 16.3027908,129.222967 16.4,129.18 C20.01,127.87 21.72,125.11 21.48,120.98 C21.4962976,119.547859 20.8774691,118.182043 19.79,117.25 C18.4161143,116.36545 16.7598258,116.029909 15.15,116.31 C15.0915368,116.321631 15.0308562,116.309041 14.9818462,116.275111 C14.9328361,116.241181 14.8996922,116.188816 14.89,116.13 C14.8714563,116.00929 14.9504876,115.895133 15.07,115.87 C16.8032377,115.549576 18.5933281,115.907594 20.07,116.87 C21.2648281,117.87886 21.9499068,119.36625 21.94,120.93 C22.2,125.29 20.39,128.2 16.56,129.59 L16.48,129.62 Z" id="Shape" fill="#603404" stroke-width="1"/>
            <path d="M16.44,129.66 C16.3187881,129.640418 16.2260515,129.541518 16.2142996,129.419298 C16.2025477,129.297078 16.2747401,129.182319 16.39,129.14 C19.98,127.84 21.68,125.09 21.44,120.98 C21.4554196,119.558764 20.8401811,118.203774 19.76,117.28 C18.3949942,116.401095 16.750149,116.065703 15.15,116.34 C15.0488264,116.381263 14.9327572,116.35748 14.8559651,116.279752 C14.7791731,116.202023 14.7567983,116.085674 14.7992837,115.985008 C14.8417692,115.884342 14.9407385,115.819206 15.05,115.82 C16.783205,115.503725 18.5717625,115.861437 20.05,116.82 C21.2863632,117.830316 22.0024787,119.343339 22,120.94 C22.26,125.32 20.44,128.25 16.59,129.64 C16.5429286,129.660829 16.4908842,129.667768 16.44,129.66 Z" id="Shape" fill="#603404" stroke-width="1"/>
            <path d="M33.82,160.3 C33.7225851,160.292133 33.6407797,160.223562 33.6160183,160.129019 C33.591257,160.034476 33.6289477,159.934608 33.71,159.88 C35.1057786,158.938665 36.0643612,157.475565 36.37,155.82 C36.3711662,155.730042 36.4246748,155.649023 36.5069527,155.612635 C36.5892306,155.576246 36.6851712,155.59117 36.7525081,155.650832 C36.8198449,155.710494 36.8462146,155.803939 36.82,155.89 C36.49891,157.684874 35.4538541,159.26873 33.93,160.27 C33.8964324,160.289074 33.8586034,160.299391 33.82,160.3 Z" id="Shape" fill="#603404" stroke-width="1"/>
            <path d="M68.83,171.12 C68.83,171.12 67.47,174.81 70.38,177.12 C72.65,178.95 75.46,178.5 77.59,176.52 C78.8,175.39 79.59,172.16 78.41,170.8 L68.83,171.12 Z" id="Shape" fill="#FFF6E6" stroke-width="1"/>
            <path d="M68.18,171.56 C68.2266709,173.585294 69.270938,175.45674 70.97,176.56 C72.9665891,177.931243 75.6589098,177.674229 77.36,175.95 C78.8044463,174.523195 80.0460516,172.904734 81.05,171.14 L68.18,171.56 Z" id="Shape" fill="#443A37" stroke-width="1"/>
            <path d="M47.11,170.81 C47.11,170.81 45.76,174.5 48.66,176.81 C50.94,178.64 53.74,178.19 55.87,176.2 C57.08,175.07 57.87,171.84 56.68,170.48 L47.11,170.81 Z" id="Shape" fill="#FFF6E6" stroke-width="1"/>
            <path d="M46.46,171.25 C46.5088924,173.277195 47.5571236,175.149036 49.26,176.25 C51.258931,177.618661 53.9514706,177.357413 55.65,175.63 C57.0944463,174.203195 58.3360516,172.584734 59.34,170.82 L46.46,171.25 Z" id="Shape" fill="#443A37" stroke-width="1"/>
            <path d="M74.93,98.12 C74.93,98.12 83.3,96.01 88.62,113.39 C90.342893,117.640628 91.2911746,122.165286 91.42,126.75 C91.42,131.66 88.91,135.75 85.56,136.69 C83.9521563,137.163606 82.2372269,137.128679 80.65,136.59 C80.65,136.59 81.98,155.18 89.07,166.23 C89.07,166.23 90.35,175.32 60.07,174.78 C60.07,174.78 28.55,173.16 31.49,160.71 C31.49,160.71 32.81,156.35 36.54,155.87 L40.01,136.43 L42.01,114.74 L74.93,98.12 Z" id="Shape" fill="#175F7F" stroke-width="1"/>
            <path d="M62.67,175 L60.11,175 C59.21,175 38.11,173.79 32.49,166.25 C31.2525063,164.665855 30.8202837,162.597097 31.32,160.65 C31.38,160.46 32.69,156.26 36.4,155.65 L39.84,136.38 L41.84,114.71 C41.8475252,114.633759 41.892518,114.56627 41.96,114.53 L74.83,97.92 L74.83,97.92 C75.18,97.83 83.47,95.92 88.83,113.34 C90.5541951,117.615057 91.5056285,122.162299 91.64,126.77 C91.64,131.77 89.13,135.94 85.64,136.92 C84.1024472,137.371407 82.4675528,137.371407 80.93,136.92 C81.15,139.48 82.83,156.06 89.28,166.12 C89.2862019,166.149679 89.2862019,166.180321 89.28,166.21 C89.3063205,167.366226 88.8454595,168.480276 88.01,169.28 C85.66,171.92 79.32,175 62.67,175 Z M42.23,114.88 L40.28,136.44 L36.81,155.89 C36.790306,155.983699 36.7146255,156.055396 36.62,156.07 C33.07,156.53 31.77,160.71 31.75,160.76 C31.2837575,162.573172 31.6905853,164.500057 32.85,165.97 C38.38,173.34 59.91,174.53 60.12,174.54 C78.45,174.86 85.21,171.7 87.65,168.98 C88.379053,168.270575 88.8054667,167.306666 88.84,166.29 C81.84,155.29 80.43,136.78 80.42,136.59 C80.4163948,136.514671 80.4499478,136.44236 80.5097978,136.396475 C80.5696478,136.35059 80.64819,136.336961 80.72,136.36 C82.2612337,136.886752 83.9280441,136.921696 85.49,136.46 C88.76,135.55 91.16,131.46 91.19,126.74 C91.0522222,122.186462 90.1075807,117.693489 88.4,113.47 C85.68,104.57 82.16,100.94 79.69,99.47 C78.3160001,98.5352674 76.6497582,98.1302534 75,98.33 L42.23,114.88 Z" id="Shape" fill="#603404" stroke-width="1"/>
            <path d="M31.7,160.62 C31.6178752,160.856694 31.5608946,161.101376 31.53,161.35 C31.3072953,162.81558 31.6350216,164.311722 32.45,165.55 C32.45,165.55 33.61,167.65 37.27,169.55 C39.7217664,170.788106 42.3185142,171.715275 45,172.31 C48.1447523,173.107416 51.3382102,173.698673 54.56,174.08 C54.56,174.08 60.56,175.2 71.03,174.3 C71.03,174.3 79.65,173.89 84.4,171.3 C84.4,171.3 88.9,169.52 88.96,166.24 C88.3755222,165.357783 87.8477888,164.43926 87.38,163.49 C87.38,163.49 60,178.75 31.7,160.62 Z" id="Shape" fill="#C9D4D7" stroke-width="1"/>
            <path d="M39.81,132.34 L39.81,132.34 C39.6176237,132.972567 39.5900859,133.643801 39.73,134.29 L39.91,134.94 C40.0574404,135.377368 40.3369585,135.758211 40.71,136.03 C44.35,137.91 62.42,142.67 80.31,136.58 L79.21,135.52 C78.879236,135.149623 78.6455828,134.702933 78.53,134.22 L78.43,133.84 C78.43,133.84 62.43,140.64 40.91,131.84 C40.39,131.65 40.12,131.73 39.81,132.34 Z" id="Shape" fill="#5F8C93" stroke-width="1"/>
            <path d="M22.13,113.77 L21.13,114.58 C21.13,114.58 19,114.5 18.58,115.87 C18.58,115.87 17.09,123.34 20.01,127.75 C20.01,127.75 20.49,128.13 21.37,126.69 L25.16,125.47 C25.16,125.47 22,115 22.13,113.77 Z" id="Shape" fill="#5F8C93" stroke-width="1"/>
            <path d="M20.16,128 C20.0496477,128.004356 19.9408632,127.972773 19.85,127.91 L19.85,127.86 C16.91,123.43 18.32,116.12 18.38,115.86 C18.8,114.47 20.65,114.39 21.07,114.39 L22.07,113.63 C22.1452374,113.578052 22.2447626,113.578052 22.32,113.63 C22.3999463,113.67319 22.44697,113.759401 22.44,113.85 C22.34,114.85 24.58,122.56 25.44,125.46 C25.4728271,125.578418 25.4067705,125.701724 25.29,125.74 L21.58,126.94 C21.15,127.62 20.74,128 20.36,128.07 L20.16,128 Z M20.16,127.56 C20.28,127.56 20.63,127.44 21.16,126.56 C21.1871094,126.513688 21.229559,126.478314 21.28,126.46 L24.86,125.31 C24.38,123.71 22.2,116.37 21.92,114.2 L21.24,114.74 C21.1921161,114.760572 21.1378839,114.760572 21.09,114.74 C21.09,114.74 19.09,114.69 18.76,115.87 C18.77,116 17.36,123.29 20.15,127.57 L20.16,127.56 Z" id="Shape" fill="#603404" stroke-width="1"/>
            <path d="M29.69,105.94 C24.7175436,107.896724 21.5636507,112.825186 21.87,118.16 C21.87,118.16 22.87,127.31 28.79,126.45 C28.79,126.45 32.34,126.04 33.27,125.24 C33.28,125.24 28.16,109.59 29.69,105.94 Z" id="Shape" fill="#175F7F" stroke-width="1"/>
            <path d="M28,126.73 C26.9444932,126.737361 25.9180214,126.384622 25.09,125.73 C22.23,123.51 21.65,118.4 21.63,118.19 C21.17,108.83 29.51,105.76 29.63,105.73 C29.7147332,105.698867 29.8098864,105.722655 29.87,105.79 C29.9150478,105.863658 29.9150478,105.956342 29.87,106.03 C28.39,109.57 33.41,125.03 33.46,125.17 C33.4859774,125.256804 33.4585702,125.350772 33.39,125.41 C32.39,126.24 28.93,126.66 28.79,126.67 C28.5284209,126.708693 28.2644223,126.728744 28,126.73 L28,126.73 Z M29.3,106.33 C24.6610057,108.371481 21.7784413,113.080068 22.07,118.14 C22.07,118.14 22.65,123.26 25.36,125.36 C26.3142402,126.103773 27.5371554,126.412223 28.73,126.21 C30.2006363,126.085928 31.6420735,125.728101 33,125.15 C32.47,123.5 28.35,110.51 29.33,106.33 L29.3,106.33 Z" id="Shape" fill="#603404" stroke-width="1"/>
            <path d="M44.93,97.67 L36.1,100.38 C36.1,100.38 28.71,102.62 27.59,112.06 C27.59,112.06 24.97,122.89 31.39,126.06 L34.56,124.74 C34.56,124.74 38.65,125.18 45.36,121 C45.37,121 56.44,100.89 44.93,97.67 Z" id="Shape" fill="#5F8C93" stroke-width="1"/>
            <path d="M31.39,126.24 L31.29,126.24 C24.79,123 27.35,112.11 27.37,112 C28.49,102.55 35.96,100.18 36.03,100.16 L44.86,97.45 C44.9025081,97.4380404 44.9474919,97.4380404 44.99,97.45 C47.1056351,97.9515079 48.8509114,99.4400164 49.68,101.45 C52.55,108.3 45.86,120.58 45.57,121.1 C45.5507633,121.133185 45.5231847,121.160763 45.49,121.18 C39.15,125.18 35.16,125 34.6,124.96 L31.48,126.26 L31.39,126.24 Z M44.93,97.91 L36.17,100.6 C36.1,100.6 28.91,102.91 27.82,112.09 C27.82,112.22 25.34,122.71 31.4,125.78 L34.48,124.5 L34.59,124.5 C34.59,124.5 38.68,124.88 45.2,120.82 C45.68,119.94 51.96,108.05 49.26,101.62 C48.4895865,99.7645325 46.8816479,98.38683 44.93,97.91 L44.93,97.91 Z" id="Shape" fill="#603404" stroke-width="1"/>
            <path d="M37,100.21 C37,100.21 33.34,102.08 31.65,107.77 C30.51,111.64 29.47,123.03 34.55,124.35 C36.692623,124.87472 38.92301,124.932696 41.09,124.52 L40.86,131.86 C40.86,131.86 41.47,121.65 64.53,103.35 C64.53,103.35 52.79,100.69 48.19,96.81 L37,100.21 Z" id="Shape" fill="#C9D4D7" stroke-width="1"/>
            <path d="M48.23,96.81 C52.83,100.69 64.57,103.35 64.57,103.35 C41.52,121.65 40.9,131.86 40.9,131.86 L41.13,124.52 C40.0195866,124.674036 38.900883,124.76086 37.78,124.78 C36.6992872,124.784735 35.6228875,124.643458 34.58,124.36 C29.5,123.04 30.58,111.65 31.68,107.78 C33.36,102.08 37.03,100.22 37.03,100.22 L48.22,96.82 L48.23,96.81 Z M48.22,96.37 L48.09,96.37 L36.9,99.77 L36.83,99.77 C36.67,99.85 32.97,101.77 31.26,107.61 C30.34,110.73 29.5,118.54 31.72,122.47 C32.2812289,123.582085 33.2819676,124.408782 34.48,124.75 C35.5582529,125.046199 36.6718115,125.194225 37.79,125.19 C38.753003,125.177687 39.7145387,125.110914 40.67,124.99 L40.45,131.8 C40.4445762,131.919378 40.4868587,132.036012 40.5675238,132.12418 C40.6481889,132.212349 40.7606112,132.264812 40.88,132.27 L40.88,132.27 C41.1209226,132.270238 41.3192924,132.080685 41.33,131.84 C41.33,131.74 42.33,121.55 64.83,103.66 C64.9711265,103.553572 65.0368764,103.37438 64.9980757,103.201933 C64.9592751,103.029486 64.8231107,102.895724 64.65,102.86 C64.53,102.86 52.97,100.18 48.5,96.41 C48.4194232,96.3401257 48.3166477,96.3011419 48.21,96.3 L48.22,96.37 Z" id="Shape" fill="#603404" stroke-width="1"/>
            <path d="M77.29,121.87 L77.21,121.87 C77.0961108,121.823628 77.0388426,121.695876 77.08,121.58 C77.08,121.51 79.57,115.06 84.85,116.06 C84.9695124,116.085133 85.0485437,116.19929 85.03,116.32 C85.0048668,116.439512 84.8907105,116.518544 84.77,116.5 C79.86,115.56 77.54,121.67 77.51,121.73 C77.4727623,121.817746 77.3852589,121.87343 77.29,121.87 L77.29,121.87 Z" id="Shape" fill="#603404" stroke-width="1"/>
            <path d="M79.27,118.42 C79.184316,118.417325 79.1072303,118.367219 79.07,118.29 C78.5567813,117.160093 78.4065497,115.898846 78.64,114.68 C78.6518441,114.620854 78.6874536,114.569166 78.7384983,114.537027 C78.789543,114.504888 78.851545,114.495117 78.91,114.51 C79.0300277,114.539676 79.1051172,114.658936 79.08,114.78 C78.8735347,115.898335 79.0130763,117.053041 79.48,118.09 C79.5301191,118.203305 79.481483,118.335949 79.37,118.39 L79.27,118.42 Z" id="Shape" fill="#603404" stroke-width="1"/>
            <path d="M80.31,120.6 C80.31,120.6 81.31,118.87 81.97,120 C81.97,120 85.29,129.42 82.16,135 C82.16,135 82.03,135.5 81.16,134.24 C81.16,134.24 76.78,132.98 75.31,133.47 C75.31,133.47 74.2,134.47 74.22,133.19 C74.22,133.19 76.22,125.31 74.38,120.85 C74.38,120.85 74.38,119.55 75.62,120.93 C75.61,121 78.37,122.86 80.31,120.6 Z" id="Shape" fill="#5F8C93" stroke-width="1"/>
            <path d="M82,135.38 C81.73,135.38 81.42,135.11 81,134.49 C80.42,134.33 76.72,133.33 75.4,133.72 C75.23,133.87 74.73,134.25 74.33,134.08 C73.93,133.91 73.96,133.68 73.97,133.23 C73.97,133.1 75.91,125.32 74.15,120.98 C74.1451108,120.953557 74.1451108,120.926443 74.15,120.9 C74.15,120.84 74.15,120.3 74.52,120.15 C74.89,120 75.24,120.24 75.78,120.82 C75.85,120.82 78.35,122.52 80.13,120.46 C80.23,120.29 80.81,119.38 81.45,119.38 L81.45,119.38 C81.7619312,119.399691 82.0363532,119.592946 82.16,119.88 C82.31,120.3 85.49,129.5 82.35,135.15 C82.3078092,135.261956 82.2083267,135.342307 82.09,135.36 L82,135.38 Z M76.25,133.23 C77.9439332,133.345097 79.6203954,133.643507 81.25,134.12 C81.299308,134.135016 81.3417781,134.166869 81.37,134.21 C81.5373386,134.495973 81.7579944,134.747181 82.02,134.95 C85.02,129.42 81.82,120.22 81.79,120.12 C81.7356426,119.991374 81.6181417,119.900405 81.48,119.88 L81.48,119.88 C81.15,119.88 80.71,120.47 80.54,120.75 L80.54,120.75 C78.54,123.13 75.54,121.19 75.54,121.17 C74.93,120.52 74.74,120.57 74.74,120.58 C74.74,120.59 74.66,120.73 74.65,120.86 C76.44,125.35 74.56,132.98 74.48,133.3 C74.4,133.62 74.55,133.66 74.58,133.67 C74.61,133.68 75,133.54 75.2,133.36 L75.28,133.36 C75.5800206,133.258167 75.8933555,133.200891 76.21,133.19 L76.25,133.23 Z" id="Shape" fill="#603404" stroke-width="1"/>
            <path d="M80.66,136.81 L80.58,136.81 C79.2645017,136.333046 78.3755568,135.098841 78.34,133.7 C78.3453574,133.576896 78.4467794,133.479883 78.57,133.48 L78.57,133.48 C78.6931041,133.485357 78.7901165,133.586779 78.79,133.71 C78.8226373,134.93646 79.6235432,136.009674 80.79,136.39 C80.8872092,136.432967 80.9423193,136.536943 80.9233071,136.64151 C80.9042948,136.746078 80.8161121,136.824001 80.71,136.83 L80.66,136.81 Z" id="Shape" fill="#603404" stroke-width="1"/>
            <path d="M67.7,117.23 C68.910845,117.5806 70.0189864,118.218725 70.93,119.09 C71.3301933,119.485052 71.8064995,119.794651 72.33,120 C73.1002766,120.285702 73.8517681,120.619698 74.58,121 C74.58,121 76.58,122.76 76.07,129.36 C76.0231595,130.725582 75.3843611,132.003179 74.32,132.86 C72.6710828,133.934767 70.7574477,134.533426 68.79,134.59 C68.4419274,134.605983 68.0961139,134.526446 67.79,134.36 L67.66,134.29 C67.2174126,133.985028 66.727483,133.755268 66.21,133.61 C64.62,133.22 61.7,132.16 62.34,129.68 C61.4305844,128.870719 60.9499946,127.684031 61.04,126.47 C61.04,126.47 60.04,124.47 60.75,123.56 C60.75,123.56 61.24,123.1 61.97,123.77 C61.9486826,123.461895 62.0981565,123.166942 62.3592288,123.001944 C62.6203011,122.836947 62.9508595,122.828519 63.22,122.98 C63.22,122.98 66.43,125.35 68.35,124.15 C69.043201,123.547758 69.2798547,122.573066 68.94,121.72 C68.8135536,121.368293 68.6083175,121.050177 68.34,120.79 C67.82,120.28 66.67,118.97 66.96,117.56 C66.9,117.54 67.22,116.88 67.7,117.23 Z" id="Shape" fill="#936258" stroke-width="1"/>
            <path d="M68.66,134.8 C68.3103795,134.796721 67.9669419,134.707427 67.66,134.54 L67.52,134.46 C67.0964223,134.166872 66.6265241,133.947135 66.13,133.81 C64.81,133.49 63.13,132.81 62.35,131.61 C62.0130629,131.048375 61.9089919,130.377296 62.06,129.74 C61.1632269,128.909917 60.6891876,127.719307 60.77,126.5 C60.59,126.13 59.77,124.33 60.54,123.4 C60.9034448,123.112802 61.4165552,123.112802 61.78,123.4 C61.8446146,123.170032 61.9857113,122.968969 62.18,122.83 C62.5202593,122.646877 62.9297407,122.646877 63.27,122.83 L63.32,122.83 C63.32,122.83 66.43,125.1 68.19,123.99 C68.7913298,123.444694 68.9871696,122.581401 68.68,121.83 C68.5664457,121.512468 68.3817307,121.225133 68.14,120.99 C67.6,120.46 66.39,119.08 66.7,117.56 L66.7,117.5 C66.8150997,117.255396 67.0243278,117.067812 67.28,116.98 C67.4596418,116.936701 67.6492311,116.97316 67.8,117.08 C69.0332048,117.445389 70.1612112,118.10025 71.09,118.99 C71.4672673,119.363041 71.916335,119.655616 72.41,119.85 C73.1868922,120.135391 73.9450568,120.469385 74.68,120.85 C74.81,120.96 76.83,122.79 76.29,129.43 C76.2137368,130.830213 75.5400196,132.130305 74.44,133 C72.7538305,134.09529 70.7997059,134.707467 68.79,134.77 L68.66,134.8 Z M61.14,123.61 C61.0358257,123.605495 60.93332,123.637307 60.85,123.7 C60.33,124.33 60.92,125.82 61.19,126.34 C61.2052446,126.385422 61.2052446,126.434578 61.19,126.48 C61.1151617,127.616216 61.569084,128.723343 62.42,129.48 C62.4847348,129.537399 62.5117824,129.62627 62.49,129.71 C62.3270176,130.268532 62.4030627,130.86965 62.7,131.37 C63.4,132.53 65.19,133.12 66.2,133.37 C66.7430383,133.51937 67.2569371,133.759415 67.72,134.08 L67.83,134.15 C68.110735,134.3046 68.4304177,134.374097 68.75,134.35 C70.6776629,134.295569 72.5530186,133.710818 74.17,132.66 C75.1730293,131.838727 75.7741522,130.625552 75.82,129.33 C76.33,122.96 74.42,121.17 74.4,121.15 C73.6952263,120.798369 72.97068,120.487849 72.23,120.22 C71.6729427,119.992374 71.1690368,119.651897 70.75,119.22 C69.8689033,118.376915 68.7992498,117.756379 67.63,117.41 L67.55,117.41 C67.5011249,117.366094 67.434518,117.347592 67.37,117.36 C67.2528059,117.413079 67.1574619,117.504892 67.1,117.62 C66.86,118.91 67.94,120.14 68.42,120.62 C68.7095666,120.899836 68.9318195,121.241763 69.07,121.62 C69.4339816,122.563334 69.1704158,123.63357 68.41,124.3 C66.41,125.54 63.41,123.4 63.04,123.16 C62.838764,123.058397 62.601236,123.058397 62.4,123.16 C62.2311869,123.314265 62.1335008,123.531345 62.13,123.76 C62.1279967,123.848819 62.0727685,123.927716 61.99,123.96 C61.9170445,124.007479 61.8229555,124.007479 61.75,123.96 C61.5996134,123.768799 61.3809609,123.643343 61.14,123.61 L61.14,123.61 Z" id="Shape" fill="#603404" stroke-width="1"/>
            <path d="M65.74,127.42 C65.1491934,127.423306 64.5673815,127.275271 64.05,126.99 C62.908542,126.243864 62.074233,125.111333 61.7,123.8 C61.6844135,123.685628 61.7560146,123.577419 61.8673765,123.547047 C61.9787385,123.516676 62.0953626,123.573551 62.14,123.68 C62.4884957,124.87434 63.2460508,125.908013 64.28,126.6 C65.1102087,127.02911 66.0822244,127.090768 66.96,126.77 C67.0676356,126.76173 67.1665387,126.829431 67.1977791,126.932764 C67.2290195,127.036098 67.1841893,127.147254 67.09,127.2 C66.6537289,127.34124 66.1985413,127.415418 65.74,127.42 L65.74,127.42 Z" id="Shape" fill="#603404" stroke-width="1"/>
            <path d="M66.07,129.4 C63.29,129.4 60.92,126.71 60.81,126.59 C60.7387628,126.532556 60.708358,126.438345 60.7325749,126.350094 C60.7567919,126.261844 60.8310226,126.196346 60.9216017,126.183306 C61.0121807,126.170266 61.1018726,126.212165 61.15,126.29 C61.15,126.29 63.75,129.23 66.49,128.92 C66.6011075,128.927442 66.6909242,129.013411 66.7032215,129.124086 C66.7155188,129.234762 66.6467639,129.33835 66.54,129.37 L66.07,129.4 Z" id="Shape" fill="#603404" stroke-width="1"/>
            <path d="M66.85,131.79 L66.85,131.79 C64.98,131.79 62.29,129.91 62.17,129.79 C62.0710261,129.718884 62.0447085,129.58291 62.11,129.48 C62.1811162,129.381026 62.3170905,129.354708 62.42,129.42 C62.42,129.42 65.11,131.26 66.85,131.3 C66.9562816,131.32253 67.032303,131.416357 67.032303,131.525 C67.032303,131.633643 66.9562816,131.72747 66.85,131.75 L66.85,131.79 Z" id="Shape" fill="#603404" stroke-width="1"/>
            <path d="M77,72.1 C78.3020281,72.400999 79.4334531,73.2019761 80.15,74.33 C80.15,74.33 82.6,76.09 83.88,74.58 C83.88,74.58 84.18,73.86 82.97,73.35 C82.97,73.35 85.72,72.63 85.28,75.41 C84.5542181,76.6140561 83.2352323,77.3328078 81.83,77.29 C81.83,77.29 82.83,79.75 87.35,78.71 C87.35,78.71 89.35,77.33 88.41,76.14 C88.41,76.14 88.24,75.65 87.01,75.84 C87.01,75.84 89.62,73.48 91.01,77.07 C91.01,77.07 91.44,84.07 83.77,81.96 C83.77,81.96 84.22,85.96 89.6,85.96 C89.6,85.96 92.16,86.96 92.6,84.32 C92.6,84.32 92.41,83.1 90.7,84.32 C90.7,84.32 91.15,80.88 93.84,82.76 C94.5789347,84.2763461 94.6454498,86.0336989 94.0232512,87.6015633 C93.4010526,89.1694277 92.1476185,90.4029657 90.57,91 C88.8566941,91.7853623 86.899078,91.8466505 85.14,91.17 C85.14,91.17 83.84,94.34 87.55,95.01 C87.55,95.01 89.83,95.31 90.1,93.73 C90.1,93.73 89.75,92.55 88.51,93.61 C88.51,93.61 89.12,90.88 91.63,92.94 C91.63,92.94 94.52,98.14 86.43,99.8 C83.8661871,100.085266 81.2714697,99.7420492 78.87,98.8 C78.87,98.8 79.23,103.08 84.28,103.57 C84.28,103.57 82.28,107.69 72.28,105.31 C72.28,105.31 71.7,106.68 73.65,106.99 C74.5186732,107.270911 75.4573037,107.24621 76.31,106.92 C76.31,106.92 75.09,110.3 69.56,109.92 C67.6580652,109.656957 65.8453547,108.947636 64.27,107.85 C64.27,107.85 61.61,106.31 60.6,108.04 C59.9971338,108.766913 60.0270909,109.82825 60.67,110.52 C60.67,110.52 62.05,111.68 62.8,110.36 C62.8,110.36 63.6,109.05 62.1,108.95 C61.7542761,109.23995 61.6163069,109.709045 61.75,110.14 C61.75,110.14 60.47,109.91 61.41,108.14 C61.41,108.14 63.41,106.99 64.18,109.47 C64.18,109.47 64.49,112.87 61.18,112.67 C59.5720692,112.537469 58.179554,111.50181 57.59,110 C57.421282,108.954112 57.4484093,107.885976 57.67,106.85 C57.67,106.85 56.43,110.46 51.46,110.65 C51.46,110.65 47.19,111.3 44.65,109.84 C44.65,109.84 48.27,110.77 49.5,107.35 C49.8041712,106.672577 49.8041712,105.897423 49.5,105.22 C49.5,105.22 47.96,107.81 42.5,108.72 C41.0874406,108.685559 39.7084624,108.282208 38.5,107.55 C38.5,107.55 41.61,107.69 42.95,103.11 C42.95,103.11 39.79,106.32 36.68,104.72 C36.68,104.72 39.68,101.87 39.68,99.55 C39.68,99.55 33.96,102 29.78,96.12 C29.78,96.12 37.69,98.28 38.06,96.05 C38.06,96.05 25.62,98.15 29.71,89.35 C29.71,89.35 29.65,92.41 33.03,90.68 C33.03,90.68 35.6,89.35 35.6,87.13 C34.5297275,87.8872066 33.1945298,88.16945 31.9093808,87.910149 C30.6242319,87.6508479 29.5029332,86.8729638 28.81,85.76 C28.4760969,84.9675532 28.4818,84.0728419 28.8257782,83.2847161 C29.1697563,82.4965904 29.8219069,81.8840215 30.63,81.59 C30.63,81.59 28.49,84.59 32.14,84.54 C32.14,84.54 35.52,84.23 36.48,79.69 C36.2602391,79.6731007 36.0443835,79.6225096 35.84,79.54 C35.0326012,79.2598464 34.4385656,78.5666972 34.2853217,77.7259266 C34.1320778,76.885156 34.4433627,76.0269976 35.1,75.48 L35.18,75.41 C35.18,75.41 33.76,77.61 35.77,77.56 C35.77,77.56 37.85,76.89 38.93,73.23 L77,72.1 Z" id="Shape" fill="#000000" stroke-width="1"/>
            <path d="M39.06,74.14 C39.06,74.14 37.21,82.38 37.66,87 C37.66,87 37.59,102.53 54.93,102.7 C55.47,102.7 56.02,102.7 56.56,102.8 C60.65,103.18 77.86,104.02 80.45,91.57 C80.7765444,90.2060556 80.9608622,88.8119428 81,87.41 C81.3772675,83.2635222 81.1583759,79.0843772 80.35,75 C80.35,75 58.41,63.34 39.06,74.14 Z" id="Shape" fill="#936258" stroke-width="1"/>
            <path d="M59,89.58 C55.7542403,89.8595617 52.5616176,90.5794998 49.51,91.72 C48.6251854,92.0972965 47.6146831,92.0380729 46.78,91.56 C46.2817703,91.2570774 45.8303579,90.8831462 45.44,90.45 C45.44,90.45 44.49,94.8 53,94 L57.11,92.87 C58.3954705,92.420184 59.7814433,92.3404906 61.11,92.64 C63.45,93.42 67.28,94.64 70.91,94.23 C70.91,94.23 75.03,93.78 74.35,90.34 C74.17081,91.0351175 73.6980807,91.6178931 73.0548753,91.9366157 C72.4116698,92.2553384 71.6616264,92.2784741 71,92 C67.3276696,90.9018331 63.5767325,90.0861213 59.78,89.56 C59.5199971,89.5400963 59.2586412,89.5467978 59,89.58 L59,89.58 Z" id="Shape" fill="#000102" stroke-width="1"/>
            <path d="M57.13,87.44 L57.05,87.44 C56.9476578,87.3829225 56.9045902,87.2580265 56.95,87.15 C56.95,87.07 57.78,85.26 59.1,85.15 C59.94,85.1 60.78,85.75 61.57,87.15 C61.6290505,87.2507328 61.6032516,87.3797277 61.51,87.45 C61.4647584,87.4821344 61.4077294,87.4928841 61.3538937,87.4794252 C61.300058,87.4659662 61.254797,87.4296441 61.23,87.38 C60.52,86.17 59.8,85.57 59.12,85.62 C58.04,85.7 57.32,87.33 57.31,87.35 C57.2705629,87.4102005 57.2018227,87.4445706 57.13,87.44 Z" id="Shape" fill="#161616" stroke-width="1"/>
            <ellipse id="Oval" fill="#F5F9F8" cx="47.11" cy="80.32" rx="5.59" ry="4.47" stroke-width="1"/>
            <path d="M47.11,84.9 C43.95,84.9 41.38,82.84 41.38,80.32 C41.38,77.8 43.95,75.74 47.11,75.74 C50.27,75.74 52.84,77.8 52.84,80.32 C52.84,82.84 50.27,84.9 47.11,84.9 Z M47.11,75.95 C44.11,75.95 41.66,77.95 41.66,80.31 C41.66,82.67 44.11,84.67 47.11,84.67 C50.11,84.67 52.57,82.67 52.57,80.31 C52.57,77.95 50.12,76 47.11,76 L47.11,75.95 Z" id="Shape" fill="#161616" stroke-width="1"/>
            <ellipse id="Oval" fill="#161616" cx="48.55" cy="80.5" rx="2.43" ry="1.94" stroke-width="1"/>
            <ellipse id="Oval" fill="#F5F9F8" cx="71.43" cy="80.32" rx="5.59" ry="4.47" stroke-width="1"/>
            <path d="M71.43,84.9 C68.27,84.9 65.7,82.84 65.7,80.32 C65.7,77.8 68.27,75.74 71.43,75.74 C74.59,75.74 77.16,77.8 77.16,80.32 C77.16,82.84 74.58,84.9 71.43,84.9 Z M71.43,75.95 C68.43,75.95 65.97,77.95 65.97,80.31 C65.97,82.67 68.42,84.67 71.43,84.67 C74.44,84.67 76.89,82.67 76.89,80.31 C76.89,77.95 74.44,76 71.43,76 L71.43,75.95 Z" id="Shape" fill="#161616" stroke-width="1"/>
            <ellipse id="Oval" fill="#161616" cx="69.99" cy="80.5" rx="2.43" ry="1.94" stroke-width="1"/>
            <path d="M53.24,94.38 C57.182633,95.338056 61.297367,95.338056 65.24,94.38 C65.24,94.38 66.15,99.61 58.69,99.22 C58.73,99.22 53.1,99 53.24,94.38 Z" id="Shape" fill="#830004" stroke-width="1"/>
            <path d="M59.51,99.35 L58.72,99.35 C58.67,99.35 52.98,99.12 53.12,94.35 C53.1099593,94.3242785 53.1099593,94.2957215 53.12,94.27 C53.1517455,94.2554495 53.1882545,94.2554495 53.22,94.27 C57.1630949,95.2241917 61.2769051,95.2241917 65.22,94.27 C65.2488639,94.258324 65.2811361,94.258324 65.31,94.27 C65.3354776,94.2855789 65.3535262,94.3108469 65.36,94.34 C65.5340283,95.55541 65.1687997,96.7862304 64.36,97.71 C63.37,98.8 61.74,99.35 59.51,99.35 Z M53.35,94.52 C53.278463,96.2686671 54.3520345,97.8607939 56,98.45 C56.8746507,98.8287325 57.8086342,99.0520763 58.76,99.11 C61.32,99.24 63.16,98.73 64.23,97.59 C64.9798851,96.7526312 65.342832,95.6383841 65.23,94.52 C61.323404,95.4397384 57.256596,95.4397384 53.35,94.52 L53.35,94.52 Z" id="Shape" fill="#161616" stroke-width="1"/>
            <path d="M55.31,98.11 C58.0153359,97.3331527 60.8846641,97.3331527 63.59,98.11 C63.59,98.11 62.18,99.2 58.98,99.11 C57.690683,99.1003037 56.4260168,98.755708 55.31,98.11 L55.31,98.11 Z" id="Shape" fill="#D27366" stroke-width="1"/>
            <path d="M53.35,94.52 L53.4,95.29 C57.2560083,96.4568929 61.376396,96.4185151 65.21,95.18 L65.21,94.5 C65.21,94.5 60.61,96.08 53.35,94.52 Z" id="Shape" fill="#FFFFFF" stroke-width="1"/>
            <path d="M10.19,120.87 C14.42,119.69 14.97,121.19 14.97,121.19 C15.56,123.89 9.9,124.01 9.9,124.01 C11.2616959,123.62691 12.6658823,123.415275 14.08,123.38 C14.3972855,123.388662 14.6916174,123.547437 14.8731065,123.807835 C15.0545956,124.068232 15.1016874,124.399326 15,124.7 C13.89,127.36 10.12,126.7 10.12,126.7 C14.86,125.85 14.22,127.04 14.22,127.04 C13.95,130.22 10.33,129.46 8.97,129.04 C8.6459875,128.947015 8.36143394,128.750286 8.16,128.48 C3.85,122.48 7.35,118.06 7.35,118.06 C9.57,116.5 12.66,116.6 14.17,116.6 C14.3890237,116.588579 14.6027358,116.669896 14.7587679,116.824025 C14.9147999,116.978154 14.998733,117.190853 14.99,117.41 C14.87,118.39 14.53,119.88 10.19,120.87 Z" id="Shape" fill="#936258" stroke-width="1"/>
            <path d="M11.29,129.69 C10.4658243,129.67342 9.64797146,129.54216 8.86,129.3 C8.48707175,129.191256 8.1602737,128.962849 7.93,128.65 C6.19371474,126.505171 5.44216614,123.727709 5.86,121 C6.05350345,119.919281 6.48379275,118.894783 7.12,118 L7.12,118 C9.26,116.49 12.2,116.47 13.76,116.49 L14.07,116.49 C14.3675505,116.486469 14.6533741,116.605863 14.86,116.82 C15.0385904,117.011513 15.1291992,117.268842 15.11,117.53 C15.04,118.44 14.68,119.42 12.95,120.26 C14.73,120.26 15.09,121.06 15.14,121.19 C15.2829481,121.721862 15.1641202,122.290008 14.82,122.72 C14.6492735,122.927272 14.4467587,123.10616 14.22,123.25 C14.5742682,123.307621 14.882487,123.524661 15.0561327,123.838784 C15.2297783,124.152907 15.2496351,124.529352 15.11,124.86 C14.8475763,125.496594 14.388585,126.032668 13.8,126.39 C13.9881009,126.435773 14.1564292,126.540979 14.28,126.69 C14.3863168,126.834133 14.4126477,127.022212 14.35,127.19 C14.3115414,127.985844 13.9143697,128.721348 13.27,129.19 C12.6727662,129.545909 11.9846064,129.719687 11.29,129.69 L11.29,129.69 Z M7.46,118.26 C6.87399489,119.126118 6.4817387,120.108464 6.31,121.14 C5.93374737,123.729999 6.65905198,126.359228 8.31,128.39 C8.48464742,128.622157 8.73050528,128.790745 9.01,128.87 C9.84,129.12 11.9,129.6 13.08,128.79 C13.6563207,128.375692 13.9985743,127.709785 14,127 C13.9937981,126.970321 13.9937981,126.939679 14,126.91 C14.0142906,126.885248 14.0142906,126.854752 14,126.83 C14,126.83 13.8,126.65 13.2,126.61 C12.1797321,126.993471 11.0825053,127.127195 10,127 C9.89371838,126.97747 9.81769696,126.883643 9.81769696,126.775 C9.81769696,126.666357 9.89371838,126.57253 10,126.55 C11.0067528,126.3436 12.0323308,126.243053 13.06,126.25 C13.8074439,125.969242 14.40732,125.394662 14.72,124.66 C14.8137788,124.440761 14.7912409,124.189088 14.66,123.99 C14.5239923,123.785627 14.2954838,123.662008 14.05,123.66 C13.8101756,123.647018 13.5698244,123.647018 13.33,123.66 C12.2192308,124.030058 11.0602844,124.235569 9.89,124.27 L9.89,124.27 C9.77889252,124.262558 9.68907575,124.176589 9.67677849,124.065914 C9.66448123,123.955238 9.73323615,123.85165 9.84,123.82 C10.9596594,123.530974 12.0995782,123.327059 13.25,123.21 C13.7307624,123.049765 14.1615474,122.76717 14.5,122.39 C14.7533732,122.075988 14.8424575,121.660261 14.74,121.27 L14.74,121.27 C14.74,121.27 14.21,120.22 11.08,120.91 L10.24,121.12 C10.1189361,121.145117 9.99967633,121.070028 9.97,120.95 C9.94410521,120.83194 10.014008,120.713979 10.13,120.68 L10.97,120.47 C14.55,119.47 14.65,118.13 14.7,117.47 C14.7100633,117.333947 14.6629511,117.199859 14.57,117.1 C14.4499314,116.975202 14.2831396,116.90631 14.11,116.91 L13.8,116.91 C12.32,116.87 9.47,116.86 7.45,118.27 L7.46,118.26 Z" id="Shape" fill="#603404" stroke-width="1"/>
            <path d="M10.19,129.65 C9.73385866,129.579976 9.28286757,129.479756 8.84,129.35 C8.44140477,129.249908 8.08873862,129.017148 7.84,128.69 C3.46,122.69 7,118 7.03,117.95 L7.09,117.9 C9.24,116.39 12.18,116.39 13.76,116.39 L14.07,116.39 C14.379751,116.389348 14.6761898,116.515877 14.89,116.74 C15.0738229,116.940968 15.167722,117.208219 15.15,117.48 C15.067394,118.690866 14.2857674,119.742154 13.15,120.17 C14.81,120.23 15.15,121 15.21,121.12 C15.3598723,121.664417 15.2409926,122.24767 14.89,122.69 C14.7384943,122.878604 14.5598898,123.043729 14.36,123.18 C14.7059151,123.263348 14.9976115,123.494723 15.1575068,123.812587 C15.3174021,124.130452 15.3292868,124.502581 15.19,124.83 C14.9480832,125.432646 14.5342401,125.95082 14,126.32 C14.1570752,126.373735 14.2957469,126.470805 14.4,126.6 C14.5115958,126.753011 14.541461,126.950867 14.48,127.13 C14.4535226,127.953073 14.0473205,128.717472 13.38,129.2 C12.4092503,129.74036 11.2723467,129.900739 10.19,129.65 L10.19,129.65 Z M7.48,118.3 C7.16,118.73 4.32,122.84 8.32,128.36 C8.48691874,128.582582 8.7223098,128.744194 8.99,128.82 C9.81,129.07 11.86,129.55 12.99,128.75 C13.5299164,128.346119 13.8514149,127.714208 13.86,127.04 C13.8535294,127.006981 13.8535294,126.973019 13.86,126.94 C13.86,126.88 13.67,126.75 13.12,126.71 C12.1171454,127.050062 11.04835,127.149405 10,127 C9.87321636,126.975255 9.7817204,126.864176 9.7817204,126.735 C9.7817204,126.605824 9.87321636,126.494745 10,126.47 C11.0034589,126.264149 12.0256643,126.163604 13.05,126.17 C13.7854449,125.892024 14.3746503,125.324508 14.68,124.6 C14.7696432,124.394837 14.7508827,124.158455 14.63,123.97 C14.5025638,123.772817 14.2847635,123.652652 14.05,123.65 C13.8134802,123.638209 13.5765198,123.638209 13.34,123.65 C12.2257528,124.019904 11.0635324,124.225398 9.89,124.26 C9.7535598,124.266149 9.63562058,124.165682 9.62,124.03 C9.60573835,123.897165 9.69076758,123.773873 9.82,123.74 C10.939635,123.450862 12.0795623,123.246945 13.23,123.13 C13.7000709,122.970453 14.1205204,122.691302 14.45,122.32 C14.6962367,122.014198 14.7816913,121.609218 14.68,121.23 L14.68,121.23 C14.68,121.23 14.14,120.23 11.07,120.9 L10.22,121.11 C10.0845979,121.126773 9.95796059,121.039896 9.92486977,120.907533 C9.89177896,120.775169 9.96263464,120.638919 10.09,120.59 L10.93,120.38 C14.49,119.38 14.58,118.07 14.63,117.38 C14.639136,117.254895 14.5956394,117.131655 14.51,117.04 C14.3988744,116.921453 14.2424375,116.855968 14.08,116.86 L13.77,116.86 C12.3,116.91 9.49,116.91 7.48,118.3 Z" id="Shape" fill="#603404" stroke-width="1"/>
            <path d="M36.19,73.52 C36.19,73.52 35.38,51.25 54.75,46.66 C54.75,46.66 65.11,43.66 75.53,52.19 C75.53,52.19 83.53,59.19 83.71,74.3 C83.71,74.3 62.7,60.71 36.19,73.52 Z" id="Shape" fill="#175F7F" stroke-width="1"/>
            <path d="M83.71,74.53 L83.62,74.53 C83.41,74.39 62.38,61.14 36.26,73.76 C36.2080203,73.7925941 36.1419797,73.7925941 36.09,73.76 C36.0335336,73.7129721 36.0006176,73.6434826 36,73.57 C35.9886258,69.5481116 36.6650394,65.5538893 38,61.76 C40,56.11 44.6,48.86 54.68,46.47 C54.78,46.47 65.23,43.59 75.6,52.03 C75.69,52.11 83.68,59.29 83.87,74.33 C83.8724041,74.4069699 83.8392018,74.4807528 83.78,74.53 C83.7569193,74.5348559 83.7330807,74.5348559 83.71,74.53 L83.71,74.53 Z M59.38,67.83 C67.8095394,67.7816407 76.1129775,69.8772867 83.51,73.92 C83.19,59.37 75.51,52.45 75.41,52.38 C65.2,44.05 54.9,46.86 54.8,46.89 C44.88,49.24 40.4,56.35 38.39,61.89 C37.1098981,65.518503 36.4342445,69.3325674 36.39,73.18 C43.5537361,69.6911573 51.4119335,67.8624772 59.38,67.83 L59.38,67.83 Z" id="Shape" fill="#603404" stroke-width="1"/>
            <path d="M44.42,51.64 C44.42,51.64 43.58,36.81 49.71,36 C49.71,36 61.1,32.46 72.35,36.66 C72.35,36.66 77.23,37.66 76.52,52.78 C76.52,52.81 62.57,39.57 44.42,51.64 Z" id="Shape" fill="#175F7F" stroke-width="1"/>
            <path d="M76.52,53 C76.4813299,53.014587 76.4386701,53.014587 76.4,53 C76.26,52.87 62.34,40 44.51,51.85 C44.4556887,51.8869499 44.3843113,51.8869499 44.33,51.85 C44.268616,51.8059395 44.2315656,51.7355439 44.23,51.66 C44.1241248,49.1312846 44.2412443,46.5981578 44.58,44.09 C45.33,39 47.1,36.09 49.7,35.8 C49.79,35.8 61.24,32.29 72.41,36.47 C72.59,36.47 77.41,37.65 76.71,52.82 C76.7094109,52.900952 76.6680509,52.976152 76.6,53.02 L76.52,53 Z M59.87,46.37 C65.8807992,46.4485481 71.687178,48.5638045 76.34,52.37 C76.92,38.08 72.34,36.93 72.34,36.92 C61.25,32.78 49.89,36.22 49.78,36.25 C44.4,36.93 44.54,48.98 44.61,51.25 C49.1038669,48.1535385 54.4132995,46.4556335 59.87,46.37 Z" id="Shape" fill="#603404" stroke-width="1"/>
            <ellipse id="Oval" fill="#35819B" cx="51.2" cy="41.14" rx="1.14" ry="2.5" stroke-width="1"/>
            <ellipse id="Oval" fill="#35819B" cx="48.23" cy="43.75" rx="1" ry="1.28" stroke-width="1"/>
            <path d="M35.93,75.4 C35.0376965,73.6614242 35.1445297,71.5781771 36.21,69.94 C39.3650063,68.6983056 42.6157059,67.7150693 45.93,67 C44.7800215,65.3464642 45.1030307,63.0854004 46.67,61.82 C47.3577546,61.247127 48.2360725,60.9543543 49.13,61 C49.9989057,61.0285393 50.8245562,61.3859637 51.44,62 C51.8478488,62.4263863 52.0644839,63.0004693 52.04,63.59 C52.042479,64.0613609 51.8444502,64.51155 51.4953215,64.828246 C51.1461928,65.144942 50.6788884,65.2982791 50.21,65.25 C50.5166648,64.889074 50.6247339,64.3997255 50.4985936,63.9432176 C50.3724532,63.4867096 50.0284692,63.1222706 49.58,62.97 C49.0932953,62.7222497 48.5100514,62.760621 48.06,63.07 C47.58,63.42 47.21,64.07 48.06,65.44 C48.3483675,65.8391678 48.6841608,66.2018245 49.06,66.52 C50.9085041,66.0074021 52.8456182,65.898269 54.74,66.2 C53.8230097,63.7881486 54.3072109,61.0673992 56,59.12 C57.0636019,57.9263392 58.4965796,57.12359 60.07,56.84 C61.7348168,56.5121593 63.4606053,56.9045491 64.82,57.92 C67.5945143,59.689342 68.5435106,63.2937867 67,66.2 C68.7663467,66.1750428 70.5282517,66.3835125 72.24,66.82 C72.9517224,66.6143754 73.5369104,66.1059933 73.84,65.43 C74.023357,64.8459391 73.7212956,64.2199278 73.15,64 C72.572915,63.7624425 71.9111826,63.8707963 71.44,64.28 C71.44,64.28 70.68,64.94 71.83,65.47 C71.83,65.47 70.22,66.54 69.72,64.89 C69.5387959,64.2855293 69.6072235,63.6336661 69.91,63.08 C70.5176999,61.973767 71.7528052,61.3662071 73,61.56 L73.21,61.56 C74.8073053,61.8827686 75.9667266,63.2707497 76,64.9 C76.1473481,65.9392155 75.8414419,66.9916785 75.16,67.79 C75.16,67.79 81.85,69.71 84.16,71.61 C84.7096824,72.9649938 84.787178,74.4655908 84.38,75.87 C84.38,75.87 71.31,71.43 64.49,71.42 C64.49,71.42 53.1,70.66 46.93,72.25 C47,72.24 38.62,73.7 35.93,75.4 Z" id="Shape" fill="#C9D4D7" stroke-width="1"/>
            <path d="M35.93,75.59 L35.93,75.59 C35.8793496,75.5777273 35.8359639,75.5451881 35.81,75.5 C34.8933557,73.6959864 35.0037763,71.5408808 36.1,69.84 C36.1221264,69.8080032 36.1535413,69.7835695 36.19,69.77 C39.2715681,68.5634136 42.4407832,67.5939279 45.67,66.87 C44.6323235,65.1539723 45.0257042,62.9347917 46.59,61.68 C47.3182431,61.0785234 48.247094,60.7748606 49.19,60.83 C50.1007393,60.8417394 50.9729696,61.1992108 51.63,61.83 C52.0753987,62.2967687 52.3102824,62.9255343 52.28,63.57 C52.2789097,64.0860413 52.0623304,64.5781739 51.6825587,64.9275638 C51.302787,65.2769537 50.7943433,65.4518424 50.28,65.41 C50.2061316,65.4124869 50.1369133,65.3740323 50.1,65.31 C50.0578012,65.2463598 50.0578012,65.1636402 50.1,65.1 C50.3124901,64.7753953 50.3946309,64.3825482 50.33,64 C50.1948419,63.6030425 49.8853302,63.2898462 49.49,63.15 C49.0664962,62.9371094 48.5606882,62.9715963 48.17,63.24 C47.58,63.67 47.6,64.38 48.17,65.35 C48.4385172,65.7134286 48.7434309,66.0484986 49.08,66.35 C50.8456004,65.8751847 52.6879953,65.7562109 54.5,66 C53.6813219,63.5889312 54.2027807,60.9245432 55.87,59 C56.9489784,57.7815856 58.4013742,56.9551618 60,56.65 C61.7134602,56.3224871 63.4858646,56.7248121 64.89,57.76 C67.6325053,59.5248698 68.6491421,63.0446544 67.27,66 C68.9565764,65.9764152 70.6385636,66.1816177 72.27,66.61 C72.898246,66.4161232 73.4122151,65.9604769 73.68,65.36 C73.8345746,64.8698506 73.5924386,64.34234 73.12,64.14 C72.6067392,63.9299382 72.0189439,64.0266151 71.6,64.39 L71.6,64.39 C71.4903127,64.4898106 71.4284608,64.6317061 71.43,64.78 C71.43,64.95 71.64,65.11 71.95,65.25 C72.0144337,65.2821611 72.0551472,65.3479859 72.0551472,65.42 C72.0551472,65.4920141 72.0144337,65.5578389 71.95,65.59 C71.4885106,65.9066729 70.9154431,66.0154832 70.37,65.89 C69.9477318,65.7132949 69.6405652,65.3387015 69.55,64.89 C69.3412188,64.2239461 69.4134612,63.5015219 69.75,62.89 C70.4167793,61.7622144 71.7069852,61.1587951 73,61.37 L73.24,61.37 C74.9318265,61.6908367 76.1768207,63.1391799 76.24,64.86 C76.3743519,65.8485647 76.1237527,66.8509615 75.54,67.66 C76.86,68.06 82.25,69.73 84.34,71.43 C84.3667846,71.4508307 84.3875022,71.4784541 84.4,71.51 C84.972719,72.9087155 85.0503398,74.4611316 84.62,75.91 C84.5826985,76.0053359 84.4765703,76.053978 84.38,76.02 C84.25,76.02 71.55,71.69 64.78,71.58 L64.55,71.58 C64.42,71.58 53.11,70.84 47.04,72.4 C46.94,72.4 38.65,73.88 36.04,75.53 C36.0111726,75.5618628 35.9723963,75.5830135 35.93,75.59 Z M36.34,70.1 C35.3885931,71.6026616 35.2643368,73.4853318 36.01,75.1 C38.86,73.45 46.63,72.1 47.01,72.03 C53.12,70.45 64.5,71.19 64.61,71.2 L64.84,71.2 C71.21,71.3 82.79,75.08 84.36,75.6 C84.6786613,74.307731 84.587804,72.9483664 84.1,71.71 C81.75,69.88 75.21,68 75.15,68 C75.0827567,67.9841382 75.0294232,67.9330252 75.0107177,67.8665169 C74.9920123,67.8000086 75.0108833,67.7285881 75.06,67.68 C75.6959489,66.9257488 75.9829559,65.9375728 75.85,64.96 C75.8202249,63.4074391 74.70581,62.0885061 73.18,61.8 L72.99,61.8 C71.8242001,61.6052097 70.6611286,62.1607662 70.08,63.19 C69.8043439,63.6985572 69.7431471,64.2961256 69.91,64.85 C69.9711268,65.1740882 70.1881175,65.4471972 70.49,65.58 C70.8050071,65.6628999 71.1394841,65.6273173 71.43,65.48 C71.2126947,65.3517618 71.0600353,65.1373117 71.01,64.89 C70.9931504,64.6086347 71.1076371,64.3353439 71.32,64.15 C71.8475705,63.6954051 72.5857337,63.5755985 73.23,63.84 C73.9002474,64.1095608 74.242781,64.8561085 74.01,65.54 C73.6739847,66.25968 73.0370995,66.7940779 72.27,67 C72.2280147,67.0152857 72.1819853,67.0152857 72.14,67 C70.4603225,66.5748808 68.7325231,66.3698306 67,66.39 C66.933779,66.3926986 66.8709374,66.3606955 66.8341741,66.3055506 C66.7974108,66.2504057 66.7920394,66.1800891 66.82,66.12 C68.3299531,63.3202617 67.4224131,59.8297231 64.74,58.12 C63.4282562,57.1008809 61.7425093,56.6930977 60.11,57 C58.5656636,57.271128 57.1570705,58.0528972 56.11,59.22 C54.5179495,61.1415439 54.0930313,63.7752713 55,66.1 C55.0304675,66.1635121 55.0232962,66.238668 54.9813672,66.295272 C54.9394383,66.3518761 54.869634,66.3806372 54.8,66.37 C52.9356244,66.0785835 51.0307208,66.1842221 49.21,66.68 C49.1592665,66.7035508 49.1007335,66.7035508 49.05,66.68 C48.6344196,66.3542537 48.2644489,65.9741929 47.95,65.55 C46.95,64 47.55,63.23 47.95,62.9 C48.4551766,62.5503295 49.1109385,62.5043111 49.66,62.78 C50.1632822,62.9670196 50.5512074,63.3771119 50.71,63.89 C50.7899084,64.2651981 50.7405684,64.6563936 50.57,65 C51.3116254,64.9365863 51.8739728,64.3039455 51.85,63.56 C51.8718257,63.0237934 51.677246,62.5013109 51.31,62.11 C50.7190638,61.5529182 49.9419731,61.2356656 49.13,61.22 C48.2841641,61.1747237 47.452297,61.4496326 46.8,61.99 C45.3000384,63.1855435 44.9930053,65.3435481 46.1,66.91 C46.1393929,66.9643514 46.1471834,67.0354555 46.1204936,67.0970472 C46.0938039,67.158639 46.0365953,67.2015768 45.97,67.21 C42.6869559,67.910654 39.4663382,68.8771737 36.34,70.1 L36.34,70.1 Z" id="Shape" fill="#603404" stroke-width="1"/>
            <path d="M59.18,65.46 C59.6843179,65.9828169 60.3762051,66.2830841 61.1025295,66.294345 C61.828854,66.3056058 62.529717,66.0269316 63.05,65.52 C63.8382431,64.4262166 64.0224515,63.00894 63.54,61.75 C63.54,61.75 63.34,60.32 60.87,58.55 C60.87,58.55 60.95,59.92 60.02,60.41 C60.02,60.41 58.27,61.51 58.3,62.89 C58.2094652,63.8334301 58.5301841,64.7700752 59.18,65.46 L59.18,65.46 Z" id="Shape" fill="#FF352C" stroke-width="1"/>
            <path d="M55.83,77.23 C50.3750017,75.7268813 45.913505,71.8000267 43.73,66.58 C42.9117764,67.6084949 42.6987564,68.9931255 43.17,70.22 C43.17,70.22 42.57,71.22 39.51,69.84 C39.51,69.84 41.17,75.33 49.81,77.23 C49.8,77.23 54.17,77.83 55.83,77.23 Z" id="Shape" fill="#161616" stroke-width="1"/>
            <path d="M62.71,77.23 C68.1649983,75.7268813 72.626495,71.8000267 74.81,66.58 C75.6282236,67.6084949 75.8412436,68.9931255 75.37,70.22 C75.37,70.22 75.97,71.22 79.03,69.84 C79.03,69.84 77.37,75.33 68.73,77.23 C68.74,77.23 64.37,77.83 62.71,77.23 Z" id="Shape" fill="#161616" stroke-width="1"/>
        </g>
    </g>
</svg>