<?xml version="1.0" encoding="UTF-8"?><svg xmlns="http://www.w3.org/2000/svg" xmlns:xlink="http://www.w3.org/1999/xlink" width="69.40725708007812" height="137.60202026367188" viewBox="0.43000006675720215 0.4192075729370117 69.40725708007812 137.60202026367188" version="1.1">
    <!-- Generator: Sketch 46.2 (44496) - http://www.bohemiancoding.com/sketch -->
    <title>三国主题素材-10</title>
    <desc>Created with Sketch.</desc>
    <defs/>
    <g id="Page-1" stroke="none" fill-rule="evenodd">
        <g id="三国主题素材-10" fill-rule="nonzero">
            <path d="M17,128.8 C17,128.8 16.34,134.56 19,136.54 C21.065113,138.0101 23.8864453,137.791131 25.7,136.02 C26.82,135.02 27.47,129.83 26.33,128.68 L17,128.8 Z" id="Shape" fill="#FFF6E6" stroke-width="1"/>
            <path d="M16.82,129.31 C16.82,129.31 16.87,134.43 19.54,136 C21.4178899,137.147676 23.8253975,136.932502 25.47,135.47 C26.47,134.64 27.47,130.88 28.77,128.9 L16.82,129.31 Z" id="Shape" fill="#443A37" stroke-width="1"/>
            <path d="M42.64,128.95 C42.64,128.95 41.5,134.56 44.2,136.55 C46.265113,138.0201 49.0864453,137.801131 50.9,136.03 C52.02,135.03 53.82,129.52 52.69,128.37 L42.64,128.95 Z" id="Shape" fill="#FFF6E6" stroke-width="1"/>
            <path d="M42,129.31 C42,129.31 42.05,134.43 44.72,136 C46.5978899,137.147676 49.0053975,136.932502 50.65,135.47 C51.65,134.64 52.65,130.88 53.95,128.9 L42,129.31 Z" id="Shape" fill="#443A37" stroke-width="1"/>
            <path d="M15.77,90.34 C14.13,95.21 13.3,124.34 13.3,124.34 C12.8701302,125.312986 12.7278562,126.388716 12.89,127.44 C14.72,131.16 18.95,130.24 18.95,130.24 C19.4502288,131.285153 20.3693366,132.069846 21.48,132.4 C23.58,133.5 25.88,131.75 25.88,131.75 C27.3518859,131.172058 29.0227975,131.45696 30.22,132.49 C30.8779318,132.659067 31.5768094,132.536429 32.1378688,132.153453 C32.6989283,131.770477 33.0677521,131.16431 33.15,130.49 L34,95.21 L15.77,90.34 Z" id="Shape" fill="#46666D" stroke-width="1"/>
            <path d="M23,133 C22.447165,133.002938 21.9017652,132.872591 21.41,132.62 C20.2982734,132.28637 19.3681048,131.51844 18.83,130.49 C18.01,130.61 14.37,130.95 12.69,127.49 L12.69,127.43 C12.5215596,126.349299 12.6637509,125.242982 13.1,124.24 C13.15,122.49 13.97,94.98 15.59,90.19 C15.6280477,90.0780177 15.74482,90.0131442 15.86,90.04 L34,95 C34.0995932,95.0269084 34.1690857,95.1168398 34.17,95.22 L33.33,130.51 C33.2121789,131.302486 32.7930601,132.018929 32.16,132.51 C31.5617527,132.879451 30.834798,132.97759 30.16,132.78 C30.1184871,132.770566 30.0804073,132.749795 30.05,132.72 C28.9362871,131.751052 27.3794319,131.474278 26,132 C25.1186568,132.618243 24.0760202,132.965788 23,133 L23,133 Z M19,130 C19.0835084,130.000724 19.1600628,130.046657 19.2,130.12 C19.6738841,131.104456 20.5361978,131.847205 21.58,132.17 L21.64,132.17 C23.59,133.17 25.77,131.56 25.79,131.54 L25.86,131.54 C27.3911354,130.951267 29.1210584,131.238312 30.38,132.29 C30.9224651,132.459748 31.5115333,132.390659 32,132.1 C32.522434,131.698124 32.87845,131.117818 33,130.47 L33.83,95.39 L16,90.62 C14.43,95.96 13.61,124.1 13.6,124.39 C13.6062019,124.419679 13.6062019,124.450321 13.6,124.48 C13.1935046,125.399538 13.0548542,126.415152 13.2,127.41 C14.94,130.89 18.83,130.1 18.99,130.06 L19,130 Z" id="Shape" fill="#603404" stroke-width="1"/>
            <path d="M54.92,99.37 C56.46,104.23 56.37,124.37 56.37,124.37 C56.7754084,125.346252 56.9067922,126.41461 56.75,127.46 C55.6935752,129.615068 53.3080671,130.776921 50.96,130.28 C50.4946056,131.315369 49.6112169,132.104239 48.53,132.45 C46.53,133.56 44.34,131.82 44.34,131.82 C42.9246633,131.263891 41.3164095,131.558415 40.19,132.58 C37.78,133.19 37.4,130.58 37.4,130.58 L37.52,104.31 L54.92,99.37 Z" id="Shape" fill="#46666D" stroke-width="1"/>
            <path d="M47.06,133.06 C46.0343858,133.019459 45.0447502,132.670995 44.22,132.06 C42.9004008,131.536799 41.3979361,131.812445 40.35,132.77 C40.3208531,132.803455 40.2826512,132.827766 40.24,132.84 C39.5958431,133.046196 38.8935808,132.958413 38.32,132.6 C37.6936338,132.106114 37.2817483,131.389791 37.17,130.6 L37.29,104.3 C37.2896026,104.199606 37.3543678,104.110554 37.45,104.08 L54.85,99.14 C54.9070181,99.121435 54.9691435,99.1269486 55.0220009,99.1552651 C55.0748582,99.1835815 55.1138667,99.2322468 55.13,99.29 C56.64,104.06 56.59,122.96 56.59,124.29 C56.9990715,125.296925 57.1269575,126.396053 56.96,127.47 L56.96,127.53 C55.9025918,129.743323 53.492623,130.972898 51.08,130.53 C50.5781385,131.54446 49.6872206,132.312741 48.61,132.66 C48.1355654,132.922497 47.6022109,133.060137 47.06,133.06 Z M42.8,131.35 C43.3435774,131.353312 43.8833431,131.441024 44.4,131.61 L44.47,131.61 C44.47,131.61 46.56,133.24 48.41,132.22 L48.47,132.22 C49.4810754,131.880354 50.3041061,131.133463 50.74,130.16 C50.7901842,130.072466 50.8915597,130.027861 50.99,130.05 C53.2271145,130.530131 55.5047082,129.430461 56.52,127.38 C56.6642175,126.388714 56.5398978,125.37689 56.16,124.45 C56.1526659,124.41707 56.1526659,124.38293 56.16,124.35 C56.16,124.15 56.23,104.74 54.79,99.62 L37.79,104.45 L37.67,130.55 L37.67,130.55 C37.7947141,131.193844 38.1503361,131.769952 38.67,132.17 C39.1186213,132.447466 39.6643525,132.520231 40.17,132.37 C40.8917228,131.71988 41.8286402,131.360075 42.8,131.36 L42.8,131.35 Z" id="Shape" fill="#603404" stroke-width="1"/>
            <path d="M24.43,118 C36.06,119.24 49.34,117.85 55.52,117 C57.463003,116.802118 58.926605,115.142497 58.88,113.19 L57.88,92.67 C70.38,86.54 67.52,77.32 67.52,77.32 C65.64,62.52 52.3,57.22 52.3,57.22 L16.58,57.22 C1.4,62.11 1.16,73.87 1.16,73.87 C1.21,91.6 10.87,89.57 10.87,89.57 L9.73,112.46 C9.6688964,114.974632 11.5826625,117.099088 14.09,117.3 C15.44,117.44 17.09,117.53 19.34,117.55 C19.34,117.55 22.26,117.82 24.43,118 Z" id="Shape" fill="#527884" stroke-width="1"/>
            <path d="M34.61,118.77 C31.2002395,118.783106 27.7921643,118.616207 24.4,118.27 C22.27,118.04 19.35,117.78 19.32,117.78 C17.21,117.78 15.49,117.68 14.06,117.53 C11.4367253,117.304074 9.43816138,115.082475 9.49,112.45 L10.62,89.84 C8.7713283,90.0132244 6.92957225,89.44487 5.5,88.26 C2.5,85.83 0.95,80.99 0.93,73.88 C0.93,73.76 1.35,61.88 16.5,57.07 L52.3,57.07 L52.38,57.07 C52.51,57.12 65.87,62.59 67.74,77.35 C67.74,77.4 70.49,86.73 58.11,92.87 L59.11,113.25 C59.122976,115.294706 57.5917711,117.020007 55.56,117.25 C48.6161363,118.20205 41.6185671,118.70975 34.61,118.77 L34.61,118.77 Z M24.45,117.82 C35.88,119.05 48.8,117.73 55.45,116.82 C57.2762914,116.642311 58.6553221,115.084355 58.61,113.25 L57.61,92.73 C57.6088863,92.6406972 57.6595701,92.5588234 57.74,92.52 C69.93,86.52 67.29,77.52 67.26,77.44 C65.5,63.3 53,57.84 52.26,57.51 L16.61,57.51 C8.86,59.98 5.13,64.31 3.37,67.51 C2.24263997,69.4638754 1.55977609,71.6422112 1.37,73.89 C1.37,80.89 2.87,85.57 5.77,87.89 C7.16187288,89.0488099 8.97410836,89.5743582 10.77,89.34 C10.8375689,89.3280588 10.9069407,89.3469092 10.9591741,89.3914044 C11.0114075,89.4358995 11.041047,89.5013921 11.04,89.57 L9.89,112.46 C9.83470009,114.856715 11.6602122,116.879698 14.05,117.07 C15.46,117.22 17.17,117.3 19.28,117.32 C19.39,117.33 22.31,117.59 24.45,117.82 L24.45,117.82 Z" id="Shape" fill="#603404" stroke-width="1"/>
            <path d="M12.28,76.7 C12.1826044,76.702132 12.092841,76.6474934 12.05,76.56 C10.79,73.89 13.48,71.92 13.51,71.91 C13.6108715,71.8241451 13.7591285,71.8241451 13.86,71.91 C13.9040416,71.9515634 13.9290033,72.0094428 13.9290033,72.07 C13.9290033,72.1305572 13.9040416,72.1884366 13.86,72.23 C13.76,72.3 11.45,74 12.55,76.34 C12.5759182,76.3966996 12.5765636,76.4617333 12.5517757,76.5189362 C12.5269878,76.576139 12.4790944,76.6201392 12.42,76.64 L12.28,76.7 Z" id="Shape" fill="#603404" stroke-width="1"/>
            <path d="M60,76.2 L60,76.2 C59.9363288,76.1974024 59.8763046,76.1695896 59.8331597,76.122693 C59.7900149,76.0757965 59.7672919,76.0136666 59.77,75.95 C59.98,73.6 57.68,71.95 57.66,71.95 C57.6159584,71.9084366 57.5909967,71.8505572 57.5909967,71.79 C57.5909967,71.7294428 57.6159584,71.6715634 57.66,71.63 C57.7608715,71.5441451 57.9091285,71.5441451 58.01,71.63 C58.11,71.7 60.56,73.42 60.32,76.03 C60.3043608,76.0977211 60.2601315,76.1553368 60.1987519,76.1879447 C60.1373722,76.2205526 60.0648708,76.2249502 60,76.2 Z" id="Shape" fill="#603404" stroke-width="1"/>
            <path d="M11.09,89.84 C11.09,89.84 32.24,94.61 53.77,92.01 L57.72,92.95 C57.72,92.95 45.61,98.8 10.93,92.43 L11.09,89.84 Z" id="Shape" fill="#C9D4D7" stroke-width="1"/>
            <path d="M23.59,58.92 L27.59,58.92 C27.59,58.92 28.78,72.44 39.27,73.14 L39.27,76 C39.27,76 27.79,74.87 23.59,58.92 Z" id="Shape" fill="#46666D" stroke-width="1"/>
            <path d="M39.49,76.23 L39.24,76.23 C36.9465047,75.8652896 34.7672641,74.9792248 32.87,73.64 C29.74,71.55 25.55,67.31 23.37,59 L23.3,58.72 L27.8,58.72 L27.8,58.93 C27.8,59.06 29.09,72.27 39.27,72.93 L39.48,72.93 L39.49,76.23 Z M23.89,59.14 C26.06,67.14 30.1,71.21 33.13,73.24 C34.8954621,74.4612483 36.8937053,75.3054806 39,75.72 L39,73.35 C34.72,72.99 31.35,70.41 29.25,65.87 C28.2885887,63.7360091 27.648318,61.4714727 27.35,59.15 L23.89,59.14 Z" id="Shape" fill="#603404" stroke-width="1"/>
            <path d="M44.69,58.92 C44.69,58.92 47.77,71.23 29.69,80.05 L29,86.57 C29,86.57 48.2,79.78 49.93,58.92 L44.69,58.92 Z" id="Shape" fill="#46666D" stroke-width="1"/>
            <path d="M28.74,86.91 L29.47,79.91 L29.58,79.86 C38.84,75.35 42.4,69.91 43.75,66.15 C44.6325025,63.8758279 44.8847082,61.4055936 44.48,59 L44.41,58.72 L50.19,58.72 L50.19,58.96 C48.46,79.73 29.3,86.74 29.11,86.81 L28.74,86.91 Z M29.89,80.2 L29.26,86.2 C31.82,85.2 47.99,77.88 49.68,59.12 L45,59.12 C45.28,61 46.32,72.14 29.89,80.2 Z" id="Shape" fill="#603404" stroke-width="1"/>
            <path d="M46.67,72.09 C46.67,72.09 50.14,80.51 44.96,87.76 C45,87.76 41,78.36 46.67,72.09 Z" id="Shape" fill="#46666D" stroke-width="1"/>
            <path d="M44.93,88 L44.85,87.81 C44.85,87.72 40.96,78.27 46.58,72.02 L46.7,71.89 L46.77,72.06 C46.77,72.14 50.21,80.62 45.05,87.84 L44.93,88 Z M46.63,72.3 C41.72,78 44.48,86.16 45,87.52 C49.5,81 47.07,73.53 46.63,72.3 Z" id="Shape" fill="#603404" stroke-width="1"/>
            <path d="M45,88.1 L45,88.1 C44.8669216,88.0880226 44.751424,88.0033243 44.7,87.88 C44.7,87.79 40.77,78.2 46.47,71.88 C46.555934,71.7853566 46.6836968,71.7402639 46.81,71.76 C46.9050079,71.808823 46.9742797,71.8963242 47,72 C47,72.08 50.5,80.64 45.26,88 C45.1896699,88.0659313 45.0963846,88.1018103 45,88.1 Z M46.67,72 C46.6344857,71.9869997 46.5955143,71.9869997 46.56,72 C40.98,78.22 44.79,87.69 44.83,87.78 C44.8521311,87.8268034 44.8982849,87.8575726 44.95,87.86 L44.95,87.86 C44.9972136,87.86 45.0416718,87.8377709 45.07,87.8 C50.24,80.56 46.82,72.11 46.79,72.03 C46.7696209,71.9861168 46.7280273,71.9558669 46.68,71.95 L46.67,72 Z M45,87.48 L44.92,87.27 C44.18,85.14 42.09,77.8 46.49,72.5 L46.62,72.34 L46.68,72.53 C47.34,74.46 49.16,81.23 45.12,87.29 L45,87.48 Z M46.53,72.8 C42.53,77.8 44.28,84.66 45.06,86.98 C48.75,81.23 47.21,74.91 46.53,72.8 Z" id="Shape" fill="#603404" stroke-width="1"/>
            <path d="M12.25,89.95 C11.97,89.95 11.38,89.85 11.1,89.84 C11.0363334,89.8427081 10.9742035,89.8199851 10.927307,89.7768403 C10.8804104,89.7336954 10.8525976,89.6736712 10.85,89.61 C10.8606403,89.4758526 10.9755566,89.3741959 11.11,89.38 C21.7,89.58 27.99,87.6 28.05,87.56 C28.1676527,87.491895 28.3175917,87.5218828 28.4,87.63 C28.4357624,87.6819873 28.4474805,87.7468279 28.4321765,87.8080441 C28.4168724,87.8692603 28.3760197,87.9209582 28.32,87.95 C28.25,88 22.46,89.95 12.25,89.95 Z" id="Shape" fill="#603404" stroke-width="1"/>
            <path d="M57.86,93 L57.86,93 C47.86,91.31 44.95,88.33 44.81,88.16 C44.7659584,88.1184366 44.7409967,88.0605572 44.7409967,88 C44.7409967,87.9394428 44.7659584,87.8815634 44.81,87.84 C44.9108715,87.7541451 45.0591285,87.7541451 45.16,87.84 C45.16,87.84 48.16,90.84 57.9,92.51 C57.9632653,92.517261 58.0206887,92.5504267 58.0585932,92.6015977 C58.0964976,92.6527687 58.1114902,92.7173646 58.1,92.78 C58.0852588,92.9025146 57.9833317,92.9959477 57.86,93 Z" id="Shape" fill="#603404" stroke-width="1"/>
            <path d="M14.49,74.42 C13.73,74.42 12.9433333,74.3933333 12.13,74.34 C12.0663288,74.3374024 12.0063046,74.3095896 11.9631597,74.262693 C11.9200149,74.2157965 11.8972919,74.1536666 11.9,74.09 C11.9012778,74.0236076 11.9324756,73.9613444 11.9848923,73.9205759 C12.0373091,73.8798073 12.1053359,73.8648957 12.17,73.88 C17.0659727,74.292436 21.9885922,73.5028945 26.51,71.58 C26.6295099,71.5171659 26.7772282,71.5562678 26.85,71.67 C26.8808976,71.7237807 26.8876579,71.7881052 26.8686163,71.8471343 C26.8495746,71.9061634 26.8065003,71.9544122 26.75,71.98 C22.8808959,73.6480575 18.7029366,74.47956 14.49,74.42 L14.49,74.42 Z" id="Shape" fill="#603404" stroke-width="1"/>
            <path d="M58.26,74.38 C53.6,74.38 47.16,72.38 46.87,72.31 C46.807993,72.2964981 46.7548367,72.2568783 46.7241806,72.2013141 C46.6935246,72.14575 46.6883552,72.0796546 46.71,72.02 C46.7647728,71.8979658 46.9032012,71.8374034 47.03,71.88 C47.11,71.88 54.68,74.22 59.25,73.88 C59.3137412,73.8715261 59.3782169,73.8889847 59.4289738,73.9284623 C59.4797307,73.9679399 59.5125231,74.0261342 59.52,74.09 C59.5227081,74.1536666 59.4999851,74.2157965 59.4568403,74.262693 C59.4136954,74.3095896 59.3536712,74.3374024 59.29,74.34 C59,74.37 58.62,74.38 58.26,74.38 Z" id="Shape" fill="#603404" stroke-width="1"/>
            <path d="M28.19,88 L28.08,87.83 C28.02,87.74 22.33,78.9 26.54,71.72 L26.63,71.56 L26.73,71.71 C26.78,71.79 31.83,79.76 28.28,87.8 L28.19,88 Z M26.64,72 C23.01,78.46 27.38,86.24 28.16,87.52 C31.23,80.28 27.32,73.15 26.64,72 Z" id="Shape" fill="#603404" stroke-width="1"/>
            <path d="M28.17,88.22 C28.0099996,88.2210435 27.8599988,88.1422931 27.77,88.01 C27.71,87.92 21.94,78.86 26.22,71.56 C26.3105248,71.4216799 26.4646907,71.3383282 26.63,71.3383282 C26.7953093,71.3383282 26.9494752,71.4216799 27.04,71.56 C27.09,71.64 32.24,79.75 28.61,87.97 C28.5378023,88.1337922 28.378835,88.2423553 28.2,88.25 L28.17,88.22 Z M26.17,72.63 C22.87,79.53 28.05,87.63 28.11,87.76 L28.11,87.76 L28.11,87.76 C31.66,79.76 26.65,71.85 26.6,71.76 L26.6,71.76 L26.8,72.11 C27.8,73.95 31.02,80.49 28.3,87.25 L28.13,87.68 L27.9,87.28 C26.8,85.36 23.39,78.59 26.21,72.63 L26.17,72.63 Z M26.61,72.76 C24,78.18 26.78,84.35 28.06,86.69 C30.28,80.67 27.78,74.9 26.65,72.75 L26.61,72.76 Z" id="Shape" fill="#603404" stroke-width="1"/>
            <path d="M38.8,80.22 C38.8,80.22 46.08,82.72 47.72,79.57 C47.72,79.57 48.95,73.46 44.13,71.28 C44.13,71.28 40.71,68.16 35.73,71.87 C35.73,71.87 33.5,77.94 35.73,80.72 C35.73,80.72 37.1,82.46 38.51,81.45 C38.8643154,81.1469665 38.9816291,80.6493944 38.8,80.22 Z" id="Shape" fill="#936258" stroke-width="1"/>
            <path d="M37.59,82 L37.35,82 C36.6318354,81.8428551 35.9893713,81.4439626 35.53,80.87 C33.25,78.03 35.4,72.06 35.53,71.81 C35.5471171,71.770036 35.5747682,71.7354722 35.61,71.71 C40.45,68.1 43.94,70.79 44.31,71.1 C49.21,73.35 48.01,79.57 48,79.63 L48,79.69 C46.5,82.58 40.82,81.1 39.19,80.6 C39.1882689,80.9841207 39.0205466,81.3487344 38.73,81.6 C38.4054709,81.8571517 38.0040557,81.9979991 37.59,82 L37.59,82 Z M35.95,72 C35.73,72.65 33.95,78.08 35.95,80.58 C36.3296462,81.0488139 36.8533973,81.379234 37.44,81.52 C37.7707241,81.5609053 38.1043626,81.4712175 38.37,81.27 C38.6549037,81.0206389 38.7405285,80.6129019 38.58,80.27 C38.5488667,80.1852668 38.5726549,80.0901136 38.64,80.03 C38.7141733,79.9653959 38.8176113,79.9462407 38.91,79.98 C38.98,79.98 45.91,82.36 47.5,79.47 C47.58,79.02 48.5,73.47 44.04,71.47 L43.97,71.47 C43.82,71.31 40.65,68.53 35.95,72 Z" id="Shape" fill="#603404" stroke-width="1"/>
            <path d="M37.1,78.33 C37.4243963,79.105943 37.9885723,79.757724 38.71,80.19" id="Shape" fill="#FFE9DC" stroke-width="1"/>
            <path d="M38.7,80.41 C38.6605064,80.4190014 38.6194936,80.4190014 38.58,80.41 C37.8039323,79.9487074 37.199926,79.2463745 36.86,78.41 C36.8380111,78.3503977 36.8416542,78.2843548 36.8700653,78.2275326 C36.8984763,78.1707105 36.9491248,78.1281703 37.01,78.11 C37.1367988,78.0674034 37.2752272,78.1279658 37.33,78.25 C37.6327118,78.9770621 38.1577887,79.5896518 38.83,80 C38.8865003,80.0255878 38.9295746,80.0738366 38.9486163,80.1328657 C38.9676579,80.1918948 38.9608976,80.2562193 38.93,80.31 C38.8755402,80.3805509 38.7887387,80.4182906 38.7,80.41 Z" id="Shape" fill="#603404" stroke-width="1"/>
            <path d="M25.2,76 C25.2,76 25.85,68.29 30.36,66.06 C32.2500182,65.3994919 34.2879446,65.2851185 36.24,65.73 C36.24,65.73 37.83,66.06 37.51,67.19 C37.51,67.19 40.57,67.74 39.78,69.19 C39.78,69.19 42.29,69.84 41.78,71.06 C41.7922243,71.3560182 41.6377943,71.6339922 41.38,71.78 C41.38,71.78 43.29,72.62 42.73,73.89 C42.5895374,74.2338338 42.314562,74.5052609 41.9689329,74.6412462 C41.6233038,74.7772314 41.2370957,74.765942 40.9,74.61 C38.5934163,74.262067 36.3359643,75.4867246 35.37,77.61 C35.284614,79.0343208 34.1624603,80.1778082 32.74,80.29 C32.74,80.29 27.79,82.38 25.5,81.02 C25.3003896,79.3541098 25.2002121,77.6778064 25.2,76 L25.2,76 Z" id="Shape" fill="#936258" stroke-width="1"/>
            <path d="M27.52,81.73 C26.7553238,81.7611463 25.9960987,81.5885951 25.32,81.23 C25.2590202,81.1933898 25.2184088,81.1306267 25.21,81.06 C25.037377,79.3791581 24.9672472,77.6893655 25,76 C25,75.65 25.73,68.14 30.29,65.87 C32.2421,65.1758246 34.352675,65.057799 36.37,65.53 C36.8787422,65.6363494 37.3367542,65.9111566 37.67,66.31 C37.8139768,66.5208395 37.8778198,66.7762114 37.85,67.03 C38.39,67.16 39.68,67.53 40.08,68.27 C40.2262457,68.5218211 40.2554564,68.8248823 40.16,69.1 C40.8843936,69.2733641 41.5312353,69.6811556 42,70.26 C42.1295615,70.5320276 42.1295615,70.8479724 42,71.12 C41.995862,71.3467694 41.9147585,71.5653962 41.77,71.74 C42.49,72.15 43.38,72.98 42.93,73.99 C42.7821743,74.3458278 42.5078919,74.6343586 42.16,74.8 C41.7162576,74.9729567 41.2237424,74.9729567 40.78,74.8 C38.6061248,74.4734886 36.4794294,75.6286801 35.57,77.63 C35.450986,79.1331654 34.2708237,80.334402 32.77,80.48 C31.1038293,81.1922237 29.3283562,81.6149554 27.52,81.73 Z M25.7,80.9 C27.89,82.05 32.55,80.11 32.6,80.09 L32.67,80.09 C33.9790862,79.9958147 35.0127124,78.940744 35.08,77.63 C35.0734959,77.6003525 35.0734959,77.5696475 35.08,77.54 C36.1085898,75.3239894 38.4735919,74.0499006 40.89,74.41 C42.07,74.76 42.4,73.94 42.43,73.84 C42.9,72.76 41.23,72.01 41.21,72.01 C41.1319197,71.977262 41.0781389,71.9042738 41.07,71.82 C41.0669938,71.732921 41.1134519,71.6516194 41.19,71.61 C41.3664199,71.5057764 41.4733223,71.3148793 41.47,71.11 C41.4602262,71.0739846 41.4602262,71.0360154 41.47,71 C41.5571289,70.8340759 41.5571289,70.6359241 41.47,70.47 C41.18,69.92 40.09,69.54 39.69,69.47 C39.6204508,69.4516973 39.5621523,69.4043297 39.53,69.34 C39.4962158,69.2776135 39.4962158,69.2023865 39.53,69.14 C39.649684,68.9327013 39.649684,68.6772987 39.53,68.47 C39.2,67.86 37.89,67.47 37.41,67.47 C37.3423989,67.4602876 37.2813337,67.4243669 37.24,67.37 C37.2143315,67.3127453 37.2143315,67.2472547 37.24,67.19 C37.3054255,66.9914901 37.2759245,66.7739201 37.16,66.6 C36.8971805,66.3048098 36.5467313,66.1015492 36.16,66.02 C34.2573868,65.591969 32.2731229,65.702783 30.43,66.34 C26.12,68.48 25.43,76.01 25.43,76.09 L25.43,76.09 C25.4223621,77.7006505 25.512528,79.3102789 25.7,80.91 L25.7,80.9 Z" id="Shape" fill="#603404" stroke-width="1"/>
            <path d="M33,68.46 C32.9332379,68.4606432 32.8687869,68.4355789 32.82,68.39 C32.7726449,68.3482367 32.7455163,68.2881401 32.7455163,68.225 C32.7455163,68.1618599 32.7726449,68.1017633 32.82,68.06 C34.1191437,66.9288544 35.8919683,66.5099591 37.56,66.94 C37.6203256,66.9562287 37.6714548,66.9962979 37.7016329,67.0509957 C37.7318109,67.1056934 37.7384414,67.1703136 37.72,67.23 C37.6689335,67.3559523 37.5294767,67.4213227 37.4,67.38 C35.9082228,66.9951238 34.3225836,67.3690953 33.16,68.38 C33.1173066,68.4240729 33.0608744,68.452289 33,68.46 Z" id="Shape" fill="#603404" stroke-width="1"/>
            <path d="M34.5,70.82 C34.4233233,70.8209612 34.3501327,70.7880255 34.3,70.73 C34.2559584,70.6884366 34.2309967,70.6305572 34.2309967,70.57 C34.2309967,70.5094428 34.2559584,70.4515634 34.3,70.41 C35.9359689,69.3567587 37.8692063,68.8620464 39.81,69 C39.8736712,69.0025976 39.9336954,69.0304104 39.9768403,69.077307 C40.0199851,69.1242035 40.0427081,69.1863334 40.04,69.25 C40.0194642,69.3802503 39.9012975,69.4721577 39.77,69.46 C37.9682656,69.3594895 36.1805626,69.8282805 34.66,70.8 C34.6099488,70.8228082 34.5541255,70.8297862 34.5,70.82 L34.5,70.82 Z" id="Shape" fill="#603404" stroke-width="1"/>
            <path d="M36,72.9 C35.908962,72.8981801 35.8255099,72.8488675 35.78,72.77 C35.7496734,72.7149386 35.7443488,72.6495342 35.76537,72.5902926 C35.7863913,72.5310509 35.8317502,72.4836311 35.89,72.46 C37.5914224,71.6258511 39.5013001,71.3127564 41.38,71.56 C41.4414405,71.5697303 41.4963195,71.6039327 41.5321187,71.6548053 C41.567918,71.705678 41.5815842,71.768882 41.57,71.83 C41.5313591,71.9583689 41.4014506,72.036314 41.27,72.01 C39.5040346,71.7905345 37.7122622,72.0856908 36.11,72.86 L36,72.9 Z" id="Shape" fill="#603404" stroke-width="1"/>
            <path d="M23.59,73.14 C23.59,73.14 25.12,72.65 25.59,72.48 C25.4328503,73.0899121 25.242568,73.6908037 25.02,74.28 C24.86,74.63 23.59,73.14 23.59,73.14 Z" id="Shape" fill="#527884" stroke-width="1"/>
            <path d="M20.7,14.24 C20.7,14.24 20,3 25.24,2.37 C25.24,2.37 34.99,-0.32 44.63,2.87 C44.63,2.87 48.81,3.62 48.2,15.13 C48.2,15.13 36.26,5.06 20.7,14.24 Z" id="Shape" fill="#5F8C93" stroke-width="1"/>
            <path d="M48.41,15.6 L48.06,15.31 C47.94,15.21 36.06,5.45 20.82,14.44 L20.5,14.63 L20.5,14.26 C20.5,13.79 19.83,2.76 25.24,2.15 C25.3,2.15 35.14,-0.52 44.73,2.66 C44.88,2.66 49.06,3.57 48.45,15.14 L48.41,15.6 Z M33.94,10.18 C38.9787363,10.2029788 43.8880556,11.7777321 48,14.69 C48.47,3.92 44.63,3.1 44.6,3.1 C35.1,-0.05 25.4,2.56 25.31,2.59 C20.82,3.1 20.86,11.93 20.92,13.86 C24.8570835,11.5009325 29.3505299,10.2308954 33.94,10.18 L33.94,10.18 Z" id="Shape" fill="#603404" stroke-width="1"/>
            <path d="M48.2,15.31 C48.1675228,15.3206842 48.1324772,15.3206842 48.1,15.31 C47.98,15.21 36.1,5.42 20.78,14.44 C20.7311189,14.470819 20.6688811,14.470819 20.62,14.44 C20.5689312,14.4108375 20.5353286,14.3585669 20.53,14.3 C20.4392035,12.3748033 20.539696,10.4453477 20.83,8.54 C21.47,4.67 22.99,2.49 25.22,2.24 C25.29,2.24 35.11,-0.43 44.68,2.75 C44.84,2.75 48.97,3.65 48.37,15.19 C48.3659111,15.2542925 48.3277742,15.3114977 48.27,15.34 L48.2,15.31 Z M33.95,10.23 C39.0136973,10.2516706 43.9451058,11.8488738 48.06,14.8 C48.56,3.93 44.65,3.06 44.61,3.05 C35.11,-0.1 25.38,2.52 25.29,2.54 C20.68,3.06 20.8,12.22 20.86,13.95 C24.8125762,11.5626871 29.3326627,10.2781399 33.95,10.23 L33.95,10.23 Z" id="Shape" fill="#5F8C93" stroke-width="1"/>
            <path d="M48.2,15.53 C48.1085516,15.5310612 48.0197881,15.4991063 47.95,15.44 C47.83,15.34 36.01,5.67 20.89,14.59 C20.7693336,14.6596668 20.6206664,14.6596668 20.5,14.59 C20.3852906,14.5221746 20.3107007,14.4028308 20.3,14.27 C20.2091041,12.3281811 20.3095886,10.3821301 20.6,8.46 C21.26,4.46 22.84,2.23 25.18,1.97 C25.23,1.97 35.11,-0.71 44.73,2.49 C44.88,2.49 49.19,3.38 48.57,15.15 C48.5636934,15.2948252 48.4795247,15.4249041 48.35,15.49 C48.3032853,15.5135134 48.2522198,15.5271308 48.2,15.53 L48.2,15.53 Z M33.94,10 C38.9041832,10.0363807 43.744373,11.5545985 47.84,14.36 C48.2,4.21 44.59,3.27 44.55,3.26 C35.14,0.14 25.43,2.72 25.33,2.75 C21.15,3.22 21.01,11.16 21.06,13.56 C24.9698533,11.2714585 29.4098327,10.0442592 33.94,10 L33.94,10 Z" id="Shape" fill="#603404" stroke-width="1"/>
            <path d="M52.23,28.56 C53.5126701,28.8566142 54.6265983,29.6471439 55.33,30.76 C55.33,30.76 57.75,32.49 59,31 C59,31 59.3,30.29 58.1,29.79 C58.1,29.79 60.8,29.08 60.37,31.79 C59.6674974,32.9781363 58.3800299,33.6963675 57,33.67 C57,33.67 57.94,36.09 62.44,35.07 C62.44,35.07 64.44,33.71 63.44,32.54 C63.44,32.54 63.27,32.06 62.06,32.25 C62.06,32.25 64.63,29.93 66.06,33.46 C66.06,33.46 66.49,40.35 58.93,38.28 C58.93,38.28 59.37,42.19 64.67,42.18 C64.67,42.18 67.19,43.18 67.58,40.57 C67.58,40.57 67.4,39.37 65.71,40.57 C65.71,40.57 66.15,37.18 68.81,39.04 C69.4744314,40.5184688 69.5124123,42.2028653 68.9152973,43.7097803 C68.3181822,45.2166953 67.1367777,46.4179103 65.64,47.04 C63.950315,47.8087666 62.0226064,47.8664177 60.29,47.2 C60.29,47.2 59,50.41 62.66,51.07 C62.66,51.07 64.9,51.37 65.18,49.81 C65.18,49.81 64.83,48.65 63.62,49.69 C63.62,49.69 64.22,47 66.69,49.03 C66.69,49.03 69.54,54.15 61.57,55.78 C59.0504669,56.0746628 56.4970712,55.7520563 54.13,54.84 C54.13,54.84 54.49,59.05 59.46,59.54 C59.46,59.54 57.46,63.59 47.63,61.25 C47.63,61.25 47.06,62.59 48.98,62.9 C49.8352586,63.1796072 50.7608917,63.1548766 51.6,62.83 C51.6,62.83 50.4,66.16 44.95,65.74 C43.0802922,65.4920335 41.2953612,64.8068392 39.74,63.74 C39.74,63.74 37.12,62.23 36.12,63.93 C35.5245426,64.6430379 35.5502161,65.687091 36.18,66.37 C36.18,66.37 37.54,67.51 38.28,66.21 C38.28,66.21 39.07,64.92 37.59,64.82 C37.2536235,65.1073892 37.1200345,65.5670926 37.25,65.99 C37.25,65.99 35.99,65.76 36.92,63.99 C36.92,63.99 38.85,62.85 39.64,65.3 C39.64,65.3 39.94,68.64 36.64,68.45 C35.0866378,68.3275091 33.7319708,67.3472088 33.13,65.91 C32.9645106,64.8806256 32.9916372,63.8294686 33.21,62.81 C33.21,62.81 32,66.33 27.13,66.51 C27.13,66.51 22.92,67.15 20.42,65.71 C20.42,65.71 23.99,66.63 25.2,63.26 C25.4973316,62.595058 25.4973316,61.834942 25.2,61.17 C25.2,61.17 23.68,63.72 18.3,64.62 C16.9192411,64.580655 15.5721942,64.1844648 14.39,63.47 C14.39,63.47 17.46,63.61 18.77,59.09 C18.77,59.09 15.66,62.25 12.6,60.67 C12.6,60.67 15.53,57.87 15.52,55.58 C15.52,55.58 9.88,58 5.77,52.2 C5.77,52.2 13.55,54.32 13.92,52.13 C13.92,52.13 1.67,54.2 5.7,45.54 C5.7,45.54 5.64,48.54 8.97,46.85 C8.97,46.85 11.5,45.54 11.5,43.35 C10.4477349,44.0922408 9.13613114,44.3681147 7.87401841,44.1126646 C6.61190568,43.8572145 5.51081186,43.0930135 4.83,42 C4.49926892,41.2195832 4.50363779,40.3375717 4.84208375,39.5604696 C5.1805297,38.7833674 5.82333476,38.1794097 6.62,37.89 C6.62,37.89 4.51,40.89 8.1,40.79 C8.1,40.79 11.43,40.48 12.37,36.01 C12.1540859,35.9957581 11.9416247,35.9485445 11.74,35.87 C10.9467252,35.5916425 10.3637386,34.9091356 10.2128047,34.0821006 C10.0618709,33.2550657 10.3661896,32.4106255 11.01,31.87 L11.09,31.8 C11.09,31.8 9.69,33.97 11.67,33.92 C11.67,33.92 13.72,33.27 14.78,29.66 L52.23,28.56 Z" id="Shape" fill="#000000" stroke-width="1"/>
            <path d="M14.92,30.57 C14.92,30.57 13.1,38.68 13.54,43.25 C13.54,43.25 13.47,58.54 30.54,58.71 C31.08,58.71 31.61,58.71 32.14,58.8 C36.14,59.18 53.14,60.01 55.67,47.74 C55.9891933,46.3887858 56.1668178,45.0080069 56.2,43.62 C56.5767601,39.5308731 56.3645965,35.4088365 55.57,31.38 C55.57,31.38 34,19.94 14.92,30.57 Z" id="Shape" fill="#936258" stroke-width="1"/>
            <path d="M34.51,45.77 C31.3153973,46.0465899 28.1732614,46.75643 25.17,47.88 C24.2984811,48.2550412 23.3009168,48.1957065 22.48,47.72 C21.9886793,47.4197117 21.5439644,47.0491159 21.16,46.62 C21.16,46.62 20.27,50.9 28.66,50.15 L32.71,49 C33.9614011,48.5684939 35.3079263,48.4923408 36.6,48.78 C38.91,49.55 42.68,50.78 46.25,50.35 C46.25,50.35 50.31,49.9 49.64,46.52 C49.4617472,47.1966333 49.0004708,47.7635886 48.3742405,48.0757462 C47.7480102,48.3879039 47.0176117,48.4149639 46.37,48.15 C42.7696001,47.0718225 39.092293,46.2695009 35.37,45.75 C35.0835092,45.7238321 34.7949646,45.7305425 34.51,45.77 L34.51,45.77 Z" id="Shape" fill="#000102" stroke-width="1"/>
            <path d="M32.71,43.67 L32.63,43.67 C32.5290993,43.6167216 32.4856785,43.4951434 32.53,43.39 C32.53,43.31 33.35,41.53 34.64,41.44 C35.47,41.39 36.29,42.03 37.08,43.37 C37.1441859,43.4698154 37.117639,43.6025495 37.02,43.67 C36.9754352,43.6985989 36.9209575,43.707303 36.8697001,43.694014 C36.8184426,43.6807251 36.7750562,43.6466488 36.75,43.6 C36.05,42.41 35.35,41.82 34.67,41.87 C33.61,41.94 32.9,43.56 32.89,43.57 C32.8530867,43.6340323 32.7838684,43.6724869 32.71,43.67 L32.71,43.67 Z" id="Shape" fill="#161616" stroke-width="1"/>
            <ellipse id="Oval" fill="#F5F9F8" cx="22.84" cy="36.65" rx="5.5" ry="4.4" stroke-width="1"/>
            <path d="M22.84,41.16 C19.73,41.16 17.2,39.16 17.2,36.65 C17.2,34.14 19.73,32.14 22.84,32.14 C25.95,32.14 28.48,34.14 28.48,36.65 C28.48,39.16 26,41.16 22.84,41.16 Z M22.84,32.35 C19.84,32.35 17.47,34.28 17.47,36.65 C17.47,39.02 19.88,40.95 22.84,40.95 C25.8,40.95 28.21,39.02 28.21,36.65 C28.21,34.28 25.81,32.35 22.84,32.35 L22.84,32.35 Z" id="Shape" fill="#161616" stroke-width="1"/>
            <ellipse id="Oval" fill="#161616" cx="24.26" cy="36.83" rx="2.39" ry="1.91" stroke-width="1"/>
            <ellipse id="Oval" fill="#F5F9F8" cx="46.79" cy="36.65" rx="5.5" ry="4.4" stroke-width="1"/>
            <path d="M46.79,41.16 C43.68,41.16 41.15,39.16 41.15,36.65 C41.15,34.14 43.68,32.14 46.79,32.14 C49.9,32.14 52.43,34.14 52.43,36.65 C52.43,39.16 49.9,41.16 46.79,41.16 Z M46.79,32.35 C43.79,32.35 41.42,34.28 41.42,36.65 C41.42,39.02 43.83,40.95 46.79,40.95 C49.75,40.95 52.16,39.02 52.16,36.65 C52.16,34.28 49.75,32.35 46.79,32.35 L46.79,32.35 Z" id="Shape" fill="#161616" stroke-width="1"/>
            <ellipse id="Oval" fill="#161616" cx="45.37" cy="36.83" rx="2.39" ry="1.91" stroke-width="1"/>
            <path d="M28.88,50.49 C32.7761043,51.4413054 36.8438957,51.4413054 40.74,50.49 C40.74,50.49 41.64,55.64 34.29,55.26 C34.29,55.26 28.74,55.09 28.88,50.49 Z" id="Shape" fill="#830004" stroke-width="1"/>
            <path d="M35.05,55.39 L34.28,55.39 C34.23,55.39 28.63,55.17 28.77,50.51 C28.7599593,50.4842785 28.7599593,50.4557215 28.77,50.43 C28.8017455,50.4154495 28.8382545,50.4154495 28.87,50.43 C32.7475377,51.3669371 36.7924623,51.3669371 40.67,50.43 C40.6988639,50.418324 40.7311361,50.418324 40.76,50.43 C40.7676223,50.4527108 40.7676223,50.4772892 40.76,50.5 C40.9284703,51.6996742 40.5630271,52.9129455 39.76,53.82 C38.86,54.85 37.25,55.39 35.05,55.39 Z M29,50.63 C28.944547,52.3388146 29.9813046,53.893951 31.58,54.5 C32.4419294,54.8733114 33.3624145,55.0932803 34.3,55.15 C36.82,55.28 38.63,54.78 39.68,53.65 C40.4112478,52.829804 40.7728807,51.7449055 40.68,50.65 C36.837472,51.5463553 32.8394358,51.5395094 29,50.63 L29,50.63 Z" id="Shape" fill="#161616" stroke-width="1"/>
            <path d="M30.91,54.17 C33.5757269,53.4015659 36.4042731,53.4015659 39.07,54.17 C39.07,54.17 37.69,55.24 34.53,55.17 C33.2569666,55.1566907 32.0093495,54.812045 30.91,54.17 L30.91,54.17 Z" id="Shape" fill="#D27366" stroke-width="1"/>
            <path d="M29,50.64 L29.05,51.4 C32.8474216,52.5484698 36.904981,52.5100922 40.68,51.29 L40.68,50.62 C40.68,50.62 36.14,52.17 29,50.64 Z" id="Shape" fill="#FFFFFF" stroke-width="1"/>
            <path d="M12.14,23.62 C12.14,23.62 12.66,8 33.91,8.24 C33.91,8.24 56.43,7.13 56.8,24.1 L12.14,23.62 Z" id="Shape" fill="#5F8C93" stroke-width="1"/>
            <path d="M57,24.32 L11.9,23.84 L11.9,23.61 C11.9,23.45 12.66,8.01 33.42,8.01 L33.9,8.01 C34,8.01 45.9,7.49 52.58,13.67 C55.4449825,16.3728743 57.0478384,20.1515529 57,24.09 L57,24.32 Z M12.35,23.39 L56.54,23.86 C56.5329784,20.1280544 54.9926869,16.5629664 52.28,14 C45.79,8 34,8.46 33.92,8.46 L33.45,8.46 C25.07,8.46 18.78,11.04 15.25,15.95 C13.6709549,18.1427451 12.6826097,20.7048665 12.38,23.39 L12.35,23.39 Z" id="Shape" fill="#603404" stroke-width="1"/>
            <path d="M10.86,32 C10.86,32 9.28,26.94 11.1,24 C11.1,24 18.9,19.82 35.1,19.73 C42.7790695,20.002717 50.3563744,21.5749824 57.51,24.38 C58.211755,24.6350043 58.7130321,25.2596727 58.81,26 C58.95,27.71 59.1,30.83 58.45,32.22 C58.45,32.25 34.67,23.32 10.86,32 Z" id="Shape" fill="#C9D4D7" stroke-width="1"/>
            <path d="M58.45,32.47 L58.37,32.47 C58.13,32.38 34.37,23.67 10.93,32.21 C10.8724915,32.2344532 10.8075085,32.2344532 10.75,32.21 C10.6922256,32.1821113 10.6487245,32.1313601 10.63,32.07 C10.56,31.86 9.05,26.87 10.9,23.9 C10.9225329,23.8573794 10.9573794,23.8225329 11,23.8 C11.08,23.8 19,19.59 35.15,19.5 C42.8553009,19.7861543 50.4577752,21.3647917 57.64,24.17 C58.4016206,24.4754236 58.9272139,25.1826557 59,26 C59.14,27.75 59.29,30.9 58.62,32.33 C58.5908101,32.4025263 58.5267777,32.4552589 58.45,32.47 Z M33.3,28 C41.7916042,28.0131803 50.2282012,29.3630358 58.3,32 C58.83,30.58 58.69,27.72 58.56,26.09 C58.4942596,25.4324202 58.0596386,24.8697412 57.44,24.64 C50.3185171,21.8569242 42.7805371,20.2884835 35.14,20 C19.85,20 12,23.82 11.26,24.18 C9.78,26.64 10.74,30.7 11.01,31.7 C18.1720774,29.1945558 25.7125537,27.9428841 33.3,28 L33.3,28 Z" id="Shape" fill="#603404" stroke-width="1"/>
            <path d="M31.43,33.61 C26.0581277,32.1325227 21.6631425,28.2684753 19.51,23.13 C18.7192746,24.1493481 18.5253826,25.5103936 19,26.71 C19,26.71 18.41,27.71 15.4,26.34 C15.4,26.34 17.03,31.74 25.54,33.61 C25.49,33.61 29.8,34.2 31.43,33.61 Z" id="Shape" fill="#161616" stroke-width="1"/>
            <path d="M38.2,33.61 C43.5718723,32.1325227 47.9668575,28.2684753 50.12,23.13 C50.924254,24.1417846 51.1334494,25.5034565 50.67,26.71 C50.67,26.71 51.26,27.71 54.27,26.34 C54.27,26.34 52.64,31.74 44.13,33.61 C44.14,33.61 39.84,34.2 38.2,33.61 Z" id="Shape" fill="#161616" stroke-width="1"/>
        </g>
    </g>
</svg>