<?xml version="1.0" encoding="UTF-8"?><svg xmlns="http://www.w3.org/2000/svg" xmlns:xlink="http://www.w3.org/1999/xlink" width="228.22000122070312" height="213.75999450683594" viewBox="-0.6000000014901161 0.19000005722045898 228.22000122070312 213.75999450683594" version="1.1">
    <!-- Generator: Sketch 46.2 (44496) - http://www.bohemiancoding.com/sketch -->
    <title>fireworks 4-e</title>
    <desc>Created with Sketch.</desc>
    <defs/>
    <g id="Page-1" stroke="none" fill-rule="evenodd">
        <g id="fireworks-4-e" fill-rule="nonzero">
            <path d="M 120.34 98.72 C 120.34 98.72 127.09 64.35 134 50 C 140.91 35.65 143.63 29.88 147.25 28 C 150.87 26.12 151.88 30.75 148.88 35.5 C 143.3127 44.0292 138.2507 52.8778 133.72 62 C 128.34 73.22 120.34 98.72 120.34 98.72 Z " id="Shape" fill="#D32A2E" stroke-width="1"/>
            <path d="M 137.47 70.47 L 167.6 27.54 C 167.6 27.54 169.1 25.22 171.23 26.84 C 173.36 28.46 171.23 31.47 171.23 31.47 L 137.47 70.47 Z " id="Shape" fill="#359D6D" stroke-width="1"/>
            <path d="M 123 94.35 C 123 94.35 132 78.35 164 62.1 C 196 45.85 214.5 41.23 214.5 41.23 C 214.5 41.23 218.5 40.73 219 42.98 C 219.5 45.23 214.75 46.86 210.63 47.86 C 206.51 48.86 175.31 60.35 163.26 66.74 C 133.37 82.53 123 94.35 123 94.35 Z " id="Shape" fill="#359D6D" stroke-width="1"/>
            <path d="M 119.59 93.22 L 121.22 34.72 C 121.22 34.72 121.09 31 124 31 C 126.91 31 126.75 34.75 126.75 34.75 L 119.59 93.22 Z " id="Shape" fill="#359D6D" stroke-width="1"/>
            <path d="M 118 95.6 C 118 95.6 115.5 73.73 112.13 67.1 C 108.76 60.47 105.26 56.23 103.76 57.48 C 102.26 58.73 106.89 66.86 109.39 72.61 C 111.89 78.36 118 95.6 118 95.6 Z " id="Shape" fill="#D32A2E" stroke-width="1"/>
            <path d="M 115.59 96.6 C 115.59 96.6 106.22 74.48 98.09 66.1 C 89.96 57.72 85.09 57.1 83.72 58.73 C 82.35 60.36 84.47 64.23 90.22 68.98 C 95.97 73.73 115.59 96.6 115.59 96.6 Z " id="Shape" fill="#359D6D" stroke-width="1"/>
            <path d="M 113.59 100.47 C 113.59 100.47 87.47 76.1 71.72 68.35 C 55.97 60.6 40.47 55 38 59.6 C 35.53 64.2 56 70.35 61.5 71.85 C 67 73.35 88.57 84.41 99.5 90.97 C 110.43 97.53 113.59 100.47 113.59 100.47 Z " id="Shape" fill="#D32A2E" stroke-width="1"/>
            <path d="M 111.59 101.72 C 111.59 101.72 89.72 87.35 64.22 83.47 C 45.7558 80.7768 27.129 79.3501 8.47 79.2 C 5.1 79.35 0.47 83.72 7.1 86.1 C 13.73 88.48 53.73 87.6 64.48 88.48 C 75.23 89.36 111.59 101.72 111.59 101.72 Z " id="Shape" fill="#359D6D" stroke-width="1"/>
            <path d="M 107 101.72 C 107 101.72 84.44 97.53 73.88 100.47 C 57.38 105.06 54.38 111.47 54.38 111.47 C 54.38 111.47 52.57 115.85 56.51 114.85 C 59.18 114.17 64.14 107.91 74.26 104.6 C 85.69 100.84 107 101.72 107 101.72 Z " id="Shape" fill="#D32A2E" stroke-width="1"/>
            <path d="M 112.43 104.8 C 112.43 104.8 103.93 105.3 94.01 113.47 C 84.09 121.64 80.68 127.3 83.84 129.05 C 87 130.8 95.51 119.22 97.84 116.63 C 100.17 114.04 112.43 104.8 112.43 104.8 Z " id="Shape" fill="#D32A2E" stroke-width="1"/>
            <path d="M 112.43 108.55 C 112.43 108.55 97.84 122 84.84 152.47 C 71.84 182.94 67.84 200.22 69.59 202.47 C 71.34 204.72 87.34 159.47 89.84 153.72 C 92.34 147.97 112.43 108.55 112.43 108.55 Z " id="Shape" fill="#359D6D" stroke-width="1"/>
            <path d="M 109.59 134.85 C 109.59 134.85 101.09 155.73 100.97 170.6 C 100.85 185.47 104.72 183.1 104.72 183.1 C 104.0347 178.0072 103.8271 172.8615 104.1 167.73 C 104.59 159.85 109.59 134.85 109.59 134.85 Z " id="Shape" fill="#D32A2E" stroke-width="1"/>
            <path d="M 118 111 C 118 111 116.63 156.13 120.38 157.88 C 124.13 159.63 124.26 156.13 124.26 156.13 L 118 111 Z " id="Shape" fill="#359D6D" stroke-width="1"/>
            <path d="M 122.47 111 C 127.3931 117.936 130.8408 125.8083 132.6 134.13 C 135.48 147.88 135.73 151.38 137.85 152.88 C 139.97 154.38 141.48 151.88 140.23 146.63 C 138.98 141.38 136.35 126.13 129.73 119.01 C 123.11 111.89 122.47 111 122.47 111 Z " id="Shape" fill="#D32A2E" stroke-width="1"/>
            <path d="M 138 125.85 C 138 125.85 153.13 140.68 158.5 158.34 C 163.87 176 166.38 174.6 167.5 174.22 C 168.62 173.84 166.38 162.85 161.88 154.85 C 157.38 146.85 158.38 146.35 152.38 139.23 C 148.0379 134.3084 143.2213 129.8267 138 125.85 L 138 125.85 Z " id="Shape" fill="#359D6D" stroke-width="1"/>
            <path d="M 127.34 110 C 127.34 110 133.72 110.63 145.22 121.13 C 156.72 131.63 161.35 137.51 163.85 138.38 C 166.35 139.25 167.35 136.75 165.6 134.69 C 163.85 132.63 153 123.1 146.91 119 C 140.82 114.9 127.34 110 127.34 110 Z " id="Shape" fill="#D32A2E" stroke-width="1"/>
            <path d="M 124.22 105.72 C 124.22 105.72 132.47 103.01 146.1 104.8 C 159.73 106.59 167.23 111.59 167.23 111.59 C 167.23 111.59 169.98 111.59 169.23 109.22 C 168.48 106.85 162.48 104.35 154.23 103.22 C 145.98 102.09 135.36 101.1 128.73 103.22 C 122.1 105.34 124.22 105.72 124.22 105.72 Z " id="Shape" fill="#359D6D" stroke-width="1"/>
            <path d="M 125.09 97.35 C 125.09 97.35 128.45 92.23 133.47 91.6 C 138.97 90.91 143.01 93.78 147.72 98.73 C 152.85 104.11 155.98 92.73 147.72 88.98 C 141.72 86.23 133.51 87.3 129.72 90.9 C 127.8876 92.827 126.3296 94.9974 125.09 97.35 L 125.09 97.35 Z " id="Shape" fill="#D32A2E" stroke-width="1"/>
            <path d="M 70.59 127.72 C 70.59 127.72 55.84 146.91 52.65 156.22 C 49.31 166 53.07 168 55.34 169 C 59.03 170.56 63.43 166.82 63.4 161.06 C 63.34 149.53 70.59 127.72 70.59 127.72 Z " id="Shape" fill="#A3D16E" stroke-width="1"/>
            <path d="M 82.7 109.47 C 82.7 109.47 75 112 73.59 115 C 72.18 118 74.15 119.54 76.22 119 C 78.29 118.46 82.7 109.47 82.7 109.47 Z " id="Shape" fill="#359D6D" stroke-width="1"/>
            <path d="M 95.41 55.06 C 95.41 55.06 78.41 40.3 69.54 36.72 C 60.67 33.14 58.45 40.54 60.23 43 C 64.41 48.74 71.59 47.4 82.31 50.81 C 93.03 54.22 95.41 55.06 95.41 55.06 Z " id="Shape" fill="#A3D16E" stroke-width="1"/>
            <path d="M 113.59 58 C 113.59 58 115.59 42.47 114.26 39.3 C 112.93 36.13 109.84 35.63 108.93 37.72 C 106 44.35 113.59 58 113.59 58 Z " id="Shape" fill="#A3D16E" stroke-width="1"/>
            <polygon id="Shape" fill="#D32A2E" points="173.7 189.71 173.47 194.48 177.28 197.37 172.67 198.63 171.1 203.14 168.48 199.15 163.7 199.05 166.69 195.32 165.31 190.75 169.78 192.43" stroke-width="1" transform="matrix(1,0,0,1,-1,0)"/>
            <circle id="Oval" fill="#E16C81" cx="187.65" cy="108.47" r="1.94" stroke-width="1" transform="matrix(1,0,0,1,-1,0)"/>
            <path d="M 177 107.28 C 178.6392 107.0882 180.2912 107.028 181.94 107.1 C 183.57 107.15 185.19 107.27 186.81 107.47 C 188.43 107.67 190.03 107.94 191.62 108.28 C 193.2377 108.6077 194.8262 109.0658 196.37 109.65 C 194.7309 109.8433 193.0788 109.9035 191.43 109.83 C 189.8 109.78 188.18 109.66 186.56 109.45 C 184.94 109.24 183.34 108.98 181.75 108.64 C 180.1329 108.3141 178.5445 107.8594 177 107.28 L 177 107.28 Z " id="Shape" fill="#E16C81" stroke-width="1"/>
            <path d="M 178.86 102.6 C 180.3726 103.2526 181.8305 104.025 183.22 104.91 C 184.6067 105.77 185.94 106.69 187.22 107.67 C 188.52 108.67 189.77 109.67 190.98 110.78 C 192.2176 111.8721 193.3646 113.0627 194.41 114.34 C 192.8968 113.6887 191.4387 112.9162 190.05 112.03 C 188.66 111.17 187.32 110.25 186.05 109.27 C 184.78 108.29 183.5 107.27 182.29 106.16 C 181.0535 105.0668 179.9065 103.8763 178.86 102.6 Z " id="Shape" fill="#E16C81" stroke-width="1"/>
            <path d="M 182.84 99.49 C 183.8238 100.8145 184.6999 102.2156 185.46 103.68 C 186.2267 105.12 186.93 106.5867 187.57 108.08 C 188.21 109.57 188.77 111.08 189.27 112.65 C 189.7951 114.212 190.1931 115.8139 190.46 117.44 C 189.4755 116.1195 188.5993 114.7216 187.84 113.26 C 187.07 111.82 186.36 110.35 185.73 108.86 C 185.1 107.37 184.53 105.86 184.03 104.28 C 183.5063 102.7176 183.1084 101.1158 182.84 99.49 L 182.84 99.49 Z " id="Shape" fill="#E16C81" stroke-width="1"/>
            <path d="M 187.84 98.78 C 188.0318 100.4192 188.092 102.0712 188.02 103.72 C 187.97 105.35 187.85 106.97 187.65 108.59 C 187.45 110.21 187.18 111.81 186.84 113.4 C 186.5123 115.0177 186.0542 116.6062 185.47 118.15 C 185.2767 116.5109 185.2165 114.8588 185.29 113.21 C 185.34 111.58 185.46 109.96 185.67 108.34 C 185.88 106.72 186.14 105.12 186.48 103.53 C 186.8059 101.9129 187.2606 100.3245 187.84 98.78 L 187.84 98.78 Z " id="Shape" fill="#E16C81" stroke-width="1"/>
            <path d="M 192.52 100.68 C 191.8674 102.1926 191.095 103.6505 190.21 105.04 C 189.35 106.4267 188.43 107.76 187.45 109.04 C 186.45 110.34 185.45 111.59 184.34 112.8 C 183.2479 114.0376 182.0573 115.1846 180.78 116.23 C 181.4313 114.7168 182.2038 113.2587 183.09 111.87 C 183.95 110.48 184.87 109.14 185.85 107.87 C 186.83 106.6 187.85 105.32 188.96 104.11 C 190.0532 102.8735 191.2437 101.7265 192.52 100.68 L 192.52 100.68 Z " id="Shape" fill="#E16C81" stroke-width="1"/>
            <path d="M 195.63 104.65 C 194.3055 105.6338 192.9044 106.5099 191.44 107.27 C 190 108.0367 188.5333 108.74 187.04 109.38 C 185.55 110.02 184.04 110.58 182.47 111.08 C 180.908 111.6051 179.3061 112.0031 177.68 112.27 C 179.0005 111.2855 180.3984 110.4093 181.86 109.65 C 183.3 108.88 184.77 108.17 186.26 107.54 C 187.75 106.91 189.26 106.34 190.84 105.84 C 192.4024 105.3163 194.0042 104.9184 195.63 104.65 Z " id="Shape" fill="#E16C81" stroke-width="1"/>
            <circle id="Oval" fill="#D32A2E" cx="7.14" cy="58.31" r="1.25" stroke-width="1" transform="matrix(1,0,0,1,-1,0)"/>
            <path d="M -0.1 57.54 C 0.9554 57.4186 2.0188 57.3819 3.08 57.43 C 4.13 57.43 5.18 57.54 6.22 57.67 C 7.26 57.8 8.3 57.97 9.32 58.19 C 10.3621 58.4003 11.3854 58.6946 12.38 59.07 C 11.325 59.1956 10.2615 59.2358 9.2 59.19 C 8.15 59.19 7.1 59.08 6.06 58.95 C 5.02 58.82 3.99 58.65 2.96 58.42 C 1.9182 58.2087 0.8949 57.9145 -0.1 57.54 Z " id="Shape" fill="#D32A2E" stroke-width="1"/>
            <path d="M 1.12 54.53 C 2.0942 54.9446 3.0339 55.4361 3.93 56 C 4.8233 56.5533 5.69 57.1467 6.53 57.78 C 7.37 58.41 8.18 59.08 8.96 59.78 C 9.7572 60.4825 10.4963 61.2483 11.17 62.07 C 10.1947 61.6498 9.255 61.1516 8.36 60.58 C 7.47 60.02 6.6 59.43 5.76 58.8 C 4.92 58.17 4.12 57.5 3.33 56.8 C 2.5343 56.1032 1.7953 55.3441 1.12 54.53 L 1.12 54.53 Z " id="Shape" fill="#D32A2E" stroke-width="1"/>
            <path d="M 3.68 52.52 C 4.3145 53.3735 4.8796 54.2764 5.37 55.22 C 5.8633 56.1467 6.3167 57.0933 6.73 58.06 C 7.14 59.06 7.51 60.01 7.83 61.06 C 8.1696 62.0675 8.4271 63.1009 8.6 64.15 C 7.9647 63.2971 7.3996 62.3941 6.91 61.45 C 6.41 60.52 5.91 59.58 5.55 58.61 C 5.19 57.64 4.78 56.66 4.45 55.61 C 4.1113 54.6022 3.8538 53.5689 3.68 52.52 Z " id="Shape" fill="#D32A2E" stroke-width="1"/>
            <path d="M 6.91 52.07 C 7.0247 53.1259 7.0548 54.1893 7 55.25 C 7 56.3 6.89 57.35 6.76 58.39 C 6.63 59.43 6.46 60.47 6.24 61.49 C 6.0297 62.5321 5.7354 63.5554 5.36 64.55 C 5.2344 63.495 5.1942 62.4315 5.24 61.37 C 5.24 60.32 5.35 59.27 5.48 58.23 C 5.61 57.19 5.78 56.15 6.01 55.13 C 6.2278 54.0876 6.5287 53.0643 6.91 52.07 L 6.91 52.07 Z " id="Shape" fill="#D32A2E" stroke-width="1"/>
            <path d="M 9.93 53.29 C 9.509 54.2649 9.0107 55.2045 8.44 56.1 C 7.8867 56.9933 7.2933 57.86 6.66 58.7 C 6.03 59.54 5.36 60.35 4.66 61.13 C 3.9575 61.9272 3.1917 62.6663 2.37 63.34 C 2.7902 62.3647 3.2884 61.425 3.86 60.53 C 4.42 59.64 5.01 58.77 5.64 57.93 C 6.27 57.09 6.94 56.29 7.64 55.5 C 8.3432 54.7035 9.109 53.9644 9.93 53.29 L 9.93 53.29 Z " id="Shape" fill="#D32A2E" stroke-width="1"/>
            <path d="M 11.93 55.85 C 11.0765 56.4845 10.1736 57.0496 9.23 57.54 C 8.3033 58.0333 7.3567 58.4867 6.39 58.9 C 5.39 59.31 4.44 59.68 3.39 60 C 2.3825 60.3396 1.3491 60.5971 0.3 60.77 C 1.1529 60.1347 2.0559 59.5696 3 59.08 C 3.93 58.58 4.87 58.08 5.84 57.72 C 6.81 57.36 7.79 56.95 8.84 56.62 C 9.8478 56.2813 10.8811 56.0238 11.93 55.85 L 11.93 55.85 Z " id="Shape" fill="#D32A2E" stroke-width="1"/>
            <circle id="Oval" fill="#C03043" cx="139.21" cy="10.37" r="1.94" stroke-width="1" transform="matrix(1,0,0,1,-1,0)"/>
            <path d="M 128.53 9.19 C 131.7873 9.2321 135.0393 9.4625 138.27 9.88 C 141.5067 10.2519 144.7188 10.8128 147.89 11.56 C 144.6327 11.5201 141.3804 11.2898 138.15 10.87 C 134.9136 10.4959 131.7016 9.935 128.53 9.19 L 128.53 9.19 Z " id="Shape" fill="#C03043" stroke-width="1"/>
            <path d="M 130.42 4.5 C 133.2206 6.1756 135.9218 8.012 138.51 10 C 141.126 11.9324 143.627 14.0159 146 16.24 C 143.199 14.576 140.4977 12.7495 137.91 10.77 C 135.2945 8.8262 132.7937 6.7327 130.42 4.5 L 130.42 4.5 Z " id="Shape" fill="#C03043" stroke-width="1"/>
            <path d="M 134.4 1.4 C 135.9913 4.2419 137.417 7.1735 138.67 10.18 C 139.9577 13.1692 141.0696 16.2311 142 19.35 C 140.4067 16.5091 138.9809 13.5774 137.73 10.57 C 136.4443 7.58 135.3325 4.5182 134.4 1.4 L 134.4 1.4 Z " id="Shape" fill="#C03043" stroke-width="1"/>
            <path d="M 139.4 0.69 C 139.3579 3.9473 139.1275 7.1993 138.71 10.43 C 138.3286 13.6706 137.7576 16.8862 137 20.06 C 137.0399 16.8027 137.2703 13.5504 137.69 10.32 C 138.0736 7.0797 138.6446 3.8643 139.4 0.69 L 139.4 0.69 Z " id="Shape" fill="#C03043" stroke-width="1"/>
            <path d="M 144.08 2.58 C 142.4141 5.3798 140.5877 8.081 138.61 10.67 C 136.6679 13.2868 134.5743 15.7878 132.34 18.16 C 134.004 15.359 135.8305 12.6577 137.81 10.07 C 139.7538 7.4545 141.8473 4.9537 144.08 2.58 L 144.08 2.58 Z " id="Shape" fill="#C03043" stroke-width="1"/>
            <path d="M 147.19 6.56 C 144.3481 8.1513 141.4165 9.5771 138.41 10.83 C 135.4213 12.1245 132.3594 13.2431 129.24 14.18 C 132.0744 12.5874 134.9994 11.1616 138 9.91 C 140.9961 8.6168 144.0646 7.4983 147.19 6.56 L 147.19 6.56 Z " id="Shape" fill="#C03043" stroke-width="1"/>
            <polygon id="Shape" fill="#359D6D" points="193.09 70.99 195.21 66.65 197.53 70.81 201.78 69.81 200.1 73.93 203.37 75.93 199.6 77.11 200.59 82 196.35 80.21 192.47 82.52 191.97 78.18 188.2 78.18 190.7 74.35 188.47 70.31" stroke-width="1" transform="matrix(1,0,0,1,-1,0)"/>
            <polygon id="Shape" fill="#359D6D" points="50.6 33.04 51.86 30.45 53.24 32.93 55.77 32.33 54.77 34.79 56.71 35.98 54.47 36.68 55.06 39.59 52.54 38.52 50.23 39.9 49.93 37.32 47.68 37.32 49.17 35.04 47.84 32.63" stroke-width="1" transform="matrix(1,0,0,1,-1,0)"/>
            <polygon id="Shape" fill="#359D6D" points="37.16 173.85 38.42 171.27 39.8 173.75 42.33 173.15 41.33 175.6 43.27 176.8 41.03 177.5 41.62 180.41 39.09 179.34 36.79 180.72 36.49 178.13 34.24 178.13 35.73 175.85 34.41 173.45" stroke-width="1" transform="matrix(1,0,0,1,-1,0)"/>
            <polygon id="Shape" fill="#359D6D" points="87.41 206.59 88.67 204 90.06 206.48 92.59 205.88 91.58 208.34 93.53 209.53 91.28 210.23 91.88 213.14 89.35 212.07 87.04 213.45 86.74 210.87 84.5 210.87 85.99 208.59 84.66 206.18" stroke-width="1" transform="matrix(1,0,0,1,-1,0)"/>
            <circle id="Oval" fill="#D9C744" cx="91.82" cy="6.4" r="4.53" stroke-width="1" transform="matrix(1,0,0,1,-1,0)"/>
            <circle id="Oval" fill="#FFD622" cx="224.03" cy="110.84" r="4.09" stroke-width="1" transform="matrix(1,0,0,1,-1,0)"/>
            <circle id="Oval" fill="#FFD622" cx="175.74" cy="5.01" r="2.55" stroke-width="1" transform="matrix(1,0,0,1,-1,0)"/>
            <circle id="Oval" fill="#FFD622" cx="201.85" cy="34.73" r="2.66" stroke-width="1" transform="matrix(1,0,0,1,-1,0)"/>
            <circle id="Oval" fill="#F3CA15" cx="116.59" cy="21.83" r="3.56" stroke-width="1" transform="matrix(1,0,0,1,-1,0)"/>
            <circle id="Oval" fill="#D9C744" cx="178.17" cy="80.92" r="2.43" stroke-width="1" transform="matrix(1,0,0,1,-1,0)"/>
            <circle id="Oval" fill="#D9C744" cx="17.59" cy="145.22" r="2.75" stroke-width="1" transform="matrix(1,0,0,1,-1,0)"/>
            <circle id="Oval" fill="#D9C744" cx="28.02" cy="101.43" r="3.99" stroke-width="1" transform="matrix(1,0,0,1,-1,0)"/>
            <circle id="Oval" fill="#D9C744" cx="132.57" cy="180.72" r="3.8" stroke-width="1" transform="matrix(1,0,0,1,-1,0)"/>
            <circle id="Oval" fill="#D9C744" cx="28.49" cy="37.39" r="4.62" stroke-width="1" transform="matrix(1,0,0,1,-1,0)"/>
        </g>
    </g>
</svg>