<?xml version="1.0" encoding="UTF-8"?><svg xmlns="http://www.w3.org/2000/svg" xmlns:xlink="http://www.w3.org/1999/xlink" width="257.45001220703125" height="183.05999755859375" viewBox="-0.3199999928474426 -0.6100000143051147 257.45001220703125 183.05999755859375" version="1.1">
    <!-- Generator: Sketch 46.2 (44496) - http://www.bohemiancoding.com/sketch -->
    <title>fireworks 4-c</title>
    <desc>Created with Sketch.</desc>
    <defs/>
    <g id="Page-1" stroke="none" fill-rule="evenodd">
        <g id="fireworks-4-c" fill-rule="nonzero">
            <path d="M159.32,50.16 C160.543021,44.5984618 162.563938,39.2430323 165.32,34.26 C170.828182,24.2017513 178.591005,15.5558555 188,9 C192.647178,5.71373922 197.747096,3.11998942 203.14,1.3 C198.75,4.88 194.48,8.37 190.44,12.08 C186.410972,15.7509293 182.569437,19.6225026 178.93,23.68 C175.296075,27.7429 171.871631,31.9884094 168.67,36.4 C165.39,40.77 162.39,45.4 159.32,50.16 Z" id="Shape" fill="#526BB3" stroke-width="1"/>
            <path d="M150.92,81.38 C152.047337,75.5775242 154.018243,69.9713908 156.77,64.74 C162.267306,54.1605383 170.189773,45.031882 179.89,38.1 C184.684728,34.6469648 189.96117,31.9177704 195.55,30 C190.96,33.68 186.55,37.31 182.36,41.19 C178.195499,45.0256544 174.246145,49.0885153 170.53,53.36 C166.81961,57.6364823 163.350879,62.1167878 160.14,66.78 C156.89,71.42 153.92,76.32 150.92,81.38 Z" id="Shape" fill="#4AC5F7" stroke-width="1"/>
            <path d="M169.11,61.77 C173.225528,57.4030587 177.87558,53.5728128 182.95,50.37 C193.11741,43.8806646 204.480425,39.4911814 216.37,37.46 C222.280092,36.4209519 228.298068,36.1353417 234.28,36.61 C228.49,38.15 222.83,39.61 217.28,41.29 C211.73,42.97 206.23,44.83 200.83,46.91 C195.43,48.99 190.12,51.29 184.83,53.8 C179.54,56.31 174.42,59 169.11,61.77 Z" id="Shape" fill="#00B8C2" stroke-width="1"/>
            <path d="M165,28.45 C166.129534,25.8204406 167.509212,23.3055424 169.12,20.94 C172.316465,16.1731378 176.205904,11.9095847 180.66,8.29 C182.866817,6.46831726 185.244538,4.86419275 187.76,3.5 L181.7,9.5 C179.7,11.5 177.77,13.5 175.89,15.58 C174.01,17.66 172.17,19.77 170.36,21.92 L165,28.45 Z" id="Shape" fill="#36B3E2" stroke-width="1"/>
            <path d="M152.42,38.28 C152.415037,36.4985029 152.68833,34.7271594 153.23,33.03 C154.274506,29.5988545 156.126237,26.4680582 158.63,23.9 C159.858644,22.608767 161.282706,21.5187856 162.85,20.67 L159.85,24.9 C158.85,26.3 157.98,27.72 157.12,29.16 C156.26,30.6 155.45,32.08 154.69,33.6 C153.93,35.12 153.2,36.67 152.42,38.28 Z" id="Shape" fill="#094E92" stroke-width="1"/>
            <path d="M85.38,12.57 C92.6849229,14.7513592 99.6317096,17.9889257 106,22.18 C118.908944,30.5897575 129.554233,42.0420272 137,55.53 C140.693452,62.1972614 143.388816,69.3702991 145,76.82 C141.591994,70.185572 137.785015,63.7637985 133.6,57.59 C129.448388,51.5150373 124.85248,45.7559471 119.85,40.36 C114.843579,34.9653603 109.441942,29.9514652 103.69,25.36 C97.8529904,20.727547 91.738253,16.4562476 85.38,12.57 L85.38,12.57 Z" id="Shape" fill="#33ABDB" stroke-width="1"/>
            <path d="M150.2,89 C156.038616,93.3756299 161.306271,98.4652324 165.88,104.15 C168.19342,106.994537 170.327546,109.980309 172.27,113.09 C173.27,114.63 174.14,116.25 175.07,117.84 C176,119.43 176.78,121.1 177.54,122.78 C180.660398,129.4745 182.811978,136.579093 183.93,143.88 C184.906971,151.077514 185.354838,158.336979 185.27,165.6 C183.21,158.6 181.86,151.52 180.07,144.67 C178.315651,137.886345 175.94928,131.2759 173,124.92 C171.55,121.73 169.94,118.61 168.21,115.54 C166.48,112.47 164.64,109.46 162.72,106.49 C158.87,100.53 154.57,94.84 150.2,89 Z" id="Shape" fill="#03AAA7" stroke-width="1"/>
            <path d="M159,93 C164.402236,95.3856428 169.349081,98.6914348 173.62,102.77 C177.900049,106.828772 181.716716,111.349745 185,116.25 C188.313416,121.084074 191.207296,126.192693 193.65,131.52 C196.187913,136.862799 197.729822,142.623778 198.2,148.52 C195.891178,143.288998 193.217939,138.226551 190.2,133.37 C187.2,128.55 184.08,123.77 180.9,119.09 C177.72,114.41 174.38,109.85 170.76,105.52 C167.107248,101.103461 163.179444,96.9218187 159,93 L159,93 Z" id="Shape" fill="#49C4F8" stroke-width="1"/>
            <path d="M149.18,93.26 C149.8,99.13 150.18,104.89 150.82,110.6 C151.46,116.31 152.23,121.93 153.36,127.47 C155.604902,138.683528 159.454487,149.514907 164.79,159.63 C160.443502,155.552922 156.872391,150.721418 154.25,145.37 C151.579016,140.018388 149.631932,134.335192 148.46,128.47 C147.289337,122.642137 146.766163,116.702771 146.9,110.76 C147.001824,104.859659 147.766627,98.989465 149.18,93.26 L149.18,93.26 Z" id="Shape" fill="#5068A4" stroke-width="1"/>
            <path d="M143.54,100.7 C142.43,107.49 141.54,114.15 141.1,120.83 C140.20439,134.142002 141.068509,147.513986 143.67,160.6 C144.94,167.17 146.67,173.66 148.67,180.25 C144.850889,174.479071 141.883703,168.187693 139.86,161.57 C135.723147,148.237483 134.814846,134.112557 137.21,120.36 C138.368259,113.537502 140.500005,106.916628 143.54,100.7 Z" id="Shape" fill="#91CBDE" stroke-width="1"/>
            <path d="M113.91,165 C112.984706,161.659477 112.603159,158.19179 112.78,154.73 C112.83,153 113,151.29 113.17,149.57 C113.34,147.85 113.6,146.15 113.89,144.44 C116.348396,130.752864 122.112011,117.873125 130.68,106.92 C134.908086,101.484654 139.895795,96.6855414 145.49,92.67 C141.34,98.11 137.4,103.52 133.89,109.18 C130.374301,114.796429 127.253439,120.650551 124.55,126.7 C121.824954,132.738553 119.535768,138.964471 117.7,145.33 L117.01,147.73 C116.77,148.53 116.6,149.34 116.38,150.15 C115.94,151.76 115.53,153.39 115.2,155.02 C114.437875,158.295254 114.005718,161.638607 113.91,165 Z" id="Shape" fill="#34A8E1" stroke-width="1"/>
            <path d="M83.94,125.64 C86.2190791,121.021665 89.1638079,116.762926 92.68,113 C99.7171034,105.382617 108.42054,99.4959042 118.11,95.8 C122.915335,93.9343382 127.969874,92.7886425 133.11,92.4 C128.53,94.73 124.11,96.95 119.77,99.4 C115.43,101.85 111.27,104.4 107.21,107.1 C103.15,109.8 99.21,112.77 95.38,115.88 C91.55,118.99 87.8,122.26 83.94,125.64 Z" id="Shape" fill="#2A234E" stroke-width="1"/>
            <path d="M45,116.51 C49.6684458,110.388815 55.5731279,105.318898 62.33,101.63 C65.6773113,99.7586331 69.1334727,98.0889899 72.68,96.63 C76.19,95.15 79.78,93.85 83.42,92.69 C85.24,92.11 87.08,91.6 88.92,91.08 C90.76,90.56 92.62,90.13 94.5,89.76 C98.240108,88.9582631 102.022926,88.3706409 105.83,88 C113.421763,87.1746817 121.09247,87.437331 128.61,88.78 C121.15711,89.3957245 113.745185,90.4340617 106.41,91.89 C102.78,92.61 99.17,93.46 95.6,94.4 C92.03,95.34 88.47,96.4 84.94,97.49 C81.41,98.58 77.94,99.79 74.42,101.07 C70.9,102.35 67.48,103.66 64.1,105.13 C57.2811426,108.107051 50.8640555,111.930426 45,116.51 L45,116.51 Z" id="Shape" fill="#67B6A6" stroke-width="1"/>
            <path d="M0.18,98 C4.6384177,94.3867395 9.35053456,91.0982835 14.28,88.16 C19.2444181,85.2319327 24.3992753,82.6394705 29.71,80.4 C35.023245,78.1228748 40.4859877,76.2117501 46.06,74.68 C47.45,74.27 48.84,73.89 50.26,73.58 L54.49,72.58 C57.34,72.05 60.17,71.46 63.04,71.08 C74.5012173,69.3974312 86.1333961,69.2226124 97.64,70.56 C109.022048,71.9728516 120.26952,74.3139847 131.27,77.56 C119.88,76.49 108.59,75.02 97.32,74.48 C86.1052266,73.9265656 74.8632169,74.4556802 63.75,76.06 C60.97,76.4 58.22,76.97 55.46,77.44 C52.7,77.91 49.96,78.55 47.25,79.27 C41.79,80.56 36.43,82.27 31.1,84.04 L27.1,85.46 L23.2,87 C21.87,87.49 20.58,88.05 19.29,88.62 C18,89.19 16.68,89.72 15.41,90.33 C10.23,92.66 5.23,95.33 0.18,98 Z" id="Shape" fill="#00B8C2" stroke-width="1"/>
            <path d="M53.44,38.47 C59.9195393,37.5708067 66.4760269,37.3596314 73,37.84 C76.2854089,38.0710411 79.5543861,38.4951066 82.79,39.11 C84.42,39.38 86.02,39.81 87.64,40.17 C89.26,40.53 90.84,41.04 92.42,41.58 C98.7761616,43.6303176 104.759761,46.693029 110.14,50.65 C115.364272,54.6259928 120.130224,59.1705841 124.35,64.2 C118.74,60.82 113.49,57.06 108,53.93 C102.569846,50.8051848 96.8288423,48.2547446 90.87,46.32 C87.87,45.32 84.87,44.47 81.8,43.73 C78.73,42.99 75.63,42.33 72.5,41.73 C66.25,40.5 59.88,39.62 53.44,38.47 Z" id="Shape" fill="#286AB9" stroke-width="1"/>
            <path d="M68.61,57.55 C70.6589675,56.9351882 72.7813377,56.5988379 74.92,56.55 C77.0436239,56.4704311 79.1699885,56.5943295 81.27,56.92 C83.4045315,57.2167373 85.4938896,57.7777064 87.49,58.59 C89.5720428,59.3886657 91.3304748,60.855198 92.49,62.76 C90.6888433,61.8300048 88.75677,61.1792366 86.76,60.83 C84.83,60.45 82.81,60.2 80.76,59.83 C78.71,59.46 76.76,59.19 74.76,58.83 C72.76,58.47 70.7,58.13 68.61,57.55 Z" id="Shape" fill="#60268D" stroke-width="1"/>
            <path d="M152.83,82.66 C157.014389,77.5240513 161.879145,72.9822675 167.29,69.16 C172.710855,65.2912157 178.559422,62.0599077 184.72,59.53 C190.897215,56.9482758 197.374772,55.1541806 204,54.19 C210.597036,53.1701841 217.329749,53.4487323 223.82,55.01 C217.381688,55.3947714 210.995474,56.3994197 204.75,58.01 C198.590741,59.6309508 192.549901,61.6724072 186.67,64.12 C180.767113,66.5499921 175.013662,69.3282107 169.44,72.44 C163.77,75.56 158.36,79.06 152.83,82.66 Z" id="Shape" fill="#29215C" stroke-width="1"/>
            <path d="M179.61,76.77 C185.679192,73.5232095 192.25625,71.3319841 199.06,70.29 C205.844426,69.0966286 212.736427,68.6273289 219.62,68.89 C226.607503,69.1296118 233.501565,70.5706671 240,73.15 C246.44,75.81 252.44,79.83 256.63,85.27 C251.155576,81.5013162 245.097847,78.6599608 238.7,76.86 C232.402685,75.1088307 225.921785,74.1019586 219.39,73.86 C212.769281,73.6151639 206.140303,73.7152995 199.53,74.16 C192.833524,74.5247039 186.174393,75.3972106 179.61,76.77 L179.61,76.77 Z" id="Shape" fill="#28A9E0" stroke-width="1"/>
            <path d="M208.62,84 C210.285654,83.0947432 212.095894,82.4856906 213.97,82.2 C217.753076,81.5815491 221.633271,82.0103763 225.19,83.44 C226.958264,84.1281001 228.592808,85.1196554 230.02,86.37 C228.21,85.84 226.47,85.37 224.72,84.93 C222.981266,84.5354848 221.221861,84.2383557 219.45,84.04 C217.676888,83.8427681 215.894043,83.745947 214.11,83.75 C212.31,83.72 210.5,83.83 208.62,84 Z" id="Shape" fill="#7EC5B3" stroke-width="1"/>
            <path d="M186.07,85.61 C191.750151,84.9761287 197.499303,85.44815 203,87 C208.546253,88.5119773 213.849333,90.8049278 218.75,93.81 C223.619017,96.7909241 228.117129,100.339061 232.15,104.38 C236.17574,108.361024 239.71085,112.809286 242.68,117.63 C238.19,114.18 233.94,110.63 229.57,107.34 C225.263713,104.022727 220.787656,100.931878 216.16,98.08 C211.55552,95.2587257 206.741396,92.7948305 201.76,90.71 C196.672751,88.5986944 191.426368,86.893369 186.07,85.61 L186.07,85.61 Z" id="Shape" fill="#33ABDB" stroke-width="1"/>
            <path d="M157.25,87.79 C167.97,88.79 178.46,92.4 188.09,97.39 C197.705576,102.451461 206.685267,108.638217 214.84,115.82 C223.108163,122.854567 230.543295,130.81311 237,139.54 C243.520339,148.212468 248.440794,157.978879 251.53,168.38 C246.702361,158.917569 240.79645,150.04528 233.93,141.94 C227.067161,133.921769 219.5913,126.449252 211.57,119.59 C203.642402,112.628826 195.153563,106.334108 186.19,100.77 C177.143163,95.2139673 167.415839,90.8511248 157.25,87.79 L157.25,87.79 Z" id="Shape" fill="#29215C" stroke-width="1"/>
            <path d="M237.19,129.83 C239.37902,130.756638 241.452933,131.934539 243.37,133.34 C247.240283,136.122898 250.579859,139.577631 253.23,143.54 C254.568277,145.504705 255.672428,147.619038 256.52,149.84 L252,144.49 C250.47,142.75 248.94,141.03 247.33,139.39 C245.72,137.75 244.08,136.13 242.39,134.55 L237.19,129.83 Z" id="Shape" fill="#5A2686" stroke-width="1"/>
            <circle id="Oval" fill="#4AC5F7" cx="174.66" cy="175.4" r="1.31" stroke-width="1"/>
            <path d="M168.1,174.59 C169.208355,174.461032 170.325248,174.420904 171.44,174.47 C172.54,174.47 173.64,174.59 174.74,174.72 C175.84,174.85 176.92,175.04 178,175.27 C179.093317,175.492977 180.166814,175.80399 181.21,176.2 C180.101721,176.329959 178.984748,176.37009 177.87,176.32 C176.77,176.32 175.67,176.2 174.57,176.07 C173.47,175.94 172.39,175.75 171.31,175.52 C170.216921,175.296058 169.1435,174.985067 168.1,174.59 L168.1,174.59 Z" id="Shape" fill="#4AC5F7" stroke-width="1"/>
            <path d="M169.38,171.42 C170.42076,171.861453 171.424042,172.386504 172.38,172.99 C173.32,173.57 174.23,174.193333 175.11,174.86 C175.99,175.52 176.84,176.22 177.66,176.97 C178.497084,177.709428 179.272951,178.515393 179.98,179.38 C178.939131,178.942682 177.935784,178.420942 176.98,177.82 C176.04,177.24 175.13,176.62 174.25,175.95 C173.37,175.28 172.52,174.58 171.7,173.84 C170.863203,173.096664 170.087382,172.287402 169.38,171.42 L169.38,171.42 Z" id="Shape" fill="#4AC5F7" stroke-width="1"/>
            <path d="M172.08,169.32 C172.744401,170.214707 173.336283,171.161049 173.85,172.15 C174.37,173.123333 174.846667,174.123333 175.28,175.15 C175.71,176.15 176.09,177.15 176.43,178.25 C176.783956,179.309963 177.051497,180.396848 177.23,181.5 C176.561298,180.606227 175.966022,179.659805 175.45,178.67 C174.93,177.67 174.45,176.67 174.02,175.67 C173.59,174.67 173.21,173.67 172.87,172.57 C172.520391,171.509475 172.256214,170.422673 172.08,169.32 L172.08,169.32 Z" id="Shape" fill="#4AC5F7" stroke-width="1"/>
            <path d="M175.46,168.84 C175.588968,169.948355 175.629096,171.065248 175.58,172.18 C175.58,173.28 175.46,174.38 175.33,175.48 C175.2,176.58 175.01,177.66 174.78,178.74 C174.557023,179.833317 174.24601,180.906814 173.85,181.95 C173.720041,180.841721 173.67991,179.724748 173.73,178.61 C173.73,177.51 173.85,176.41 173.98,175.31 C174.11,174.21 174.3,173.13 174.53,172.05 C174.753942,170.956921 175.064933,169.8835 175.46,168.84 L175.46,168.84 Z" id="Shape" fill="#4AC5F7" stroke-width="1"/>
            <path d="M178.63,170.12 C178.188547,171.16076 177.663496,172.164042 177.06,173.12 C176.48,174.06 175.856667,174.97 175.19,175.85 C174.53,176.73 173.83,177.58 173.08,178.4 C172.340572,179.237084 171.534607,180.012951 170.67,180.72 C171.110531,179.678804 171.63562,178.675448 172.24,177.72 C172.82,176.78 173.44,175.87 174.11,174.99 C174.78,174.11 175.48,173.26 176.22,172.44 C176.960147,171.603605 177.766054,170.827794 178.63,170.12 Z" id="Shape" fill="#4AC5F7" stroke-width="1"/>
            <path d="M180.73,172.82 C179.835317,173.484436 178.888972,174.07632 177.9,174.59 C176.926667,175.11 175.926667,175.586667 174.9,176.02 C173.9,176.45 172.9,176.83 171.8,177.17 C170.740037,177.523956 169.653152,177.791497 168.55,177.97 C169.443797,177.301334 170.390217,176.70606 171.38,176.19 C172.38,175.67 173.38,175.19 174.38,174.76 C175.38,174.33 176.38,173.95 177.48,173.61 C178.540525,173.260391 179.627327,172.996214 180.73,172.82 L180.73,172.82 Z" id="Shape" fill="#4AC5F7" stroke-width="1"/>
            <circle id="Oval" fill="#4AC5F7" cx="60.99" cy="23.32" r="1.31" stroke-width="1"/>
            <path d="M54.44,22.51 C55.5483546,22.3810319 56.6652479,22.340904 57.78,22.39 C58.88,22.39 59.98,22.51 61.08,22.64 C62.18,22.77 63.26,22.96 64.34,23.19 C65.4333167,23.4129766 66.5068144,23.72399 67.55,24.12 C66.4417209,24.2499591 65.3247479,24.2900899 64.21,24.24 C63.11,24.24 62.01,24.12 60.91,23.99 C59.81,23.86 58.73,23.67 57.65,23.44 C56.5569213,23.2160585 55.4835002,22.9050673 54.44,22.51 L54.44,22.51 Z" id="Shape" fill="#4AC5F7" stroke-width="1"/>
            <path d="M55.72,19.34 C56.7607599,19.7814534 57.7640421,20.3065044 58.72,20.91 C59.66,21.49 60.57,22.1133333 61.45,22.78 C62.33,23.44 63.18,24.14 64,24.89 C64.8370845,25.6294282 65.6129507,26.4353927 66.32,27.3 C65.279131,26.8626822 64.2757844,26.3409419 63.32,25.74 C62.38,25.16 61.47,24.54 60.59,23.87 C59.71,23.2 58.86,22.49 58,21.75 C57.1774289,21.0082607 56.4150345,20.2023964 55.72,19.34 L55.72,19.34 Z" id="Shape" fill="#4AC5F7" stroke-width="1"/>
            <path d="M58.41,17.24 C59.0744009,18.1347071 59.6662826,19.0810491 60.18,20.07 C60.7,21.0433333 61.1766667,22.0433333 61.61,23.07 C62.04,24.07 62.42,25.07 62.76,26.17 C63.113956,27.2299631 63.381497,28.3168484 63.56,29.42 C62.8912978,28.5262273 62.2960216,27.579805 61.78,26.59 C61.26,25.59 60.78,24.59 60.35,23.59 C59.92,22.59 59.54,21.59 59.2,20.49 C58.8503908,19.4294754 58.5862142,18.3426729 58.41,17.24 L58.41,17.24 Z" id="Shape" fill="#4AC5F7" stroke-width="1"/>
            <path d="M61.79,16.76 C61.9189681,17.8683546 61.959096,18.9852479 61.91,20.1 C61.91,21.2 61.79,22.3 61.66,23.4 C61.53,24.5 61.34,25.58 61.11,26.66 C60.8870234,27.7533167 60.57601,28.8268144 60.18,29.87 C60.0500409,28.7617209 60.0099101,27.6447479 60.06,26.53 C60.06,25.43 60.18,24.33 60.31,23.23 C60.44,22.13 60.63,21.05 60.86,19.97 C61.0839415,18.8769213 61.3949327,17.8035002 61.79,16.76 Z" id="Shape" fill="#4AC5F7" stroke-width="1"/>
            <path d="M65,18 C64.5585466,19.0407599 64.0334956,20.0440421 63.43,21 C62.85,21.94 62.2266667,22.85 61.56,23.73 C60.9,24.61 60.2,25.46 59.45,26.28 C58.6974206,27.1152564 57.8780437,27.8878118 57,28.59 C57.4405309,27.5488042 57.9656204,26.5454484 58.57,25.59 C59.15,24.65 59.77,23.74 60.44,22.86 C61.11,21.98 61.81,21.13 62.55,20.31 C63.3033007,19.4754491 64.1226182,18.7029498 65,18 L65,18 Z" id="Shape" fill="#4AC5F7" stroke-width="1"/>
            <path d="M67.07,20.74 C66.1753169,21.4044361 65.228972,21.9963197 64.24,22.51 C63.2666667,23.03 62.2666667,23.5066667 61.24,23.94 C60.24,24.37 59.24,24.75 58.14,25.09 C57.0800369,25.443956 55.9931516,25.711497 54.89,25.89 C55.7837975,25.2213339 56.7302168,24.6260596 57.72,24.11 C58.72,23.59 59.72,23.11 60.72,22.68 C61.72,22.25 62.72,21.87 63.82,21.53 C64.8805246,21.1803908 65.9673271,20.9162142 67.07,20.74 Z" id="Shape" fill="#4AC5F7" stroke-width="1"/>
            <circle id="Oval" fill="#33ABDB" cx="127.57" cy="26.02" r="1" stroke-width="1"/>
            <circle id="Oval" fill="#33ABDB" cx="133.2" cy="14.62" r="1.94" stroke-width="1"/>
            <circle id="Oval" fill="#33ABDB" cx="82.25" cy="32.92" r="1.69" stroke-width="1"/>
            <circle id="Oval" fill="#33ABDB" cx="71.9" cy="27.01" r="1.44" stroke-width="1"/>
            <circle id="Oval" fill="#33ABDB" cx="84.31" cy="20.29" r="1" stroke-width="1"/>
            <circle id="Oval" fill="#33ABDB" cx="44.08" cy="66.52" r="1.62" stroke-width="1"/>
            <circle id="Oval" fill="#33ABDB" cx="54.19" cy="59.05" r="1" stroke-width="1"/>
            <circle id="Oval" fill="#33ABDB" cx="63.84" cy="47.33" r="1.71" stroke-width="1"/>
            <circle id="Oval" fill="#33ABDB" cx="77.01" cy="119.22" r="1.55" stroke-width="1"/>
            <circle id="Oval" fill="#33ABDB" cx="84.31" cy="109.4" r="1" stroke-width="1"/>
            <circle id="Oval" fill="#33ABDB" cx="46.96" cy="98.2" r="1.27" stroke-width="1"/>
            <circle id="Oval" fill="#33ABDB" cx="47.76" cy="86.07" r="1" stroke-width="1"/>
            <circle id="Oval" fill="#33ABDB" cx="108.52" cy="123.66" r="1.45" stroke-width="1"/>
            <circle id="Oval" fill="#00B8C2" cx="94.58" cy="149.84" r="2.07" stroke-width="1"/>
            <circle id="Oval" fill="#00B8C2" cx="125.96" cy="146.65" r="1.61" stroke-width="1"/>
            <circle id="Oval" fill="#00B8C2" cx="132.13" cy="160.32" r="3" stroke-width="1"/>
            <circle id="Oval" fill="#00B8C2" cx="57.65" cy="134.78" r="1" stroke-width="1"/>
            <circle id="Oval" fill="#00B8C2" cx="62.47" cy="88.34" r="1" stroke-width="1"/>
            <circle id="Oval" fill="#00B8C2" cx="29.51" cy="98.74" r="1" stroke-width="1"/>
            <circle id="Oval" fill="#00B8C2" cx="169" cy="9.33" r="1.27" stroke-width="1"/>
            <circle id="Oval" fill="#00B8C2" cx="194.67" cy="0.89" r="1" stroke-width="1"/>
            <circle id="Oval" fill="#00B8C2" cx="199.71" cy="16.08" r="1.46" stroke-width="1"/>
            <circle id="Oval" fill="#00B8C2" cx="184.13" cy="29.29" r="1" stroke-width="1"/>
            <circle id="Oval" fill="#00B8C2" cx="194.57" cy="25.11" r="1" stroke-width="1"/>
            <circle id="Oval" fill="#00B8C2" cx="233.53" cy="49.09" r="1.07" stroke-width="1"/>
            <circle id="Oval" fill="#00B8C2" cx="223.67" cy="47.91" r="1" stroke-width="1"/>
            <circle id="Oval" fill="#00B8C2" cx="220.64" cy="60.93" r="1.32" stroke-width="1"/>
            <circle id="Oval" fill="#00B8C2" cx="209.19" cy="65.95" r="1" stroke-width="1"/>
            <circle id="Oval" fill="#00B8C2" cx="71.42" cy="139.52" r="1" stroke-width="1"/>
            <circle id="Oval" fill="#00B8C2" cx="223.47" cy="111.28" r="1.52" stroke-width="1"/>
            <circle id="Oval" fill="#00B8C2" cx="201.12" cy="128.75" r="1.41" stroke-width="1"/>
            <circle id="Oval" fill="#00B8C2" cx="215.58" cy="131.03" r="1.2" stroke-width="1"/>
            <circle id="Oval" fill="#00B8C2" cx="214.38" cy="144.13" r="1" stroke-width="1"/>
            <circle id="Oval" fill="#00B8C2" cx="189.35" cy="140.88" r="1.05" stroke-width="1"/>
            <circle id="Oval" fill="#00B8C2" cx="194.57" cy="159.77" r="1" stroke-width="1"/>
            <circle id="Oval" fill="#00B8C2" cx="168.99" cy="145.39" r="1.26" stroke-width="1"/>
            <circle id="Oval" fill="#00B8C2" cx="169.06" cy="154.48" r="1" stroke-width="1"/>
            <circle id="Oval" fill="#00B8C2" cx="170.27" cy="165.65" r="1" stroke-width="1"/>
            <circle id="Oval" fill="#00B8C2" cx="154.93" cy="164.12" r="1" stroke-width="1"/>
            <circle id="Oval" fill="#00B8C2" cx="205.78" cy="100.85" r="1.38" stroke-width="1"/>
        </g>
    </g>
</svg>