<?xml version="1.0" encoding="UTF-8"?><svg xmlns="http://www.w3.org/2000/svg" xmlns:xlink="http://www.w3.org/1999/xlink" width="201.57000732421875" height="196.8969268798828" viewBox="-0.20999997854232788 0.12000000476837158 201.57000732421875 196.8969268798828" version="1.1">
    <!-- Generator: Sketch 46.2 (44496) - http://www.bohemiancoding.com/sketch -->
    <title>fireworks 4-b</title>
    <desc>Created with Sketch.</desc>
    <defs/>
    <g id="Page-1" stroke="none" fill-rule="evenodd">
        <g id="fireworks-4-b" fill-rule="nonzero">
            <path d="M77.48,17.85 L85.86,3.77 C85.86,3.77 98.43,13.01 100.91,26.77 C103.39,40.53 99.2,83.38 99.2,83.38 C99.2,83.38 97.65,60.38 92.84,43.56 C88.03,26.74 77.48,17.85 77.48,17.85 Z" id="Shape" fill="#83AF25" stroke-width="1"/>
            <path d="M118.14,33.1 L129.47,33.1 C129.47,33.1 127.47,44.39 119.23,58.77 C114.999199,66.1823634 110.323998,73.3320808 105.23,80.18 C105.23,80.18 113.15,64.78 115.32,52.75 C117.49,40.72 118.14,33.1 118.14,33.1 Z" id="Shape" fill="#E80645" stroke-width="1"/>
            <path d="M169.67,35 L165.32,18.72 C165.32,18.72 152.44,22.09 141.73,36.32 C131.02,50.55 114.73,83.4 114.73,83.4 C114.73,83.4 132.73,57.73 148.41,46.29 C164.09,34.85 169.67,35 169.67,35 Z" id="Shape" fill="#F24106" stroke-width="1"/>
            <path d="M155.7,89.28 L164.08,81.95 C164.08,81.95 161.13,76.67 149.18,76.38 C137.23,76.09 130.25,79.61 123.11,82.83 C117.418196,85.5674757 111.873911,88.6016447 106.5,91.92 C106.5,91.92 119.91,87.19 130.87,85.47 C149.49,82.53 155.7,89.28 155.7,89.28 Z" id="Shape" fill="#F73276" stroke-width="1"/>
            <path d="M97.65,99.54 C97.65,99.54 116.43,94 135.29,94 C154.15,94 166.1,96.05 178.2,100.6 C186.084248,103.658946 193.669683,107.438274 200.86,111.89 L186.12,127.29 C186.12,127.29 177.27,113.21 148.56,105.58 C119.85,97.95 97.65,99.54 97.65,99.54 Z" id="Shape" fill="#FBB83E" stroke-width="1"/>
            <path d="M106.5,105.12 C106.5,105.12 116.28,111.57 123.42,124.92 C130.56,138.27 130.56,148.68 130.56,148.68 L142.2,148.09 C142.2,148.09 140.34,133.09 129.47,122.86 C122.359937,116.270842 114.672382,110.333653 106.5,105.12 Z" id="Shape" fill="#F73276" stroke-width="1"/>
            <path d="M91,112.45 C91,112.45 95.35,135.33 92.86,151.61 C91.1012402,162.054456 87.6955202,172.153479 82.77,181.53 L97.67,188.28 C97.67,188.28 105.27,172 102.67,154.11 C100.07,136.22 91,112.45 91,112.45 Z" id="Shape" fill="#E80039" stroke-width="1"/>
            <path d="M89.59,103.5 C89.59,103.5 68.79,121.4 57.3,143.4 C45.81,165.4 47.83,174.64 47.83,174.64 L65.22,174.64 C63.7038875,163.212499 65.3107617,151.587715 69.87,141 C77.48,123.16 89.59,103.5 89.59,103.5 Z" id="Shape" fill="#FBB83E" stroke-width="1"/>
            <path d="M75.93,108.12 C75.93,108.12 65.93,108.12 58.39,112.12 C43.72,119.84 42.33,131.48 42.33,131.48 L50.94,132.73 C50.94,132.73 51.79,123.78 58.39,117.73 C64.99,111.68 75.93,108.12 75.93,108.12 Z" id="Shape" fill="#E80039" stroke-width="1"/>
            <path d="M12.29,106.66 L0.29,95.15 C0.29,95.15 6.96,87.96 24.35,85.69 C41.74,83.42 81.85,97.94 81.85,97.94 C81.85,97.94 43.85,89.85 29.55,96.06 C15.25,102.27 12.29,106.66 12.29,106.66 Z" id="Shape" fill="#F24106" stroke-width="1"/>
            <path d="M23.93,68.74 L21.29,56.64 C21.29,56.64 38.75,55.03 50.16,62.64 C61.57,70.25 72.28,85.85 72.28,85.85 C72.28,85.85 54.28,67.57 39.45,67.3 C27.35,67.13 23.93,68.74 23.93,68.74 Z" id="Shape" fill="#E00739" stroke-width="1"/>
            <path d="M68.64,49.9 L74.76,41.61 C74.76,41.61 82.21,47.92 85.16,57.16 C88.11,66.4 85.7,86.93 85.7,86.93 C85.7,86.93 87.17,71.46 81.04,62.66 C74.91,53.86 68.64,49.9 68.64,49.9 Z" id="Shape" fill="#F24106" stroke-width="1"/>
            <path d="M35.4,115.46 C35.7197574,115.615667 35.9556723,115.90311 36.0459901,116.247086 C36.1363079,116.591063 36.0720365,116.957326 35.87,117.25 C35.69,117.52 34.76,117.71 34.49,117.77 C34.2839489,117.060749 33.9139902,116.409896 33.41,115.87 C33.92,116 35,116 35.4,115.46 Z" id="Shape" fill="#0D7B99" stroke-width="1"/>
            <path d="M30.28,115.32 C30.77,115.91 31.76,117.06 32.28,117.63 L32.48,117.86 L32.48,117.86 C31.409234,117.610207 30.4144664,117.105963 29.58,116.39 C27.88,114.95 27.85,114.09 27.89,113.63 C28.8624034,113.890952 29.7098442,114.490189 30.28,115.32 L30.28,115.32 Z" id="Shape" fill="#0D7B99" stroke-width="1"/>
            <path d="M32.57,119.84 C32.7945448,119.497654 32.9886222,119.136269 33.15,118.76 C33.5089344,119.307925 33.7506641,119.924166 33.86,120.57 C33.3139764,121.508683 32.4475937,122.218833 31.42,122.57 C31.2232658,122.021424 30.9284764,121.513166 30.55,121.07 C31.3389291,120.88997 32.0479147,120.458261 32.57,119.84 L32.57,119.84 Z" id="Shape" fill="#0D7B99" stroke-width="1"/>
            <path d="M29.22,112.45 C30.52,112.81 30.79,113.25 32.01,114.45 C32.5069996,114.913369 32.9777326,115.404133 33.42,115.92 C33.9239902,116.459896 34.2939489,117.110749 34.5,117.82 C34.5359188,117.974221 34.5560227,118.131702 34.56,118.29 C34.5763371,119.123904 34.3315905,119.942057 33.86,120.63 C33.7506641,119.984166 33.5089344,119.367925 33.15,118.82 C32.9457237,118.500562 32.718456,118.196424 32.47,117.91 L32.27,117.68 C31.76,117.11 30.77,115.97 30.27,115.37 C29.6981283,114.543938 28.8509003,113.948397 27.88,113.69 C28.2467792,113.19793 28.7010167,112.777591 29.22,112.45 Z" id="Shape" fill="#00C1D2" stroke-width="1"/>
            <path d="M27.27,120.32 C27.76,120.91 28.75,122.06 29.27,122.63 L29.47,122.86 L29.47,122.86 C28.4029087,122.608338 27.4118128,122.104216 26.58,121.39 C24.88,119.95 24.85,119.09 24.88,118.63 C25.8524034,118.890952 26.6998442,119.490189 27.27,120.32 Z" id="Shape" fill="#0D7B99" stroke-width="1"/>
            <path d="M29.55,124.85 C29.7737734,124.510694 29.9678276,124.152697 30.13,123.78 C30.4902358,124.327252 30.7320763,124.943775 30.84,125.59 C30.3175489,126.474349 29.5100652,127.154892 28.55,127.52 C28.3168831,126.983103 27.9995575,126.48686 27.61,126.05 C28.367718,125.86623 29.0472198,125.445919 29.55,124.85 L29.55,124.85 Z" id="Shape" fill="#0D7B99" stroke-width="1"/>
            <path d="M26.21,117.46 C27.51,117.82 27.78,118.26 29,119.46 C29.5521919,119.971963 30.0699843,120.519821 30.55,121.1 C30.9284764,121.543166 31.2232658,122.051424 31.42,122.6 C31.4927031,122.8231 31.5331125,123.055454 31.54,123.29 C31.5563371,124.123904 31.3115905,124.942057 30.84,125.63 C30.7320763,124.983775 30.4902358,124.367252 30.13,123.82 C29.9257529,123.500542 29.6984837,123.196402 29.45,122.91 L29.25,122.68 C28.74,122.11 27.75,120.97 27.25,120.37 C26.6781283,119.543938 25.8309003,118.948397 24.86,118.69 C25.2306701,118.200596 25.6883026,117.783642 26.21,117.46 L26.21,117.46 Z" id="Shape" fill="#00C1D2" stroke-width="1"/>
            <path d="M24.46,125.46 C24.95,126.05 25.94,127.2 26.46,127.77 L26.66,128 L26.66,128 C25.5923657,127.749822 24.6009331,127.245529 23.77,126.53 C22.07,125.09 22.04,124.23 22.07,123.77 C23.0424034,124.030952 23.8898442,124.630189 24.46,125.46 L24.46,125.46 Z" id="Shape" fill="#0D7B99" stroke-width="1"/>
            <path d="M26.75,130 C26.9741518,129.657421 27.1682103,129.29607 27.33,128.92 C27.6902132,129.47092 27.9319926,130.090692 28.04,130.74 C27.4964338,131.676828 26.6338777,132.386751 25.61,132.74 C25.3830725,132.196073 25.0689488,131.6928 24.68,131.25 C25.4882566,131.07123 26.2154837,130.632084 26.75,130 L26.75,130 Z" id="Shape" fill="#0D7B99" stroke-width="1"/>
            <path d="M23.41,122.59 C24.71,122.95 24.98,123.39 26.2,124.59 C26.6984518,125.034009 27.1724799,125.504698 27.62,126 C28.0095575,126.43686 28.3268831,126.933103 28.56,127.47 C28.6738716,127.746611 28.7381854,128.041101 28.75,128.34 C28.7663371,129.173904 28.5215905,129.992057 28.05,130.68 C27.9419926,130.030692 27.7002132,129.41092 27.34,128.86 C27.1354078,128.540781 26.9081567,128.236665 26.66,127.95 L26.46,127.72 C25.95,127.15 24.96,126.01 24.46,125.41 C23.8881283,124.583938 23.0409003,123.988397 22.07,123.73 C22.446524,123.274523 22.9000719,122.888669 23.41,122.59 Z" id="Shape" fill="#00C1D2" stroke-width="1"/>
            <path d="M21.52,130.62 C22.01,131.21 23,132.36 23.52,132.93 L23.72,133.16 L23.72,133.16 C22.6523657,132.909822 21.6609331,132.405529 20.83,131.69 C19.13,130.25 19.1,129.39 19.13,128.93 C20.1020254,129.191757 20.9492113,129.790813 21.52,130.62 Z" id="Shape" fill="#0D7B99" stroke-width="1"/>
            <path d="M23.81,135.14 C24.0345448,134.797654 24.2286222,134.436269 24.39,134.06 C24.7484215,134.60819 24.990108,135.22432 25.1,135.87 C24.4639986,136.98308 23.3635387,137.753402 22.1,137.97 L21.44,136.42 C22.3518647,136.273171 23.1871869,135.822026 23.81,135.14 L23.81,135.14 Z" id="Shape" fill="#0D7B99" stroke-width="1"/>
            <path d="M20.46,127.75 C21.76,128.11 22.03,128.55 23.25,129.75 C23.75804,130.225827 24.2388053,130.729963 24.69,131.26 C25.0789488,131.7028 25.3930725,132.206073 25.62,132.75 C25.7293509,133.020595 25.7902782,133.308307 25.8,133.6 C25.8163371,134.433904 25.5715905,135.252057 25.1,135.94 C24.990108,135.29432 24.7484215,134.67819 24.39,134.13 C24.1853513,133.81082 23.9581032,133.506708 23.71,133.22 L23.51,132.99 C23,132.42 22.01,131.28 21.51,130.68 C20.9375002,129.854562 20.0905259,129.259199 19.12,129 C19.4868658,128.50525 19.940978,128.081638 20.46,127.75 Z" id="Shape" fill="#00C1D2" stroke-width="1"/>
            <path d="M43.36,40.8 C43.5137938,40.6461147 43.722438,40.5596551 43.94,40.5596551 C44.157562,40.5596551 44.3662062,40.6461147 44.52,40.8 C44.65,40.94 44.62,41.47 44.61,41.63 C44.1550042,41.6275193 43.7048063,41.7230159 43.29,41.91 C43.42,41.68 43.65,41.12 43.36,40.8 Z" id="Shape" fill="#D7DF84" stroke-width="1"/>
            <path d="M42.44,43.55 C42.88,43.38 43.73,43.03 44.16,42.84 L44.33,42.77 L44.33,42.77 C44.003777,43.3167337 43.5467337,43.773777 43,44.1 C41.85,44.79 41.33,44.66 41.06,44.57 C41.3833127,44.0759981 41.8728795,43.7141443 42.44,43.55 Z" id="Shape" fill="#D7DF84" stroke-width="1"/>
            <path d="M45.55,43 C45.3773083,42.8213528 45.1899899,42.6574492 44.99,42.51 C45.3841871,42.4047785 45.7945839,42.3742531 46.2,42.42 C46.6645797,42.8457433 46.9504602,43.4317982 47,44.06 C46.6396104,44.0774824 46.284697,44.1552253 45.95,44.29 C45.9702812,43.8266267 45.8288807,43.3706099 45.55,43 Z" id="Shape" fill="#D7DF84" stroke-width="1"/>
            <path d="M40.53,43.66 C40.96,43.02 41.27,42.94 42.17,42.47 C42.5337427,42.2767164 42.9076158,42.1031325 43.29,41.95 C43.7048063,41.7630159 44.1550042,41.6675193 44.61,41.67 L44.91,41.67 C45.4072764,41.7933572 45.8585605,42.0571848 46.21,42.43 C45.8045839,42.3842531 45.3941871,42.4147785 45,42.52 C44.7751589,42.5779204 44.5546252,42.6514316 44.34,42.74 L44.17,42.81 C43.74,43 42.89,43.35 42.45,43.52 C41.8785714,43.6747826 41.3817442,44.0296592 41.05,44.52 C40.8272641,44.2662734 40.6512133,43.9751124 40.53,43.66 L40.53,43.66 Z" id="Shape" fill="#C0C638" stroke-width="1"/>
            <path d="M45,46 C45.44,45.83 46.29,45.48 46.72,45.29 L46.89,45.22 L46.89,45.22 C46.5553871,45.7703787 46.0877044,46.2277449 45.53,46.55 C44.38,47.24 43.86,47.11 43.59,47.02 C43.9200221,46.5195596 44.4214203,46.1568461 45,46 Z" id="Shape" fill="#D7DF84" stroke-width="1"/>
            <path d="M48.1,45.49 C47.9272125,45.3114536 47.7399027,45.1475576 47.54,45 C47.9340673,44.894072 48.3445978,44.8635367 48.75,44.91 C49.1919713,45.3155005 49.4754998,45.864837 49.55,46.46 C49.2055524,46.5021384 48.868848,46.5930486 48.55,46.73 C48.5445489,46.2776701 48.385916,45.8405483 48.1,45.49 Z" id="Shape" fill="#D7DF84" stroke-width="1"/>
            <path d="M43.08,46.1 C43.51,45.46 43.82,45.38 44.72,44.91 C45.1339276,44.6925945 45.5614873,44.5021969 46,44.34 C46.3189483,44.2105381 46.6565406,44.1328918 47,44.11 C47.1460618,44.0911629 47.2939382,44.0911629 47.44,44.11 C47.9372764,44.2333572 48.3885605,44.4971848 48.74,44.87 C48.3345978,44.8235367 47.9240673,44.854072 47.53,44.96 C47.3053013,45.0184021 47.0848002,45.0919024 46.87,45.18 L46.7,45.25 C46.27,45.44 45.42,45.79 44.98,45.96 C44.4081826,46.1139611 43.9110931,46.469025 43.58,46.96 C43.3642051,46.7048623 43.1949608,46.4137622 43.08,46.1 L43.08,46.1 Z" id="Shape" fill="#C0C638" stroke-width="1"/>
            <path d="M47.64,48.34 C48.08,48.17 48.93,47.82 49.36,47.63 L49.53,47.56 L49.53,47.56 C49.1960678,48.1109192 48.7282296,48.5684375 48.17,48.89 C47.02,49.58 46.5,49.45 46.22,49.36 C46.5531451,48.8582458 47.0581395,48.4955033 47.64,48.34 L47.64,48.34 Z" id="Shape" fill="#D7DF84" stroke-width="1"/>
            <path d="M50.75,47.84 C50.5771179,47.661553 50.3898167,47.4976645 50.19,47.35 C50.5842264,47.245011 50.9945794,47.2144889 51.4,47.26 C51.8615256,47.68387 52.1470405,48.2656067 52.2,48.89 C51.8389536,48.9235897 51.4850029,49.0112346 51.15,49.15 C51.1750099,48.6798642 51.0333645,48.2159757 50.75,47.84 Z" id="Shape" fill="#D7DF84" stroke-width="1"/>
            <path d="M45.73,48.45 C46.16,47.81 46.47,47.73 47.37,47.26 C47.7368825,47.0631827 48.114095,46.88626 48.5,46.73 C48.818848,46.5930486 49.1555524,46.5021384 49.5,46.46 C49.6855106,46.4306199 49.8744894,46.4306199 50.06,46.46 C50.5572764,46.5833572 51.0085605,46.8471848 51.36,47.22 C50.9545794,47.1744889 50.5442264,47.205011 50.15,47.31 C49.9254274,47.3688271 49.7049543,47.4423181 49.49,47.53 L49.32,47.6 C48.89,47.79 48.04,48.14 47.6,48.31 C47.0285714,48.4647826 46.5317442,48.8196592 46.2,49.31 C45.9951844,49.0524008 45.8362003,48.7614936 45.73,48.45 Z" id="Shape" fill="#C0C638" stroke-width="1"/>
            <path d="M50.29,50.77 C50.73,50.6 51.58,50.25 52.01,50.07 L52.18,50 L52.18,50 C51.8460678,50.5509192 51.3782296,51.0084375 50.82,51.33 C49.67,52.02 49.15,51.89 48.87,51.8 C49.2013627,51.2944864 49.7065842,50.9280229 50.29,50.77 L50.29,50.77 Z" id="Shape" fill="#D7DF84" stroke-width="1"/>
            <path d="M53.4,50.27 C53.2274711,50.0911819 53.0401377,49.9272652 52.84,49.78 C53.2342654,49.6752422 53.644575,49.6447232 54.05,49.69 C54.6250496,50.1870096 54.9201798,50.9341748 54.84,51.69 L53.84,51.79 C53.8908858,51.2459167 53.7336585,50.7027679 53.4,50.27 L53.4,50.27 Z" id="Shape" fill="#D7DF84" stroke-width="1"/>
            <path d="M48.38,50.88 C48.81,50.24 49.12,50.16 50.02,49.69 C50.3933356,49.4924015 50.7772477,49.3154681 51.17,49.16 C51.5050029,49.0212346 51.8589536,48.9335897 52.22,48.9 C52.3989159,48.8720613 52.5810841,48.8720613 52.76,48.9 C53.2572764,49.0233572 53.7085605,49.2871848 54.06,49.66 C53.654575,49.6147232 53.2442654,49.6452422 52.85,49.75 C52.6253013,49.8084021 52.4048002,49.8819024 52.19,49.97 L52.02,50.04 C51.59,50.23 50.74,50.58 50.3,50.74 C49.7285714,50.8947826 49.2317442,51.2496592 48.9,51.74 C48.6774341,51.4861489 48.5014025,51.1950197 48.38,50.88 L48.38,50.88 Z" id="Shape" fill="#C0C638" stroke-width="1"/>
            <path d="M189.83,158.81 C189.334598,159.384953 188.467896,159.451966 187.89,158.96 C187.64,158.75 187.58,157.85 187.57,157.59 C188.329643,157.511901 189.063239,157.269644 189.72,156.88 C189.55,157.35 189.29,158.33 189.83,158.81 Z" id="Shape" fill="#D7DF84" stroke-width="1"/>
            <path d="M190.8,154.05 C190.1,154.41 188.75,155.16 188.07,155.54 L187.8,155.69 L187.8,155.69 C188.245385,154.709745 188.933819,153.859529 189.8,153.22 C191.57,151.86 192.47,151.97 192.95,152.08 C192.500482,152.979098 191.734876,153.680607 190.8,154.05 Z" id="Shape" fill="#D7DF84" stroke-width="1"/>
            <path d="M185.71,155.47 C186.023742,155.733116 186.358155,155.97055 186.71,156.18 C186.073052,156.43093 185.394594,156.559837 184.71,156.56 C183.845872,155.93708 183.246479,155.013016 183.03,153.97 C183.628652,153.874572 184.206824,153.678467 184.74,153.39 C184.811664,154.175024 185.154666,154.910533 185.71,155.47 L185.71,155.47 Z" id="Shape" fill="#D7DF84" stroke-width="1"/>
            <path d="M194,153.52 C193.42,154.67 192.91,154.86 191.51,155.81 C190.943344,156.201637 190.35581,156.56217 189.75,156.89 C189.093239,157.279644 188.359643,157.521901 187.6,157.6 C187.433669,157.614964 187.266331,157.614964 187.1,157.6 C186.24427,157.494174 185.436225,157.147373 184.77,156.6 C185.454594,156.599837 186.133052,156.47093 186.77,156.22 C187.134248,156.081395 187.488433,155.917668 187.83,155.73 L188.1,155.58 C188.77,155.19 190.1,154.45 190.83,154.09 C191.762549,153.709134 192.521238,152.99675 192.96,152.09 C193.390682,152.49951 193.743109,152.984097 194,153.52 L194,153.52 Z" id="Shape" fill="#C0C638" stroke-width="1"/>
            <path d="M186,150.45 C185.3,150.81 183.95,151.56 183.27,151.94 L183,152.09 L183,152.09 C183.446141,151.110213 184.134434,150.260172 185,149.62 C186.77,148.26 187.67,148.37 188.15,148.48 C187.702022,149.380259 186.935897,150.082242 186,150.45 Z" id="Shape" fill="#D7DF84" stroke-width="1"/>
            <path d="M181,151.86 C181.3139,152.122912 181.648296,152.360333 182,152.57 C181.363185,152.821391 180.684639,152.950315 180,152.95 C179.178587,152.353179 178.594248,151.485524 178.35,150.5 C178.941984,150.371756 179.511566,150.156057 180.04,149.86 C180.123563,150.61635 180.462138,151.321714 181,151.86 L181,151.86 Z" id="Shape" fill="#D7DF84" stroke-width="1"/>
            <path d="M189.21,149.92 C188.63,151.07 188.12,151.26 186.72,152.21 C186.079701,152.649394 185.411638,153.046891 184.72,153.4 C184.186824,153.688467 183.608652,153.884572 183.01,153.98 C182.764331,154.011382 182.515669,154.011382 182.27,153.98 C181.414415,153.873639 180.606513,153.5269 179.94,152.98 C180.624639,152.980315 181.303185,152.851391 181.94,152.6 C182.304124,152.461102 182.658289,152.297384 183,152.11 L183.27,151.96 C183.94,151.57 185.27,150.83 186,150.47 C186.933595,150.090764 187.692799,149.377896 188.13,148.47 C188.577351,148.881685 188.943662,149.373492 189.21,149.92 L189.21,149.92 Z" id="Shape" fill="#C0C638" stroke-width="1"/>
            <path d="M181.13,147 C180.43,147.36 179.08,148.11 178.4,148.49 L178.13,148.64 L178.13,148.64 C178.574623,147.659275 179.2632,146.808882 180.13,146.17 C181.91,144.81 182.8,144.93 183.28,145.03 C182.83125,145.929677 182.065385,146.631422 181.13,147 Z" id="Shape" fill="#D7DF84" stroke-width="1"/>
            <path d="M176,148.43 C176.313795,148.693048 176.648203,148.930477 177,149.14 C176.362919,149.390473 175.684549,149.519363 175,149.52 C174.138657,148.898832 173.53969,147.978989 173.32,146.94 C173.915863,146.814178 174.489097,146.598372 175.02,146.3 C175.086326,147.103073 175.433275,147.857158 176,148.43 L176,148.43 Z" id="Shape" fill="#D7DF84" stroke-width="1"/>
            <path d="M184.29,146.48 C183.71,147.63 183.2,147.82 181.8,148.77 C181.223634,149.165668 180.626076,149.529543 180.01,149.86 C179.481566,150.156057 178.911984,150.371756 178.32,150.5 C178.008613,150.549394 177.691387,150.549394 177.38,150.5 C176.524415,150.393639 175.716513,150.0469 175.05,149.5 C175.734549,149.499363 176.412919,149.370473 177.05,149.12 C177.413909,148.980591 177.76804,148.816889 178.11,148.63 L178.38,148.48 C179.05,148.09 180.38,147.35 181.11,146.99 C182.043071,146.609947 182.802017,145.897321 183.24,144.99 C183.679932,145.416776 184.036068,145.92215 184.29,146.48 Z" id="Shape" fill="#C0C638" stroke-width="1"/>
            <path d="M176.21,143.45 C175.51,143.81 174.16,144.55 173.48,144.94 L173.21,145.09 L173.21,145.09 C173.654623,144.109275 174.3432,143.258882 175.21,142.62 C176.99,141.26 177.89,141.37 178.36,141.48 C177.910482,142.379098 177.144876,143.080607 176.21,143.45 L176.21,143.45 Z" id="Shape" fill="#D7DF84" stroke-width="1"/>
            <path d="M171.12,144.86 C171.433555,145.123358 171.767988,145.360806 172.12,145.57 C171.482919,145.820473 170.804549,145.949363 170.12,145.95 C169.08513,145.245471 168.446675,144.091055 168.4,142.84 L170.13,142.47 C170.158064,143.360617 170.510069,144.210407 171.12,144.86 L171.12,144.86 Z" id="Shape" fill="#D7DF84" stroke-width="1"/>
            <path d="M179.37,142.91 C178.79,144.06 178.28,144.25 176.88,145.2 C176.300711,145.599528 175.699795,145.966754 175.08,146.3 C174.549097,146.598372 173.975863,146.814178 173.38,146.94 C173.078431,146.986273 172.771569,146.986273 172.47,146.94 C171.614415,146.833639 170.806513,146.4869 170.14,145.94 C170.824549,145.939363 171.502919,145.810473 172.14,145.56 C172.504161,145.421189 172.858332,145.257469 173.2,145.07 L173.47,144.92 C174.14,144.53 175.47,143.79 176.2,143.43 C177.132549,143.049134 177.891238,142.33675 178.33,141.43 C178.765332,141.854668 179.117982,142.356516 179.37,142.91 Z" id="Shape" fill="#C0C638" stroke-width="1"/>
            <path d="M116.61,195.57 C116.256058,195.520495 115.939355,195.32415 115.737612,195.029149 C115.535869,194.734148 115.467761,194.367797 115.55,194.02 C115.63,193.71 116.44,193.24 116.67,193.11 C117.113191,193.716711 117.687417,194.21574 118.35,194.57 C117.84,194.65 116.79,194.89 116.61,195.57 Z" id="Shape" fill="#FB8A1C" stroke-width="1"/>
            <path d="M121.5,194.13 C120.83,193.72 119.5,192.94 118.82,192.56 L118.55,192.41 L118.55,192.41 C119.654352,192.31785 120.764804,192.489216 121.79,192.91 C123.9,193.75 124.21,194.55 124.34,194.99 C123.322311,195.040826 122.318529,194.736864 121.5,194.13 Z" id="Shape" fill="#FB8A1C" stroke-width="1"/>
            <path d="M117.78,190.56 C117.684412,190.953847 117.624173,191.355441 117.6,191.76 C117.070777,191.351903 116.628734,190.841854 116.3,190.26 C116.495206,189.215523 117.072824,188.28135 117.92,187.64 C118.296107,188.09862 118.749624,188.487832 119.26,188.79 C118.582846,189.198166 118.061826,189.821277 117.78,190.56 L117.78,190.56 Z" id="Shape" fill="#FB8A1C" stroke-width="1"/>
            <path d="M123.49,196.51 C122.14,196.57 121.73,196.24 120.18,195.51 C119.549056,195.210142 118.934823,194.87632 118.34,194.51 C117.677417,194.15574 117.103191,193.656711 116.66,193.05 C116.572393,192.914429 116.498687,192.770367 116.44,192.62 C116.138721,191.845263 116.086291,190.995909 116.29,190.19 C116.618734,190.771854 117.060777,191.281903 117.59,191.69 C117.906772,191.93412 118.241,192.15471 118.59,192.35 L118.86,192.5 C119.54,192.88 120.86,193.66 121.54,194.07 C122.359847,194.67331 123.363512,194.973702 124.38,194.92 C124.187802,195.502064 123.88567,196.041829 123.49,196.51 Z" id="Shape" fill="#FFB804" stroke-width="1"/>
            <path d="M122.62,188.47 C121.95,188.06 120.62,187.28 119.94,186.91 L119.68,186.76 L119.68,186.76 C120.784352,186.66785 121.894804,186.839216 122.92,187.26 C125.03,188.09 125.35,188.9 125.47,189.34 C124.447622,189.39115 123.439512,189.083411 122.62,188.47 Z" id="Shape" fill="#FB8A1C" stroke-width="1"/>
            <path d="M118.9,184.9 C118.805454,185.290667 118.745225,185.688848 118.72,186.09 C118.191797,185.684827 117.749822,185.178256 117.42,184.6 C117.607876,183.606872 118.138811,182.711362 118.92,182.07 C119.324343,182.505605 119.793131,182.876588 120.31,183.17 C119.662816,183.576229 119.167323,184.184173 118.9,184.9 L118.9,184.9 Z" id="Shape" fill="#FB8A1C" stroke-width="1"/>
            <path d="M124.61,190.85 C123.26,190.91 122.85,190.58 121.3,189.85 C120.611365,189.532256 119.943382,189.171545 119.3,188.77 C118.789624,188.467832 118.336107,188.07862 117.96,187.62 C117.815826,187.433736 117.698048,187.228467 117.61,187.01 C117.308721,186.235263 117.256291,185.385909 117.46,184.58 C117.789822,185.158256 118.231797,185.664827 118.76,186.07 C119.077079,186.313691 119.411274,186.53426 119.76,186.73 L120.02,186.88 C120.7,187.26 122.02,188.04 122.7,188.44 C123.519471,189.044063 124.523412,189.344538 125.54,189.29 C125.332769,189.864762 125.017048,190.39436 124.61,190.85 L124.61,190.85 Z" id="Shape" fill="#FFB804" stroke-width="1"/>
            <path d="M123.5,182.74 C122.83,182.33 121.5,181.55 120.82,181.18 L120.56,181.03 L120.56,181.03 C121.664352,180.93785 122.774804,181.109216 123.8,181.53 C125.91,182.36 126.23,183.17 126.36,183.61 C125.334348,183.662663 124.322585,183.354889 123.5,182.74 Z" id="Shape" fill="#FB8A1C" stroke-width="1"/>
            <path d="M119.77,179.18 C119.67462,179.573888 119.614384,179.975463 119.59,180.38 C119.060777,179.971903 118.618734,179.461854 118.29,178.88 C118.485868,177.841003 119.059378,176.911275 119.9,176.27 C120.305121,176.71436 120.777549,177.092302 121.3,177.39 C120.603254,177.797678 120.064244,178.428285 119.77,179.18 Z" id="Shape" fill="#FB8A1C" stroke-width="1"/>
            <path d="M125.49,185.13 C124.14,185.19 123.73,184.86 122.18,184.13 C121.542384,183.830525 120.921472,183.496702 120.32,183.13 C119.803131,182.836588 119.334343,182.465605 118.93,182.03 C118.727082,181.802718 118.56472,181.542263 118.45,181.26 C118.148721,180.485263 118.096291,179.635909 118.3,178.83 C118.628734,179.411854 119.070777,179.921903 119.6,180.33 C119.917659,180.572876 120.251795,180.793406 120.6,180.99 L120.86,181.14 C121.54,181.52 122.86,182.29 123.54,182.7 C124.359847,183.30331 125.363512,183.603702 126.38,183.55 C126.186194,184.128332 125.884161,184.664526 125.49,185.13 Z" id="Shape" fill="#FFB804" stroke-width="1"/>
            <path d="M124.5,177 C123.83,176.59 122.5,175.81 121.82,175.43 L121.55,175.28 L121.55,175.28 C122.654352,175.18785 123.764804,175.359216 124.79,175.78 C126.9,176.62 127.22,177.42 127.35,177.86 C126.328934,177.913175 125.321224,177.609094 124.5,177 Z" id="Shape" fill="#FB8A1C" stroke-width="1"/>
            <path d="M120.77,173.39 C120.674723,173.783908 120.614488,174.185474 120.59,174.59 C120.060777,174.181903 119.618734,173.671854 119.29,173.09 C119.500731,171.849641 120.271924,170.775874 121.38,170.18 L122.54,171.45 C121.742958,171.871942 121.117283,172.55771 120.77,173.39 Z" id="Shape" fill="#FB8A1C" stroke-width="1"/>
            <path d="M126.49,179.35 C125.14,179.41 124.73,179.08 123.18,178.35 C122.535381,178.051573 121.907756,177.71773 121.3,177.35 C120.777549,177.052302 120.305121,176.67436 119.9,176.23 C119.705015,176.008064 119.549438,175.754405 119.44,175.48 C119.138721,174.705263 119.086291,173.855909 119.29,173.05 C119.618734,173.631854 120.060777,174.141903 120.59,174.55 C120.907158,174.793579 121.241346,175.014142 121.59,175.21 L121.86,175.36 C122.54,175.74 123.86,176.51 124.54,176.93 C125.359847,177.53331 126.363512,177.833702 127.38,177.78 C127.185047,178.354799 126.883066,178.887507 126.49,179.35 L126.49,179.35 Z" id="Shape" fill="#FFB804" stroke-width="1"/>
            <path d="M117.34,21.52 C117.044143,21.3250764 116.847636,21.0111661 116.801565,20.6598767 C116.755494,20.3085873 116.864411,19.9546215 117.1,19.69 C117.31,19.44 118.26,19.35 118.53,19.33 C118.648409,20.0535673 118.93624,20.7388802 119.37,21.33 C118.87,21.19 117.82,21 117.34,21.52 Z" id="Shape" fill="#FB8A1C" stroke-width="1"/>
            <path d="M122.41,22.23 C122,21.59 121.15,20.34 120.72,19.72 L120.55,19.47 L120.55,19.47 C121.577881,19.8361425 122.501143,20.4470744 123.24,21.25 C124.75,22.87 124.67,23.72 124.58,24.18 C123.644986,23.8132674 122.874219,23.1206428 122.41,22.23 L122.41,22.23 Z" id="Shape" fill="#FB8A1C" stroke-width="1"/>
            <path d="M120.7,17.49 C120.435207,17.8024437 120.197672,18.1370006 119.99,18.49 C119.70098,17.9035407 119.537496,17.2632314 119.51,16.61 C120.171929,15.7484137 121.118031,15.1495703 122.18,14.92 C122.307683,15.4870736 122.538153,16.025965 122.86,16.51 C122.053692,16.5971488 121.296602,16.9406432 120.7,17.49 L120.7,17.49 Z" id="Shape" fill="#FB8A1C" stroke-width="1"/>
            <path d="M123.1,25.2 C121.86,24.7 121.64,24.2 120.58,22.95 C120.143402,22.4366858 119.736089,21.8991663 119.36,21.34 C118.92624,20.7488802 118.638409,20.0635673 118.52,19.34 C118.503617,19.1804194 118.503617,19.0195806 118.52,18.86 C118.613753,18.0279101 118.963117,17.2453356 119.52,16.62 C119.547496,17.2732314 119.71098,17.9135407 120,18.5 C120.161298,18.8469188 120.348494,19.1811975 120.56,19.5 L120.73,19.75 C121.17,20.37 122.01,21.62 122.42,22.26 C122.885539,23.1413242 123.652039,23.8262056 124.58,24.19 C124.149605,24.6107205 123.648661,24.9525803 123.1,25.2 L123.1,25.2 Z" id="Shape" fill="#FFB804" stroke-width="1"/>
            <path d="M126,17.59 C125.59,16.95 124.75,15.7 124.31,15.08 L124.14,14.83 L124.14,14.83 C125.1677,15.1965037 126.090881,15.8073818 126.83,16.61 C128.34,18.23 128.26,19.08 128.17,19.53 C127.23617,19.1665293 126.465391,18.4774461 126,17.59 Z" id="Shape" fill="#FB8A1C" stroke-width="1"/>
            <path d="M124.31,12.85 C124.045552,13.1627111 123.808038,13.4972377 123.6,13.85 C123.309863,13.2639539 123.146318,12.6234041 123.12,11.97 C123.750519,11.1502027 124.637876,10.5656743 125.64,10.31 C125.80382,10.8703081 126.057082,11.4004712 126.39,11.88 C125.611953,11.9766933 124.884157,12.3160981 124.31,12.85 L124.31,12.85 Z" id="Shape" fill="#FB8A1C" stroke-width="1"/>
            <path d="M126.72,20.56 C125.48,20.06 125.26,19.56 124.2,18.31 C123.713516,17.7371871 123.265852,17.1325068 122.86,16.5 C122.538153,16.015965 122.307683,15.4770736 122.18,14.91 C122.146769,14.6778499 122.146769,14.4421501 122.18,14.21 C122.272393,13.3745685 122.621799,12.5884056 123.18,11.96 C123.206318,12.6134041 123.369863,13.2539539 123.66,13.84 C123.821499,14.1868161 124.008687,14.52108 124.22,14.84 L124.39,15.09 C124.83,15.71 125.67,16.96 126.08,17.6 C126.544825,18.4818825 127.311564,19.1669779 128.24,19.53 C127.799538,19.9621198 127.284593,20.311063 126.72,20.56 Z" id="Shape" fill="#FFB804" stroke-width="1"/>
            <path d="M129.45,12.8 C129.04,12.16 128.19,10.91 127.76,10.29 L127.59,10.04 L127.59,10.04 C128.618243,10.4054167 129.541669,11.016457 130.28,11.82 C131.79,13.44 131.71,14.29 131.62,14.75 C130.684986,14.3832674 129.914219,13.6906428 129.45,12.8 L129.45,12.8 Z" id="Shape" fill="#FB8A1C" stroke-width="1"/>
            <path d="M127.74,8.06 C127.475476,8.37265226 127.237957,8.70718551 127.03,9.06 C126.741256,8.47343865 126.577788,7.83318855 126.55,7.18 C127.206926,6.32236308 128.145309,5.72392241 129.2,5.49 C129.35855,6.05361026 129.60854,6.58737294 129.94,7.07 C129.119355,7.15509027 128.347938,7.5022282 127.74,8.06 L127.74,8.06 Z" id="Shape" fill="#FB8A1C" stroke-width="1"/>
            <path d="M130.14,15.77 C128.9,15.27 128.68,14.77 127.62,13.52 C127.179347,12.9970092 126.768688,12.4494646 126.39,11.88 C126.057082,11.4004712 125.80382,10.8703081 125.64,10.31 C125.561156,10.0203546 125.534074,9.71906291 125.56,9.42 C125.653035,8.58474225 126.002358,7.79876559 126.56,7.17 C126.587788,7.82318855 126.751256,8.46343865 127.04,9.05 C127.202518,9.39629327 127.389665,9.73048401 127.6,10.05 L127.77,10.3 C128.21,10.92 129.05,12.17 129.46,12.81 C129.925539,13.6913242 130.692039,14.3762056 131.62,14.74 C131.190943,15.1675368 130.689963,15.5161923 130.14,15.77 L130.14,15.77 Z" id="Shape" fill="#FFB804" stroke-width="1"/>
            <path d="M133,8 C132.59,7.36 131.75,6.11 131.31,5.49 L131.14,5.24 L131.14,5.24 C132.16998,5.59786853 133.096876,6.20206784 133.84,7 C135.35,8.62 135.27,9.47 135.18,9.93 C134.244573,9.57026909 133.470458,8.88492878 133,8 L133,8 Z" id="Shape" fill="#FB8A1C" stroke-width="1"/>
            <path d="M131.3,3.26 C131.034894,3.57220008 130.797339,3.90678483 130.59,4.26 C130.301805,3.67323616 130.138366,3.03310318 130.11,2.38 C130.872167,1.34821866 132.050022,0.704422378 133.33,0.62 L133.79,2.24 C132.869751,2.29401356 131.993678,2.65288652 131.3,3.26 L131.3,3.26 Z" id="Shape" fill="#FB8A1C" stroke-width="1"/>
            <path d="M133.71,11 C132.47,10.5 132.25,10 131.19,8.75 C130.74536,8.22075751 130.33135,7.6665193 129.95,7.09 C129.61854,6.60737294 129.36855,6.07361026 129.21,5.51 C129.1372,5.22952309 129.113516,4.93855817 129.14,4.65 C129.232393,3.81456851 129.581799,3.02840563 130.14,2.4 C130.168366,3.05310318 130.331805,3.69323616 130.62,4.28 C130.782083,4.62651693 130.969247,4.96073857 131.18,5.28 L131.35,5.53 C131.79,6.15 132.63,7.4 133.04,8.04 C133.508,8.92312255 134.278306,9.60823285 135.21,9.97 C134.774961,10.399477 134.267066,10.7482317 133.71,11 Z" id="Shape" fill="#FFB804" stroke-width="1"/>
            <ellipse id="Oval" fill="#F24106" cx="38.31" cy="77.58" rx="2.22" ry="2.09" stroke-width="1"/>
            <ellipse id="Oval" fill="#FBB83E" cx="171.63" cy="125.91" rx="3.21" ry="3.04" stroke-width="1"/>
            <ellipse id="Oval" fill="#FBB83E" cx="112.34" cy="164.09" rx="1.57" ry="1.48" stroke-width="1"/>
            <ellipse id="Oval" fill="#FBB83E" cx="140.22" cy="24.71" rx="3.38" ry="3.19" stroke-width="1"/>
            <ellipse id="Oval" fill="#FBB83E" cx="30.86" cy="158.42" rx="1.62" ry="1.53" stroke-width="1"/>
            <ellipse id="Oval" fill="#FBB83E" cx="78.29" cy="82.64" rx="1" ry="1" stroke-width="1"/>
            <ellipse id="Oval" fill="#E00739" cx="184.89" cy="91.2" rx="2.9" ry="2.74" stroke-width="1"/>
            <ellipse id="Oval" fill="#E00739" cx="115.46" cy="143.16" rx="1" ry="1" stroke-width="1"/>
            <ellipse id="Oval" fill="#E00739" cx="78.74" cy="156.9" rx="1.27" ry="1.2" stroke-width="1"/>
        </g>
    </g>
</svg>