<?xml version="1.0" encoding="UTF-8"?><svg xmlns="http://www.w3.org/2000/svg" xmlns:xlink="http://www.w3.org/1999/xlink" width="86.1235580444336" height="145.4904327392578" viewBox="0.36000001430511475 0.06999999284744263 86.1235580444336 145.4904327392578" version="1.1">
    <!-- Generator: Sketch 46.2 (44496) - http://www.bohemiancoding.com/sketch -->
    <title>fireworks 4-a</title>
    <desc>Created with Sketch.</desc>
    <defs/>
    <g id="Page-1" stroke="none" fill-rule="evenodd">
        <g id="fireworks-4-a">
            <path d="M24.28,124.53 C24.28,124.53 20.98,127.26 12.56,127.22 C4.94,127.22 0.86,124.43 0.86,124.43 L1.12,64.71 C4.98967345,64.0695395 8.90790475,63.7683945 12.83,63.81 C16.7473395,63.854356 20.6568194,64.1717924 24.53,64.76 L24.28,124.53 Z" id="Shape" fill="#F24E4E" fill-rule="nonzero" stroke-width="1"/>
            <ellipse id="Oval" fill="#EA2424" fill-rule="nonzero" transform="matrix(0.004363309284746804,-0.9999904807207345,0.9999904807207345,0.004363309284746804,-51.81227705597933,77.15126658217626)" cx="12.8381806" cy="64.5950561" rx="1.73" ry="11.71" stroke-width="1"/>
            <path d="M24.3,120.13 L24.3,118.49 C20.3594665,119.512733 16.3106488,120.059961 12.24,120.12 C8.39510623,120.02952 4.57752926,119.448146 0.88,118.39 L0.88,120 C4.54349051,121.092381 8.33786106,121.684411 12.16,121.76 C16.2525744,121.643204 20.321563,121.096874 24.3,120.13 Z" id="Shape" fill="#FCD39F" fill-rule="nonzero" stroke-width="1"/>
            <path d="M24.31,117.23 L24.31,115.59 C16.65,118 8.49,117.54 0.89,115.49 L0.89,117.14 C4.55609893,118.212907 8.35052885,118.784763 12.17,118.84 C15.95,118.85 20.66,118.66 24.31,117.23 Z" id="Shape" fill="#FCD39F" fill-rule="nonzero" stroke-width="1"/>
            <path d="M24.51,72.42 L24.51,70.77 C16.8105824,72.6397406 8.76805496,72.5744659 1.1,70.58 L1.1,72.23 C4.77005262,73.2735441 8.56455084,73.8151347 12.38,73.84 C16.4619536,73.7935301 20.5276812,73.3175752 24.51,72.42 L24.51,72.42 Z" id="Shape" fill="#FCD39F" fill-rule="nonzero" stroke-width="1"/>
            <path d="M41.1,119.91 C41.1,119.91 37.8,122.64 29.38,122.6 C21.76,122.6 17.68,119.81 17.68,119.81 L17.94,60.09 C21.8096734,59.4495395 25.7279047,59.1483945 29.65,59.19 C33.5673395,59.234356 37.4768194,59.5517924 41.35,60.14 L41.1,119.91 Z" id="Shape" fill="#F24E4E" fill-rule="nonzero" stroke-width="1"/>
            <ellipse id="Oval" fill="#EA2424" fill-rule="nonzero" transform="matrix(0.004363309284746804,-0.9999904807207345,0.9999904807207345,0.004363309284746804,-30.452251247711168,89.36470101057151)" cx="29.6516154" cy="59.9750578" rx="1.73" ry="11.71" stroke-width="1"/>
            <path d="M41.12,115.51 L41.12,113.87 C37.1794665,114.892733 33.1306488,115.439961 29.06,115.5 C25.2151062,115.40952 21.3975293,114.828146 17.7,113.77 L17.7,115.42 C21.3699279,116.514163 25.1711465,117.106211 29,117.18 C33.0872837,117.048701 37.1495161,116.488971 41.12,115.51 L41.12,115.51 Z" id="Shape" fill="#FCD39F" fill-rule="nonzero" stroke-width="1"/>
            <path d="M41.13,112.61 L41.13,111 C33.47,113.41 25.31,112.95 17.71,110.9 L17.71,112.55 C21.3760989,113.622907 25.1705288,114.194763 28.99,114.25 C32.76,114.23 37.47,114 41.13,112.61 Z" id="Shape" fill="#FCD39F" fill-rule="nonzero" stroke-width="1"/>
            <path d="M41.33,67.8 L41.33,66.16 C33.6330562,68.0395682 25.5905334,67.9846001 17.92,66 L17.92,67.65 C21.5900526,68.6935441 25.3845508,69.2351347 29.2,69.26 C33.2833681,69.2004 37.3491131,68.7110358 41.33,67.8 Z" id="Shape" fill="#FCD39F" fill-rule="nonzero" stroke-width="1"/>
            <path d="M63,119 C63,119 59.7,121.73 51.28,121.69 C43.66,121.69 39.58,118.9 39.58,118.9 L39.84,59.18 C43.7096734,58.5395395 47.6279047,58.2383945 51.55,58.28 C55.4673395,58.324356 59.3768194,58.6417924 63.25,59.23 L63,119 Z" id="Shape" fill="#F24E4E" fill-rule="nonzero" stroke-width="1"/>
            <ellipse id="Oval" fill="#EA2424" fill-rule="nonzero" transform="matrix(0.004363309284746804,-0.9999904807207345,0.9999904807207345,0.004363309284746804,-7.76864431920076,110.40023840763456)" cx="51.5571803" cy="59.1014265" rx="1.73" ry="11.71" stroke-width="1"/>
            <path d="M63,114.63 L63,113 C59.0781191,114.011252 55.0497388,114.551726 51,114.61 C47.1551062,114.51952 43.3375293,113.938146 39.64,112.88 L39.64,114.53 C43.3034905,115.622381 47.0978611,116.214411 50.92,116.29 C54.9935164,116.159193 59.0421929,115.602836 63,114.63 L63,114.63 Z" id="Shape" fill="#FCD39F" fill-rule="nonzero" stroke-width="1"/>
            <path d="M63,111.73 L63,110.09 C55.34,112.5 47.18,112.04 39.58,109.99 L39.58,111.64 C43.2460989,112.712907 47.0405288,113.284763 50.86,113.34 C54.67,113.34 59.38,113.16 63,111.73 Z" id="Shape" fill="#FCD39F" fill-rule="nonzero" stroke-width="1"/>
            <path d="M63.23,66.92 L63.23,65.27 C55.5305824,67.1397406 47.488055,67.0744659 39.82,65.08 L39.82,66.73 C43.4900526,67.7735441 47.2845508,68.3151347 51.1,68.34 C55.1819536,68.2935301 59.2476812,67.8175752 63.23,66.92 Z" id="Shape" fill="#FCD39F" fill-rule="nonzero" stroke-width="1"/>
            <path d="M25.29,133.59 C25.29,133.59 21.99,136.32 13.57,136.28 C5.95,136.28 1.87,133.49 1.87,133.49 L2.13,73.77 C5.99967345,73.1295395 9.91790475,72.8283945 13.84,72.87 C17.7573395,72.914356 21.6668194,73.2317924 25.54,73.82 L25.29,133.59 Z" id="Shape" fill="#F24E4E" fill-rule="nonzero" stroke-width="1"/>
            <ellipse id="Oval" fill="#EA2424" fill-rule="nonzero" transform="matrix(0.004363309284746804,-0.9999904807207345,0.9999904807207345,0.004363309284746804,-59.881793879266596,87.18554480932002)" cx="13.8425013" cy="73.6645973" rx="1.73" ry="11.71" stroke-width="1"/>
            <path d="M25.31,129.19 L25.31,127.55 C21.3694665,128.572733 17.3206488,129.119961 13.25,129.18 C9.40510623,129.08952 5.58752926,128.508146 1.89,127.45 L1.89,129.1 C5.55349051,130.192381 9.34786106,130.784411 13.17,130.86 C17.2639909,130.730097 21.3329991,130.170357 25.31,129.19 L25.31,129.19 Z" id="Shape" fill="#FCD39F" fill-rule="nonzero" stroke-width="1"/>
            <path d="M25.33,126.29 L25.33,124.65 C17.67,127.06 9.51,126.6 1.91,124.55 L1.91,126.2 C5.57609893,127.272907 9.37052885,127.844763 13.19,127.9 C17,127.91 21.67,127.72 25.33,126.29 Z" id="Shape" fill="#FCD39F" fill-rule="nonzero" stroke-width="1"/>
            <path d="M25.52,81.48 L25.52,79.84 C17.8205824,81.7097406 9.77805496,81.6444659 2.11,79.65 L2.11,81.3 C5.78005262,82.3435441 9.57455084,82.8851347 13.39,82.91 C17.4723071,82.8602471 21.538039,82.3809399 25.52,81.48 L25.52,81.48 Z" id="Shape" fill="#FCD39F" fill-rule="nonzero" stroke-width="1"/>
            <path d="M56.89,130.64 C56.89,130.64 53.59,133.37 45.17,133.33 C37.55,133.33 33.47,130.54 33.47,130.54 L33.73,70.82 C37.5996734,70.1795395 41.5179047,69.8783945 45.44,69.92 C49.3573395,69.964356 53.2668194,70.2817924 57.14,70.87 L56.89,130.64 Z" id="Shape" fill="#F24E4E" fill-rule="nonzero" stroke-width="1"/>
            <ellipse id="Oval" fill="#EA2424" fill-rule="nonzero" transform="matrix(0.004363309284746804,-0.9999904807207345,0.9999904807207345,0.004363309284746804,-25.459213530525574,115.83350863355106)" cx="45.44041" cy="70.7020264" rx="1.73" ry="11.71" stroke-width="1"/>
            <path d="M56.91,126.24 L56.91,124.6 C52.9694665,125.622733 48.9206488,126.169961 44.85,126.23 C41.0051062,126.13952 37.1875293,125.558146 33.49,124.5 L33.49,126.15 C37.1534905,127.242381 40.9478611,127.834411 44.77,127.91 C48.8639909,127.780097 52.9329991,127.220357 56.91,126.24 Z" id="Shape" fill="#FCD39F" fill-rule="nonzero" stroke-width="1"/>
            <path d="M56.92,123.34 L56.92,121.7 C49.26,124.11 41.1,123.65 33.5,121.6 L33.5,123.25 C37.1660989,124.322907 40.9605288,124.894763 44.78,124.95 C48.55,125 53.26,124.77 56.92,123.34 Z" id="Shape" fill="#FCD39F" fill-rule="nonzero" stroke-width="1"/>
            <path d="M57.12,78.53 L57.12,76.88 C49.4205824,78.7497406 41.378055,78.6844659 33.71,76.69 L33.71,78.34 C37.3809474,79.4013488 41.178914,79.9597743 45,80 C49.080374,79.9364174 53.142735,79.4437053 57.12,78.53 L57.12,78.53 Z" id="Shape" fill="#FCD39F" fill-rule="nonzero" stroke-width="1"/>
            <path d="M83.45,123 C83.45,123 80.15,125.73 71.73,125.69 C64.11,125.69 60.03,122.9 60.03,122.9 L60.29,63.18 C64.1596734,62.5395395 68.0779047,62.2383945 72,62.28 C75.9173395,62.324356 79.8268194,62.6417924 83.7,63.23 L83.45,123 Z" id="Shape" fill="#F24E4E" fill-rule="nonzero" stroke-width="1"/>
            <ellipse id="Oval" fill="#EA2424" fill-rule="nonzero" transform="matrix(0.004363309284746804,-0.9999904807207345,0.9999904807207345,0.004363309284746804,8.613799394984511,134.80944042158652)" cx="72.0063721" cy="63.0789872" rx="1.73" ry="11.71" stroke-width="1"/>
            <path d="M83.47,118.61 L83.47,117 C79.5294665,118.022733 75.4806488,118.569961 71.41,118.63 C67.5651062,118.53952 63.7475293,117.958146 60.05,116.9 L60.05,118.55 C63.7134905,119.642381 67.5078611,120.234411 71.33,120.31 C75.4250543,120.17027 79.4940777,119.600472 83.47,118.61 Z" id="Shape" fill="#FCD39F" fill-rule="nonzero" stroke-width="1"/>
            <path d="M83.49,115.71 L83.49,114.07 C75.83,116.48 67.67,116.02 60.07,113.97 L60.07,115.62 C63.7360989,116.692907 67.5305288,117.264763 71.35,117.32 C75.12,117.33 79.83,117.14 83.49,115.71 Z" id="Shape" fill="#FCD39F" fill-rule="nonzero" stroke-width="1"/>
            <path d="M83.68,70.9 L83.68,69.25 C75.9805824,71.1197406 67.938055,71.0544659 60.27,69.06 L60.27,70.71 C63.9400526,71.7535441 67.7345508,72.2951347 71.55,72.32 C75.6319536,72.2735301 79.6976812,71.7975752 83.68,70.9 L83.68,70.9 Z" id="Shape" fill="#FCD39F" fill-rule="nonzero" stroke-width="1"/>
            <path d="M85.72,134.23 C85.72,134.23 82.42,136.96 74,136.92 C66.38,136.92 62.3,134.13 62.3,134.13 L62.56,74.41 C66.4296734,73.7695395 70.3479047,73.4683945 74.27,73.51 C78.1873395,73.554356 82.0968194,73.8717924 85.97,74.46 L85.72,134.23 Z" id="Shape" fill="#F24E4E" fill-rule="nonzero" stroke-width="1"/>
            <ellipse id="Oval" fill="#EA2424" fill-rule="nonzero" transform="matrix(0.004363309284746804,-0.9999904807207345,0.9999904807207345,0.004363309284746804,-0.3551778140402746,148.23919903948433)" cx="74.2661264" cy="74.297965" rx="1.73" ry="11.71" stroke-width="1"/>
            <path d="M85.74,129.83 L85.74,128.19 C81.7994665,129.212733 77.7506488,129.759961 73.68,129.82 C69.8351062,129.72952 66.0175293,129.148146 62.32,128.09 L62.32,129.74 C65.9834905,130.832381 69.7778611,131.424411 73.6,131.5 C77.6939909,131.370097 81.7629991,130.810357 85.74,129.83 Z" id="Shape" fill="#FCD39F" fill-rule="nonzero" stroke-width="1"/>
            <path d="M85.75,126.93 L85.75,125.29 C78.09,127.7 69.93,127.24 62.33,125.19 L62.33,126.84 C65.9960989,127.912907 69.7905288,128.484763 73.61,128.54 C77.38,128.55 82.09,128.36 85.75,126.93 Z" id="Shape" fill="#FCD39F" fill-rule="nonzero" stroke-width="1"/>
            <path d="M85.94,82.12 L85.94,80.48 C78.2405824,82.3497406 70.198055,82.2844659 62.53,80.29 L62.53,81.94 C66.2000526,82.9835441 69.9945508,83.5251347 73.81,83.55 C77.8923071,83.5002471 81.958039,83.0209399 85.94,82.12 L85.94,82.12 Z" id="Shape" fill="#FCD39F" fill-rule="nonzero" stroke-width="1"/>
            <path d="M73.88,141.57 C73.88,141.57 70.58,144.3 62.16,144.26 C54.54,144.26 50.46,141.47 50.46,141.47 L50.72,81.75 C54.5896734,81.1095395 58.5079047,80.8083945 62.43,80.85 C66.3473395,80.894356 70.2568194,81.2117924 74.13,81.8 L73.88,141.57 Z" id="Shape" fill="#F24E4E" fill-rule="nonzero" stroke-width="1"/>
            <ellipse id="Oval" fill="#EA2424" fill-rule="nonzero" transform="matrix(0.004363309284746804,-0.9999904807207345,0.9999904807207345,0.004363309284746804,-19.48717132697201,143.72745980243346)" cx="62.4343948" cy="81.6499226" rx="1.73" ry="11.71" stroke-width="1"/>
            <path d="M73.9,137.17 L73.9,135.53 C69.9594665,136.552733 65.9106488,137.099961 61.84,137.16 C57.9951062,137.06952 54.1775293,136.488146 50.48,135.43 L50.48,137.08 C54.1434905,138.172381 57.9378611,138.764411 61.76,138.84 C65.8539909,138.710097 69.9229991,138.150357 73.9,137.17 L73.9,137.17 Z" id="Shape" fill="#FCD39F" fill-rule="nonzero" stroke-width="1"/>
            <path d="M73.91,134.28 L73.91,132.64 C66.25,135.05 58.09,134.59 50.49,132.54 L50.49,134.19 C54.1560989,135.262907 57.9505288,135.834763 61.77,135.89 C65.54,135.89 70.25,135.7 73.91,134.28 Z" id="Shape" fill="#FCD39F" fill-rule="nonzero" stroke-width="1"/>
            <path d="M74.11,89.46 L74.11,87.82 C66.4105824,89.6897406 58.368055,89.6244659 50.7,87.63 L50.7,89.28 C54.3765005,90.3253334 58.1778479,90.8669413 62,90.89 C66.0756134,90.8388463 70.1345686,90.3595477 74.11,89.46 Z" id="Shape" fill="#FCD39F" fill-rule="nonzero" stroke-width="1"/>
            <path d="M33.39,140.26 C33.39,140.26 30.09,143 21.67,143 C14.05,143 9.97,140.21 9.97,140.21 L10.23,80.49 C14.0996734,79.8495395 18.0179047,79.5483945 21.94,79.59 C25.8573395,79.634356 29.7668194,79.9517924 33.64,80.54 L33.39,140.26 Z" id="Shape" fill="#F24E4E" fill-rule="nonzero" stroke-width="1"/>
            <ellipse id="Oval" fill="#EA2424" fill-rule="nonzero" transform="matrix(0.004363309284746804,-0.9999904807207345,0.9999904807207345,0.004363309284746804,-58.49108394936192,101.94078413322092)" cx="21.9477369" cy="80.3438213" rx="1.73" ry="11.71" stroke-width="1"/>
            <path d="M33.41,135.87 L33.41,134.23 C29.4694665,135.252733 25.4206488,135.799961 21.35,135.86 C17.5080318,135.765415 13.6938608,135.180688 10,134.12 L10,135.77 C13.6634905,136.862381 17.4578611,137.454411 21.28,137.53 C25.3702833,137.402675 29.4358986,136.846293 33.41,135.87 L33.41,135.87 Z" id="Shape" fill="#FCD39F" fill-rule="nonzero" stroke-width="1"/>
            <path d="M33.42,133 L33.42,131.36 C25.76,133.77 17.6,133.31 10,131.26 L10,132.91 C13.6660989,133.982907 17.4605288,134.554763 21.28,134.61 C25.05,134.58 29.76,134.4 33.42,133 Z" id="Shape" fill="#FCD39F" fill-rule="nonzero" stroke-width="1"/>
            <path d="M33.62,88.15 L33.62,86.51 C25.9205824,88.3797406 17.878055,88.3144659 10.21,86.32 L10.21,88 C13.8800526,89.0435441 17.6745508,89.5851347 21.49,89.61 C25.5733681,89.5504 29.6391131,89.0610358 33.62,88.15 L33.62,88.15 Z" id="Shape" fill="#FCD39F" fill-rule="nonzero" stroke-width="1"/>
            <path d="M54.37,142.37 C54.37,142.37 51.07,145.1 42.65,145.06 C35.03,145.06 30.95,142.27 30.95,142.27 L31.21,82.55 C35.0796734,81.9095395 38.9979047,81.6083945 42.92,81.65 C46.8373395,81.694356 50.7468194,82.0117924 54.62,82.6 L54.37,142.37 Z" id="Shape" fill="#F24E4E" fill-rule="nonzero" stroke-width="1"/>
            <ellipse id="Oval" fill="#EA2424" fill-rule="nonzero" transform="matrix(0.004363309284746804,-0.9999904807207345,0.9999904807207345,0.004363309284746804,-39.690410121868375,125.00239686685762)" cx="42.9293028" cy="82.433184" rx="1.73" ry="11.71" stroke-width="1"/>
            <path d="M54.39,138 L54.39,136.36 C50.4531202,137.385317 46.4077005,137.935897 42.34,138 C38.499664,137.89155 34.6888737,137.293384 31,136.22 L31,137.87 C34.6634905,138.962381 38.4578611,139.554411 42.28,139.63 C46.362517,139.511112 50.4213418,138.964796 54.39,138 Z" id="Shape" fill="#FCD39F" fill-rule="nonzero" stroke-width="1"/>
            <path d="M54.41,135.07 L54.41,133.43 C46.75,135.84 38.59,135.38 30.99,133.33 L30.99,135 C34.6560989,136.072907 38.4505288,136.644763 42.27,136.7 C46,136.68 50.75,136.5 54.41,135.07 Z" id="Shape" fill="#FCD39F" fill-rule="nonzero" stroke-width="1"/>
            <path d="M54.6,90.26 L54.6,88.62 C46.9005824,90.4897406 38.858055,90.4244659 31.19,88.43 L31.19,90.08 C34.8600526,91.1235441 38.6545508,91.6651347 42.47,91.69 C46.5523071,91.6402471 50.618039,91.1609399 54.6,90.26 Z" id="Shape" fill="#FCD39F" fill-rule="nonzero" stroke-width="1"/>
            <path d="M48.77,30.7 C46.2128622,43.5351949 45.1125647,56.6179999 45.49,69.7" id="Shape" stroke="#405D7B" stroke-linecap="round" stroke-width="1" fill="none"/>
            <path d="M34.96,45.77 L34.96,55.58" id="Shape" stroke="#FFD45C" stroke-width="0.75" stroke-linecap="round" fill="none"/>
            <path d="M51.03,45.21 L59.53,50.11" id="Shape" stroke="#FFD45C" stroke-width="0.75" stroke-linecap="round" fill="none"/>
            <path d="M44.98,30.78 L53.48,25.88" id="Shape" stroke="#FFD45C" stroke-width="0.75" stroke-linecap="round" fill="none"/>
            <path d="M34.96,30.54 L34.96,20.73" id="Shape" stroke="#FFD45C" stroke-width="0.75" stroke-linecap="round" fill="none"/>
            <path d="M26.04,30.78 L17.55,25.88" id="Shape" stroke="#FFD45C" stroke-width="0.75" stroke-linecap="round" fill="none"/>
            <path d="M25.4,39.84 L18.46,46.77" id="Shape" stroke="#FFD45C" stroke-width="0.75" stroke-linecap="round" fill="none"/>
            <path d="M46,36.22 C47.107164,33.706037 46.5829598,30.7720708 44.6737577,28.7970342 C42.7645557,26.8219976 39.8500392,26.1986666 37.3,27.22 C36.391167,25.2792262 34.3994055,24.0802892 32.2589618,24.1855569 C30.1185181,24.2908246 28.254012,25.6794141 27.54,27.7 C25.6450033,27.3100515 23.7032062,28.1109297 22.6340911,29.7234015 C21.5649761,31.3358733 21.5831472,33.4362666 22.68,35.03 C22.1367623,35.9624415 21.8471574,37.0208785 21.84,38.1 C21.84,41.5517797 24.6382203,44.35 28.09,44.35 L28.25,44.35 C28.5392079,45.6210092 29.5813838,46.5825978 30.8715131,46.768802 C32.1616424,46.9550063 33.4331927,46.3273575 34.07,45.19 C36.6607615,48.1242306 41.0739948,48.568747 44.197872,46.2101149 C47.3217492,43.8514828 48.1026713,39.4852047 45.99,36.19 L46,36.22 Z" id="Shape" fill="#F7E1C6" fill-rule="nonzero" stroke-width="1"/>
            <path d="M38.43,44 L42.72,51.42" id="Shape" stroke="#FFD45C" stroke-width="0.75" stroke-linecap="round" fill="none"/>
            <path d="M42.92,37.99 L51.49,37.99" id="Shape" stroke="#FFD45C" stroke-width="0.75" stroke-linecap="round" fill="none"/>
            <path d="M37.21,31.81 L41.49,24.39" id="Shape" stroke="#FFD45C" stroke-width="0.75" stroke-linecap="round" fill="none"/>
            <path d="M30.66,30.54 L26.38,23.12" id="Shape" stroke="#FFD45C" stroke-width="0.75" stroke-linecap="round" fill="none"/>
            <path d="M20.99,36.04 L12.43,36.04" id="Shape" stroke="#FFD45C" stroke-width="0.75" stroke-linecap="round" fill="none"/>
            <path d="M26.38,50.57 L22.1,57.99" id="Shape" stroke="#FFD45C" stroke-width="0.75" stroke-linecap="round" fill="none"/>
            <path d="M26.53,11.34 L27.11,13.31" id="Shape" stroke="#FFD45C" stroke-width="0.75" stroke-linecap="round" fill="none"/>
            <path d="M50.23,20.78 L49.16,21.98" id="Shape" stroke="#FFD45C" stroke-width="0.75" stroke-linecap="round" fill="none"/>
            <path d="M11.1,44.29 L14.77,42.43" id="Shape" stroke="#FFD45C" stroke-width="0.75" stroke-linecap="round" fill="none"/>
            <path d="M7.95,25.63 L10.97,26.83" id="Shape" stroke="#FFD45C" stroke-width="0.75" stroke-linecap="round" fill="none"/>
            <path d="M40.15,57.71 L41,61.39" id="Shape" stroke="#FFD45C" stroke-width="0.75" stroke-linecap="round" fill="none"/>
            <path d="M28.34,41.65 L25.3,45.07" id="Shape" stroke="#FFD45C" stroke-width="0.75" stroke-linecap="round" fill="none"/>
            <path d="M58.77,46.78 L58.77,56.59" id="Shape" stroke="#FFD45C" stroke-width="0.75" stroke-linecap="round" fill="none"/>
            <path d="M74.84,46.21 L83.33,51.11" id="Shape" stroke="#FFD45C" stroke-width="0.75" stroke-linecap="round" fill="none"/>
            <path d="M68.79,31.78 L77.28,26.88" id="Shape" stroke="#FFD45C" stroke-width="0.75" stroke-linecap="round" fill="none"/>
            <path d="M58.77,31.54 L58.77,21.73" id="Shape" stroke="#FFD45C" stroke-width="0.75" stroke-linecap="round" fill="none"/>
            <path d="M49.85,31.78 L41.36,26.88" id="Shape" stroke="#FFD45C" stroke-width="0.75" stroke-linecap="round" fill="none"/>
            <path d="M49.2,40.84 L42.27,47.78" id="Shape" stroke="#FFD45C" stroke-width="0.75" stroke-linecap="round" fill="none"/>
            <path d="M69.76,37.22 C70.867164,34.706037 70.3429598,31.7720708 68.4337577,29.7970342 C66.5245557,27.8219976 63.6100392,27.1986666 61.06,28.22 C60.151167,26.2792262 58.1594055,25.0802892 56.0189618,25.1855569 C53.8785181,25.2908246 52.014012,26.6794141 51.3,28.7 C49.4050033,28.3100515 47.4632062,29.1109297 46.3940911,30.7234015 C45.3249761,32.3358733 45.3431472,34.4362666 46.44,36.03 C45.8967623,36.9624415 45.6071574,38.0208785 45.6,39.1 C45.6,42.5517797 48.3982203,45.35 51.85,45.35 L52.01,45.35 C52.2992079,46.6210092 53.3413838,47.5825978 54.6315131,47.768802 C55.9216424,47.9550063 57.1931927,47.3273575 57.83,46.19 C60.4207615,49.1242306 64.8339948,49.568747 67.957872,47.2101149 C71.0817492,44.8514828 71.8626713,40.4852047 69.75,37.19 L69.76,37.22 Z" id="Shape" fill="#F7E1C6" fill-rule="nonzero" stroke-width="1"/>
            <path d="M62.24,45 L66.52,52.42" id="Shape" stroke="#FFD45C" stroke-width="0.75" stroke-linecap="round" fill="none"/>
            <path d="M66.73,39 L75.3,39" id="Shape" stroke="#FFD45C" stroke-width="0.75" stroke-linecap="round" fill="none"/>
            <path d="M61.02,32.81 L65.3,25.4" id="Shape" stroke="#FFD45C" stroke-width="0.75" stroke-linecap="round" fill="none"/>
            <path d="M54.47,31.54 L50.19,24.12" id="Shape" stroke="#FFD45C" stroke-width="0.75" stroke-linecap="round" fill="none"/>
            <path d="M44.8,37.05 L36.23,37.05" id="Shape" stroke="#FFD45C" stroke-width="0.75" stroke-linecap="round" fill="none"/>
            <path d="M50.19,51.57 L45.9,58.99" id="Shape" stroke="#FFD45C" stroke-width="0.75" stroke-linecap="round" fill="none"/>
            <path d="M50.33,12.34 L50.92,14.32" id="Shape" stroke="#FFD45C" stroke-width="0.75" stroke-linecap="round" fill="none"/>
            <path d="M74.04,21.78 L72.97,22.98" id="Shape" stroke="#FFD45C" stroke-width="0.75" stroke-linecap="round" fill="none"/>
            <path d="M34.91,45.29 L38.57,43.43" id="Shape" stroke="#FFD45C" stroke-width="0.75" stroke-linecap="round" fill="none"/>
            <path d="M31.76,26.63 L34.78,27.83" id="Shape" stroke="#FFD45C" stroke-width="0.75" stroke-linecap="round" fill="none"/>
            <path d="M63.96,58.71 L64.81,62.4" id="Shape" stroke="#FFD45C" stroke-width="0.75" stroke-linecap="round" fill="none"/>
            <path d="M52.14,42.66 L49.11,46.07" id="Shape" stroke="#FFD45C" stroke-width="0.75" stroke-linecap="round" fill="none"/>
            <path d="M46.43,55.65 L46.43,65.46" id="Shape" stroke="#FFD45C" stroke-width="0.75" stroke-linecap="round" fill="none"/>
            <path d="M62.5,55.09 L70.99,59.99" id="Shape" stroke="#FFD45C" stroke-width="0.75" stroke-linecap="round" fill="none"/>
            <path d="M56.45,40.66 L64.94,35.76" id="Shape" stroke="#FFD45C" stroke-width="0.75" stroke-linecap="round" fill="none"/>
            <path d="M46.43,40.42 L46.43,30.61" id="Shape" stroke="#FFD45C" stroke-width="0.75" stroke-linecap="round" fill="none"/>
            <path d="M37.51,40.66 L29.02,35.76" id="Shape" stroke="#FFD45C" stroke-width="0.75" stroke-linecap="round" fill="none"/>
            <path d="M36.86,49.72 L29.93,56.65" id="Shape" stroke="#FFD45C" stroke-width="0.75" stroke-linecap="round" fill="none"/>
            <path d="M57.42,46.1 C58.527164,43.586037 58.0029598,40.6520708 56.0937577,38.6770342 C54.1845557,36.7019976 51.2700392,36.0786666 48.72,37.1 C47.811167,35.1592262 45.8194055,33.9602892 43.6789618,34.0655569 C41.5385181,34.1708246 39.674012,35.5594141 38.96,37.58 C37.0346941,37.1511441 35.045035,37.9594308 33.9642729,39.6094833 C32.8835107,41.2595358 32.9375671,43.4064286 34.1,45 C33.5567623,45.9324415 33.2671574,46.9908785 33.26,48.07 C33.26,51.5217797 36.0582203,54.32 39.51,54.32 L39.67,54.32 C39.9592079,55.5910092 41.0013838,56.5525978 42.2915131,56.738802 C43.5816424,56.9250063 44.8531927,56.2973575 45.49,55.16 C48.0807615,58.0942306 52.4939948,58.538747 55.617872,56.1801149 C58.7417492,53.8214828 59.5226713,49.4552047 57.41,46.16 L57.42,46.1 Z" id="Shape" fill="#F7E1C6" fill-rule="nonzero" stroke-width="1"/>
            <path d="M49.9,53.88 L54.18,61.3" id="Shape" stroke="#FFD45C" stroke-width="0.75" stroke-linecap="round" fill="none"/>
            <path d="M54.39,47.87 L62.96,47.87" id="Shape" stroke="#FFD45C" stroke-width="0.75" stroke-linecap="round" fill="none"/>
            <path d="M48.68,41.69 L52.96,34.27" id="Shape" stroke="#FFD45C" stroke-width="0.75" stroke-linecap="round" fill="none"/>
            <path d="M42.13,40.42 L37.85,33" id="Shape" stroke="#FFD45C" stroke-width="0.75" stroke-linecap="round" fill="none"/>
            <path d="M32.46,45.92 L23.89,45.92" id="Shape" stroke="#FFD45C" stroke-width="0.75" stroke-linecap="round" fill="none"/>
            <path d="M37.85,60.45 L33.56,67.87" id="Shape" stroke="#FFD45C" stroke-width="0.75" stroke-linecap="round" fill="none"/>
            <path d="M37.99,21.22 L38.58,23.2" id="Shape" stroke="#FFD45C" stroke-width="0.75" stroke-linecap="round" fill="none"/>
            <path d="M61.7,30.66 L60.63,31.86" id="Shape" stroke="#FFD45C" stroke-width="0.75" stroke-linecap="round" fill="none"/>
            <path d="M22.57,54.17 L26.23,52.31" id="Shape" stroke="#FFD45C" stroke-width="0.75" stroke-linecap="round" fill="none"/>
            <path d="M19.42,35.51 L22.44,36.71" id="Shape" stroke="#FFD45C" stroke-width="0.75" stroke-linecap="round" fill="none"/>
            <path d="M51.62,67.59 L52.47,71.27" id="Shape" stroke="#FFD45C" stroke-width="0.75" stroke-linecap="round" fill="none"/>
            <path d="M39.8,51.53 L36.77,54.95" id="Shape" stroke="#FFD45C" stroke-width="0.75" stroke-linecap="round" fill="none"/>
            <path d="M46.97,35.01 L46.97,44.82" id="Shape" stroke="#FFD45C" stroke-width="0.75" stroke-linecap="round" fill="none"/>
            <path d="M63.04,34.44 L71.53,39.35" id="Shape" stroke="#FFD45C" stroke-width="0.75" stroke-linecap="round" fill="none"/>
            <path d="M56.99,20.02 L65.48,15.11" id="Shape" stroke="#FFD45C" stroke-width="0.75" stroke-linecap="round" fill="none"/>
            <path d="M46.97,19.77 L46.97,9.96" id="Shape" stroke="#FFD45C" stroke-width="0.75" stroke-linecap="round" fill="none"/>
            <path d="M38.05,20.02 L29.56,15.11" id="Shape" stroke="#FFD45C" stroke-width="0.75" stroke-linecap="round" fill="none"/>
            <path d="M37.4,29.07 L30.47,36.01" id="Shape" stroke="#FFD45C" stroke-width="0.75" stroke-linecap="round" fill="none"/>
            <path d="M58,25.46 C59.107164,22.946037 58.5829598,20.0120708 56.6737577,18.0370342 C54.7645557,16.0619976 51.8500392,15.4386666 49.3,16.46 C48.391167,14.5192262 46.3994055,13.3202892 44.2589618,13.4255569 C42.1185181,13.5308246 40.254012,14.9194141 39.54,16.94 C37.6450033,16.5500515 35.7032062,17.3509297 34.6340911,18.9634015 C33.5649761,20.5758733 33.5831472,22.6762666 34.68,24.27 C34.1367623,25.2024415 33.8471574,26.2608785 33.84,27.34 C33.84,30.7917797 36.6382203,33.59 40.09,33.59 L40.25,33.59 C40.5392079,34.8610092 41.5813838,35.8225978 42.8715131,36.008802 C44.1616424,36.1950063 45.4331927,35.5673575 46.07,34.43 C48.6607615,37.3642306 53.0739948,37.808747 56.197872,35.4501149 C59.3217492,33.0914828 60.1026713,28.7252047 57.99,25.43 L58,25.46 Z" id="Shape" fill="#F7E1C6" fill-rule="nonzero" stroke-width="1"/>
            <path d="M50.44,33.23 L54.73,40.65" id="Shape" stroke="#FFD45C" stroke-width="0.75" stroke-linecap="round" fill="none"/>
            <path d="M54.93,27.23 L63.5,27.23" id="Shape" stroke="#FFD45C" stroke-width="0.75" stroke-linecap="round" fill="none"/>
            <path d="M49.22,21.05 L53.5,13.63" id="Shape" stroke="#FFD45C" stroke-width="0.75" stroke-linecap="round" fill="none"/>
            <path d="M42.67,19.77 L38.39,12.35" id="Shape" stroke="#FFD45C" stroke-width="0.75" stroke-linecap="round" fill="none"/>
            <path d="M33,25.28 L24.43,25.28" id="Shape" stroke="#FFD45C" stroke-width="0.75" stroke-linecap="round" fill="none"/>
            <path d="M38.39,39.8 L34.1,47.22" id="Shape" stroke="#FFD45C" stroke-width="0.75" stroke-linecap="round" fill="none"/>
            <path d="M38.53,0.57 L39.12,2.55" id="Shape" stroke="#FFD45C" stroke-width="0.75" stroke-linecap="round" fill="none"/>
            <path d="M62.24,10.01 L61.17,11.21" id="Shape" stroke="#FFD45C" stroke-width="0.75" stroke-linecap="round" fill="none"/>
            <path d="M23.11,33.52 L26.77,31.66" id="Shape" stroke="#FFD45C" stroke-width="0.75" stroke-linecap="round" fill="none"/>
            <path d="M19.96,14.87 L22.98,16.06" id="Shape" stroke="#FFD45C" stroke-width="0.75" stroke-linecap="round" fill="none"/>
            <path d="M52.16,46.94 L53.01,50.63" id="Shape" stroke="#FFD45C" stroke-width="0.75" stroke-linecap="round" fill="none"/>
            <path d="M40.34,30.89 L37.31,34.3" id="Shape" stroke="#FFD45C" stroke-width="0.75" stroke-linecap="round" fill="none"/>
        </g>
    </g>
</svg>