<?xml version="1.0" encoding="UTF-8"?><svg xmlns="http://www.w3.org/2000/svg" xmlns:xlink="http://www.w3.org/1999/xlink" width="200.73626708984375" height="210.1361541748047" viewBox="0.14876925945281982 -0.36368250846862793 200.73626708984375 210.1361541748047" version="1.1">
    <!-- Generator: Sketch 46.2 (44496) - http://www.bohemiancoding.com/sketch -->
    <title>fireworks 4-d</title>
    <desc>Created with Sketch.</desc>
    <defs/>
    <g id="Page-1" stroke="none" fill-rule="evenodd">
        <g id="fireworks-4-d" fill-rule="nonzero">
            <path d="M103.22,89.19 C103.22,89.19 115.22,66 129.34,52 C143.46,38 164.9,24.66 175.34,19.66 C185.78,14.66 191.68,13.1 194.45,11.88 C197.22,10.66 199.9,11.55 200.34,14.66 C200.78,17.77 197.9,17.44 195.89,18.33 C193.88,19.22 178.89,22.89 160.66,35.11 C142.43,47.33 131.54,54.22 119.1,69.56 C106.66,84.9 103.22,89.19 103.22,89.19 Z" id="Shape" fill="#49B695" stroke-width="1"/>
            <path d="M127.34,72.74 C133.477258,66.5959855 140.428801,61.3234454 148,57.07 C160.11,50.4 166.11,48.51 173.11,46.74 C180.11,44.97 187.9,44 189.46,44.29 C191.02,44.58 191.46,46.07 190.24,46.62 C189.02,47.17 179.91,47.43 170.13,50.25 C160.35,53.07 147.79,59.25 142.68,62.07 C137.57,64.89 127.34,72.74 127.34,72.74 Z" id="Shape" fill="#37AB6C" stroke-width="1"/>
            <path d="M107.56,94.19 C114.592589,87.0148245 122.927877,81.2452846 132.12,77.19 C146.9,70.86 159.35,68.63 167.24,69.08 C175.13,69.53 180.8,70.08 182.24,72.75 C183.68,75.42 182.13,77.64 180.91,77.42 C174.721745,75.5122079 168.275328,74.5744247 161.8,74.64 C150.35,74.64 137.8,78.81 131.35,81.64 C124.9,84.47 107.56,94.19 107.56,94.19 Z" id="Shape" fill="#DEDD00" stroke-width="1"/>
            <path d="M111.56,95 C111.56,95 138.01,90.89 152.9,93.11 C167.79,95.33 179.29,98.44 182.82,100.33 C186.35,102.22 186.46,107.44 181.02,106.33 C175.58,105.22 161.18,100.52 150.35,98.66 C137.526742,96.4942619 124.562035,95.2709872 111.56,95 L111.56,95 Z" id="Shape" fill="#93C91C" stroke-width="1"/>
            <path d="M107.56,70.41 C107.56,70.41 109.56,58.19 121.78,39.18 C134,20.17 150.67,3 150.67,3 C150.67,3 154.89,-1.89 157.89,1.11 C160.89,4.11 154.67,7.33 150.44,11.36 C142.15,19.27 130.33,33 125.33,40.23 C120.33,47.46 107.56,70.41 107.56,70.41 Z" id="Shape" fill="#ACD89F" stroke-width="1"/>
            <path d="M100.67,86 C100.67,86 101.56,54.55 103.78,37.44 C105.041905,27.4682475 106.972927,17.5926365 109.56,7.88 C109.56,7.88 110,5.99 111.56,6.1 C113.12,6.21 113.45,8.21 111.56,15.66 C109.67,23.11 107.56,31.13 105.45,42.22 C103.22,53.63 100.67,86 100.67,86 Z" id="Shape" fill="#BDD66E" stroke-width="1"/>
            <path d="M97.22,84.41 C97.22,84.41 86.43,58.08 74.44,45.07 C62.66,32.29 47.21,23.29 42.55,21.73 C37.89,20.17 35.77,24.62 38.22,26.51 C40.67,28.4 59.08,37.32 69.89,47.85 C82.33,60 97.22,84.41 97.22,84.41 Z" id="Shape" fill="#DDDA00" stroke-width="1"/>
            <path d="M72.33,67.63 C67.0333169,62.73103 61.3480107,58.2697369 55.33,54.29 C47,49.07 32.55,43.18 31.1,42.85 C29.65,42.52 26.1,43 28.88,46 C31.66,49 37.99,50.28 47.44,53.5 C56.89,56.72 72.33,67.63 72.33,67.63 Z" id="Shape" fill="#33AD67" stroke-width="1"/>
            <path d="M89.89,88.07 C89.89,88.07 69.89,76.29 54.33,73.73 C38.77,71.17 22.1,74.74 20,75.07 C17.9,75.4 15,80.29 20,81.07 C25,81.85 39.67,76.29 52.89,77.74 C66.11,79.19 89.89,88.07 89.89,88.07 Z" id="Shape" fill="#046735" stroke-width="1"/>
            <path d="M83,92.42 C83,92.42 63.78,88.3 31.55,92.97 C-0.68,97.64 2.43,101.97 5.44,104.19 C8.45,106.41 26.64,99.19 38.67,96.19 C51.77,93 83,92.42 83,92.42 Z" id="Shape" fill="#889204" stroke-width="1"/>
            <path d="M67.2,100.85 C67.2,100.85 47.99,101.74 30.43,110.18 C12.87,118.62 1.21,137 1.21,137 C1.21,137 -0.57,139.67 2.21,141 C4.99,142.33 6.77,139.67 8.43,137 C10.09,134.33 17.43,124.4 30.32,115.89 C44.55,106.45 67.2,100.85 67.2,100.85 Z" id="Shape" fill="#93C55E" stroke-width="1"/>
            <path d="M52.66,114.19 C52.66,114.19 42.44,115.63 36,122 C29,128.84 26.89,134 29.22,136.45 C31.55,138.9 34.78,133.89 35.33,131.78 C36.5082493,127.367258 38.9395678,123.390316 42.33,120.33 C45.28,117.48 52.66,114.19 52.66,114.19 Z" id="Shape" fill="#34B878" stroke-width="1"/>
            <path d="M91.78,98.52 C83.2476515,99.9660147 75.1976769,103.474362 68.33,108.74 C56.88,117.52 45.66,128.74 39.21,147.3 C35.3424586,158.311957 33.7536268,169.995143 34.54,181.64 C34.54,181.64 34.43,183.53 36.76,183.53 C39.09,183.53 39.97,174.08 40.47,168.08 C40.97,162.08 43.53,144.08 49.98,133.96 C56.43,123.84 66.83,111.07 76.43,105.4 C81.2277044,102.452682 86.3874072,100.14006 91.78,98.52 Z" id="Shape" fill="#8FC21B" stroke-width="1"/>
            <path d="M95,104.6 C95,104.6 82.55,122.6 77.22,136.19 C71.89,149.78 68.22,189.42 73.11,197.42 C78,205.42 76.44,183.31 76.11,176.19 C75.78,169.07 77.22,148.74 79.33,139.96 C81.44,131.18 95,104.6 95,104.6 Z" id="Shape" fill="#51B99B" stroke-width="1"/>
            <path d="M99,105.63 C99,105.63 93.67,123.3 93.78,154.08 C93.89,184.86 109.78,206.98 112.56,208.75 C115.34,210.52 117.34,207.64 114.78,202.42 C112.22,197.2 101.41,179.11 98,156.08 C94.59,133.05 99,105.63 99,105.63 Z" id="Shape" fill="#36AC69" stroke-width="1"/>
            <path d="M104.87,104.6 C104.87,104.6 117.67,124.41 121.67,146.52 C125.67,168.63 126,181.86 130.34,183.52 C134.68,185.18 135.34,181.41 135.01,176.85 C134.68,172.29 126.79,143.51 120.56,129.62 C116.393869,120.658318 111.122939,112.253048 104.87,104.6 L104.87,104.6 Z" id="Shape" fill="#AED69C" stroke-width="1"/>
            <path d="M104.44,99.43 C104.44,99.43 111.55,102.18 124.55,113.52 C137.55,124.86 153.55,147.41 156.78,148.52 C160.01,149.63 161.23,147.08 159.78,143.19 C158.33,139.3 139.89,119.3 127.11,110.85 C114.33,102.4 104.44,99.43 104.44,99.43 Z" id="Shape" fill="#00A878" stroke-width="1"/>
            <path d="M120.45,102.3 C120.45,102.3 139.01,108.52 154.12,121.41 C169.23,134.3 175.46,147.83 179.01,148.79 C182.56,149.75 183.34,146.97 181.68,144.97 C180.02,142.97 172.23,130.08 156.34,118.86 C140.45,107.64 120.45,102.3 120.45,102.3 Z" id="Shape" fill="#29AE63" stroke-width="1"/>
            <circle id="Oval" fill="#2AAD6A" cx="177" cy="8.47" r="1" stroke-width="1"/>
            <path d="M172.65,7.94 C173.386677,7.85410675 174.129051,7.82735455 174.87,7.86 C175.6,7.86 176.33,7.94 177.06,8.03 C177.79,8.12 178.51,8.24 179.22,8.39 C179.945274,8.53562101 180.657592,8.73961837 181.35,9 C180.613375,9.08658519 179.870946,9.1133394 179.13,9.08 C178.4,9.08 177.67,9 176.94,8.91 C176.21,8.82 175.49,8.7 174.78,8.54 C174.055173,8.39696533 173.342913,8.19632877 172.65,7.94 L172.65,7.94 Z" id="Shape" fill="#2AAD6A" stroke-width="1"/>
            <path d="M173.5,5.83 C174.192475,6.10900349 174.861312,6.44342173 175.5,6.83 C176.12,7.21666667 176.723333,7.63 177.31,8.07 C177.89,8.51 178.46,8.98 179,9.47 C179.555693,9.96087652 180.070711,10.4959596 180.54,11.07 C179.847254,10.791598 179.178369,10.4571559 178.54,10.07 C177.92,9.68 177.31,9.27 176.73,8.83 C176.15,8.39 175.58,7.92 175.04,7.43 C174.484757,6.93865379 173.969776,6.40360843 173.5,5.83 L173.5,5.83 Z" id="Shape" fill="#2AAD6A" stroke-width="1"/>
            <path d="M175.29,4.44 C175.73289,5.03416118 176.127485,5.66283751 176.47,6.32 C176.816667,6.98666667 177.133333,7.65333333 177.42,8.32 C177.71,8.99 177.96,9.68 178.19,10.37 C178.424264,11.0712282 178.601507,11.7902327 178.72,12.52 C178.276574,11.9262062 177.881951,11.2974856 177.54,10.64 C177.19,9.99 176.88,9.34 176.59,8.64 C176.3,7.94 176.05,7.28 175.83,6.58 C175.593481,5.88213124 175.412911,5.1665362 175.29,4.44 L175.29,4.44 Z" id="Shape" fill="#2AAD6A" stroke-width="1"/>
            <path d="M177.53,4.12 C177.615936,4.85667413 177.642688,5.59905112 177.61,6.34 C177.61,7.07 177.53,7.8 177.44,8.53 C177.35,9.26 177.23,9.98 177.08,10.69 C176.934379,11.4152735 176.730382,12.1275922 176.47,12.82 C176.383415,12.0833755 176.356661,11.3409461 176.39,10.6 C176.39,9.87 176.47,9.14 176.56,8.41 C176.65,7.68 176.77,6.96 176.93,6.25 C177.072993,5.52516308 177.273631,4.81290003 177.53,4.12 L177.53,4.12 Z" id="Shape" fill="#2AAD6A" stroke-width="1"/>
            <path d="M179.64,5 C179.360957,5.6924576 179.02654,6.36129094 178.64,7 C178.253333,7.62 177.84,8.22333333 177.4,8.81 C176.96,9.39 176.49,9.96 176,10.5 C175.509123,11.0556933 174.97404,11.5707107 174.4,12.04 C174.678402,11.3472537 175.012844,10.6783694 175.4,10.04 C175.79,9.42 176.2,8.81 176.64,8.23 C177.08,7.65 177.55,7.08 178.04,6.54 C178.531346,5.98475696 179.066392,5.4697758 179.64,5 L179.64,5 Z" id="Shape" fill="#2AAD6A" stroke-width="1"/>
            <path d="M181,6.76 C180.405839,7.20289012 179.777162,7.59748484 179.12,7.94 C178.453333,8.28666667 177.786667,8.60333333 177.12,8.89 C176.45,9.18 175.76,9.43 175.07,9.66 C174.368772,9.89426446 173.649767,10.0715074 172.92,10.19 C173.529424,9.74080075 174.174958,9.34277725 174.85,9 C175.5,8.65 176.15,8.34 176.85,8.05 C177.55,7.76 178.21,7.51 178.91,7.29 C179.591882,7.05944651 180.290653,6.8822461 181,6.76 L181,6.76 Z" id="Shape" fill="#2AAD6A" stroke-width="1"/>
            <circle id="Oval" fill="#2AAD6A" cx="94.57" cy="12.39" r="1" stroke-width="1"/>
            <path d="M90.65,11.91 C91.3137341,11.8333806 91.9825333,11.8099726 92.65,11.84 C93.31,11.84 93.97,11.91 94.65,11.99 C95.33,12.07 95.95,12.18 96.65,12.32 C97.3037576,12.4513677 97.9458432,12.6352985 98.57,12.87 C97.9063114,12.947223 97.2374636,12.9706327 96.57,12.94 C95.91,12.94 95.25,12.87 94.57,12.79 C93.89,12.71 93.27,12.6 92.57,12.46 C91.916385,12.3280465 91.274346,12.144129 90.65,11.91 L90.65,11.91 Z" id="Shape" fill="#2AAD6A" stroke-width="1"/>
            <path d="M91.42,10 C92.034152,10.265571 92.6260448,10.5799096 93.19,10.94 C93.75,11.2866667 94.2933333,11.66 94.82,12.06 C95.35,12.45 95.82,12.88 96.35,13.32 C96.8514072,13.761731 97.3162567,14.2433018 97.74,14.76 C97.1255851,14.4949762 96.5336491,14.1806147 95.97,13.82 C95.41,13.47 94.86,13.1 94.34,12.7 C93.82,12.3 93.34,11.88 92.82,11.44 C92.3155545,10.9982335 91.8473843,10.5166871 91.42,10 Z" id="Shape" fill="#2AAD6A" stroke-width="1"/>
            <path d="M93,8.76 C93.3981412,9.2974662 93.7526072,9.86594947 94.06,10.46 C94.3733333,11.0466667 94.66,11.64 94.92,12.24 C95.18,12.85 95.41,13.46 95.61,14.09 C95.8219775,14.7226867 95.9824996,15.3714633 96.09,16.03 C95.6913573,15.4928752 95.3368655,14.9243505 95.03,14.33 C94.72,13.75 94.43,13.15 94.18,12.55 C93.93,11.95 93.69,11.32 93.49,10.7 C93.2752119,10.0674296 93.1113563,9.41869496 93,8.76 Z" id="Shape" fill="#2AAD6A" stroke-width="1"/>
            <path d="M95.06,8.47 C95.1366194,9.13373408 95.1600274,9.80253328 95.13,10.47 C95.13,11.13 95.06,11.79 94.98,12.47 C94.9,13.15 94.79,13.77 94.65,14.47 C94.5186323,15.1237576 94.3347015,15.7658432 94.1,16.39 C94.022777,15.7263114 93.9993673,15.0574636 94.03,14.39 C94.03,13.73 94.1,13.07 94.18,12.39 C94.26,11.71 94.37,11.09 94.51,10.39 C94.6419535,9.736385 94.825871,9.09434597 95.06,8.47 Z" id="Shape" fill="#2AAD6A" stroke-width="1"/>
            <path d="M97,9.24 C96.7146785,9.85267604 96.3802541,10.4412629 96,11 C95.6533333,11.56 95.28,12.1033333 94.88,12.63 C94.49,13.16 94.06,13.63 93.62,14.16 C93.178269,14.6614072 92.6966982,15.1262567 92.18,15.55 C92.4450238,14.9355851 92.7593853,14.3436491 93.12,13.78 C93.47,13.22 93.84,12.67 94.24,12.15 C94.64,11.63 95.06,11.15 95.5,10.63 C95.9612914,10.12657 96.4629618,9.66168878 97,9.24 Z" id="Shape" fill="#2AAD6A" stroke-width="1"/>
            <path d="M98.21,10.85 C97.6725338,11.2481412 97.1040505,11.6026072 96.51,11.91 C95.9233333,12.2233333 95.33,12.51 94.73,12.77 C94.12,13.03 93.51,13.26 92.88,13.46 C92.2473133,13.6719775 91.5985367,13.8324996 90.94,13.94 C91.4771248,13.5413573 92.0456495,13.1868655 92.64,12.88 C93.22,12.57 93.82,12.28 94.42,12.03 C95.02,11.78 95.65,11.54 96.27,11.34 C96.9025704,11.1252119 97.551305,10.9613563 98.21,10.85 L98.21,10.85 Z" id="Shape" fill="#2AAD6A" stroke-width="1"/>
            <circle id="Oval" fill="#2AAD6A" cx="7.34" cy="83.66" r="1.07" stroke-width="1"/>
            <path d="M2,83 C2.90587364,82.8938719 3.8187895,82.8604318 4.73,82.9 C5.63,82.9 6.53,83 7.42,83.11 C8.31,83.22 9.2,83.37 10.08,83.56 C10.9723864,83.7423174 11.8485735,83.9964786 12.7,84.32 C11.7941895,84.4269485 10.8812075,84.4603911 9.97,84.42 C9.07,84.42 8.17,84.32 7.28,84.21 C6.39,84.1 5.5,83.95 4.62,83.76 C3.72781036,83.576886 2.85168653,83.3227432 2,83 L2,83 Z" id="Shape" fill="#2AAD6A" stroke-width="1"/>
            <path d="M3,80.42 C3.83616736,80.7817464 4.64206909,81.2097772 5.41,81.7 C6.17666667,82.1733333 6.92,82.68 7.64,83.22 C8.36,83.76 9.05,84.33 9.72,84.94 C10.4033179,85.5541831 11.0354127,86.2230665 11.61,86.94 C10.7734769,86.5789937 9.96751695,86.1509319 9.2,85.66 C8.43,85.18 7.69,84.66 6.97,84.13 C6.25,83.6 5.56,83.01 4.89,82.41 C4.20767021,81.798407 3.57563274,81.1329284 3,80.42 Z" id="Shape" fill="#2AAD6A" stroke-width="1"/>
            <path d="M5.23,78.7 C5.77364909,79.4269413 6.25851648,80.1960413 6.68,81 C7.10666667,81.7933333 7.49666667,82.6033333 7.85,83.43 C8.2,84.26 8.51,85.1 8.79,85.96 C9.08112767,86.8240824 9.30184813,87.7103085 9.45,88.61 C8.90567936,87.8835207 8.42077717,87.1143655 8,86.31 C7.58,85.51 7.18,84.7 6.83,83.88 C6.48,83.06 6.17,82.21 5.89,81.35 C5.59966167,80.4856869 5.3789572,79.599525 5.23,78.7 L5.23,78.7 Z" id="Shape" fill="#2AAD6A" stroke-width="1"/>
            <path d="M8,78.31 C8.10612805,79.2158736 8.1395682,80.1287895 8.1,81.04 C8.1,81.94 8,82.84 7.89,83.73 C7.78,84.62 7.63,85.51 7.44,86.39 C7.2576826,87.2823864 7.00352145,88.1585735 6.68,89.01 C6.57305148,88.1041895 6.53960892,87.1912075 6.58,86.28 C6.58,85.38 6.68,84.48 6.79,83.59 C6.9,82.7 7.05,81.81 7.24,80.93 C7.42311403,80.0378104 7.67725682,79.1616865 8,78.31 L8,78.31 Z" id="Shape" fill="#2AAD6A" stroke-width="1"/>
            <path d="M10.58,79.36 C10.2182536,80.1961674 9.79022283,81.0020691 9.3,81.77 C8.82666667,82.5366667 8.32,83.28 7.78,84 C7.24,84.72 6.67,85.41 6.06,86.08 C5.44581687,86.7633179 4.77693351,87.3954127 4.06,87.97 C4.42100635,87.1334769 4.84906809,86.327517 5.34,85.56 C5.82,84.79 6.34,84.05 6.87,83.33 C7.4,82.61 7.99,81.92 8.59,81.25 C9.201593,80.5676702 9.86707161,79.9356327 10.58,79.36 Z" id="Shape" fill="#2AAD6A" stroke-width="1"/>
            <path d="M12.3,81.56 C11.5727371,82.1002391 10.8036438,82.5817583 10,83 C9.20666667,83.4266667 8.39666667,83.8166667 7.57,84.17 C6.74,84.52 5.9,84.83 5.04,85.11 C4.17591757,85.4011277 3.28969149,85.6218481 2.39,85.77 C3.11967782,85.2252219 3.89219281,84.7403099 4.7,84.32 C5.5,83.9 6.31,83.5 7.13,83.15 C7.95,82.8 8.8,82.49 9.66,82.21 C10.5213415,81.9235666 11.4041344,81.7062123 12.3,81.56 Z" id="Shape" fill="#2AAD6A" stroke-width="1"/>
            <circle id="Oval" fill="#29AE63" cx="178.48" cy="160.1" r="1.07" stroke-width="1"/>
            <path d="M173.13,159.45 C174.035874,159.343872 174.948789,159.310432 175.86,159.35 C176.76,159.35 177.66,159.45 178.55,159.56 C179.44,159.67 180.33,159.82 181.21,160.01 C182.102386,160.192317 182.978574,160.446479 183.83,160.77 C182.92419,160.876949 182.011208,160.910391 181.1,160.87 C180.2,160.87 179.3,160.77 178.41,160.66 C177.52,160.55 176.63,160.4 175.75,160.21 C174.85781,160.026886 173.981687,159.772743 173.13,159.45 Z" id="Shape" fill="#29AE63" stroke-width="1"/>
            <path d="M174.18,156.86 C175.016167,157.221746 175.822069,157.649777 176.59,158.14 C177.356667,158.613333 178.1,159.12 178.82,159.66 C179.54,160.2 180.23,160.77 180.9,161.38 C181.583318,161.994183 182.215413,162.663066 182.79,163.38 C181.953477,163.018994 181.147517,162.590932 180.38,162.1 C179.61,161.62 178.87,161.1 178.15,160.57 C177.43,160.04 176.74,159.45 176.07,158.85 C175.38767,158.238407 174.755633,157.572928 174.18,156.86 Z" id="Shape" fill="#29AE63" stroke-width="1"/>
            <path d="M176.38,155.14 C176.924101,155.870141 177.408978,156.642601 177.83,157.45 C178.256667,158.243333 178.646667,159.053333 179,159.88 C179.35,160.71 179.66,161.55 179.94,162.41 C180.231128,163.274082 180.451848,164.160309 180.6,165.06 C180.055222,164.330322 179.57031,163.557807 179.15,162.75 C178.73,161.95 178.33,161.14 177.98,160.32 C177.63,159.5 177.32,158.65 177.04,157.79 C176.749662,156.925687 176.528957,156.039525 176.38,155.14 L176.38,155.14 Z" id="Shape" fill="#29AE63" stroke-width="1"/>
            <path d="M179.14,154.75 C179.246128,155.655874 179.279568,156.568789 179.24,157.48 C179.24,158.38 179.14,159.28 179.03,160.17 C178.92,161.06 178.77,161.95 178.58,162.83 C178.397683,163.722386 178.143521,164.598574 177.82,165.45 C177.713051,164.54419 177.679609,163.631208 177.72,162.72 C177.72,161.82 177.82,160.92 177.93,160.03 C178.04,159.14 178.19,158.25 178.38,157.37 C178.563114,156.47781 178.817257,155.601687 179.14,154.75 L179.14,154.75 Z" id="Shape" fill="#29AE63" stroke-width="1"/>
            <path d="M181.73,155.8 C181.368254,156.636167 180.940223,157.442069 180.45,158.21 C179.976667,158.976667 179.47,159.72 178.93,160.44 C178.39,161.16 177.82,161.85 177.21,162.52 C176.595817,163.203318 175.926934,163.835413 175.21,164.41 C175.571006,163.573477 175.999068,162.767517 176.49,162 C176.97,161.23 177.49,160.49 178.02,159.77 C178.55,159.05 179.14,158.36 179.74,157.69 C180.351593,157.00767 181.017072,156.375633 181.73,155.8 Z" id="Shape" fill="#29AE63" stroke-width="1"/>
            <path d="M183.45,158 C182.719883,158.544137 181.947421,159.029016 181.14,159.45 C180.346667,159.876667 179.536667,160.266667 178.71,160.62 C177.88,160.97 177.04,161.28 176.18,161.56 C175.315918,161.851128 174.429691,162.071848 173.53,162.22 C174.259678,161.675222 175.032193,161.19031 175.84,160.77 C176.64,160.35 177.45,159.95 178.27,159.6 C179.09,159.25 179.94,158.94 180.8,158.66 C181.664313,158.369662 182.550475,158.148957 183.45,158 Z" id="Shape" fill="#29AE63" stroke-width="1"/>
            <circle id="Oval" fill="#29AE63" cx="66.1" cy="201.94" r="1" stroke-width="1"/>
            <path d="M61.8,201.42 C62.5266991,201.334982 63.2590346,201.30823 63.99,201.34 C64.71,201.34 65.43,201.42 66.15,201.51 C66.87,201.6 67.58,201.72 68.29,201.87 C69.0086605,202.015986 69.7143046,202.219987 70.4,202.48 C69.6733506,202.565664 68.940963,202.592418 68.21,202.56 C67.49,202.56 66.77,202.48 66.05,202.39 C65.33,202.3 64.62,202.18 63.91,202.03 C63.1914951,201.883381 62.4859014,201.679395 61.8,201.42 L61.8,201.42 Z" id="Shape" fill="#29AE63" stroke-width="1"/>
            <path d="M62.64,199.34 C63.3121959,199.621287 63.9609146,199.955678 64.58,200.34 C65.1933333,200.72 65.79,201.126667 66.37,201.56 C66.95,201.99 67.5,202.45 68.04,202.94 C68.5884525,203.424808 69.0967778,203.953199 69.56,204.52 C68.8875325,204.239296 68.238768,203.904881 67.62,203.52 C67,203.14 66.41,202.73 65.83,202.29 C65.25,201.85 64.7,201.39 64.16,200.91 C63.6123961,200.427913 63.1041177,199.902915 62.64,199.34 Z" id="Shape" fill="#29AE63" stroke-width="1"/>
            <path d="M64.41,198 C64.8456565,198.588069 65.2335609,199.210054 65.57,199.86 C65.91,200.526667 66.2233333,201.193333 66.51,201.86 C66.79,202.52 67.04,203.2 67.27,203.86 C67.5038923,204.554524 67.6811387,205.266853 67.8,205.99 C67.3638072,205.402296 66.9758751,204.780267 66.64,204.13 C66.3,203.49 65.98,202.84 65.7,202.13 C65.42,201.42 65.17,200.79 64.94,200.13 C64.7067322,199.435294 64.5294985,198.723015 64.41,198 Z" id="Shape" fill="#29AE63" stroke-width="1"/>
            <path d="M66.63,197.64 C66.7150178,198.366699 66.7417698,199.099035 66.71,199.83 C66.71,200.55 66.63,201.27 66.54,201.99 C66.45,202.71 66.33,203.42 66.18,204.13 C66.0340141,204.84866 65.8300127,205.554305 65.57,206.24 C65.4843356,205.513351 65.4575817,204.780963 65.49,204.05 C65.49,203.33 65.57,202.61 65.66,201.89 C65.75,201.17 65.87,200.46 66.02,199.75 C66.1666185,199.031495 66.3706054,198.325901 66.63,197.64 L66.63,197.64 Z" id="Shape" fill="#29AE63" stroke-width="1"/>
            <path d="M68.71,198.48 C68.4287128,199.152196 68.0943217,199.800915 67.71,200.42 C67.33,201.033333 66.9233333,201.63 66.49,202.21 C66.06,202.79 65.6,203.34 65.11,203.88 C64.6251923,204.428453 64.0968015,204.936778 63.53,205.4 C63.8107041,204.727532 64.1451188,204.078768 64.53,203.46 C64.91,202.84 65.32,202.25 65.76,201.67 C66.2,201.09 66.66,200.54 67.14,200 C67.6220872,199.452396 68.1470853,198.944118 68.71,198.48 L68.71,198.48 Z" id="Shape" fill="#29AE63" stroke-width="1"/>
            <path d="M70.09,200.25 C69.5019311,200.685656 68.8799464,201.073561 68.23,201.41 C67.5633333,201.75 66.8966667,202.063333 66.23,202.35 C65.57,202.63 64.89,202.88 64.23,203.11 C63.5354762,203.343892 62.8231466,203.521139 62.1,203.64 C62.6877037,203.203807 63.3097326,202.815875 63.96,202.48 C64.6,202.14 65.25,201.82 65.96,201.54 C66.67,201.26 67.3,201.01 67.96,200.78 C68.6547062,200.546732 69.366985,200.369499 70.09,200.25 L70.09,200.25 Z" id="Shape" fill="#29AE63" stroke-width="1"/>
            <path d="M76.29,36.31 C76.29,36.31 72,27.53 64.17,23.64 C56.34,19.75 55.39,18.86 55.17,16.42 C54.95,13.98 56.39,12.53 59.06,13.09 C61.73,13.65 70.39,19.54 73.84,27.65 C77.29,35.76 76.29,36.31 76.29,36.31 Z" id="Shape" fill="#2AAD6A" stroke-width="1"/>
            <circle id="Oval" fill="#DDDA00" cx="34.68" cy="35.7" r="2.51" stroke-width="1"/>
            <circle id="Oval" fill="#DDDA00" cx="49.57" cy="41.93" r="1" stroke-width="1"/>
            <circle id="Oval" fill="#DDDA00" cx="9.84" cy="56.19" r="1" stroke-width="1"/>
            <circle id="Oval" fill="#DDDA00" cx="17.1" cy="68.36" r="2.05" stroke-width="1"/>
            <circle id="Oval" fill="#DDDA00" cx="25.78" cy="55.69" r="1" stroke-width="1"/>
            <circle id="Oval" fill="#DDDA00" cx="30.43" cy="63.9" r="1.15" stroke-width="1"/>
            <circle id="Oval" fill="#DDDA00" cx="43.17" cy="61.09" r="1.67" stroke-width="1"/>
            <circle id="Oval" fill="#DDDA00" cx="38.07" cy="88.31" r="1" stroke-width="1"/>
            <circle id="Oval" fill="#DDDA00" cx="35.56" cy="103.93" r="1.63" stroke-width="1"/>
            <circle id="Oval" fill="#DDDA00" cx="25.64" cy="108.37" r="1.92" stroke-width="1"/>
            <circle id="Oval" fill="#DDDA00" cx="18.18" cy="107.42" r="1" stroke-width="1"/>
            <circle id="Oval" fill="#DDDA00" cx="27.53" cy="144.96" r="1.75" stroke-width="1"/>
            <circle id="Oval" fill="#DDDA00" cx="31.1" cy="154.67" r="2.79" stroke-width="1"/>
            <circle id="Oval" fill="#DDDA00" cx="89.42" cy="143.38" r="2.36" stroke-width="1"/>
            <circle id="Oval" fill="#DDDA00" cx="81.4" cy="148.43" r="1" stroke-width="1"/>
            <circle id="Oval" fill="#DDDA00" cx="85.51" cy="153.43" r="1.56" stroke-width="1"/>
            <circle id="Oval" fill="#DDDA00" cx="51.12" cy="166.31" r="1.54" stroke-width="1"/>
            <circle id="Oval" fill="#DDDA00" cx="55.97" cy="177.41" r="2.42" stroke-width="1"/>
            <circle id="Oval" fill="#DDDA00" cx="53.91" cy="184.78" r="1.25" stroke-width="1"/>
            <circle id="Oval" fill="#DDDA00" cx="50.86" cy="198.8" r="1.8" stroke-width="1"/>
            <circle id="Oval" fill="#DDDA00" cx="114.06" cy="176.2" r="1.21" stroke-width="1"/>
            <circle id="Oval" fill="#DDDA00" cx="117.86" cy="183.8" r="2.59" stroke-width="1"/>
            <circle id="Oval" fill="#DDDA00" cx="83.45" cy="26.69" r="2.06" stroke-width="1"/>
            <circle id="Oval" fill="#DDDA00" cx="80.23" cy="12.48" r="1.17" stroke-width="1"/>
            <circle id="Oval" fill="#DDDA00" cx="72.26" cy="5.97" r="1.44" stroke-width="1"/>
            <circle id="Oval" fill="#DDDA00" cx="123.35" cy="26.81" r="1.17" stroke-width="1"/>
            <circle id="Oval" fill="#DDDA00" cx="117.96" cy="18.98" r="2.01" stroke-width="1"/>
            <circle id="Oval" fill="#DDDA00" cx="127.63" cy="13.2" r="1.89" stroke-width="1"/>
            <circle id="Oval" fill="#DDDA00" cx="148.69" cy="31.03" r="1.39" stroke-width="1"/>
            <circle id="Oval" fill="#DDDA00" cx="150.08" cy="17.48" r="1.4" stroke-width="1"/>
            <circle id="Oval" fill="#DDDA00" cx="156.21" cy="26.11" r="2.47" stroke-width="1"/>
            <circle id="Oval" fill="#DDDA00" cx="149.02" cy="50.03" r="1.72" stroke-width="1"/>
            <circle id="Oval" fill="#DDDA00" cx="157.45" cy="43.68" r="1.24" stroke-width="1"/>
            <circle id="Oval" fill="#DDDA00" cx="141.69" cy="68.69" r="1.06" stroke-width="1"/>
            <circle id="Oval" fill="#DDDA00" cx="147.63" cy="67.5" r="2.45" stroke-width="1"/>
            <circle id="Oval" fill="#DDDA00" cx="161.79" cy="62.5" r="1.41" stroke-width="1"/>
            <circle id="Oval" fill="#DDDA00" cx="155.39" cy="79.96" r="1.64" stroke-width="1"/>
            <circle id="Oval" fill="#DDDA00" cx="165.69" cy="83.81" r="1.28" stroke-width="1"/>
            <circle id="Oval" fill="#DDDA00" cx="173.13" cy="84.59" r="2.06" stroke-width="1"/>
            <circle id="Oval" fill="#DDDA00" cx="160.94" cy="106.86" r="2.26" stroke-width="1"/>
            <circle id="Oval" fill="#DDDA00" cx="165.98" cy="115.54" r="2.78" stroke-width="1"/>
            <circle id="Oval" fill="#DDDA00" cx="163.72" cy="136.99" r="3.33" stroke-width="1"/>
            <circle id="Oval" fill="#DDDA00" cx="152.88" cy="153.27" r="1.4" stroke-width="1"/>
            <circle id="Oval" fill="#DDDA00" cx="159" cy="162.89" r="2.79" stroke-width="1"/>
        </g>
    </g>
</svg>