<?xml version="1.0" encoding="UTF-8"?><svg xmlns="http://www.w3.org/2000/svg" xmlns:xlink="http://www.w3.org/1999/xlink" width="72.3797607421875" height="155.82774353027344" viewBox="0.32056838274002075 -0.04146432876586914 72.3797607421875 155.82774353027344" version="1.1">
    <!-- Generator: Sketch 46.2 (44496) - http://www.bohemiancoding.com/sketch -->
    <title>三国主题素材-13</title>
    <desc>Created with Sketch.</desc>
    <defs/>
    <g id="Page-1" stroke="none" fill-rule="evenodd">
        <g id="三国主题素材-13" fill-rule="nonzero">
            <path d="M20.32,69.45 C20.32,69.45 53.05,68.56 52.55,68.45 C52.05,68.34 61.13,131.09 61.13,131.09 C61.13,131.09 61.02,141.09 67.79,147.89 C67.79,147.89 35,164.08 6.91,147.89 C11.0071978,143.318123 13.4418583,137.497487 13.82,131.37 L20.32,69.45 Z" id="Shape" fill="#967741" stroke-width="1"/>
            <path d="M35.08,155.28 C25.1780748,155.428284 15.4135736,152.95093 6.78,148.1 C6.72514281,148.056365 6.69317821,147.990095 6.69317821,147.92 C6.69317821,147.849905 6.72514281,147.783635 6.78,147.74 C10.8202483,143.197857 13.2276185,137.436358 13.62,131.37 L20.13,69.43 C20.1445955,69.3185239 20.2376414,69.2339367 20.35,69.23 C31.08,68.94 51.4,68.36 52.51,68.23 C52.5494936,68.2209986 52.5905064,68.2209986 52.63,68.23 C52.7451029,68.2501219 52.826826,68.3533511 52.82,68.47 C52.8291506,68.4958817 52.8291506,68.5241183 52.82,68.55 C52.73,70.36 58.39,110.13 61.41,131.06 C61.41,131.19 61.41,141.11 68.01,147.73 C68.0588093,147.782264 68.0805318,147.854258 68.0687755,147.924796 C68.0570191,147.995334 68.0131215,148.056391 67.95,148.09 C57.5991289,152.705672 46.4126401,155.15261 35.08,155.28 Z M7.26,147.85 C33.49,162.77 64.12,149.35 67.39,147.85 C60.86,141.09 60.89,131.22 60.89,131.12 C60.89,131.02 58.62,115.4 56.45,100 C52.95,75.17 52.35,69.9 52.33,68.71 C51.33,68.83 47.88,68.93 36.44,69.26 L20.53,69.71 L14,131.41 C13.6063962,137.478408 11.2394814,143.251714 7.26,147.85 Z" id="Shape" fill="#603404" stroke-width="1"/>
            <path d="M27.74,90.65 L47.8,90.65 L47.8,103.19 C47.8,103.19 42.62,97.6 25.73,102 L27.74,90.65 Z" id="Shape" fill="#603404" stroke-width="1"/>
            <path d="M54,69.12 C54,69.12 52.78,68.12 50,68.41 C50,68.41 46.15,86.2 48.66,111.77 C48.66,111.77 52.04,145.86 53.05,148.03 C55.1091597,148.249539 57.1904313,148.127907 59.21,147.67 L54,69.12 Z" id="Shape" fill="#CE9006" stroke-width="1"/>
            <path d="M55.3,148.37 C54.05,148.37 53.08,148.27 53,148.26 C52.9216715,148.250415 52.8537256,148.201343 52.82,148.13 C51.82,145.95 48.55,113.19 48.41,111.8 C45.93,86.48 49.72,68.54 49.76,68.37 C49.779694,68.2763015 49.8553745,68.2046041 49.95,68.19 C52.78,67.85 54.05,68.9 54.1,68.95 C54.1481248,68.9895951 54.1771988,69.0477431 54.18,69.11 L59.41,147.67 C59.4149048,147.774053 59.349264,147.868412 59.25,147.9 C57.9624153,148.243876 56.6323258,148.40214 55.3,148.37 Z M53.19,147.82 C55.1144963,148.014392 57.0574839,147.909822 58.95,147.51 L53.74,69.24 C52.6566436,68.6291189 51.3958898,68.4101645 50.17,68.62 C49.8,70.45 46.52,87.78 48.87,111.76 C48.9,112.09 52.15,144.82 53.18,147.83 L53.19,147.82 Z" id="Shape" fill="#603404" stroke-width="1"/>
            <path d="M54,69.12 C54,69.12 60.26,73.53 62.92,77.44 L69.27,87.25 C69.27,87.25 75.27,93.83 69.6,104.08 C69.6,104.08 63.8,114.56 60.68,117.79 C60.68,117.79 64.46,139.58 66.8,142.17 C64.5456544,145.737965 60.9346496,148.233169 56.8,149.08 C56.8,149.08 47.66,95.08 50.9,82.08 C50.9,82.08 52.95,71.83 54.02,69.6 L54,69.12 Z" id="Shape" fill="#8E2B3E" stroke-width="1"/>
            <path d="M56.74,149.31 C56.6975683,149.322501 56.6524317,149.322501 56.61,149.31 C56.5605568,149.274589 56.5279778,149.22029 56.52,149.16 C56.43,148.62 47.41,94.94 50.63,82.16 C50.71,81.75 52.63,72 53.74,69.68 L53.74,69.21 C53.7421225,69.1321245 53.7835217,69.0606168 53.85,69.02 C53.9185785,68.9826535 54.0014215,68.9826535 54.07,69.02 C54.12,69.02 60.39,73.49 63.07,77.41 L69.43,87.22 C69.43,87.22 75.43,94 69.77,104.28 C69.54,104.7 64.02,114.65 60.9,117.95 C61.2,119.64 64.76,139.69 66.9,142.11 C66.9536845,142.188353 66.9536845,142.291647 66.9,142.37 C64.5906347,145.981778 60.9190875,148.506418 56.72,149.37 L56.74,149.31 Z M54.18,69.56 L54.18,69.64 C54.1873341,69.6729299 54.1873341,69.7070701 54.18,69.74 C53.18,71.92 51.1,82.07 51.08,82.17 C47.99,94.49 56.29,144.94 56.94,148.81 C60.870851,147.934887 64.3046701,145.55956 66.51,142.19 C64.15,139.08 60.6,118.7 60.45,117.83 C60.4368422,117.757573 60.459147,117.683224 60.51,117.63 C63.57,114.46 69.33,104.07 69.39,103.97 C74.92,93.97 69.15,87.47 69.09,87.4 L62.71,77.56 C60.41,74.23 55.52,70.54 54.18,69.56 Z" id="Shape" fill="#603404" stroke-width="1"/>
            <path d="M60.26,117.29 C60.1683599,117.289338 60.0858577,117.234336 60.05,117.15 C54.05,102.54 57.49,85.1 57.53,84.92 C57.5551218,84.7959163 57.675799,84.7154649 57.8,84.74 C57.8612257,84.7474568 57.9168909,84.7791919 57.9544967,84.8280794 C57.9921025,84.876967 58.0084974,84.9389101 58,85 C58,85.17 54.57,102.49 60.5,117 C60.5488039,117.115989 60.4953333,117.249666 60.38,117.3 L60.26,117.29 Z" id="Shape" fill="#603404" stroke-width="1"/>
            <path d="M20.86,69.3 L24.98,69.43 C24.98,69.43 33.26,100.55 23.07,149.8 L17.22,149.42 C17.22,149.42 30.89,96.42 20.86,69.3 Z" id="Shape" fill="#CE9006" stroke-width="1"/>
            <path d="M23.06,150 L23.06,150 L17.21,149.62 C17.1425255,149.617674 17.0798549,149.584496 17.04,149.53 C17.0126181,149.469626 17.0126181,149.400374 17.04,149.34 C17.18,148.81 30.59,96.11 20.7,69.34 C20.6661784,69.2740854 20.6661784,69.1959146 20.7,69.13 C20.7470279,69.0735336 20.8165174,69.0406176 20.89,69.04 L25,69.2 C25.0994144,69.2052469 25.1841681,69.2738571 25.21,69.37 C25.21,69.45 27.3,77.37 28.09,91.13 C29.0359888,110.824747 27.4259166,130.559056 23.3,149.84 C23.2675371,149.943104 23.1676585,150.00969 23.06,150 Z M17.5,149.18 L22.88,149.53 C26.9675919,130.351956 28.560774,110.726238 27.62,91.14 C27.3075718,83.9082164 26.363985,76.7175495 24.8,69.65 L21.19,69.54 C26.25,83.59 24.99,104.47 23.02,119.54 C21.7089119,129.521829 19.8629225,139.426079 17.49,149.21 L17.5,149.18 Z" id="Shape" fill="#603404" stroke-width="1"/>
            <path d="M15.84,110.54 C15.84,110.54 10.47,138 6.9,142.39 C6.9,142.39 9.35,147.62 17.38,149.8 C17.38,149.8 32.56,92.8 22.03,71.26 L21.14,69.26 C21.14,69.26 18.37,69.08 15.67,74.26 C15.67,74.26 13.16,82.12 7.14,83.96" id="Shape" fill="#8E2B3E" stroke-width="1"/>
            <path d="M17.38,150 L17.32,150 C9.32,147.82 6.72,142.53 6.7,142.47 C6.65252119,142.397044 6.65252119,142.302956 6.7,142.23 C10.19,137.98 15.54,110.75 15.6,110.48 C15.5984675,110.385775 15.6545689,110.300148 15.7415674,110.263927 C15.828566,110.227707 15.928858,110.248221 15.9946465,110.315694 C16.060435,110.383166 16.078408,110.483945 16.04,110.57 C15.82,111.69 10.7,137.72 7.14,142.4 C7.57,143.18 10.21,147.53 17.14,149.5 C18.14,145.59 31.79,91.9 21.75,71.34 L21,69.54 C20.44,69.59 18.13,70.07 15.88,74.38 C15.79,74.67 13.28,82.38 7.22,84.19 C7.13783218,84.2360144 7.03591454,84.2272886 6.96276434,84.1679765 C6.88961415,84.1086644 6.86001236,84.0107508 6.88805071,83.9208468 C6.91608907,83.8309428 6.99610207,83.7672148 7.09,83.76 C12.93,81.98 15.44,74.29 15.47,74.21 C18.22,68.96 21.05,69.08 21.17,69.09 C21.2527616,69.0940937 21.3262028,69.144343 21.36,69.22 L22.25,71.22 C27.71,82.41 26.16,103.22 23.89,118.7 C22.3271081,129.203068 20.2310676,139.619855 17.61,149.91 C17.5946985,149.970082 17.5547558,150.020918 17.5,150.05 C17.4560241,150.04522 17.4143596,150.027859 17.38,150 L17.38,150 Z" id="Shape" fill="#603404" stroke-width="1"/>
            <path d="M15.84,110.77 L15.75,110.77 C15.6346667,110.719666 15.5811961,110.585989 15.63,110.47 C18.6602342,101.694217 18.6602342,92.155783 15.63,83.38 C15.607893,83.2676474 15.6717999,83.1561449 15.7799173,83.1184295 C15.8880347,83.0807142 16.0074286,83.1282745 16.06,83.23 C19.1252733,92.1095734 19.1252733,101.760427 16.06,110.64 C16.0197004,110.723833 15.9328739,110.775139 15.84,110.77 Z" id="Shape" fill="#603404" stroke-width="1"/>
            <path d="M28.56,94.76 C28.56,94.76 35.47,92.71 38.79,95.55 C39.9346791,96.8245744 40.6606883,98.4197003 40.87,100.12 C40.87,100.12 41.07,101.5 39.99,101.62 C39.99,101.62 40.45,104.24 38.91,104.11 C38.91,104.11 39.11,106.32 37.91,106.29 C37.6662614,106.394211 37.3858352,106.363895 37.17,106.21 C37.17,106.21 37,108 35.71,108 C35.3855907,108.011907 35.0712601,107.886148 34.8445886,107.653762 C34.6179171,107.421376 34.5000216,107.104012 34.52,106.78 C34.0819559,104.764157 32.2826277,103.337248 30.22,103.37 C29.0207813,103.786975 27.6954748,103.280488 27.08,102.17 C27.08,102.17 23.75,98.93 24.23,96.65 C25.6376068,95.9411249 27.0831214,95.3101728 28.56,94.76 L28.56,94.76 Z" id="Shape" fill="#FFE5DE" stroke-width="1"/>
            <path d="M24.27,98.53 C24.0073976,97.9262949 23.924082,97.2597701 24.03,96.61 C24.0413156,96.545602 24.0819811,96.490149 24.14,96.46 C25.556367,95.742078 27.0120001,95.1044039 28.5,94.55 C28.81,94.46 35.56,92.55 38.93,95.38 C40.1269916,96.6919444 40.8824346,98.3462246 41.09,100.11 C41.1527382,100.562788 41.0535753,101.023187 40.81,101.41 C40.6667784,101.59571 40.4665099,101.729222 40.24,101.79 C40.3834009,102.544343 40.2408051,103.325055 39.84,103.98 C39.6621447,104.183199 39.4096693,104.30583 39.14,104.32 C39.1983973,104.976729 39.0288977,105.63354 38.66,106.18 C38.4691655,106.385781 38.200642,106.501899 37.92,106.5 C37.7216291,106.56353 37.5083709,106.56353 37.31,106.5 C37.17,107.21 36.73,108.19 35.71,108.18 C35.3658144,108.184342 35.0317684,108.063517 34.77,107.84 C34.4753408,107.558113 34.3090873,107.167779 34.31,106.76 C33.8877685,104.86487 32.1913289,103.527775 30.25,103.56 C28.9739776,103.980178 27.5783969,103.445345 26.91,102.28 C25.8090444,101.201142 24.914368,99.9302952 24.27,98.53 L24.27,98.53 Z M24.43,96.8 C24.1,98.93 27.21,101.99 27.24,102.02 L27.24,102.02 C27.7977694,103.046268 29.0200992,103.51313 30.12,103.12 L30.21,103.12 C32.3712378,103.098995 34.2503434,104.598104 34.71,106.71 C34.77,107.76 35.58,107.71 35.71,107.71 C36.79,107.71 36.93,106.14 36.93,106.12 C36.9318492,106.040436 36.9785159,105.968755 37.0505259,105.934868 C37.122536,105.900981 37.2075146,105.910712 37.27,105.96 C37.422095,106.066488 37.6176503,106.089052 37.79,106.02 L37.89,106.02 C38.0627176,106.033007 38.2319792,105.966774 38.35,105.84 C38.6621871,105.309616 38.7888513,104.690369 38.71,104.08 C38.7036781,104.017275 38.7258707,103.955027 38.770449,103.910449 C38.8150273,103.865871 38.8772745,103.843678 38.94,103.85 C39.1575866,103.884379 39.3781703,103.809604 39.53,103.65 C39.8448768,103.033315 39.9367375,102.326695 39.79,101.65 C39.7783946,101.591124 39.792531,101.530096 39.8288413,101.482319 C39.8651516,101.434543 39.9201665,101.404582 39.98,101.4 C40.1728645,101.386921 40.3510472,101.292375 40.47,101.14 C40.6483033,100.839055 40.7188396,100.486374 40.67,100.14 C40.4697659,98.4852692 39.7724108,96.9301673 38.67,95.68 C35.49,92.96 28.73,94.93 28.67,94.95 L28.67,94.95 C27.2225491,95.4853189 25.8069036,96.1029944 24.43,96.8 L24.43,96.8 Z" id="Shape" fill="#603404" stroke-width="1"/>
            <path d="M37.49,98.48 C37.454334,98.398313 37.4741209,98.3030102 37.5393574,98.2422728 C37.6045939,98.1815354 37.7010654,98.1685975 37.78,98.21 C39.1418011,98.8247156 40.06935,100.122521 40.21,101.61 C40.2104724,101.724102 40.1236308,101.819628 40.01,101.83 C39.9542882,101.832716 39.8997846,101.813157 39.8585122,101.775637 C39.8172399,101.738116 39.7925899,101.685718 39.79,101.63 C39.6471358,100.31402 38.8175118,99.1723359 37.61,98.63 C37.5491309,98.6010262 37.5049056,98.5457446 37.49,98.48 L37.49,98.48 Z" id="Shape" fill="#603404" stroke-width="1"/>
            <path d="M35.89,100.44 C35.8510191,100.354157 35.874025,100.252857 35.9462608,100.192272 C36.0184965,100.131688 36.1222546,100.126669 36.2,100.18 C37.5931566,101.091826 38.6255396,102.460088 39.12,104.05 C39.1531371,104.163218 39.0882183,104.281863 38.975,104.315 C38.8617816,104.348137 38.7431371,104.283218 38.71,104.17 C38.2431964,102.690992 37.287615,101.414533 36,100.55 C35.9506036,100.528767 35.9112329,100.489396 35.89,100.44 Z" id="Shape" fill="#603404" stroke-width="1"/>
            <path d="M34.55,102.34 C34.501531,102.246801 34.5293858,102.132124 34.6152076,102.071544 C34.7010294,102.010964 34.8184128,102.02312 34.89,102.1 C36.1271951,103.160259 36.9898196,104.590953 37.35,106.18 C37.3615809,106.237309 37.3487457,106.296851 37.314583,106.3443 C37.2804202,106.391748 37.2280231,106.422806 37.17,106.43 C37.0515539,106.44809 36.9404119,106.368068 36.92,106.25 C36.5663244,104.76491 35.7547333,103.428583 34.6,102.43 C34.5761236,102.404614 34.5589405,102.373684 34.55,102.34 Z" id="Shape" fill="#603404" stroke-width="1"/>
            <path d="M28.29,90.42 L30.29,93.74 C30.29,93.74 28.9,113.74 18.35,118.74 L15.35,117.74 L28.29,90.42 Z" id="Shape" fill="#CE9006" stroke-width="1"/>
            <path d="M18.38,119 L18.31,119 L15.31,118 C15.2466919,117.979015 15.1956106,117.931582 15.17,117.87 C15.1426181,117.809626 15.1426181,117.740374 15.17,117.68 L28.09,90.27 C28.1255287,90.1958074 28.1979761,90.1462381 28.28,90.14 C28.3640399,90.1390366 28.4429401,90.1803653 28.49,90.25 L30.49,93.57 C30.5025012,93.6124317 30.5025012,93.6575683 30.49,93.7 C30.49,93.9 28.97,113.89 18.42,118.94 L18.38,119 Z M15.69,117.68 L18.36,118.53 C28.28,113.7 30,95.1 30.08,93.79 L28.31,90.89 L15.69,117.68 Z" id="Shape" fill="#603404" stroke-width="1"/>
            <path d="M18.84,70.14 C18.84,70.14 -2.35,79.4 1.54,102.08 C1.54,102.08 1.97,112.21 15.38,117.84 C15.38,117.84 26.73,111.84 28.46,90.62 L27.06,89 C22.5672505,83.7514419 19.718868,77.2964993 18.87,70.44 L18.84,70.14 Z" id="Shape" fill="#8E2B3E" stroke-width="1"/>
            <path d="M15.38,118.06 L15.29,118.06 C1.91,112.45 1.29,102.21 1.29,102.06 C-2.56,79.52 18.53,70 18.75,69.93 C18.8131777,69.8994975 18.8868223,69.8994975 18.95,69.93 C19.0109798,69.9666102 19.0515912,70.0293733 19.06,70.1 L19.06,70.38 C19.8983028,77.1941252 22.7300343,83.6090059 27.2,88.82 L28.6,90.45 C28.63976,90.4971524 28.6579005,90.5588298 28.65,90.62 C27.75,101.62 24.22,108.51 21.42,112.31 C19.841316,114.609279 17.797163,116.551225 15.42,118.01 L15.38,118.06 Z M18.65,70.48 C16.18,71.68 -1.81,81.21 1.76,102 C1.76,102.13 2.36,112 15.36,117.54 C16.43,116.91 26.59,110.44 28.23,90.65 L26.89,89.09 C22.3763202,83.8298661 19.5105878,77.3576233 18.65,70.48 L18.65,70.48 Z" id="Shape" fill="#603404" stroke-width="1"/>
            <path d="M62.27,15 L19.14,14.26 C18.9462679,13.5841995 18.396951,13.069455 17.71,12.92 C16.2407995,12.9191086 14.9797546,13.9657759 14.71,15.41 C14.6372029,16.8657733 15.5916192,18.1744488 17,18.55 C17.9072002,18.5915319 18.7285051,18.0166185 19,17.15 L62.27,15 Z" id="Shape" fill="#EEC743" stroke-width="1"/>
            <path d="M17.5,12.9 L17.71,12.9 C18.396951,13.049455 18.9462679,13.5641995 19.14,14.24 L62.27,15 L19,17.15 C18.7239613,17.9249967 18.0280908,18.4731404 17.21,18.56 L17,18.56 C15.5678319,18.2035563 14.5876524,16.884084 14.66,15.41 C14.9253803,14.0246527 16.09254,12.9931137 17.5,12.9 L17.5,12.9 Z M17.5,12.45 C15.8730103,12.5453989 14.5242698,13.7451987 14.24,15.35 C14.1400646,17.0789839 15.3091919,18.6251125 17,19 L17.25,19 C18.1514631,18.9361116 18.9475432,18.3888066 19.33,17.57 L62.33,15.42 L62.33,14.52 L19.43,13.8 C19.1381992,13.0978249 18.5087186,12.5927328 17.76,12.46 L17.49,12.46 L17.5,12.45 Z" id="Shape" fill="#603404" stroke-width="1"/>
            <polygon id="Shape" fill="#E59515" points="37.06 0.63 27.36 9 27.94 21.04 47.29 21.76 46.86 9" stroke-width="1"/>
            <path d="M47.29,22 L47.29,22 L27.94,21.28 C27.820667,21.2749152 27.7250848,21.179333 27.72,21.06 L27.14,9.06 C27.1383247,8.99103911 27.1676899,8.92496742 27.22,8.88 L36.92,0.51 C37.0044893,0.441380948 37.1255107,0.441380948 37.21,0.51 L47,8.83 C47.0471642,8.87035333 47.0760159,8.92805663 47.08,8.99 L47.51,21.75 C47.5113139,21.8139338 47.4859514,21.8755284 47.44,21.92 C47.4020515,21.9648444 47.3483819,21.9934683 47.29,22 Z M28.16,20.82 L47.06,21.52 L46.64,9.11 L37.07,0.93 L27.59,9.1 L28.16,20.82 Z" id="Shape" fill="#603404" stroke-width="1"/>
            <ellipse id="Oval" fill="#603404" cx="37.01" cy="9.93" rx="2.3" ry="3.46" stroke-width="1"/>
            <ellipse id="Oval" fill="#FFFFFF" cx="37.01" cy="9.93" rx="2" ry="3.01" stroke-width="1"/>
            <ellipse id="Oval" fill="#CB161E" cx="37.01" cy="9.93" rx="1.66" ry="2.5" stroke-width="1"/>
            <path d="M36.29,8.82 C36.3668121,8.95304246 36.3668121,9.11695754 36.29,9.25 C36.2,9.32 36.08,9.25 36.02,9.09 C35.9431879,8.95695754 35.9431879,8.79304246 36.02,8.66 C36.11,8.58 36.23,8.65 36.29,8.82 Z" id="Shape" fill="#FFFFFF" stroke-width="1"/>
            <path d="M22.11,10 L26,22.1 L34.86,18.67 C34.86,18.67 32.72,0.73 22.11,10 Z" id="Shape" fill="#EEC743" stroke-width="1"/>
            <path d="M22.11,10 L23.23,13 C23.59,14 24,15 24.3,16 L26.3,22 L26,21.86 L34.86,18.43 L34.72,18.67 C34.4823358,16.969453 34.0838842,15.2952867 33.53,13.67 C33.0204932,12.0454101 32.202192,10.534439 31.12,9.22 C30.5785607,8.588855 29.8923399,8.0982071 29.12,7.79 C28.3402313,7.51243846 27.4979855,7.46044798 26.69,7.64 C24.9930452,8.03957081 23.4202692,8.84999687 22.11,10 L22.11,10 Z M22.11,10 C23.3420167,8.74018139 24.8625808,7.79969705 26.54,7.26 C27.4292593,7.04442365 28.3627064,7.10015183 29.22,7.42 C30.064814,7.75157455 30.8163837,8.28350741 31.41,8.97 C32.5370277,10.3298136 33.3894521,11.8954219 33.92,13.58 C34.4837701,15.2344747 34.8889272,16.9388133 35.13,18.67 L35.13,18.84 L34.96,18.9 L26.1,22.33 L25.88,22.42 L25.81,22.19 L23.81,16.07 C23.46,15.07 23.21,14.07 22.92,13.02 L22.11,10 Z" id="Shape" fill="#603404" stroke-width="1"/>
            <polygon id="Shape" fill="#E59515" points="23.63 10.65 24.19 11.96 24.65 13.31 25.55 16.01 26.46 18.7 26.92 20.05 27.26 21.44 26.7 20.12 26.25 18.77 25.34 16.08 24.43 13.38 23.98 12.03" stroke-width="1"/>
            <polygon id="Shape" fill="#E59515" points="28.94 20.63 28.37 19.3 27.92 17.92 27.01 15.18 26.11 12.43 25.65 11.06 25.31 9.65 25.87 10.99 26.32 12.36 27.23 15.11 28.13 17.85 28.59 19.23" stroke-width="1"/>
            <polygon id="Shape" fill="#E59515" points="30.53 20.02 29.99 18.71 29.57 17.37 28.71 14.69 27.86 12 27.44 10.66 27.12 9.28 27.65 10.59 28.08 11.93 28.93 14.62 29.78 17.3 30.21 18.65" stroke-width="1"/>
            <polygon id="Shape" fill="#E59515" points="32.43 19.24 31.93 18.08 31.54 16.88 30.75 14.48 29.97 12.08 29.58 10.88 29.29 9.65 29.79 10.81 30.18 12.01 30.97 14.41 31.75 16.81 32.14 18.01" stroke-width="1"/>
            <path d="M33.65,19.1 C32.76,13.38 31.07,10.1 28.65,9.32 C25.75,8.41 22.75,11.48 22.72,11.52 L22.39,11.21 C22.52,11.07 25.63,7.9 28.78,8.9 C31.38,9.72 33.17,13.13 34.09,19.04 L33.65,19.1 Z" id="Shape" fill="#603404" stroke-width="1"/>
            <ellipse id="Oval" fill="#FFFFFF" cx="27.35" cy="16.63" rx="1" ry="1.32" stroke-width="1"/>
            <ellipse id="Oval" fill="#FFFFFF" cx="29.65" cy="15.78" rx="1" ry="1.32" stroke-width="1"/>
            <ellipse id="Oval" fill="#048534" cx="27.35" cy="16.64" rx="1" ry="1.08" stroke-width="1"/>
            <ellipse id="Oval" fill="#FFFFFF" cx="27.34" cy="16.21" rx="1" ry="1" stroke-width="1"/>
            <ellipse id="Oval" fill="#FFFFFF" cx="27.59" cy="16.19" rx="1" ry="1" stroke-width="1"/>
            <ellipse id="Oval" fill="#048534" cx="29.65" cy="15.78" rx="1" ry="1.08" stroke-width="1"/>
            <ellipse id="Oval" fill="#FFFFFF" cx="29.64" cy="15.34" rx="1" ry="1" stroke-width="1"/>
            <ellipse id="Oval" fill="#FFFFFF" cx="29.89" cy="15.32" rx="1" ry="1" stroke-width="1"/>
            <path d="M52.2,10 L48.28,22.1 L39.42,18.67 C39.42,18.67 41.59,0.73 52.2,10 Z" id="Shape" fill="#EEC743" stroke-width="1"/>
            <path d="M52.2,10 L51.35,13 C51.06,14 50.81,15 50.46,16.05 L48.46,22.17 L48.39,22.4 L48.17,22.31 L39.31,18.88 L39.14,18.82 L39.14,18.65 C39.3810728,16.9188133 39.7862299,15.2144747 40.35,13.56 C40.8807821,11.8755214 41.733183,10.3099563 42.86,8.95 C43.4536163,8.26350741 44.205186,7.73157455 45.05,7.4 C45.9072936,7.08015183 46.8407407,7.02442365 47.73,7.24 C49.4237647,7.77956978 50.9588426,8.72740313 52.2,10 Z M52.2,10 C50.9027822,8.87301635 49.3519045,8.07699065 47.68,7.68 C46.8720145,7.50044798 46.0297687,7.55243846 45.25,7.83 C44.4776601,8.1382071 43.7914393,8.628855 43.25,9.26 C42.167808,10.574439 41.3495068,12.0854101 40.84,13.71 C40.2861158,15.3352867 39.8876642,17.009453 39.65,18.71 L39.51,18.47 L48.37,21.9 L48.07,22.04 L50.07,16.04 C50.37,15.04 50.78,14.04 51.14,13.04 L52.2,10 Z" id="Shape" fill="#603404" stroke-width="1"/>
            <polygon id="Shape" fill="#E59515" points="50.5 10.65 50.14 12.01 49.68 13.33 48.75 15.98 47.83 18.63 47.36 19.95 46.8 21.24 47.15 19.88 47.61 18.55 48.54 15.91 49.46 13.26 49.93 11.93" stroke-width="1"/>
            <polygon id="Shape" fill="#E59515" points="45.02 20.63 45.37 19.22 45.84 17.83 46.77 15.07 47.7 12.3 48.17 10.92 48.74 9.57 48.38 10.99 47.92 12.38 46.99 15.14 46.05 17.91 45.59 19.29" stroke-width="1"/>
            <polygon id="Shape" fill="#E59515" points="43.19 19.82 43.54 18.46 44 17.13 44.91 14.48 45.82 11.82 46.28 10.49 46.84 9.2 46.49 10.56 46.03 11.89 45.12 14.55 44.21 17.2 43.75 18.53" stroke-width="1"/>
            <polygon id="Shape" fill="#E59515" points="41.51 19.24 41.82 18 42.24 16.81 43.08 14.41 43.92 12.01 44.34 10.81 44.87 9.65 44.56 10.89 44.14 12.09 43.3 14.48 42.45 16.88 42.03 18.08" stroke-width="1"/>
            <path d="M40.66,19.1 L40.21,19 C41.13,13.09 42.92,9.68 45.52,8.86 C48.67,7.86 51.78,11.04 51.91,11.17 L51.58,11.48 C51.58,11.48 48.58,8.37 45.65,9.28 C43.24,10.09 41.55,13.38 40.66,19.1 Z" id="Shape" fill="#603404" stroke-width="1"/>
            <ellipse id="Oval" fill="#FFFFFF" cx="47.08" cy="16.63" rx="1" ry="1.32" stroke-width="1"/>
            <ellipse id="Oval" fill="#FFFFFF" cx="44.78" cy="15.78" rx="1" ry="1.32" stroke-width="1"/>
            <ellipse id="Oval" fill="#048534" cx="47.08" cy="16.64" rx="1" ry="1.08" stroke-width="1"/>
            <ellipse id="Oval" fill="#FFFFFF" cx="47.09" cy="16.21" rx="1" ry="1" stroke-width="1"/>
            <ellipse id="Oval" fill="#FFFFFF" cx="46.84" cy="16.19" rx="1" ry="1" stroke-width="1"/>
            <ellipse id="Oval" fill="#048534" cx="44.78" cy="15.78" rx="1" ry="1.08" stroke-width="1"/>
            <ellipse id="Oval" fill="#FFFFFF" cx="44.79" cy="15.34" rx="1" ry="1" stroke-width="1"/>
            <ellipse id="Oval" fill="#FFFFFF" cx="44.54" cy="15.32" rx="1" ry="1" stroke-width="1"/>
            <path d="M17.66,53.6 C17.66,53.6 9.12,44.75 14.29,28.68 C14.29,28.68 18.37,18.26 35.45,17.86 C35.45,17.86 52.45,16.6 58.45,30.03 C59.7318705,33.0382541 60.2802784,36.308136 60.05,39.57 C59.81,43.89 58.4,51.69 54.17,54.88 L17.66,53.6 Z" id="Shape" fill="#161616" stroke-width="1"/>
            <path d="M14.17,33.07 C14.17,33.07 14.63,26.49 20.17,22.84 C20.17,22.84 29.84,16.61 41.58,18.76 C41.58,18.76 32.64,17.23 22.17,23.27 C18.5350217,25.6095238 15.7344378,29.0402391 14.17,33.07 L14.17,33.07 Z" id="Shape" fill="#332723" stroke-width="1"/>
            <path d="M18,48.25 C17.0935167,47.4896417 15.9312806,47.1034217 14.75,47.17 C14.75,47.17 11.51,48.47 13.36,54.68 C13.36,54.68 14.75,59.83 19.16,61.75 L18,48.25 Z" id="Shape" fill="#FFE5DE" stroke-width="1"/>
            <path d="M19.44,62.11 L19.09,62 C14.64,60.06 13.22,55 13.16,54.78 C11.29,48.42 14.55,47 14.69,47 C15.9516837,46.9051181 17.2004969,47.307035 18.17,48.12 L18.24,48.18 L19.44,62.11 Z M15.22,47.36 C15.0835638,47.3487744 14.9464362,47.3487744 14.81,47.36 C14.73,47.36 11.81,48.67 13.6,54.58 C13.6,54.63 14.94,59.37 18.92,61.34 L17.8,48.34 C17.0580612,47.7614186 16.1589578,47.4198987 15.22,47.36 Z" id="Shape" fill="#603404" stroke-width="1"/>
            <path d="M16.33,56.56 C16.1419399,56.5626946 15.9562294,56.5179865 15.79,56.43 C15.4391095,56.2111796 15.2099662,55.8415935 15.17,55.43 C15.0902832,54.8920695 15.4120211,54.3755955 15.93,54.21 C16.307764,54.1307161 16.7013693,54.218184 17.01,54.45 C16.7126436,53.2932534 16.1278863,52.230371 15.31,51.36 C15.2361757,51.3051381 15.2021349,51.2115693 15.2234491,51.1220954 C15.2447633,51.0326216 15.3173337,50.9644494 15.4079638,50.9487634 C15.4985939,50.9330774 15.5898546,50.9728942 15.64,51.05 C15.77,51.18 18.73,54.35 16.9,56.4 C16.8751963,56.4268703 16.8443432,56.447439 16.81,56.46 C16.656893,56.5205277 16.4945401,56.5543513 16.33,56.56 Z M16.21,54.64 L16,54.64 C15.7071556,54.7456347 15.5279458,55.0415393 15.57,55.35 C15.6072248,55.6207098 15.7654229,55.8598464 16,56 C16.1961497,56.0764377 16.4138503,56.0764377 16.61,56 C16.8206446,55.748353 16.958909,55.4441714 17.01,55.12 C16.9649128,55.0960474 16.9295599,55.0571593 16.91,55.01 C16.7691879,54.7561325 16.4880088,54.6135629 16.2,54.65 L16.21,54.64 Z" id="Shape" fill="#603404" stroke-width="1"/>
            <path d="M54.71,48.25 C55.6267302,47.4798686 56.8051902,47.0930185 58,47.17 C58,47.17 61.24,48.47 59.39,54.68 C59.39,54.68 58,59.83 53.59,61.75 L54.71,48.25 Z" id="Shape" fill="#FFE5DE" stroke-width="1"/>
            <path d="M53.29,62.11 L54.49,48.11 L54.56,48.05 C55.5207694,47.2513605 56.7541067,46.8569794 58,46.95 C58.19,47.02 61.45,48.42 59.57,54.75 C59.51,55 58.1,60 53.64,62 L53.29,62.11 Z M54.92,48.37 L53.8,61.37 C57.8,59.37 59.11,54.66 59.12,54.61 C60.88,48.7 57.98,47.42 57.86,47.37 C56.7927674,47.3260429 55.7476678,47.6827322 54.93,48.37 L54.92,48.37 Z" id="Shape" fill="#603404" stroke-width="1"/>
            <path d="M56.41,56.56 C56.2426782,56.5586967 56.0768638,56.528241 55.92,56.47 C55.8856568,56.457439 55.8548037,56.4368703 55.83,56.41 C54,54.37 57,51.2 57.1,51.06 C57.1501454,50.9828942 57.2414061,50.9430774 57.3320362,50.9587634 C57.4226663,50.9744494 57.4952367,51.0426216 57.5165509,51.1320954 C57.5378651,51.2215693 57.5038243,51.3151381 57.43,51.37 C56.6121137,52.240371 56.0273564,53.3032534 55.73,54.46 C56.0314541,54.2291903 56.4171797,54.1382173 56.79,54.21 C57.3157659,54.3632285 57.6512102,54.8770103 57.58,55.42 C57.538556,55.8310926 57.3097846,56.2000786 56.96,56.42 C56.7917271,56.5131134 56.6023125,56.561328 56.41,56.56 L56.41,56.56 Z M56.13,56.07 C56.3261497,56.1464377 56.5438503,56.1464377 56.74,56.07 C56.9623437,55.9150157 57.1050363,55.6698771 57.13,55.4 C57.1685946,55.0886425 56.9792796,54.7941526 56.68,54.7 L56.68,54.7 C56.3343296,54.6319765 55.9859704,54.8041069 55.83,55.12 C55.8104401,55.1671593 55.7750872,55.2060474 55.73,55.23 C55.7878635,55.5400703 55.9257522,55.8296365 56.13,56.07 L56.13,56.07 Z" id="Shape" fill="#603404" stroke-width="1"/>
            <circle id="Oval" fill="#FFFFFF" cx="36.37" cy="49.87" r="1" stroke-width="1"/>
            <circle id="Oval" fill="#FFFFFF" cx="36.37" cy="51.55" r="1" stroke-width="1"/>
            <circle id="Oval" fill="#FFFFFF" cx="36.37" cy="49.87" r="1" stroke-width="1"/>
            <circle id="Oval" fill="#FFFFFF" cx="36.37" cy="51.55" r="1" stroke-width="1"/>
            <path d="M21,35.66 C21,35.66 24.43,29 34.37,32.19 C34.37,32.19 37.23,33.77 41.79,31.87 C45.434317,31.1628099 49.1566949,32.643168 51.32,35.66 C51.32,35.66 55.54,42.57 55,49.2 C54.9368057,50.1990016 54.9368057,51.2009984 55,52.2 L55,58.4 C55,58.4 54.65,72.1 40.15,73.52 C40.15,73.52 25.34,75.77 19.44,62.52 C18.3192378,59.9291822 17.72113,57.1425437 17.68,54.32 C17.55,49.53 17.8,40.47 21,35.66 Z" id="Shape" fill="#FFE5DE" stroke-width="1"/>
            <path d="M47.06,39.52 L40.88,43.17 C40.63,43.31 40.37,43.44 40.12,43.57 C39.87,43.7 39.32,44.04 39.52,44.39 C39.52,44.39 39.86,45.47 41.37,44.66 L46.67,42.21 C47.3853347,41.7990472 48.1792595,41.543492 49,41.46 C49.2941792,41.4446463 49.5858552,41.3977099 49.87,41.32 L51.87,40.74 C52,40.74 52.05,40.56 51.96,40.49 C50.8659929,39.7348469 49.5867756,39.2923068 48.26,39.21 C47.8400421,39.2087782 47.4268201,39.3155272 47.06,39.52 Z" id="Shape" fill="#161616" stroke-width="1"/>
            <path d="M25.67,39.52 L31.85,43.17 C32.1,43.31 32.36,43.44 32.61,43.57 C32.86,43.7 33.41,44.04 33.21,44.39 C33.21,44.39 32.87,45.47 31.36,44.66 L26.06,42.21 C25.3356157,41.7950256 24.5310487,41.5393369 23.7,41.46 C23.4058208,41.4446463 23.1141448,41.3977099 22.83,41.32 L20.83,40.74 C20.7,40.74 20.65,40.56 20.74,40.49 C21.8340071,39.7348469 23.1132244,39.2923068 24.44,39.21 C24.8701046,39.2035645 25.2943229,39.3104813 25.67,39.52 Z" id="Shape" fill="#161616" stroke-width="1"/>
            <path d="M38.2,58.95 C38.0018449,58.9496418 37.8272446,58.8197067 37.77,58.63 C37.5973461,58.1082452 37.1514991,57.7238944 36.61,57.63 L36.61,57.63 C35.9214495,57.6198189 35.2894964,58.0099134 34.99,58.63 C34.898873,58.8619596 34.6369596,58.976127 34.405,58.885 C34.1730404,58.793873 34.058873,58.5319596 34.15,58.3 C34.5809634,57.3057419 35.5664348,56.6671565 36.65,56.68 L36.72,56.68 C37.6519592,56.7915906 38.4333395,57.4362293 38.72,58.33 C38.7913354,58.5674363 38.6571883,58.8178442 38.42,58.89 L38.2,58.95 Z" id="Shape" fill="#161616" stroke-width="1"/>
            <path d="M32.1,65.87 C32.7871887,66.2204804 33.5214564,66.4697273 34.28,66.61 C34.9907981,66.7567853 35.7142303,66.8338174 36.44,66.84 C37.1667189,66.8536704 37.893145,66.800109 38.61,66.68 C38.9746726,66.6227054 39.3353836,66.5425474 39.69,66.44 C40.0531009,66.3593792 40.3818255,66.1670404 40.63,65.89 L40.63,65.89 C40.4989192,66.2910796 40.2200199,66.627189 39.85,66.83 C39.5012349,67.042856 39.1286847,67.2140278 38.74,67.34 C37.9669316,67.6012626 37.1560169,67.7330362 36.34,67.73 C35.5402998,67.712135 34.7492864,67.560017 34,67.28 C33.2246121,67.011874 32.5343954,66.5425267 32,65.92 L32.07,65.92 L32.1,65.87 Z" id="Shape" fill="#161616" stroke-width="1"/>
            <path d="M29,65.31 L27.69,63.14 C30.1459172,61.2092205 33.1861127,60.1723092 36.31,60.2 C36.31,60.2 41.85,60.28 45.1,63.02 L43.79,65.52 C43.79,65.52 37.37,57.94 29,65.31 Z" id="Shape" fill="#161616" stroke-width="1"/>
            <path d="M17.75,46.78 C17.75,46.78 19.84,65.88 26.42,69.57 C28.55,70.77 30.75,71.92 33.18,71.71 C33.8829087,71.6928638 34.570396,71.5003673 35.18,71.15 C35.3386586,71.0792674 35.4894799,70.9921262 35.63,70.89 C36.2327839,70.4772602 37.0272161,70.4772602 37.63,70.89 C37.7719752,70.987023 37.9226162,71.0707125 38.08,71.14 C38.08,71.14 41.08,72.23 42.63,71.14 C42.63,71.14 53.27,70.25 55.19,46.49 C55.19,46.49 60.45,65.83 45.77,77.56 C44.66,78.45 43.17,80.18 42.06,81.08 C39.96,82.78 37.45,83.74 37.38,85.21 C37.38,85.21 32.8,80.88 28.74,77.67 C28.74,77.71 14.28,67.46 17.75,46.78 Z" id="Shape" fill="#161616" stroke-width="1"/>
            <path d="M40.17,51.7 C40.17,51.7 40.75,48.36 45.06,48.05 C45.06,48.05 47.57,47.84 49.19,47.89 C50.3588183,48.0198176 51.4995479,47.472733 52.13,46.48 C52.13,46.48 50.37,50.81 46.7,51.36 C46.71,51.36 41,52.11 40.17,51.7 Z" id="Shape" fill="#FFFFFF" stroke-width="1"/>
            <path d="M40.15,51.71 C40.347493,50.8224262 40.8115568,50.0164207 41.48,49.4 C42.1483196,48.7849806 42.9650201,48.3542314 43.85,48.15 C44.7292499,47.9674115 45.6225048,47.8603547 46.52,47.83 C47.41,47.77 48.3,47.73 49.2,47.74 L49.2,47.74 C49.7503172,47.7755579 50.3013903,47.6831419 50.81,47.47 C51.3205524,47.2650123 51.7420994,46.8859743 52,46.4 L52,46.4 C52.0498535,46.3230691 52.1495604,46.2958948 52.2315542,46.3368916 C52.313548,46.3778885 52.3516326,46.4739587 52.32,46.56 C51.8606124,47.6693725 51.2032441,48.6859214 50.38,49.56 C49.5531229,50.4739682 48.4802829,51.1301713 47.29,51.45 C46.7021968,51.5646595 46.107642,51.641484 45.51,51.68 C44.92,51.73 44.33,51.79 43.74,51.82 C43.15,51.85 42.56,51.88 41.96,51.89 C41.3508125,51.9339523 40.7385997,51.8730693 40.15,51.71 L40.15,51.71 Z M40.15,51.71 C40.7237285,51.7923248 41.3062715,51.7923248 41.88,51.71 C42.47,51.71 43.05,51.61 43.64,51.54 C44.8,51.38 46.01,51.3 47.11,51.04 C48.2230423,50.7282228 49.225035,50.1076114 50,49.25 C50.8128708,48.4152315 51.4879523,47.4566157 52,46.41 L52.33,46.56 L52.33,46.56 C52.1826729,46.8308968 51.989864,47.0744449 51.76,47.28 C51.5289996,47.4829373 51.2652618,47.6452375 50.98,47.76 C50.4184046,47.9837192 49.8122089,48.0727649 49.21,48.02 L49.21,48.02 C48.33,48.02 47.44,48.02 46.55,48.02 C45.6646991,48.0320213 44.7818207,48.1156273 43.91,48.27 C43.0433842,48.4436687 42.2369257,48.8400052 41.57,49.42 C40.8934826,50.0217522 40.4128091,50.8124251 40.19,51.69 L40.15,51.71 Z" id="Shape" fill="#161616" stroke-width="1"/>
            <path d="M45.52,48.1 C45.8904278,48.1052433 46.2434365,48.2581416 46.5006589,48.5247516 C46.7578813,48.7913617 46.8980328,49.1496222 46.89,49.52 C46.8719027,49.8595314 46.8114339,50.1954691 46.71,50.52 C46.5487144,51.0538123 46.0671714,51.4270081 45.51,51.45 L43.11,51.69 C42.6124576,51.3751908 42.2991265,50.8380518 42.27,50.25 C42.1995021,49.6589014 42.4193268,49.0702183 42.86,48.67 C43.6556546,48.1820531 44.5942686,47.9809215 45.52,48.1 L45.52,48.1 Z" id="Shape" fill="#161616" stroke-width="1"/>
            <ellipse id="Oval" fill="#FFFFFF" cx="43.8" cy="49.17" rx="1" ry="1" stroke-width="1"/>
            <path d="M32.56,51.7 C32.56,51.7 31.98,48.36 27.67,48.05 C27.67,48.05 25.16,47.84 23.54,47.89 C22.3711817,48.0198176 21.2304521,47.472733 20.6,46.48 C20.6,46.48 22.36,50.81 26.03,51.36 C26,51.36 31.78,52.11 32.56,51.7 Z" id="Shape" fill="#FFFFFF" stroke-width="1"/>
            <path d="M32.54,51.69 C32.3118742,50.8364744 31.8391421,50.0682848 31.18,49.48 C30.5130743,48.9000052 29.7066158,48.5036687 28.84,48.33 C27.9681793,48.1756273 27.0853009,48.0920213 26.2,48.08 C25.31,48.08 24.42,48.01 23.54,48.08 L23.54,48.08 C22.9377911,48.1327649 22.3315954,48.0437192 21.77,47.82 C21.4847382,47.7052375 21.2210004,47.5429373 20.99,47.34 C20.760136,47.1344449 20.5673271,46.8908968 20.42,46.62 L20.42,46.62 L20.75,46.47 C21.2620477,47.5166157 21.9371292,48.4752315 22.75,49.31 C23.5210209,50.1215506 24.4998598,50.7060869 25.58,51 C26.68,51.26 27.9,51.34 29.05,51.5 C29.63,51.57 30.22,51.63 30.81,51.67 C31.3827763,51.7589631 31.9653201,51.7656977 32.54,51.69 L32.54,51.69 Z M32.54,51.69 C31.9621596,51.8564121 31.360362,51.9240298 30.76,51.89 C30.17,51.89 29.57,51.89 28.98,51.82 C28.39,51.75 27.8,51.73 27.21,51.68 C26.612358,51.641484 26.0178032,51.5646595 25.43,51.45 C24.2397171,51.1301713 23.1668771,50.4739682 22.34,49.56 C21.5131852,48.6867366 20.852395,47.6701363 20.39,46.56 C20.3583674,46.4739587 20.396452,46.3778885 20.4784458,46.3368916 C20.5604396,46.2958948 20.6601465,46.3230691 20.71,46.4 L20.71,46.4 C20.9579285,46.8790246 21.3643724,47.2571941 21.86,47.47 C22.3686097,47.6831419 22.9196828,47.7755579 23.47,47.74 L23.47,47.74 C24.37,47.74 25.26,47.74 26.15,47.83 C27.0474952,47.8603547 27.9407501,47.9674115 28.82,48.15 C29.7049799,48.3542314 30.5216804,48.7849806 31.19,49.4 C31.8805347,50.0081737 32.3660558,50.8150468 32.58,51.71 L32.54,51.69 Z" id="Shape" fill="#161616" stroke-width="1"/>
            <path d="M27.21,48.1 C26.8395722,48.1052433 26.4865635,48.2581416 26.2293411,48.5247516 C25.9721187,48.7913617 25.8319672,49.1496222 25.84,49.52 C25.8580973,49.8595314 25.9185661,50.1954691 26.02,50.52 C26.1812856,51.0538123 26.6628286,51.4270081 27.22,51.45 L29.62,51.69 C30.1175424,51.3751908 30.4308735,50.8380518 30.46,50.25 C30.5304979,49.6589014 30.3106732,49.0702183 29.87,48.67 C29.0743454,48.1820531 28.1357314,47.9809215 27.21,48.1 L27.21,48.1 Z" id="Shape" fill="#161616" stroke-width="1"/>
            <ellipse id="Oval" fill="#FFFFFF" cx="28.93" cy="49.17" rx="1" ry="1" stroke-width="1"/>
        </g>
    </g>
</svg>