<?xml version="1.0" encoding="UTF-8"?><svg xmlns="http://www.w3.org/2000/svg" xmlns:xlink="http://www.w3.org/1999/xlink" width="119.9603042602539" height="155.64759826660156" viewBox="-0.10909181833267212 -0.04146432876586914 119.9603042602539 155.64759826660156" version="1.1">
    <!-- Generator: Sketch 46.2 (44496) - http://www.bohemiancoding.com/sketch -->
    <title>三国主题素材-14</title>
    <desc>Created with Sketch.</desc>
    <defs/>
    <g id="Page-1" stroke="none" fill-rule="evenodd">
        <g id="三国主题素材-14" fill-rule="nonzero">
            <path d="M28.06,87.93 C28.06,87.93 33.89,85.4 35.57,91.24 C37.25,97.08 33.87,99.62 32.33,100.62" id="Shape" fill="#F7D5C4" stroke-width="1"/>
            <path d="M32.33,100.83 C32.2308418,100.825972 32.1454493,100.758797 32.118186,100.663375 C32.0909226,100.567954 32.1279373,100.465806 32.21,100.41 C35.45,98.34 36.51,95.27 35.36,91.29 C35.0646698,89.8786703 34.1554637,88.6725057 32.88,88 C31.3464225,87.4399497 29.658537,87.4756344 28.15,88.1 C28.0380738,88.1333519 27.9189206,88.0775259 27.8729149,87.9701793 C27.8269092,87.8628327 27.8686581,87.7380487 27.97,87.68 C29.597084,86.9907254 31.4271946,86.9549111 33.08,87.58 C34.4687078,88.3008748 35.4652871,89.6015573 35.8,91.13 C37.01,95.32 35.89,98.56 32.46,100.76 C32.4255372,100.796986 32.3798487,100.821588 32.33,100.83 Z" id="Shape" fill="#603404" stroke-width="1"/>
            <path d="M32.35,100.88 C32.2318902,100.881534 32.1264939,100.806117 32.0898293,100.693831 C32.0531647,100.581546 32.0937443,100.458463 32.19,100.39 C35.41,98.33 36.46,95.27 35.32,91.31 C35.0230765,89.9206383 34.12592,88.7341946 32.87,88.07 C31.3458864,87.5148129 29.66912,87.5504887 28.17,88.17 C28.0797685,88.2271853 27.9643052,88.2257938 27.875478,88.1664505 C27.7866509,88.1071072 27.7411643,88.000972 27.7594517,87.8957225 C27.7777391,87.7904729 27.8563613,87.7059019 27.96,87.68 C29.5967049,86.9868346 31.4375724,86.95102 33.1,87.58 C34.4973772,88.3050009 35.5010224,89.61267 35.84,91.15 C37.05,95.37 35.93,98.62 32.48,100.83 C32.4417853,100.857749 32.3969604,100.87499 32.35,100.88 Z" id="Shape" fill="#603404" stroke-width="1"/>
            <polygon id="Shape" fill="#A8A6A6" points="21.68 85.13 0.85 22.43 1.5 13.69 6.64 19.68 27.78 82.95" stroke-width="1"/>
            <path d="M1.5,13.69 L6.64,19.69 L27.78,82.95 L21.68,85.13 L0.85,22.43 L1.5,13.69 L1.5,13.69 Z M1.5,13.24 L1.36,13.24 C1.18438091,13.2970954 1.06147053,13.4556894 1.05,13.64 L0.4,22.39 C0.387877538,22.4493877 0.387877538,22.5106123 0.4,22.57 L21.24,85.27 C21.3008033,85.4557491 21.474555,85.581012 21.67,85.58 L21.82,85.58 L27.92,83.4 C28.1543489,83.3194962 28.2795194,83.0646848 28.2,82.83 L7.07,19.53 C7.0561426,19.4761017 7.03240779,19.4252414 7,19.38 L1.86,13.38 C1.77542288,13.2796358 1.65124338,13.2211984 1.52,13.22 L1.5,13.24 Z" id="Shape" fill="#898989" stroke-width="1"/>
            <polygon id="Shape" fill="#D8D8D8" points="2.8 15.2 25.81 83.65 27.78 82.95 6.64 19.68" stroke-width="1"/>
            <polygon id="Shape" fill="#D8D8D8" points="7.65 29.64 8.6 32.48 5.15 35.36 4.33 32.91" stroke-width="1"/>
            <polygon id="Shape" fill="#D8D8D8" points="8.96 33.53 9.91 36.37 6.44 39.27 5.63 36.82" stroke-width="1"/>
            <polygon id="Shape" fill="#FFFFFF" points="7.65 29.64 9.83 29.23 10.68 31.78 8.6 32.48" stroke-width="1"/>
            <polygon id="Shape" fill="#FFFFFF" points="8.96 33.53 11.14 33.12 11.99 35.67 9.91 36.37" stroke-width="1"/>
            <rect id="Rectangle-path" fill="#562707" transform="matrix(0.9503529315424153,-0.31117407589440566,0.31117407589440566,0.9503529315424153,-27.835152849024105,13.313628575120518)" x="24.520492" y="87.4683286" width="6.57" height="12.84" stroke-width="1"/>
            <rect id="Rectangle-path" fill="#C1B985" transform="matrix(0.9503529315424153,-0.31117407589440566,0.31117407589440566,0.9503529315424153,-30.0020119758237,14.422515655627251)" x="26.8271609" y="99.928409" width="6.74" height="2.61" stroke-width="1"/>
            <path d="M27.41,103.63 C27.3592649,103.631914 27.3138106,103.598857 27.3,103.55 L26.49,101.07 C26.4771657,101.041373 26.4771657,101.008627 26.49,100.98 C26.5034219,100.950715 26.5290066,100.928785 26.56,100.92 L32.97,98.82 C33.0275564,98.8054984 33.0870675,98.8352539 33.11,98.89 L33.92,101.37 C33.9328343,101.398627 33.9328343,101.431373 33.92,101.46 C33.9065781,101.489285 33.8809934,101.511215 33.85,101.52 L27.44,103.62 L27.41,103.63 Z M26.74,101.11 L27.48,103.37 L33.67,101.37 L32.93,99.11 L26.74,101.11 Z" id="Shape" fill="#6D4703" stroke-width="1"/>
            <path d="M30.61,102.47 L27.61,103.47 C27.4867387,103.515965 27.4010545,103.628912 27.39,103.76 L27.22,104.92 C27.1939623,105.12192 27.2687161,105.323755 27.42,105.46 L32.42,109.82 L32.9,109.66 L32.9,109.66 L33.38,109.5 L34.87,103 C34.9096268,102.801541 34.8499007,102.596233 34.71,102.45 L33.89,101.62 C33.8048227,101.518134 33.6681372,101.475176 33.54,101.51 L30.54,102.51" id="Shape" fill="#C1B985" stroke-width="1"/>
            <path d="M32.44,109.93 L32.37,109.93 L27.37,105.57 C27.1940396,105.406617 27.1082917,105.168014 27.14,104.93 L27.31,103.77 C27.3280973,103.599108 27.4399415,103.452553 27.6,103.39 L33.6,101.39 C33.7674605,101.346435 33.9452022,101.40053 34.06,101.53 L34.88,102.36 C35.0167539,102.543326 35.0610526,102.779585 35,103 L33.51,109.5 C33.4983661,109.538353 33.468353,109.568366 33.43,109.58 L32.43,109.91 L32.44,109.93 Z M33.68,101.6 L33.68,101.6 L30.68,102.6 L30.68,102.6 L27.68,103.6 C27.5988832,103.634355 27.5445151,103.712024 27.54,103.8 L27.37,104.96 C27.348884,105.123928 27.4085191,105.287925 27.53,105.4 L32.53,109.72 L33.41,109.43 L34.82,103 C34.8521857,102.837795 34.8037269,102.670053 34.69,102.55 L33.87,101.72 C33.82924,101.650484 33.7595598,101.602808 33.68,101.59 L33.68,101.6 Z" id="Shape" fill="#6D4703" stroke-width="1"/>
            <path d="M24.8,94.81 L30.8,92.86" id="Shape" fill="#FBE462" stroke-width="1"/>
            <path d="M24.8,94.81 C25.04,94.68 25.28,94.57 25.51,94.46 L26.26,94.22 L27.76,93.73 L29.26,93.24 L30,93 L30.78,92.86 L30.07,93.21 L29.32,93.45 L27.82,93.94 L26.32,94.43 L25.57,94.67 L24.8,94.81 Z" id="Shape" fill="#6D4703" stroke-width="1"/>
            <path d="M24.58,94.13 L30.57,92.18" id="Shape" fill="#FBE462" stroke-width="1"/>
            <path d="M24.58,94.13 C24.82,94 25.06,93.89 25.29,93.78 L26.04,93.54 L27.54,93.05 L29.04,92.56 L29.79,92.32 L30.57,92.18 L29.86,92.53 L29.11,92.77 L27.61,93.26 L26.11,93.75 L25.36,93.99 L24.58,94.13 Z" id="Shape" fill="#6D4703" stroke-width="1"/>
            <path d="M24.36,93.45 L30.35,91.49" id="Shape" fill="#FBE462" stroke-width="1"/>
            <path d="M24.36,93.45 C24.6,93.32 24.84,93.21 25.07,93.1 L25.82,92.86 L27.32,92.37 L28.82,91.88 L29.57,91.64 L30.35,91.5 L29.64,91.85 L28.89,92.09 L27.39,92.58 L25.89,93.07 L25.14,93.31 L24.36,93.45 Z" id="Shape" fill="#6D4703" stroke-width="1"/>
            <path d="M24.13,92.76 L30.13,90.81" id="Shape" fill="#FBE462" stroke-width="1"/>
            <path d="M24.13,92.76 C24.37,92.63 24.61,92.52 24.84,92.41 L25.59,92.17 L27.09,91.68 L28.59,91.19 L29.34,90.95 L30.12,90.81 L29.41,91.16 L28.66,91.4 L27.16,91.89 L25.66,92.38 L24.91,92.62 L24.13,92.76 Z" id="Shape" fill="#6D4703" stroke-width="1"/>
            <path d="M23.91,92.08 L29.9,90.13" id="Shape" fill="#FBE462" stroke-width="1"/>
            <path d="M23.91,92.08 C24.15,91.95 24.39,91.84 24.62,91.73 L25.37,91.49 L26.87,91 L28.37,90.51 L29.12,90.27 L29.9,90.13 L29.19,90.48 L28.44,90.72 L26.94,91.21 L25.44,91.7 L24.69,91.94 L23.91,92.08 Z" id="Shape" fill="#6D4703" stroke-width="1"/>
            <path d="M23.69,91.39 L29.68,89.44" id="Shape" fill="#FBE462" stroke-width="1"/>
            <path d="M23.69,91.39 C23.93,91.26 24.17,91.15 24.4,91.04 L25.15,90.8 L26.65,90.31 L28.15,89.82 L28.9,89.58 L29.68,89.44 L28.97,89.79 L28.22,90.03 L26.72,90.52 L25.22,91.01 L24.47,91.25 L23.69,91.39 Z" id="Shape" fill="#6D4703" stroke-width="1"/>
            <path d="M23.47,90.71 L29.46,88.76" id="Shape" fill="#FBE462" stroke-width="1"/>
            <path d="M23.47,90.71 C23.71,90.58 23.95,90.47 24.18,90.36 L24.93,90.12 L26.43,89.63 L27.93,89.14 L28.68,88.9 L29.46,88.76 L28.75,89.11 L28,89.35 L26.5,89.84 L25,90.33 L24.25,90.57 L23.47,90.71 Z" id="Shape" fill="#6D4703" stroke-width="1"/>
            <path d="M23.24,90.03 L29.24,88.07" id="Shape" fill="#FBE462" stroke-width="1"/>
            <path d="M23.24,90 C23.48,89.87 23.72,89.76 23.95,89.65 L24.7,89.41 L26.2,88.92 L27.7,88.43 L28.45,88.19 L29.23,88.05 L28.52,88.4 L27.77,88.64 L26.27,89.13 L24.77,89.62 L24.02,89.86 L23.24,90 Z" id="Shape" fill="#6D4703" stroke-width="1"/>
            <path d="M26.6,100.35 L32.59,98.4" id="Shape" fill="#FBE462" stroke-width="1"/>
            <path d="M26.6,100.35 C26.84,100.22 27.08,100.11 27.31,100 L28.06,99.76 L29.56,99.27 L31.06,98.78 L31.81,98.54 L32.59,98.4 L31.88,98.75 L31.13,98.99 L29.63,99.48 L28.13,99.97 L27.38,100.21 L26.6,100.35 Z" id="Shape" fill="#6D4703" stroke-width="1"/>
            <path d="M26.37,99.67 L32.37,97.72" id="Shape" fill="#FBE462" stroke-width="1"/>
            <path d="M26.37,99.67 C26.61,99.54 26.85,99.43 27.08,99.32 L27.83,99.08 L29.33,98.59 L30.83,98.1 L31.58,97.86 L32.36,97.72 L31.65,98.07 L30.9,98.31 L29.4,98.8 L27.9,99.29 L27.15,99.53 L26.37,99.67 Z" id="Shape" fill="#6D4703" stroke-width="1"/>
            <path d="M26.15,98.99 L32.14,97.03" id="Shape" fill="#FBE462" stroke-width="1"/>
            <path d="M26.15,99 C26.39,98.87 26.63,98.76 26.86,98.65 L27.61,98.41 L29.11,97.92 L30.61,97.43 L31.36,97.19 L32.14,97.05 L31.43,97.4 L30.68,97.64 L29.18,98.13 L27.68,98.62 L26.93,98.86 L26.15,99 Z" id="Shape" fill="#6D4703" stroke-width="1"/>
            <path d="M25.93,98.3 L31.92,96.35" id="Shape" fill="#FBE462" stroke-width="1"/>
            <path d="M25.93,98.3 C26.17,98.17 26.41,98.06 26.64,97.95 L27.39,97.71 L28.89,97.22 L30.39,96.73 L31.14,96.49 L31.92,96.35 L31.21,96.7 L30.46,96.94 L28.96,97.43 L27.46,97.92 L26.71,98.16 L25.93,98.3 Z" id="Shape" fill="#6D4703" stroke-width="1"/>
            <path d="M25.7,97.62 L31.7,95.67" id="Shape" fill="#FBE462" stroke-width="1"/>
            <path d="M25.7,97.62 C25.94,97.49 26.18,97.38 26.41,97.27 L27.16,97.03 L28.66,96.54 L30.16,96.05 L30.91,95.81 L31.69,95.67 L31,96 L30.25,96.24 L28.75,96.73 L27.25,97.22 L26.5,97.46 L25.7,97.62 Z" id="Shape" fill="#6D4703" stroke-width="1"/>
            <path d="M25.48,96.93 L31.47,94.98" id="Shape" fill="#FBE462" stroke-width="1"/>
            <path d="M25.48,96.93 C25.72,96.8 25.96,96.69 26.19,96.58 L26.94,96.34 L28.44,95.85 L29.94,95.36 L30.69,95.12 L31.47,94.98 L30.76,95.33 L30.01,95.57 L28.51,96.06 L27.01,96.55 L26.26,96.79 L25.48,96.93 Z" id="Shape" fill="#6D4703" stroke-width="1"/>
            <path d="M25.26,96.25 L31.25,94.3" id="Shape" fill="#FBE462" stroke-width="1"/>
            <path d="M25.26,96.25 C25.5,96.12 25.74,96.01 25.97,95.9 L26.72,95.66 L28.22,95.17 L29.72,94.68 L30.47,94.44 L31.25,94.3 L30.54,94.65 L29.79,94.89 L28.29,95.38 L26.79,95.87 L26.04,96.11 L25.26,96.25 Z" id="Shape" fill="#6D4703" stroke-width="1"/>
            <path d="M25.04,95.57 L31.03,93.61" id="Shape" fill="#FBE462" stroke-width="1"/>
            <path d="M25,95.57 C25.24,95.44 25.48,95.33 25.71,95.22 L26.46,94.98 L27.96,94.49 L29.46,94 L30.21,93.76 L30.99,93.62 L30.28,93.97 L29.53,94.21 L28.03,94.7 L26.53,95.19 L25.78,95.43 L25,95.57 Z" id="Shape" fill="#6D4703" stroke-width="1"/>
            <path d="M17.29,86.73 C16.0773768,87.8085779 15.7593315,89.576414 16.52,91.01 C16.8983089,91.7096552 17.5836168,92.1906755 18.3702005,92.3086631 C19.1567842,92.4266506 19.9530626,92.1678682 20.52,91.61 C20.52,91.61 25.18,85.94 32.4,87.42 C32.4,87.42 37.22,88.78 34.81,83.96 C34.81,83.96 34.88,81.96 29.76,81.96 C25.2450955,82.3786814 20.9317315,84.028621 17.29,86.73 L17.29,86.73 Z" id="Shape" fill="#C1B985" stroke-width="1"/>
            <path d="M29.71,81.92 C34.83,82 34.76,83.92 34.76,83.92 C36.3,87 34.89,87.56 33.67,87.56 C33.2243096,87.5540051 32.7810228,87.4935569 32.35,87.38 C31.575548,87.2323923 30.7883531,87.1620473 30,87.17 C26.358619,87.2853151 22.9242375,88.8904365 20.5,91.61 C20.0061489,92.0537194 19.3733105,92.3118044 18.71,92.34 C17.808243,92.2676296 16.9949121,91.7699751 16.52,91 C15.7593315,89.566414 16.0773768,87.7985779 17.29,86.72 C20.913215,84.0128187 25.2085011,82.3493464 29.71,81.91 L29.71,81.92 Z M29.71,81.68 L29.71,81.68 C25.1637916,82.133803 20.8261301,83.8135668 17.16,86.54 C15.8696667,87.6936443 15.5277401,89.5763004 16.33,91.11 C16.8350909,91.9520718 17.7203058,92.493659 18.7,92.56 C19.4138316,92.5294166 20.0953643,92.2539785 20.63,91.78 L20.63,91.78 C23.0246337,89.1023479 26.4097772,87.519965 30,87.4 C30.7860678,87.4014592 31.5700018,87.4818627 32.34,87.64 C32.7842625,87.7554115 33.24101,87.8158634 33.7,87.82 C34.3777173,87.8967657 35.0459622,87.6120023 35.46,87.07 C35.88,86.39 35.73,85.36 35.01,83.9 C34.9658984,83.5606921 34.8071177,83.2466593 34.56,83.01 C34.01,82.44 32.73,81.74 29.74,81.7 L29.71,81.68 Z" id="Shape" fill="#6D4703" stroke-width="1"/>
            <path d="M19.86,92.34 C19.8050558,92.3487399 19.7522362,92.3150795 19.7369521,92.2615851 C19.721668,92.2080908 19.748732,92.1516065 19.8,92.13 C20.5428545,91.5283184 20.9024077,90.5720602 20.74,89.63 C20.6957106,88.9525417 20.2047452,88.3879316 19.54,88.25 C19.1798413,88.2181409 18.8171779,88.2694612 18.48,88.4 C18.1734451,88.5332758 17.9336834,88.7846745 17.8150753,89.0971973 C17.6964673,89.40972 17.7090606,89.7568921 17.85,90.06 C17.92,90.22 18.15,90.65 18.44,90.66 L18.44,90.66 C18.65,90.66 18.88,90.44 19.1,90.02 C19.1196496,89.9842734 19.1568665,89.9617437 19.1976314,89.9608975 C19.2383963,89.9600512 19.2765161,89.9810171 19.2976314,90.0158975 C19.3187467,90.0507778 19.3196496,90.0942734 19.3,90.13 C19.02,90.65 18.71,90.91 18.41,90.89 C17.92,90.89 17.64,90.17 17.62,90.14 C17.4461726,89.7752454 17.429034,89.3552793 17.5725622,88.9775736 C17.7160903,88.599868 18.0078047,88.297266 18.38,88.14 C18.7516775,87.9938869 19.1521093,87.9357045 19.55,87.97 C20.3601589,88.0980978 20.9671459,88.7804348 21,89.6 C21.1847013,90.6209339 20.8020186,91.6618307 20,92.32 L19.86,92.34 Z" id="Shape" fill="#6D4703" stroke-width="1"/>
            <path d="M32.48,87.68 L32.48,87.68 C31.4453091,87.5211857 30.5731063,86.8241852 30.19,85.85 C29.830742,85.1567421 29.9964772,84.3073494 30.59,83.8 C30.914678,83.5733447 31.2880236,83.4260616 31.68,83.37 C32.497771,83.2816667 33.2358128,83.8640973 33.34,84.68 C33.34,84.68 33.45,85.45 33.05,85.68 C32.65,85.91 32.4,85.78 31.89,85.47 C31.8407101,85.4614085 31.8034275,85.4206359 31.7992693,85.3707759 C31.7951111,85.3209159 31.8251249,85.2745309 31.8723108,85.2578936 C31.9194967,85.2412562 31.9719661,85.2585584 32,85.3 C32.43,85.56 32.75,85.63 32.92,85.52 C33.09,85.41 33.14,84.88 33.11,84.71 C33.0723823,84.3741358 32.9024458,84.0671176 32.6378092,83.8569099 C32.3731726,83.6467021 32.0356649,83.550644 31.7,83.59 C31.3406687,83.6396796 30.9980879,83.7732861 30.7,83.98 C30.1976348,84.4290373 30.0619851,85.1607237 30.37,85.76 C30.7241833,86.6551803 31.5206924,87.2999733 32.47,87.46 C32.5335127,87.46 32.585,87.5114873 32.585,87.575 C32.585,87.6385127 32.5335127,87.69 32.47,87.69 L32.48,87.68 Z" id="Shape" fill="#6D4703" stroke-width="1"/>
            <ellipse id="Oval" fill="#FFFFFF" transform="matrix(0.9600498543859287,-0.27982901403099203,0.27982901403099203,0.9600498543859287,-28.223474991608786,13.044309585132822)" cx="31.572405" cy="105.367191" rx="1.49" ry="2.2" stroke-width="1"/>
            <path d="M31.24,103.22 C32.1457172,103.378273 32.8519712,104.092552 33,105 C33.34,106.17 33,107.3 32.18,107.53 C32.0838469,107.544091 31.9861531,107.544091 31.89,107.53 C30.9962695,107.376909 30.293295,106.681923 30.13,105.79 C29.79,104.62 30.13,103.49 30.95,103.26 C31.0461531,103.245909 31.1438469,103.245909 31.24,103.26 L31.24,103.22 Z M31.24,103.03 L31.24,103.03 C31.1215727,103.030266 31.0037648,103.047096 30.89,103.08 C30.3979792,103.240101 30.0211928,103.639495 29.89,104.14 C29.7160801,104.71037 29.7160801,105.31963 29.89,105.89 C30.0785773,106.8876 30.8840467,107.652796 31.89,107.79 C32.0084273,107.789734 32.1262352,107.772904 32.24,107.74 C32.7320208,107.579899 33.1088072,107.180505 33.24,106.68 C33.4139199,106.10963 33.4139199,105.50037 33.24,104.93 C33.0514227,103.9324 32.2459533,103.167204 31.24,103.03 L31.24,103.03 Z" id="Shape" fill="#6D4703" stroke-width="1"/>
            <ellipse id="Oval" fill="#CB161E" transform="matrix(0.9600498543859287,-0.27982901403099203,0.27982901403099203,0.9600498543859287,-28.223474991608786,13.044309585132822)" cx="31.572405" cy="105.367191" rx="1.26" ry="1.86" stroke-width="1"/>
            <ellipse id="Oval" fill="#FFFFFF" transform="matrix(0.5859481395653946,-0.8103485532410438,0.8103485532410438,0.5859481395653946,-71.7472961979054,68.55135376694398)" cx="30.9779125" cy="104.184657" rx="1" ry="1" stroke-width="1"/>
            <path d="M24.37,94.08 C28,91.56 29,92.79 29,92.79 C30.46,95.14 25.16,97.13 25.16,97.13 C26.3151676,96.3105602 27.5682094,95.6386879 28.89,95.13 C29.1963299,95.0473143 29.5237228,95.114911 29.772255,95.3121587 C30.0207872,95.5094065 30.1609632,95.8128963 30.15,96.13 C29.99,99.01 26.22,99.67 26.22,99.67 C30.41,97.29 30.22,98.67 30.22,98.67 C31.02,101.76 27.36,102.25 25.94,102.32 C25.5866714,102.351079 25.2334454,102.259241 24.94,102.06 C18.94,97.88 20.71,92.51 20.71,92.51 C22.29,90.3 25.24,89.37 26.66,88.86 C26.8575124,88.7902753 27.0747679,88.8029185 27.2628592,88.8950832 C27.4509505,88.987248 27.5940702,89.1511887 27.66,89.35 C28,90.19 28.13,91.7 24.37,94.08 Z" id="Shape" fill="#F7D5C4" stroke-width="1"/>
            <path d="M25.82,102.47 C25.4640853,102.472819 25.1155883,102.368269 24.82,102.17 C22.4828626,100.730386 20.8574576,98.3757257 20.34,95.68 C20.1433206,94.5753612 20.1980076,93.4406064 20.5,92.36 L20.5,92.3 C22.02,90.17 24.78,89.19 26.27,88.67 L26.55,88.57 C26.8310104,88.4654365 27.1430005,88.4835755 27.41,88.62 C27.6459736,88.7402626 27.8202633,88.9544937 27.89,89.21 C28.13,90.09 28.12,91.14 26.76,92.5 C28.44,91.91 29.04,92.5 29.13,92.65 C29.4429079,93.1037175 29.5209008,93.6793794 29.34,94.2 C29.2517146,94.4522118 29.1234068,94.6885683 28.96,94.9 C29.3154592,94.8342831 29.6813356,94.9365623 29.9511874,95.1770824 C30.2210392,95.4176025 30.3645614,95.7693524 30.34,96.13 C30.3028655,96.8183694 30.0471394,97.4769517 29.61,98.01 C29.8020194,97.9995484 29.99298,98.0446846 30.16,98.14 C30.3078498,98.241438 30.3943878,98.4107516 30.39,98.59 C30.636798,99.3648469 30.5112749,100.210282 30.05,100.88 C29.12,102.14 27.05,102.43 25.89,102.49 L25.82,102.47 Z M20.92,92.53 C20.6552351,93.5387079 20.6108958,94.592618 20.79,95.62 C21.2953561,98.1856274 22.8509172,100.42288 25.08,101.79 C25.3169219,101.953751 25.6027917,102.031395 25.89,102.01 C26.76,102.01 28.89,101.74 29.7,100.59 C30.0839227,100.01906 30.1800391,99.3018835 29.96,98.65 C29.9540732,98.6202927 29.9540732,98.5897073 29.96,98.56 C29.97075,98.5379048 29.97075,98.5120952 29.96,98.49 C29.91,98.49 29.71,98.38 29.13,98.55 C28.2941088,99.201222 27.3185348,99.6496437 26.28,99.86 C26.170742,99.8803195 26.0634866,99.8159662 26.03,99.71 C25.9959117,99.6076858 26.0374895,99.4954257 26.13,99.44 C27.0087017,98.9107282 27.9404586,98.4750145 28.91,98.14 C29.5084062,97.6212156 29.8695156,96.8809414 29.91,96.09 C29.9270711,95.8544133 29.825865,95.6257625 29.64,95.48 C29.4428805,95.3302218 29.1839201,95.2889383 28.95,95.37 C28.7224609,95.4454123 28.4988467,95.532188 28.28,95.63 C27.3682881,96.3451692 26.3577984,96.9245166 25.28,97.35 C25.1764525,97.373952 25.0699787,97.3238371 25.0224481,97.2287759 C24.9749176,97.1337148 24.9987099,97.0184668 25.08,96.95 C26.035738,96.3056312 27.0385636,95.7340206 28.08,95.24 C28.4819868,94.9295465 28.7957161,94.5192851 28.99,94.05 C29.1247358,93.667831 29.069009,93.2443079 28.84,92.91 L28.84,92.91 C28.84,92.91 27.99,92.1 25.27,93.78 L24.54,94.26 C24.4366807,94.3076738 24.3140304,94.2726322 24.2514907,94.1775719 C24.1889511,94.0825116 24.205322,93.9560086 24.29,93.88 L25.02,93.4 C28.02,91.28 27.71,89.97 27.54,89.32 C27.5043098,89.1859347 27.4134611,89.0732823 27.29,89.01 C27.1335953,88.942719 26.9564047,88.942719 26.8,89.01 L26.51,89.11 C25,89.6 22.36,90.54 20.92,92.53 Z" id="Shape" fill="#603404" stroke-width="1"/>
            <path d="M27.29,102.35 C26.837364,102.433504 26.3796968,102.486954 25.92,102.51 C25.522741,102.532583 25.1291103,102.423632 24.8,102.2 C18.66,97.95 20.45,92.4 20.47,92.34 L20.47,92.27 C21.99,90.13 24.77,89.15 26.25,88.63 L26.54,88.53 C26.8309844,88.4240057 27.1527187,88.4420807 27.43,88.58 C27.6732021,88.7062418 27.8539471,88.9267507 27.93,89.19 C28.2562458,90.3635388 27.8650185,91.6193784 26.93,92.4 C28.52,91.9 29.1,92.51 29.19,92.61 C29.5132502,93.0743734 29.5950137,93.6653008 29.41,94.2 C29.3312276,94.4249328 29.2200566,94.6371684 29.08,94.83 C29.4336908,94.7940366 29.7853011,94.9154374 30.0414566,95.161963 C30.2976122,95.4084887 30.4323906,95.7551913 30.41,96.11 C30.3773536,96.7768697 30.1437974,97.4182777 29.74,97.95 C29.9091709,97.9462834 30.0758263,97.9914192 30.22,98.08 C30.3774496,98.1889305 30.4709985,98.3685444 30.47,98.56 C30.7191195,99.3457893 30.5898479,100.202676 30.12,100.88 C29.3889004,101.700527 28.3817045,102.223699 27.29,102.35 L27.29,102.35 Z M21,92.55 C20.84,93.06 19.53,97.88 25.14,101.76 C25.3729938,101.91515 25.6507195,101.988976 25.93,101.97 C26.79,101.97 28.88,101.7 29.71,100.56 C30.0868331,99.9972334 30.179299,99.2907944 29.96,98.65 C29.9521548,98.613753 29.9521548,98.576247 29.96,98.54 C29.9,98.54 29.72,98.42 29.18,98.54 C28.336392,99.2072587 27.3455404,99.6632561 26.29,99.87 C26.161199,99.89171 26.0353266,99.8181066 25.9910838,99.6952098 C25.946841,99.5723131 25.9969161,99.4353686 26.11,99.37 C26.9888397,98.8409871 27.9205688,98.4052864 28.89,98.07 C29.4800114,97.565942 29.8407605,96.8444439 29.89,96.07 C29.906389,95.8452444 29.8086922,95.6273055 29.63,95.49 C29.4434532,95.3506274 29.1998127,95.3131442 28.98,95.39 C28.752438,95.4653488 28.5288207,95.5521257 28.31,95.65 C27.3822643,96.3684201 26.3548063,96.947839 25.26,97.37 C25.1329293,97.4200677 24.9887814,97.3632822 24.93,97.24 C24.8659908,97.1174949 24.9048355,96.9664319 25.02,96.89 C25.9755379,96.2453091 26.9783883,95.6736844 28.02,95.18 C28.4112646,94.8701843 28.7146466,94.4633766 28.9,94 C29.0306347,93.6319029 28.9786739,93.2236397 28.76,92.9 L28.76,92.9 C28.76,92.9 27.92,92.13 25.24,93.79 L24.51,94.27 C24.4296152,94.3235898 24.3267468,94.3302241 24.2401443,94.2874038 C24.1535417,94.2445835 24.0963621,94.158814 24.0901443,94.0624038 C24.0839265,93.9659936 24.1296152,93.8735898 24.21,93.82 L24.93,93.34 C27.93,91.23 27.61,89.94 27.43,89.34 C27.3959586,89.2185596 27.3125169,89.1169784 27.2,89.06 C27.0534746,88.9953816 26.8865254,88.9953816 26.74,89.06 L26.45,89.16 C25,89.64 22.39,90.57 21,92.55 Z" id="Shape" fill="#603404" stroke-width="1"/>
            <path d="M103.69,121.31 C103.69,121.31 101.98,126 104.18,128.47 C104.18,128.47 105.11,129.14 105.18,127.65 C105.18,127.65 104.64,125.32 105.32,124.57 C105.32,124.57 106.08,123.9 105.86,125.57 C105.86,125.57 105.34,129.32 108.74,129.39 C108.74,129.39 112.49,130.25 112.06,123.74 C112.06,123.74 111.62,118.74 108.93,119.03 C107.115807,119.62428 105.361437,120.387632 103.69,121.31 L103.69,121.31 Z" id="Shape" fill="#FFE5DE" stroke-width="1"/>
            <path d="M108,129.53 C107.35531,129.429205 106.767182,129.103254 106.34,128.61 C105.701348,127.710853 105.42629,126.603476 105.57,125.51 C105.67,124.78 105.57,124.65 105.57,124.65 C105.519111,124.672859 105.471923,124.703194 105.43,124.74 C104.96,125.27 105.22,126.98 105.36,127.6 C105.363017,127.619886 105.363017,127.640114 105.36,127.66 C105.36,128.26 105.19,128.66 104.89,128.78 C104.604614,128.886405 104.284775,128.841251 104.04,128.66 C101.74,126.09 103.4,121.44 103.47,121.24 C103.487533,121.189115 103.52311,121.146421 103.57,121.12 C105.241288,120.186536 106.995448,119.409885 108.81,118.8 C109.403192,118.718647 110.003015,118.893141 110.46,119.28 C111.95,120.51 112.23,123.57 112.25,123.7 C112.42,126.3 111.97,128.08 110.89,128.99 C110.271367,129.508776 109.455428,129.728311 108.66,129.59 C108.438719,129.588291 108.217962,129.568222 108,129.53 Z M105.64,124.22 L105.76,124.22 C106.04,124.37 106.12,124.78 106.02,125.53 C105.903207,126.49439 106.141359,127.468326 106.69,128.27 C107.20292,128.825186 107.934969,129.125327 108.69,129.09 L108.69,129.09 C109.356657,129.209339 110.041864,129.026128 110.56,128.59 C111.5,127.78 111.91,126.09 111.75,123.68 C111.75,123.68 111.47,120.68 110.13,119.57 C109.783704,119.268287 109.326189,119.126675 108.87,119.18 L108.87,119.18 C107.141755,119.776768 105.468767,120.522921 103.87,121.41 C103.67,122.01 102.41,126.1 104.34,128.27 C104.34,128.27 104.56,128.39 104.69,128.32 C104.82,128.25 104.89,128.16 104.91,127.62 C104.83,127.26 104.39,125.16 105.11,124.37 C105.266387,124.241288 105.46922,124.183336 105.67,124.21 L105.64,124.22 Z" id="Shape" fill="#603404" stroke-width="1"/>
            <path d="M101,119.7 C101,119.7 112.24,117 118.58,109.81 L119.09,115.2 C119.09,115.2 111.44,122.46 101.38,121.82 L101,119.7 Z" id="Shape" fill="#CE9006" stroke-width="1"/>
            <path d="M102.66,122.07 C102.246667,122.07 101.826667,122.07 101.4,122.07 C101.294685,122.062379 101.208088,121.984029 101.19,121.88 L100.81,119.77 C100.790738,119.652377 100.864525,119.539526 100.98,119.51 C101.09,119.51 112.23,116.75 118.44,109.69 C118.497682,109.619063 118.593227,109.591196 118.68,109.62 C118.765888,109.646613 118.828391,109.720836 118.84,109.81 L119.35,115.2 C119.3573,115.27075 119.331456,115.340897 119.28,115.39 C119.21,115.43 112.09,122.07 102.66,122.07 Z M101.61,121.59 C110.81,122.1 118.06,115.85 118.9,115.1 L118.45,110.34 C112.57,116.7 102.85,119.46 101.31,119.87 L101.61,121.59 Z" id="Shape" fill="#603404" stroke-width="1"/>
            <path d="M33.52,86.9 L39.17,86.9 C39.17,86.9 37.17,103.52 50.9,123.34 L47.7,126.43 C47.7,126.43 30.53,103.74 33.52,86.9 Z" id="Shape" fill="#CE9006" stroke-width="1"/>
            <path d="M47.7,126.66 L47.7,126.66 C47.6361002,126.654748 47.5776708,126.621881 47.54,126.57 C47.37,126.34 30.35,103.57 33.32,86.86 C33.3389436,86.7524786 33.4308663,86.6730908 33.54,86.67 L39.19,86.67 C39.2528744,86.6724931 39.3119819,86.7006372 39.3535512,86.747875 C39.3951204,86.7951127 39.415521,86.8573189 39.41,86.92 C39.41,87.09 37.56,103.7 51.1,123.21 C51.1686191,123.294489 51.1686191,123.415511 51.1,123.5 L47.9,126.59 C47.8486921,126.644482 47.7740848,126.670595 47.7,126.66 Z M33.7,87.13 C31.07,102.81 46.03,123.8 47.7,126.13 L50.57,123.35 C45.1541224,115.68882 41.4222394,106.967461 39.62,97.76 C38.9274893,94.2719872 38.6788503,90.7104004 38.88,87.16 L33.7,87.13 Z" id="Shape" fill="#603404" stroke-width="1"/>
            <path d="M62.68,73 C62.68,73 94,72.18 93.5,72.08 C93,71.98 101.7,131.98 101.7,131.98 C101.7,131.98 101.59,141.57 108.07,148.04 C108.07,148.04 76.71,163.52 49.86,148.04 C53.7791487,143.667604 56.1081297,138.100599 56.47,132.24 L62.68,73 Z" id="Shape" fill="#967741" stroke-width="1"/>
            <path d="M76.8,155.1 C67.3324666,155.24313 57.995918,152.876215 49.74,148.24 C49.6851428,148.196365 49.6531782,148.130095 49.6531782,148.06 C49.6531782,147.989905 49.6851428,147.923635 49.74,147.88 C53.60352,143.538168 55.9054091,138.029825 56.28,132.23 L62.46,73 C62.4745955,72.8885239 62.5676414,72.8039367 62.68,72.8 C72.93,72.52 92.36,71.97 93.42,71.87 C93.4594068,71.8602576 93.5005932,71.8602576 93.54,71.87 C93.6551029,71.8901219 93.736826,71.9933511 93.73,72.11 C93.7391506,72.1358817 93.7391506,72.1641183 93.73,72.19 C93.65,73.96 99.05,111.96 101.95,131.96 C101.95,132.09 101.95,141.57 108.25,147.9 C108.298809,147.952264 108.320532,148.024258 108.308775,148.094796 C108.297019,148.165334 108.253121,148.226391 108.19,148.26 C98.3020603,152.655116 87.6201042,154.982755 76.8,155.1 L76.8,155.1 Z M50.21,148 C75.21,162.24 104.48,149.46 107.67,148 C101.43,141.54 101.46,132.1 101.46,132 C101.46,131.9 99.29,117 97.21,102.23 C93.88,78.58 93.29,73.49 93.27,72.32 C92.27,72.44 88.97,72.54 78.09,72.85 L62.88,73.28 L56.68,132.28 C56.2957538,138.085452 54.0236196,143.606001 50.21,148 Z" id="Shape" fill="#603404" stroke-width="1"/>
            <path d="M69.78,93.3 L89,93.3 L89,105.3 C89,105.3 84,99.96 67.9,104.15 L69.78,93.3 Z" id="Shape" fill="#603404" stroke-width="1"/>
            <path d="M96,73 C96,73 94.95,71.79 92.31,72.11 C92.31,72.11 87.25,87.19 89.65,111.64 C89.65,111.64 92.15,145.33 93.11,147.4 C95.0786704,147.611386 97.0687293,147.49651 99,147.06 L96,73 Z" id="Shape" fill="#CE9006" stroke-width="1"/>
            <path d="M95.32,147.76 C94.12,147.76 93.2,147.66 93.12,147.66 C93.0416715,147.650415 92.9737256,147.601343 92.94,147.53 C91.94,145.44 89.57,113.07 89.46,111.69 C88.4613033,102.040108 88.605636,92.3060399 89.89,82.69 C90.3455493,79.0882308 91.0947098,75.5297185 92.13,72.05 C92.1597696,71.9680194 92.2333488,71.9099306 92.32,71.9 C95.05,71.57 96.16,72.81 96.21,72.9 C96.2453203,72.9384976 96.2664813,72.9878732 96.27,73.04 L99.27,147.1 C99.2703974,147.200394 99.2056322,147.289446 99.11,147.32 C97.8740958,147.646559 96.5978476,147.794725 95.32,147.76 L95.32,147.76 Z M93.32,147.22 C95.1577901,147.406148 97.0133599,147.304935 98.82,146.92 L95.82,73.12 C94.8812516,72.401959 93.6808841,72.1182358 92.52,72.34 C92.03,73.91 87.67,88.74 89.91,111.64 C90.76,123.06 92.53,144.86 93.3,147.22 L93.32,147.22 Z" id="Shape" fill="#603404" stroke-width="1"/>
            <path d="M95.19,72.46 C95.19,72.46 102.19,74.66 104.74,78.4 L105.86,79.64 C109.220542,83.3684365 111.783047,87.7447729 113.39,92.5 C113.91,94.05 114.39,95.57 114.9,96.92 C116.25,100.62 120.11,109.41 118.01,112.32 C113.831915,117.14217 107.623765,119.710676 101.26,119.25 C101.26,119.25 104.15,140 106.39,142.48 C104.228547,145.898976 100.764342,148.286713 96.8,149.09 C96.8,149.09 88.8,97.52 91.89,85.15 C91.89,85.15 93.89,75.35 94.89,73.22 L95.19,72.46 Z" id="Shape" fill="#8E2B3E" stroke-width="1"/>
            <path d="M96.78,149.31 C96.6708663,149.306909 96.5789436,149.227521 96.56,149.12 C96.48,148.6 88.56,97.36 91.65,85.12 C91.73,84.73 93.65,75.27 94.65,73.12 L94.99,72.37 C95.0168438,72.3114296 95.0680132,72.2675702 95.13,72.25 C95.1784562,72.2324282 95.2315438,72.2324282 95.28,72.25 L95.34,72.25 C97.02,72.82 102.66,74.92 104.93,78.25 L106.03,79.47 C109.417385,83.2178293 111.997532,87.6224589 113.61,92.41 L113.97,93.49 C114.36,94.67 114.74,95.79 115.12,96.82 C115.29,97.29 115.51,97.82 115.75,98.47 C117.38,102.7 120.11,109.79 118.2,112.47 C114.215169,117.01966 108.426983,119.580804 102.38,119.47 L101.53,119.47 C101.88,121.91 104.53,140.06 106.53,142.31 C106.583684,142.388353 106.583684,142.491647 106.53,142.57 C104.325179,146.034503 100.811558,148.458684 96.79,149.29 L96.78,149.31 Z M95.31,72.74 L95.06,73.3 C94.06,75.39 92.12,85.09 92.06,85.19 C89.14,97 96.39,145 97,148.81 C100.749955,147.972038 104.025318,145.704755 106.13,142.49 C103.89,139.49 101.13,120.11 101.06,119.27 C101.053167,119.204162 101.075031,119.138571 101.12,119.09 C101.165075,119.038824 101.232193,119.012722 101.3,119.02 C107.584027,119.443554 113.70655,116.914685 117.86,112.18 C119.62,109.74 116.95,102.8 115.35,98.65 C115.11,98.03 114.9,97.47 114.72,96.99 C114.34,95.99 113.97,94.83 113.57,93.65 L113.21,92.57 C111.619456,87.8421239 109.073358,83.4919725 105.73,79.79 L104.61,78.55 C102.41,75.38 97.09,73.35 95.31,72.74 Z" id="Shape" fill="#603404" stroke-width="1"/>
            <path d="M101.25,119.47 C101.15836,119.469338 101.075858,119.414336 101.04,119.33 C95.33,105.33 98.23,88 98.26,87.82 C98.2655427,87.7317693 98.321165,87.654524 98.4030851,87.6212906 C98.4850053,87.5880573 98.5787235,87.6047183 98.6441698,87.6641501 C98.7096162,87.723582 98.7352067,87.8152652 98.71,87.9 C98.71,88.07 95.8,105.32 101.47,119.16 C101.518804,119.275989 101.465333,119.409666 101.35,119.46 L101.25,119.47 Z" id="Shape" fill="#603404" stroke-width="1"/>
            <path d="M63.2,72.89 L67.14,73.01 C67.14,73.01 76.55,100.15 65.55,147.72 L59.96,147.35 C59.96,147.35 72.79,98.82 63.2,72.89 Z" id="Shape" fill="#CE9006" stroke-width="1"/>
            <path d="M65.54,147.94 L65.54,147.94 L59.95,147.57 C59.8825255,147.567674 59.8198549,147.534496 59.78,147.48 C59.7512418,147.419931 59.7512418,147.350069 59.78,147.29 C62.0415937,138.233443 63.784428,129.055184 65,119.8 C66.83,105.8 68,86.31 63,72.96 C62.9661784,72.8940854 62.9661784,72.8159146 63,72.75 C63.0461252,72.6923805 63.116197,72.6591886 63.19,72.66 L67.13,72.78 C67.224099,72.7823182 67.3072885,72.8417393 67.34,72.93 C67.43,73.2 76.64,100.68 65.75,147.77 C65.7241681,147.866143 65.6394144,147.934753 65.54,147.94 Z M60.23,147.14 L65.36,147.48 C71,123 71.12,104.13 70.24,92.56 C69.36,80.99 67.31,74.28 67,73.23 L63.56,73.12 C68.4,86.55 67.25,105.93 65.43,119.87 C64.2067013,129.049881 62.470654,138.154114 60.23,147.14 L60.23,147.14 Z" id="Shape" fill="#603404" stroke-width="1"/>
            <path d="M63.47,72.89 C63.47,72.89 60.07,72.76 56.89,77.15 C55.1819429,80.278138 52.3061782,82.6039127 48.89,83.62 L38.26,86.9 C38.26,86.9 35.62,103.9 50.89,123.34 C50.89,123.34 57.6,116.15 58.4,112.34 C58.4,112.34 54.3,137.28 50.89,141.43 C50.89,141.43 53.23,146.43 60.89,148.51 C60.89,148.51 74.37,95.39 64.3,74.77 L63.47,72.89 Z" id="Shape" fill="#8E2B3E" stroke-width="1"/>
            <path d="M60.91,148.72 L60.85,148.72 C53.16,146.63 50.78,141.72 50.69,141.52 C50.6425212,141.447044 50.6425212,141.352956 50.69,141.28 C53.42,137.95 56.69,120.77 57.77,114.54 C55.77,118.39 51.26,123.26 51.03,123.54 C50.9862662,123.587027 50.9241674,123.612597 50.86,123.61 C50.7929069,123.606274 50.7307988,123.573393 50.69,123.52 C44.6534354,116.088437 40.5084009,107.304258 38.61,97.92 C37.8561246,94.304537 37.6571778,90.5953586 38.02,86.92 C38.0351479,86.834641 38.0970056,86.7650511 38.18,86.74 L48.85,83.46 C52.1853678,82.4447779 54.9917412,80.1659453 56.67,77.11 C59.91,72.63 63.32,72.72 63.46,72.71 C63.545684,72.7126751 63.6227697,72.7627808 63.66,72.84 L64.51,74.71 C69.73,85.41 68.51,104.94 66.6,119.43 C65.2701245,129.23753 63.4377138,138.970335 61.11,148.59 C61.0936152,148.649542 61.0539748,148.699993 61,148.73 C60.9696337,148.732664 60.9390409,148.729264 60.91,148.72 L60.91,148.72 Z M51.16,141.44 C51.58,142.2 54.1,146.34 60.75,148.22 C61.69,144.43 73.75,94.49 64.12,74.86 L63.33,73.12 C62.68,73.12 59.79,73.54 57.08,77.29 C55.3415849,80.4415527 52.443034,82.7912443 49,83.84 L38.47,87.07 C38.27,88.73 36.78,104.9 50.9,122.99 C51.97,121.82 57.47,115.65 58.18,112.26 C58.2133524,112.147883 58.3255431,112.078656 58.4407102,112.09913 C58.5558772,112.119604 58.6373338,112.223257 58.63,112.34 C58.46,113.37 54.55,137 51.16,141.43 L51.16,141.44 Z" id="Shape" fill="#603404" stroke-width="1"/>
            <path d="M58.4,112.54 L58.31,112.54 C58.1946667,112.489666 58.1411961,112.355989 58.19,112.24 C61.0861346,103.852978 61.0861346,94.7370221 58.19,86.35 C58.167893,86.2376474 58.2317999,86.1261449 58.3399173,86.0884295 C58.4480347,86.0507142 58.5674286,86.0982745 58.62,86.2 C61.555022,94.693594 61.555022,103.926406 58.62,112.42 C58.5768096,112.499946 58.4905993,112.54697 58.4,112.54 L58.4,112.54 Z" id="Shape" fill="#603404" stroke-width="1"/>
            <path d="M103.78,15 L60.65,14.26 C60.4562679,13.5841995 59.906951,13.069455 59.22,12.92 C57.7507995,12.9191086 56.4897546,13.9657759 56.22,15.41 C56.1476524,16.884084 57.1278319,18.2035563 58.56,18.56 C59.4672002,18.6015319 60.2885051,18.0266185 60.56,17.16 L103.78,15 Z" id="Shape" fill="#EEC743" stroke-width="1"/>
            <path d="M59,12.9 L59.21,12.9 C59.896951,13.049455 60.4462679,13.5641995 60.64,14.24 L103.77,14.98 L60.52,17.15 C60.2439613,17.9249967 59.5480908,18.4731404 58.73,18.56 L58.54,18.56 C57.1039739,18.2028507 56.1227313,16.8777537 56.2,15.4 C56.465398,14.0320868 57.6108753,13.0093392 59,12.9 L59,12.9 Z M59,12.45 C57.3730103,12.5453989 56.0242698,13.7451987 55.74,15.35 C55.6373115,17.0698634 56.7911925,18.612598 58.47,19 L58.72,19 C59.6214631,18.9361116 60.4175432,18.3888066 60.8,17.57 L103.8,15.42 L103.8,14.52 L60.94,13.8 C60.6481992,13.0978249 60.0187186,12.5927328 59.27,12.46 L59,12.46 L59,12.45 Z" id="Shape" fill="#603404" stroke-width="1"/>
            <polygon id="Shape" fill="#E59515" points="78.57 0.63 68.87 9 69.45 21.04 88.81 21.76 88.37 9" stroke-width="1"/>
            <path d="M88.8,22 L88.8,22 L69.45,21.28 C69.330667,21.2749152 69.2350848,21.179333 69.23,21.06 L68.65,9.06 C68.6483247,8.99103911 68.6776899,8.92496742 68.73,8.88 L78.43,0.51 C78.5144893,0.441380948 78.6355107,0.441380948 78.72,0.51 L88.52,8.88 C88.5671642,8.92035333 88.5960159,8.97805663 88.6,9.04 L89,21.75 C89.0013139,21.8139338 88.9759514,21.8755284 88.93,21.92 C88.897037,21.9606879 88.8511768,21.9889096 88.8,22 L88.8,22 Z M69.67,20.82 L88.57,21.52 L88.15,9.11 L78.58,0.93 L69.11,9.1 L69.67,20.82 Z" id="Shape" fill="#603404" stroke-width="1"/>
            <ellipse id="Oval" fill="#603404" cx="78.52" cy="9.93" rx="2.3" ry="3.46" stroke-width="1"/>
            <ellipse id="Oval" fill="#FFFFFF" cx="78.52" cy="9.93" rx="2" ry="3.01" stroke-width="1"/>
            <ellipse id="Oval" fill="#CB161E" cx="78.52" cy="9.93" rx="1.66" ry="2.5" stroke-width="1"/>
            <path d="M77.8,8.82 C77.8768121,8.95304246 77.8768121,9.11695754 77.8,9.25 C77.71,9.32 77.59,9.25 77.53,9.09 C77.4531879,8.95695754 77.4531879,8.79304246 77.53,8.66 C77.62,8.58 77.74,8.65 77.8,8.82 Z" id="Shape" fill="#FFFFFF" stroke-width="1"/>
            <path d="M63.62,10 L67.55,22.1 L76.41,18.67 C76.41,18.67 74.23,0.73 63.62,10 Z" id="Shape" fill="#EEC743" stroke-width="1"/>
            <path d="M63.62,10 L64.74,13 C65.1,14 65.51,15 65.81,16 L67.81,22 L67.51,21.86 L76.37,18.43 L76.23,18.67 C75.9923358,16.969453 75.5938842,15.2952867 75.04,13.67 C74.5304932,12.0454101 73.712192,10.534439 72.63,9.22 C72.0885607,8.588855 71.4023399,8.0982071 70.63,7.79 C69.8502313,7.51243846 69.0079855,7.46044798 68.2,7.64 C66.5030452,8.03957081 64.9302692,8.84999687 63.62,10 L63.62,10 Z M63.62,10 C64.8356558,8.73974602 66.3385134,7.79273989 68,7.24 C68.8892593,7.02442365 69.8227064,7.08015183 70.68,7.4 C71.524814,7.73157455 72.2763837,8.26350741 72.87,8.95 C73.996817,10.3099563 74.8492179,11.8755214 75.38,13.56 C75.9437701,15.2144747 76.3489272,16.9188133 76.59,18.65 L76.59,18.82 L76.42,18.88 L67.56,22.31 L67.34,22.4 L67.27,22.17 L65.27,16.05 C64.92,15.05 64.67,14.05 64.38,13 L63.62,10 Z" id="Shape" fill="#603404" stroke-width="1"/>
            <polygon id="Shape" fill="#E59515" points="65.14 10.65 65.71 11.96 66.16 13.31 67.07 16.01 67.97 18.7 68.43 20.05 68.78 21.44 68.22 20.12 67.76 18.77 66.85 16.08 65.94 13.38 65.49 12.03" stroke-width="1"/>
            <polygon id="Shape" fill="#E59515" points="70.45 20.63 69.89 19.3 69.43 17.92 68.53 15.18 67.62 12.43 67.17 11.06 66.82 9.65 67.38 10.99 67.83 12.36 68.74 15.11 69.65 17.85 70.1 19.23" stroke-width="1"/>
            <polygon id="Shape" fill="#E59515" points="72.04 20.02 71.5 18.71 71.08 17.37 70.23 14.69 69.37 12 68.95 10.66 68.63 9.28 69.16 10.59 69.59 11.93 70.44 14.62 71.29 17.3 71.72 18.65" stroke-width="1"/>
            <polygon id="Shape" fill="#E59515" points="73.94 19.24 73.44 18.08 73.05 16.88 72.27 14.48 71.48 12.08 71.09 10.88 70.81 9.65 71.3 10.81 71.7 12.01 72.48 14.41 73.26 16.81 73.66 18.01" stroke-width="1"/>
            <path d="M75.16,19.1 C74.27,13.38 72.58,10.1 70.16,9.32 C67.27,8.41 64.26,11.48 64.23,11.52 L63.9,11.21 C64.03,11.07 67.14,7.9 70.29,8.9 C72.89,9.72 74.68,13.14 75.6,19.04 L75.16,19.1 Z" id="Shape" fill="#603404" stroke-width="1"/>
            <ellipse id="Oval" fill="#FFFFFF" cx="68.87" cy="16.63" rx="1" ry="1.32" stroke-width="1"/>
            <ellipse id="Oval" fill="#FFFFFF" cx="71.16" cy="15.78" rx="1" ry="1.32" stroke-width="1"/>
            <ellipse id="Oval" fill="#048534" cx="68.87" cy="16.64" rx="1" ry="1.08" stroke-width="1"/>
            <ellipse id="Oval" fill="#FFFFFF" cx="68.85" cy="16.21" rx="1" ry="1" stroke-width="1"/>
            <ellipse id="Oval" fill="#FFFFFF" cx="69.1" cy="16.19" rx="1" ry="1" stroke-width="1"/>
            <ellipse id="Oval" fill="#048534" cx="71.16" cy="15.78" rx="1" ry="1.08" stroke-width="1"/>
            <ellipse id="Oval" fill="#FFFFFF" cx="71.15" cy="15.34" rx="1" ry="1" stroke-width="1"/>
            <ellipse id="Oval" fill="#FFFFFF" cx="71.4" cy="15.32" rx="1" ry="1" stroke-width="1"/>
            <path d="M93.71,10 L89.79,22.1 L80.93,18.67 C80.93,18.67 83.1,0.73 93.71,10 Z" id="Shape" fill="#EEC743" stroke-width="1"/>
            <path d="M93.71,10 L92.86,13 C92.57,14 92.32,15 91.97,16.05 L89.97,22.17 L89.9,22.4 L89.68,22.31 L80.82,18.88 L80.65,18.82 L80.65,18.65 C80.8910728,16.9188133 81.2962299,15.2144747 81.86,13.56 C82.3907821,11.8755214 83.243183,10.3099563 84.37,8.95 C84.9636163,8.26350741 85.715186,7.73157455 86.56,7.4 C87.4172936,7.08015183 88.3507407,7.02442365 89.24,7.24 C90.9337647,7.77956978 92.4688426,8.72740313 93.71,10 L93.71,10 Z M93.71,10 C92.4127822,8.87301635 90.8619045,8.07699065 89.19,7.68 C88.3820145,7.50044798 87.5397687,7.55243846 86.76,7.83 C85.9876601,8.1382071 85.3014393,8.628855 84.76,9.26 C83.677808,10.574439 82.8595068,12.0854101 82.35,13.71 C81.7961158,15.3352867 81.3976642,17.009453 81.16,18.71 L81,18.46 L89.86,21.89 L89.56,22.03 L91.56,16.03 C91.86,15.03 92.27,14.03 92.63,13.03 L93.71,10 Z" id="Shape" fill="#603404" stroke-width="1"/>
            <polygon id="Shape" fill="#E59515" points="92.01 10.65 91.65 12.01 91.19 13.33 90.26 15.98 89.34 18.63 88.88 19.95 88.31 21.24 88.66 19.88 89.13 18.55 90.05 15.91 90.98 13.26 91.44 11.93" stroke-width="1"/>
            <polygon id="Shape" fill="#E59515" points="86.53 20.63 86.89 19.22 87.35 17.83 88.28 15.07 89.22 12.3 89.68 10.92 90.25 9.57 89.9 10.99 89.43 12.38 88.5 15.14 87.57 17.91 87.1 19.29" stroke-width="1"/>
            <polygon id="Shape" fill="#E59515" points="84.7 19.82 85.05 18.46 85.51 17.13 86.42 14.48 87.33 11.82 87.79 10.49 88.35 9.2 88 10.56 87.55 11.89 86.63 14.55 85.72 17.2 85.27 18.53" stroke-width="1"/>
            <polygon id="Shape" fill="#E59515" points="83.02 19.24 83.33 18 83.75 16.81 84.59 14.41 85.44 12.01 85.86 10.81 86.38 9.65 86.07 10.89 85.65 12.09 84.81 14.48 83.97 16.88 83.55 18.08" stroke-width="1"/>
            <path d="M82.17,19.1 L81.73,19 C82.65,13.09 84.44,9.68 87.04,8.86 C90.19,7.86 93.3,11.04 93.43,11.17 L93.1,11.48 C93.1,11.48 90.1,8.37 87.17,9.28 C84.75,10.09 83.06,13.38 82.17,19.1 Z" id="Shape" fill="#603404" stroke-width="1"/>
            <ellipse id="Oval" fill="#FFFFFF" cx="88.59" cy="16.63" rx="1" ry="1.32" stroke-width="1"/>
            <ellipse id="Oval" fill="#FFFFFF" cx="86.29" cy="15.78" rx="1" ry="1.32" stroke-width="1"/>
            <ellipse id="Oval" fill="#048534" cx="88.59" cy="16.64" rx="1" ry="1.08" stroke-width="1"/>
            <ellipse id="Oval" fill="#FFFFFF" cx="88.6" cy="16.21" rx="1" ry="1" stroke-width="1"/>
            <ellipse id="Oval" fill="#FFFFFF" cx="88.35" cy="16.19" rx="1" ry="1" stroke-width="1"/>
            <ellipse id="Oval" fill="#048534" cx="86.29" cy="15.78" rx="1" ry="1.08" stroke-width="1"/>
            <ellipse id="Oval" fill="#FFFFFF" cx="86.31" cy="15.34" rx="1" ry="1" stroke-width="1"/>
            <ellipse id="Oval" fill="#FFFFFF" cx="86.06" cy="15.32" rx="1" ry="1" stroke-width="1"/>
            <path d="M59.17,53.6 C59.17,53.6 50.63,44.75 55.8,28.68 C55.8,28.68 59.88,18.26 76.96,17.86 C76.96,17.86 93.96,16.6 99.96,30.03 C101.241871,33.0382541 101.790278,36.308136 101.56,39.57 C101.32,43.89 99.91,51.69 95.68,54.88 L59.17,53.6 Z" id="Shape" fill="#161616" stroke-width="1"/>
            <path d="M55.68,33.07 C55.68,33.07 56.14,26.49 61.68,22.84 C61.68,22.84 71.35,16.61 83.09,18.76 C83.09,18.76 74.15,17.23 63.68,23.27 C60.0450217,25.6095238 57.2444378,29.0402391 55.68,33.07 Z" id="Shape" fill="#332723" stroke-width="1"/>
            <path d="M59.54,48.25 C58.6335167,47.4896417 57.4712806,47.1034217 56.29,47.17 C56.29,47.17 53.05,48.47 54.9,54.68 C54.9,54.68 56.29,59.83 60.7,61.75 L59.54,48.25 Z" id="Shape" fill="#FFE5DE" stroke-width="1"/>
            <path d="M61,62.11 L60.6,62 C56.15,60.06 54.73,55 54.67,54.78 C52.8,48.42 56.06,47 56.2,47 C57.4620669,46.9018728 58.7120785,47.3041754 59.68,48.12 L59.75,48.18 L61,62.11 Z M56.74,47.36 C56.6035638,47.3487744 56.4664362,47.3487744 56.33,47.36 C56.25,47.36 53.33,48.67 55.12,54.58 C55.12,54.63 56.46,59.37 60.44,61.34 L59.32,48.34 C58.5780612,47.7614186 57.6789578,47.4198987 56.74,47.36 Z" id="Shape" fill="#603404" stroke-width="1"/>
            <path d="M57.84,56.56 C57.6519399,56.5626946 57.4662294,56.5179865 57.3,56.43 C56.9491095,56.2111796 56.7199662,55.8415935 56.68,55.43 C56.6002832,54.8920695 56.9220211,54.3755955 57.44,54.21 C57.817764,54.1307161 58.2113693,54.218184 58.52,54.45 C58.2222389,53.2934138 57.6375341,52.2306269 56.82,51.36 C56.7461757,51.3051381 56.7121349,51.2115693 56.7334491,51.1220954 C56.7547633,51.0326216 56.8273337,50.9644494 56.9179638,50.9487634 C57.0085939,50.9330774 57.0998546,50.9728942 57.15,51.05 C57.28,51.18 60.24,54.35 58.41,56.4 C58.3851963,56.4268703 58.3543432,56.447439 58.32,56.46 C58.166893,56.5205277 58.0045401,56.5543513 57.84,56.56 Z M57.72,54.64 L57.55,54.64 C57.2545402,54.7424209 57.073886,55.0407105 57.12,55.35 C57.1464682,55.6166962 57.2891536,55.8581637 57.51,56.01 C57.7061497,56.0864377 57.9238503,56.0864377 58.12,56.01 C58.3306446,55.758353 58.468909,55.4541714 58.52,55.13 C58.4749128,55.1060474 58.4395599,55.0671593 58.42,55.02 C58.2820683,54.7622658 58.0002685,54.6154123 57.71,54.65 L57.72,54.64 Z" id="Shape" fill="#603404" stroke-width="1"/>
            <path d="M96.22,48.25 C97.1264833,47.4896417 98.2887194,47.1034217 99.47,47.17 C99.47,47.17 102.71,48.47 100.86,54.68 C100.86,54.68 99.47,59.83 95.06,61.75 L96.22,48.25 Z" id="Shape" fill="#FFE5DE" stroke-width="1"/>
            <path d="M94.81,62.11 L96.01,48.11 L96.08,48.05 C97.0336914,47.2430654 98.2634304,46.8379327 99.51,46.92 C99.7,46.99 102.96,48.39 101.08,54.72 C101,55 99.61,60 95.15,62 L94.81,62.11 Z M96.44,48.37 L95.32,61.37 C99.32,59.37 100.63,54.66 100.64,54.61 C102.41,48.67 99.41,47.38 99.38,47.37 C98.3104823,47.3312046 97.2640541,47.6871326 96.44,48.37 Z" id="Shape" fill="#603404" stroke-width="1"/>
            <path d="M97.92,56.56 C97.7526782,56.5586967 97.5868638,56.528241 97.43,56.47 C97.3956568,56.457439 97.3648037,56.4368703 97.34,56.41 C95.51,54.36 98.48,51.19 98.6,51.06 C98.6501454,50.9828942 98.7414061,50.9430774 98.8320362,50.9587634 C98.9226663,50.9744494 98.9952367,51.0426216 99.0165509,51.1320954 C99.0378651,51.2215693 99.0038243,51.3151381 98.93,51.37 C98.1121137,52.240371 97.5273564,53.3032534 97.23,54.46 C97.5314541,54.2291903 97.9171797,54.1382173 98.29,54.21 C98.8157659,54.3632285 99.1512102,54.8770103 99.08,55.42 C99.038556,55.8310926 98.8097846,56.2000786 98.46,56.42 C98.294689,56.5114647 98.1089269,56.5596252 97.92,56.56 Z M97.64,56.07 C97.8361497,56.1464377 98.0538503,56.1464377 98.25,56.07 C98.4723437,55.9150157 98.6150363,55.6698771 98.64,55.4 C98.6785946,55.0886425 98.4892796,54.7941526 98.19,54.7 L98.19,54.7 C97.8443296,54.6319765 97.4959704,54.8041069 97.34,55.12 C97.3197621,55.1667253 97.2845908,55.2054138 97.24,55.23 C97.2978635,55.5400703 97.4357522,55.8296365 97.64,56.07 L97.64,56.07 Z" id="Shape" fill="#603404" stroke-width="1"/>
            <circle id="Oval" fill="#FFFFFF" cx="77.88" cy="49.87" r="1" stroke-width="1"/>
            <circle id="Oval" fill="#FFFFFF" cx="77.88" cy="51.55" r="1" stroke-width="1"/>
            <circle id="Oval" fill="#FFFFFF" cx="77.88" cy="49.87" r="1" stroke-width="1"/>
            <circle id="Oval" fill="#FFFFFF" cx="77.88" cy="51.55" r="1" stroke-width="1"/>
            <path d="M62.47,35.66 C62.47,35.66 65.95,29 75.89,32.19 C75.89,32.19 78.75,33.77 83.31,31.87 C86.954317,31.1628099 90.6766949,32.643168 92.84,35.66 C92.84,35.66 97,42.57 96.56,49.2 C96.4968057,50.1990016 96.4968057,51.2009984 96.56,52.2 L96.56,58.4 C96.56,58.4 96.16,72.1 81.66,73.52 C81.66,73.52 66.85,75.77 60.95,62.52 C59.8292378,59.9291822 59.23113,57.1425437 59.19,54.32 C59.06,49.53 59.31,40.47 62.47,35.66 Z" id="Shape" fill="#FFE5DE" stroke-width="1"/>
            <path d="M88.58,39.52 L82.4,43.16 C82.15,43.3 81.89,43.43 81.64,43.56 C81.39,43.69 80.84,44.03 81.04,44.38 C81.04,44.38 81.38,45.46 82.89,44.65 L88.19,42.2 C88.9143843,41.7850256 89.7189513,41.5293369 90.55,41.45 C90.8441792,41.4346463 91.1358552,41.3877099 91.42,41.31 L93.42,40.73 C93.55,40.73 93.6,40.55 93.51,40.48 C92.4159929,39.7248469 91.1367756,39.2823068 89.81,39.2 C89.3789895,39.1966139 88.9547135,39.3069946 88.58,39.52 Z" id="Shape" fill="#161616" stroke-width="1"/>
            <path d="M67.18,39.52 L73.36,43.17 C73.61,43.31 73.87,43.44 74.12,43.57 C74.37,43.7 74.92,44.04 74.72,44.39 C74.72,44.39 74.38,45.47 72.87,44.66 L67.57,42.21 C66.8456157,41.7950256 66.0410487,41.5393369 65.21,41.46 C64.9158208,41.4446463 64.6241448,41.3977099 64.34,41.32 L62.34,40.74 C62.21,40.74 62.16,40.56 62.25,40.49 C63.3440071,39.7348469 64.6232244,39.2923068 65.95,39.21 C66.3801046,39.2035645 66.8043229,39.3104813 67.18,39.52 Z" id="Shape" fill="#161616" stroke-width="1"/>
            <path d="M79.71,58.95 C79.5118449,58.9496418 79.3372446,58.8197067 79.28,58.63 C79.1090282,58.111016 78.6676972,57.7272498 78.13,57.63 C77.423668,57.5902269 76.7650233,57.9870007 76.47,58.63 C76.4110512,58.7800515 76.2765287,58.8872561 76.1171058,58.9112307 C75.9576829,58.9352053 75.7975798,58.8723076 75.6971058,58.7462307 C75.5966318,58.6201537 75.5710512,58.4500515 75.63,58.3 C76.0609634,57.3057419 77.0464348,56.6671565 78.13,56.68 L78.2,56.68 C79.1319592,56.7915906 79.9133395,57.4362293 80.2,58.33 C80.2713354,58.5674363 80.1371883,58.8178442 79.9,58.89 L79.71,58.95 Z" id="Shape" fill="#161616" stroke-width="1"/>
            <path d="M73.61,65.87 C74.2971887,66.2204804 75.0314564,66.4697273 75.79,66.61 C76.5007981,66.7567853 77.2242303,66.8338174 77.95,66.84 C78.6767173,66.8536133 79.4031382,66.8000523 80.12,66.68 C80.4846726,66.6227054 80.8453836,66.5425474 81.2,66.44 C81.5631009,66.3593792 81.8918255,66.1670404 82.14,65.89 L82.14,65.89 C82.0089192,66.2910796 81.7300199,66.627189 81.36,66.83 C81.0112349,67.042856 80.6386847,67.2140278 80.25,67.34 C79.4769316,67.6012626 78.6660169,67.7330362 77.85,67.73 C77.032878,67.7145803 76.2244689,67.5589869 75.46,67.27 C74.6846121,67.001874 73.9943954,66.5325267 73.46,65.91 L73.53,65.91 L73.61,65.87 Z" id="Shape" fill="#161616" stroke-width="1"/>
            <path d="M70.48,65.31 L69.17,63.14 C71.6259172,61.2092205 74.6661127,60.1723092 77.79,60.2 C77.79,60.2 83.33,60.28 86.58,63.02 L85.27,65.52 C85.27,65.52 78.88,57.94 70.48,65.31 Z" id="Shape" fill="#161616" stroke-width="1"/>
            <path d="M59.27,46.78 C59.27,46.78 61.36,65.88 67.94,69.57 C70.07,70.77 72.27,71.92 74.7,71.71 C75.4029087,71.6928638 76.090396,71.5003673 76.7,71.15 C76.8586586,71.0792674 77.0094799,70.9921262 77.15,70.89 C77.7527839,70.4772602 78.5472161,70.4772602 79.15,70.89 C79.2919752,70.987023 79.4426162,71.0707125 79.6,71.14 C79.6,71.14 82.6,72.23 84.15,71.14 C84.15,71.14 94.79,70.25 96.71,46.49 C96.71,46.49 101.97,65.83 87.29,77.56 C86.18,78.45 84.69,80.18 83.58,81.08 C81.48,82.78 78.97,83.74 78.9,85.21 C78.9,85.21 74.32,80.88 70.26,77.67 C70.25,77.71 55.79,67.46 59.27,46.78 Z" id="Shape" fill="#161616" stroke-width="1"/>
            <path d="M81.69,51.7 C81.69,51.7 82.27,48.36 86.58,48.05 C86.58,48.05 89.09,47.84 90.71,47.89 C91.8788183,48.0198176 93.0195479,47.472733 93.65,46.48 C93.65,46.48 91.89,50.81 88.22,51.36 C88.22,51.36 82.47,52.11 81.69,51.7 Z" id="Shape" fill="#FFFFFF" stroke-width="1"/>
            <path d="M81.67,51.71 C81.867493,50.8224262 82.3315568,50.0164207 83,49.4 C83.6683196,48.7849806 84.4850201,48.3542314 85.37,48.15 C86.2361233,47.9696573 87.1159018,47.862612 88,47.83 C88.89,47.77 89.78,47.73 90.68,47.74 L90.68,47.74 C91.2303172,47.7755579 91.7813903,47.6831419 92.29,47.47 C92.7856276,47.2571941 93.1920715,46.8790246 93.44,46.4 L93.44,46.4 C93.4898535,46.3230691 93.5895604,46.2958948 93.6715542,46.3368916 C93.753548,46.3778885 93.7916326,46.4739587 93.76,46.56 C93.3006124,47.6693725 92.6432441,48.6859214 91.82,49.56 C90.9931229,50.4739682 89.9202829,51.1301713 88.73,51.45 C88.1591036,51.569287 87.5813111,51.652783 87,51.7 C86.41,51.75 85.82,51.81 85.23,51.84 C84.64,51.87 84.05,51.9 83.45,51.91 C82.849638,51.9440298 82.2478404,51.8764121 81.67,51.71 Z M81.67,51.71 C82.2437285,51.7923248 82.8262715,51.7923248 83.4,51.71 C83.99,51.71 84.57,51.61 85.16,51.54 C86.32,51.38 87.53,51.3 88.63,51.04 C89.7308557,50.7253969 90.7216028,50.108778 91.49,49.26 C92.3028708,48.4252315 92.9779523,47.4666157 93.49,46.42 L93.82,46.57 L93.82,46.57 C93.6726729,46.8408968 93.479864,47.0844449 93.25,47.29 C93.0189996,47.4929373 92.7552618,47.6552375 92.47,47.77 C91.9084046,47.9937192 91.3022089,48.0827649 90.7,48.03 L90.7,48.03 C89.82,48.03 88.93,48.03 88.04,48.03 C87.1546991,48.0420213 86.2718207,48.1256273 85.4,48.28 C84.5333842,48.4536687 83.7269257,48.8500052 83.06,49.43 C82.396204,50.0330874 81.926361,50.8196395 81.71,51.69 L81.67,51.71 Z" id="Shape" fill="#161616" stroke-width="1"/>
            <path d="M87,48.1 C87.3704278,48.1052433 87.7234365,48.2581416 87.9806589,48.5247516 C88.2378813,48.7913617 88.3780328,49.1496222 88.37,49.52 C88.3519027,49.8595314 88.2914339,50.1954691 88.19,50.52 C88.0287144,51.0538123 87.5471714,51.4270081 86.99,51.45 L84.59,51.69 C84.0924576,51.3751908 83.7791265,50.8380518 83.75,50.25 C83.6795021,49.6589014 83.8993268,49.0702183 84.34,48.67 C85.1356546,48.1820531 86.0742686,47.9809215 87,48.1 L87,48.1 Z" id="Shape" fill="#161616" stroke-width="1"/>
            <ellipse id="Oval" fill="#FFFFFF" cx="85.31" cy="49.17" rx="1" ry="1" stroke-width="1"/>
            <path d="M74.07,51.7 C74.07,51.7 73.49,48.36 69.18,48.05 C69.18,48.05 66.67,47.84 65.05,47.89 C63.8811817,48.0198176 62.7404521,47.472733 62.11,46.48 C62.11,46.48 63.87,50.81 67.54,51.36 C67.54,51.36 73.29,52.11 74.07,51.7 Z" id="Shape" fill="#FFFFFF" stroke-width="1"/>
            <path d="M74.05,51.69 C73.8218742,50.8364744 73.3491421,50.0682848 72.69,49.48 C72.0230743,48.9000052 71.2166158,48.5036687 70.35,48.33 C69.4781793,48.1756273 68.5953009,48.0920213 67.71,48.08 C66.82,48.08 65.93,48.01 65.05,48.08 L65.05,48.08 C64.4477911,48.1327649 63.8415954,48.0437192 63.28,47.82 C62.9947382,47.7052375 62.7310004,47.5429373 62.5,47.34 C62.270136,47.1344449 62.0773271,46.8908968 61.93,46.62 L61.93,46.62 L62.26,46.47 C62.7720477,47.5166157 63.4471292,48.4752315 64.26,49.31 C65.0313428,50.1211481 66.0100615,50.7056127 67.09,51 C68.19,51.26 69.41,51.34 70.56,51.5 C71.14,51.57 71.73,51.63 72.32,51.67 C72.8927763,51.7589631 73.4753201,51.7656977 74.05,51.69 L74.05,51.69 Z M74.05,51.69 C73.4721596,51.8564121 72.870362,51.9240298 72.27,51.89 C71.68,51.89 71.08,51.89 70.49,51.82 C69.9,51.75 69.31,51.73 68.72,51.68 C68.1428806,51.6455818 67.5684473,51.5754475 67,51.47 C65.8097171,51.1501713 64.7368771,50.4939682 63.91,49.58 C63.0831852,48.7067366 62.422395,47.6901363 61.96,46.58 C61.9283674,46.4939587 61.966452,46.3978885 62.0484458,46.3568916 C62.1304396,46.3158948 62.2301465,46.3430691 62.28,46.42 L62.28,46.42 C62.5279285,46.8990246 62.9343724,47.2771941 63.43,47.49 C63.9386097,47.7031419 64.4896828,47.7955579 65.04,47.76 L65.04,47.76 C65.94,47.76 66.83,47.76 67.72,47.85 C68.6174952,47.8803547 69.5107501,47.9874115 70.39,48.17 C71.2749799,48.3742314 72.0916804,48.8049806 72.76,49.42 C73.4249569,50.0310742 73.8887395,50.8296174 74.09,51.71 L74.05,51.69 Z" id="Shape" fill="#161616" stroke-width="1"/>
            <path d="M68.73,48.1 C68.3595722,48.1052433 68.0065635,48.2581416 67.7493411,48.5247516 C67.4921187,48.7913617 67.3519672,49.1496222 67.36,49.52 C67.3780973,49.8595314 67.4385661,50.1954691 67.54,50.52 C67.7012856,51.0538123 68.1828286,51.4270081 68.74,51.45 L71.14,51.69 C71.6479988,51.3778216 71.9696628,50.8354812 72,50.24 C72.0704979,49.6489014 71.8506732,49.0602183 71.41,48.66 C70.6075274,48.1709949 69.6611394,47.9732422 68.73,48.1 L68.73,48.1 Z" id="Shape" fill="#161616" stroke-width="1"/>
            <ellipse id="Oval" fill="#FFFFFF" cx="70.44" cy="49.17" rx="1" ry="1" stroke-width="1"/>
        </g>
    </g>
</svg>