<?xml version="1.0" encoding="UTF-8"?><svg xmlns="http://www.w3.org/2000/svg" xmlns:xlink="http://www.w3.org/1999/xlink" width="109.15483093261719" height="155.64759826660156" viewBox="-0.2800000011920929 -0.04146432876586914 109.15483093261719 155.64759826660156" version="1.1">
    <!-- Generator: Sketch 46.2 (44496) - http://www.bohemiancoding.com/sketch -->
    <title>三国主题素材-15</title>
    <desc>Created with Sketch.</desc>
    <defs/>
    <g id="Page-1" stroke="none" fill-rule="evenodd">
        <g id="三国主题素材-15" fill-rule="nonzero">
            <path d="M82.81,119.7 C82.81,119.7 94.05,117 100.39,109.81 L100.9,115.2 C100.9,115.2 93.25,122.46 83.19,121.82 L82.81,119.7 Z" id="Shape" fill="#CE9006" stroke-width="1"/>
            <path d="M84.43,122.07 C84.0166667,122.07 83.5966667,122.07 83.17,122.07 C83.0646855,122.062379 82.9780881,121.984029 82.96,121.88 L82.58,119.77 C82.5607384,119.652377 82.6345251,119.539526 82.75,119.51 C82.86,119.51 94,116.75 100.21,109.69 C100.267682,109.619063 100.363227,109.591196 100.45,109.62 C100.535888,109.646613 100.598391,109.720836 100.61,109.81 L101.12,115.2 C101.1273,115.27075 101.101456,115.340897 101.05,115.39 C101,115.43 93.85,122.07 84.43,122.07 Z M83.38,121.59 C92.58,122.1 99.83,115.85 100.67,115.1 L100.22,110.34 C94.34,116.7 84.62,119.46 83.08,119.87 L83.38,121.59 Z" id="Shape" fill="#603404" stroke-width="1"/>
            <path d="M15.29,86.9 L20.94,86.9 C20.94,86.9 18.94,103.52 32.67,123.34 L29.47,126.43 C29.47,126.43 12.3,103.74 15.29,86.9 Z" id="Shape" fill="#CE9006" stroke-width="1"/>
            <path d="M29.46,126.66 L29.46,126.66 C29.3961002,126.654748 29.3376708,126.621881 29.3,126.57 C29.13,126.34 12.11,103.57 15.08,86.86 C15.0989436,86.7524786 15.1908663,86.6730908 15.3,86.67 L20.95,86.67 C21.0128744,86.6724931 21.0719819,86.7006372 21.1135512,86.747875 C21.1551204,86.7951127 21.175521,86.8573189 21.17,86.92 C21.17,87.09 19.33,103.7 32.86,123.21 C32.9286191,123.294489 32.9286191,123.415511 32.86,123.5 L29.66,126.59 C29.6086921,126.644482 29.5340848,126.670595 29.46,126.66 Z M15.46,87.13 C12.83,102.81 27.79,123.8 29.46,126.13 L32.33,123.35 C26.9143879,115.688672 23.18253,106.967371 21.38,97.76 C20.6874893,94.2719872 20.4388503,90.7104004 20.64,87.16 L15.46,87.13 Z" id="Shape" fill="#603404" stroke-width="1"/>
            <path d="M44.45,73 C44.45,73 75.74,72.15 75.26,72.05 C74.78,71.95 83.46,131.95 83.46,131.95 C83.46,131.95 83.35,141.54 89.83,148.01 C89.83,148.01 58.47,163.49 31.62,148.01 C35.5391487,143.637604 37.8681297,138.070599 38.23,132.21 L44.45,73 Z" id="Shape" fill="#967741" stroke-width="1"/>
            <path d="M58.57,155.1 C49.1024666,155.24313 39.765918,152.876215 31.51,148.24 C31.4551428,148.196365 31.4231782,148.130095 31.4231782,148.06 C31.4231782,147.989905 31.4551428,147.923635 31.51,147.88 C35.3553743,143.531379 37.6393752,138.023734 38,132.23 L44.22,73 C44.2345955,72.8885239 44.3276414,72.8039367 44.44,72.8 C54.69,72.52 74.12,71.97 75.18,71.87 C75.2194068,71.8602576 75.2605932,71.8602576 75.3,71.87 C75.4151029,71.8901219 75.496826,71.9933511 75.49,72.11 C75.4991506,72.1358817 75.4991506,72.1641183 75.49,72.19 C75.41,73.96 80.81,111.96 83.71,131.96 C83.71,132.09 83.71,141.57 90.01,147.9 C90.0588093,147.952264 90.0805318,148.024258 90.0687755,148.094796 C90.0570191,148.165334 90.0131215,148.226391 89.95,148.26 C80.0651462,152.653786 69.3867288,154.981395 58.57,155.1 L58.57,155.1 Z M32,148 C57,162.24 86.27,149.46 89.46,148 C83.22,141.54 83.25,132.1 83.25,132 C83.25,131.9 81.06,117 79,102.2 C75.66,78.56 75.07,73.46 75,72.29 C74,72.41 70.7,72.51 59.82,72.82 L44.61,73.25 L38.41,132.25 C38.0490636,138.058771 35.7979286,143.590031 32,148 Z" id="Shape" fill="#603404" stroke-width="1"/>
            <path d="M51.55,93.3 L70.73,93.3 L70.73,105.3 C70.73,105.3 65.73,99.96 49.63,104.15 L51.55,93.3 Z" id="Shape" fill="#603404" stroke-width="1"/>
            <path d="M77.81,73 C77.81,73 76.76,71.79 74.12,72.11 C74.12,72.11 69.06,87.19 71.46,111.64 C71.46,111.64 73.96,145.33 74.92,147.4 C76.8886704,147.611386 78.8787293,147.49651 80.81,147.06 L77.81,73 Z" id="Shape" fill="#CE9006" stroke-width="1"/>
            <path d="M77.08,147.76 C75.88,147.76 74.96,147.66 74.88,147.66 C74.8016715,147.650415 74.7337256,147.601343 74.7,147.53 C73.7,145.44 71.33,113.07 71.22,111.69 C70.2213033,102.040108 70.365636,92.3060399 71.65,82.69 C72.1055493,79.0882308 72.8547098,75.5297185 73.89,72.05 C73.9197696,71.9680194 73.9933488,71.9099306 74.08,71.9 C76.81,71.57 77.92,72.81 77.97,72.9 C77.9875333,72.930593 77.9977977,72.9648077 78,73 L81,147.06 C81.0003974,147.160394 80.9356322,147.249446 80.84,147.28 C79.6157425,147.617355 78.349746,147.778972 77.08,147.76 L77.08,147.76 Z M75.08,147.22 C76.9177863,147.406311 78.7733814,147.305097 80.58,146.92 L77.58,73.12 C76.6412516,72.401959 75.4408841,72.1182358 74.28,72.34 C73.79,73.91 69.43,88.74 71.67,111.64 C72.53,123.06 74.3,144.86 75.07,147.22 L75.08,147.22 Z" id="Shape" fill="#603404" stroke-width="1"/>
            <path d="M77,72.46 C77,72.46 84,74.66 86.55,78.4 L87.67,79.64 C91.0305422,83.3684365 93.5930471,87.7447729 95.2,92.5 C95.72,94.05 96.2,95.57 96.71,96.92 C98.06,100.62 101.92,109.41 99.82,112.32 C95.6247764,117.159063 89.3859551,119.725807 83,119.24 C83,119.24 85.9,140 88.14,142.47 C85.9785466,145.888976 82.5143423,148.276713 78.55,149.08 C78.55,149.08 70.55,97.51 73.64,85.14 C73.64,85.14 75.64,75.34 76.64,73.21 L77,72.46 Z" id="Shape" fill="#8E2B3E" stroke-width="1"/>
            <path d="M78.55,149.31 C78.4408663,149.306909 78.3489436,149.227521 78.33,149.12 C78.25,148.6 70.33,97.36 73.42,85.12 C73.5,84.73 75.42,75.27 76.42,73.12 L76.76,72.37 C76.7868438,72.3114296 76.8380132,72.2675702 76.9,72.25 C76.9484562,72.2324282 77.0015438,72.2324282 77.05,72.25 L77.11,72.25 C78.79,72.82 84.43,74.92 86.7,78.25 L87.8,79.47 C91.1873853,83.2178293 93.7675316,87.6224589 95.38,92.41 L95.75,93.52 C96.14,94.69 96.51,95.8 96.89,96.82 C97.06,97.29 97.28,97.82 97.52,98.47 C99.15,102.71 101.88,109.8 99.97,112.47 C95.9851693,117.01966 90.1969831,119.580804 84.15,119.47 L83.3,119.47 C83.65,121.91 86.3,140.06 88.3,142.31 C88.3536845,142.388353 88.3536845,142.491647 88.3,142.57 C86.0951785,146.034503 82.5815583,148.458684 78.56,149.29 L78.55,149.31 Z M77.08,72.74 L76.83,73.3 C75.83,75.39 73.89,85.09 73.83,85.19 C70.83,96.95 78.13,145.01 78.71,148.81 C82.4590919,147.970069 85.7337777,145.703254 87.84,142.49 C85.6,139.49 82.84,120.11 82.77,119.27 C82.763167,119.204162 82.7850305,119.138571 82.83,119.09 C82.8675727,119.03293 82.93168,118.998991 83,119 C89.2840268,119.423554 95.4065502,116.894685 99.56,112.16 C101.32,109.72 98.65,102.78 97.05,98.63 C96.81,98.01 96.6,97.45 96.42,96.98 C96.04,95.98 95.67,94.84 95.28,93.67 L94.91,92.56 C93.3194559,87.8321239 90.773358,83.4819725 87.43,79.78 L86.31,78.54 C84.18,75.38 78.85,73.35 77.08,72.74 Z" id="Shape" fill="#603404" stroke-width="1"/>
            <path d="M83,119.47 C82.9083599,119.469338 82.8258577,119.414336 82.79,119.33 C77.09,105.36 80,88 80,87.82 C80.0096922,87.7611843 80.0428361,87.708819 80.0918462,87.6748889 C80.1408562,87.6409589 80.2015368,87.6283688 80.26,87.64 C80.3795124,87.6651332 80.4585437,87.7792895 80.44,87.9 C80.44,88.07 77.53,105.32 83.2,119.16 C83.2488039,119.275989 83.1953333,119.409666 83.08,119.46 L83,119.47 Z" id="Shape" fill="#603404" stroke-width="1"/>
            <path d="M45,72.89 L48.9,73 C48.9,73 58.31,100.14 47.31,147.71 L41.72,147.34 C41.72,147.34 54.56,98.82 45,72.89 Z" id="Shape" fill="#CE9006" stroke-width="1"/>
            <path d="M47.31,147.94 L47.31,147.94 L41.72,147.57 C41.6525255,147.567674 41.5898549,147.534496 41.55,147.48 C41.5212418,147.419931 41.5212418,147.350069 41.55,147.29 C43.8115937,138.233443 45.554428,129.055184 46.77,119.8 C48.6,105.8 49.77,86.31 44.77,72.96 C44.7361784,72.8940854 44.7361784,72.8159146 44.77,72.75 C44.8178393,72.69459 44.8868208,72.6619146 44.96,72.66 L48.9,72.78 C48.994099,72.7823182 49.0772885,72.8417393 49.11,72.93 C49.2,73.2 58.41,100.68 47.52,147.77 C47.4941681,147.866143 47.4094144,147.934753 47.31,147.94 Z M42,147.14 L47.13,147.48 C52.76,123 52.89,104.13 52,92.56 C51.11,80.99 49.07,74.28 48.73,73.22 L45.29,73.11 C50.13,86.54 48.98,105.92 47.16,119.86 C45.9502543,129.042473 44.2275608,138.150047 42,147.14 L42,147.14 Z" id="Shape" fill="#603404" stroke-width="1"/>
            <path d="M45.24,72.89 C45.24,72.89 41.84,72.76 38.66,77.15 C36.9519429,80.278138 34.0761782,82.6039127 30.66,83.62 L20,86.9 C20,86.9 17.36,103.9 32.63,123.34 C32.63,123.34 39.34,116.15 40.14,112.34 C40.14,112.34 36.04,137.28 32.63,141.43 C32.63,141.43 34.97,146.43 42.63,148.51 C42.63,148.51 56.11,95.39 46.04,74.77 L45.24,72.89 Z" id="Shape" fill="#8E2B3E" stroke-width="1"/>
            <path d="M42.68,148.72 L42.62,148.72 C34.94,146.63 32.56,141.72 32.46,141.52 C32.4125212,141.447044 32.4125212,141.352956 32.46,141.28 C35.19,137.95 38.46,120.77 39.54,114.54 C37.54,118.39 33.03,123.26 32.8,123.54 C32.7555284,123.585951 32.6939338,123.611314 32.63,123.61 C32.5629069,123.606274 32.5007988,123.573393 32.46,123.52 C26.4234354,116.088437 22.2784009,107.304258 20.38,97.92 C19.6261246,94.304537 19.4271778,90.5953586 19.79,86.92 C19.8051479,86.834641 19.8670056,86.7650511 19.95,86.74 L30.62,83.46 C33.9543529,82.4428701 36.7600823,80.1645603 38.44,77.11 C41.68,72.63 45.09,72.72 45.24,72.72 C45.325684,72.7226751 45.4027697,72.7727808 45.44,72.85 L46.29,74.72 C51.51,85.42 50.29,104.95 48.38,119.44 C47.0501245,129.24753 45.2177138,138.980335 42.89,148.6 C42.8630916,148.699593 42.7731602,148.769086 42.67,148.77 L42.68,148.72 Z M32.93,141.44 C33.35,142.2 35.87,146.34 42.52,148.22 C43.46,144.43 55.52,94.49 45.89,74.86 L45.1,73.12 C44.45,73.12 41.56,73.54 38.85,77.29 C37.1144061,80.4460288 34.2152656,82.7997864 30.77,83.85 L20.24,87.07 C20,88.74 18.55,104.9 32.67,123 C33.74,121.83 39.24,115.66 39.95,112.27 C39.9833524,112.157883 40.0955431,112.088656 40.2107102,112.10913 C40.3258772,112.129604 40.4073338,112.233257 40.4,112.35 C40.23,113.37 36.32,137 32.93,141.43 L32.93,141.44 Z" id="Shape" fill="#603404" stroke-width="1"/>
            <path d="M40.17,112.54 L40.08,112.54 C39.9646667,112.489666 39.9111961,112.355989 39.96,112.24 C42.8561346,103.852978 42.8561346,94.7370221 39.96,86.35 C39.937893,86.2376474 40.0017999,86.1261449 40.1099173,86.0884295 C40.2180347,86.0507142 40.3374286,86.0982745 40.39,86.2 C43.325022,94.693594 43.325022,103.926406 40.39,112.42 C40.3468096,112.499946 40.2605993,112.54697 40.17,112.54 Z" id="Shape" fill="#603404" stroke-width="1"/>
            <path d="M17.14,96.29 C17.14,96.29 15.32,101.34 10.76,99 C6.2,96.66 6.58,93.1 6.87,91.58" id="Shape" fill="#FFE5DE" stroke-width="1"/>
            <path d="M12.67,99.83 C11.9693585,99.7489905 11.2905793,99.535175 10.67,99.2 C7.37,97.51 6.02,94.93 6.67,91.53 C6.66462264,91.4348895 6.71843412,91.3463073 6.80531894,91.3072438 C6.89220375,91.2681802 6.99417785,91.286721 7.06175167,91.3538679 C7.12932549,91.4210148 7.14851212,91.5228694 7.11,91.61 C6.52,94.79 7.79,97.2 10.88,98.79 C11.9062045,99.4109973 13.154484,99.5464411 14.29,99.16 C15.5231748,98.5311146 16.4732595,97.4595905 16.95,96.16 C17.0025714,96.0582745 17.1219653,96.0107142 17.2300827,96.0484295 C17.3382001,96.0861449 17.402107,96.1976474 17.38,96.31 C16.8563617,97.7185323 15.8107752,98.8715421 14.46,99.53 C13.8962109,99.7727316 13.2821215,99.8756517 12.67,99.83 Z" id="Shape" fill="#603404" stroke-width="1"/>
            <polygon id="Shape" fill="#A8A6A6" points="26.85 94.78 89.38 116.13 95.95 121.94 88.07 122.41 24.9 100.95" stroke-width="1"/>
            <path d="M26.85,94.78 L89.38,116.13 L95.95,121.93 L88.07,122.4 L24.9,101 L26.9,94.83 L26.85,94.78 Z M26.9,94.38 C26.7018449,94.3803582 26.5272446,94.5102933 26.47,94.7 L24.47,100.87 C24.3978283,101.104512 24.526827,101.353613 24.76,101.43 L87.93,122.88 L88.08,122.88 L88.08,122.88 L95.96,122.41 C96.1433709,122.400188 96.3023843,122.27994 96.3617722,122.106175 C96.4211602,121.93241 96.3690074,121.739992 96.23,121.62 L89.66,115.82 C89.6163684,115.780477 89.5654057,115.749899 89.51,115.73 L27,94.35 L26.85,94.35 L26.9,94.38 Z" id="Shape" fill="#898989" stroke-width="1"/>
            <polygon id="Shape" fill="#D8D8D8" points="93.95 122.06 25.53 98.96 24.9 100.95 88.07 122.41" stroke-width="1"/>
            <polygon id="Shape" fill="#D8D8D8" points="79.52 117.19 76.69 116.22 76.48 111.73 78.93 112.56" stroke-width="1"/>
            <polygon id="Shape" fill="#D8D8D8" points="75.63 115.87 72.8 114.91 72.59 110.39 75.03 111.23" stroke-width="1"/>
            <polygon id="Shape" fill="#FFFFFF" points="79.52 117.19 78.53 119.17 75.98 118.3 76.69 116.22" stroke-width="1"/>
            <polygon id="Shape" fill="#FFFFFF" points="75.63 115.87 74.64 117.85 72.09 116.99 72.8 114.91" stroke-width="1"/>
            <rect id="Rectangle-path" fill="#562707" transform="matrix(-0.32738281869225594,0.9448917874683394,-0.9448917874683394,-0.32738281869225594,110.61849365917817,109.94788997078427)" x="12.8912788" y="87.9255962" width="6.57" height="12.84" stroke-width="1"/>
            <rect id="Rectangle-path" fill="#C1B985" transform="matrix(-0.32738281869225594,0.9448917874683394,-0.9448917874683394,-0.32738281869225594,98.54929378858584,113.49315832596545)" x="5.5098371" y="90.517526" width="6.74" height="2.61" stroke-width="1"/>
            <path d="M9,95.54 L9,95.54 L6.54,94.69 C6.51204196,94.6808728 6.48890318,94.66093 6.47575055,94.6346247 C6.46259793,94.6083195 6.46052693,94.5778427 6.47,94.55 L8.68,88.18 C8.6911708,88.1527805 8.71278055,88.1311708 8.74,88.12 C8.76862735,88.1071657 8.80137265,88.1071657 8.83,88.12 L11.29,88.97 C11.317958,88.9791272 11.3410968,88.99907 11.3542494,89.0253753 C11.3674021,89.0516805 11.3694731,89.0821573 11.36,89.11 L9.15,95.48 C9.1388292,95.5072195 9.11721945,95.5288292 9.09,95.54 L9,95.54 Z M6.68,94.54 L8.93,95.32 L11.06,89.16 L8.81,88.38 L6.68,94.54 Z" id="Shape" fill="#6D4703" stroke-width="1"/>
            <path d="M7.65,91.39 L8.65,88.39 C8.68718469,88.2638119 8.64823734,88.1274961 8.55,88.04 L7.73,87.2 C7.58568121,87.0564961 7.38012326,86.99296 7.18,87.03 L0.7,88.4 L0.53,88.88 L0.53,88.88 L0.36,89.36 L4.63,94.48 C4.76421018,94.6349734 4.96635092,94.7135837 5.17,94.69 L6.33,94.54 C6.46237496,94.5344316 6.57945835,94.4524732 6.63,94.33 L7.63,91.33" id="Shape" fill="#C1B985" stroke-width="1"/>
            <path d="M5.09,94.84 C4.87916705,94.84 4.67862988,94.7488467 4.54,94.59 L0.22,89.42 L0.61,88.3 L7.2,86.91 C7.43638468,86.8655076 7.67951544,86.940317 7.85,87.11 L8.67,87.95 C8.79585534,88.0670131 8.84599239,88.2444212 8.8,88.41 L6.73,94.41 C6.66786523,94.5745918 6.51551158,94.6878804 6.34,94.7 L5.18,94.85 L5.09,94.84 Z M0.48,89.38 L4.71,94.45 C4.8190417,94.5766356 4.98413997,94.6404236 5.15,94.62 L6.31,94.47 C6.39797618,94.4654849 6.47564501,94.4111168 6.51,94.33 L8.58,88.33 C8.59709653,88.244493 8.56646958,88.1564405 8.5,88.1 L7.68,87.26 C7.56406723,87.1458103 7.4006026,87.0937988 7.24,87.12 L0.78,88.5 L0.48,89.38 Z" id="Shape" fill="#6D4703" stroke-width="1"/>
            <path d="M50.28,102 C50.28,102 51.45,107.86 47.1,110.69 C47.1,110.69 45.38,112.1 48.39,112.29 C49.7006482,112.250219 50.9432174,111.697168 51.85,110.75 L103.74,128.09 C103.74,128.09 106.74,128.3 107.6,126.09 C107.6,126.09 109.08,123.29 105.33,121.23 L54.86,104.23 C54.6899151,103.209355 54.1702446,102.279605 53.39,101.6 C53.39,101.6 49.59,98.87 50.28,102 Z" id="Shape" fill="#C1B985" stroke-width="1"/>
            <path d="M50.94,100.5 C51.8302463,100.666433 52.6712649,101.032242 53.4,101.57 C54.1802446,102.249605 54.6999151,103.179355 54.87,104.2 L105.34,121.2 C109.1,123.25 107.61,126.06 107.61,126.06 C106.89,127.93 104.61,128.06 103.95,128.06 L103.74,128.06 L51.85,110.78 C50.9507907,111.691149 49.7476013,112.239348 48.47,112.32 L48.38,112.32 C45.38,112.13 47.09,110.72 47.09,110.72 C51.44,107.9 50.27,102.03 50.27,102.03 C50.02,100.86 50.37,100.49 50.93,100.49 L50.94,100.5 Z M50.93,100.04 C50.5774257,100.020859 50.2364695,100.1691 50.01,100.44 C49.7017255,100.948555 49.6357575,101.567922 49.83,102.13 C49.83,102.13 50.88,107.72 46.83,110.34 L46.83,110.34 L46.83,110.34 C46.74,110.41 45.99,111.06 46.22,111.78 C46.45,112.5 47.57,112.7 48.37,112.78 L48.48,112.78 C49.7927462,112.715793 51.040106,112.187791 52,111.29 L103.64,128.55 L103.69,128.55 L103.99,128.55 C104.74,128.55 107.23,128.38 108.06,126.26 C108.22,125.91 109.46,122.95 105.59,120.83 L105.59,120.83 L105.59,120.83 L55.37,103.83 C55.1594143,102.785337 54.5941569,101.845597 53.77,101.17 C52.9395488,100.549129 51.9664374,100.146818 50.94,100 L50.93,100.04 Z" id="Shape" fill="#6D4703" stroke-width="1"/>
            <path d="M17.12,91.34 L15.05,97.3" id="Shape" fill="#FBE462" stroke-width="1"/>
            <path d="M17.12,91.34 C17.12,91.6 17.02,91.86 16.97,92.12 L16.71,92.86 L16.19,94.35 L15.67,95.84 L15.41,96.58 L15.04,97.29 L15.19,96.51 L15.45,95.77 L15.97,94.28 L16.49,92.79 L16.75,92.05 C16.87,91.81 17,91.58 17.12,91.34 Z" id="Shape" fill="#6D4703" stroke-width="1"/>
            <path d="M17.8,91.58 L15.73,97.53" id="Shape" fill="#FBE462" stroke-width="1"/>
            <path d="M17.8,91.58 C17.8,91.84 17.7,92.1 17.65,92.36 L17.39,93.1 L16.87,94.59 L16.35,96.08 L16.09,96.82 L15.72,97.53 L15.87,96.75 L16.13,96.01 L16.65,94.52 L17.17,93.03 L17.43,92.29 C17.55,92 17.66,91.81 17.8,91.58 Z" id="Shape" fill="#6D4703" stroke-width="1"/>
            <path d="M18.47,91.81 L16.41,97.77" id="Shape" fill="#FBE462" stroke-width="1"/>
            <path d="M18.47,91.81 C18.47,92.07 18.37,92.33 18.32,92.59 L18.06,93.33 L17.54,94.82 L17,96.32 L16.74,97.06 L16.37,97.77 L16.52,96.99 L16.78,96.25 L17.3,94.76 L17.82,93.27 L18.08,92.53 C18.23,92.29 18.34,92 18.47,91.81 Z" id="Shape" fill="#6D4703" stroke-width="1"/>
            <path d="M19.15,92.05 L17.09,98" id="Shape" fill="#FBE462" stroke-width="1"/>
            <path d="M19.15,92.05 C19.15,92.31 19.05,92.57 19,92.83 L18.74,93.57 L18.22,95.06 L17.7,96.55 L17.44,97.29 L17.07,98 L17.22,97.22 L17.48,96.48 L18,95 L18.52,93.51 L18.78,92.77 C18.91,92.52 19,92.28 19.15,92.05 Z" id="Shape" fill="#6D4703" stroke-width="1"/>
            <path d="M19.83,92.29 L17.76,98.24" id="Shape" fill="#FBE462" stroke-width="1"/>
            <path d="M19.83,92.29 C19.83,92.55 19.73,92.81 19.68,93.07 L19.42,93.81 L18.9,95.3 L18.38,96.79 L18.12,97.53 L17.75,98.24 L17.9,97.46 L18.16,96.72 L18.68,95.23 L19.2,93.74 L19.46,93 C19.59,92.76 19.7,92.52 19.83,92.29 Z" id="Shape" fill="#6D4703" stroke-width="1"/>
            <path d="M20.51,92.52 L18.44,98.48" id="Shape" fill="#FBE462" stroke-width="1"/>
            <path d="M20.51,92.52 C20.51,92.78 20.41,93.04 20.36,93.3 L20.1,94.04 L19.58,95.53 L19.07,97 L18.81,97.74 L18.44,98.45 L18.59,97.67 L18.85,96.93 L19.37,95.44 L19.89,93.95 L20.15,93.21 C20.27,93 20.38,92.76 20.51,92.52 Z" id="Shape" fill="#6D4703" stroke-width="1"/>
            <path d="M21.19,92.76 L19.12,98.71" id="Shape" fill="#FBE462" stroke-width="1"/>
            <path d="M21.19,92.76 C21.19,93.02 21.09,93.28 21.04,93.54 L20.78,94.28 L20.26,95.77 L19.74,97.26 L19.48,98 L19.11,98.71 L19.26,97.93 L19.52,97.19 L20.04,95.7 L20.56,94.21 L20.82,93.47 C20.95,93.23 21.06,93 21.19,92.76 Z" id="Shape" fill="#6D4703" stroke-width="1"/>
            <path d="M21.87,92.99 L19.8,98.95" id="Shape" fill="#FBE462" stroke-width="1"/>
            <path d="M21.87,93 C21.87,93.26 21.77,93.52 21.72,93.78 L21.46,94.52 L20.94,96 L20.42,97.49 L20.16,98.23 L19.79,98.94 L19.94,98.16 L20.2,97.42 L20.72,95.93 L21.24,94.44 L21.5,93.7 C21.63,93.47 21.74,93.23 21.87,93 Z" id="Shape" fill="#6D4703" stroke-width="1"/>
            <path d="M11.62,89.42 L9.55,95.37" id="Shape" fill="#FBE462" stroke-width="1"/>
            <path d="M11.62,89.42 C11.62,89.68 11.52,89.94 11.47,90.2 L11.21,90.94 L10.69,92.43 L10.17,93.92 L9.91,94.66 L9.54,95.37 L9.69,94.59 L9.95,93.85 L10.47,92.36 L10.99,90.87 L11.25,90.13 C11.37,89.89 11.49,89.65 11.62,89.42 Z" id="Shape" fill="#6D4703" stroke-width="1"/>
            <path d="M12.3,89.66 L10.23,95.61" id="Shape" fill="#FBE462" stroke-width="1"/>
            <path d="M12.3,89.66 C12.3,89.92 12.2,90.18 12.15,90.44 L11.89,91.18 L11.37,92.67 L10.85,94.16 L10.59,94.9 L10.22,95.61 L10.37,94.83 L10.63,94.09 L11.15,92.6 L11.67,91.11 L11.93,90.37 C12.05,90.13 12.17,89.89 12.3,89.66 Z" id="Shape" fill="#6D4703" stroke-width="1"/>
            <path d="M12.98,89.89 L10.91,95.85" id="Shape" fill="#FBE462" stroke-width="1"/>
            <path d="M13,89.89 C13,90.15 12.9,90.41 12.85,90.67 L12.59,91.41 L12.07,92.9 L11.55,94.39 L11.29,95.13 L10.92,95.84 L11.07,95.06 L11.33,94.32 L11.85,92.83 L12.37,91.34 L12.63,90.6 C12.73,90.36 12.85,90.12 13,89.89 Z" id="Shape" fill="#6D4703" stroke-width="1"/>
            <path d="M13.66,90.13 L11.59,96.08" id="Shape" fill="#FBE462" stroke-width="1"/>
            <path d="M13.66,90.13 C13.66,90.39 13.56,90.65 13.51,90.91 L13.25,91.65 L12.73,93.14 L12.21,94.63 L11.95,95.37 L11.58,96.08 L11.73,95.3 L11.99,94.56 L12.51,93.07 L13.03,91.58 L13.29,90.84 C13.41,90.6 13.53,90.36 13.66,90.13 Z" id="Shape" fill="#6D4703" stroke-width="1"/>
            <path d="M14.34,90.36 L12.27,96.32" id="Shape" fill="#FBE462" stroke-width="1"/>
            <path d="M14.34,90.36 C14.34,90.62 14.24,90.88 14.19,91.14 L13.93,91.88 L13.41,93.37 L12.89,94.86 L12.63,95.6 L12.26,96.31 L12.41,95.53 L12.67,94.79 L13.19,93.3 L13.71,91.81 L13.97,91.07 C14.09,90.84 14.21,90.6 14.34,90.36 Z" id="Shape" fill="#6D4703" stroke-width="1"/>
            <path d="M15.02,90.6 L12.95,96.55" id="Shape" fill="#FBE462" stroke-width="1"/>
            <path d="M15,90.6 C15,90.86 14.9,91.12 14.85,91.38 L14.59,92.12 L14.07,93.61 L13.55,95.1 L13.29,95.84 L12.92,96.55 L13.07,95.77 L13.33,95.03 L13.85,93.54 L14.37,92.05 L14.63,91.31 C14.77,91.07 14.88,90.83 15,90.6 Z" id="Shape" fill="#6D4703" stroke-width="1"/>
            <path d="M15.69,90.84 L13.63,96.79" id="Shape" fill="#FBE462" stroke-width="1"/>
            <path d="M15.69,90.84 C15.69,91.1 15.59,91.36 15.54,91.62 L15.28,92.36 L14.76,93.85 L14.24,95.34 L13.98,96.08 L13.61,96.79 L13.76,96.01 L14.02,95.27 L14.54,93.78 L15.06,92.29 L15.32,91.55 C15.45,91.31 15.56,91.07 15.69,90.84 Z" id="Shape" fill="#6D4703" stroke-width="1"/>
            <path d="M16.37,91.07 L14.31,97.03" id="Shape" fill="#FBE462" stroke-width="1"/>
            <path d="M16.37,91.07 C16.37,91.33 16.27,91.59 16.22,91.85 L15.96,92.59 L15.44,94.08 L14.92,95.57 L14.66,96.31 L14.29,97.02 L14.44,96.24 L14.7,95.5 L15.22,94.01 L15.74,92.52 L16,91.78 C16.13,91.54 16.24,91.3 16.37,91.07 Z" id="Shape" fill="#6D4703" stroke-width="1"/>
            <path d="M28.12,90.54 C27.9704444,88.9199408 26.7301109,87.6134561 25.12,87.38 C24.3432479,87.2808443 23.5643582,87.5469507 23.0106545,88.1006545 C22.4569507,88.6543582 22.1908443,89.4332479 22.29,90.21 C22.29,90.21 24.1,97.32 18.63,102.27 C18.63,102.27 14.63,105.34 19.99,106.27 C19.99,106.27 21.53,107.48 24.62,103.4 C26.9396591,99.5136022 28.1501466,95.065925 28.12,90.54 L28.12,90.54 Z" id="Shape" fill="#C1B985" stroke-width="1"/>
            <path d="M25,87.38 L25.17,87.38 C26.7801109,87.6134561 28.0204444,88.9199408 28.17,90.54 C28.2061909,95.0640338 27.0026559,99.5115795 24.69,103.4 C22.75,105.96 21.42,106.4 20.69,106.4 C20.4641992,106.411074 20.2405418,106.351665 20.05,106.23 C14.74,105.31 18.69,102.23 18.69,102.23 C24.16,97.28 22.35,90.17 22.35,90.17 C22.2545029,89.4297776 22.497454,88.6859091 23.0114561,88.1447522 C23.5254582,87.6035953 24.2558454,87.3227037 25,87.38 L25,87.38 Z M25,87.15 C24.1960518,87.1327847 23.4172502,87.4306674 22.83,87.98 C22.2895751,88.5979777 22.0321485,89.4137662 22.12,90.23 C22.12,90.3 23.83,97.23 18.53,102.07 C18.47,102.07 16.76,103.46 17.08,104.75 C17.29,105.57 18.25,106.14 19.95,106.44 C20.1721776,106.565921 20.4247515,106.628199 20.68,106.62 C21.5,106.62 22.89,106.08 24.85,103.49 C27.1835884,99.5568772 28.4037837,95.06324 28.38,90.49 C28.2167269,88.7655006 26.9021817,87.3726596 25.19,87.11 L25,87.15 Z" id="Shape" fill="#6D4703" stroke-width="1"/>
            <path d="M24.6,92.07 C24.2496472,92.0724197 23.9048058,91.9827609 23.6,91.81 C22.6723265,91.3422054 22.0712995,90.4081254 22.03,89.37 C22.03,89.3092487 22.0792487,89.26 22.14,89.26 L22.14,89.26 C22.170992,89.2598716 22.2006003,89.2728232 22.2215425,89.2956693 C22.2424848,89.3185155 22.2528177,89.3491361 22.25,89.38 C22.2946102,90.3361282 22.8532471,91.1932149 23.71,91.62 C24.2815909,91.9840759 25.0257296,91.9227458 25.53,91.47 C25.7722488,91.1977805 25.9469671,90.8723249 26.04,90.52 C26.1132775,90.1890069 26.0478439,89.8424446 25.8589254,89.5609561 C25.6700069,89.2794675 25.3740782,89.0876 25.04,89.03 C24.87,89.03 24.38,88.93 24.2,89.15 C24.02,89.37 24.1,89.63 24.31,90.08 C24.3278633,90.1157266 24.3253097,90.1582692 24.3033013,90.1916025 C24.2812928,90.2249359 24.243173,90.2439958 24.2033013,90.2416026 C24.1634295,90.2392093 24.1278633,90.2157266 24.11,90.18 C23.86,89.65 23.83,89.25 24.03,89.01 C24.23,88.77 25.03,88.81 25.1,88.82 C25.4852343,88.903681 25.8211644,89.137596 26.0332961,89.4698731 C26.2454279,89.8021503 26.3162293,90.2053281 26.23,90.59 C26.1209879,90.9612375 25.9295615,91.3030702 25.67,91.59 C25.3925688,91.8876234 25.0067692,92.0606924 24.6,92.07 L24.6,92.07 Z" id="Shape" fill="#6D4703" stroke-width="1"/>
            <path d="M21,104.89 C20.734364,104.884738 20.473817,104.816173 20.24,104.69 C20.24,104.69 19.56,104.32 19.58,103.84 C19.58,103.53 19.88,103.26 20.44,103.03 C20.4979899,103.007909 20.5629086,103.03701 20.585,103.095 C20.6070914,103.15299 20.5779899,103.217909 20.52,103.24 C20.06,103.43 19.81,103.64 19.8,103.85 C19.79,104.06 20.18,104.4 20.34,104.49 C20.6327863,104.659626 20.9811586,104.705398 21.3078249,104.61716 C21.6344912,104.528923 21.9124386,104.313973 22.08,104.02 C22.2451946,103.711663 22.3375571,103.36958 22.35,103.02 C22.2812635,102.352799 21.7724249,101.815236 21.11,101.71 C20.179204,101.469781 19.1904724,101.731169 18.5,102.4 C18.4732051,102.430368 18.4322446,102.444133 18.3925481,102.436112 C18.3528515,102.428091 18.3204497,102.399501 18.3075481,102.361112 C18.2946465,102.322723 18.3032051,102.280368 18.33,102.25 C19.0770342,101.521858 20.1486904,101.234064 21.16,101.49 C21.9361932,101.593865 22.537675,102.220235 22.61,103 C22.6015351,103.398374 22.4987223,103.789062 22.31,104.14 C22.0261148,104.593218 21.5345668,104.874639 21,104.89 L21,104.89 Z" id="Shape" fill="#6D4703" stroke-width="1"/>
            <ellipse id="Oval" fill="#FFFFFF" transform="matrix(0.3431679388993882,-0.939274063152787,0.939274063152787,0.3431679388993882,-81.6567196990735,63.735506728812)" cx="4.7427325" cy="90.2525702" rx="1.49" ry="2.2" stroke-width="1"/>
            <path d="M4.21,88.66 C4.55162293,88.6668711 4.8896628,88.7310987 5.21,88.85 C6.35,89.27 7.05,90.23 6.77,91.01 C6.48408232,91.5856941 5.8688193,91.9212922 5.23,91.85 C4.88839677,91.8429403 4.55038804,91.7787186 4.23,91.66 C3.09,91.24 2.39,90.28 2.67,89.5 C2.95591768,88.9243059 3.5711807,88.5887078 4.21,88.66 L4.21,88.66 Z M4.21,88.43 L4.21,88.43 C3.47399828,88.3602188 2.77354324,88.7604788 2.46,89.43 C2.30478403,89.9185788 2.40630092,90.4524825 2.73,90.85 C3.09438158,91.3160516 3.58842195,91.6639674 4.15,91.85 C4.50893916,91.9810049 4.88790333,92.0486771 5.27,92.05 C6.00600172,92.1197812 6.70645676,91.7195212 7.02,91.05 C7.35,90.16 6.59,89.05 5.33,88.6 C4.97106084,88.4689951 4.59209667,88.4013229 4.21,88.4 L4.21,88.43 Z" id="Shape" fill="#6D4703" stroke-width="1"/>
            <ellipse id="Oval" fill="#CB161E" transform="matrix(0.3431679388993882,-0.939274063152787,0.939274063152787,0.3431679388993882,-81.6567196990735,63.735506728812)" cx="4.7427325" cy="90.2525702" rx="1.26" ry="1.86" stroke-width="1"/>
            <ellipse id="Oval" fill="#FFFFFF" transform="matrix(0.9520226269456766,-0.3060276421885007,0.3060276421885007,0.9520226269456766,-27.33711131318536,6.2423044631655955)" cx="5.93997169" cy="90.0771653" rx="1" ry="1" stroke-width="1"/>
            <path d="M99.06,119.26 C99.51,122.75 98.19,123.01 98.19,123.01 C95.86,123.15 96.48,118.65 96.48,118.65 C96.6286582,119.775111 96.6286582,120.914889 96.48,122.04 C96.4267094,122.296955 96.2522371,122.512171 96.0118621,122.617459 C95.7714871,122.722747 95.4949994,122.705059 95.27,122.57 C93.19,121.37 94.19,118.45 94.19,118.45 C94.3,122.32 93.39,121.66 93.39,121.66 C90.77,121.06 91.86,118.29 92.39,117.25 C92.5106746,116.998982 92.7111187,116.795022 92.96,116.67 C98.48,113.97 101.77,117.28 101.77,117.28 C102.77,119.28 102.31,121.67 102.13,122.87 C102.106114,123.049619 102.008336,123.211114 101.860249,123.315535 C101.712162,123.419955 101.527209,123.457821 101.35,123.42 C100.54,123.26 99.34,122.82 99.06,119.26 Z" id="Shape" fill="#FFE5DE" stroke-width="1"/>
            <path d="M101.47,123.87 L101.27,123.87 C100.269835,123.651351 99.4886492,122.870165 99.27,121.87 C99.01,123.25 98.33,123.45 98.22,123.47 C97.7464085,123.52098 97.2763061,123.347005 96.95,123 C96.8129176,122.850784 96.6983743,122.682338 96.61,122.5 C96.5108778,122.742469 96.3205736,122.936363 96.08,123.04 C95.7599582,123.200446 95.3785613,123.177562 95.08,122.98 C94.5943926,122.691361 94.2074492,122.262586 93.97,121.75 C93.9041109,121.875747 93.8034419,121.979887 93.68,122.05 C93.5388696,122.12295 93.3711304,122.12295 93.23,122.05 C92.5461139,121.923542 91.9591457,121.48793 91.64,120.87 C91.06,119.66 91.64,117.99 92.09,117.1 C92.2298136,116.796522 92.46513,116.547157 92.76,116.39 C98.37,113.49 101.76,117.04 101.83,117.08 L101.83,117.13 C102.83,119.13 102.45,121.58 102.25,122.9 L102.25,123.15 C102.214345,123.408174 102.073102,123.639957 101.86,123.79 C101.738415,123.847912 101.604565,123.875368 101.47,123.87 L101.47,123.87 Z M99.36,119.94 C99.73,123.03 100.83,123.28 101.36,123.41 C101.463973,123.434216 101.573339,123.412343 101.66,123.35 C101.771355,123.269691 101.84391,123.146348 101.86,123.01 L101.86,122.75 C102.05,121.49 102.41,119.14 101.5,117.29 C101.18,116.97 98.1,114.08 92.99,116.72 C92.7831422,116.831139 92.6181433,117.00667 92.52,117.22 C92.21,117.88 91.52,119.52 92.07,120.6 C92.3373892,121.105525 92.8257307,121.456982 93.39,121.55 L93.47,121.55 C93.53,121.55 93.65,121.41 93.76,120.96 C93.5984072,120.066716 93.6532731,119.147712 93.92,118.28 C93.9604149,118.184263 94.0600044,118.127518 94.1629692,118.141559 C94.2659341,118.1556 94.3466941,118.236938 94.36,118.34 C94.4074575,119.205504 94.3638852,120.073598 94.23,120.93 C94.3685316,121.578273 94.7658969,122.141809 95.33,122.49 C95.4954847,122.578893 95.6945153,122.578893 95.86,122.49 C96.0423327,122.40739 96.1703425,122.237965 96.2,122.04 C96.2,121.86 96.2233333,121.66 96.27,121.44 C96.0990372,120.448906 96.0754491,119.43799 96.2,118.44 C96.2024775,118.382415 96.2285145,118.32838 96.2720084,118.29056 C96.3155022,118.252739 96.3726293,118.234457 96.43,118.24 C96.5457549,118.244606 96.640018,118.334584 96.65,118.45 C96.7504007,119.423259 96.7771435,120.402712 96.73,121.38 C96.8019136,121.795541 96.9811686,122.185076 97.25,122.51 C97.4701474,122.759578 97.8000295,122.883284 98.13,122.84 C98.13,122.84 99.04,122.55 98.87,119.84 C98.87,119.61 98.82,119.36 98.8,119.1 C98.7937728,118.98005 98.8808933,118.875505 99,118.86 C99.0600029,118.851537 99.1208396,118.868198 99.1681578,118.906053 C99.2154759,118.943907 99.2450851,118.999603 99.25,119.06 C99.3033333,119.42 99.3366667,119.713333 99.35,119.94 L99.36,119.94 Z" id="Shape" fill="#603404" stroke-width="1"/>
            <path d="M15.76,90.66 C14.76,94.24 13.47,94 13.47,94 C11.25,93.27 13.59,89.1 13.59,89.1 C13.2860628,90.2543566 12.8392782,91.3662789 12.26,92.41 C12.123584,92.6402898 11.8810373,92.7870995 11.6137457,92.8011674 C11.346454,92.8152354 11.0898364,92.6946976 10.93,92.48 C9.47,90.48 11.55,88.06 11.55,88.06 C10.13,91.88 9.55,90.9 9.55,90.9 C7.35,89.34 9.46,87.03 10.34,86.21 C10.5478398,86.012767 10.8150181,85.8897244 11.1,85.86 C17.28,85.28 19.03,89.74 19.03,89.74 C19.21,92.03 17.81,94.23 17.17,95.33 C17.0842171,95.4938053 16.9336529,95.614113 16.7549571,95.6616385 C16.5762612,95.709164 16.3858238,95.6795482 16.23,95.58 C15.56,95.12 14.62,94.24 15.76,90.66 Z" id="Shape" fill="#FFE5DE" stroke-width="1"/>
            <path d="M16.48,95.91 C16.3401584,95.8974907 16.2058709,95.8492849 16.09,95.77 C15.2367785,95.1828111 14.8095652,94.1480925 15,93.13 C14.25,94.31 13.54,94.24 13.43,94.22 C12.9711062,94.0926152 12.5999711,93.7548823 12.43,93.31 C12.3587224,93.120548 12.3149446,92.9218643 12.3,92.72 C12.0940168,92.9402936 11.7996133,93.055857 11.4987769,93.0345073 C11.1979405,93.0131577 10.9228079,92.8571755 10.75,92.61 C10.4079346,92.162694 10.2092273,91.6223497 10.18,91.06 C10.0725181,91.1523479 9.94048183,91.2114167 9.8,91.23 C9.64038044,91.2471335 9.48276289,91.1833359 9.38,91.06 C8.80545819,90.6795231 8.43694998,90.0567442 8.38,89.37 C8.29,88.04 9.49,86.71 10.21,86.04 C10.4541138,85.810077 10.7666061,85.6661198 11.1,85.63 C17.38,85.04 19.24,89.63 19.26,89.63 C19.2625098,89.6499213 19.2625098,89.6700787 19.26,89.69 C19.44,91.9 18.18,94.04 17.5,95.19 L17.37,95.41 C17.2388412,95.63897 17.0174818,95.8022679 16.76,95.86 C16.6701375,95.8922749 16.5754792,95.9091782 16.48,95.91 Z M15.77,91.42 C14.96,94.42 15.89,95.07 16.35,95.42 C16.4366613,95.4823429 16.5460269,95.504216 16.65,95.48 C16.7822291,95.4466251 16.8945673,95.3596536 16.96,95.24 L17.09,95.01 C17.74,93.91 18.94,91.87 18.79,89.81 C18.62,89.4 16.84,85.56 11.1,86.1 C10.8638287,86.1247765 10.6424069,86.2267008 10.47,86.39 C9.94,86.89 8.71,88.17 8.79,89.39 C8.85057951,89.957319 9.17229175,90.4639233 9.66,90.76 L9.72,90.83 C9.78,90.83 9.94,90.77 10.21,90.39 C10.3929864,89.4995213 10.7874056,88.6660963 11.36,87.96 C11.4319613,87.8755814 11.553924,87.8545534 11.65,87.91 C11.7425105,87.9654257 11.7840883,88.0776858 11.75,88.18 C11.4697788,88.9992683 11.1044492,89.7869055 10.66,90.53 C10.54644,91.1840737 10.7054213,91.8561312 11.1,92.39 C11.212184,92.5412492 11.3918303,92.6273297 11.58,92.62 C11.7786513,92.6104133 11.9591045,92.5013894 12.06,92.33 C12.1658084,92.1584913 12.2626064,91.9815847 12.35,91.8 C12.5473095,90.8330774 12.8841668,89.8999826 13.35,89.03 C13.4141481,88.944696 13.5285529,88.9147312 13.6262816,88.9576364 C13.7240102,89.0005417 13.7793814,89.1050423 13.76,89.21 C13.4963365,90.1505227 13.1620534,91.0698009 12.76,91.96 C12.6718369,92.3715189 12.6925174,92.7989156 12.82,93.2 C12.9317227,93.5111451 13.1900023,93.7469656 13.51,93.83 C13.51,93.83 14.51,93.9 15.3,91.35 C15.36,91.1233333 15.43,90.8866667 15.51,90.64 C15.5627465,90.5458107 15.6739019,90.5009805 15.7772355,90.5322209 C15.8805692,90.5634613 15.9482703,90.6623644 15.94,90.77 C15.9,90.99 15.8433333,91.21 15.77,91.43 L15.77,91.42 Z" id="Shape" fill="#603404" stroke-width="1"/>
            <path d="M86.67,15 L43.54,14.26 C43.3462679,13.5841995 42.796951,13.069455 42.11,12.92 C40.6407995,12.9191086 39.3797546,13.9657759 39.11,15.41 C39.0376524,16.884084 40.0178319,18.2035563 41.45,18.56 C42.3572002,18.6015319 43.1785051,18.0266185 43.45,17.16 L86.67,15 Z" id="Shape" fill="#EEC743" stroke-width="1"/>
            <path d="M41.9,12.9 L42.11,12.9 C42.796951,13.049455 43.3462679,13.5641995 43.54,14.24 L86.67,15 L43.41,17.15 C43.1339613,17.9249967 42.4380908,18.4731404 41.62,18.56 L41.43,18.56 C39.9978319,18.2035563 39.0176524,16.884084 39.09,15.41 C39.3524246,14.0347978 40.5040132,13.0061545 41.9,12.9 L41.9,12.9 Z M41.9,12.45 C40.2730103,12.5453989 38.9242698,13.7451987 38.64,15.35 C38.5363717,17.0668425 39.685192,18.608458 41.36,19 L41.61,19 C42.5114631,18.9361116 43.3075432,18.3888066 43.69,17.57 L86.69,15.42 L86.69,14.52 L43.83,13.8 C43.5381992,13.0978249 42.9087186,12.5927328 42.16,12.46 L41.89,12.46 L41.9,12.45 Z" id="Shape" fill="#603404" stroke-width="1"/>
            <polygon id="Shape" fill="#E59515" points="61.46 0.63 51.76 9 52.34 21.04 71.69 21.76 71.26 9" stroke-width="1"/>
            <path d="M71.69,22 L71.69,22 L52.34,21.28 C52.220667,21.2749152 52.1250848,21.179333 52.12,21.06 L51.54,9.06 C51.5383247,8.99103911 51.5676899,8.92496742 51.62,8.88 L61.32,0.51 C61.4044893,0.441380948 61.5255107,0.441380948 61.61,0.51 L71.41,8.88 C71.4571642,8.92035333 71.4860159,8.97805663 71.49,9.04 L71.92,21.8 C71.9213139,21.8639338 71.8959514,21.9255284 71.85,21.97 C71.8021072,21.9991707 71.7452072,22.0098395 71.69,22 Z M52.56,20.82 L71.46,21.52 L71,9.11 L61.43,0.93 L52,9.1 L52.56,20.82 Z" id="Shape" fill="#603404" stroke-width="1"/>
            <ellipse id="Oval" fill="#603404" cx="61.41" cy="9.93" rx="2.3" ry="3.46" stroke-width="1"/>
            <ellipse id="Oval" fill="#FFFFFF" cx="61.41" cy="9.93" rx="2" ry="3.01" stroke-width="1"/>
            <ellipse id="Oval" fill="#CB161E" cx="61.41" cy="9.93" rx="1.66" ry="2.5" stroke-width="1"/>
            <path d="M60.69,8.82 C60.7668121,8.95304246 60.7668121,9.11695754 60.69,9.25 C60.6,9.32 60.48,9.25 60.42,9.09 C60.3431879,8.95695754 60.3431879,8.79304246 60.42,8.66 C60.51,8.58 60.63,8.65 60.69,8.82 Z" id="Shape" fill="#FFFFFF" stroke-width="1"/>
            <path d="M46.51,10 L50.44,22.1 L59.3,18.67 C59.3,18.67 57.12,0.73 46.51,10 Z" id="Shape" fill="#EEC743" stroke-width="1"/>
            <path d="M46.51,10 L47.63,13 C47.99,14 48.4,15 48.7,16 L50.7,22 L50.4,21.86 L59.26,18.43 L59.12,18.67 C58.8823358,16.969453 58.4838842,15.2952867 57.93,13.67 C57.4204932,12.0454101 56.602192,10.534439 55.52,9.22 C54.9785607,8.588855 54.2923399,8.0982071 53.52,7.79 C52.7107073,7.50156493 51.8346768,7.45637288 51,7.66 C49.3368472,8.06734573 47.7965732,8.87007205 46.51,10 L46.51,10 Z M46.51,10 C47.7420167,8.74018139 49.2625808,7.79969705 50.94,7.26 C51.8292593,7.04442365 52.7627064,7.10015183 53.62,7.42 C54.464814,7.75157455 55.2163837,8.28350741 55.81,8.97 C56.936817,10.3299563 57.7892179,11.8955214 58.32,13.58 C58.8837701,15.2344747 59.2889272,16.9388133 59.53,18.67 L59.53,18.84 L59.36,18.9 L50.5,22.33 L50.28,22.42 L50.21,22.19 L48.21,16.07 C47.86,15.07 47.61,14.07 47.32,13.02 L46.51,10 Z" id="Shape" fill="#603404" stroke-width="1"/>
            <polygon id="Shape" fill="#E59515" points="48.03 10.65 48.6 11.96 49.05 13.31 49.96 16.01 50.87 18.7 51.32 20.05 51.67 21.44 51.1 20.12 50.65 18.77 49.74 16.08 48.84 13.38 48.38 12.03" stroke-width="1"/>
            <polygon id="Shape" fill="#E59515" points="53.34 20.63 52.78 19.3 52.32 17.92 51.42 15.18 50.51 12.43 50.06 11.06 49.71 9.65 50.27 10.99 50.72 12.36 51.63 15.11 52.54 17.85 52.99 19.23" stroke-width="1"/>
            <polygon id="Shape" fill="#E59515" points="54.93 20.02 54.39 18.71 53.97 17.37 53.12 14.69 52.26 12 51.84 10.66 51.52 9.28 52.05 10.59 52.48 11.93 53.33 14.62 54.18 17.3 54.61 18.65" stroke-width="1"/>
            <polygon id="Shape" fill="#E59515" points="56.83 19.24 56.33 18.08 55.94 16.88 55.16 14.48 54.37 12.08 53.98 10.88 53.7 9.65 54.19 10.81 54.59 12.01 55.37 14.41 56.15 16.81 56.55 18.01" stroke-width="1"/>
            <path d="M58.05,19.1 C57.16,13.38 55.47,10.1 53.05,9.32 C50.16,8.41 47.15,11.48 47.12,11.52 L46.79,11.21 C46.92,11.07 50.03,7.9 53.18,8.9 C55.78,9.72 57.57,13.13 58.49,19.04 L58.05,19.1 Z" id="Shape" fill="#603404" stroke-width="1"/>
            <ellipse id="Oval" fill="#FFFFFF" cx="51.76" cy="16.63" rx="1" ry="1.32" stroke-width="1"/>
            <ellipse id="Oval" fill="#FFFFFF" cx="54.05" cy="15.78" rx="1" ry="1.32" stroke-width="1"/>
            <ellipse id="Oval" fill="#048534" cx="51.76" cy="16.64" rx="1" ry="1.08" stroke-width="1"/>
            <ellipse id="Oval" fill="#FFFFFF" cx="51.74" cy="16.21" rx="1" ry="1" stroke-width="1"/>
            <ellipse id="Oval" fill="#FFFFFF" cx="51.99" cy="16.19" rx="1" ry="1" stroke-width="1"/>
            <ellipse id="Oval" fill="#048534" cx="54.05" cy="15.78" rx="1" ry="1.08" stroke-width="1"/>
            <ellipse id="Oval" fill="#FFFFFF" cx="54.04" cy="15.34" rx="1" ry="1" stroke-width="1"/>
            <ellipse id="Oval" fill="#FFFFFF" cx="54.29" cy="15.32" rx="1" ry="1" stroke-width="1"/>
            <path d="M76.6,10 L72.68,22.1 L63.82,18.67 C63.82,18.67 66,0.73 76.6,10 Z" id="Shape" fill="#EEC743" stroke-width="1"/>
            <path d="M76.6,10 L75.75,13 C75.46,14 75.21,15 74.86,16.05 L72.86,22.17 L72.79,22.4 L72.57,22.31 L63.71,18.88 L63.54,18.82 L63.54,18.65 C63.7810728,16.9188133 64.1862299,15.2144747 64.75,13.56 C65.2805479,11.8754219 66.1329723,10.3098136 67.26,8.95 C67.8536163,8.26350741 68.605186,7.73157455 69.45,7.4 C70.3072936,7.08015183 71.2407407,7.02442365 72.13,7.24 C73.8237647,7.77956978 75.3588426,8.72740313 76.6,10 L76.6,10 Z M76.6,10 C75.3027822,8.87301635 73.7519045,8.07699065 72.08,7.68 C71.2720145,7.50044798 70.4297687,7.55243846 69.65,7.83 C68.8776601,8.1382071 68.1914393,8.628855 67.65,9.26 C66.567808,10.574439 65.7495068,12.0854101 65.24,13.71 C64.6861158,15.3352867 64.2876642,17.009453 64.05,18.71 L63.91,18.47 L72.77,21.9 L72.47,22.04 L74.47,16.04 C74.77,15.04 75.18,14.04 75.54,13.04 L76.6,10 Z" id="Shape" fill="#603404" stroke-width="1"/>
            <polygon id="Shape" fill="#E59515" points="74.9 10.65 74.54 12.01 74.08 13.33 73.15 15.98 72.23 18.63 71.77 19.95 71.2 21.24 71.55 19.88 72.02 18.55 72.94 15.91 73.87 13.26 74.33 11.93" stroke-width="1"/>
            <polygon id="Shape" fill="#E59515" points="69.42 20.63 69.78 19.22 70.24 17.83 71.17 15.07 72.11 12.3 72.57 10.92 73.14 9.57 72.79 10.99 72.32 12.38 71.39 15.14 70.46 17.91 69.99 19.29" stroke-width="1"/>
            <polygon id="Shape" fill="#E59515" points="67.59 19.82 67.94 18.46 68.4 17.13 69.31 14.48 70.22 11.82 70.68 10.49 71.24 9.2 70.89 10.56 70.44 11.89 69.52 14.55 68.61 17.2 68.16 18.53" stroke-width="1"/>
            <polygon id="Shape" fill="#E59515" points="65.91 19.24 66.22 18 66.64 16.81 67.48 14.41 68.33 12.01 68.75 10.81 69.27 9.65 68.96 10.89 68.54 12.09 67.7 14.48 66.86 16.88 66.44 18.08" stroke-width="1"/>
            <path d="M65.06,19.1 L64.62,19 C65.54,13.09 67.33,9.68 69.93,8.86 C73.09,7.86 76.19,11.04 76.32,11.17 L75.99,11.48 C75.99,11.48 72.99,8.37 70.06,9.28 C67.64,10.09 66,13.38 65.06,19.1 Z" id="Shape" fill="#603404" stroke-width="1"/>
            <ellipse id="Oval" fill="#FFFFFF" cx="71.48" cy="16.63" rx="1" ry="1.32" stroke-width="1"/>
            <ellipse id="Oval" fill="#FFFFFF" cx="69.18" cy="15.78" rx="1" ry="1.32" stroke-width="1"/>
            <ellipse id="Oval" fill="#048534" cx="71.48" cy="16.64" rx="1" ry="1.08" stroke-width="1"/>
            <ellipse id="Oval" fill="#FFFFFF" cx="71.49" cy="16.21" rx="1" ry="1" stroke-width="1"/>
            <ellipse id="Oval" fill="#FFFFFF" cx="71.24" cy="16.19" rx="1" ry="1" stroke-width="1"/>
            <ellipse id="Oval" fill="#048534" cx="69.18" cy="15.78" rx="1" ry="1.08" stroke-width="1"/>
            <ellipse id="Oval" fill="#FFFFFF" cx="69.2" cy="15.34" rx="1" ry="1" stroke-width="1"/>
            <ellipse id="Oval" fill="#FFFFFF" cx="68.95" cy="15.32" rx="1" ry="1" stroke-width="1"/>
            <path d="M42.06,53.6 C42.06,53.6 33.52,44.75 38.69,28.68 C38.69,28.68 42.77,18.26 59.85,17.86 C59.85,17.86 76.85,16.6 82.85,30.03 C84.1318705,33.0382541 84.6802784,36.308136 84.45,39.57 C84.21,43.89 82.8,51.69 78.57,54.88 L42.06,53.6 Z" id="Shape" fill="#161616" stroke-width="1"/>
            <path d="M38.57,33.07 C38.57,33.07 39.03,26.49 44.57,22.84 C44.57,22.84 54.24,16.61 65.98,18.76 C65.98,18.76 57.04,17.23 46.57,23.27 C42.9350217,25.6095238 40.1344378,29.0402391 38.57,33.07 Z" id="Shape" fill="#332723" stroke-width="1"/>
            <path d="M42.43,48.25 C41.5235167,47.4896417 40.3612806,47.1034217 39.18,47.17 C39.18,47.17 35.94,48.47 37.79,54.68 C37.79,54.68 39.18,59.83 43.59,61.75 L42.43,48.25 Z" id="Shape" fill="#FFE5DE" stroke-width="1"/>
            <path d="M43.84,62.11 L43.49,62 C39,60 37.63,55 37.57,54.74 C35.69,48.42 39,47 39.09,47 C40.3520669,46.9018728 41.6020785,47.3041754 42.57,48.12 L42.64,48.18 L43.84,62.11 Z M39.63,47.36 C39.4935638,47.3487744 39.3564362,47.3487744 39.22,47.36 C39.14,47.36 36.22,48.67 38.01,54.58 C38.01,54.63 39.35,59.37 43.33,61.34 L42.21,48.34 C41.4680612,47.7614186 40.5689578,47.4198987 39.63,47.36 L39.63,47.36 Z" id="Shape" fill="#603404" stroke-width="1"/>
            <path d="M40.73,56.56 C40.5419399,56.5626946 40.3562294,56.5179865 40.19,56.43 C39.8391095,56.2111796 39.6099662,55.8415935 39.57,55.43 C39.4902832,54.8920695 39.8120211,54.3755955 40.33,54.21 C40.7077551,54.1320402 41.1008166,54.2193872 41.41,54.45 C41.1126436,53.2932534 40.5278863,52.230371 39.71,51.36 C39.6361757,51.3051381 39.6021349,51.2115693 39.6234491,51.1220954 C39.6447633,51.0326216 39.7173337,50.9644494 39.8079638,50.9487634 C39.8985939,50.9330774 39.9898546,50.9728942 40.04,51.05 C40.17,51.18 43.13,54.35 41.3,56.4 C41.2751963,56.4268703 41.2443432,56.447439 41.21,56.46 C41.056893,56.5205277 40.8945401,56.5543513 40.73,56.56 L40.73,56.56 Z M40.61,54.64 L40.44,54.64 C40.1445402,54.7424209 39.963886,55.0407105 40.01,55.35 C40.0364682,55.6166962 40.1791536,55.8581637 40.4,56.01 C40.5961497,56.0864377 40.8138503,56.0864377 41.01,56.01 C41.2206446,55.758353 41.358909,55.4541714 41.41,55.13 C41.3649128,55.1060474 41.3295599,55.0671593 41.31,55.02 C41.1734779,54.7659352 40.8968265,54.6197052 40.61,54.65 L40.61,54.64 Z" id="Shape" fill="#603404" stroke-width="1"/>
            <path d="M79.11,48.25 C80.0164833,47.4896417 81.1787194,47.1034217 82.36,47.17 C82.36,47.17 85.6,48.47 83.75,54.68 C83.75,54.68 82.36,59.83 77.95,61.75 L79.11,48.25 Z" id="Shape" fill="#FFE5DE" stroke-width="1"/>
            <path d="M77.7,62.11 L78.9,48.11 L78.97,48.05 C79.9247277,47.2449189 81.1536987,46.8400392 82.4,46.92 C82.59,46.99 85.85,48.39 83.97,54.72 C83.91,55 82.5,60 78,62 L77.7,62.11 Z M79.33,48.37 L78.21,61.37 C82.21,59.37 83.52,54.66 83.53,54.61 C85.29,48.7 82.39,47.42 82.27,47.37 C81.1993672,47.3235148 80.1502493,47.6803576 79.33,48.37 L79.33,48.37 Z" id="Shape" fill="#603404" stroke-width="1"/>
            <path d="M80.81,56.56 C80.6426782,56.5586967 80.4768638,56.528241 80.32,56.47 C80.2856568,56.457439 80.2548037,56.4368703 80.23,56.41 C78.4,54.36 81.37,51.19 81.49,51.06 C81.5401454,50.9828942 81.6314061,50.9430774 81.7220362,50.9587634 C81.8126663,50.9744494 81.8852367,51.0426216 81.9065509,51.1320954 C81.9278651,51.2215693 81.8938243,51.3151381 81.82,51.37 C81.0021137,52.240371 80.4173564,53.3032534 80.12,54.46 C80.4214541,54.2291903 80.8071797,54.1382173 81.18,54.21 C81.7220247,54.3514891 82.0736768,54.8746788 82,55.43 C81.958556,55.8410926 81.7297846,56.2100786 81.38,56.43 C81.2048602,56.5230334 81.0081586,56.5678952 80.81,56.56 Z M80.53,56.07 C80.7261497,56.1464377 80.9438503,56.1464377 81.14,56.07 C81.3623437,55.9150157 81.5050363,55.6698771 81.53,55.4 C81.5685946,55.0886425 81.3792796,54.7941526 81.08,54.7 L81.08,54.7 C80.7343296,54.6319765 80.3859704,54.8041069 80.23,55.12 C80.2104401,55.1671593 80.1750872,55.2060474 80.13,55.23 C80.1878635,55.5400703 80.3257522,55.8296365 80.53,56.07 Z" id="Shape" fill="#603404" stroke-width="1"/>
            <circle id="Oval" fill="#FFFFFF" cx="60.77" cy="49.87" r="1" stroke-width="1"/>
            <circle id="Oval" fill="#FFFFFF" cx="60.77" cy="51.55" r="1" stroke-width="1"/>
            <circle id="Oval" fill="#FFFFFF" cx="60.77" cy="49.87" r="1" stroke-width="1"/>
            <circle id="Oval" fill="#FFFFFF" cx="60.77" cy="51.55" r="1" stroke-width="1"/>
            <path d="M45.36,35.66 C45.36,35.66 48.84,29 58.78,32.19 C58.78,32.19 61.64,33.77 66.2,31.87 C69.844317,31.1628099 73.5666949,32.643168 75.73,35.66 C75.73,35.66 79.95,42.57 79.46,49.21 C79.3968057,50.2090016 79.3968057,51.2109984 79.46,52.21 L79.46,58.41 C79.46,58.41 79,72.1 64.55,73.52 C64.55,73.52 49.74,75.77 43.84,62.52 C42.7192378,59.9291822 42.12113,57.1425437 42.08,54.32 C42,49.53 42.2,40.47 45.36,35.66 Z" id="Shape" fill="#FFE5DE" stroke-width="1"/>
            <path d="M71.47,39.52 L65.29,43.17 C65.04,43.31 64.78,43.44 64.53,43.57 C64.28,43.7 63.73,44.04 63.93,44.39 C63.93,44.39 64.27,45.47 65.78,44.66 L71.08,42.21 C71.8043843,41.7950256 72.6089513,41.5393369 73.44,41.46 C73.7341792,41.4446463 74.0258552,41.3977099 74.31,41.32 L76.31,40.74 C76.44,40.74 76.49,40.56 76.4,40.49 C75.3059929,39.7348469 74.0267756,39.2923068 72.7,39.21 C72.2698954,39.2035645 71.8456771,39.3104813 71.47,39.52 L71.47,39.52 Z" id="Shape" fill="#161616" stroke-width="1"/>
            <path d="M50.07,39.52 L56.25,43.17 C56.5,43.31 56.76,43.44 57.01,43.57 C57.26,43.7 57.81,44.04 57.61,44.39 C57.61,44.39 57.27,45.47 55.76,44.66 L50.46,42.21 C49.7356157,41.7950256 48.9310487,41.5393369 48.1,41.46 C47.8058208,41.4446463 47.5141448,41.3977099 47.23,41.32 L45.23,40.74 C45.1,40.74 45.05,40.56 45.14,40.49 C46.2340071,39.7348469 47.5132244,39.2923068 48.84,39.21 C49.2701046,39.2035645 49.6943229,39.3104813 50.07,39.52 L50.07,39.52 Z" id="Shape" fill="#161616" stroke-width="1"/>
            <path d="M62.6,58.95 C62.4018449,58.9496418 62.2272446,58.8197067 62.17,58.63 C61.9973461,58.1082452 61.5514991,57.7238944 61.01,57.63 L61.01,57.63 C60.3214495,57.6198189 59.6894964,58.0099134 59.39,58.63 C59.3310512,58.7800516 59.1965287,58.8872561 59.0371058,58.9112307 C58.8776829,58.9352053 58.7175798,58.8723077 58.6171058,58.7462307 C58.5166317,58.6201537 58.4910512,58.4500516 58.55,58.3 C58.9971874,57.287332 60.0134899,56.6467055 61.12,56.68 C62.0519592,56.7915906 62.8333395,57.4362293 63.12,58.33 C63.1913354,58.5674363 63.0571883,58.8178442 62.82,58.89 L62.6,58.95 Z" id="Shape" fill="#161616" stroke-width="1"/>
            <path d="M56.5,65.87 C57.1871887,66.2204804 57.9214564,66.4697273 58.68,66.61 C59.3907981,66.7567853 60.1142303,66.8338174 60.84,66.84 C61.5633825,66.852998 62.2864276,66.7994391 63,66.68 C63.3646726,66.6227054 63.7253836,66.5425474 64.08,66.44 C64.4431009,66.3593792 64.7718255,66.1670404 65.02,65.89 L65.02,65.89 C64.8889192,66.2910796 64.6100199,66.627189 64.24,66.83 C63.8912349,67.042856 63.5186847,67.2140278 63.13,67.34 C62.3569316,67.6012626 61.5460169,67.7330362 60.73,67.73 C59.912878,67.7145803 59.1044689,67.5589869 58.34,67.27 C57.5646121,67.001874 56.8743954,66.5325267 56.34,65.91 L56.41,65.91 L56.5,65.87 Z" id="Shape" fill="#161616" stroke-width="1"/>
            <path d="M53.37,65.31 L52.06,63.14 C54.5159172,61.2092205 57.5561127,60.1723092 60.68,60.2 C60.68,60.2 66.22,60.28 69.47,63.02 L68.16,65.52 C68.16,65.52 61.77,57.94 53.37,65.31 Z" id="Shape" fill="#161616" stroke-width="1"/>
            <path d="M42.16,46.78 C42.16,46.78 44.25,65.88 50.83,69.57 C52.96,70.77 55.16,71.92 57.59,71.71 C58.2929087,71.6928638 58.980396,71.5003673 59.59,71.15 C59.7486586,71.0792674 59.8994799,70.9921262 60.04,70.89 C60.6427839,70.4772602 61.4372161,70.4772602 62.04,70.89 C62.1819752,70.987023 62.3326162,71.0707125 62.49,71.14 C62.49,71.14 65.49,72.23 67.04,71.14 C67.04,71.14 77.68,70.25 79.6,46.49 C79.6,46.49 84.86,65.83 70.18,77.56 C69.07,78.45 67.58,80.18 66.47,81.08 C64.37,82.78 61.86,83.74 61.79,85.21 C61.79,85.21 57.21,80.88 53.15,77.67 C53.14,77.71 38.68,67.46 42.16,46.78 Z" id="Shape" fill="#161616" stroke-width="1"/>
            <path d="M64.58,51.7 C64.58,51.7 65.16,48.36 69.47,48.05 C69.47,48.05 71.98,47.84 73.6,47.89 C74.7688183,48.0198176 75.9095479,47.472733 76.54,46.48 C76.54,46.48 74.78,50.81 71.11,51.36 C71.11,51.36 65.36,52.11 64.58,51.7 Z" id="Shape" fill="#FFFFFF" stroke-width="1"/>
            <path d="M64.56,51.71 C64.757493,50.8224262 65.2215568,50.0164207 65.89,49.4 C66.5583196,48.7849806 67.3750201,48.3542314 68.26,48.15 C69.1392499,47.9674115 70.0325048,47.8603547 70.93,47.83 C71.82,47.77 72.71,47.73 73.61,47.74 L73.61,47.74 C74.1603172,47.7755579 74.7113903,47.6831419 75.22,47.47 C75.7156276,47.2571941 76.1220715,46.8790246 76.37,46.4 L76.37,46.4 C76.4198535,46.3230691 76.5195604,46.2958948 76.6015542,46.3368916 C76.683548,46.3778885 76.7216326,46.4739587 76.69,46.56 C76.227605,47.6701363 75.5668148,48.6867366 74.74,49.56 C73.9131229,50.4739682 72.8402829,51.1301713 71.65,51.45 C71.0621968,51.5646595 70.467642,51.641484 69.87,51.68 C69.28,51.73 68.69,51.79 68.1,51.82 C67.51,51.85 66.92,51.88 66.32,51.89 C65.7274059,51.9282768 65.1325774,51.8674421 64.56,51.71 Z M64.56,51.71 C65.1337285,51.7923248 65.7162715,51.7923248 66.29,51.71 C66.88,51.71 67.46,51.61 68.05,51.54 C69.21,51.38 70.42,51.3 71.52,51.04 C72.6208557,50.7253969 73.6116028,50.108778 74.38,49.26 C75.1928708,48.4252315 75.8679523,47.4666157 76.38,46.42 L76.71,46.57 L76.71,46.57 C76.5626729,46.8408968 76.369864,47.0844449 76.14,47.29 C75.9089996,47.4929373 75.6452618,47.6552375 75.36,47.77 C74.7984046,47.9937192 74.1922089,48.0827649 73.59,48.03 L73.59,48.03 C72.71,48.03 71.82,48.03 70.93,48.03 C70.0446991,48.0420213 69.1618207,48.1256273 68.29,48.28 C67.4361097,48.4762426 66.6473322,48.8895758 66,49.48 C65.3261434,50.0629503 64.8391655,50.8316797 64.6,51.69 L64.56,51.71 Z" id="Shape" fill="#161616" stroke-width="1"/>
            <path d="M69.92,48.1 C70.2904278,48.1052433 70.6434365,48.2581416 70.9006589,48.5247516 C71.1578813,48.7913617 71.2980328,49.1496222 71.29,49.52 C71.2719027,49.8595314 71.2114339,50.1954691 71.11,50.52 C70.9487144,51.0538123 70.4671714,51.4270081 69.91,51.45 L67.51,51.69 C67.0124576,51.3751908 66.6991265,50.8380518 66.67,50.25 C66.5995021,49.6589014 66.8193268,49.0702183 67.26,48.67 C68.0556546,48.1820531 68.9942686,47.9809215 69.92,48.1 L69.92,48.1 Z" id="Shape" fill="#161616" stroke-width="1"/>
            <ellipse id="Oval" fill="#FFFFFF" cx="68.2" cy="49.17" rx="1" ry="1" stroke-width="1"/>
            <path d="M57,51.7 C57,51.7 56.42,48.36 52.11,48.05 C52.11,48.05 49.6,47.84 47.98,47.89 C46.7975642,48.0359201 45.6370197,47.4868034 45,46.48 C45,46.48 46.76,50.81 50.43,51.36 C50.43,51.36 56.18,52.11 57,51.7 Z" id="Shape" fill="#FFFFFF" stroke-width="1"/>
            <path d="M56.94,51.69 C56.7118742,50.8364744 56.2391421,50.0682848 55.58,49.48 C54.9130743,48.9000052 54.1066158,48.5036687 53.24,48.33 C52.3681793,48.1756273 51.4853009,48.0920213 50.6,48.08 C49.71,48.08 48.82,48.01 47.94,48.08 L47.94,48.08 C47.3377911,48.1327649 46.7315954,48.0437192 46.17,47.82 C45.8847382,47.7052375 45.6210004,47.5429373 45.39,47.34 C45.160136,47.1344449 44.9673271,46.8908968 44.82,46.62 L44.82,46.62 L45.15,46.47 C45.6620477,47.5166157 46.3371292,48.4752315 47.15,49.31 C47.9268554,50.1242685 48.9128778,50.7089625 50,51 C51.1,51.26 52.32,51.34 53.47,51.5 C54.05,51.57 54.64,51.63 55.23,51.67 C55.7962222,51.7570619 56.3718965,51.763795 56.94,51.69 L56.94,51.69 Z M56.94,51.69 C56.3621596,51.8564121 55.760362,51.9240298 55.16,51.89 C54.57,51.89 53.97,51.89 53.38,51.82 C52.79,51.75 52.2,51.73 51.61,51.68 C51.012358,51.641484 50.4178032,51.5646595 49.83,51.45 C48.6397171,51.1301713 47.5668771,50.4739682 46.74,49.56 C45.9167559,48.6859214 45.2593876,47.6693725 44.8,46.56 C44.7683674,46.4739587 44.806452,46.3778885 44.8884458,46.3368916 C44.9704396,46.2958948 45.0701465,46.3230691 45.12,46.4 L45.12,46.4 C45.3679285,46.8790246 45.7743724,47.2571941 46.27,47.47 C46.7786097,47.6831419 47.3296828,47.7755579 47.88,47.74 L47.88,47.74 C48.78,47.74 49.67,47.74 50.56,47.83 C51.4574952,47.8603547 52.3507501,47.9674115 53.23,48.15 C54.1149799,48.3542314 54.9316804,48.7849806 55.6,49.4 C56.2942226,50.0067773 56.7833266,50.8137989 57,51.71 L56.94,51.69 Z" id="Shape" fill="#161616" stroke-width="1"/>
            <path d="M51.62,48.1 C51.2495722,48.1052433 50.8965635,48.2581416 50.6393411,48.5247516 C50.3821187,48.7913617 50.2419672,49.1496222 50.25,49.52 C50.2680973,49.8595314 50.3285661,50.1954691 50.43,50.52 C50.5912856,51.0538123 51.0728286,51.4270081 51.63,51.45 L54.03,51.69 C54.5275424,51.3751908 54.8408735,50.8380518 54.87,50.25 C54.9404979,49.6589014 54.7206732,49.0702183 54.28,48.67 C53.4843454,48.1820531 52.5457314,47.9809215 51.62,48.1 L51.62,48.1 Z" id="Shape" fill="#161616" stroke-width="1"/>
            <ellipse id="Oval" fill="#FFFFFF" cx="53.33" cy="49.17" rx="1" ry="1" stroke-width="1"/>
        </g>
    </g>
</svg>