<?xml version="1.0" encoding="UTF-8"?><svg xmlns="http://www.w3.org/2000/svg" xmlns:xlink="http://www.w3.org/1999/xlink" width="99.68013000488281" height="68.3360595703125" viewBox="0.13987219333648682 0.3799999952316284 99.68013000488281 68.3360595703125" version="1.1">
    <!-- Generator: Sketch 46.2 (44496) - http://www.bohemiancoding.com/sketch -->
    <title>fireworks 3-a</title>
    <desc>Created with Sketch.</desc>
    <defs/>
    <g id="Page-1" stroke="none" fill-rule="evenodd">
        <g id="fireworks-3-a" fill-rule="nonzero">
            <rect id="Rectangle-path" fill="#875650" transform="matrix(0.6939046988302457,-0.7200668503280137,0.7200668503280137,0.6939046988302457,-33.12193595020065,27.41974565604597)" x="-4.62949254" y="51.3483406" width="40.64" height="2.64" stroke-width="1"/>
            <rect id="Rectangle-path" fill="#00C1D2" transform="matrix(0.6939046988302457,-0.7200668503280137,0.7200668503280137,0.6939046988302457,-26.743621240086533,25.589187379678144)" x="8.81153694" y="43.0958024" width="15.83" height="2.31" stroke-width="1"/>
            <rect id="Rectangle-path" fill="#C0C810" transform="matrix(0.6939046988302457,-0.7200668503280137,0.7200668503280137,0.6939046988302457,-10.305861430382173,33.73158933704576)" x="13.1876198" y="21.2126877" width="42.67" height="15.55" stroke-width="1"/>
            <polygon id="Shape" fill="#F23F39" points="54.28 19.69 54.41 18.51 50.28 14.53 49.2 24.97" stroke-width="1"/>
            <polygon id="Shape" fill="#F23F39" points="45.22 29.09 47.06 11.43 43.74 8.23 42.74 9.26 40.13 34.37" stroke-width="1"/>
            <polygon id="Shape" fill="#F23F39" points="35.73 38.94 38.34 13.83 33.25 19.11 30.64 44.22" stroke-width="1"/>
            <polygon id="Shape" fill="#F23F39" points="25.32 49.74 26.23 48.79 28.84 23.68 23.76 28.96 21.93 46.48" stroke-width="1"/>
            <polygon id="Shape" fill="#F23F39" points="17.49 42.2 18.28 34.65 14.12 38.96" stroke-width="1"/>
            <polygon id="Shape" fill="#C0C810" points="41.7 6.61 61.62 0.88 56.62 20.99" stroke-width="1"/>
            <rect id="Rectangle-path" fill="#875650" transform="matrix(0.6939046988302457,-0.7200668503280137,0.7200668503280137,0.6939046988302457,-21.577276064233374,54.570273250575724)" x="33.0776537" y="51.3446197" width="40.64" height="2.64" stroke-width="1"/>
            <rect id="Rectangle-path" fill="#0D7B99" transform="matrix(0.6939046988302457,-0.7200668503280137,0.7200668503280137,0.6939046988302457,-15.198961660214565,52.73971425414105)" x="46.5186831" y="43.0920815" width="15.83" height="2.31" stroke-width="1"/>
            <rect id="Rectangle-path" fill="#FFAC27" transform="matrix(0.6939046988302457,-0.7200668503280137,0.7200668503280137,0.6939046988302457,1.2314896728726126,60.879323553802664)" x="50.8878269" y="21.2161675" width="42.67" height="15.55" stroke-width="1"/>
            <polygon id="Shape" fill="#FFD45C" points="91.99 19.69 92.11 18.51 87.98 14.53 86.9 24.97" stroke-width="1"/>
            <polygon id="Shape" fill="#FFD45C" points="82.93 29.09 84.76 11.43 81.44 8.23 80.45 9.26 77.84 34.37" stroke-width="1"/>
            <polygon id="Shape" fill="#FFD45C" points="73.43 38.94 76.04 13.83 70.95 19.11 68.34 44.22" stroke-width="1"/>
            <polygon id="Shape" fill="#FFD45C" points="63.02 49.74 63.94 48.79 66.55 23.68 61.46 28.96 59.64 46.48" stroke-width="1"/>
            <polygon id="Shape" fill="#FFD45C" points="55.2 42.2 55.98 34.65 51.83 38.96" stroke-width="1"/>
            <polygon id="Shape" fill="#FFAC27" points="79.4 6.61 99.32 0.88 94.33 20.99" stroke-width="1"/>
        </g>
    </g>
</svg>