<?xml version="1.0" encoding="UTF-8"?><svg xmlns="http://www.w3.org/2000/svg" xmlns:xlink="http://www.w3.org/1999/xlink" width="99.68305969238281" height="68.33224487304688" viewBox="0.33693963289260864 0.3799999952316284 99.68305969238281 68.33224487304688" version="1.1">
    <!-- Generator: Sketch 46.2 (44496) - http://www.bohemiancoding.com/sketch -->
    <title>fireworks 3-b</title>
    <desc>Created with Sketch.</desc>
    <defs/>
    <g id="Page-1" stroke="none" fill-rule="evenodd">
        <g id="fireworks-3-b" fill-rule="nonzero">
            <rect id="Rectangle-path" fill="#875650" transform="matrix(0.6939046988302457,-0.7200668503280137,0.7200668503280137,0.6939046988302457,-33.058869052584726,27.560479928656196)" x="-4.4324257" y="51.3445278" width="40.64" height="2.64" stroke-width="1"/>
            <rect id="Rectangle-path" fill="#00C1D2" transform="matrix(0.6939046988302457,-0.7200668503280137,0.7200668503280137,0.6939046988302457,-26.677494109525764,25.737122626886958)" x="9.01860379" y="43.0919896" width="15.83" height="2.31" stroke-width="1"/>
            <rect id="Rectangle-path" fill="#C0C810" transform="matrix(0.6939046988302457,-0.7200668503280137,0.7200668503280137,0.6939046988302457,-10.239733579754557,33.87952427815927)" x="13.3946866" y="21.2088749" width="42.67" height="15.55" stroke-width="1"/>
            <polygon id="Shape" fill="#F23F39" points="54.48 19.69 54.61 18.51 50.48 14.53 49.4 24.97" stroke-width="1"/>
            <polygon id="Shape" fill="#F23F39" points="45.42 29.09 47.26 11.43 43.94 8.23 42.94 9.26 40.33 34.37" stroke-width="1"/>
            <polygon id="Shape" fill="#F23F39" points="35.93 38.94 38.54 13.83 33.45 19.11 30.84 44.22" stroke-width="1"/>
            <polygon id="Shape" fill="#F23F39" points="25.52 49.74 26.43 48.79 29.04 23.68 23.95 28.96 22.13 46.48" stroke-width="1"/>
            <polygon id="Shape" fill="#F23F39" points="17.69 42.2 18.48 34.65 14.32 38.96" stroke-width="1"/>
            <polygon id="Shape" fill="#C0C810" points="41.9 6.61 61.82 0.88 56.82 20.99" stroke-width="1"/>
            <rect id="Rectangle-path" fill="#875650" transform="matrix(0.6939046988302457,-0.7200668503280137,0.7200668503280137,0.6939046988302457,-21.514209472712757,54.711006803119105)" x="33.2747205" y="51.3408068" width="40.64" height="2.64" stroke-width="1"/>
            <rect id="Rectangle-path" fill="#0D7B99" transform="matrix(0.6939046988302457,-0.7200668503280137,0.7200668503280137,0.6939046988302457,-15.140143006270982,52.88485684364386)" x="46.7188109" y="43.0954693" width="15.83" height="2.31" stroke-width="1"/>
            <rect id="Rectangle-path" fill="#FFAC27" transform="matrix(0.6939046988302457,-0.7200668503280137,0.7200668503280137,0.6939046988302457,1.297616803433371,61.02725880101148)" x="51.0948938" y="21.2123546" width="42.67" height="15.55" stroke-width="1"/>
            <polygon id="Shape" fill="#FFD45C" points="92.19 19.69 92.31 18.51 88.19 14.53 87.1 24.97" stroke-width="1"/>
            <polygon id="Shape" fill="#FFD45C" points="83.13 29.09 84.96 11.43 81.64 8.23 80.65 9.26 78.04 34.37" stroke-width="1"/>
            <polygon id="Shape" fill="#FFD45C" points="73.63 38.94 76.24 13.83 71.15 19.11 68.54 44.22" stroke-width="1"/>
            <polygon id="Shape" fill="#FFD45C" points="63.22 49.74 64.14 48.79 66.75 23.68 61.66 28.96 59.84 46.48" stroke-width="1"/>
            <polygon id="Shape" fill="#FFD45C" points="55.4 42.2 56.18 34.65 52.03 38.96" stroke-width="1"/>
            <polygon id="Shape" fill="#FFAC27" points="79.6 6.61 99.52 0.88 94.53 20.99" stroke-width="1"/>
            <polygon id="Shape" fill="#F24E4E" points="11.39 51.08 11.28 53.35 13.09 54.72 10.9 55.32 10.15 57.47 8.91 55.57 6.63 55.52 8.05 53.75 7.4 51.57 9.52 52.38" stroke-width="1"/>
            <polygon id="Shape" fill="#FFD45C" points="9.28 42.06 9.74 41.12 10.24 42.02 11.16 41.8 10.8 42.7 11.5 43.13 10.69 43.39 10.9 44.44 9.99 44.05 9.15 44.55 9.04 43.62 8.22 43.62 8.76 42.79 8.28 41.91" stroke-width="1"/>
            <path d="M17.23,56.47 C17.5372451,56.8604546 17.9872438,57.1125877 18.4806722,57.1707485 C18.9741007,57.2289093 19.4703904,57.0883158 19.86,56.78 C19.9601252,56.6969899 20.0506845,56.6030766 20.13,56.5 L20.13,56.5 C20.771306,57.2055369 21.8625591,57.2592051 22.57,56.62 C23.1083946,56.1864646 23.3528519,55.484135 23.2,54.81 C23.459566,54.8216454 23.7177842,54.7665588 23.95,54.65 C24.3162649,54.5342265 24.6560878,54.3473239 24.95,54.1 C26.1302478,53.1657219 26.3315518,51.4524008 25.4,50.27 C24.760447,49.5227981 23.7574251,49.1948871 22.8,49.42 C22.7561686,49.1657674 22.6457551,48.9276883 22.48,48.73 C21.9072966,48.083289 20.919734,48.0207285 20.27,48.59 C20.1176735,48.7163023 19.9890061,48.8686716 19.89,49.04 C18.88,48.2 16.08,46 16.08,46 L18.65,50.19 L18.65,50.19 L18.65,50.19 L16.2,46.72 L17.42,50.4 C17.42,50.49 17.47,50.58 17.5,50.67 C17.0661455,50.7026497 16.6534511,50.8705253 16.32,51.15 C15.4748732,51.8353391 15.3326886,53.0705673 16,53.93 C16.2353101,54.2110526 16.5484176,54.416312 16.9,54.52 C16.6433007,55.1812545 16.7700166,55.9300303 17.23,56.47 L17.23,56.47 Z" id="Shape" fill="#D92600" stroke-width="1"/>
            <path d="M18.62,56.71 C18.9716618,56.7377646 19.3227759,56.6499861 19.62,56.46 C19.7846087,56.3424229 19.9156089,56.1838438 20,56 L20,56 C20.3817661,56.4663909 20.9696668,56.7135339 21.57,56.66 C22.1520159,56.5141512 22.6150098,56.0739275 22.79,55.5 C22.8883154,55.2080549 22.8883154,54.8919451 22.79,54.6 C22.8095913,55.1312164 22.5810226,55.6413327 22.1715315,55.9802895 C21.7620404,56.3192463 21.2182035,56.4484895 20.7,56.33 C20.4456045,56.2717519 20.2068138,56.1591791 20,56 C20.0529126,55.8927557 20.0996554,55.7825762 20.14,55.67 L20.24,55.55 C20.0027492,55.7309953 19.7441419,55.8821294 19.47,56 C18.9534941,56.1186595 18.4109443,56.0036757 17.9869756,55.6856992 C17.563007,55.3677227 17.3007085,54.8790704 17.27,54.35 C17.2108526,54.6807095 17.2108526,55.0192905 17.27,55.35 C17.3523009,56.0605199 17.9101068,56.6224577 18.62,56.71 L18.62,56.71 Z" id="Shape" fill="#FC9145" stroke-width="1"/>
            <path d="M21.89,54.84 C22.0425805,54.7687919 22.1762021,54.6625798 22.28,54.53 C22.7392436,54.5929935 23.2066907,54.5554612 23.65,54.42 C24.1966529,54.2158954 24.6796352,53.870908 25.05,53.42 C25.4382952,53.0062226 25.649952,52.4573498 25.64,51.89 C25.5885806,51.303406 25.2812751,50.7692798 24.8,50.43 C24.2290584,50.0868924 23.5630399,49.9361619 22.9,50 C23.4371905,50.0801789 23.9217099,50.3673016 24.25,50.8 C24.4883482,51.1535322 24.6074763,51.5739842 24.59,52 C24.476148,52.8533499 23.9839489,53.6100142 23.25,54.06 C22.9435354,54.2547276 22.6049564,54.393545 22.25,54.47 C22.4521336,54.1783613 22.5377535,53.8216116 22.49,53.47 C22.4806425,53.2855285 22.4329632,53.1050285 22.35,52.94 C22.3055654,53.9051747 21.5774908,54.7005857 20.62,54.83 C21.0273341,54.9912822 21.4801767,54.9948479 21.89,54.84 L21.89,54.84 Z" id="Shape" fill="#FC9145" stroke-width="1"/>
            <path d="M16.85,54.17 C16.7159254,53.9732509 16.6208716,53.7525904 16.57,53.52 C16.4593266,53.003604 16.5758792,52.4645486 16.89,52.04 C17.15,51.7 17.58,51.25 18.04,51.27 C17.9755135,51.4852744 17.9755135,51.7147256 18.04,51.93 C17.7039484,52.0079701 17.4318157,52.2536455 17.32,52.58 C17.5990887,52.3422888 17.9533998,52.2111937 18.32,52.21 C18.5669345,52.2176964 18.8092242,52.279122 19.03,52.39 L19.11,52.39 L19.11,52.39 L19.24,52.47 C19.0031136,52.1137594 18.6163457,51.8853821 18.19,51.85 C18.328515,51.4016952 18.5880377,51.0003001 18.94,50.69 C19.1657024,50.4894646 19.4316349,50.3394514 19.72,50.25 C20.0510904,50.1617239 20.40184,50.1827688 20.72,50.31 C20.5909908,50.198982 20.4460411,50.1079671 20.29,50.04 L20.29,50.04 C20.3536876,49.7950624 20.4854374,49.5731681 20.67,49.4 C20.8680932,49.2367858 21.1005727,49.120546 21.35,49.06 C21.8790212,49.0294879 22.3706012,49.3332284 22.58,49.82 C22.5414425,49.4774152 22.373282,49.1625615 22.11,48.94 C21.724632,48.4771836 21.0457433,48.393965 20.56,48.75 C20.1345572,49.0275425 19.830662,49.4565711 19.71,49.95 C19.161329,49.9044408 18.6292713,50.1514676 18.31,50.6 C18.1685148,50.7904181 18.0603168,51.0034329 17.99,51.23 C17.6766274,51.0879987 17.3252862,51.0528646 16.99,51.13 C16.3830389,51.3572581 15.9653335,51.9188058 15.9222218,52.5654815 C15.87911,53.2121571 16.2185772,53.824183 16.79,54.13 L16.85,54.17 Z" id="Shape" fill="#8F0812" stroke-width="1"/>
            <path d="M15.12,48.61 L15.2,48.61 L15.44,48.61 L15.61,48.61 L15.87,48.61 L18,48.27 L16.35,47.75 L16.08,47.67 L15.08,47.37 L15.08,47.37 C15.3892895,47.0257559 15.5477631,46.571945 15.52,46.11 C15.4822718,45.6216691 15.2482508,45.1694746 14.8713696,44.8566632 C14.4944883,44.5438517 14.0069243,44.3971307 13.52,44.45 C12.9527619,44.4808173 12.4302872,44.7678105 12.1,45.23 C11.7952844,44.985411 11.4098762,44.8640788 11.02,44.89 C10.1841955,44.9278441 9.53611759,45.6340255 9.57,46.47 C9.56707543,46.5232932 9.56707543,46.5767068 9.57,46.63 C8.55553269,46.9539311 7.90262439,47.9395316 8,49 C8.02190439,50.2292933 9.03056228,51.2111727 10.26,51.2 C10.5626751,51.1796766 10.8567613,51.0907668 11.12,50.94 L11.24,50.89 C11.5397229,51.7948645 12.3971502,52.3962827 13.35,52.37 C13.9416307,52.3094683 14.4849048,52.0161474 14.8600715,51.5546923 C15.2352383,51.0932372 15.4114985,50.501531 15.35,49.91 C15.35,49.83 15.35,49.7533333 15.35,49.68 L18,48.93 L15.12,48.61 Z" id="Shape" fill="#D92600" stroke-width="1"/>
            <path d="M12.08,50.41 C11.8680643,50.402151 11.6630217,50.3326451 11.49,50.21 C11.2308314,50.0007371 11.0712361,49.692428 11.05,49.36 C10.9048374,49.728751 10.9911273,50.1484338 11.27,50.43 C10.911181,50.5801425 10.5106777,50.5978639 10.14,50.48 C9.73411641,50.295069 9.41779701,49.9571823 9.26,49.54 C8.88493325,48.7847626 9.08443651,47.8703726 9.74,47.34 C10.1260324,47.1257182 10.5585742,47.0090006 11,47 C11,47 11,47 11,47 L10.88,47 C10.6293241,46.9522999 10.3751137,46.9255409 10.12,46.92 C10.0470765,46.4676274 10.2622142,46.0174318 10.66,45.79 C11.0623329,45.5473285 11.5460648,45.4787396 12,45.6 C12.215571,45.6528317 12.4126455,45.7634701 12.57,45.92 L12.57,45.92 C12.2634355,45.4455204 11.7445248,45.1505999 11.18,45.13 C10.6276235,45.0950996 10.1299854,45.4620022 10,46 C9.94307224,46.3008825 9.98152893,46.612032 10.11,46.89 C9.83604915,46.8858453 9.5651106,46.9475781 9.32,47.07 C8.82061294,47.3360044 8.45726594,47.8010885 8.32,48.35 C8.07039556,49.4905013 8.75514385,50.6273591 9.88,50.94 C10.3913666,51.0063128 10.9069789,50.8538077 11.3,50.52 C11.6392846,50.7267282 12.075516,50.6773435 12.36,50.4 L12.36,50.4 C12.2687067,50.4250129 12.172845,50.4284366 12.08,50.41 Z" id="Shape" fill="#FC9145" stroke-width="1"/>
            <path d="M15.1,47.09 C15.4100381,46.3874124 15.2041925,45.5640299 14.6,45.09 C14.2912953,44.8456192 13.9028978,44.7244677 13.51,44.75 C13.2109778,44.7963899 12.934379,44.9364399 12.72,45.15 C12.9126775,45.0621478 13.119008,45.0080283 13.33,44.99 C13.9293576,45.0225625 14.4445892,45.4259609 14.62,46 C14.8286496,46.6501157 14.6763472,47.3621296 14.22,47.87 L14.52,47.67 C14.6050054,47.769785 14.6695631,47.8853091 14.71,48.01 C14.7502408,48.1640826 14.7502408,48.3259174 14.71,48.48 C14.6818158,48.6431944 14.6091493,48.795448 14.5,48.92 C14.4476071,48.9878196 14.3832058,49.0454418 14.31,49.09 L14.21,49.09 C14.2128624,48.697295 13.9687393,48.3451175 13.6,48.21 L13.6,48.21 C13.6249106,48.2473503 13.6450661,48.2876613 13.66,48.33 C13.9081062,48.7261129 13.8674817,49.2379813 13.56,49.59 C13.4678935,49.6726409 13.3632597,49.7401466 13.25,49.79 C13.6158005,49.7987125 13.9571516,49.6069423 14.14,49.29 C14.1686247,49.223398 14.1855396,49.1523553 14.19,49.08 L14.47,49.08 C14.5799834,49.4011615 14.6208762,49.7419354 14.59,50.08 C14.5332042,50.7279646 14.1032039,51.2830558 13.49,51.5 C12.73,51.71 12.15,51.18 11.69,50.65 C11.8862181,51.0946067 12.2143732,51.4681449 12.63,51.72 C12.9818635,51.9189696 13.3907136,51.9929855 13.79,51.93 C14.1252603,51.8491373 14.4137052,51.6364091 14.59,51.34 C14.8326257,50.9940222 14.9808353,50.5907541 15.02,50.17 C15.0242483,49.773107 14.9205529,49.382521 14.72,49.04 C14.9166346,48.9506079 15.0581119,48.7718997 15.1,48.56 C15.2278439,48.1633986 15.0963563,47.7290913 14.77,47.47 C14.9017488,47.3639928 15.0135037,47.2353053 15.1,47.09 L15.1,47.09 Z" id="Shape" fill="#8F0812" stroke-width="1"/>
            <path d="M24.19,44.29 L24.11,44.29 L23.87,44.29 L23.7,44.29 L23.45,44.34 L21.35,44.64 L23.02,45.1 L23.29,45.17 L24.29,45.44 L24.29,45.44 C23.9961559,45.7945562 23.8557938,46.2516331 23.9,46.71 C24.0149539,47.7003875 24.9091964,48.4113103 25.9,48.3 C26.4652891,48.2486317 26.9766484,47.9432877 27.29,47.47 C27.6030439,47.7027671 27.9919371,47.8098019 28.38,47.77 C29.2125324,47.7009549 29.8333141,46.9729879 29.77,46.14 C29.773117,46.0867122 29.773117,46.0332878 29.77,45.98 C30.8250925,45.648971 31.4881381,44.6058355 31.34,43.51 C31.270061,42.2842365 30.2264424,41.3431958 29,41.4 C28.6983455,41.430978 28.4076845,41.5301447 28.15,41.69 L28.03,41.75 C27.6994239,40.8507546 26.8159912,40.2767269 25.86,40.34 C25.2370496,40.4092851 24.6716242,40.7364043 24.3010449,41.2419126 C23.9304655,41.7474209 23.7886354,42.3850705 23.91,43 C23.91,43.08 23.91,43.16 23.91,43.23 L21.25,44.1 L24.19,44.29 Z" id="Shape" fill="#D92600" stroke-width="1"/>
            <path d="M27.17,42.38 C27.383304,42.38 27.5919205,42.4425849 27.77,42.56 C28.0379699,42.7613175 28.2086182,43.0663058 28.24,43.4 C28.3757456,43.0302359 28.2817819,42.6152296 28,42.34 C28.3510891,42.1790556 28.7477159,42.1471838 29.12,42.25 C29.5333666,42.4169173 29.8640391,42.7404013 30.04,43.15 C30.444384,43.8921394 30.2779814,44.8156742 29.64,45.37 C29.2734574,45.5944555 28.8586257,45.7281616 28.43,45.76 C28.43,45.76 28.43,45.76 28.43,45.76 L28.55,45.76 C28.8014957,45.7978313 29.0557156,45.8145563 29.31,45.81 C29.3995429,46.2601027 29.2002403,46.7184987 28.81,46.96 C28.4048227,47.1959026 27.9212491,47.2572515 27.47,47.13 C27.252999,47.0845587 27.0524827,46.9808434 26.89,46.83 L26.89,46.83 C27.2117962,47.2911693 27.7376639,47.5671567 28.3,47.57 C28.8490793,47.5754999 29.3240596,47.1887902 29.43,46.65 C29.477636,46.3459925 29.4286688,46.0347011 29.29,45.76 C29.565603,45.7579719 29.8366322,45.6893569 30.08,45.56 C30.5360498,45.2911258 30.8668902,44.8524027 31,44.34 C31.2065746,43.1896035 30.4775413,42.0784864 29.34,41.81 C28.8267194,41.7669933 28.3189121,41.9410987 27.94,42.29 C27.5942745,42.0987136 27.1630605,42.1644224 26.89,42.45 L26.89,42.45 C26.9763901,42.4046047 27.0724109,42.3805995 27.17,42.38 Z" id="Shape" fill="#FC9145" stroke-width="1"/>
            <path d="M24.27,45.81 C23.9808562,46.5307433 24.2201153,47.355775 24.85,47.81 C25.1669706,48.0425488 25.5588544,48.1494262 25.95,48.11 C26.2491461,48.0533564 26.5224053,47.9027135 26.73,47.68 C26.5416144,47.7734891 26.3387379,47.8343521 26.13,47.86 C25.5146913,47.8497229 24.9749629,47.4469405 24.79,46.86 C24.5662965,46.2250227 24.6915114,45.5192658 25.12,45 L24.82,45.21 C24.7325411,45.1140277 24.66461,45.0019413 24.62,44.88 C24.5797592,44.7259174 24.5797592,44.5640826 24.62,44.41 C24.6448037,44.2476927 24.7140229,44.0954103 24.82,43.97 C24.8684944,43.8995029 24.9295029,43.8384944 25,43.79 L25.1,43.79 C25.1114842,44.1858133 25.3723409,44.5309468 25.75,44.65 L25.75,44.65 C25.725178,44.6125984 25.7050281,44.5722986 25.69,44.53 C25.4307228,44.14251 25.4550757,43.6310995 25.75,43.27 C25.8384628,43.1848152 25.9396813,43.1139622 26.05,43.06 C25.6850035,43.0646393 25.3515327,43.2677882 25.18,43.59 C25.1682512,43.659507 25.1682512,43.730493 25.18,43.8 L24.9,43.86 C24.7767365,43.5416815 24.7222094,43.2008871 24.74,42.86 C24.7732402,42.2094771 25.1838667,41.6385108 25.79,41.4 C26.54,41.16 27.14,41.67 27.62,42.18 C27.3962045,41.7526645 27.0473355,41.4037955 26.62,41.18 C26.2593271,40.9958541 25.8468707,40.9394498 25.45,41.02 C25.120662,41.1152123 24.8432822,41.3385571 24.68,41.64 C24.4522189,41.9969726 24.3212603,42.4070796 24.3,42.83 C24.3114169,43.2238487 24.4288773,43.6073225 24.64,43.94 C24.4485287,44.036345 24.3147118,44.2184847 24.28,44.43 C24.1655349,44.8319473 24.3131028,45.2626861 24.65,45.51 C24.5072027,45.5876748 24.3786946,45.6891285 24.27,45.81 L24.27,45.81 Z" id="Shape" fill="#8F0812" stroke-width="1"/>
            <path d="M10.92,34.67 C10.6659394,34.5699911 10.3916243,34.5322728 10.12,34.56 C9.13364913,34.6799771 8.42842719,35.5726631 8.54,36.56 C8.58298563,36.9959187 8.77763579,37.4029145 9.09,37.71 C8.53924568,38.1269116 8.33083953,38.8579561 8.57896232,39.5026116 C8.82708512,40.1472671 9.47184771,40.5499337 10.16,40.49 C10.3559668,40.4703952 10.5462058,40.412644 10.72,40.32 C10.8735104,40.7334905 11.2797962,40.9975762 11.72,40.97 C12.0784275,40.9306618 12.3879204,40.7014078 12.53,40.37 L16.73,43.94 L14.49,39.76 C15.60607,39.5947646 16.3869221,38.5698961 16.25,37.45 C16.1705888,36.5243164 15.4976979,35.7581936 14.59,35.56 C14.612047,35.4007595 14.612047,35.2392405 14.59,35.08 C14.5300407,34.5835815 14.274792,34.1315006 13.8807021,33.8237352 C13.4866122,33.5159697 12.9861525,33.3778783 12.49,33.44 C11.7789583,33.5268734 11.1745211,34.0004133 10.92,34.67 L10.92,34.67 Z" id="Shape" fill="#D92600" stroke-width="1"/>
            <path d="M9.67,35.72 C10.0548524,35.3117071 10.588962,35.0771319 11.15,35.07 C10.8337588,34.9395723 10.4870307,34.9014323 10.15,34.96 C9.51921833,35.0468146 9.01744375,35.5324029 8.91,36.16 C8.88082323,36.7543754 9.09367832,37.3352172 9.5,37.77 L9.5,37.77 C9.45072324,37.8661407 9.42339954,37.97202 9.42,38.08 C9.01460869,38.2703174 8.77062736,38.6929643 8.80855719,39.1391976 C8.84648702,39.5854309 9.1583027,39.9608351 9.59,40.08 C9.85940109,40.1239296 10.1357951,40.0819457 10.38,39.96 C9.95482925,40.1062745 9.48431167,39.9507991 9.23,39.58 C9.07716591,39.2264785 9.18432965,38.8143103 9.49,38.58 L9.49,38.72 C9.49422561,38.0709758 10.0020132,37.5369234 10.65,37.5 C10.2815181,37.304183 9.8277179,37.3777722 9.54,37.68 L9.48,37.77 C9.36474363,37.5573623 9.28374838,37.3278758 9.24,37.09 C9.20074968,36.5949068 9.35487228,36.103865 9.67,35.72 Z" id="Shape" fill="#FC9145" stroke-width="1"/>
            <path d="M12.22,34 C11.8557498,34.1043655 11.5381656,34.3302031 11.32,34.64 C11.1625921,34.8897831 11.1054381,35.1898417 11.16,35.48 C10.8703883,35.4865964 10.6189304,35.6812735 10.54,35.96 C10.7739787,35.7511457 11.0998097,35.6791598 11.4,35.77 C11.6033744,35.8350036 11.7861284,35.952242 11.93,36.11 C11.8790272,35.7836129 11.625544,35.5261061 11.3,35.47 L11.22,35.47 C11.2816379,35.2358032 11.3868015,35.0152987 11.53,34.82 C11.9107163,34.3531101 12.5502986,34.1871425 13.11,34.41 C13.6874437,34.6254211 14.0808389,35.1643726 14.11,35.78 C14.2144962,35.393607 14.2144962,34.986393 14.11,34.6 C13.83,33.88 12.86,33.81 12.22,34 Z" id="Shape" fill="#FC9145" stroke-width="1"/>
            <path d="M15.41,37.82 C15.170829,38.4563554 14.559793,38.8756938 13.88,38.87 C13.88,38.87 13.88,38.87 13.88,38.87 C13.8649122,38.7584659 13.8311038,38.6502791 13.78,38.55 C13.8146815,38.5101021 13.8448635,38.466506 13.87,38.42 C14.0102108,38.0876189 13.9605333,37.7054844 13.74,37.42 C13.7479451,37.4730374 13.7479451,37.5269626 13.74,37.58 C13.7619379,37.76812 13.744918,37.9587421 13.69,38.14 C13.5725376,38.4823285 13.296894,38.7467973 12.95,38.85 C13.190588,38.8855686 13.4358925,38.8322415 13.64,38.7 C13.6434255,38.7365867 13.6434255,38.7734133 13.64,38.81 C13.5466539,39.0239514 13.4219515,39.2228011 13.27,39.4 C12.9986476,39.7098804 12.5863434,39.8574021 12.18,39.79 C12.2580411,39.8352843 12.3422569,39.8689706 12.43,39.89 C12.3902956,39.9949215 12.3289683,40.0903196 12.25,40.17 C12.0465511,40.3537271 11.7704584,40.4347143 11.5,40.39 C11.2728953,40.3276647 11.0660481,40.2070038 10.9,40.04 C10.8707876,40.3701745 11.110579,40.6632529 11.44,40.7 C11.8310756,40.7644709 12.2233202,40.5918833 12.44,40.26 C12.4885399,40.1466249 12.5058056,40.022312 12.49,39.9 C12.7358546,39.9470258 12.9901653,39.9191562 13.22,39.82 C13.468293,39.7268315 13.6791011,39.5546715 13.82,39.33 C14.0467526,39.4138127 14.2912458,39.4379177 14.53,39.4 C14.913202,39.3272895 15.2633858,39.1346884 15.53,38.85 C16.0483127,38.3265423 16.0954806,37.4989589 15.64,36.92 C15.4755769,36.7082378 15.2675416,36.5343067 15.03,36.41 C15.4111714,36.7714833 15.5579016,37.3159296 15.41,37.82 L15.41,37.82 Z" id="Shape" fill="#8F0812" stroke-width="1"/>
            <polygon id="Shape" fill="#F24E4E" points="22.55 57.94 21.13 56.72 19.54 57.69 20.26 55.97 18.84 54.75 20.7 54.91 21.42 53.18 21.85 55 23.71 55.15 22.12 56.12" stroke-width="1"/>
            <polygon id="Shape" fill="#F9B233" points="7.71 48.65 6.12 46.81 3.88 47.76 5.13 45.68 3.54 43.85 5.9 44.4 7.15 42.32 7.37 44.73 9.73 45.28 7.5 46.23" stroke-width="1"/>
            <polygon id="Shape" fill="#F24E4E" points="33.13 51.57 29.91 51.06 28.43 53.96 27.92 50.74 24.7 50.23 27.61 48.75 27.1 45.53 29.4 47.84 32.31 46.36 30.83 49.26" stroke-width="1"/>
            <polygon id="Shape" fill="#F24E4E" points="34.36 36.95 33.23 36.38 32.33 37.29 32.52 36.03 31.39 35.46 32.64 35.26 32.83 34 33.42 35.13 34.67 34.92 33.78 35.82" stroke-width="1"/>
            <polygon id="Shape" fill="#FFD45C" points="18.48 48.69 17.28 46.53 14.86 47.01 16.54 45.2 15.34 43.05 17.57 44.09 19.25 42.28 18.95 44.73 21.19 45.76 18.77 46.24" stroke-width="1"/>
            <polygon id="Shape" fill="#F24E4E" points="48.12 51.38 48.02 53.65 49.83 55.02 47.64 55.62 46.89 57.77 45.64 55.87 43.37 55.82 44.79 54.05 44.13 51.87 46.26 52.67" stroke-width="1"/>
            <polygon id="Shape" fill="#FFD45C" points="46.02 42.36 46.48 41.42 46.98 42.32 47.9 42.1 47.53 43 48.24 43.43 47.42 43.69 47.64 44.74 46.72 44.35 45.88 44.85 45.77 43.92 44.96 43.92 45.5 43.09 45.02 42.21" stroke-width="1"/>
            <path d="M54,56.77 C54.3072451,57.1604546 54.7572438,57.4125877 55.2506722,57.4707485 C55.7441007,57.5289093 56.2403904,57.3883158 56.63,57.08 C56.7301252,56.9969899 56.8206845,56.9030766 56.9,56.8 L56.9,56.8 C57.541306,57.5055369 58.6325591,57.5592051 59.34,56.92 C59.8784729,56.4989004 60.1337744,55.8103599 60,55.14 C60.259566,55.1516454 60.5177842,55.0965588 60.75,54.98 C61.1162649,54.8642265 61.4560878,54.6773239 61.75,54.43 C62.9302478,53.4957219 63.1315518,51.7824008 62.2,50.6 C61.560447,49.8527981 60.5574251,49.5248871 59.6,49.75 C59.5561686,49.4957674 59.4457551,49.2576883 59.28,49.06 C59.0032037,48.7279027 58.6017138,48.5246414 58.1702016,48.498145 C57.7386894,48.4716486 57.3153476,48.6242624 57,48.92 C56.8476735,49.0463023 56.7190061,49.1986716 56.62,49.37 C55.57,48.51 52.76,46.29 52.76,46.29 L55.33,50.48 L55.33,50.48 L55.33,50.48 L52.94,47 L54.16,50.68 C54.16,50.77 54.21,50.86 54.24,50.95 C53.8061455,50.9826497 53.3934511,51.1505253 53.06,51.43 C52.2180579,52.1182804 52.0803553,53.3531613 52.75,54.21 C52.9853101,54.4910526 53.2984176,54.696312 53.65,54.8 C53.3905978,55.4705962 53.525481,56.2297959 54,56.77 L54,56.77 Z" id="Shape" fill="#D92600" stroke-width="1"/>
            <path d="M55.36,57 C55.7116618,57.0277646 56.0627759,56.9399861 56.36,56.75 C56.5084631,56.6398852 56.6284624,56.4958861 56.71,56.33 L56.71,56.33 C57.0917661,56.7963909 57.6796668,57.0435339 58.28,56.99 C58.8620159,56.8441512 59.3250098,56.4039275 59.5,55.83 C59.5983154,55.5380549 59.5983154,55.2219451 59.5,54.93 C59.5195913,55.4612164 59.2910226,55.9713327 58.8815315,56.3102895 C58.4720404,56.6492463 57.9282035,56.7784895 57.41,56.66 C57.1504594,56.5839313 56.911265,56.4506659 56.71,56.27 C56.7629126,56.1627557 56.8096554,56.0525762 56.85,55.94 L56.95,55.82 C56.7127492,56.0009953 56.4541419,56.1521294 56.18,56.27 C55.6728226,56.3813831 55.1422524,56.2683128 54.7245532,55.9598286 C54.306854,55.6513443 54.0427246,55.1775034 54,54.66 C53.9408526,54.9907095 53.9408526,55.3292905 54,55.66 C54.0917956,56.3659942 54.6527234,56.9186731 55.36,57 L55.36,57 Z" id="Shape" fill="#FC9145" stroke-width="1"/>
            <path d="M58.62,55.14 C58.7725805,55.0687919 58.9062021,54.9625798 59.01,54.83 C59.4692436,54.8929935 59.9366907,54.8554612 60.38,54.72 C60.9266529,54.5158954 61.4096352,54.170908 61.78,53.72 C62.1682952,53.3062226 62.379952,52.7573498 62.37,52.19 C62.3185806,51.603406 62.0112751,51.0692798 61.53,50.73 C60.9665675,50.3750252 60.3040715,50.2102775 59.64,50.26 C60.1771905,50.3401789 60.6617099,50.6273016 60.99,51.06 C61.2441134,51.4396859 61.3605711,51.8949297 61.32,52.35 C61.2107418,53.1997103 60.7263261,53.9556924 60,54.41 C59.6935354,54.6047276 59.3549564,54.743545 59,54.82 C59.2021336,54.5283613 59.2877535,54.1716116 59.24,53.82 C59.2306425,53.6355285 59.1829632,53.4550285 59.1,53.29 C59.0555654,54.2551747 58.3274908,55.0505857 57.37,55.18 C57.7775124,55.3201484 58.2222817,55.3059158 58.62,55.14 L58.62,55.14 Z" id="Shape" fill="#FC9145" stroke-width="1"/>
            <path d="M53.58,54.47 C53.4459254,54.2732509 53.3508716,54.0525904 53.3,53.82 C53.1893266,53.303604 53.3058792,52.7645486 53.62,52.34 C53.88,52 54.31,51.55 54.77,51.57 C54.7055135,51.7852744 54.7055135,52.0147256 54.77,52.23 C54.4339484,52.3079701 54.1618157,52.5536455 54.05,52.88 C54.3290887,52.6422888 54.6833998,52.5111937 55.05,52.51 C55.2969345,52.5176964 55.5392242,52.579122 55.76,52.69 L55.84,52.69 L55.84,52.69 L55.97,52.77 C55.7331136,52.4137594 55.3463457,52.1853821 54.92,52.15 C55.058515,51.7016952 55.3180377,51.3003001 55.67,50.99 C55.8957024,50.7894646 56.1616349,50.6394514 56.45,50.55 C56.7810904,50.4617239 57.13184,50.4827688 57.45,50.61 C57.3209908,50.498982 57.1760411,50.4079671 57.02,50.34 L57.02,50.34 C57.0836876,50.0950624 57.2154374,49.8731681 57.4,49.7 C57.5980932,49.5367858 57.8305727,49.420546 58.08,49.36 C58.6090212,49.3294879 59.1006012,49.6332284 59.31,50.12 C59.2714425,49.7774152 59.103282,49.4625615 58.84,49.24 C58.454632,48.7771836 57.7757433,48.693965 57.29,49.05 C56.8645572,49.3275425 56.560662,49.7565711 56.44,50.25 C55.891329,50.2044408 55.3592713,50.4514676 55.04,50.9 C54.8985148,51.0904181 54.7903168,51.3034329 54.72,51.53 C54.4066274,51.3879987 54.0552862,51.3528646 53.72,51.43 C53.1130389,51.6572581 52.6953335,52.2188058 52.6522218,52.8654815 C52.60911,53.5121571 52.9485772,54.124183 53.52,54.43 L53.58,54.47 Z" id="Shape" fill="#8F0812" stroke-width="1"/>
            <path d="M51.86,48.91 L51.94,48.91 L52.18,48.91 L52.35,48.91 L52.61,48.91 L54.72,48.69 L53.07,48.17 L52.8,48 L51.8,47.7 L51.8,47.7 C52.1092895,47.3557559 52.2677631,46.901945 52.24,46.44 C52.2022718,45.9516691 51.9682508,45.4994746 51.5913696,45.1866632 C51.2144883,44.8738517 50.7269243,44.7271307 50.24,44.78 C49.6727619,44.8108173 49.1502872,45.0978105 48.82,45.56 C48.5152844,45.315411 48.1298762,45.1940788 47.74,45.22 C46.9041955,45.2578441 46.2561176,45.9640255 46.29,46.8 C46.2870754,46.8532932 46.2870754,46.9067068 46.29,46.96 C45.2235966,47.2518767 44.5225893,48.2696041 44.63,49.37 C44.6531463,49.9715416 44.91744,50.5384493 45.3632995,50.942921 C45.809159,51.3473927 46.3990539,51.5553819 47,51.52 C47.3026751,51.4996766 47.5967613,51.4107668 47.86,51.26 L47.98,51.21 C48.2797229,52.1148645 49.1371502,52.7162827 50.09,52.69 C50.6816307,52.6294683 51.2249048,52.3361474 51.6000715,51.8746923 C51.9752383,51.4132372 52.1514985,50.821531 52.09,50.23 C52.09,50.15 52.09,50.0733333 52.09,50 L54.78,49.23 L51.86,48.91 Z" id="Shape" fill="#D92600" stroke-width="1"/>
            <path d="M48.82,50.71 C48.6080643,50.702151 48.4030217,50.6326451 48.23,50.51 C47.9708314,50.3007371 47.8112361,49.992428 47.79,49.66 C47.6466329,50.0239927 47.7286852,50.4381613 48,50.72 C47.641181,50.8701425 47.2406777,50.8878639 46.87,50.77 C46.4641164,50.585069 46.147797,50.2471823 45.99,49.83 C45.6149332,49.0747626 45.8144365,48.1603726 46.47,47.63 C46.8441043,47.4218979 47.2621871,47.305383 47.69,47.29 C47.69,47.29 47.69,47.29 47.69,47.29 L47.57,47.29 C47.3193241,47.2422999 47.0651137,47.2155409 46.81,47.21 C46.7097052,46.7169082 46.9567876,46.2186254 47.41,46 C47.8249509,45.7780583 48.3124079,45.7347287 48.76,45.88 C48.975571,45.9328317 49.1726455,46.0434701 49.33,46.2 L49.33,46.2 C49.0234355,45.7255204 48.5045248,45.4305999 47.94,45.41 C47.3949613,45.3850432 46.9086523,45.7497749 46.78,46.28 C46.7230722,46.5808825 46.7615289,46.892032 46.89,47.17 C46.6160491,47.1658453 46.3451106,47.2275781 46.1,47.35 C45.6006129,47.6160044 45.2372659,48.0810885 45.1,48.63 C44.8503956,49.7705013 45.5351439,50.9073591 46.66,51.22 C47.1713666,51.2863128 47.6869789,51.1338077 48.08,50.8 C48.4192846,51.0067282 48.855516,50.9573435 49.14,50.68 L49.14,50.68 C49.0379331,50.7184263 48.9274306,50.7287859 48.82,50.71 Z" id="Shape" fill="#FC9145" stroke-width="1"/>
            <path d="M51.83,47.39 C52.1400381,46.6874124 51.9341925,45.8640299 51.33,45.39 C51.028583,45.1276489 50.6394321,44.9884114 50.24,45 C49.9409778,45.0463899 49.664379,45.1864399 49.45,45.4 C49.6426775,45.3121478 49.849008,45.2580283 50.06,45.24 C50.6824723,45.2780176 51.2085226,45.7150441 51.36,46.32 C51.5686496,46.9701157 51.4163472,47.6821296 50.96,48.19 L51.26,47.99 C51.3450054,48.089785 51.4095631,48.2053091 51.45,48.33 C51.4902408,48.4840826 51.4902408,48.6459174 51.45,48.8 C51.4218158,48.9631944 51.3491493,49.115448 51.24,49.24 C51.1876071,49.3078196 51.1232058,49.3654418 51.05,49.41 L50.95,49.41 C50.9528624,49.017295 50.7087393,48.6651175 50.34,48.53 L50.34,48.53 C50.3649106,48.5673503 50.3850661,48.6076613 50.4,48.65 C50.6481062,49.0461129 50.6074817,49.5579813 50.3,49.91 C50.2078935,49.9926409 50.1032597,50.0601466 49.99,50.11 C50.3558005,50.1187125 50.6971516,49.9269423 50.88,49.61 C50.9086247,49.543398 50.9255396,49.4723553 50.93,49.4 L51.21,49.4 C51.3199834,49.7211615 51.3608762,50.0619354 51.33,50.4 C51.2732042,51.0479646 50.8432039,51.6030558 50.23,51.82 C49.47,52.03 48.89,51.5 48.43,50.97 C48.6435626,51.4055329 48.9856242,51.7650467 49.41,52 C49.7618635,52.1989696 50.1707136,52.2729855 50.57,52.21 C50.9052603,52.1291373 51.1937052,51.9164091 51.37,51.62 C51.6126257,51.2740222 51.7608353,50.8707541 51.8,50.45 C51.8042483,50.053107 51.7005529,49.662521 51.5,49.32 C51.6966346,49.2306079 51.8381119,49.0518997 51.88,48.84 C52.0078439,48.4433986 51.8763563,48.0090913 51.55,47.75 C51.6621202,47.6458699 51.7566727,47.5243023 51.83,47.39 Z" id="Shape" fill="#8F0812" stroke-width="1"/>
            <path d="M60.93,44.59 L60.85,44.59 L60.61,44.59 L60.44,44.59 L60.19,44.64 L58.09,44.94 L59.76,45.4 L60.03,45.47 L61.03,45.74 L61.03,45.74 C60.7361559,46.0945562 60.5957938,46.5516331 60.64,47.01 C60.7549539,48.0003875 61.6491964,48.7113103 62.64,48.6 C63.1772971,48.5638403 63.6729244,48.2978051 64,47.87 C64.3130439,48.1027671 64.7019371,48.2098019 65.09,48.17 C65.9225324,48.1009549 66.5433141,47.3729879 66.48,46.54 C66.483117,46.4867122 66.483117,46.4332878 66.48,46.38 C67.5151398,46.0298476 68.153897,44.9918673 68,43.91 C67.930061,42.6842365 66.8864424,41.7431958 65.66,41.8 C65.3583455,41.830978 65.0676845,41.9301447 64.81,42.09 L64.69,42.15 C64.3594239,41.2507546 63.4759912,40.6767269 62.52,40.74 C61.3015659,40.9202818 60.4572737,42.0504719 60.63,43.27 C60.63,43.35 60.63,43.43 60.63,43.5 L58,44.37 L60.93,44.59 Z" id="Shape" fill="#D92600" stroke-width="1"/>
            <path d="M63.9,42.68 C64.113304,42.68 64.3219205,42.7425849 64.5,42.86 C64.7679699,43.0613175 64.9386182,43.3663058 64.97,43.7 C65.100789,43.3263505 64.9988421,42.9107211 64.71,42.64 C65.0610891,42.4790556 65.4577159,42.4471838 65.83,42.55 C66.2433666,42.7169173 66.5740391,43.0404013 66.75,43.45 C67.154384,44.1921394 66.9879814,45.1156742 66.35,45.67 C65.9834574,45.8944555 65.5686257,46.0281616 65.14,46.06 C65.14,46.06 65.14,46.06 65.14,46.06 L65.26,46.06 C65.5114957,46.0978313 65.7657156,46.1145563 66.02,46.11 C66.1095429,46.5601027 65.9102403,47.0184987 65.52,47.26 C65.1148227,47.4959026 64.6312491,47.5572515 64.18,47.43 C63.962999,47.3845587 63.7624827,47.2808434 63.6,47.13 L63.6,47.13 C63.8896468,47.6379647 64.4162921,47.9652371 65,48 C65.5490793,48.0054999 66.0240596,47.6187902 66.13,47.08 C66.177636,46.7759925 66.1286688,46.4647011 65.99,46.19 C66.265603,46.1879719 66.5366322,46.1193569 66.78,45.99 C67.259465,45.702505 67.5967146,45.2274545 67.71,44.68 C67.9314329,43.5035493 67.1715661,42.3659709 66,42.12 C65.4867194,42.0769933 64.9789121,42.2510987 64.6,42.6 C64.2542745,42.4087136 63.8230605,42.4744224 63.55,42.76 L63.55,42.76 C63.6559998,42.6988266 63.7779497,42.6709524 63.9,42.68 Z" id="Shape" fill="#FC9145" stroke-width="1"/>
            <path d="M61,46.11 C60.7108562,46.8307433 60.9501153,47.655775 61.58,48.11 C61.8969706,48.3425488 62.2888544,48.4494262 62.68,48.41 C62.9791461,48.3533564 63.2524053,48.2027135 63.46,47.98 C63.2716144,48.0734891 63.0687379,48.1343521 62.86,48.16 C62.2446913,48.1497229 61.7049629,47.7469405 61.52,47.16 C61.2847853,46.5162565 61.4105539,45.7959456 61.85,45.27 L61.55,45.48 C61.4625411,45.3840277 61.39461,45.2719413 61.35,45.15 C61.3097592,44.9959174 61.3097592,44.8340826 61.35,44.68 C61.3748037,44.5176927 61.4440229,44.3654103 61.55,44.24 C61.5984944,44.1695029 61.6595029,44.1084944 61.73,44.06 L61.83,44.06 C61.8414842,44.4558133 62.1023409,44.8009468 62.48,44.92 L62.48,44.92 C62.455178,44.8825984 62.4350281,44.8422986 62.42,44.8 C62.1607228,44.41251 62.1850757,43.9010995 62.48,43.54 C62.5684628,43.4548152 62.6696813,43.3839622 62.78,43.33 C62.4150035,43.3346393 62.0815327,43.5377882 61.91,43.86 C61.8982512,43.929507 61.8982512,44.000493 61.91,44.07 L61.63,44.13 C61.5067365,43.8116815 61.4522094,43.4708871 61.47,43.13 C61.5032402,42.4794771 61.9138667,41.9085108 62.52,41.67 C63.27,41.43 63.87,41.94 64.35,42.45 C64.1262045,42.0226645 63.7773355,41.6737955 63.35,41.45 C62.9893271,41.2658541 62.5768707,41.2094498 62.18,41.29 C61.850662,41.3852123 61.5732822,41.6085571 61.41,41.91 C61.1659971,42.2291053 61.0045534,42.6035174 60.94,43 C60.9514169,43.3938487 61.0688773,43.7773225 61.28,44.11 C61.0885287,44.206345 60.9547118,44.3884847 60.92,44.6 C60.8055349,45.0019473 60.9531028,45.4326861 61.29,45.68 C61.1679311,45.8044584 61.0696482,45.9501881 61,46.11 Z" id="Shape" fill="#8F0812" stroke-width="1"/>
            <path d="M47.65,35 C47.3959394,34.8999911 47.1216243,34.8622728 46.85,34.89 C45.8636491,35.0099771 45.1584272,35.9026631 45.27,36.89 C45.3246073,37.3130396 45.5222003,37.7046972 45.83,38 C45.2583921,38.4105925 45.0351604,39.1547597 45.28639,39.8121831 C45.5376197,40.4696064 46.2002435,40.8752503 46.9,40.8 C47.0959668,40.7803952 47.2862058,40.722644 47.46,40.63 C47.6135104,41.0434905 48.0197962,41.3075762 48.46,41.28 C48.8184275,41.2406618 49.1279204,41.0114078 49.27,40.68 L53.47,44.25 L51.23,40.07 C52.3544937,39.909678 53.1424326,38.8768993 53,37.75 C52.9205888,36.8243164 52.2476979,36.0581936 51.34,35.86 C51.362047,35.7007595 51.362047,35.5392405 51.34,35.38 C51.2800407,34.8835815 51.024792,34.4315006 50.6307021,34.1237352 C50.2366122,33.8159697 49.7361525,33.6778783 49.24,33.74 C48.5141986,33.8251107 47.8987154,34.3128521 47.65,35 L47.65,35 Z" id="Shape" fill="#D92600" stroke-width="1"/>
            <path d="M46.4,36 C46.7848524,35.5917071 47.318962,35.3571319 47.88,35.35 C47.5637588,35.2195723 47.2170307,35.1814323 46.88,35.24 C46.2492183,35.3268146 45.7474438,35.8124029 45.64,36.44 C45.6108232,37.0343754 45.8236783,37.6152172 46.23,38.05 L46.23,38.05 C46.1807232,38.1461407 46.1533995,38.25202 46.15,38.36 C45.7446087,38.5503174 45.5006274,38.9729643 45.5385572,39.4191976 C45.576487,39.8654309 45.8883027,40.2408351 46.32,40.36 C46.5894011,40.4039296 46.8657951,40.3619457 47.11,40.24 C46.7010831,40.3706994 46.2543702,40.2258195 46,39.88 C45.8471659,39.5264785 45.9543296,39.1143103 46.26,38.88 L46.26,39.02 C46.2642256,38.3709758 46.7720132,37.8369234 47.42,37.8 C47.0515181,37.604183 46.5977179,37.6777722 46.31,37.98 L46.25,38.07 C46.1347436,37.8573623 46.0537484,37.6278758 46.01,37.39 C45.9542233,36.8935741 46.0941237,36.3949549 46.4,36 L46.4,36 Z" id="Shape" fill="#FC9145" stroke-width="1"/>
            <path d="M49,34.31 C48.6357498,34.4143655 48.3181656,34.6402031 48.1,34.95 C47.9425921,35.1997831 47.8854381,35.4998417 47.94,35.79 C47.6503883,35.7965964 47.3989304,35.9912735 47.32,36.27 C47.5539787,36.0611457 47.8798097,35.9891598 48.18,36.08 C48.3833744,36.1450036 48.5661284,36.262242 48.71,36.42 C48.6590272,36.0936129 48.405544,35.8361061 48.08,35.78 L48,35.78 C48.0616379,35.5458032 48.1668015,35.3252987 48.31,35.13 C48.6907163,34.6631101 49.3302986,34.4971425 49.89,34.72 C50.4674437,34.9354211 50.8608389,35.4743726 50.89,36.09 C50.9944962,35.703607 50.9944962,35.296393 50.89,34.91 C50.57,34.18 49.6,34.11 49,34.31 Z" id="Shape" fill="#FC9145" stroke-width="1"/>
            <path d="M52.15,38.12 C51.910829,38.7563554 51.299793,39.1756938 50.62,39.17 C50.62,39.17 50.62,39.17 50.62,39.17 C50.6049122,39.0584659 50.5711038,38.9502791 50.52,38.85 C50.5546815,38.8101021 50.5848635,38.766506 50.61,38.72 C50.7502108,38.3876189 50.7005333,38.0054844 50.48,37.72 C50.4879451,37.7730374 50.4879451,37.8269626 50.48,37.88 C50.5019379,38.06812 50.484918,38.2587421 50.43,38.44 C50.3125376,38.7823285 50.036894,39.0467973 49.69,39.15 C49.930588,39.1855686 50.1758925,39.1322415 50.38,39 C50.3834255,39.0365867 50.3834255,39.0734133 50.38,39.11 C50.2866539,39.3239514 50.1619515,39.5228011 50.01,39.7 C49.7386476,40.0098804 49.3263434,40.1574021 48.92,40.09 C48.9980411,40.1352843 49.0822569,40.1689706 49.17,40.19 C49.1302956,40.2949215 49.0689683,40.3903196 48.99,40.47 C48.7865511,40.6537271 48.5104584,40.7347143 48.24,40.69 C48.0128953,40.6276647 47.8060481,40.5070038 47.64,40.34 C47.6107876,40.6701745 47.850579,40.9632529 48.18,41 C48.5710756,41.0644709 48.9633202,40.8918833 49.18,40.56 C49.2285399,40.4466249 49.2458056,40.322312 49.23,40.2 C49.4758546,40.2470258 49.7301653,40.2191562 49.96,40.12 C50.208293,40.0268315 50.4191011,39.8546715 50.56,39.63 C50.7867526,39.7138127 51.0312458,39.7379177 51.27,39.7 C51.653202,39.6272895 52.0033858,39.4346884 52.27,39.15 C52.7883127,38.6265423 52.8354806,37.7989589 52.38,37.22 C52.2155769,37.0082378 52.0075416,36.8343067 51.77,36.71 C52.1511714,37.0714833 52.2979016,37.6159296 52.15,38.12 Z" id="Shape" fill="#8F0812" stroke-width="1"/>
            <polygon id="Shape" fill="#F24E4E" points="59.29 58.24 57.87 57.02 56.28 58 56.99 56.27 55.58 55.06 57.44 55.21 58.16 53.48 58.59 55.3 60.45 55.45 58.86 56.42" stroke-width="1"/>
            <polygon id="Shape" fill="#F9B233" points="44.44 48.94 42.85 47.11 40.62 48.06 41.87 45.98 40.28 44.15 42.64 44.7 43.89 42.62 44.1 45.03 46.47 45.58 44.23 46.53" stroke-width="1"/>
            <polygon id="Shape" fill="#F24E4E" points="69.86 51.87 66.65 51.36 65.16 54.26 64.66 51.04 61.44 50.53 64.34 49.05 63.84 45.83 66.14 48.14 69.04 46.66 67.56 49.56" stroke-width="1"/>
            <polygon id="Shape" fill="#F24E4E" points="71.1 37.25 69.96 36.68 69.07 37.59 69.26 36.33 68.13 35.76 69.38 35.55 69.57 34.3 70.15 35.43 71.41 35.22 70.51 36.12" stroke-width="1"/>
            <polygon id="Shape" fill="#FFD45C" points="55.22 48.98 54.01 46.83 51.6 47.31 53.27 45.5 52.07 43.35 54.31 44.39 55.98 42.58 55.69 45.03 57.93 46.06 55.51 46.54" stroke-width="1"/>
        </g>
    </g>
</svg>