<?xml version="1.0" encoding="UTF-8" standalone="no"?><svg xmlns="http://www.w3.org/2000/svg" xmlns:xlink="http://www.w3.org/1999/xlink" width="79.1318588256836" height="208.75498962402344" viewBox="0.21626496315002441 0.1753673553466797 79.1318588256836 208.75498962402344" version="1.1">
    <!-- Generator: Sketch 46.2 (44496) - http://www.bohemiancoding.com/sketch -->
    <title>Grandpa-b</title>
    <desc>Created with Sketch.</desc>
    <defs/>
    <g id="Page-1" stroke="none" fill-rule="evenodd">
        <g id="Grandpa-b">
            <polygon id="Shape" fill="#FCEAD9" fill-rule="nonzero" points="31.05 59.03 31.05 73.83 42.92 73.83 42.92 58.21" stroke-width="1"/>
            <path d="M26.81,196.72 C26.81,196.72 27.87,200.26 33.81,197.32 C33.81,197.32 36.69,196.32 35.45,199.61 C35.45,199.61 34.9,205.71 27.64,208.22 C27.64,208.22 17.29,209.8 18.19,204.3 C18.19,204.3 17.68,202.73 22.51,200.16 C22.53,200.15 27.46,198.73 26.81,196.72 Z" id="Shape" fill="#FF3035" fill-rule="nonzero" stroke-width="1"/>
            <path d="M57.07,196.72 C57.07,196.72 56.01,200.26 50.07,197.32 C50.07,197.32 47.19,196.32 48.43,199.61 C48.43,199.61 48.98,205.71 56.24,208.22 C56.24,208.22 66.59,209.8 65.69,204.3 C65.69,204.3 66.2,202.73 61.37,200.16 C61.35,200.15 56.42,198.73 57.07,196.72 Z" id="Shape" fill="#FF3035" fill-rule="nonzero" stroke-width="1"/>
            <path d="M20.52,124.49 L58.21,124.49 L60.79,192.78 L45,192.78 L40.61,139.51 C40.61,139.51 39.42,138.71 38.99,139.51 L37.27,194.6 L23.85,194.6 L20.52,124.49 Z" id="Shape" fill="#FF3035" fill-rule="nonzero" stroke-width="1"/>
            <path d="M23.31,192.37 C23.31,192.37 32.53,193.37 37.53,191.93 L37.53,198.06 C32.9955023,199.921763 27.9351813,200.053431 23.31,198.43 L23.31,192.37 Z" id="Shape" fill="#FF4D5A" fill-rule="nonzero" stroke-width="1"/>
            <path d="M44.63,192.37 C44.63,192.37 55.1,193.37 60.78,191.93 L60.78,198.06 C55.5782212,199.92599 49.9117766,200.055809 44.63,198.43 L44.63,192.37 Z" id="Shape" fill="#FF4D5A" fill-rule="nonzero" stroke-width="1"/>
            <rect id="Rectangle-path" fill="#DD1B2A" fill-rule="nonzero" x="18.26" y="123.56" width="41.39" height="1" rx="0.46" stroke-width="1"/>
            <rect id="Rectangle-path" fill="#DD1B2A" fill-rule="nonzero" x="18.12" y="125.28" width="41.67" height="1" rx="0.46" stroke-width="1"/>
            <path d="M77.19,86.29 L64.29,71.06 C62.6072361,69.1901048 60.3064194,67.9899875 57.81,67.68 L50.64,66.68 C49.1516805,66.6073357 47.9422695,65.453285 47.8,63.97 L47.8,63.97 C47.57,62.09 46.8,62.59 46.8,62.59 L46.6,62.59 C42.6,62.79 39.47,65.49 39.47,68.7 L39.47,71 C38.47,72.52 37.68,71 37.68,71 L36.93,67.83 C36.3,64.99 33.5,64.09 31.39,63.83 C29.315573,63.5859504 27.2757338,63.1061856 25.31,62.4 L25.31,62.4 C24.6830448,62.1335269 23.958163,62.418143 23.68,63.04 C23.3863378,64.2263717 23.159316,65.4282518 23,66.64 C23,68.17 17.4,67.71 14.66,69.71 C12.8511289,71.1806309 11.1777626,72.8104897 9.66,74.58 L2.19,88.58 C2.19,88.58 -2.43,96.14 4.69,97.77 L19.8,103 C19.6575905,111.139025 19.0733974,119.264316 18.05,127.34 L60.24,126.34 C58.5,120.72 58.53,114.06 58.74,102.87 L75,94.6 C82.11,93.77 77.19,86.29 77.19,86.29 Z M19.11,84.12 L19.28,84.46 C19.41,84.8 19.51,91.82 19.58,92.46 L12.36,90.19 L19.11,84.12 Z M58.94,92.66 C58.94,91.37 59.01,82.25 59.01,82.25 L59.11,81.78 L65.88,88.4 L58.94,92.66 Z" id="Shape" fill="#FF3035" fill-rule="nonzero" stroke-width="1"/>
            <path d="M15.6,31.71 C15.6,31.71 12.99,53.71 25.42,58.12 C28.0136382,59.3807544 30.6858445,60.4730188 33.42,61.39 C36.3239901,62.9249358 39.8063925,62.8910895 42.68,61.3 C42.68,61.3 52.39,58.12 54.48,55.4 C59.5011245,48.6041441 61.2651178,39.9378866 59.3,31.72 C59.3,31.72 57.11,17.72 49.58,15.66 C49.56,15.65 21.57,2.94 15.6,31.71 Z" id="Shape" fill="#FCEAD9" fill-rule="nonzero" stroke-width="1"/>
            <path d="M16.51,44.91 C16.51,44.91 10.7,44.27 11.43,36.47 C11.43,36.47 11.7,32.75 16.51,32.66" id="Shape" fill="#FCEAD9" fill-rule="nonzero" stroke-width="1"/>
            <path d="M59.28,44.91 C59.28,44.91 65.09,44.27 64.36,36.47 C64.36,36.47 64.09,32.75 59.28,32.66" id="Shape" fill="#FCEAD9" fill-rule="nonzero" stroke-width="1"/>
            <path d="M20.4,8.53 C20.4,8.53 24.57,-4.27 49.53,2.81 C49.53,2.81 65.86,10.16 64.32,29.67 C64.32,29.67 63.87,38.74 59.42,41.38 C59.42,41.38 61.14,23.87 50.62,17.6 C50.62,17.6 37.55,29.4 23.49,17.78 C23.49,17.78 13.78,23.22 15.49,42.28 C15.49,42.28 7.32,35.79 10.14,21.48 C10.14,21.48 10.69,11.52 20.4,8.53 Z" id="Shape" fill="#E3DDD8" fill-rule="nonzero" stroke-width="1"/>
            <path d="M29.83,34.48 C29.83,34.48 28.38,32.67 22.48,33.66 C22.48,33.66 20.03,34.43 19.48,36.2 C19.48,36.2 18.48,38.42 21.57,37.2 C21.57,37.2 26.57,34.8 29.87,36.02 C29.83,36 31,35.89 29.83,34.48 Z" id="Shape" fill="#E3DCDA" fill-rule="nonzero" stroke-width="1"/>
            <path d="M46.3,34.48 C46.3,34.48 47.75,32.67 53.65,33.66 C53.65,33.66 56.1,34.43 56.65,36.2 C56.65,36.2 57.65,38.42 54.56,37.2 C54.56,37.2 49.56,34.8 46.26,36.02 C46.3,36 45.16,35.89 46.3,34.48 Z" id="Shape" fill="#E3DCDA" fill-rule="nonzero" stroke-width="1"/>
            <path d="M21.3,43.92 C21.3,43.92 24.57,41.82 27.56,42.39 C27.56,42.39 29.04,42.84 28.07,41.66 C28.07,41.66 24.14,37.66 20.63,43.08 C20.63,43.09 20.09,44.27 21.3,43.92 Z" id="Shape" fill="#5D4D4E" fill-rule="nonzero" stroke-width="1"/>
            <path d="M53.84,43.92 C53.84,43.92 50.57,41.82 47.58,42.39 C47.58,42.39 46.1,42.84 47.07,41.66 C47.07,41.66 51,37.66 54.51,43.08 C54.5,43.09 55,44.27 53.84,43.92 Z" id="Shape" fill="#5D4D4E" fill-rule="nonzero" stroke-width="1"/>
            <path d="M27.27,25.91 C27.27,25.91 38.27,30.71 48.01,25.91" id="Shape" stroke="#F7DECB" stroke-width="0.75" stroke-linecap="round" stroke-linejoin="round" fill="none"/>
            <path d="M27.27,28.54 C27.27,28.54 38.27,33.34 48.01,28.54" id="Shape" stroke="#F7DECB" stroke-width="0.75" stroke-linecap="round" stroke-linejoin="round" fill="none"/>
            <path d="M20.51,45.38 C20.51,45.38 23.79,48.82 28.39,45.38" id="Shape" stroke="#F7DECB" stroke-width="0.75" stroke-linecap="round" stroke-linejoin="round" fill="none"/>
            <path d="M46.16,46.14 C46.16,46.14 49.45,49.59 54.05,46.14" id="Shape" stroke="#F7DECB" stroke-width="0.75" stroke-linecap="round" stroke-linejoin="round" fill="none"/>
            <path d="M30.46,49.07 C30.46,49.07 31.73,56.54 26.83,57.67" id="Shape" stroke="#F7DECB" stroke-width="0.75" stroke-linecap="round" stroke-linejoin="round" fill="none"/>
            <path d="M45.17,49.07 C45.17,49.07 44.08,56.07 48.26,57.67" id="Shape" stroke="#F7DECB" stroke-width="0.75" stroke-linecap="round" stroke-linejoin="round" fill="none"/>
            <path d="M31.29,52.9 L44.18,52.9 C44.3288295,52.8958242 44.4587268,52.7979492 44.5037772,52.6560404 C44.5488276,52.5141316 44.499169,52.3592547 44.38,52.27 C40.3925133,49.4930268 35.0974867,49.4930268 31.11,52.27 C30.992893,52.3568217 30.9418647,52.5071386 30.9819137,52.6473104 C31.0219628,52.7874821 31.1447015,52.8881513 31.29,52.9 Z" id="Shape" fill="#E3DCDA" fill-rule="nonzero" stroke-width="1"/>
            <path d="M32.91,52.9 L43,52.9 C43,52.9 38.27,59.76 32.91,52.9 Z" id="Shape" fill="#FC8F84" fill-rule="nonzero" stroke-width="1"/>
            <rect id="Rectangle-path" fill="#DD1B2A" fill-rule="nonzero" x="18.26" y="123.56" width="41.39" height="1" rx="0.46" stroke-width="1"/>
            <rect id="Rectangle-path" fill="#DD1B2A" fill-rule="nonzero" x="18.12" y="125.28" width="41.67" height="1" rx="0.46" stroke-width="1"/>
            <rect id="Rectangle-path" fill="#D81624" fill-rule="nonzero" x="38" y="71.55" width="1" height="54.65" rx="0.48" stroke-width="1"/>
            <path d="M40.62,70.94 C40.1736625,70.9469823 39.7860073,71.2489452 39.67,71.68 L37.24,71.68 C37.1239927,71.2489452 36.7363375,70.9469823 36.29,70.94 C35.7702319,70.9281527 35.3280897,71.316565 35.2728691,71.8335272 C35.2176486,72.3504894 35.5677728,72.8235295 36.078316,72.9217373 C36.5888593,73.0199452 37.0894912,72.7105562 37.23,72.21 L39.67,72.21 C39.8105088,72.7105562 40.3111407,73.0199452 40.821684,72.9217373 C41.3322272,72.8235295 41.6823514,72.3504894 41.6271309,71.8335272 C41.5719103,71.316565 41.1297681,70.9281527 40.61,70.94 L40.62,70.94 Z" id="Shape" fill="#D81624" fill-rule="nonzero" stroke-width="1"/>
            <path d="M40.62,80.5 C40.1736625,80.5069823 39.7860073,80.8089452 39.67,81.24 L37.24,81.24 C37.1239927,80.8089452 36.7363375,80.5069823 36.29,80.5 C35.7702319,80.4881527 35.3280897,80.876565 35.2728691,81.3935272 C35.2176486,81.9104894 35.5677728,82.3835295 36.078316,82.4817373 C36.5888593,82.5799452 37.0894912,82.2705562 37.23,81.77 L39.67,81.77 C39.8105088,82.2705562 40.3111407,82.5799452 40.821684,82.4817373 C41.3322272,82.3835295 41.6823514,81.9104894 41.6271309,81.3935272 C41.5719103,80.876565 41.1297681,80.4881527 40.61,80.5 L40.62,80.5 Z" id="Shape" fill="#D81624" fill-rule="nonzero" stroke-width="1"/>
            <path d="M40.62,90.06 C40.1736625,90.0669823 39.7860073,90.3689452 39.67,90.8 L37.24,90.8 C37.1239927,90.3689452 36.7363375,90.0669823 36.29,90.06 C35.7702319,90.0481527 35.3280897,90.436565 35.2728691,90.9535272 C35.2176486,91.4704894 35.5677728,91.9435295 36.078316,92.0417373 C36.5888593,92.1399452 37.0894912,91.8305562 37.23,91.33 L39.67,91.33 C39.8105088,91.8305562 40.3111407,92.1399452 40.821684,92.0417373 C41.3322272,91.9435295 41.6823514,91.4704894 41.6271309,90.9535272 C41.5719103,90.436565 41.1297681,90.0481527 40.61,90.06 L40.62,90.06 Z" id="Shape" fill="#D81624" fill-rule="nonzero" stroke-width="1"/>
            <path d="M40.62,99.62 C40.1736625,99.6269823 39.7860073,99.9289452 39.67,100.36 L37.24,100.36 C37.1239927,99.9289452 36.7363375,99.6269823 36.29,99.62 C35.7702319,99.6081527 35.3280897,99.996565 35.2728691,100.513527 C35.2176486,101.030489 35.5677728,101.503529 36.078316,101.601737 C36.5888593,101.699945 37.0894912,101.390556 37.23,100.89 L39.67,100.89 C39.8105088,101.390556 40.3111407,101.699945 40.821684,101.601737 C41.3322272,101.503529 41.6823514,101.030489 41.6271309,100.513527 C41.5719103,99.996565 41.1297681,99.6081527 40.61,99.62 L40.62,99.62 Z" id="Shape" fill="#D81624" fill-rule="nonzero" stroke-width="1"/>
            <path d="M40.62,109.18 C40.1736625,109.186982 39.7860073,109.488945 39.67,109.92 L37.24,109.92 C37.1239927,109.488945 36.7363375,109.186982 36.29,109.18 C35.7702319,109.168153 35.3280897,109.556565 35.2728691,110.073527 C35.2176486,110.590489 35.5677728,111.063529 36.078316,111.161737 C36.5888593,111.259945 37.0894912,110.950556 37.23,110.45 L39.67,110.45 C39.8105088,110.950556 40.3111407,111.259945 40.821684,111.161737 C41.3322272,111.063529 41.6823514,110.590489 41.6271309,110.073527 C41.5719103,109.556565 41.1297681,109.168153 40.61,109.18 L40.62,109.18 Z" id="Shape" fill="#D81624" fill-rule="nonzero" stroke-width="1"/>
            <path d="M40.62,118.74 C40.1736625,118.746982 39.7860073,119.048945 39.67,119.48 L37.24,119.48 C37.1239927,119.048945 36.7363375,118.746982 36.29,118.74 C35.7702319,118.728153 35.3280897,119.116565 35.2728691,119.633527 C35.2176486,120.150489 35.5677728,120.623529 36.078316,120.721737 C36.5888593,120.819945 37.0894912,120.510556 37.23,120.01 L39.67,120.01 C39.8105088,120.510556 40.3111407,120.819945 40.821684,120.721737 C41.3322272,120.623529 41.6823514,120.150489 41.6271309,119.633527 C41.5719103,119.116565 41.1297681,118.728153 40.61,118.74 L40.62,118.74 Z" id="Shape" fill="#D81624" fill-rule="nonzero" stroke-width="1"/>
            <path d="M23.62,63 C23.62,63 23.81,61.9 25.25,62.36 L32.57,64 C32.57,64 37,64.91 37.07,68.66 L37.83,71.21 L22.82,66 L23.62,63 Z" id="Shape" fill="#FF4D5A" fill-rule="nonzero" stroke-width="1"/>
            <path d="M39.2,71.24 L48.76,65.85 C48.1699886,65.345942 47.8092395,64.6244439 47.76,63.85 C47.76,63.85 47.59,62.1 46.76,62.53 C46.76,62.53 41.56,62.53 39.76,66.84 C39.75,66.86 39.22,67.56 39.2,71.24 Z" id="Shape" fill="#FF4D5A" fill-rule="nonzero" stroke-width="1"/>
            <path d="M33.75,110.6 L22.89,110.6 C22.6939389,110.6 22.535,110.758939 22.535,110.955 C22.535,111.151061 22.6939389,111.31 22.89,111.31 L23.83,111.31 L23.83,116 C23.8354936,117.980422 25.4395777,119.584506 27.42,119.59 L29.21,119.59 C31.1943264,119.590008 32.804488,117.984319 32.81,116 L32.81,111.3 L33.75,111.3 C33.9460611,111.3 34.105,111.141061 34.105,110.945 C34.105,110.748939 33.9460611,110.59 33.75,110.59 L33.75,110.6 Z" id="Shape" fill="#FF4D5A" fill-rule="nonzero" stroke-width="1"/>
            <path d="M55.81,110.6 L45,110.6 C44.8039389,110.6 44.645,110.758939 44.645,110.955 C44.645,111.151061 44.8039389,111.31 45,111.31 L45.94,111.31 L45.94,116 C45.9454936,117.980422 47.5495777,119.584506 49.53,119.59 L51.32,119.59 C53.2847839,119.562716 54.8647312,117.964966 54.87,116 L54.87,111.3 L55.81,111.3 C56.0060611,111.3 56.165,111.141061 56.165,110.945 C56.165,110.748939 56.0060611,110.59 55.81,110.59 L55.81,110.6 Z" id="Shape" fill="#FF4D5A" fill-rule="nonzero" stroke-width="1"/>
            <path d="M49.12,113.26 C49.3154854,113.509897 49.3807847,113.837734 49.2959698,114.143463 C49.2111549,114.449191 48.9862904,114.696531 48.69,114.81 L48.58,114.81 C48.210008,114.904634 47.8247192,114.724554 47.66,114.38 C47.5203543,114.000543 47.6229612,113.57433 47.92,113.3 C48.0765271,113.166246 48.2885358,113.117416 48.4878015,113.169225 C48.6870671,113.221034 48.8484437,113.366944 48.92,113.56 C48.9857878,113.681677 48.9857878,113.828323 48.92,113.95 C48.8855561,114.042045 48.8129683,114.114684 48.7209469,114.149192 C48.6289256,114.1837 48.5264739,114.176701 48.44,114.13 C48.44,114.13 48.2,113.92 48.35,113.74 C48.35,113.74 48.58,113.89 48.66,113.74 C48.74,113.59 48.51,113.3 48.26,113.62 C48.26,113.62 47.84,114.1 48.51,114.29 C48.721501,114.32209 48.9263595,114.200847 49,114 C49.1432707,113.780612 49.118516,113.491807 48.94,113.3 C48.94,113.3 48.93,113.08 49.12,113.26 Z" id="Shape" fill="#FEDB0A" fill-rule="nonzero" stroke-width="1"/>
            <path d="M53.25,113.58 C53.483384,113.630983 53.6811647,113.784833 53.7879986,113.998501 C53.8948324,114.212168 53.8992444,114.462703 53.8,114.68 L53.8,114.76 C53.6385028,115.038644 53.2882102,115.143732 53,115 C52.7334204,114.851681 52.5743968,114.564663 52.59,114.26 C52.6122058,114.107473 52.7063075,113.974889 52.8429609,113.903592 C52.9796143,113.832294 53.1421933,113.830958 53.28,113.9 C53.378485,113.939148 53.4501458,114.025896 53.47,114.13 C53.4982755,114.200079 53.4946624,114.278993 53.4601013,114.346195 C53.4255402,114.413397 53.3634512,114.462237 53.29,114.48 C53.29,114.48 53.05,114.48 53.04,114.3 C53.04,114.3 53.25,114.3 53.22,114.14 C53.19,113.98 52.91,113.97 52.93,114.27 C52.93,114.27 52.93,114.76 53.41,114.52 C53.4922441,114.4829 53.5563697,114.414632 53.5882551,114.33023 C53.6201405,114.245827 53.6171708,114.152212 53.58,114.07 C53.5482592,113.869013 53.382847,113.716007 53.18,113.7 C53.18,113.7 53.06,113.57 53.25,113.58 Z" id="Shape" fill="#FEDB0A" fill-rule="nonzero" stroke-width="1"/>
            <path d="M52,117.37 C52,117.37 50.37,119.25 49.08,117.37 C49.0353453,117.308049 48.9984064,117.240887 48.97,117.17 C48.6436749,116.488053 48.809954,115.672338 49.3771722,115.172535 C49.9443904,114.672732 50.774547,114.610441 51.41,115.02 C51.6890082,115.285031 51.8384689,115.658622 51.8192519,116.042963 C51.8000349,116.427303 51.6140537,116.784122 51.31,117.02 C51.1268627,117.202973 50.8605169,117.275267 50.61,117.21 C50.4273363,117.181182 50.2665579,117.073566 50.1702856,116.91568 C50.0740134,116.757793 50.0519704,116.565582 50.11,116.39 C50.11,116.39 50.39,115.81 50.78,115.99 C50.78,115.99 50.59,116.52 50.88,116.59 C50.88,116.59 51.61,116.04 50.96,115.75 C50.96,115.75 49.96,115.22 49.86,116.6 C49.8346442,116.813528 49.8952326,117.028376 50.028413,117.197196 C50.1615934,117.366017 50.3564351,117.474953 50.57,117.5 C50.57,117.5 51.19,117.8 51.8,116.99 C51.79,117.09 52.23,116.91 52,117.37 Z" id="Shape" fill="#FEDB0A" fill-rule="nonzero" stroke-width="1"/>
            <path d="M48.88,118.12 C48.7300293,118.306005 48.5039331,118.414142 48.265,118.414142 C48.0260669,118.414142 47.7999707,118.306005 47.65,118.12 L47.6,118.04 C47.4470508,117.790211 47.4932277,117.466972 47.71,117.27 C47.9601967,117.091414 48.2905911,117.071979 48.56,117.22 C48.6856593,117.310159 48.7601786,117.455342 48.7601786,117.61 C48.7601786,117.764658 48.6856593,117.909841 48.56,118 C48.4836171,118.074927 48.3739951,118.105167 48.27,118.08 C48.14,118.08 48,117.97 48.03,117.77 C48.03,117.77 48.13,117.55 48.3,117.62 C48.3,117.62 48.24,117.82 48.36,117.85 C48.48,117.88 48.65,117.64 48.36,117.53 C48.36,117.53 47.91,117.33 47.93,117.86 C47.9299204,118.04394 48.0761397,118.19459 48.26,118.2 C48.452947,118.25887 48.6608801,118.175697 48.76,118 C48.76,118 49,117.95 48.88,118.12 Z" id="Shape" fill="#FEDB0A" fill-rule="nonzero" stroke-width="1"/>
            <path d="M50.14,118 C50.1942184,118.313038 50.3939581,118.581688 50.6781164,118.723767 C50.9622747,118.865846 51.2970385,118.864448 51.58,118.72 L51.68,118.66 C52.0136992,118.446845 52.14126,118.021643 51.98,117.66 C51.7883236,117.293555 51.390857,117.082897 50.98,117.13 C50.7818628,117.160447 50.6100422,117.283371 50.5172475,117.461063 C50.4244528,117.638755 50.4217618,117.850002 50.51,118.03 C50.5613437,118.158664 50.6741869,118.2527 50.81,118.28 C50.90139,118.314202 51.0030698,118.307489 51.0891699,118.261569 C51.1752701,118.215649 51.2374902,118.134948 51.26,118.04 C51.26,118.04 51.26,117.72 51.03,117.71 C51.03,117.71 51.03,117.98 50.83,117.94 C50.83,117.94 50.61,117.53 51,117.56 C51,117.56 51.64,117.56 51.33,118.19 C51.2261683,118.40616 50.9710693,118.502921 50.75,118.41 C50.4921126,118.369933 50.2943778,118.15984 50.27,117.9 C50.27,117.9 50.14,117.74 50.14,118 Z" id="Shape" fill="#FEDB0A" fill-rule="nonzero" stroke-width="1"/>
            <path d="M52.87,116.12 C52.9177835,116.331577 53.0571806,116.510948 53.2504081,116.609494 C53.4436356,116.70804 53.6706795,116.715554 53.87,116.63 L53.94,116.63 C54.1651154,116.479157 54.2529136,116.190678 54.15,115.94 C54.0121256,115.691271 53.7439106,115.543558 53.46,115.56 C53.318015,115.57948 53.1944139,115.66689 53.1287341,115.794269 C53.0630543,115.921648 53.0635266,116.073033 53.13,116.2 C53.1650358,116.291667 53.2440535,116.359396 53.34,116.38 C53.4048708,116.40495 53.4773722,116.400553 53.5387519,116.367945 C53.6001315,116.335337 53.6443608,116.277721 53.66,116.21 C53.66,116.21 53.66,115.99 53.5,115.98 C53.5,115.98 53.5,116.17 53.36,116.15 C53.22,116.13 53.2,115.86 53.48,115.88 C53.48,115.88 53.93,115.88 53.71,116.33 C53.6375255,116.483768 53.4574705,116.554034 53.3,116.49 C53.1170843,116.463004 52.9765083,116.314159 52.96,116.13 C52.96,116.13 52.87,115.93 52.87,116.12 Z" id="Shape" fill="#FEDB0A" fill-rule="nonzero" stroke-width="1"/>
            <path d="M47.29,116.68 C47.4957116,116.591601 47.6503379,116.414816 47.7105642,116.199167 C47.7707905,115.983518 47.7301401,115.752196 47.6,115.57 L47.54,115.51 C47.3485523,115.309251 47.0403814,115.275479 46.81,115.43 C46.5908786,115.616349 46.4976402,115.911604 46.57,116.19 C46.6171783,116.326964 46.7274073,116.432841 46.8661599,116.474467 C47.0049125,116.516093 47.1552195,116.488377 47.27,116.4 C47.3544477,116.349017 47.4071888,116.258604 47.41,116.16 C47.41,116.04 47.41,115.89 47.18,115.87 C47.18,115.87 46.96,115.87 46.98,116.08 C46.98,116.08 47.18,116.08 47.17,116.19 C47.16,116.3 46.91,116.4 46.88,116.12 C46.88,116.12 46.8,115.67 47.28,115.8 C47.4464092,115.844167 47.5480436,116.012085 47.51,116.18 C47.5169215,116.369621 47.392826,116.539218 47.21,116.59 C47.21,116.59 47.11,116.72 47.29,116.68 Z" id="Shape" fill="#FEDB0A" fill-rule="nonzero" stroke-width="1"/>
            <path d="M49.9,114.43 C49.9542184,114.743038 50.1539581,115.011688 50.4381164,115.153767 C50.7222747,115.295846 51.0570385,115.294448 51.34,115.15 L51.44,115.09 C51.7736992,114.876845 51.90126,114.451643 51.74,114.09 C51.5483236,113.723555 51.150857,113.512897 50.74,113.56 C50.5418628,113.590447 50.3700422,113.713371 50.2772475,113.891063 C50.1844528,114.068755 50.1817618,114.280002 50.27,114.46 C50.3213437,114.588664 50.4341869,114.6827 50.57,114.71 C50.66139,114.744202 50.7630698,114.737489 50.8491699,114.691569 C50.9352701,114.645649 50.9974902,114.564948 51.02,114.47 C51.02,114.47 51.02,114.15 50.79,114.14 C50.79,114.14 50.79,114.41 50.59,114.37 C50.59,114.37 50.37,113.96 50.76,113.99 C50.76,113.99 51.4,113.99 51.09,114.62 C50.9861683,114.83616 50.7310693,114.932921 50.51,114.84 C50.2521126,114.799933 50.0543778,114.58984 50.03,114.33 C50.03,114.33 49.89,114.17 49.9,114.43 Z" id="Shape" fill="#FEDB0A" fill-rule="nonzero" stroke-width="1"/>
            <path d="M53.95,118 C53.9048179,118.227307 53.7570886,118.420959 53.5498013,118.524603 C53.3425141,118.628246 53.098955,118.630239 52.89,118.53 L52.81,118.53 C52.5780641,118.375085 52.4862937,118.078917 52.59,117.82 C52.7318898,117.564195 53.0080003,117.412528 53.3,117.43 C53.4449069,117.452801 53.5702505,117.543346 53.6374281,117.673749 C53.7046056,117.804153 53.705561,117.958776 53.64,118.09 C53.6015495,118.183139 53.5189089,118.250754 53.42,118.27 C53.3538017,118.294992 53.280113,118.290762 53.21721,118.258357 C53.1543071,118.225952 53.1080822,118.16841 53.09,118.1 C53.09,118.1 53.09,117.87 53.26,117.86 C53.26,117.86 53.26,118.06 53.41,118.03 C53.56,118 53.57,117.73 53.28,117.75 C53.28,117.75 52.81,117.75 53.04,118.21 C53.1167503,118.370546 53.3069716,118.441326 53.47,118.37 C53.6599864,118.33855 53.8042453,118.181926 53.82,117.99 C53.82,117.99 54,117.81 53.95,118 Z" id="Shape" fill="#FEDB0A" fill-rule="nonzero" stroke-width="1"/>
            <path d="M51.94,112.36 C51.8806051,112.628981 51.7025675,112.856582 51.4558004,112.978994 C51.2090332,113.101406 50.9200986,113.105453 50.67,112.99 L50.58,112.94 C50.2962366,112.754548 50.1831557,112.394364 50.31,112.08 C50.4824189,111.770975 50.8167993,111.588232 51.17,111.61 C51.3470283,111.63506 51.5008281,111.744607 51.5823741,111.903721 C51.6639201,112.062835 51.6630346,112.251658 51.58,112.41 C51.5356975,112.522285 51.4380691,112.604894 51.32,112.63 C51.2392609,112.661232 51.148966,112.656064 51.0723177,112.615823 C50.9956695,112.575583 50.9401406,112.504194 50.92,112.42 C50.92,112.42 50.92,112.14 51.13,112.13 C51.13,112.13 51.13,112.37 51.31,112.34 C51.49,112.31 51.51,111.98 51.16,112.01 C51.16,112.01 50.6,112.01 50.87,112.57 C50.9604106,112.761087 51.1866015,112.845354 51.38,112.76 C51.6140095,112.727512 51.7933441,112.535666 51.81,112.3 C51.81,112.3 51.95,112.13 51.94,112.36 Z" id="Shape" fill="#FEDB0A" fill-rule="nonzero" stroke-width="1"/>
            <path d="M26.67,113.26 C26.8654854,113.509897 26.9307847,113.837734 26.8459698,114.143463 C26.7611549,114.449191 26.5362904,114.696531 26.24,114.81 L26.13,114.81 C25.760008,114.904634 25.3747192,114.724554 25.21,114.38 C25.0703543,114.000543 25.1729612,113.57433 25.47,113.3 C25.6265271,113.166246 25.8385358,113.117416 26.0378015,113.169225 C26.2370671,113.221034 26.3984437,113.366944 26.47,113.56 C26.5357878,113.681677 26.5357878,113.828323 26.47,113.95 C26.4355561,114.042045 26.3629683,114.114684 26.2709469,114.149192 C26.1789256,114.1837 26.0764739,114.176701 25.99,114.13 C25.99,114.13 25.75,113.92 25.9,113.74 C25.9,113.74 26.13,113.89 26.21,113.74 C26.29,113.59 26.06,113.3 25.81,113.62 C25.81,113.62 25.39,114.1 26.06,114.29 C26.2885401,114.356891 26.5296284,114.234155 26.61,114.01 C26.7532707,113.790612 26.728516,113.501807 26.55,113.31 C26.55,113.31 26.49,113.08 26.67,113.26 Z" id="Shape" fill="#FEDB0A" fill-rule="nonzero" stroke-width="1"/>
            <path d="M30.81,113.58 C31.043384,113.630983 31.2411647,113.784833 31.3479986,113.998501 C31.4548324,114.212168 31.4592444,114.462703 31.36,114.68 L31.36,114.76 C31.1989829,115.008569 30.8826854,115.105567 30.61,114.99 C30.3434204,114.841681 30.1843968,114.554663 30.2,114.25 C30.2222058,114.097473 30.3163075,113.964889 30.4529609,113.893592 C30.5896143,113.822294 30.7521933,113.820958 30.89,113.89 C30.988485,113.929148 31.0601458,114.015896 31.08,114.12 C31.1082755,114.190079 31.1046624,114.268993 31.0701013,114.336195 C31.0355402,114.403397 30.9734512,114.452237 30.9,114.47 C30.9,114.47 30.66,114.47 30.65,114.29 C30.65,114.29 30.86,114.29 30.83,114.13 C30.8,113.97 30.52,113.96 30.54,114.26 C30.54,114.26 30.54,114.75 31.02,114.51 C31.1022441,114.4729 31.1663697,114.404632 31.1982551,114.32023 C31.2301405,114.235827 31.2271708,114.142212 31.19,114.06 C31.1582592,113.859013 30.992847,113.706007 30.79,113.69 C30.79,113.69 30.61,113.57 30.81,113.58 Z" id="Shape" fill="#FEDB0A" fill-rule="nonzero" stroke-width="1"/>
            <path d="M29.53,117.37 C29.53,117.37 27.9,119.25 26.61,117.37 C26.5653453,117.308049 26.5284064,117.240887 26.5,117.17 C26.1736749,116.488053 26.339954,115.672338 26.9071722,115.172535 C27.4743904,114.672732 28.304547,114.610441 28.94,115.02 C29.2190082,115.285031 29.3684689,115.658622 29.3492519,116.042963 C29.3300349,116.427303 29.1440537,116.784122 28.84,117.02 C28.6568627,117.202973 28.3905169,117.275267 28.14,117.21 C27.9573363,117.181182 27.7965579,117.073566 27.7002856,116.91568 C27.6040134,116.757793 27.5819704,116.565582 27.64,116.39 C27.64,116.39 27.92,115.81 28.31,115.99 C28.31,115.99 28.12,116.52 28.41,116.59 C28.41,116.59 29.14,116.04 28.49,115.75 C28.49,115.75 27.49,115.22 27.39,116.6 C27.3646442,116.813528 27.4252326,117.028376 27.558413,117.197196 C27.6915934,117.366017 27.8864351,117.474953 28.1,117.5 C28.1,117.5 28.72,117.8 29.33,116.99 C29.34,117.09 29.78,116.91 29.53,117.37 Z" id="Shape" fill="#FEDB0A" fill-rule="nonzero" stroke-width="1"/>
            <path d="M26.43,118.12 C26.2800293,118.306005 26.0539331,118.414142 25.815,118.414142 C25.5760669,118.414142 25.3499707,118.306005 25.2,118.12 L25.15,118.04 C24.9970508,117.790211 25.0432277,117.466972 25.26,117.27 C25.5101967,117.091414 25.8405911,117.071979 26.11,117.22 C26.2356593,117.310159 26.3101786,117.455342 26.3101786,117.61 C26.3101786,117.764658 26.2356593,117.909841 26.11,118 C26.0336171,118.074927 25.9239951,118.105167 25.82,118.08 C25.69,118.08 25.55,117.97 25.58,117.77 C25.58,117.77 25.68,117.55 25.85,117.62 C25.85,117.62 25.79,117.82 25.91,117.85 C26.03,117.88 26.2,117.64 25.91,117.53 C25.91,117.53 25.46,117.33 25.48,117.86 C25.4799204,118.04394 25.6261397,118.19459 25.81,118.2 C26.002947,118.25887 26.2108801,118.175697 26.31,118 C26.31,118 26.52,117.95 26.43,118.12 Z" id="Shape" fill="#FEDB0A" fill-rule="nonzero" stroke-width="1"/>
            <path d="M27.7,118 C27.7542184,118.313038 27.9539581,118.581688 28.2381164,118.723767 C28.5222747,118.865846 28.8570385,118.864448 29.14,118.72 L29.24,118.66 C29.5736992,118.446845 29.70126,118.021643 29.54,117.66 C29.3483236,117.293555 28.950857,117.082897 28.54,117.13 C28.3418628,117.160447 28.1700422,117.283371 28.0772475,117.461063 C27.9844528,117.638755 27.9817618,117.850002 28.07,118.03 C28.1213437,118.158664 28.2341869,118.2527 28.37,118.28 C28.46139,118.314202 28.5630698,118.307489 28.6491699,118.261569 C28.7352701,118.215649 28.7974902,118.134948 28.82,118.04 C28.82,118.04 28.82,117.72 28.59,117.71 C28.59,117.71 28.59,117.98 28.39,117.94 C28.39,117.94 28.17,117.53 28.56,117.56 C28.56,117.56 29.2,117.56 28.89,118.19 C28.7861683,118.40616 28.5310693,118.502921 28.31,118.41 C28.0521126,118.369933 27.8543778,118.15984 27.83,117.9 C27.83,117.9 27.69,117.74 27.7,118 Z" id="Shape" fill="#FEDB0A" fill-rule="nonzero" stroke-width="1"/>
            <path d="M30.43,116.12 C30.4777835,116.331577 30.6171806,116.510948 30.8104081,116.609494 C31.0036356,116.70804 31.2306795,116.715554 31.43,116.63 L31.5,116.63 C31.7251154,116.479157 31.8129136,116.190678 31.71,115.94 C31.5721256,115.691271 31.3039106,115.543558 31.02,115.56 C30.878015,115.57948 30.7544139,115.66689 30.6887341,115.794269 C30.6230543,115.921648 30.6235266,116.073033 30.69,116.2 C30.7250358,116.291667 30.8040535,116.359396 30.9,116.38 C30.9648708,116.40495 31.0373722,116.400553 31.0987519,116.367945 C31.1601315,116.335337 31.2043608,116.277721 31.22,116.21 C31.22,116.21 31.22,115.99 31.06,115.98 C31.06,115.98 31.06,116.17 30.92,116.15 C30.78,116.13 30.76,115.86 31.04,115.88 C31.04,115.88 31.49,115.88 31.27,116.33 C31.1975255,116.483768 31.0174705,116.554034 30.86,116.49 C30.6770843,116.463004 30.5365083,116.314159 30.52,116.13 C30.52,116.13 30.42,115.93 30.43,116.12 Z" id="Shape" fill="#FEDB0A" fill-rule="nonzero" stroke-width="1"/>
            <path d="M24.84,116.68 C25.0457116,116.591601 25.2003379,116.414816 25.2605642,116.199167 C25.3207905,115.983518 25.2801401,115.752196 25.15,115.57 L25.09,115.51 C24.8985523,115.309251 24.5903814,115.275479 24.36,115.43 C24.1408786,115.616349 24.0476402,115.911604 24.12,116.19 C24.1671783,116.326964 24.2774073,116.432841 24.4161599,116.474467 C24.5549125,116.516093 24.7052195,116.488377 24.82,116.4 C24.9044477,116.349017 24.9571888,116.258604 24.96,116.16 C24.96,116.04 24.96,115.89 24.73,115.87 C24.73,115.87 24.51,115.87 24.53,116.08 C24.53,116.08 24.73,116.08 24.72,116.19 C24.71,116.3 24.46,116.4 24.43,116.12 C24.43,116.12 24.35,115.67 24.83,115.8 C24.9964092,115.844167 25.0980436,116.012085 25.06,116.18 C25.0669215,116.369621 24.942826,116.539218 24.76,116.59 C24.76,116.59 24.66,116.72 24.84,116.68 Z" id="Shape" fill="#FEDB0A" fill-rule="nonzero" stroke-width="1"/>
            <path d="M27.45,114.43 C27.5042184,114.743038 27.7039581,115.011688 27.9881164,115.153767 C28.2722747,115.295846 28.6070385,115.294448 28.89,115.15 L28.99,115.09 C29.3236992,114.876845 29.45126,114.451643 29.29,114.09 C29.0983236,113.723555 28.700857,113.512897 28.29,113.56 C28.0918628,113.590447 27.9200422,113.713371 27.8272475,113.891063 C27.7344528,114.068755 27.7317618,114.280002 27.82,114.46 C27.8713437,114.588664 27.9841869,114.6827 28.12,114.71 C28.21139,114.744202 28.3130698,114.737489 28.3991699,114.691569 C28.4852701,114.645649 28.5474902,114.564948 28.57,114.47 C28.57,114.47 28.57,114.15 28.34,114.14 C28.34,114.14 28.34,114.41 28.14,114.37 C28.14,114.37 27.92,113.96 28.31,113.99 C28.31,113.99 28.95,113.99 28.64,114.62 C28.5361683,114.83616 28.2810693,114.932921 28.06,114.84 C27.8021126,114.799933 27.6043778,114.58984 27.58,114.33 C27.58,114.33 27.45,114.17 27.45,114.43 Z" id="Shape" fill="#FEDB0A" fill-rule="nonzero" stroke-width="1"/>
            <path d="M31.5,118 C31.4548179,118.227307 31.3070886,118.420959 31.0998013,118.524603 C30.8925141,118.628246 30.648955,118.630239 30.44,118.53 L30.36,118.53 C30.1280641,118.375085 30.0362937,118.078917 30.14,117.82 C30.2818898,117.564195 30.5580003,117.412528 30.85,117.43 C30.9949069,117.452801 31.1202505,117.543346 31.1874281,117.673749 C31.2546056,117.804153 31.255561,117.958776 31.19,118.09 C31.1515495,118.183139 31.0689089,118.250754 30.97,118.27 C30.9038017,118.294992 30.830113,118.290762 30.76721,118.258357 C30.7043071,118.225952 30.6580822,118.16841 30.64,118.1 C30.64,118.1 30.64,117.87 30.81,117.86 C30.81,117.86 30.81,118.06 30.96,118.03 C31.11,118 31.12,117.73 30.83,117.75 C30.83,117.75 30.36,117.75 30.59,118.21 C30.6667503,118.370546 30.8569716,118.441326 31.02,118.37 C31.2099864,118.33855 31.3542453,118.181926 31.37,117.99 C31.37,117.99 31.5,117.81 31.5,118 Z" id="Shape" fill="#FEDB0A" fill-rule="nonzero" stroke-width="1"/>
            <path d="M29.49,112.36 C29.4306051,112.628981 29.2525675,112.856582 29.0058004,112.978994 C28.7590332,113.101406 28.4700986,113.105453 28.22,112.99 L28.13,112.94 C27.8462366,112.754548 27.7331557,112.394364 27.86,112.08 C28.0324189,111.770975 28.3667993,111.588232 28.72,111.61 C28.8970283,111.63506 29.0508281,111.744607 29.1323741,111.903721 C29.2139201,112.062835 29.2130346,112.251658 29.13,112.41 C29.0856975,112.522285 28.9880691,112.604894 28.87,112.63 C28.7892609,112.661232 28.698966,112.656064 28.6223177,112.615823 C28.5456695,112.575583 28.4901406,112.504194 28.47,112.42 C28.47,112.42 28.47,112.14 28.68,112.13 C28.68,112.13 28.68,112.37 28.86,112.34 C29.04,112.31 29.06,111.98 28.71,112.01 C28.71,112.01 28.15,112.01 28.42,112.57 C28.5104106,112.761087 28.7366015,112.845354 28.93,112.76 C29.1640095,112.727512 29.3433441,112.535666 29.36,112.3 C29.36,112.3 29.5,112.13 29.49,112.36 Z" id="Shape" fill="#FEDB0A" fill-rule="nonzero" stroke-width="1"/>
            <path d="M29.43,97.31 C29.43,97.31 24.92,101.16 26.53,102.79 L34.61,106.64 L37.92,101 L29.43,97.31 Z" id="Shape" fill="#FCEAD9" fill-rule="nonzero" stroke-width="1"/>
            <path d="M53.59,95.81 C53.59,95.81 56.79,99.99 55.59,102.65 L46.8,105.43 L45.37,99.91 L53.59,95.81 Z" id="Shape" fill="#FCEAD9" fill-rule="nonzero" stroke-width="1"/>
            <path d="M36.13,100.24 C36.65,101.37 38.13,99.04 39.34,98.94 C41.66,98.75 44.28,100.09 45.93,104.25 C45.93,104.25 44.27,112.66 38.32,110.85 C37.1396226,110.391332 36.0571054,109.712637 35.13,108.85 C34.19,107.69 33.23,104.76 32.05,102.15" id="Shape" fill="#FCEAD9" fill-rule="nonzero" stroke-width="1"/>
            <path d="M46.81,100.41 C46.38,101.52 44.52,98.69 43.48,98.5 C41.93,98.22 37.8,100.9 36.85,104.07 C36.6990028,105.237165 36.8576428,106.423516 37.31,107.51 C39.1838749,109.823886 42.5019767,110.350295 45,108.73 C46.1792348,107.857759 47.0959736,106.678107 47.65,105.32 C48.21,104.05 49.56,103.07 50.6,100.7" id="Shape" fill="#FCEAD9" fill-rule="nonzero" stroke-width="1"/>
        </g>
    </g>
</svg>