<?xml version="1.0" encoding="UTF-8" standalone="no"?><svg xmlns="http://www.w3.org/2000/svg" xmlns:xlink="http://www.w3.org/1999/xlink" width="82.61780548095703" height="208.75498962402344" viewBox="-0.27611398696899414 0.1753673553466797 82.61780548095703 208.75498962402344" version="1.1">
    <!-- Generator: Sketch 46.2 (44496) - http://www.bohemiancoding.com/sketch -->
    <title>Grandpa-a</title>
    <desc>Created with Sketch.</desc>
    <defs/>
    <g id="Page-1" stroke="none" fill-rule="evenodd">
        <g id="Grandpa-a">
            <polygon id="Shape" fill="#FCEAD9" fill-rule="nonzero" points="32.28 59.03 32.28 73.83 44.16 73.83 44.16 58.21" stroke-width="1"/>
            <path d="M28,196.72 C28,196.72 29.06,200.26 35,197.32 C35,197.32 37.88,196.32 36.64,199.61 C36.64,199.61 36.09,205.71 28.83,208.22 C28.83,208.22 18.48,209.8 19.38,204.3 C19.38,204.3 18.87,202.73 23.7,200.16 C23.76,200.15 28.69,198.73 28,196.72 Z" id="Shape" fill="#FF3035" fill-rule="nonzero" stroke-width="1"/>
            <path d="M58.3,196.72 C58.3,196.72 57.24,200.26 51.3,197.32 C51.3,197.32 48.42,196.32 49.66,199.61 C49.66,199.61 50.21,205.71 57.47,208.22 C57.47,208.22 67.82,209.8 66.92,204.3 C66.92,204.3 67.43,202.73 62.6,200.16 C62.58,200.15 57.65,198.73 58.3,196.72 Z" id="Shape" fill="#FF3035" fill-rule="nonzero" stroke-width="1"/>
            <path d="M21.75,124.49 L59.44,124.49 L62,192.79 L46.27,192.79 L41.88,139.52 C41.88,139.52 40.69,138.72 40.26,139.52 L38.54,194.61 L25.09,194.61 L21.75,124.49 Z" id="Shape" fill="#FF3035" fill-rule="nonzero" stroke-width="1"/>
            <path d="M24.54,192.37 C24.54,192.37 33.76,193.37 38.76,191.93 L38.76,198.06 C34.2255023,199.921763 29.1651813,200.053431 24.54,198.43 L24.54,192.37 Z" id="Shape" fill="#FF4D5A" fill-rule="nonzero" stroke-width="1"/>
            <path d="M45.86,192.37 C45.86,192.37 56.33,193.37 62.01,191.93 L62.01,198.06 C56.8082212,199.92599 51.1417766,200.055809 45.86,198.43 L45.86,192.37 Z" id="Shape" fill="#FF4D5A" fill-rule="nonzero" stroke-width="1"/>
            <rect id="Rectangle-path" fill="#DD1B2A" fill-rule="nonzero" x="19.49" y="123.56" width="41.39" height="1" rx="0.46" stroke-width="1"/>
            <rect id="Rectangle-path" fill="#DD1B2A" fill-rule="nonzero" x="19.35" y="125.28" width="41.67" height="1" rx="0.46" stroke-width="1"/>
            <path d="M78.42,86.29 L65.36,70.89 C63.782675,69.1407753 61.6275856,68.0188507 59.29,67.73 L51.85,66.64 C50.3578111,66.57216 49.1428526,65.4168837 49,63.93 L49,63.93 C48.77,62.05 48,62.55 48,62.55 L47.8,62.55 C43.8,62.75 40.67,65.45 40.67,68.66 L40.67,71 C39.67,72.52 38.88,71 38.88,71 L38.13,67.83 C37.5,64.99 34.7,64.09 32.59,63.83 C30.515573,63.5859504 28.4757338,63.1061856 26.51,62.4 L26.51,62.4 C25.8830448,62.1335269 25.158163,62.418143 24.88,63.04 C24.67,63.78 24.7,67.12 21.95,67.71 C19.4784021,67.9796895 17.1011729,68.8108646 15,70.14 C13.9879149,70.8678559 13.1084478,71.7642358 12.4,72.79 L3.4,88.61 C3.4,88.61 -5.25,96.39 6,97.06 L21,95.84 C20.83,108.61 19.25,127.3 19.25,127.3 L61.44,126.3 C59.7,120.68 59.73,106.03 59.94,94.84 L76.19,94.57 C87.44,93.55 78.42,86.29 78.42,86.29 Z M20.34,84.12 L20.51,84.46 C20.6669897,84.9639884 20.7676046,85.4838321 20.81,86.01 L17.81,86.54 L20.34,84.12 Z M60.17,84.29 C60.17,83 60.24,82.29 60.24,82.29 L60.34,81.82 L64.93,85.65 L60.17,84.29 Z" id="Shape" fill="#FF3035" fill-rule="nonzero" stroke-width="1"/>
            <path d="M16.83,31.71 C16.83,31.71 14.22,53.71 26.65,58.12 C29.2436382,59.3807544 31.9158445,60.4730188 34.65,61.39 C37.5539901,62.9249358 41.0363925,62.8910895 43.91,61.3 C43.91,61.3 53.62,58.12 55.71,55.4 C60.7311245,48.6041441 62.4951178,39.9378866 60.53,31.72 C60.53,31.72 58.34,17.72 50.81,15.66 C50.79,15.65 22.8,2.94 16.83,31.71 Z" id="Shape" fill="#FCEAD9" fill-rule="nonzero" stroke-width="1"/>
            <path d="M17.74,44.91 C17.74,44.91 11.93,44.27 12.66,36.47 C12.66,36.47 12.93,32.75 17.74,32.66" id="Shape" fill="#FCEAD9" fill-rule="nonzero" stroke-width="1"/>
            <path d="M60.51,44.91 C60.51,44.91 66.32,44.27 65.59,36.47 C65.59,36.47 65.32,32.75 60.51,32.66" id="Shape" fill="#FCEAD9" fill-rule="nonzero" stroke-width="1"/>
            <path d="M21.63,8.53 C21.63,8.53 25.8,-4.27 50.76,2.81 C50.76,2.81 67.09,10.16 65.55,29.67 C65.55,29.67 65.1,38.74 60.65,41.38 C60.65,41.38 62.37,23.87 51.85,17.6 C51.85,17.6 38.78,29.4 24.72,17.78 C24.72,17.78 15.01,23.22 16.72,42.28 C16.72,42.28 8.55,35.79 11.37,21.48 C11.38,21.48 11.92,11.52 21.63,8.53 Z" id="Shape" fill="#E3DDD8" fill-rule="nonzero" stroke-width="1"/>
            <path d="M31.06,34.48 C31.06,34.48 29.61,32.67 23.71,33.66 C23.71,33.66 21.26,34.43 20.71,36.2 C20.71,36.2 19.71,38.42 22.8,37.2 C22.8,37.2 27.8,34.8 31.1,36.02 C31.06,36 32.19,35.89 31.06,34.48 Z" id="Shape" fill="#E3DCDA" fill-rule="nonzero" stroke-width="1"/>
            <path d="M47.53,34.48 C47.53,34.48 48.98,32.67 54.88,33.66 C54.88,33.66 57.33,34.43 57.88,36.2 C57.88,36.2 58.88,38.42 55.79,37.2 C55.79,37.2 50.79,34.8 47.49,36.02 C47.53,36 46.39,35.89 47.53,34.48 Z" id="Shape" fill="#E3DCDA" fill-rule="nonzero" stroke-width="1"/>
            <path d="M22.53,43.92 C22.53,43.92 25.8,41.82 28.79,42.39 C28.79,42.39 30.27,42.84 29.3,41.66 C29.3,41.66 25.37,37.66 21.86,43.08 C21.86,43.09 21.32,44.27 22.53,43.92 Z" id="Shape" fill="#5D4D4E" fill-rule="nonzero" stroke-width="1"/>
            <path d="M55.07,43.92 C55.07,43.92 51.8,41.82 48.81,42.39 C48.81,42.39 47.33,42.84 48.3,41.66 C48.3,41.66 52.23,37.66 55.74,43.08 C55.74,43.09 56.28,44.27 55.07,43.92 Z" id="Shape" fill="#5D4D4E" fill-rule="nonzero" stroke-width="1"/>
            <path d="M28.5,25.91 C28.5,25.91 39.5,30.71 49.24,25.91" id="Shape" stroke="#F7DECB" stroke-width="0.75" stroke-linecap="round" stroke-linejoin="round" fill="none"/>
            <path d="M28.5,28.54 C28.5,28.54 39.5,33.34 49.24,28.54" id="Shape" stroke="#F7DECB" stroke-width="0.75" stroke-linecap="round" stroke-linejoin="round" fill="none"/>
            <path d="M21.74,45.38 C21.74,45.38 25.02,48.82 29.62,45.38" id="Shape" stroke="#F7DECB" stroke-width="0.75" stroke-linecap="round" stroke-linejoin="round" fill="none"/>
            <path d="M47.39,46.14 C47.39,46.14 50.68,49.59 55.28,46.14" id="Shape" stroke="#F7DECB" stroke-width="0.75" stroke-linecap="round" stroke-linejoin="round" fill="none"/>
            <path d="M31.69,49.07 C31.69,49.07 32.96,56.54 28.06,57.67" id="Shape" stroke="#F7DECB" stroke-width="0.75" stroke-linecap="round" stroke-linejoin="round" fill="none"/>
            <path d="M46.4,49.07 C46.4,49.07 45.31,56.07 49.49,57.67" id="Shape" stroke="#F7DECB" stroke-width="0.75" stroke-linecap="round" stroke-linejoin="round" fill="none"/>
            <path d="M32.52,52.9 L45.41,52.9 C45.5588295,52.8958242 45.6887268,52.7979492 45.7337772,52.6560404 C45.7788276,52.5141316 45.729169,52.3592547 45.61,52.27 C41.6225133,49.4930268 36.3274867,49.4930268 32.34,52.27 C32.222893,52.3568217 32.1718647,52.5071386 32.2119137,52.6473104 C32.2519628,52.7874821 32.3747015,52.8881513 32.52,52.9 L32.52,52.9 Z" id="Shape" fill="#E3DCDA" fill-rule="nonzero" stroke-width="1"/>
            <path d="M34.14,52.9 L44.22,52.9 C44.22,52.9 39.5,59.76 34.14,52.9 Z" id="Shape" fill="#FC8F84" fill-rule="nonzero" stroke-width="1"/>
            <rect id="Rectangle-path" fill="#D81624" fill-rule="nonzero" x="39.23" y="71.55" width="1" height="54.65" rx="0.48" stroke-width="1"/>
            <path d="M41.85,70.94 C41.4036625,70.9469823 41.0160073,71.2489452 40.9,71.68 L38.47,71.68 C38.3539927,71.2489452 37.9663375,70.9469823 37.52,70.94 C37.0002319,70.9281527 36.5580897,71.316565 36.5028691,71.8335272 C36.4476486,72.3504894 36.7977728,72.8235295 37.308316,72.9217373 C37.8188593,73.0199452 38.3194912,72.7105562 38.46,72.21 L40.9,72.21 C41.0405088,72.7105562 41.5411407,73.0199452 42.051684,72.9217373 C42.5622272,72.8235295 42.9123514,72.3504894 42.8571309,71.8335272 C42.8019103,71.316565 42.3597681,70.9281527 41.84,70.94 L41.85,70.94 Z" id="Shape" fill="#D81624" fill-rule="nonzero" stroke-width="1"/>
            <path d="M41.85,80.5 C41.4036625,80.5069823 41.0160073,80.8089452 40.9,81.24 L38.47,81.24 C38.3539927,80.8089452 37.9663375,80.5069823 37.52,80.5 C37.0002319,80.4881527 36.5580897,80.876565 36.5028691,81.3935272 C36.4476486,81.9104894 36.7977728,82.3835295 37.308316,82.4817373 C37.8188593,82.5799452 38.3194912,82.2705562 38.46,81.77 L40.9,81.77 C41.0405088,82.2705562 41.5411407,82.5799452 42.051684,82.4817373 C42.5622272,82.3835295 42.9123514,81.9104894 42.8571309,81.3935272 C42.8019103,80.876565 42.3597681,80.4881527 41.84,80.5 L41.85,80.5 Z" id="Shape" fill="#D81624" fill-rule="nonzero" stroke-width="1"/>
            <path d="M41.85,90.06 C41.4036625,90.0669823 41.0160073,90.3689452 40.9,90.8 L38.47,90.8 C38.3539927,90.3689452 37.9663375,90.0669823 37.52,90.06 C37.0002319,90.0481527 36.5580897,90.436565 36.5028691,90.9535272 C36.4476486,91.4704894 36.7977728,91.9435295 37.308316,92.0417373 C37.8188593,92.1399452 38.3194912,91.8305562 38.46,91.33 L40.9,91.33 C41.0405088,91.8305562 41.5411407,92.1399452 42.051684,92.0417373 C42.5622272,91.9435295 42.9123514,91.4704894 42.8571309,90.9535272 C42.8019103,90.436565 42.3597681,90.0481527 41.84,90.06 L41.85,90.06 Z" id="Shape" fill="#D81624" fill-rule="nonzero" stroke-width="1"/>
            <path d="M41.85,99.62 C41.4036625,99.6269823 41.0160073,99.9289452 40.9,100.36 L38.47,100.36 C38.3539927,99.9289452 37.9663375,99.6269823 37.52,99.62 C37.0002319,99.6081527 36.5580897,99.996565 36.5028691,100.513527 C36.4476486,101.030489 36.7977728,101.503529 37.308316,101.601737 C37.8188593,101.699945 38.3194912,101.390556 38.46,100.89 L40.9,100.89 C41.0405088,101.390556 41.5411407,101.699945 42.051684,101.601737 C42.5622272,101.503529 42.9123514,101.030489 42.8571309,100.513527 C42.8019103,99.996565 42.3597681,99.6081527 41.84,99.62 L41.85,99.62 Z" id="Shape" fill="#D81624" fill-rule="nonzero" stroke-width="1"/>
            <path d="M41.85,109.18 C41.4036625,109.186982 41.0160073,109.488945 40.9,109.92 L38.47,109.92 C38.3539927,109.488945 37.9663375,109.186982 37.52,109.18 C37.0002319,109.168153 36.5580897,109.556565 36.5028691,110.073527 C36.4476486,110.590489 36.7977728,111.063529 37.308316,111.161737 C37.8188593,111.259945 38.3194912,110.950556 38.46,110.45 L40.9,110.45 C41.0405088,110.950556 41.5411407,111.259945 42.051684,111.161737 C42.5622272,111.063529 42.9123514,110.590489 42.8571309,110.073527 C42.8019103,109.556565 42.3597681,109.168153 41.84,109.18 L41.85,109.18 Z" id="Shape" fill="#D81624" fill-rule="nonzero" stroke-width="1"/>
            <path d="M41.85,118.74 C41.4036625,118.746982 41.0160073,119.048945 40.9,119.48 L38.47,119.48 C38.3539927,119.048945 37.9663375,118.746982 37.52,118.74 C37.0002319,118.728153 36.5580897,119.116565 36.5028691,119.633527 C36.4476486,120.150489 36.7977728,120.623529 37.308316,120.721737 C37.8188593,120.819945 38.3194912,120.510556 38.46,120.01 L40.9,120.01 C41.0405088,120.510556 41.5411407,120.819945 42.051684,120.721737 C42.5622272,120.623529 42.9123514,120.150489 42.8571309,119.633527 C42.8019103,119.116565 42.3597681,118.728153 41.84,118.74 L41.85,118.74 Z" id="Shape" fill="#D81624" fill-rule="nonzero" stroke-width="1"/>
            <path d="M31,86.86 C31,86.86 29.76,92.41 32,92.67 L40.69,90.73 L39.89,84.54 L31,86.86 Z" id="Shape" fill="#FCEAD9" fill-rule="nonzero" stroke-width="1"/>
            <path d="M56.34,85.67 C56.34,85.67 57.17,90.62 54.84,92.25 L45.84,90.44 L47.19,85.2 L56.34,85.67 Z" id="Shape" fill="#FCEAD9" fill-rule="nonzero" stroke-width="1"/>
            <path d="M37.36,90.41 C37.88,89.34 39.36,91.54 40.57,91.64 C42.89,91.82 45.51,90.55 47.16,86.64 C47.16,86.64 45.5,78.7 39.55,80.4 C38.3793436,80.8281645 37.2978615,81.4689172 36.36,82.29 C35.42,83.39 34.46,86.16 33.28,88.63" id="Shape" fill="#FCEAD9" fill-rule="nonzero" stroke-width="1"/>
            <path d="M47.53,89.93 C47.1,88.93 45.24,91.56 44.2,91.74 C42.65,92 38.52,89.47 37.57,86.48 C37.4163664,85.371699 37.5756986,84.2425187 38.03,83.22 C39.9606209,81.0049843 43.2113083,80.513995 45.71,82.06 C46.8744861,82.8672102 47.79191,83.9819669 48.36,85.28 C48.92,86.48 50.27,87.41 51.31,89.65" id="Shape" fill="#FCEAD9" fill-rule="nonzero" stroke-width="1"/>
            <path d="M24.85,63 C24.85,63 25.04,61.9 26.48,62.36 L33.8,64 C33.8,64 38.23,64.91 38.3,68.66 L39.06,71.21 L24.06,66 L24.85,63 Z" id="Shape" fill="#FF4D5A" fill-rule="nonzero" stroke-width="1"/>
            <path d="M40.43,71.24 L50,65.84 C49.4099886,65.335942 49.0492395,64.6144439 49,63.84 C49,63.84 48.83,62.09 48,62.52 C48,62.52 42.8,62.52 41,66.83 C41,66.86 40.45,67.56 40.43,71.24 Z" id="Shape" fill="#FF4D5A" fill-rule="nonzero" stroke-width="1"/>
            <path d="M35,110.6 L24.12,110.6 C23.9239389,110.6 23.765,110.758939 23.765,110.955 C23.765,111.151061 23.9239389,111.31 24.12,111.31 L25.06,111.31 L25.06,116 C25.0654936,117.980422 26.6695777,119.584506 28.65,119.59 L30.44,119.59 C32.4086967,119.568132 33.9946525,117.968811 34,116 L34,111.3 L35,111.3 C35.1960611,111.3 35.355,111.141061 35.355,110.945 C35.355,110.748939 35.1960611,110.59 35,110.59 L35,110.6 Z" id="Shape" fill="#FF4D5A" fill-rule="nonzero" stroke-width="1"/>
            <path d="M57,110.6 L46.18,110.6 C45.9839389,110.6 45.825,110.758939 45.825,110.955 C45.825,111.151061 45.9839389,111.31 46.18,111.31 L47.12,111.31 L47.12,116 C47.1254936,117.980422 48.7295777,119.584506 50.71,119.59 L52.5,119.59 C54.4843264,119.590008 56.094488,117.984319 56.1,116 L56.1,111.3 L57,111.3 C57.1960611,111.3 57.355,111.141061 57.355,110.945 C57.355,110.748939 57.1960611,110.59 57,110.59 L57,110.6 Z" id="Shape" fill="#FF4D5A" fill-rule="nonzero" stroke-width="1"/>
            <path d="M50.35,113.26 C50.5454854,113.509897 50.6107847,113.837734 50.5259698,114.143463 C50.4411549,114.449191 50.2162904,114.696531 49.92,114.81 L49.81,114.81 C49.440008,114.904634 49.0547192,114.724554 48.89,114.38 C48.7503543,114.000543 48.8529612,113.57433 49.15,113.3 C49.3065271,113.166246 49.5185358,113.117416 49.7178015,113.169225 C49.9170671,113.221034 50.0784437,113.366944 50.15,113.56 C50.2157878,113.681677 50.2157878,113.828323 50.15,113.95 C50.1155561,114.042045 50.0429683,114.114684 49.9509469,114.149192 C49.8589256,114.1837 49.7564739,114.176701 49.67,114.13 C49.67,114.13 49.43,113.92 49.58,113.74 C49.58,113.74 49.81,113.89 49.89,113.74 C49.97,113.59 49.74,113.3 49.49,113.62 C49.49,113.62 49.07,114.1 49.74,114.29 C49.9685401,114.356891 50.2096284,114.234155 50.29,114.01 C50.4332707,113.790612 50.408516,113.501807 50.23,113.31 C50.23,113.31 50.16,113.08 50.35,113.26 Z" id="Shape" fill="#FEDB0A" fill-rule="nonzero" stroke-width="1"/>
            <path d="M54.49,113.58 C54.723384,113.630983 54.9211647,113.784833 55.0279986,113.998501 C55.1348324,114.212168 55.1392444,114.462703 55.04,114.68 L55.04,114.76 C54.8789829,115.008569 54.5626854,115.105567 54.29,114.99 C54.0234204,114.841681 53.8643968,114.554663 53.88,114.25 C53.9022058,114.097473 53.9963075,113.964889 54.1329609,113.893592 C54.2696143,113.822294 54.4321933,113.820958 54.57,113.89 C54.668485,113.929148 54.7401458,114.015896 54.76,114.12 C54.7882755,114.190079 54.7846624,114.268993 54.7501013,114.336195 C54.7155402,114.403397 54.6534512,114.452237 54.58,114.47 C54.58,114.47 54.34,114.47 54.33,114.29 C54.33,114.29 54.54,114.29 54.51,114.13 C54.48,113.97 54.2,113.96 54.22,114.26 C54.22,114.26 54.22,114.75 54.7,114.51 C54.7822441,114.4729 54.8463697,114.404632 54.8782551,114.32023 C54.9101405,114.235827 54.9071708,114.142212 54.87,114.06 C54.8382592,113.859013 54.672847,113.706007 54.47,113.69 C54.47,113.69 54.29,113.57 54.49,113.58 Z" id="Shape" fill="#FEDB0A" fill-rule="nonzero" stroke-width="1"/>
            <path d="M53.2,117.37 C53.2,117.37 51.57,119.25 50.28,117.37 C50.2353453,117.308049 50.1984064,117.240887 50.17,117.17 C49.8436749,116.488053 50.009954,115.672338 50.5771722,115.172535 C51.1443904,114.672732 51.974547,114.610441 52.61,115.02 C52.8890082,115.285031 53.0384689,115.658622 53.0192519,116.042963 C53.0000349,116.427303 52.8140537,116.784122 52.51,117.02 C52.3268627,117.202973 52.0605169,117.275267 51.81,117.21 C51.6273363,117.181182 51.4665579,117.073566 51.3702856,116.91568 C51.2740134,116.757793 51.2519704,116.565582 51.31,116.39 C51.31,116.39 51.59,115.81 51.98,115.99 C51.98,115.99 51.79,116.52 52.08,116.59 C52.08,116.59 52.81,116.04 52.16,115.75 C52.16,115.75 51.16,115.22 51.06,116.6 C51.0346442,116.813528 51.0952326,117.028376 51.228413,117.197196 C51.3615934,117.366017 51.5564351,117.474953 51.77,117.5 C51.77,117.5 52.39,117.8 53,116.99 C53,117.09 53.46,116.91 53.2,117.37 Z" id="Shape" fill="#FEDB0A" fill-rule="nonzero" stroke-width="1"/>
            <path d="M50.11,118.12 C49.9600293,118.306005 49.7339331,118.414142 49.495,118.414142 C49.2560669,118.414142 49.0299707,118.306005 48.88,118.12 L48.83,118.04 C48.6770508,117.790211 48.7232277,117.466972 48.94,117.27 C49.1901967,117.091414 49.5205911,117.071979 49.79,117.22 C49.9156593,117.310159 49.9901786,117.455342 49.9901786,117.61 C49.9901786,117.764658 49.9156593,117.909841 49.79,118 C49.7136171,118.074927 49.6039951,118.105167 49.5,118.08 C49.37,118.08 49.23,117.97 49.26,117.77 C49.26,117.77 49.36,117.55 49.53,117.62 C49.53,117.62 49.47,117.82 49.59,117.85 C49.71,117.88 49.88,117.64 49.59,117.53 C49.59,117.53 49.14,117.33 49.16,117.86 C49.1599204,118.04394 49.3061397,118.19459 49.49,118.2 C49.682947,118.25887 49.8908801,118.175697 49.99,118 C49.99,118 50.2,117.95 50.11,118.12 Z" id="Shape" fill="#FEDB0A" fill-rule="nonzero" stroke-width="1"/>
            <path d="M51.37,118 C51.4242184,118.313038 51.6239581,118.581688 51.9081164,118.723767 C52.1922747,118.865846 52.5270385,118.864448 52.81,118.72 L52.91,118.66 C53.2436992,118.446845 53.37126,118.021643 53.21,117.66 C53.0183236,117.293555 52.620857,117.082897 52.21,117.13 C52.0118628,117.160447 51.8400422,117.283371 51.7472475,117.461063 C51.6544528,117.638755 51.6517618,117.850002 51.74,118.03 C51.7913437,118.158664 51.9041869,118.2527 52.04,118.28 C52.13139,118.314202 52.2330698,118.307489 52.3191699,118.261569 C52.4052701,118.215649 52.4674902,118.134948 52.49,118.04 C52.49,118.04 52.49,117.72 52.26,117.71 C52.26,117.71 52.26,117.98 52.06,117.94 C52.06,117.94 51.84,117.53 52.23,117.56 C52.23,117.56 52.87,117.56 52.56,118.19 C52.4561683,118.40616 52.2010693,118.502921 51.98,118.41 C51.7221126,118.369933 51.5243778,118.15984 51.5,117.9 C51.5,117.9 51.37,117.74 51.37,118 Z" id="Shape" fill="#FEDB0A" fill-rule="nonzero" stroke-width="1"/>
            <path d="M54.1,116.12 C54.1477835,116.331577 54.2871806,116.510948 54.4804081,116.609494 C54.6736356,116.70804 54.9006795,116.715554 55.1,116.63 L55.17,116.63 C55.3951154,116.479157 55.4829136,116.190678 55.38,115.94 C55.2421256,115.691271 54.9739106,115.543558 54.69,115.56 C54.548015,115.57948 54.4244139,115.66689 54.3587341,115.794269 C54.2930543,115.921648 54.2935266,116.073033 54.36,116.2 C54.3950358,116.291667 54.4740535,116.359396 54.57,116.38 C54.6348708,116.40495 54.7073722,116.400553 54.7687519,116.367945 C54.8301315,116.335337 54.8743608,116.277721 54.89,116.21 C54.89,116.21 54.89,115.99 54.73,115.98 C54.73,115.98 54.73,116.17 54.59,116.15 C54.45,116.13 54.43,115.86 54.71,115.88 C54.71,115.88 55.16,115.88 54.94,116.33 C54.8675255,116.483768 54.6874705,116.554034 54.53,116.49 C54.3470843,116.463004 54.2065083,116.314159 54.19,116.13 C54.19,116.13 54.1,115.93 54.1,116.12 Z" id="Shape" fill="#FEDB0A" fill-rule="nonzero" stroke-width="1"/>
            <path d="M48.52,116.68 C48.7257116,116.591601 48.8803379,116.414816 48.9405642,116.199167 C49.0007905,115.983518 48.9601401,115.752196 48.83,115.57 L48.77,115.51 C48.5785523,115.309251 48.2703814,115.275479 48.04,115.43 C47.8208786,115.616349 47.7276402,115.911604 47.8,116.19 C47.8471783,116.326964 47.9574073,116.432841 48.0961599,116.474467 C48.2349125,116.516093 48.3852195,116.488377 48.5,116.4 C48.5844477,116.349017 48.6371888,116.258604 48.64,116.16 C48.64,116.04 48.64,115.89 48.41,115.87 C48.41,115.87 48.19,115.87 48.21,116.08 C48.21,116.08 48.41,116.08 48.4,116.19 C48.39,116.3 48.14,116.4 48.11,116.12 C48.11,116.12 48.03,115.67 48.51,115.8 C48.6764092,115.844167 48.7780436,116.012085 48.74,116.18 C48.7469215,116.369621 48.622826,116.539218 48.44,116.59 C48.44,116.59 48.34,116.72 48.52,116.68 Z" id="Shape" fill="#FEDB0A" fill-rule="nonzero" stroke-width="1"/>
            <path d="M51.13,114.43 C51.1842184,114.743038 51.3839581,115.011688 51.6681164,115.153767 C51.9522747,115.295846 52.2870385,115.294448 52.57,115.15 L52.67,115.09 C53.0036992,114.876845 53.13126,114.451643 52.97,114.09 C52.7783236,113.723555 52.380857,113.512897 51.97,113.56 C51.7718628,113.590447 51.6000422,113.713371 51.5072475,113.891063 C51.4144528,114.068755 51.4117618,114.280002 51.5,114.46 C51.5513437,114.588664 51.6641869,114.6827 51.8,114.71 C51.89139,114.744202 51.9930698,114.737489 52.0791699,114.691569 C52.1652701,114.645649 52.2274902,114.564948 52.25,114.47 C52.25,114.47 52.25,114.15 52.02,114.14 C52.02,114.14 52.02,114.41 51.82,114.37 C51.82,114.37 51.6,113.96 51.99,113.99 C51.99,113.99 52.63,113.99 52.32,114.62 C52.2161683,114.83616 51.9610693,114.932921 51.74,114.84 C51.4821126,114.799933 51.2843778,114.58984 51.26,114.33 C51.26,114.33 51.12,114.17 51.13,114.43 Z" id="Shape" fill="#FEDB0A" fill-rule="nonzero" stroke-width="1"/>
            <path d="M55.18,118 C55.1348179,118.227307 54.9870886,118.420959 54.7798013,118.524603 C54.5725141,118.628246 54.328955,118.630239 54.12,118.53 L54.04,118.53 C53.8080641,118.375085 53.7162937,118.078917 53.82,117.82 C53.9618898,117.564195 54.2380003,117.412528 54.53,117.43 C54.6749069,117.452801 54.8002505,117.543346 54.8674281,117.673749 C54.9346056,117.804153 54.935561,117.958776 54.87,118.09 C54.8315495,118.183139 54.7489089,118.250754 54.65,118.27 C54.5838017,118.294992 54.510113,118.290762 54.44721,118.258357 C54.3843071,118.225952 54.3380822,118.16841 54.32,118.1 C54.32,118.1 54.32,117.87 54.49,117.86 C54.49,117.86 54.49,118.06 54.64,118.03 C54.79,118 54.8,117.73 54.51,117.75 C54.51,117.75 54.04,117.75 54.27,118.21 C54.3467503,118.370546 54.5369716,118.441326 54.7,118.37 C54.8899864,118.33855 55.0342453,118.181926 55.05,117.99 C55.05,117.99 55.18,117.81 55.18,118 Z" id="Shape" fill="#FEDB0A" fill-rule="nonzero" stroke-width="1"/>
            <path d="M53.17,112.36 C53.1106051,112.628981 52.9325675,112.856582 52.6858004,112.978994 C52.4390332,113.101406 52.1500986,113.105453 51.9,112.99 L51.81,112.94 C51.5262366,112.754548 51.4131557,112.394364 51.54,112.08 C51.7124189,111.770975 52.0467993,111.588232 52.4,111.61 C52.5770283,111.63506 52.7308281,111.744607 52.8123741,111.903721 C52.8939201,112.062835 52.8930346,112.251658 52.81,112.41 C52.7656975,112.522285 52.6680691,112.604894 52.55,112.63 C52.4692609,112.661232 52.378966,112.656064 52.3023177,112.615823 C52.2256695,112.575583 52.1701406,112.504194 52.15,112.42 C52.15,112.42 52.15,112.14 52.36,112.13 C52.36,112.13 52.36,112.37 52.54,112.34 C52.72,112.31 52.74,111.98 52.39,112.01 C52.39,112.01 51.83,112.01 52.1,112.57 C52.1904106,112.761087 52.4166015,112.845354 52.61,112.76 C52.8440095,112.727512 53.0233441,112.535666 53.04,112.3 C53.04,112.3 53.18,112.13 53.17,112.36 Z" id="Shape" fill="#FEDB0A" fill-rule="nonzero" stroke-width="1"/>
            <path d="M27.9,113.26 C28.0954854,113.509897 28.1607847,113.837734 28.0759698,114.143463 C27.9911549,114.449191 27.7662904,114.696531 27.47,114.81 L27.36,114.81 C26.990008,114.904634 26.6047192,114.724554 26.44,114.38 C26.3003543,114.000543 26.4029612,113.57433 26.7,113.3 C26.8565271,113.166246 27.0685358,113.117416 27.2678015,113.169225 C27.4670671,113.221034 27.6284437,113.366944 27.7,113.56 C27.7657878,113.681677 27.7657878,113.828323 27.7,113.95 C27.6655561,114.042045 27.5929683,114.114684 27.5009469,114.149192 C27.4089256,114.1837 27.3064739,114.176701 27.22,114.13 C27.22,114.13 26.98,113.92 27.13,113.74 C27.13,113.74 27.36,113.89 27.44,113.74 C27.52,113.59 27.29,113.3 27.04,113.62 C27.04,113.62 26.62,114.1 27.29,114.29 C27.5185401,114.356891 27.7596284,114.234155 27.84,114.01 C27.9832707,113.790612 27.958516,113.501807 27.78,113.31 C27.78,113.31 27.72,113.08 27.9,113.26 Z" id="Shape" fill="#FEDB0A" fill-rule="nonzero" stroke-width="1"/>
            <path d="M32,113.58 C32.233384,113.630983 32.4311647,113.784833 32.5379986,113.998501 C32.6448324,114.212168 32.6492444,114.462703 32.55,114.68 L32.55,114.76 C32.3889829,115.008569 32.0726854,115.105567 31.8,114.99 C31.5334204,114.841681 31.3743968,114.554663 31.39,114.25 C31.4122058,114.097473 31.5063075,113.964889 31.6429609,113.893592 C31.7796143,113.822294 31.9421933,113.820958 32.08,113.89 C32.178485,113.929148 32.2501458,114.015896 32.27,114.12 C32.2982755,114.190079 32.2946624,114.268993 32.2601013,114.336195 C32.2255402,114.403397 32.1634512,114.452237 32.09,114.47 C32.09,114.47 31.85,114.47 31.84,114.29 C31.84,114.29 32.05,114.29 32.02,114.13 C31.99,113.97 31.71,113.96 31.73,114.26 C31.73,114.26 31.73,114.75 32.21,114.51 C32.2922441,114.4729 32.3563697,114.404632 32.3882551,114.32023 C32.4201405,114.235827 32.4171708,114.142212 32.38,114.06 C32.3482592,113.859013 32.182847,113.706007 31.98,113.69 C31.98,113.69 31.84,113.57 32,113.58 Z" id="Shape" fill="#FEDB0A" fill-rule="nonzero" stroke-width="1"/>
            <path d="M30.76,117.37 C30.76,117.37 29.13,119.25 27.84,117.37 C27.7953453,117.308049 27.7584064,117.240887 27.73,117.17 C27.4036749,116.488053 27.569954,115.672338 28.1371722,115.172535 C28.7043904,114.672732 29.534547,114.610441 30.17,115.02 C30.4490082,115.285031 30.5984689,115.658622 30.5792519,116.042963 C30.5600349,116.427303 30.3740537,116.784122 30.07,117.02 C29.8868627,117.202973 29.6205169,117.275267 29.37,117.21 C29.1873363,117.181182 29.0265579,117.073566 28.9302856,116.91568 C28.8340134,116.757793 28.8119704,116.565582 28.87,116.39 C28.87,116.39 29.15,115.81 29.54,115.99 C29.54,115.99 29.35,116.52 29.64,116.59 C29.64,116.59 30.37,116.04 29.72,115.75 C29.72,115.75 28.72,115.22 28.62,116.6 C28.5946442,116.813528 28.6552326,117.028376 28.788413,117.197196 C28.9215934,117.366017 29.1164351,117.474953 29.33,117.5 C29.33,117.5 29.95,117.8 30.56,116.99 C30.57,117.09 31,116.91 30.76,117.37 Z" id="Shape" fill="#FEDB0A" fill-rule="nonzero" stroke-width="1"/>
            <path d="M27.66,118.12 C27.5100293,118.306005 27.2839331,118.414142 27.045,118.414142 C26.8060669,118.414142 26.5799707,118.306005 26.43,118.12 L26.38,118.04 C26.2270508,117.790211 26.2732277,117.466972 26.49,117.27 C26.7401967,117.091414 27.0705911,117.071979 27.34,117.22 C27.4656593,117.310159 27.5401786,117.455342 27.5401786,117.61 C27.5401786,117.764658 27.4656593,117.909841 27.34,118 C27.2636171,118.074927 27.1539951,118.105167 27.05,118.08 C26.92,118.08 26.78,117.97 26.81,117.77 C26.81,117.77 26.91,117.55 27.08,117.62 C27.08,117.62 27.02,117.82 27.14,117.85 C27.26,117.88 27.43,117.64 27.14,117.53 C27.14,117.53 26.69,117.33 26.71,117.86 C26.7099204,118.04394 26.8561397,118.19459 27.04,118.2 C27.232947,118.25887 27.4408801,118.175697 27.54,118 C27.54,118 27.75,117.95 27.66,118.12 Z" id="Shape" fill="#FEDB0A" fill-rule="nonzero" stroke-width="1"/>
            <path d="M28.93,118 C28.9842184,118.313038 29.1839581,118.581688 29.4681164,118.723767 C29.7522747,118.865846 30.0870385,118.864448 30.37,118.72 L30.47,118.66 C30.8036992,118.446845 30.93126,118.021643 30.77,117.66 C30.5783236,117.293555 30.180857,117.082897 29.77,117.13 C29.5718628,117.160447 29.4000422,117.283371 29.3072475,117.461063 C29.2144528,117.638755 29.2117618,117.850002 29.3,118.03 C29.3513437,118.158664 29.4641869,118.2527 29.6,118.28 C29.69139,118.314202 29.7930698,118.307489 29.8791699,118.261569 C29.9652701,118.215649 30.0274902,118.134948 30.05,118.04 C30.05,118.04 30.05,117.72 29.82,117.71 C29.82,117.71 29.82,117.98 29.62,117.94 C29.62,117.94 29.4,117.53 29.79,117.56 C29.79,117.56 30.43,117.56 30.12,118.19 C30.0161683,118.40616 29.7610693,118.502921 29.54,118.41 C29.2821126,118.369933 29.0843778,118.15984 29.06,117.9 C29.06,117.9 28.92,117.74 28.93,118 Z" id="Shape" fill="#FEDB0A" fill-rule="nonzero" stroke-width="1"/>
            <path d="M31.66,116.12 C31.7077835,116.331577 31.8471806,116.510948 32.0404081,116.609494 C32.2336356,116.70804 32.4606795,116.715554 32.66,116.63 L32.73,116.63 C32.9551154,116.479157 33.0429136,116.190678 32.94,115.94 C32.8021256,115.691271 32.5339106,115.543558 32.25,115.56 C32.108015,115.57948 31.9844139,115.66689 31.9187341,115.794269 C31.8530543,115.921648 31.8535266,116.073033 31.92,116.2 C31.9550358,116.291667 32.0340535,116.359396 32.13,116.38 C32.1948708,116.40495 32.2673722,116.400553 32.3287519,116.367945 C32.3901315,116.335337 32.4343608,116.277721 32.45,116.21 C32.45,116.21 32.45,115.99 32.29,115.98 C32.29,115.98 32.29,116.17 32.15,116.15 C32.01,116.13 31.99,115.86 32.27,115.88 C32.27,115.88 32.72,115.88 32.5,116.33 C32.4275255,116.483768 32.2474705,116.554034 32.09,116.49 C31.9070843,116.463004 31.7665083,116.314159 31.75,116.13 C31.75,116.13 31.65,115.93 31.66,116.12 Z" id="Shape" fill="#FEDB0A" fill-rule="nonzero" stroke-width="1"/>
            <path d="M26.07,116.68 C26.2757116,116.591601 26.4303379,116.414816 26.4905642,116.199167 C26.5507905,115.983518 26.5101401,115.752196 26.38,115.57 L26.32,115.51 C26.1285523,115.309251 25.8203814,115.275479 25.59,115.43 C25.3708786,115.616349 25.2776402,115.911604 25.35,116.19 C25.3971783,116.326964 25.5074073,116.432841 25.6461599,116.474467 C25.7849125,116.516093 25.9352195,116.488377 26.05,116.4 C26.1344477,116.349017 26.1871888,116.258604 26.19,116.16 C26.19,116.04 26.19,115.89 25.96,115.87 C25.96,115.87 25.74,115.87 25.76,116.08 C25.76,116.08 25.96,116.08 25.95,116.19 C25.94,116.3 25.69,116.4 25.66,116.12 C25.66,116.12 25.58,115.67 26.06,115.8 C26.2264092,115.844167 26.3280436,116.012085 26.29,116.18 C26.2969215,116.369621 26.172826,116.539218 25.99,116.59 C25.99,116.59 25.89,116.72 26.07,116.68 Z" id="Shape" fill="#FEDB0A" fill-rule="nonzero" stroke-width="1"/>
            <path d="M28.68,114.43 C28.7342184,114.743038 28.9339581,115.011688 29.2181164,115.153767 C29.5022747,115.295846 29.8370385,115.294448 30.12,115.15 L30.22,115.09 C30.5536992,114.876845 30.68126,114.451643 30.52,114.09 C30.3283236,113.723555 29.930857,113.512897 29.52,113.56 C29.3218628,113.590447 29.1500422,113.713371 29.0572475,113.891063 C28.9644528,114.068755 28.9617618,114.280002 29.05,114.46 C29.1013437,114.588664 29.2141869,114.6827 29.35,114.71 C29.44139,114.744202 29.5430698,114.737489 29.6291699,114.691569 C29.7152701,114.645649 29.7774902,114.564948 29.8,114.47 C29.8,114.47 29.8,114.15 29.57,114.14 C29.57,114.14 29.57,114.41 29.37,114.37 C29.37,114.37 29.15,113.96 29.54,113.99 C29.54,113.99 30.18,113.99 29.87,114.62 C29.7661683,114.83616 29.5110693,114.932921 29.29,114.84 C29.0321126,114.799933 28.8343778,114.58984 28.81,114.33 C28.81,114.33 28.68,114.17 28.68,114.43 Z" id="Shape" fill="#FEDB0A" fill-rule="nonzero" stroke-width="1"/>
            <path d="M32.73,118 C32.6848179,118.227307 32.5370886,118.420959 32.3298013,118.524603 C32.1225141,118.628246 31.878955,118.630239 31.67,118.53 L31.59,118.53 C31.3580641,118.375085 31.2662937,118.078917 31.37,117.82 C31.5118898,117.564195 31.7880003,117.412528 32.08,117.43 C32.2249069,117.452801 32.3502505,117.543346 32.4174281,117.673749 C32.4846056,117.804153 32.485561,117.958776 32.42,118.09 C32.3815495,118.183139 32.2989089,118.250754 32.2,118.27 C32.1338017,118.294992 32.060113,118.290762 31.99721,118.258357 C31.9343071,118.225952 31.8880822,118.16841 31.87,118.1 C31.87,118.1 31.87,117.87 32.04,117.86 C32.04,117.86 32.04,118.06 32.19,118.03 C32.34,118 32.35,117.73 32.06,117.75 C32.06,117.75 31.59,117.75 31.82,118.21 C31.8967503,118.370546 32.0869716,118.441326 32.25,118.37 C32.4399864,118.33855 32.5842453,118.181926 32.6,117.99 C32.6,117.99 32.74,117.81 32.73,118 Z" id="Shape" fill="#FEDB0A" fill-rule="nonzero" stroke-width="1"/>
            <path d="M30.73,112.36 C30.6706051,112.628981 30.4925675,112.856582 30.2458004,112.978994 C29.9990332,113.101406 29.7100986,113.105453 29.46,112.99 L29.37,112.94 C29.0862366,112.754548 28.9731557,112.394364 29.1,112.08 C29.2724189,111.770975 29.6067993,111.588232 29.96,111.61 C30.1370283,111.63506 30.2908281,111.744607 30.3723741,111.903721 C30.4539201,112.062835 30.4530346,112.251658 30.37,112.41 C30.3256975,112.522285 30.2280691,112.604894 30.11,112.63 C30.0292609,112.661232 29.938966,112.656064 29.8623177,112.615823 C29.7856695,112.575583 29.7301406,112.504194 29.71,112.42 C29.71,112.42 29.71,112.14 29.92,112.13 C29.92,112.13 29.92,112.37 30.1,112.34 C30.28,112.31 30.3,111.98 29.95,112.01 C29.95,112.01 29.39,112.01 29.66,112.57 C29.7504106,112.761087 29.9766015,112.845354 30.17,112.76 C30.4040095,112.727512 30.5833441,112.535666 30.6,112.3 C30.6,112.3 30.73,112.13 30.73,112.36 Z" id="Shape" fill="#FEDB0A" fill-rule="nonzero" stroke-width="1"/>
            <rect id="Rectangle-path" fill="#DD1B2A" fill-rule="nonzero" x="19.53" y="123.56" width="41.39" height="1" rx="0.46" stroke-width="1"/>
            <rect id="Rectangle-path" fill="#DD1B2A" fill-rule="nonzero" x="19.39" y="125.28" width="41.67" height="1" rx="0.46" stroke-width="1"/>
            <rect id="Rectangle-path" fill="#DD1B2A" fill-rule="nonzero" x="19.53" y="123.56" width="41.39" height="1" rx="0.46" stroke-width="1"/>
            <rect id="Rectangle-path" fill="#DD1B2A" fill-rule="nonzero" x="19.39" y="125.28" width="41.67" height="1" rx="0.46" stroke-width="1"/>
        </g>
    </g>
</svg>