<?xml version="1.0" encoding="UTF-8" standalone="no"?><svg xmlns="http://www.w3.org/2000/svg" xmlns:xlink="http://www.w3.org/1999/xlink" width="66.48847961425781" height="209.36061096191406" viewBox="-0.06000000238418579 -0.4302467703819275 66.48847961425781 209.36061096191406" version="1.1">
    <!-- Generator: Sketch 46.2 (44496) - http://www.bohemiancoding.com/sketch -->
    <title>Dad-a</title>
    <desc>Created with Sketch.</desc>
    <defs/>
    <g id="Page-1" stroke="none" fill-rule="evenodd">
        <g id="Dad-a">
            <polygon id="Shape" fill="#FFF3DE" fill-rule="nonzero" points="26.52 59.03 26.52 73.83 35.96 73.83 35.96 58.21" stroke-width="1"/>
            <path d="M23.15,196.72 C23.15,196.72 23.99,200.26 28.73,197.32 C28.73,197.32 31.02,196.32 30.04,199.61 C29.6283839,203.372453 27.2702412,206.641956 23.83,208.22 C23.83,208.22 15.6,209.8 16.31,204.3 C16.31,204.3 15.9,202.73 19.74,200.16 C19.74,200.15 23.66,198.73 23.15,196.72 Z" id="Shape" fill="#FF3035" fill-rule="nonzero" stroke-width="1"/>
            <path d="M47.21,196.72 C47.21,196.72 46.37,200.26 41.63,197.32 C41.63,197.32 39.34,196.32 40.32,199.61 C40.7316161,203.372453 43.0897588,206.641956 46.53,208.22 C46.53,208.22 54.76,209.8 54.05,204.3 C54.05,204.3 54.46,202.73 50.62,200.16 C50.61,200.15 46.69,198.73 47.21,196.72 Z" id="Shape" fill="#FF3035" fill-rule="nonzero" stroke-width="1"/>
            <path d="M11.73,26.7 L11.73,40.6 C11.7306675,43.0178284 12.4247763,45.3847394 13.73,47.42 C17,52.62 25.62,62.2 32.16,61.72 C32.16,61.72 41.62,62.21 50.39,47.96 C51.48,46.19 51.74,44.23 52.14,41.96 C52.1529193,41.7935837 52.1529193,41.6264163 52.14,41.46 L52.55,29.02 C52.6106584,26.8869375 52.1362303,24.7726387 51.17,22.87 L46.84,14.4 C44.4260224,9.36737526 38.6479039,6.91306694 33.35,8.67 L19.85,13.4 C15.6444445,14.9532668 12.6554606,18.721315 12.1,23.17 L11.86,24.93 C11.776147,25.5163228 11.7327113,26.1077177 11.73,26.7 Z" id="Shape" fill="#FFF3DE" fill-rule="nonzero" stroke-width="1"/>
            <path d="M12.44,28.93 L29.44,29.31 C29.44,29.31 30.01,28.19 27.19,27.47 L16.39,26.38 C16.39,26.38 13.71,25.82 12.44,28.93 Z" id="Shape" fill="#5E4944" fill-rule="nonzero" stroke-width="1"/>
            <path d="M53.2,28.93 L36.2,29.31 C36.2,29.31 35.63,28.19 38.45,27.47 L49.3,26.39 C49.3,26.39 51.93,25.82 53.2,28.93 Z" id="Shape" fill="#5E4944" fill-rule="nonzero" stroke-width="1"/>
            <path d="M56.11,18.62 C53.11,2.79 36.22,0.62 36.22,0.62 C15.07,-3.38 8.06,15.74 8.06,15.74 C5.76,19.87 0.44,18.9 0.44,18.9 C1.59,21.62 6.17,24.99 8.08,26.17 C7.88,29.35 7.66,38.55 11.73,40.78 C11.1752544,36.4667142 11.134972,32.1027914 11.61,27.78 C12.0266463,27.9196987 12.4506109,28.0365393 12.88,28.13 C26.88,29.43 40.24,17.26 40.24,17.26 C44.6083581,20.7932622 48.2751081,25.1146679 51.05,30 L50.05,35.2 C49.82,39.2 50.97,40.2 50.97,40.2 C56.57,36.1 56.11,18.62 56.11,18.62 Z" id="Shape" fill="#3D221D" fill-rule="nonzero" stroke-width="1"/>
            <path d="M22.41,49.57 L41.91,49.57 C41.91,49.57 40.68,55.14 32.42,55.57 C32.42,55.53 23.58,55.34 22.41,49.57 Z" id="Shape" fill="#F18F83" fill-rule="nonzero" stroke-width="1"/>
            <path d="M25.29,53.46 C25.29,53.46 33.1,50.83 39.04,53.56 C37.1160624,54.8568929 34.8502194,55.5530044 32.53,55.56 C32.53,55.56 28,55.36 25.29,53.46 Z" id="Shape" fill="#E76663" fill-rule="nonzero" stroke-width="1"/>
            <ellipse id="Oval" fill="#55453F" fill-rule="nonzero" cx="22.41" cy="36.66" rx="3.67" ry="3.48" stroke-width="1"/>
            <ellipse id="Oval" fill="#55453F" fill-rule="nonzero" cx="41.91" cy="36.6" rx="3.67" ry="3.48" stroke-width="1"/>
            <ellipse id="Oval" fill="#FFFFFF" fill-rule="nonzero" cx="23.66" cy="35.34" rx="1" ry="1" stroke-width="1"/>
            <ellipse id="Oval" fill="#FFFFFF" fill-rule="nonzero" cx="42.85" cy="35.34" rx="1" ry="1" stroke-width="1"/>
            <path d="M18.14,124.49 L48.14,124.49 L50.14,192.78 L37.64,192.78 L34.15,139.51 C34.15,139.51 33.2,138.71 32.86,139.51 L31.49,194.6 L20.79,194.6 L18.14,124.49 Z" id="Shape" fill="#FF3035" fill-rule="nonzero" stroke-width="1"/>
            <path d="M20.36,188.35 C20.36,188.35 27.69,189.94 31.67,187.67 L31.67,197.23 C31.67,197.23 26.33,202.12 20.36,197.8 L20.36,188.35 Z" id="Shape" fill="#FF4D5A" fill-rule="nonzero" stroke-width="1"/>
            <path d="M37.32,188.35 C37.32,188.35 45.64,189.94 50.16,187.67 L50.16,197.23 C50.16,197.23 44.09,202.12 37.32,197.8 L37.32,188.35 Z" id="Shape" fill="#FF4D5A" fill-rule="nonzero" stroke-width="1"/>
            <rect id="Rectangle-path" fill="#DD1B2A" fill-rule="nonzero" x="16.34" y="123.56" width="32.92" height="1" rx="0.46" stroke-width="1"/>
            <rect id="Rectangle-path" fill="#DD1B2A" fill-rule="nonzero" x="16.23" y="125.28" width="33.13" height="1" rx="0.46" stroke-width="1"/>
            <path d="M63.21,86.29 L52.82,70.88 C51.7023411,69.2226768 49.9655442,68.0840298 48,67.72 L42.09,66.63 C40.7821713,66.38909 39.8320877,65.2498305 39.83,63.92 L39.83,63.92 C39.64,62 39,62.55 39,62.55 L38.84,62.55 C35.6361991,62.7763774 33.1567469,65.4482386 33.17,68.66 L33.17,71 C32.39,72.52 31.75,71 31.75,71 L31.15,67.83 C30.7685914,65.6484768 28.9578945,64.0023887 26.75,63.83 C25.0780855,63.5804193 23.4490942,63.0991264 21.91,62.4 L21.91,62.4 C21.6547365,62.281182 21.3593869,62.2844057 21.1067777,62.4087672 C20.8541685,62.5331286 20.6715004,62.7652367 20.61,63.04 C20.44,63.78 20.47,67.12 18.28,67.71 C16.2619502,68.0297636 14.3682149,68.8902382 12.8,70.2 C11.9674595,70.9620974 11.2678608,71.8577188 10.73,72.85 L3.54,88.67 C3.54,88.67 -3.34,95.45 5.61,96.12 L17.56,93.9 C17.43,106.67 16.17,127.36 16.17,127.36 L49.72,126.36 C48.33,120.74 48.36,104.09 48.53,92.9 L61.45,93.63 C70.37,92.55 63.21,86.29 63.21,86.29 Z M17,84.11 L17.14,84.45 C17.2728807,84.9578441 17.3598967,85.4765932 17.4,86 L14.98,86.53 L17,84.11 Z M48.67,84.28 C48.67,82.99 48.73,82.28 48.73,82.28 L48.81,81.81 L52.46,85.64 L48.67,84.28 Z" id="Shape" fill="#FF3035" fill-rule="nonzero" stroke-width="1"/>
            <rect id="Rectangle-path" fill="#C62A36" fill-rule="nonzero" x="16.36" y="121.92" width="32.85" height="1.04" rx="0.52" stroke-width="1"/>
            <rect id="Rectangle-path" fill="#C62A36" fill-rule="nonzero" x="16.36" y="123.6" width="32.85" height="1.04" rx="0.52" stroke-width="1"/>
            <path d="M25.47,85.78 C25.47,85.78 24.47,90.35 26.28,90.56 L33.18,89 L32.54,83.9 L25.47,85.78 Z" id="Shape" fill="#FFF3DE" fill-rule="nonzero" stroke-width="1"/>
            <path d="M45.65,84.8 C45.65,84.8 46.31,88.87 44.46,90.22 L37.29,88.73 L38.36,84.42 L45.65,84.8 Z" id="Shape" fill="#FFF3DE" fill-rule="nonzero" stroke-width="1"/>
            <path d="M30.56,88.7 C30.98,87.82 32.13,89.63 33.11,89.7 C34.95,89.85 37.03,88.81 38.35,85.57 C38.35,85.57 37.03,79.03 32.35,80.44 C31.395357,80.7906455 30.5163274,81.3200997 29.76,82 C29.02,82.9 28.25,85.18 27.31,87.21" id="Shape" fill="#FFF3DE" fill-rule="nonzero" stroke-width="1"/>
            <path d="M38.64,88.31 C38.3,87.45 36.82,89.65 35.99,89.8 C34.76,90.02 31.47,87.94 30.71,85.47 C30.5876672,84.5605473 30.7120038,83.6349309 31.07,82.79 C32.5684072,80.9728153 35.1804675,80.5453095 37.18,81.79 C38.113865,82.4622589 38.844018,83.3792757 39.29,84.44 C39.74,85.44 40.81,86.19 41.64,88.04" id="Shape" fill="#FFF3DE" fill-rule="nonzero" stroke-width="1"/>
            <path d="M29.35,72.29 C29.35,72.29 20.86,75.29 18.98,81.06" id="Shape" stroke="#494848" stroke-linecap="round" stroke-linejoin="round" stroke-width="1" fill="none"/>
            <ellipse id="Oval" fill="#494848" fill-rule="nonzero" transform="matrix(0.21763222269565052,-0.9760308476910711,0.9760308476910711,0.21763222269565052,-51.4083352443218,83.30310665899331)" cx="26.2575854" cy="73.7183908" rx="1" ry="1.29" stroke-width="1"/>
            <ellipse id="Oval" fill="#494848" fill-rule="nonzero" transform="matrix(0.21763222269565052,-0.9760308476910711,0.9760308476910711,0.21763222269565052,-54.97493369762208,82.39189379552423)" cx="23.9059006" cy="75.4875121" rx="1" ry="1.29" stroke-width="1"/>
            <ellipse id="Oval" fill="#494848" fill-rule="nonzero" transform="matrix(0.21763222269565052,-0.9760308476910711,0.9760308476910711,0.21763222269565052,-58.47312804565054,81.60386941802858)" cx="21.66526" cy="77.2755592" rx="1" ry="1.29" stroke-width="1"/>
        </g>
    </g>
</svg>