<?xml version="1.0" encoding="UTF-8" standalone="no"?><svg xmlns="http://www.w3.org/2000/svg" xmlns:xlink="http://www.w3.org/1999/xlink" width="63.91255569458008" height="112.10833740234375" viewBox="0.027534961700439453 -0.2610206604003906 63.91255569458008 112.10833740234375" version="1.1">
    <!-- Generator: Sketch 46.2 (44496) - http://www.bohemiancoding.com/sketch -->
    <title>Sister-b</title>
    <desc>Created with Sketch.</desc>
    <defs/>
    <g id="Page-1" stroke="none" fill-rule="evenodd">
        <g id="Sister-b" fill-rule="nonzero">
            <path d="M25.81,81.39 C25.81,81.39 26.21,88.26 26.75,89.64 C26.75,89.64 25.75,94.12 28.36,101.59 L28.36,106.44 C28.36,106.44 27.42,109.04 27.73,110.17 C28.5073118,110.802716 29.6452424,110.710094 30.31,109.96 C30.5031494,109.102968 30.4511672,108.208874 30.16,107.38 L29.66,81.38" id="Shape" fill="#FFF3DE" stroke-width="1"/>
            <path d="M35,81.39 C35,81.39 34.6,88.26 34.06,89.64 C34.06,89.64 35.06,94.12 32.45,101.59 L32.45,106.44 C32.45,106.44 33.39,109.04 33.08,110.17 C33.08,110.17 32.08,111.52 30.51,110.09 C30.3169174,109.186151 30.3687012,108.247137 30.66,107.37 L31.16,81.37" id="Shape" fill="#FFF3DE" stroke-width="1"/>
            <polygon id="Shape" fill="#FFF3DE" points="28.5 47.05 28.5 53.56 34.13 53.56 34.13 46.69" stroke-width="1"/>
            <path d="M10.21,25.32 C8.86199632,25.8572518 7.7958268,26.9275242 7.26375655,28.2775815 C6.7316863,29.6276387 6.78098929,31.1375294 7.4,32.45 C7.4,32.45 9,35.91 12.22,35 C12.22,35 17.48,47.21 30.02,47.19 C30.44,47.19 31.19,47.19 31.61,47.25 C34.61,47.36 46.07,47.84 51.61,35.25 C51.61,35.25 57.93,32.73 56.42,29.16 C55.9141835,27.1795374 54.2788821,25.6896835 52.26,25.37 C52.26,25.37 52.21,10.71 33.94,10.13 C33.95,10.17 12,9.32 10.21,25.32 Z" id="Shape" fill="#FFF3DE" stroke-width="1"/>
            <path d="M22.5,17 C22.5,17 18.07,26.14 10.5,28 L10.67,25.75 L7.53,28.53 C7.53,28.53 6.94,20.64 7.71,19.53 C7.71,19.53 -2.14,19.66 1.23,9.15 C1.23,9.15 5.14,1.09 11.9,7.52 C11.9,7.52 17.96,0.82 25.09,0.24 C26.7001666,0.218667209 28.297218,0.531948079 29.78,1.16 C29.78,1.16 43.3,-3.15 50.87,7.94 C50.87,7.94 60,1.38 63.25,10.78 C63.25,10.78 65.59,20.9 53.85,18.95 C53.85,18.95 55.39,25.65 53.85,27.86 C53.85,27.86 53.49,26.36 49.74,27.38 C49.74,27.38 42.3,29.74 34.94,20.5 C35.1287908,22.5229736 35.5550572,24.5166919 36.21,26.44 C36.21,26.44 32.32,25.75 31.09,20.66 C30.815594,22.4343587 31.0949501,24.250173 31.89,25.86 C31.89,25.86 27.45,24.94 25.82,17.5 C25.82,17.5 24.93,23.98 21.21,24.5 C21.21,24.42 23.31,18.84 22.5,17 Z" id="Shape" fill="#3D221D" stroke-width="1"/>
            <path d="M41.48,28.39 C42.3070082,28.3991593 43.090165,28.7634183 43.63,29.39 L43.63,29.39 C43.63,29.39 44.36,29.27 44.22,28.3 C44.5748219,28.8301491 44.516772,29.535041 44.08,30 C44.7860406,30.0803438 45.4553862,29.6671675 45.7,29 C45.8192611,29.9630291 45.2663124,30.8832348 44.36,31.23 C44.36,31.23 44.36,31.29 44.36,31.32 C44.36,32.9216258 43.0616258,34.22 41.46,34.22 C39.8583742,34.22 38.56,32.9216258 38.56,31.32 C38.56,29.7183742 39.8583742,28.42 41.46,28.42 L41.48,28.39 Z" id="Shape" fill="#55453F" stroke-width="1"/>
            <circle id="Oval" fill="#FFFFFF" cx="42.55" cy="30.16" r="1" stroke-width="1"/>
            <path d="M22.6,28.39 C21.7729918,28.3991593 20.989835,28.7634183 20.45,29.39 L20.45,29.39 C20.45,29.39 19.72,29.27 19.86,28.3 C19.5051781,28.8301491 19.563228,29.535041 20,30 C19.2939594,30.0803438 18.6246138,29.6671675 18.38,29 C18.2607389,29.9630291 18.8136876,30.8832348 19.72,31.23 C19.72,31.23 19.72,31.29 19.72,31.32 C19.72,32.9216258 21.0183742,34.22 22.62,34.22 C24.2216258,34.22 25.52,32.9216258 25.52,31.32 C25.52,29.7183742 24.2216258,28.42 22.62,28.42 L22.6,28.39 Z" id="Shape" fill="#55453F" stroke-width="1"/>
            <circle id="Oval" fill="#FFFFFF" cx="23.61" cy="30.16" r="1" stroke-width="1"/>
            <path d="M27.54,38.86 L36,38.86 C36,38.86 35.46,43.58 31.88,43.91 C31.89,43.92 28,43.76 27.54,38.86 Z" id="Shape" fill="#F18F83" stroke-width="1"/>
            <path d="M28.79,42.16 C28.79,42.16 32.18,39.93 34.79,42.25 C34.1294198,43.1863305 33.0989923,43.7943919 31.96,43.92 C30.7083623,43.7875546 29.5642279,43.1523254 28.79,42.16 Z" id="Shape" fill="#E76663" stroke-width="1"/>
            <path d="M13.75,5.25 C10.32,4.15 11.43,7.87 11.43,7.87 C11.5103557,8.06577093 11.6255535,8.24534394 11.77,8.4 C11.5400089,8.51435473 11.3331873,8.6703185 11.16,8.86 C8.34,10.74 11.36,11.86 11.36,11.86 C14.91,12.45 13.27,8.93 13.27,8.93 C13.1924642,8.81036559 13.1019118,8.69969037 13,8.6 C13.1871476,8.52183008 13.3622324,8.41745257 13.52,8.29 C16.56,6.83 13.75,5.25 13.75,5.25 Z" id="Shape" fill="#F24E4E" stroke-width="1"/>
            <rect id="Rectangle-path" fill="#F40206" transform="matrix(0.9822217824677313,0.18772418609735061,-0.18772418609735061,0.9822217824677313,1.8740020355120102,-2.1584437810240154)" x="11.0777473" y="8.31478246" width="2.51" height="1" rx="0.34" stroke-width="1"/>
            <path d="M50.54,5 C47.1,6.05 50.13,8.48 50.13,8.48 C50.3072887,8.59430218 50.5037822,8.67560983 50.71,8.72 C50.5865211,8.94325038 50.5051671,9.18731235 50.47,9.44 C49.23,12.59 52.37,11.83 52.37,11.83 C55.62,10.29 52.27,8.33 52.27,8.33 C52.1258342,8.26855774 51.9747216,8.22490299 51.82,8.2 C51.9297868,8.02630396 52.0139845,7.83770112 52.07,7.64 C53.76,4.72 50.54,5 50.54,5 Z" id="Shape" fill="#F24E4E" stroke-width="1"/>
            <rect id="Rectangle-path" fill="#F40206" transform="matrix(0.9141124784450788,-0.4054606969251093,0.4054606969251093,0.9141124784450788,0.8593885028161452,21.603656113023355)" x="50.1683273" y="8.27331279" width="2.51" height="1" rx="0.34" stroke-width="1"/>
            <path d="M25.67,49.05 L26.59,49.05 C27.2125956,49.0435504 27.8237866,49.2171842 28.35,49.55 C29.51,50.3 31.95,51.45 34.19,49.76 C34.7641729,49.3166198 35.4647828,49.0679033 36.19,49.05 L36.46,49.05 C37.34571,49.0498536 38.1943003,49.4057554 38.8149244,50.0376635 C39.4355485,50.6695717 39.7761038,51.5244364 39.76,52.41 C39.63,59.72 39.99,77.5 45.88,91.11 C46.2554631,91.9837793 46.2357008,92.9770626 45.8257793,93.835216 C45.4158578,94.6933694 44.6556356,95.3329508 43.74,95.59 C38.05,97.2 26.74,99.44 16.74,95.71 C15.0371648,95.0655625 14.1779947,93.1637537 14.82,91.46 C17.61,84 24.41,64.17 22.42,53 C22.2284923,52.0282383 22.4822162,51.0217819 23.1115146,50.2569424 C23.740813,49.4921028 24.6795478,49.0492631 25.67,49.05 L25.67,49.05 Z" id="Shape" fill="#F24E4E" stroke-width="1"/>
            <path d="M24.23,49.11 L25.58,49.11 L26.09,51.32 L28.92,60.94 L26.57,68.3 L25.08,68.86 L21.08,66.72 C22.573158,63.5126404 23.1510881,59.9550824 22.75,56.44" id="Shape" fill="#FF3035" stroke-width="1"/>
            <path d="M38.45,49.11 L37.09,49.11 L36.58,51.32 L33.75,60.94 L36.1,68.3 L37.59,68.86 L41.59,66.72 C40.096842,63.5126404 39.5189119,59.9550824 39.92,56.44" id="Shape" fill="#FF3035" stroke-width="1"/>
            <path d="M38.7,49.13 C38.93,48.98 39.24,49 39.56,49.69 C39.56,49.97 39.31,53.92 40.1,56 C40.1,56.17 39.92,58 39.29,56.1 L39.29,56.1 C39.29,55.95 38.78,51.63 38.4,49.91 C38.3430357,49.6140612 38.4594077,49.311494 38.7,49.13 Z" id="Shape" fill="#FFFFFF" stroke-width="1"/>
            <path d="M23,49.86 C23.0010081,49.553187 23.1863994,49.2770724 23.47,49.16 C23.74,49.05 24.06,49.09 24.25,49.69 C24.2033896,51.5571841 23.9416616,53.4127689 23.47,55.22 C23.47,55.22 23.05,56.5 22.55,56.53 C22.55,56.53 21.55,56.94 22.25,55.86 C22.7807885,55.1904798 23.0284531,54.3398057 22.94,53.49 C22.94,53.49 23,50.87 23,49.86 Z" id="Shape" fill="#FFFFFF" stroke-width="1"/>
            <path d="M25.58,49.11 L28.26,59.48 C28.6151552,60.5889243 28.6151552,61.7810757 28.26,62.89 L26.38,67.66 C26.38,67.66 26.09,69.05 24.74,68.21 L21.07,66.74 C21.07,66.74 19.44,66.8 20.65,68.05 L24.71,69.64 C24.71,69.64 26.4,70.23 27.06,68.95 L29.47,63.95 C30.0900521,62.4572231 30.1433957,60.7893477 29.62,59.26 L27.9,52.55 L25.58,49.11 Z" id="Shape" fill="#FFFFFF" stroke-width="1"/>
            <path d="M37.09,49.11 L34.37,59.48 C34.0148448,60.5889243 34.0148448,61.7810757 34.37,62.89 L36.25,67.66 C36.25,67.66 36.54,69.05 37.89,68.21 L41.56,66.74 C41.56,66.74 43.19,66.8 41.98,68.05 L37.92,69.64 C37.92,69.64 36.23,70.23 35.57,68.95 L33.16,63.95 C32.5366832,62.4584515 32.4797829,60.7905603 33,59.26 L34.72,52.54 L37.09,49.11 Z" id="Shape" fill="#FFFFFF" stroke-width="1"/>
            <path d="M27.76,108.69 C27.76,108.69 29.56,109.57 30.36,108.32 C30.36,108.32 31.04,110.49 29.58,111.23 C29.58,111.23 26.58,111.88 27.25,110.12 C27.3587637,109.623661 27.5301353,109.143149 27.76,108.69 L27.76,108.69 Z" id="Shape" fill="#F24E4E" stroke-width="1"/>
            <path d="M33,108.69 C33,108.69 31.24,109.57 30.46,108.32 C30.46,108.32 29.79,110.49 31.22,111.23 C31.22,111.23 34.15,111.88 33.5,110.12 C33.3930006,109.624522 33.225056,109.1442 33,108.69 L33,108.69 Z" id="Shape" fill="#F24E4E" stroke-width="1"/>
            <path d="M27.79,108.71 C27.79,108.71 28.26,107.71 30.35,108.35 C30.35,108.35 28.55,107.28 27.74,108.71" id="Shape" fill="#F24E4E" stroke-width="1"/>
            <path d="M33,108.71 C33,108.71 32.53,107.71 30.44,108.35 C30.44,108.35 32.24,107.28 33.05,108.71" id="Shape" fill="#F24E4E" stroke-width="1"/>
            <path d="M23,49.78 C23,49.78 18,58.16 18.8,63.5 C18.8,63.5 18.31,66.9 22.16,65.84 L28.92,62.66 C29.37,62.44 29.4,63.4 29.64,63.83 C30.04,64.54 31.52,64.67 33.07,63.83 C33.07,63.83 34.59,60.83 32.23,59.97 C31.7371651,59.8252518 31.2221724,59.7710421 30.71,59.81 C29.7972513,60.1733884 28.9145247,60.6080643 28.07,61.11 L21.73,63.51 C21.73,63.51 20.58,63.51 21.33,61.39 L23.2,53.29 L23,49.78 Z" id="Shape" fill="#FFF3DE" stroke-width="1"/>
            <path d="M39.51,49.78 C39.51,49.78 44.59,58.16 43.83,63.5 C43.83,63.5 44.32,66.9 40.47,65.84 L33.55,62.63 C33.11,62.41 33.4,64 33.16,64.43 C32.2206531,65.3107275 30.8325624,65.5141546 29.68,64.94 C29.2850479,64.5909546 28.9856162,64.1469696 28.81,63.65 C28.6307294,62.3213161 29.376182,61.0404556 30.62,60.54 C31.201952,60.4128993 31.8095048,60.4796248 32.35,60.73 C33.0828736,60.8433249 33.8077022,61.0036557 34.52,61.21 L40.88,63.49 C40.88,63.49 42.03,63.49 41.28,61.37 L39.36,53.28 L39.51,49.78 Z" id="Shape" fill="#FFF3DE" stroke-width="1"/>
        </g>
    </g>
</svg>