<?xml version="1.0" encoding="UTF-8" standalone="no"?><svg xmlns="http://www.w3.org/2000/svg" xmlns:xlink="http://www.w3.org/1999/xlink" width="63.902557373046875" height="112.1483383178711" viewBox="-0.12246513366699219 -0.11102065443992615 63.902557373046875 112.1483383178711" version="1.1">
    <!-- Generator: Sketch 46.2 (44496) - http://www.bohemiancoding.com/sketch -->
    <title>Sister-a</title>
    <desc>Created with Sketch.</desc>
    <defs/>
    <g id="Page-1" stroke="none" fill-rule="evenodd">
        <g id="Sister-a" fill-rule="nonzero">
            <path d="M25.66,81.57 C25.66,81.57 26.06,88.44 26.6,89.82 C26.6,89.82 25.6,94.3 28.21,101.77 L28.21,106.62 C28.21,106.62 27.27,109.22 27.58,110.35 C28.3573118,110.982716 29.4952424,110.890094 30.16,110.14 C30.3531494,109.282968 30.3011672,108.388874 30.01,107.56 L29.51,81.56" id="Shape" fill="#FFF3DE" stroke-width="1"/>
            <path d="M34.86,81.57 C34.86,81.57 34.46,88.44 33.92,89.82 C33.92,89.82 34.92,94.3 32.31,101.77 L32.31,106.62 C32.31,106.62 33.25,109.22 32.94,110.35 C32.94,110.35 31.94,111.7 30.37,110.27 C30.1769174,109.366151 30.2287012,108.427137 30.52,107.55 L31.02,81.55" id="Shape" fill="#FFF3DE" stroke-width="1"/>
            <polygon id="Shape" fill="#FFF3DE" points="28.34 47.23 28.34 53.74 33.98 53.74 33.98 46.88" stroke-width="1"/>
            <path d="M10.05,25.51 C8.70199632,26.0472518 7.6358268,27.1175242 7.10375655,28.4675815 C6.5716863,29.8176387 6.62098929,31.3275294 7.24,32.64 C7.24,32.64 8.85,36.1 12.07,35.2 C12.07,35.2 17.33,47.41 29.87,47.39 C30.29,47.39 31.04,47.39 31.46,47.45 C34.46,47.56 45.92,48.04 51.46,35.45 C51.46,35.45 57.78,32.93 56.27,29.36 C55.7641835,27.3795374 54.1288821,25.8896835 52.11,25.57 C52.11,25.57 52.06,10.91 33.79,10.33 C33.79,10.36 11.89,9.5 10.05,25.51 Z" id="Shape" fill="#FFF3DE" stroke-width="1"/>
            <path d="M22.35,17.15 C22.35,17.15 17.92,26.29 10.35,28.15 L10.52,25.9 L7.38,28.68 C7.38,28.68 6.79,20.79 7.56,19.68 C7.56,19.68 -2.29,19.81 1.08,9.3 C1.08,9.3 4.99,1.24 11.75,7.67 C11.75,7.67 17.81,0.97 24.94,0.39 C26.5501666,0.368667209 28.147218,0.681948079 29.63,1.31 C29.63,1.31 43.15,-3 50.71,8.07 C50.71,8.07 59.84,1.51 63.09,10.91 C63.09,10.91 65.43,21.03 53.69,19.08 C53.69,19.08 55.23,25.78 53.69,27.99 C53.69,27.99 53.33,26.49 49.58,27.51 C49.58,27.51 42.14,29.87 34.78,20.63 C34.9687908,22.6529736 35.3950572,24.6466919 36.05,26.57 C36.05,26.57 32.16,25.88 30.93,20.79 C30.655594,22.5643587 30.9349501,24.380173 31.73,25.99 C31.73,25.99 27.29,25.07 25.66,17.63 C25.66,17.63 24.77,24.11 21.05,24.63 C21.05,24.61 23.16,19 22.35,17.15 Z" id="Shape" fill="#3D221D" stroke-width="1"/>
            <path d="M41.32,28.58 C42.1470082,28.5891593 42.930165,28.9534183 43.47,29.58 L43.47,29.58 C43.47,29.58 44.2,29.46 44.06,28.49 C44.4537003,29.0345006 44.3944049,29.7841631 43.92,30.26 C44.6451344,30.3314988 45.3211359,29.885004 45.54,29.19 C45.6592611,30.1530291 45.1063124,31.0732348 44.2,31.42 C44.2,31.42 44.2,31.48 44.2,31.51 C44.2,33.1116258 42.9016258,34.41 41.3,34.41 C39.6983742,34.41 38.4,33.1116258 38.4,31.51 C38.4,29.9083742 39.6983742,28.61 41.3,28.61 L41.32,28.58 Z" id="Shape" fill="#55453F" stroke-width="1"/>
            <circle id="Oval" fill="#FFFFFF" cx="42.4" cy="30.35" r="1" stroke-width="1"/>
            <path d="M22.45,28.58 C21.6229918,28.5891593 20.839835,28.9534183 20.3,29.58 L20.3,29.58 C20.3,29.58 19.57,29.46 19.71,28.49 C19.3162997,29.0345006 19.3755951,29.7841631 19.85,30.26 C19.1248656,30.3314988 18.4488641,29.885004 18.23,29.19 C18.1107389,30.1530291 18.6636876,31.0732348 19.57,31.42 C19.57,31.42 19.57,31.48 19.57,31.51 C19.57,33.1116258 20.8683742,34.41 22.47,34.41 C24.0716258,34.41 25.37,33.1116258 25.37,31.51 C25.37,29.9083742 24.0716258,28.61 22.47,28.61 L22.45,28.58 Z" id="Shape" fill="#55453F" stroke-width="1"/>
            <circle id="Oval" fill="#FFFFFF" cx="23.46" cy="30.35" r="1" stroke-width="1"/>
            <path d="M27.39,39 L35.86,39 C35.86,39 35.32,43.72 31.74,44.05 C31.73,44.1 27.89,43.94 27.39,39 Z" id="Shape" fill="#F18F83" stroke-width="1"/>
            <path d="M28.64,42.35 C28.64,42.35 32.03,40.12 34.64,42.44 C33.9794198,43.3763305 32.9489923,43.9843919 31.81,44.11 C30.5583623,43.9775546 29.4142279,43.3423254 28.64,42.35 L28.64,42.35 Z" id="Shape" fill="#E76663" stroke-width="1"/>
            <path d="M13.59,5.43 C10.16,4.33 11.27,8.05 11.27,8.05 C11.3503557,8.24577093 11.4655535,8.42534394 11.61,8.58 C11.3831789,8.68238168 11.1765711,8.8246362 11,9 C8.18,10.88 11.2,12 11.2,12 C14.75,12.59 13.11,9.07 13.11,9.07 C13.0281057,8.9388147 12.9307408,8.81794791 12.82,8.71 C13.0071476,8.63183008 13.1822324,8.52745257 13.34,8.4 C16.41,7 13.59,5.43 13.59,5.43 Z" id="Shape" fill="#F24E4E" stroke-width="1"/>
            <rect id="Rectangle-path" fill="#F40206" transform="matrix(0.9822217824677313,0.18772418609735061,-0.18772418609735061,0.9822217824677313,1.9074748746553443,-2.125642996592431)" x="10.9213077" y="8.50790567" width="2.51" height="1" rx="0.34" stroke-width="1"/>
            <path d="M50.61,5.21 C47.17,6.26 50.2,8.69 50.2,8.69 C50.3772887,8.80430218 50.5737822,8.88560983 50.78,8.93 C50.6565211,9.15325038 50.5751671,9.39731235 50.54,9.65 C49.29,12.8 52.43,12 52.43,12 C55.68,10.46 52.33,8.5 52.33,8.5 C52.1858342,8.43855774 52.0347216,8.39490299 51.88,8.37 C51.9897868,8.19630396 52.0739845,8.00770112 52.13,7.81 C53.82,4.91 50.61,5.21 50.61,5.21 Z" id="Shape" fill="#F24E4E" stroke-width="1"/>
            <rect id="Rectangle-path" fill="#F40206" transform="matrix(0.9141124784450788,-0.4054606969251093,0.4054606969251093,0.9141124784450788,0.789186461350539,21.63990395741694)" x="50.2187856" y="8.45714323" width="2.51" height="1" rx="0.34" stroke-width="1"/>
            <path d="M25.52,49.24 L26.44,49.24 C27.0625956,49.2335504 27.6737866,49.4071842 28.2,49.74 C29.36,50.49 31.8,51.64 34.04,49.95 C34.6141729,49.5066198 35.3147828,49.2579033 36.04,49.24 L36.31,49.24 C37.19571,49.2398536 38.0443003,49.5957554 38.6649244,50.2276635 C39.2855485,50.8595717 39.6261038,51.7144364 39.61,52.6 C39.48,59.91 39.84,77.69 45.73,91.3 C46.1054631,92.1737793 46.0857008,93.1670626 45.6757793,94.025216 C45.2658578,94.8833694 44.5056356,95.5229508 43.59,95.78 C37.9,97.39 26.59,99.63 16.59,95.9 C14.8871648,95.2555625 14.0279947,93.3537537 14.67,91.65 C17.44,84.22 24.24,64.36 22.26,53.15 C22.0816772,52.1825555 22.3429188,51.1859196 22.9728851,50.4303466 C23.6028513,49.6747736 24.5362592,49.2385629 25.52,49.24 L25.52,49.24 Z" id="Shape" fill="#F24E4E" stroke-width="1"/>
            <path d="M24.07,49.3 L25.42,49.3 L25.93,51.51 L28.76,61.13 L26.41,68.49 L24.92,69.05 L20.92,66.91 C22.413158,63.7026404 22.9910881,60.1450824 22.59,56.63" id="Shape" fill="#FF3035" stroke-width="1"/>
            <path d="M38.29,49.3 L36.94,49.3 L36.43,51.51 L33.6,61.13 L35.95,68.49 L37.44,69.05 L41.44,66.91 C39.946842,63.7026404 39.3689119,60.1450824 39.77,56.63" id="Shape" fill="#FF3035" stroke-width="1"/>
            <path d="M38.55,49.31 C38.78,49.16 39.09,49.18 39.41,49.87 C39.41,50.15 39.16,54.1 39.95,56.18 C39.95,56.35 39.77,58.18 39.14,56.28 L39.14,56.28 C39.14,56.13 38.63,51.81 38.25,50.09 C38.1930357,49.7940612 38.3094077,49.491494 38.55,49.31 L38.55,49.31 Z" id="Shape" fill="#FFFFFF" stroke-width="1"/>
            <path d="M22.83,50 C22.8310081,49.693187 23.0163994,49.4170724 23.3,49.3 C23.57,49.19 23.89,49.23 24.08,49.83 C24.0333896,51.6971841 23.7716616,53.5527689 23.3,55.36 C23.3,55.36 22.88,56.64 22.38,56.67 C22.38,56.67 21.38,57.08 22.08,56 C22.6107885,55.3304798 22.8584531,54.4798057 22.77,53.63 C22.77,53.63 22.81,51.06 22.83,50 Z" id="Shape" fill="#FFFFFF" stroke-width="1"/>
            <path d="M25.43,49.3 L28.11,59.67 C28.4651552,60.7789243 28.4651552,61.9710757 28.11,63.08 L26.23,67.85 C26.23,67.85 25.94,69.24 24.59,68.4 L20.92,66.93 C20.92,66.93 19.29,66.99 20.5,68.24 L24.56,69.83 C24.56,69.83 26.25,70.42 26.91,69.14 L29.32,64.14 C29.9400521,62.6472231 29.9933957,60.9793477 29.47,59.45 L27.75,52.73 L25.43,49.3 Z" id="Shape" fill="#FFFFFF" stroke-width="1"/>
            <path d="M36.94,49.3 L34.21,59.67 C33.8548448,60.7789243 33.8548448,61.9710757 34.21,63.08 L36.09,67.85 C36.09,67.85 36.38,69.24 37.73,68.4 L41.4,66.93 C41.4,66.93 43.03,66.99 41.82,68.24 L37.76,69.83 C37.76,69.83 36.07,70.42 35.41,69.14 L33,64.14 C32.3799479,62.6472231 32.3266043,60.9793477 32.85,59.45 L34.57,52.73 L36.94,49.3 Z" id="Shape" fill="#FFFFFF" stroke-width="1"/>
            <path d="M27.61,108.88 C27.61,108.88 29.41,109.76 30.21,108.51 C30.21,108.51 30.89,110.68 29.43,111.42 C29.43,111.42 26.43,112.07 27.1,110.31 C27.2087637,109.813661 27.3801353,109.333149 27.61,108.88 Z" id="Shape" fill="#F24E4E" stroke-width="1"/>
            <path d="M32.89,108.88 C32.89,108.88 31.13,109.76 30.35,108.51 C30.35,108.51 29.68,110.68 31.11,111.42 C31.11,111.42 34.04,112.07 33.39,110.31 C33.2830006,109.814522 33.115056,109.3342 32.89,108.88 L32.89,108.88 Z" id="Shape" fill="#F24E4E" stroke-width="1"/>
            <path d="M27.64,108.89 C27.64,108.89 28.11,107.89 30.2,108.53 C30.2,108.53 28.4,107.46 27.59,108.89" id="Shape" fill="#F24E4E" stroke-width="1"/>
            <path d="M32.86,108.89 C32.86,108.89 32.39,107.89 30.3,108.53 C30.3,108.53 32.1,107.46 32.91,108.89" id="Shape" fill="#F24E4E" stroke-width="1"/>
            <path d="M22.82,50.65 C22.82,50.65 18.46,57.55 18.46,65.05 C18.46,65.05 17.55,71.43 22.29,66.64 L30.16,56.59 C30.16,56.59 32.92,53.08 31.39,51.4 C31.098775,51.0891065 30.6497317,50.9827542 30.25,51.13 C28.2968385,51.6758622 26.9758747,53.4937403 27.06,55.52 L22.33,62.52 C22.33,62.52 20.94,63.21 21.51,61.73 L22.87,54.52 L22.82,50.65 Z" id="Shape" fill="#FFF3DE" stroke-width="1"/>
            <path d="M39.38,51 C39.38,51 43.08,55.88 43.57,65 C43.57,65 44.04,68.15 39.82,67 L29.89,55.78 C29.89,55.78 27.29,52 30.7,51 C30.7,51 34.89,51.19 33.43,55.23 L39.16,61.74 C39.16,61.74 40.93,62.74 40.41,60.74 L39.41,53.39 L39.38,51 Z" id="Shape" fill="#FFF3DE" stroke-width="1"/>
        </g>
    </g>
</svg>