<?xml version="1.0" encoding="UTF-8" standalone="no"?><svg xmlns="http://www.w3.org/2000/svg" xmlns:xlink="http://www.w3.org/1999/xlink" width="48.29115676879883" height="92.32921600341797" viewBox="-0.8880496025085449 -0.535944938659668 48.29115676879883 92.32921600341797" version="1.1">
    <!-- Generator: Sketch 46.2 (44496) - http://www.bohemiancoding.com/sketch -->
    <title>Younger brother-b</title>
    <desc>Created with Sketch.</desc>
    <defs/>
    <g id="Page-1" stroke="none" fill-rule="evenodd">
        <g id="Younger-brother-b" fill-rule="nonzero">
            <rect id="Rectangle-path" fill="#FFF3DE" x="17.68" y="80.47" width="2.48" height="5.07" stroke-width="1"/>
            <rect id="Rectangle-path" fill="#FFF3DE" x="26.12" y="80.47" width="2.48" height="5.07" stroke-width="1"/>
            <polygon id="Shape" fill="#FFF3DE" points="21.46 39.89 21.46 42.91 25.07 42.91 25.07 39.73" stroke-width="1"/>
            <path d="M20.8,41.43 C20.8,41.43 23.15,44.64 25.63,41.25 C25.63,41.25 30.07,40.1 32.47,47.01 L28.68,47.01 C28.68,47.01 28.86,46.12 27.68,44.83 L28.43,52.96 L18.32,52.79 L18.75,44.79 C18.3851445,45.4185125 18.1314256,46.1052449 18,46.82 L14,46.71 C14,46.71 16.1,41.94 20.8,41.43 Z" id="Shape" fill="#E8FCF6" stroke-width="1"/>
            <path d="M17.61,84.46 C17.61,84.46 18.03,86.23 20.39,84.76 C20.39,84.76 21.53,84.24 21.04,85.9 C20.8439314,87.7622172 19.6919848,89.387826 18,90.19 C18,90.19 13.9,90.98 14.26,88.19 C14.26,88.19 14.06,87.41 15.97,86.13 C15.92,86.17 17.87,85.46 17.61,84.46 Z" id="Shape" fill="#F24E4E" stroke-width="1"/>
            <path d="M28.66,84.46 C28.66,84.46 28.24,86.23 25.88,84.76 C25.88,84.76 24.74,84.24 25.23,85.9 C25.4359502,87.7731088 26.6086377,89.401209 28.32,90.19 C28.32,90.19 32.42,90.98 32.06,88.19 C32.06,88.19 32.26,87.41 30.35,86.13 C30.36,86.17 28.41,85.46 28.66,84.46 Z" id="Shape" fill="#F24E4E" stroke-width="1"/>
            <path d="M20.63,41.25 L19.53,41.25 L19.53,47.6 C19.7022878,49.3382183 18.9025826,51.0299023 17.45,52 L15.59,81.43 C15.59,81.43 19.11,83.32 22.01,81.43 L22.24,67.43 C22.24,67.43 23.34,65.36 24.08,67.52 L24.26,81.66 C24.26,81.66 28.08,83.36 30.7,81.43 L29.39,52 C29.39,52 26.46,50.65 26.39,47.65 L26.39,41.3 L25.39,41.3 L25.39,47.48 L20.46,47.57 L20.63,41.25 Z" id="Shape" fill="#FF3035" stroke-width="1"/>
            <path d="M19.66,54.8 L27,54.8 C27,54.8 26.69,60.39 23.31,60.43 C23.31,60.43 19.69,60.6 19.45,54.8" id="Shape" fill="#F75C68" stroke-width="1"/>
            <path d="M15.69,79.94 L15.59,81.45 C15.59,81.45 19.15,83.45 22.01,81.45 L22.01,79.94 C20.0232254,80.9451322 17.6767746,80.9451322 15.69,79.94 L15.69,79.94 Z" id="Shape" fill="#F75C68" stroke-width="1"/>
            <path d="M24.24,80.12 L24.24,81.64 C24.24,81.64 28.07,83.37 30.68,81.41 L30.61,79.94 C30.61,79.94 26.91,81.58 24.24,80.12 Z" id="Shape" fill="#F75C68" stroke-width="1"/>
            <path d="M15,47.61 C14.2613195,49.8490924 13.8503983,52.1832591 13.78,54.54 C13.78,54.54 13.41,57.11 16.33,56.31 L21.45,53.9 C21.79,53.74 21.81,54.46 21.99,54.79 C22.29,55.33 23.41,55.43 24.59,54.79 C24.59,54.79 25.74,52.54 23.95,51.87 C23.57709,51.7607222 23.1874368,51.7200627 22.8,51.75 C22.1080154,52.0300918 21.4392642,52.3644674 20.8,52.75 L16,54.54 C16,54.54 15.13,54.54 15.7,52.93 L16.5,47.61 L15,47.61 Z" id="Shape" stroke="#FFF3DE" stroke-width="3" fill="#FFF3DE"/>
            <path d="M31.72,47.91 C32.3674488,50.0645058 32.7041754,52.3003701 32.72,54.55 C32.72,54.55 33.09,57.12 30.17,56.32 L25,53.89 C24.67,53.73 24.89,54.89 24.71,55.25 C23.996702,55.9176322 22.9426369,56.0693537 22.07,55.63 C21.7672918,55.3592923 21.5399009,55.0147606 21.41,54.63 C21.2722013,53.6223958 21.8366815,52.6500065 22.78,52.27 C23.2202605,52.1727539 23.6802333,52.2219113 24.09,52.41 C24.6438125,52.4947528 25.1916075,52.6150005 25.73,52.77 L30.55,54.5 C30.55,54.5 31.42,54.5 30.85,52.89 L29.85,47.89 L31.72,47.91 Z" id="Shape" stroke="#FFF3DE" stroke-width="3" fill="#FFF3DE"/>
            <path d="M3.93,22 C3.93,22 -0.94,23.63 1.12,28 C2.0926859,29.68905 4.04400132,30.557648 5.95,30.15 C8.97080629,36.5563174 15.5110438,40.553566 22.59,40.32 C23.01,40.32 24.3,40.32 24.72,40.38 C27.72,40.47 34.94,39.92 40.86,30.38 C40.86,30.38 47.18,28.27 45.67,25.28 C45.04678,23.4830634 43.4078832,22.2341925 41.51,22.11 C41.51,22.11 41.46,9.83 23.19,9.35 C23.19,9.34 5.77,8.63 3.93,22 Z" id="Shape" fill="#FFF3DE" stroke-width="1"/>
            <path d="M15.61,33.36 L31.82,33.36 C31.82,33.36 30.82,37.36 23.93,37.59 C23.93,37.59 16.58,37.46 15.61,33.36 Z" id="Shape" fill="#F18F83" stroke-width="1"/>
            <path d="M18,36.13 C18,36.13 24.49,34.26 29.43,36.2 C27.7731614,37.1313656 25.9005595,37.6107241 24,37.59 C24,37.59 20.24,37.47 18,36.13 Z" id="Shape" fill="#E76663" stroke-width="1"/>
            <path d="M4.92,28.41 C4.92,28.41 -0.91,21.77 4.3,11.34 C4.3,11.34 11.08,-0.66 24.09,1.15 C24.09,1.15 43.82,0.15 44.09,17.15 C44.09,17.15 45.76,24.15 41.23,27.8 C41.23,27.8 40.37,29.98 40.56,25.56 C40.56,25.56 41.56,21.63 38.33,19.36 C38.33,19.36 32.81,18.04 31.44,19.74 C31.44,19.74 30.31,17.86 34.61,15.45 C34.61,15.45 25.8,20.31 20.09,19.31 C20.09,19.31 24.19,17.39 24.28,15.6 C21.6009212,17.4308256 18.6077141,18.7528537 15.45,19.5 C15.45,19.5 18.14,18.5 18.96,16.5 C18.96,16.5 11.68,22.23 9.48,21.7 C10.3490246,20.7659546 11.113548,19.7398837 11.76,18.64 C11.92,17.97 5.89,20.87 5.59,21.84 C5.56,21.9 5.66,28.28 4.92,28.41 Z" id="Shape" fill="#3D221D" stroke-width="1"/>
            <ellipse id="Oval" fill="#55453F" cx="16.56" cy="27.01" rx="2.86" ry="2.44" stroke-width="1"/>
            <ellipse id="Oval" fill="#55453F" cx="31.78" cy="26.97" rx="2.86" ry="2.44" stroke-width="1"/>
            <ellipse id="Oval" fill="#FFFFFF" cx="17.53" cy="26.08" rx="1" ry="1" stroke-width="1"/>
            <ellipse id="Oval" fill="#FFFFFF" cx="32.52" cy="26.08" rx="1" ry="1" stroke-width="1"/>
        </g>
    </g>
</svg>