<?xml version="1.0" encoding="UTF-8" standalone="no"?><svg xmlns="http://www.w3.org/2000/svg" xmlns:xlink="http://www.w3.org/1999/xlink" width="47.281158447265625" height="91.3192138671875" viewBox="-0.5780491828918457 -0.9359426498413086 47.281158447265625 91.3192138671875" version="1.1">
    <!-- Generator: Sketch 46.2 (44496) - http://www.bohemiancoding.com/sketch -->
    <title>Younger brother-a</title>
    <desc>Created with Sketch.</desc>
    <defs/>
    <g id="Page-1" stroke="none" fill-rule="evenodd">
        <g id="Younger-brother-a" fill-rule="nonzero">
            <rect id="Rectangle-path" fill="#FFF3DE" x="17.36" y="79.56" width="2.48" height="5.07" stroke-width="1"/>
            <rect id="Rectangle-path" fill="#FFF3DE" x="25.8" y="79.56" width="2.48" height="5.07" stroke-width="1"/>
            <polygon id="Shape" fill="#FFF3DE" points="21.13 38.98 21.13 42 24.74 42 24.74 38.82" stroke-width="1"/>
            <path d="M20.47,40.53 C20.47,40.53 22.82,43.74 25.3,40.35 C26.3513533,40.1161481 27.4486953,40.2032388 28.45,40.6 C29.74,41.26 31.09,43.05 32.29,46.5 L28.29,46.66 C28.4250863,45.6480056 28.0941092,44.6293317 27.39,43.89 L28.1,52 L18,51.86 L18.43,43.86 C17.8925146,44.6874369 17.500214,45.6005502 17.27,46.56 L13.16,46 C13.16,46 14.94,42.39 17.88,40.83 C18.7054806,40.5183438 19.595134,40.4152951 20.47,40.53 Z" id="Shape" fill="#E8FCF6" stroke-width="1"/>
            <path d="M17.29,83.55 C17.29,83.55 17.71,85.32 20.07,83.85 C20.07,83.85 21.21,83.33 20.72,84.99 C20.5140498,86.8631088 19.3413623,88.491209 17.63,89.28 C17.63,89.28 13.53,90.07 13.89,87.28 C13.89,87.28 13.69,86.5 15.6,85.22 C15.6,85.26 17.55,84.55 17.29,83.55 Z" id="Shape" fill="#F24E4E" stroke-width="1"/>
            <path d="M28.34,83.55 C28.34,83.55 27.92,85.32 25.56,83.85 C25.56,83.85 24.42,83.33 24.91,84.99 C25.1159502,86.8631088 26.2886377,88.491209 28,89.28 C28,89.28 32.1,90.07 31.74,87.28 C31.74,87.28 31.94,86.5 30.03,85.22 C30,85.26 28.08,84.55 28.34,83.55 Z" id="Shape" fill="#F24E4E" stroke-width="1"/>
            <path d="M20.3,40.51 L19.2,40.51 L19.2,46.68 C19.3821186,48.4230441 18.5855544,50.1239204 17.13,51.1 L15.27,80.53 C15.27,80.53 18.79,82.42 21.69,80.53 L21.92,66.53 C21.92,66.53 23.02,64.46 23.76,66.62 L23.94,80.76 C23.94,80.76 27.76,82.46 30.38,80.53 L29.07,51 C29.07,51 26.14,49.65 26.07,46.65 L26.2,40.2 L25.42,40.27 L25.14,46.48 L20.21,46.57 L20.3,40.51 Z" id="Shape" fill="#FF3035" stroke-width="1"/>
            <path d="M19.33,53.89 L26.71,53.89 C26.71,53.89 26.4,59.48 23.02,59.52 C23.02,59.52 19.4,59.69 19.16,53.89" id="Shape" fill="#F75C68" stroke-width="1"/>
            <path d="M15.36,79 L15.26,80.51 C15.26,80.51 18.82,82.51 21.68,80.51 L21.68,79 C19.6932254,80.0051322 17.3467746,80.0051322 15.36,79 L15.36,79 Z" id="Shape" fill="#F75C68" stroke-width="1"/>
            <path d="M23.92,79.21 L23.92,80.73 C23.92,80.73 27.75,82.46 30.36,80.5 L30.31,79 C30.31,79 26.58,80.67 23.92,79.21 Z" id="Shape" fill="#F75C68" stroke-width="1"/>
            <path d="M14.06,46.49 C14.06,46.49 13.16,47.95 12.38,53.67 C12.38,53.67 11.65,58.77 15.44,54.94 L21.72,46.94 C21.72,46.94 23.92,44.14 22.72,42.79 C22.4857366,42.5447038 22.1280632,42.4621638 21.81,42.58 C20.2731501,42.9997847 19.2156542,44.407036 19.24,46 L15.47,51.59 C15.47,51.59 14.36,52.14 14.81,50.96 L16,46.7 L14.06,46.49 Z" id="Shape" stroke="#FFF3DE" stroke-width="2" fill="#FFF3DE"/>
            <path d="M31.3,46.85 C31.3,46.85 31.47,47.4 32.42,53.65 C32.42,53.65 32.79,56.17 29.42,55.27 L21.5,46.27 C21.5,46.27 19.42,43.22 22.15,42.48 C22.15,42.48 25.5,42.63 24.33,45.86 L28.91,51 C28.91,51 30.32,51.77 29.91,50.21 L29.25,47 L31.3,46.85 Z" id="Shape" stroke="#FFF3DE" stroke-width="2" fill="#FFF3DE"/>
            <path d="M3.74,21.12 C3.74,21.12 -1.13,22.75 0.93,27.12 C1.9026859,28.80905 3.85400132,29.677648 5.76,29.27 C8.78822702,35.6611961 15.3215923,39.6448596 22.39,39.41 C22.81,39.41 24.1,39.41 24.52,39.47 C27.52,39.56 34.74,39.01 40.66,29.47 C40.66,29.47 46.98,27.36 45.47,24.37 C44.84678,22.5730634 43.2078832,21.3241925 41.31,21.2 C41.31,21.2 41.27,8.92 23,8.43 C23,8.43 5.58,7.72 3.74,21.12 Z" id="Shape" fill="#FFF3DE" stroke-width="1"/>
            <path d="M15.42,32.46 L31.63,32.46 C31.63,32.46 30.63,36.46 23.74,36.69 C23.74,36.69 16.39,36.56 15.42,32.46 Z" id="Shape" fill="#F18F83" stroke-width="1"/>
            <path d="M17.81,35.22 C17.81,35.22 24.3,33.35 29.24,35.29 C27.5900129,36.2214601 25.7246964,36.7041667 23.83,36.69 C23.83,36.69 20,36.57 17.81,35.22 Z" id="Shape" fill="#E76663" stroke-width="1"/>
            <path d="M4.73,27.51 C4.73,27.51 -1.1,20.87 4.11,10.44 C4.11,10.44 10.89,-1.56 23.9,0.25 C23.9,0.25 43.63,-0.75 43.9,16.25 C43.9,16.25 45.57,23.25 41.04,26.9 C41.04,26.9 40.18,29.08 40.37,24.66 C40.37,24.66 41.37,20.73 38.14,18.46 C38.14,18.46 32.62,17.14 31.25,18.84 C31.25,18.84 30.12,16.96 34.42,14.55 C34.42,14.55 25.61,19.41 19.9,18.41 C19.9,18.41 24,16.49 24.09,14.7 C21.4109212,16.5308256 18.4177141,17.8528537 15.26,18.6 C15.26,18.6 17.95,17.6 18.77,15.6 C18.77,15.6 11.49,21.33 9.29,20.8 C10.1590246,19.8659546 10.923548,18.8398837 11.57,17.74 C11.73,17.07 5.7,19.97 5.4,20.94 C5.37,21 5.46,27.38 4.73,27.51 Z" id="Shape" fill="#3D221D" stroke-width="1"/>
            <ellipse id="Oval" fill="#55453F" cx="16.36" cy="26.1" rx="2.86" ry="2.44" stroke-width="1"/>
            <ellipse id="Oval" fill="#55453F" cx="31.59" cy="26.06" rx="2.86" ry="2.44" stroke-width="1"/>
            <ellipse id="Oval" fill="#FFFFFF" cx="17.34" cy="25.17" rx="1" ry="1" stroke-width="1"/>
            <ellipse id="Oval" fill="#FFFFFF" cx="32.32" cy="25.17" rx="1" ry="1" stroke-width="1"/>
        </g>
    </g>
</svg>