<?xml version="1.0" encoding="UTF-8" standalone="no"?><svg xmlns="http://www.w3.org/2000/svg" xmlns:xlink="http://www.w3.org/1999/xlink" width="47.26558303833008" height="194.88653564453125" viewBox="-0.13420963287353516 0.38565540313720703 47.26558303833008 194.88653564453125" version="1.1">
    <!-- Generator: Sketch 46.2 (44496) - http://www.bohemiancoding.com/sketch -->
    <title>Mom-a</title>
    <desc>Created with Sketch.</desc>
    <defs/>
    <g id="Page-1" stroke="none" fill-rule="evenodd">
        <g id="Mom-a">
            <path d="M15.52,135.15 C15.52,135.15 16.29,148.55 17.35,151.25 C17.35,151.25 15.35,159.99 20.48,174.57 L20.48,184 C20.48,184 18.64,189.07 19.25,191.28 C19.25,191.28 21.83,197.13 24.25,192.04 C24.6140381,189.970703 24.5149972,187.846448 23.96,185.82 L22.96,135.12" id="Shape" fill="#FFF3DE" fill-rule="nonzero" stroke-width="1"/>
            <path d="M33.48,135.15 C33.48,135.15 32.71,148.55 31.65,151.25 C31.65,151.25 33.65,159.99 28.52,174.57 L28.52,184 C28.52,184 30.36,189.07 29.75,191.28 C29.75,191.28 27.26,197.01 24.75,192.04 C24.3859619,189.970703 24.4850028,187.846448 25.04,185.82 L26.04,135.12" id="Shape" fill="#FFF3DE" fill-rule="nonzero" stroke-width="1"/>
            <path d="M19.1,189.51 C19.1,189.51 22.85,191.36 24.51,188.73 C24.51,188.73 25.51,193.05 22.51,194.6 C22.51,194.6 17.51,195.66 18.03,192.52 C18.2602782,191.476123 18.619713,190.465003 19.1,189.51 L19.1,189.51 Z" id="Shape" fill="#F24E4E" fill-rule="nonzero" stroke-width="1"/>
            <path d="M29.85,189.51 C29.85,189.51 26.17,191.36 24.54,188.73 C24.54,188.73 23.12,193 26.11,194.56 C26.11,194.56 31.68,195.56 30.9,192.56 C30.6779787,191.503685 30.3252642,190.479133 29.85,189.51 L29.85,189.51 Z" id="Shape" fill="#F24E4E" fill-rule="nonzero" stroke-width="1"/>
            <polygon id="Shape" fill="#FFF3DE" fill-rule="nonzero" points="21.32 66.78 21.32 73.78 27.68 73.78 27.68 66.4" stroke-width="1"/>
            <path d="M37.53,72.41 C36.12,70.67 31,69.1 31,69.1 C27.52,65.45 26.94,72.83 26.94,72.83 C26.3,73.63 24.57,73.57 24.57,73.57 C24.57,73.57 22.74,73.63 22.11,72.83 C22.11,72.83 21.53,65.45 18.05,69.1 C18.05,69.1 12.91,70.67 11.5,72.42 C11.5,72.42 7.19,76.65 7.6,79.88 L12.16,84.27 C12.16,84.27 13.24,93.55 16.16,94.8 C16.9304569,95.6611615 17.3199768,96.7972612 17.24,97.95 L17.13,101.54 C16.9221957,103.417378 16.1518518,105.188123 14.92,106.62 C14.92,106.62 13.26,109.22 13.43,111.1 C13.43,111.1 11.5,135.75 14.87,140.64 L34.19,140.64 C37.56,135.75 35.63,111.1 35.63,111.1 C35.8,109.22 34.14,106.62 34.14,106.62 C32.9081482,105.188123 32.1378043,103.417378 31.93,101.54 L31.82,97.95 C31.7400232,96.7972612 32.1295431,95.6611615 32.9,94.8 C35.8,93.56 36.9,84.27 36.9,84.27 L41.46,79.88 C41.84,76.64 37.53,72.41 37.53,72.41 Z" id="Shape" fill="#FF3035" fill-rule="nonzero" stroke-width="1"/>
            <path d="M21.79,73.09 C21.79,73.09 15.3,77.15 14.79,82.29" id="Shape" stroke="#494848" stroke-linecap="round" stroke-linejoin="round" stroke-width="1" fill="none"/>
            <ellipse id="Oval" fill="#494848" fill-rule="nonzero" cx="19.49" cy="74.84" rx="1.1" ry="1" stroke-width="1"/>
            <ellipse id="Oval" fill="#494848" fill-rule="nonzero" cx="17.87" cy="76.74" rx="1.1" ry="1" stroke-width="1"/>
            <ellipse id="Oval" fill="#494848" fill-rule="nonzero" cx="16.34" cy="78.65" rx="1.1" ry="1" stroke-width="1"/>
            <path d="M5.79,38.71 L5.79,50.3 C5.78784392,52.3447881 6.42796564,54.3386099 7.62,56 C10.72,60.34 18.7,68.32 24.77,67.93 C24.77,67.93 33.55,68.34 41.7,56.46 C42.5871338,54.9264812 43.1392593,53.2223902 43.32,51.46 C43.3315501,51.3235774 43.3315501,51.1864226 43.32,51.05 L43.7,40.68 C43.748575,38.8872272 43.3022411,37.1157313 42.41,35.56 L38.41,28.5 C35.8558889,24.1834218 30.6601658,22.2013343 25.88,23.72 L13.3,27.62 C9.54075669,28.7330621 6.74574222,31.8929812 6.1,35.76 L5.87,37.22 C5.80503612,37.7138685 5.77829001,38.2120148 5.79,38.71 Z" id="Shape" fill="#FFF3DE" fill-rule="nonzero" stroke-width="1"/>
            <path d="M9.11,32.14 C9.11,32.14 4,41 9.21,58.7 C9.21,58.7 -5.9,42.31 3.38,25.52 C3.38,25.52 5.05,16.27 18.69,13.32 C18.69,13.32 15.69,-1.68 28.86,1.27 C28.86,1.27 42.95,3.27 37.58,16.27 C37.58,16.27 45.16,23.02 46.35,33.44 C46.35,33.44 47.77,45.19 44.23,49.97 C44.23,49.97 42.98,42.62 40.96,41.25 C41,41.27 16.82,42.69 9.11,32.14 Z" id="Shape" fill="#3D221D" fill-rule="nonzero" stroke-width="1"/>
            <path d="M33.87,44.69 C34.8074084,44.6705369 35.7127963,45.0312492 36.38,45.69 L36.38,45.69 C36.6359243,45.6346675 36.8566665,45.4740138 36.9880066,45.2474996 C37.1193468,45.0209854 37.1491152,44.7495991 37.07,44.5 C37.539283,45.0814535 37.4734864,45.9280363 36.92,46.43 C37.7391244,46.509934 38.5099569,46.0302138 38.8,45.26 C38.9338928,46.3371142 38.2831569,47.3573002 37.25,47.69 C37.25,47.69 37.25,47.76 37.25,47.79 C37.3568195,49.1748559 36.6055544,50.4840823 35.3560203,51.0906305 C34.1064863,51.6971787 32.6130879,51.4775556 31.5910824,50.5369489 C30.569077,49.5963421 30.2265446,48.1262589 30.7275396,46.8307899 C31.2285347,45.5353208 32.4710549,44.678223 33.86,44.67 L33.87,44.69 Z" id="Shape" fill="#55453F" fill-rule="nonzero" stroke-width="1"/>
            <ellipse id="Oval" fill="#FFFFFF" fill-rule="nonzero" transform="matrix(0.9999853631686856,-0.005410494283530485,0.005410494283530485,0.9999853631686856,-0.2516137427358416,0.1907429823540241)" cx="35.1281972" cy="46.5997919" rx="1" ry="1" stroke-width="1"/>
            <path d="M16.19,44.78 C15.247275,44.7790652 14.3447454,45.1617378 13.69,45.84 L13.69,45.84 C13.69,45.84 12.84,45.71 12.99,44.66 C12.53208,45.2448677 12.6064393,46.0846905 13.16,46.58 C12.3425765,46.6675186 11.5679677,46.1961958 11.27,45.43 C11.1435316,46.509198 11.8029592,47.5256406 12.84,47.85 C12.84,47.85 12.84,47.92 12.84,47.95 C12.7496092,49.3362747 13.5166497,50.6366816 14.7736398,51.2282083 C16.0306299,51.8197349 17.5215507,51.5819015 18.5321162,50.6286516 C19.5426817,49.6754018 19.8670638,48.2008898 19.3498543,46.9115403 C18.8326448,45.6221908 17.5791867,44.7806135 16.19,44.79 L16.19,44.78 Z" id="Shape" fill="#55453F" fill-rule="nonzero" stroke-width="1"/>
            <ellipse id="Oval" fill="#FFFFFF" fill-rule="nonzero" transform="matrix(0.9999853631686856,-0.005410494283530485,0.005410494283530485,0.9999853631686856,-0.2524476750639302,0.09465849049124131)" cx="17.3689982" cy="46.7058808" rx="1" ry="1" stroke-width="1"/>
            <path d="M28.81,42.55 C28.81,42.55 34.81,39.98 40.81,42.55 C40.81,42.55 34.2,37.8 28.81,42.34" id="Shape" fill="#3D221D" fill-rule="nonzero" stroke-width="1"/>
            <path d="M10.2,41.89 C10.2,41.89 16.2,39.32 22.2,41.89 C22.2,41.89 15.59,37.14 10.2,41.68" id="Shape" fill="#3D221D" fill-rule="nonzero" stroke-width="1"/>
            <path d="M20.07,59.9 C21.8328907,60.7328311 23.7219785,61.2667772 25.66,61.48 C26.5459289,61.530989 27.4331497,61.4052144 28.27,61.11 C28.735287,60.9697104 29.1898081,60.7959229 29.63,60.59 C30.1,60.39 30.53,60.11 31.07,59.9 C30.8543559,60.4157948 30.5755605,60.9028471 30.24,61.35 C29.4967748,62.264673 28.4974526,62.9366911 27.37,63.28 C26.7823226,63.4299197 26.1760269,63.4939175 25.57,63.47 C24.3941213,63.4071592 23.2572112,63.0270373 22.28,62.37 C21.3338224,61.7613179 20.570129,60.9077782 20.07,59.9 Z" id="Shape" fill="#FFAEB8" fill-rule="nonzero" stroke-width="1"/>
            <path d="M29.58,134.92 C29.7754854,135.169897 29.8407847,135.497734 29.7559698,135.803463 C29.6711549,136.109191 29.4462904,136.356531 29.15,136.47 L29.04,136.47 C28.670008,136.564634 28.2847192,136.384554 28.12,136.04 C27.9803543,135.660543 28.0829612,135.23433 28.38,134.96 C28.5365271,134.826246 28.7485358,134.777416 28.9478015,134.829225 C29.1470671,134.881034 29.3084437,135.026944 29.38,135.22 C29.4457878,135.341677 29.4457878,135.488323 29.38,135.61 C29.3455561,135.702045 29.2729683,135.774684 29.1809469,135.809192 C29.0889256,135.8437 28.9864739,135.836701 28.9,135.79 C28.9,135.79 28.66,135.58 28.81,135.4 C28.81,135.4 29.04,135.55 29.12,135.4 C29.2,135.25 28.97,134.96 28.72,135.28 C28.72,135.28 28.3,135.76 28.97,135.95 C29.1985401,136.016891 29.4396284,135.894155 29.52,135.67 C29.6632707,135.450612 29.638516,135.161807 29.46,134.97 C29.46,134.97 29.39,134.74 29.58,134.92 Z" id="Shape" fill="#FEDB0A" fill-rule="nonzero" stroke-width="1"/>
            <path d="M33.71,135.23 C33.943384,135.280983 34.1411647,135.434833 34.2479986,135.648501 C34.3548324,135.862168 34.3592444,136.112703 34.26,136.33 L34.26,136.41 C34.0989829,136.658569 33.7826854,136.755567 33.51,136.64 C33.2434204,136.491681 33.0843968,136.204663 33.1,135.9 C33.1222058,135.747473 33.2163075,135.614889 33.3529609,135.543592 C33.4896143,135.472294 33.6521933,135.470958 33.79,135.54 C33.888485,135.579148 33.9601458,135.665896 33.98,135.77 C34.0082755,135.840079 34.0046624,135.918993 33.9701013,135.986195 C33.9355402,136.053397 33.8734512,136.102237 33.8,136.12 C33.8,136.12 33.56,136.12 33.55,135.94 C33.55,135.94 33.76,135.94 33.73,135.78 C33.7,135.62 33.42,135.61 33.44,135.91 C33.44,135.91 33.44,136.4 33.92,136.16 C34.0022441,136.1229 34.0663697,136.054632 34.0982551,135.97023 C34.1301405,135.885827 34.1271708,135.792212 34.09,135.71 C34.0582592,135.509013 33.892847,135.356007 33.69,135.34 C33.69,135.34 33.51,135.23 33.71,135.23 Z" id="Shape" fill="#FEDB0A" fill-rule="nonzero" stroke-width="1"/>
            <path d="M32.43,139 C32.43,139 30.8,140.88 29.51,139 C29.4653453,138.938049 29.4284064,138.870887 29.4,138.8 C29.0736749,138.118053 29.239954,137.302338 29.8071722,136.802535 C30.3743904,136.302732 31.204547,136.240441 31.84,136.65 C32.1190082,136.915031 32.2684689,137.288622 32.2492519,137.672963 C32.2300349,138.057303 32.0440537,138.414122 31.74,138.65 C31.5568627,138.832973 31.2905169,138.905267 31.04,138.84 C30.8573363,138.811182 30.6965579,138.703566 30.6002856,138.54568 C30.5040134,138.387793 30.4819704,138.195582 30.54,138.02 C30.54,138.02 30.82,137.44 31.21,137.62 C31.21,137.62 31.02,138.15 31.31,138.22 C31.31,138.22 32.04,137.67 31.39,137.38 C31.39,137.38 30.39,136.85 30.29,138.23 C30.2646442,138.443528 30.3252326,138.658376 30.458413,138.827196 C30.5915934,138.996017 30.7864351,139.104953 31,139.13 C31,139.13 31.62,139.43 32.23,138.62 C32.25,138.75 32.68,138.57 32.43,139 Z" id="Shape" fill="#FEDB0A" fill-rule="nonzero" stroke-width="1"/>
            <path d="M29.34,139.78 C29.1900293,139.966005 28.9639331,140.074142 28.725,140.074142 C28.4860669,140.074142 28.2599707,139.966005 28.11,139.78 L28.06,139.7 C27.9070508,139.450211 27.9532277,139.126972 28.17,138.93 C28.4201967,138.751414 28.7505911,138.731979 29.02,138.88 C29.1456593,138.970159 29.2201786,139.115342 29.2201786,139.27 C29.2201786,139.424658 29.1456593,139.569841 29.02,139.66 C28.9436171,139.734927 28.8339951,139.765167 28.73,139.74 C28.6,139.74 28.46,139.63 28.49,139.43 C28.49,139.43 28.59,139.21 28.76,139.28 C28.76,139.28 28.7,139.48 28.82,139.51 C28.94,139.54 29.11,139.3 28.82,139.19 C28.82,139.19 28.37,138.99 28.39,139.52 C28.3899204,139.70394 28.5361397,139.85459 28.72,139.86 C28.912947,139.91887 29.1208801,139.835697 29.22,139.66 C29.22,139.66 29.43,139.6 29.34,139.78 Z" id="Shape" fill="#FEDB0A" fill-rule="nonzero" stroke-width="1"/>
            <path d="M30.6,139.66 C30.6542184,139.973038 30.8539581,140.241688 31.1381164,140.383767 C31.4222747,140.525846 31.7570385,140.524448 32.04,140.38 L32.14,140.32 C32.4736992,140.106845 32.60126,139.681643 32.44,139.32 C32.2483236,138.953555 31.850857,138.742897 31.44,138.79 C31.2418628,138.820447 31.0700422,138.943371 30.9772475,139.121063 C30.8844528,139.298755 30.8817618,139.510002 30.97,139.69 C31.0213437,139.818664 31.1341869,139.9127 31.27,139.94 C31.36139,139.974202 31.4630698,139.967489 31.5491699,139.921569 C31.6352701,139.875649 31.6974902,139.794948 31.72,139.7 C31.72,139.7 31.72,139.38 31.49,139.37 C31.49,139.37 31.49,139.64 31.29,139.6 C31.29,139.6 31.07,139.19 31.46,139.22 C31.46,139.22 32.1,139.22 31.79,139.85 C31.6861683,140.06616 31.4310693,140.162921 31.21,140.07 C30.9521126,140.029933 30.7543778,139.81984 30.73,139.56 C30.73,139.56 30.59,139.4 30.6,139.66 Z" id="Shape" fill="#FEDB0A" fill-rule="nonzero" stroke-width="1"/>
            <path d="M33.33,137.77 C33.3777835,137.981577 33.5171806,138.160948 33.7104081,138.259494 C33.9036356,138.35804 34.1306795,138.365554 34.33,138.28 L34.4,138.28 C34.6251154,138.129157 34.7129136,137.840678 34.61,137.59 C34.4721256,137.341271 34.2039106,137.193558 33.92,137.21 C33.778015,137.22948 33.6544139,137.31689 33.5887341,137.444269 C33.5230543,137.571648 33.5235266,137.723033 33.59,137.85 C33.6250358,137.941667 33.7040535,138.009396 33.8,138.03 C33.8648708,138.05495 33.9373722,138.050553 33.9987519,138.017945 C34.0601315,137.985337 34.1043608,137.927721 34.12,137.86 C34.12,137.86 34.12,137.64 33.96,137.63 C33.96,137.63 33.96,137.82 33.82,137.8 C33.68,137.78 33.66,137.51 33.94,137.53 C33.94,137.53 34.39,137.53 34.17,137.98 C34.0975255,138.133768 33.9174705,138.204034 33.76,138.14 C33.5770843,138.113004 33.4365083,137.964159 33.42,137.78 C33.42,137.78 33.33,137.59 33.33,137.77 Z" id="Shape" fill="#FEDB0A" fill-rule="nonzero" stroke-width="1"/>
            <path d="M27.75,138.33 C27.9557116,138.241601 28.1103379,138.064816 28.1705642,137.849167 C28.2307905,137.633518 28.1901401,137.402196 28.06,137.22 L28,137.16 C27.8085523,136.959251 27.5003814,136.925479 27.27,137.08 C27.0508786,137.266349 26.9576402,137.561604 27.03,137.84 C27.0771783,137.976964 27.1874073,138.082841 27.3261599,138.124467 C27.4649125,138.166093 27.6152195,138.138377 27.73,138.05 C27.8144477,137.999017 27.8671888,137.908604 27.87,137.81 C27.87,137.69 27.87,137.54 27.64,137.52 C27.64,137.52 27.42,137.52 27.44,137.73 C27.44,137.73 27.64,137.73 27.63,137.84 C27.62,137.95 27.37,138.05 27.34,137.77 C27.34,137.77 27.26,137.32 27.74,137.45 C27.9064092,137.494167 28.0080436,137.662085 27.97,137.83 C27.9769215,138.019621 27.852826,138.189218 27.67,138.24 C27.67,138.24 27.57,138.37 27.75,138.33 Z" id="Shape" fill="#FEDB0A" fill-rule="nonzero" stroke-width="1"/>
            <path d="M30.36,136.09 C30.4142184,136.403038 30.6139581,136.671688 30.8981164,136.813767 C31.1822747,136.955846 31.5170385,136.954448 31.8,136.81 L31.9,136.75 C32.2336992,136.536845 32.36126,136.111643 32.2,135.75 C32.0083236,135.383555 31.610857,135.172897 31.2,135.22 C31.0018628,135.250447 30.8300422,135.373371 30.7372475,135.551063 C30.6444528,135.728755 30.6417618,135.940002 30.73,136.12 C30.7813437,136.248664 30.8941869,136.3427 31.03,136.37 C31.12139,136.404202 31.2230698,136.397489 31.3091699,136.351569 C31.3952701,136.305649 31.4574902,136.224948 31.48,136.13 C31.48,136.13 31.48,135.81 31.25,135.8 C31.25,135.8 31.25,136.07 31.05,136.03 C31.05,136.03 30.83,135.62 31.22,135.65 C31.22,135.65 31.86,135.65 31.55,136.28 C31.4461683,136.49616 31.1910693,136.592921 30.97,136.5 C30.7121126,136.459933 30.5143778,136.24984 30.49,135.99 C30.49,135.99 30.35,135.83 30.36,136.09 Z" id="Shape" fill="#FEDB0A" fill-rule="nonzero" stroke-width="1"/>
            <path d="M34.4,139.65 C34.3548179,139.877307 34.2070886,140.070959 33.9998013,140.174603 C33.7925141,140.278246 33.548955,140.280239 33.34,140.18 L33.26,140.18 C33.0280641,140.025085 32.9362937,139.728917 33.04,139.47 C33.1818898,139.214195 33.4580003,139.062528 33.75,139.08 C33.8949069,139.102801 34.0202505,139.193346 34.0874281,139.323749 C34.1546056,139.454153 34.155561,139.608776 34.09,139.74 C34.0515495,139.833139 33.9689089,139.900754 33.87,139.92 C33.8038017,139.944992 33.730113,139.940762 33.66721,139.908357 C33.6043071,139.875952 33.5580822,139.81841 33.54,139.75 C33.54,139.75 33.54,139.52 33.71,139.51 C33.71,139.51 33.71,139.71 33.86,139.68 C34.01,139.65 34.02,139.38 33.73,139.4 C33.73,139.4 33.26,139.4 33.49,139.86 C33.5667503,140.020546 33.7569716,140.091326 33.92,140.02 C34.1099864,139.98855 34.2542453,139.831926 34.27,139.64 C34.27,139.64 34.41,139.46 34.4,139.65 Z" id="Shape" fill="#FEDB0A" fill-rule="nonzero" stroke-width="1"/>
            <path d="M32.4,134 C32.3406051,134.268981 32.1625675,134.496582 31.9158004,134.618994 C31.6690332,134.741406 31.3800986,134.745453 31.13,134.63 L31,134.6 C30.7162366,134.414548 30.6031557,134.054364 30.73,133.74 C30.9024189,133.430975 31.2367993,133.248232 31.59,133.27 C31.7670283,133.29506 31.9208281,133.404607 32.0023741,133.563721 C32.0839201,133.722835 32.0830346,133.911658 32,134.07 C31.9556975,134.182285 31.8580691,134.264894 31.74,134.29 C31.6592609,134.321232 31.568966,134.316064 31.4923177,134.275823 C31.4156695,134.235583 31.3601406,134.164194 31.34,134.08 C31.34,134.08 31.34,133.8 31.55,133.79 C31.55,133.79 31.55,134.03 31.73,134 C31.91,133.97 31.93,133.64 31.58,133.67 C31.58,133.67 31.02,133.67 31.29,134.23 C31.3804106,134.421087 31.6066015,134.505354 31.8,134.42 C32.0340095,134.387512 32.2133441,134.195666 32.23,133.96 C32.23,133.96 32.41,133.79 32.4,134 Z" id="Shape" fill="#FEDB0A" fill-rule="nonzero" stroke-width="1"/>
            <path d="M13.44,75.25 C13.6368828,75.5242199 13.6982763,75.873133 13.606822,76.1980876 C13.5153677,76.5230422 13.2810059,76.7887189 12.97,76.92 L12.85,76.92 C12.4471948,77.0222869 12.0282913,76.8254023 11.85,76.45 C11.7107204,76.0385987 11.8195665,75.5837776 12.13,75.28 C12.2984355,75.1439719 12.5215801,75.0962816 12.7309048,75.1515749 C12.9402294,75.2068682 13.1107133,75.3585359 13.19,75.56 C13.2611303,75.6909652 13.2611303,75.8490348 13.19,75.98 C13.1512158,76.0784652 13.0721249,76.1556099 12.9727242,76.1919294 C12.8733235,76.2282489 12.7631284,76.2202663 12.67,76.17 C12.67,76.17 12.41,75.95 12.57,75.74 C12.57,75.74 12.82,75.9 12.91,75.74 C12.91,75.74 12.74,75.26 12.48,75.61 C12.48,75.61 12.03,76.13 12.75,76.33 C13.0011655,76.408633 13.2688093,76.2703504 13.35,76.02 C13.5102627,75.7838267 13.4853369,75.4680997 13.29,75.26 C13.29,75.26 13.23,75.05 13.44,75.25 Z" id="Shape" fill="#FEDB0A" fill-rule="nonzero" stroke-width="1"/>
            <path d="M17.92,75.58 C18.1771231,75.6314907 18.3960864,75.7987769 18.5133584,76.0333208 C18.6306304,76.2678647 18.6330813,76.5434071 18.52,76.78 L18.47,76.87 C18.2937349,77.1352568 17.9551015,77.2397732 17.66,77.12 C17.370595,76.9562682 17.1998261,76.6418982 17.22,76.31 C17.243774,76.1440455 17.3461007,75.9997328 17.4948415,75.9223876 C17.6435823,75.8450423 17.8204895,75.8441534 17.97,75.92 C18.07805,75.9620728 18.157209,76.0563097 18.18,76.17 C18.2079741,76.2468377 18.2022088,76.3319146 18.164124,76.4042758 C18.1260392,76.4766369 18.0591748,76.5295565 17.98,76.55 C17.98,76.55 17.72,76.55 17.7,76.36 C17.7,76.36 17.93,76.36 17.9,76.19 C17.87,76.02 17.56,76 17.58,76.34 C17.58,76.34 17.58,76.87 18.1,76.61 C18.2790774,76.5242189 18.3585173,76.3123791 18.28,76.13 C18.2478643,75.9125056 18.0692469,75.7463498 17.85,75.73 C17.85,75.73 17.7,75.58 17.92,75.58 Z" id="Shape" fill="#FEDB0A" fill-rule="nonzero" stroke-width="1"/>
            <path d="M16.53,79.7 C16.53,79.7 14.76,81.7 13.37,79.7 C13.3209333,79.6319886 13.2806168,79.558075 13.25,79.48 C12.8899123,78.7393247 13.0689518,77.8493589 13.6874463,77.3055505 C14.3059408,76.7617421 15.211502,76.6980779 15.9,77.15 C16.2188803,77.4363154 16.3925392,77.8505537 16.3731673,78.2786727 C16.3537954,78.7067917 16.1434351,79.1036536 15.8,79.36 C15.604274,79.5569339 15.3195327,79.6366615 15.05,79.57 C14.8515843,79.5392616 14.6768957,79.4224077 14.5727443,79.2507507 C14.4685929,79.0790936 14.4456267,78.8701834 14.51,78.68 C14.51,78.68 14.81,78.05 15.24,78.25 C15.24,78.25 15.04,78.83 15.35,78.9 C15.35,78.9 16.14,78.31 15.43,77.99 C15.43,77.99 14.33,77.42 14.24,78.91 C14.2060117,79.1452934 14.2686694,79.3843281 14.4137104,79.572693 C14.5587513,79.7610579 14.7738342,79.8827252 15.01,79.91 C15.01,79.91 15.69,80.23 16.35,79.35 C16.33,79.39 16.8,79.2 16.53,79.7 Z" id="Shape" fill="#FEDB0A" fill-rule="nonzero" stroke-width="1"/>
            <path d="M13.18,80.51 C13.0187321,80.712571 12.7739254,80.83059 12.515,80.83059 C12.2560746,80.83059 12.0112679,80.712571 11.85,80.51 L11.79,80.43 C11.6208617,80.1579786 11.6714612,79.8037819 11.91,79.59 C12.179134,79.3934236 12.5376139,79.3700445 12.83,79.53 C12.964111,79.6278991 13.0434058,79.7839579 13.0434058,79.95 C13.0434058,80.1160421 12.964111,80.2721009 12.83,80.37 C12.7464729,80.4466934 12.6302086,80.4766971 12.52,80.45 C12.38,80.45 12.22,80.33 12.26,80.11 C12.26,80.11 12.36,79.87 12.55,79.94 C12.55,79.94 12.49,80.16 12.62,80.19 C12.75,80.22 12.93,79.96 12.62,79.84 C12.62,79.84 12.13,79.63 12.15,80.2 C12.1499268,80.400503 12.3095703,80.564581 12.51,80.57 C12.7192336,80.63068 12.942741,80.5396214 13.05,80.35 C13.05,80.35 13.27,80.32 13.18,80.51 Z" id="Shape" fill="#FEDB0A" fill-rule="nonzero" stroke-width="1"/>
            <path d="M14.54,80.38 C14.6112451,80.71136 14.8299778,80.9920117 15.1339036,81.1420264 C15.4378295,81.2920411 15.7936395,81.2949777 16.1,81.15 L16.21,81.08 C16.5555464,80.8528946 16.6935008,80.4139488 16.54,80.03 C16.3382747,79.6678889 15.954482,79.4452892 15.54,79.45 C15.3173458,79.4787183 15.1232143,79.6154802 15.0212187,79.8154716 C14.9192231,80.0154629 14.9225092,80.2529077 15.03,80.45 C15.0842676,80.5882351 15.204604,80.689769 15.35,80.72 C15.4493248,80.7573439 15.5599025,80.7502456 15.6536373,80.7005088 C15.7473722,80.6507719 15.8152411,80.5631842 15.84,80.46 C15.84,80.46 15.84,80.12 15.59,80.1 C15.59,80.1 15.59,80.4 15.37,80.35 C15.37,80.35 15.13,79.91 15.56,79.94 C15.56,79.94 16.25,79.94 15.92,80.62 C15.8109723,80.8588281 15.5302964,80.9657523 15.29,80.86 C15.0067292,80.8184903 14.7904417,80.5855653 14.77,80.3 C14.77,80.3 14.54,80.1 14.54,80.38 Z" id="Shape" fill="#FEDB0A" fill-rule="nonzero" stroke-width="1"/>
            <path d="M17.5,78.34 C17.5509825,78.573384 17.7048331,78.7711647 17.9185007,78.8779986 C18.1321684,78.9848324 18.3827032,78.9892444 18.6,78.89 L18.68,78.89 C18.928569,78.7289829 19.0255669,78.4126854 18.91,78.14 C18.7616814,77.8734204 18.4746631,77.7143968 18.17,77.73 C18.0174734,77.7522058 17.8848891,77.8463075 17.8135917,77.9829609 C17.7422943,78.1196143 17.7409582,78.2821933 17.81,78.42 C17.8491484,78.518485 17.9358957,78.5901458 18.04,78.61 C18.1100791,78.6382755 18.1889929,78.6346624 18.256195,78.6001013 C18.3233971,78.5655402 18.3722375,78.5034512 18.39,78.43 C18.39,78.43 18.39,78.19 18.21,78.18 C18.21,78.18 18.21,78.39 18.06,78.36 C17.91,78.33 17.89,78.05 18.19,78.07 C18.19,78.07 18.68,78.07 18.44,78.55 C18.3628804,78.7157343 18.1685189,78.7908285 18,78.72 C17.7990133,78.6882592 17.6460071,78.522847 17.63,78.32 C17.63,78.32 17.5,78.14 17.5,78.34 Z" id="Shape" fill="#FEDB0A" fill-rule="nonzero" stroke-width="1"/>
            <path d="M11.45,78.95 C11.6747376,78.854009 11.8432744,78.6605615 11.9075749,78.4247932 C11.9718753,78.1890248 11.9248862,77.9367975 11.78,77.74 L11.72,77.67 C11.5105244,77.4560854 11.1781076,77.422423 10.93,77.59 C10.6933599,77.790927 10.5923721,78.109427 10.67,78.41 C10.7235251,78.5569156 10.8439524,78.6694644 10.9941483,78.7129422 C11.1443442,78.7564199 11.3062715,78.7256053 11.43,78.63 C11.5200675,78.573614 11.5762701,78.4761961 11.58,78.37 C11.58,78.24 11.58,78.07 11.33,78.06 C11.33,78.06 11.09,78.06 11.11,78.29 C11.11,78.29 11.33,78.29 11.32,78.41 C11.31,78.53 11.04,78.64 11,78.33 C11,78.33 10.92,77.84 11.43,77.98 C11.6087316,78.0289349 11.7183452,78.2087012 11.68,78.39 C11.6924438,78.5965921 11.5592265,78.783929 11.36,78.84 C11.36,78.84 11.25,79 11.45,78.95 Z" id="Shape" fill="#FEDB0A" fill-rule="nonzero" stroke-width="1"/>
            <path d="M14.28,76.51 C14.3512451,76.84136 14.5699778,77.1220117 14.8739036,77.2720264 C15.1778295,77.4220411 15.5336395,77.4249777 15.84,77.28 L15.95,77.21 C16.2955464,76.9828946 16.4335008,76.5439488 16.28,76.16 C16.0782747,75.7978889 15.694482,75.5752892 15.28,75.58 C15.0573458,75.6087183 14.8632143,75.7454802 14.7612187,75.9454716 C14.6592231,76.1454629 14.6625092,76.3829077 14.77,76.58 C14.8242676,76.7182351 14.944604,76.819769 15.09,76.85 C15.1893248,76.8873439 15.2999025,76.8802456 15.3936373,76.8305088 C15.4873722,76.7807719 15.5552411,76.6931842 15.58,76.59 C15.58,76.59 15.58,76.25 15.33,76.23 C15.33,76.23 15.33,76.53 15.11,76.48 C15.11,76.48 14.87,76.04 15.3,76.07 C15.3,76.07 15.99,76.07 15.66,76.75 C15.6099279,76.8743546 15.5101337,76.9721036 15.384769,77.0195902 C15.2594043,77.0670769 15.1198934,77.0599738 15,77 C14.7167292,76.9584903 14.5004417,76.7255653 14.48,76.44 C14.48,76.44 14.27,76.23 14.28,76.51 Z" id="Shape" fill="#FEDB0A" fill-rule="nonzero" stroke-width="1"/>
            <path d="M18.67,80.38 C18.6167348,80.6216052 18.4572323,80.8262456 18.2359447,80.9368894 C18.0146571,81.0475332 17.7552433,81.0523509 17.53,80.95 L17.45,80.95 C17.1979912,80.7823729 17.0978627,80.4611272 17.21,80.18 C17.3656952,79.9047426 17.6642798,79.7418783 17.98,79.76 C18.138333,79.7843816 18.2753959,79.8831545 18.3486179,80.0256408 C18.42184,80.168127 18.4223539,80.337071 18.35,80.48 C18.308622,80.5827106 18.2184884,80.6578219 18.11,80.68 C18.0371952,80.7080905 17.9557975,80.7033074 17.8867837,80.6668835 C17.8177699,80.6304595 17.7678906,80.5659575 17.75,80.49 C17.75,80.49 17.75,80.24 17.93,80.23 C17.93,80.23 17.93,80.45 18.09,80.42 C18.25,80.39 18.27,80.1 17.95,80.12 C17.95,80.12 17.44,80.12 17.69,80.62 C17.7750599,80.788492 17.9758104,80.8626824 18.15,80.79 C18.3564883,80.7581223 18.5138742,80.5883112 18.53,80.38 C18.53,80.38 18.67,80.17 18.67,80.38 Z" id="Shape" fill="#FEDB0A" fill-rule="nonzero" stroke-width="1"/>
            <path d="M16.49,74.27 C16.4230891,74.5609518 16.2296807,74.806791 15.9626525,74.9403051 C15.6956244,75.0738191 15.382908,75.0810424 15.11,74.96 L15.01,74.9 C14.7045992,74.6983142 14.583364,74.3095253 14.72,73.97 C14.9068817,73.6360588 15.2679532,73.4380518 15.65,73.46 C15.839945,73.4880328 16.0050018,73.6052768 16.0940184,73.7753974 C16.1830349,73.9455179 16.1852585,74.1479654 16.1,74.32 C16.0527753,74.4418618 15.9476507,74.5319686 15.82,74.56 C15.7313262,74.5943742 15.6321335,74.588821 15.5478506,74.544764 C15.4635677,74.5007071 15.4023897,74.4224301 15.38,74.33 C15.38,74.33 15.38,74.03 15.6,74.01 C15.6,74.01 15.6,74.27 15.79,74.24 C15.79,74.24 16,73.85 15.62,73.88 C15.62,73.88 15.01,73.88 15.3,74.48 C15.3994475,74.6896107 15.6472476,74.7825357 15.86,74.69 C16.1086778,74.6536141 16.299377,74.450478 16.32,74.2 C16.32,74.2 16.5,74 16.49,74.27 Z" id="Shape" fill="#FEDB0A" fill-rule="nonzero" stroke-width="1"/>
            <path d="M23.48,136.89 C23.48,136.89 24.7,136.67 24.75,137.89 C24.7547223,137.929861 24.7547223,137.970139 24.75,138.01 C24.6977911,138.390083 24.3831086,138.679591 24,138.7 C23.5987233,138.686685 23.2443182,138.434663 23.1,138.06 C23.0428279,137.868275 23.0801196,137.660792 23.2004756,137.500975 C23.3208315,137.341159 23.5099424,137.248009 23.71,137.25 C23.8460045,137.241866 23.9771652,137.301825 24.06,137.41 C24.1331851,137.474543 24.1751111,137.56742 24.1751111,137.665 C24.1751111,137.76258 24.1331851,137.855457 24.06,137.92 C24.06,137.92 23.78,138.07 23.66,137.85 C23.66,137.85 23.89,137.69 23.78,137.57 C23.67,137.45 23.32,137.57 23.51,137.89 C23.51,137.89 23.8,138.46 24.22,137.89 C24.3718365,137.703223 24.349805,137.430032 24.17,137.27 C24.0214035,137.054429 23.745058,136.967813 23.5,137.06 C23.5,137.06 23.24,137 23.48,136.89 Z" id="Shape" fill="#FEDB0A" fill-rule="nonzero" stroke-width="1"/>
            <path d="M25.33,133.18 C25.4658647,132.982338 25.6841718,132.857105 25.9233855,132.839601 C26.1625992,132.822098 26.3968102,132.91422 26.56,133.09 L26.62,133.16 C26.7886756,133.402634 26.7591821,133.731276 26.55,133.94 C26.3119633,134.130752 25.9861664,134.169537 25.71,134.04 C25.5755219,133.961705 25.487343,133.823077 25.4734339,133.668089 C25.4595248,133.513102 25.5216115,133.360989 25.64,133.26 C25.7122563,133.184817 25.8174701,133.150998 25.92,133.17 C26.05,133.17 26.2,133.27 26.17,133.47 C26.17,133.47 26.08,133.7 25.91,133.64 C25.91,133.64 25.91,133.43 25.83,133.41 C25.75,133.39 25.55,133.64 25.83,133.73 C25.83,133.73 26.29,133.9 26.25,133.38 C26.2392557,133.196145 26.0840792,133.05427 25.9,133.06 C25.7032509,133.015246 25.5012758,133.11005 25.41,133.29 C25.41,133.29 25.25,133.36 25.33,133.18 Z" id="Shape" fill="#FEDB0A" fill-rule="nonzero" stroke-width="1"/>
            <path d="M28.36,135.8 C28.36,135.8 29.48,138.02 27.3,138.52 L27.07,138.52 C26.3109354,138.537612 25.6242602,138.071798 25.36,137.36 C25.36,137.36 25,136 26,135.47 C26.3560544,135.29886 26.7700432,135.296189 27.1282767,135.462719 C27.4865102,135.629249 27.7513259,135.947473 27.85,136.33 C27.9526991,136.567235 27.9222703,136.841094 27.77,137.05 C27.6761677,137.225755 27.5047289,137.346768 27.3076984,137.376323 C27.1106679,137.405877 26.9112692,137.34049 26.77,137.2 C26.77,137.2 26.34,136.72 26.66,136.43 C26.66,136.43 27.08,136.8 27.25,136.56 C27.25,136.56 27.02,135.68 26.5,136.17 C26.5,136.17 25.63,136.91 26.87,137.51 C27.2594922,137.727038 27.7511536,137.588479 27.97,137.2 C27.97,137.2 28.48,136.74 27.97,135.86 C28,135.87 28,135.39 28.36,135.8 Z" id="Shape" fill="#FEDB0A" fill-rule="nonzero" stroke-width="1"/>
            <path d="M27.88,139 C28.0005859,139.206693 28.0209862,139.456903 27.9354746,139.680399 C27.849963,139.903895 27.6677569,140.076586 27.44,140.15 L27.35,140.15 C27.0621527,140.196877 26.7813893,140.033448 26.68,139.76 C26.6104929,139.463684 26.715148,139.153595 26.95,138.96 C27.0779903,138.874082 27.2394575,138.854863 27.3840391,138.908339 C27.5286206,138.961814 27.6387213,139.081476 27.68,139.23 C27.7280024,139.320707 27.7280024,139.429293 27.68,139.52 C27.6467413,139.587667 27.5857459,139.637564 27.5128296,139.656753 C27.4399133,139.675941 27.3622582,139.662531 27.3,139.62 C27.3,139.62 27.13,139.45 27.3,139.31 C27.47,139.17 27.47,139.44 27.54,139.31 C27.61,139.18 27.45,138.96 27.25,139.19 C27.25,139.19 26.9,139.53 27.39,139.72 C27.5612118,139.789545 27.756622,139.709604 27.83,139.54 C27.9571147,139.382442 27.9571147,139.157558 27.83,139 C27.83,139 27.75,138.8 27.88,139 Z" id="Shape" fill="#FEDB0A" fill-rule="nonzero" stroke-width="1"/>
            <path d="M28.25,137.74 C28.25,137.74 29.49,137.88 29.46,136.68 C29.4647223,136.640139 29.4647223,136.599861 29.46,136.56 C29.3877112,136.181269 29.0555631,135.907982 28.67,135.91 C28.2683683,135.948475 27.9292024,136.22454 27.81,136.61 C27.7649934,136.804985 27.815297,137.009755 27.9455278,137.16169 C28.0757585,137.313626 28.270426,137.394656 28.47,137.38 C28.6061953,137.380195 28.7335978,137.312747 28.81,137.2 C28.8831851,137.135457 28.9251111,137.04258 28.9251111,136.945 C28.9251111,136.84742 28.8831851,136.754543 28.81,136.69 C28.81,136.69 28.52,136.56 28.42,136.78 C28.42,136.78 28.66,136.92 28.56,137.06 C28.46,137.2 28.1,137.11 28.28,136.76 C28.28,136.76 28.54,136.18 28.99,136.69 C29.1550798,136.863701 29.1550798,137.136299 28.99,137.31 C28.8542488,137.53589 28.5813401,137.639265 28.33,137.56 C28.33,137.56 28,137.64 28.25,137.74 Z" id="Shape" fill="#FEDB0A" fill-rule="nonzero" stroke-width="1"/>
            <path d="M27.54,134.5 C27.54,134.5 28.42,134.6 28.39,133.75 C28.3929722,133.723416 28.3929722,133.696584 28.39,133.67 C28.3373812,133.402463 28.1026618,133.209658 27.83,133.21 C27.5498826,133.243692 27.3132974,133.433736 27.22,133.7 C27.1839715,133.837745 27.2168221,133.984409 27.308166,134.093625 C27.3995098,134.20284 27.538055,134.261106 27.68,134.25 C27.7766669,134.249376 27.8666674,134.200626 27.92,134.12 C27.9716601,134.07444 28.0012549,134.00888 28.0012549,133.94 C28.0012549,133.87112 27.9716601,133.80556 27.92,133.76 C27.92,133.76 27.71,133.67 27.64,133.82 C27.64,133.82 27.81,133.92 27.74,134.02 C27.67,134.12 27.41,134.02 27.54,133.8 C27.54,133.8 27.72,133.39 28.04,133.8 C28.156828,133.923402 28.156828,134.116598 28.04,134.24 C27.9454386,134.403392 27.7495135,134.478427 27.57,134.42 C27.57,134.42 27.36,134.43 27.54,134.5 Z" id="Shape" fill="#FEDB0A" fill-rule="nonzero" stroke-width="1"/>
            <path d="M25.94,139.88 C25.94,139.88 25.87,138.99 25.03,139.18 L24.95,139.18 C24.6942306,139.280981 24.5470176,139.55017 24.6,139.82 C24.6890763,140.092662 24.9258699,140.290637 25.21,140.33 C25.3551063,140.338564 25.4954129,140.276508 25.5867011,140.16339 C25.6779892,140.050272 25.7090148,139.900025 25.67,139.76 C25.6544711,139.662512 25.5904175,139.579619 25.5,139.54 C25.4407946,139.504742 25.3696618,139.495485 25.3034045,139.514416 C25.2371473,139.533347 25.1816419,139.578786 25.15,139.64 C25.15,139.64 25.1,139.86 25.27,139.91 C25.27,139.91 25.34,139.72 25.45,139.77 C25.56,139.82 25.55,140.09 25.27,140.01 C25.27,140.01 24.82,139.91 25.13,139.52 C25.2336715,139.381631 25.428507,139.350634 25.57,139.45 C25.7486011,139.513659 25.860255,139.691478 25.84,139.88 C25.84,139.88 25.91,140.06 25.94,139.88 Z" id="Shape" fill="#FEDB0A" fill-rule="nonzero" stroke-width="1"/>
            <path d="M24.85,136.61 C24.85,136.61 26.09,136.75 26.06,135.55 C26.0647223,135.510139 26.0647223,135.469861 26.06,135.43 C25.9877112,135.051269 25.6555631,134.777982 25.27,134.78 C24.8683683,134.818475 24.5292024,135.09454 24.41,135.48 C24.3649934,135.674985 24.415297,135.879755 24.5455278,136.03169 C24.6757585,136.183626 24.870426,136.264656 25.07,136.25 C25.2061953,136.250195 25.3335978,136.182747 25.41,136.07 C25.4831851,136.005457 25.5251111,135.91258 25.5251111,135.815 C25.5251111,135.71742 25.4831851,135.624543 25.41,135.56 C25.41,135.56 25.12,135.43 25.02,135.65 C25.02,135.65 25.26,135.79 25.16,135.93 C25.06,136.07 24.7,135.98 24.88,135.63 C24.88,135.63 25.14,135.05 25.59,135.56 C25.7550798,135.733701 25.7550798,136.006299 25.59,136.18 C25.4542488,136.40589 25.1813401,136.509265 24.93,136.43 C24.93,136.43 24.61,136.52 24.85,136.61 Z" id="Shape" fill="#FEDB0A" fill-rule="nonzero" stroke-width="1"/>
            <path d="M29.68,134.21 C29.8727404,134.337818 29.9957327,134.547408 30.013321,134.778009 C30.0309092,135.008611 29.941126,135.23443 29.77,135.39 L29.7,135.44 C29.4677953,135.594512 29.1591132,135.565312 28.96,135.37 C28.7755311,135.14027 28.740459,134.82462 28.87,134.56 C28.9450275,134.433645 29.0759089,134.350741 29.222207,134.336902 C29.3685051,134.323063 29.5126103,134.379955 29.61,134.49 C29.6834983,134.559137 29.7173166,134.660592 29.7,134.76 C29.7,134.88 29.61,135.03 29.41,135 C29.41,135 29.19,134.92 29.25,134.75 C29.25,134.75 29.45,134.75 29.47,134.68 C29.49,134.61 29.25,134.41 29.16,134.68 C29.16,134.68 28.99,135.12 29.5,135.08 C29.6744,135.069411 29.8103212,134.924721 29.81,134.75 C29.8538004,134.561348 29.7629251,134.367206 29.59,134.28 C29.59,134.28 29.51,134.14 29.68,134.21 Z" id="Shape" fill="#FEDB0A" fill-rule="nonzero" stroke-width="1"/>
            <path d="M23.71,133.94 C23.9383275,134.097006 24.0826771,134.34949 24.1021429,134.625905 C24.1216088,134.90232 24.0140696,135.172544 23.81,135.36 L23.73,135.42 C23.4495501,135.612294 23.0721352,135.578746 22.83,135.34 C22.5981883,135.058009 22.5550273,134.665637 22.72,134.34 C22.810016,134.18741 22.9680237,134.087523 23.1444752,134.071662 C23.3209268,134.055801 23.4942149,134.125909 23.61,134.26 C23.7009038,134.343811 23.7424364,134.468409 23.72,134.59 C23.72,134.74 23.61,134.91 23.37,134.88 C23.37,134.88 23.11,134.78 23.18,134.58 C23.18,134.58 23.42,134.64 23.44,134.49 C23.46,134.34 23.18,134.17 23.07,134.49 C23.07,134.49 22.87,135.02 23.47,134.97 C23.6814701,134.959218 23.845704,134.781668 23.84,134.57 C23.8978667,134.342525 23.7897137,134.105421 23.58,134 C23.58,134 23.5,133.84 23.71,133.94 Z" id="Shape" fill="#FEDB0A" fill-rule="nonzero" stroke-width="1"/>
            <path d="M7.83,80.79 C7.83,80.79 4.83,85.73 3.96,96.36 C3.96,96.36 2.49,105.53 10.12,98.64 L22.77,84.2 C22.77,84.2 27.2,79.2 24.77,76.74 C24.2714139,76.2881376 23.5667994,76.1426194 22.93,76.36 C21.18,76.92 17.56,78.57 17.8,82.67 L10.2,92.72 C10.2,92.72 7.96,93.72 8.88,91.58 L11.13,83.92 L7.83,80.79 Z" id="Shape" stroke="#FFF3DE" fill="#FFF3DE" fill-rule="nonzero" stroke-width="1"/>
            <path d="M41,80.94 C41,80.94 43.6,83.23 44.39,96.33 C44.39,96.33 44.97,99.83 40.5,99.58 C39.2418183,99.4996451 38.0584691,98.9543064 37.18,98.05 L22.35,83 C22.35,83 18.17,77.51 23.65,76.18 C23.65,76.18 30.39,76.45 28.04,82.25 L37.26,91.61 C37.26,91.61 40.11,93 39.26,90.19 L38,83.74 L41,80.94 Z" id="Shape" stroke="#FFF3DE" fill="#FFF3DE" fill-rule="nonzero" stroke-width="1"/>
        </g>
    </g>
</svg>