<?xml version="1.0" encoding="UTF-8" standalone="no"?><svg xmlns="http://www.w3.org/2000/svg" xmlns:xlink="http://www.w3.org/1999/xlink" width="66.04598236083984" height="209.36061096191406" viewBox="-0.5 -0.4302467703819275 66.04598236083984 209.36061096191406" version="1.1">
    <!-- Generator: Sketch 46.2 (44496) - http://www.bohemiancoding.com/sketch -->
    <title>Dad-b</title>
    <desc>Created with Sketch.</desc>
    <defs/>
    <g id="Page-1" stroke="none" fill-rule="evenodd">
        <g id="Dad-b">
            <polygon id="Shape" fill="#FFF3DE" fill-rule="nonzero" points="27.03 59.03 27.03 73.83 36.47 73.83 36.47 58.21" stroke-width="1"/>
            <path d="M23.66,196.72 C23.66,196.72 24.5,200.26 29.24,197.32 C29.24,197.32 31.53,196.32 30.55,199.61 C30.1383839,203.372453 27.7802412,206.641956 24.34,208.22 C24.34,208.22 16.11,209.8 16.82,204.3 C16.82,204.3 16.41,202.73 20.25,200.16 C20.25,200.15 24.18,198.73 23.66,196.72 Z" id="Shape" fill="#FF3035" fill-rule="nonzero" stroke-width="1"/>
            <path d="M47.72,196.72 C47.72,196.72 46.88,200.26 42.14,197.32 C42.14,197.32 39.85,196.32 40.83,199.61 C41.2370951,203.359978 43.5781015,206.622969 47,208.21 C47,208.21 55.23,209.79 54.52,204.29 C54.52,204.29 54.93,202.72 51.09,200.15 C51.13,200.15 47.2,198.73 47.72,196.72 Z" id="Shape" fill="#FF3035" fill-rule="nonzero" stroke-width="1"/>
            <path d="M11.27,26.7 L11.27,40.6 C11.2706675,43.0178284 11.9647763,45.3847394 13.27,47.42 C16.57,52.62 25.16,62.2 31.7,61.72 C31.7,61.72 41.16,62.21 49.93,47.96 C51.02,46.19 51.28,44.23 51.68,41.96 C51.6929193,41.7935837 51.6929193,41.6264163 51.68,41.46 L52.09,29.02 C52.1506584,26.8869375 51.6762303,24.7726387 50.71,22.87 L46.38,14.4 C43.9660224,9.36737526 38.1879039,6.91306694 32.89,8.67 L19.38,13.4 C15.1744445,14.9532668 12.1854606,18.721315 11.63,23.17 L11.39,24.93 C11.3094925,25.5165536 11.269398,26.1079474 11.27,26.7 Z" id="Shape" fill="#FFF3DE" fill-rule="nonzero" stroke-width="1"/>
            <path d="M12,28.93 L29,29.31 C29,29.31 29.57,28.19 26.75,27.47 L15.93,26.38 C15.93,26.38 13.25,25.82 12,28.93 Z" id="Shape" fill="#5E4944" fill-rule="nonzero" stroke-width="1"/>
            <path d="M52.74,28.93 L35.74,29.31 C35.74,29.31 35.17,28.19 37.99,27.47 L48.84,26.39 C48.84,26.39 51.46,25.82 52.74,28.93 Z" id="Shape" fill="#5E4944" fill-rule="nonzero" stroke-width="1"/>
            <path d="M55.64,18.62 C52.64,2.79 35.75,0.62 35.75,0.62 C14.6,-3.38 7.59,15.74 7.59,15.74 C5.3,19.91 0,18.94 0,18.94 C1.15,21.66 5.73,25.03 7.64,26.21 C7.44,29.39 7.22,38.59 11.29,40.82 C10.7352544,36.5067142 10.694972,32.1427914 11.17,27.82 C11.5866463,27.9596987 12.0106109,28.0765393 12.44,28.17 C26.44,29.47 39.8,17.3 39.8,17.3 C44.1573145,20.8232791 47.8169461,25.1307231 50.59,30 L49.59,35.2 C49.36,39.2 50.51,40.2 50.51,40.2 C56.1,36.1 55.64,18.62 55.64,18.62 Z" id="Shape" fill="#3D221D" fill-rule="nonzero" stroke-width="1"/>
            <path d="M21.95,49.57 L41.45,49.57 C41.45,49.57 40.22,55.14 31.96,55.57 C32,55.53 23.11,55.34 21.95,49.57 Z" id="Shape" fill="#F18F83" fill-rule="nonzero" stroke-width="1"/>
            <path d="M24.82,53.46 C24.82,53.46 32.63,50.83 38.57,53.56 C36.6460624,54.8568929 34.3802194,55.5530044 32.06,55.56 C32.06,55.56 27.51,55.36 24.82,53.46 Z" id="Shape" fill="#E76663" fill-rule="nonzero" stroke-width="1"/>
            <ellipse id="Oval" fill="#55453F" fill-rule="nonzero" cx="21.95" cy="36.66" rx="3.67" ry="3.48" stroke-width="1"/>
            <ellipse id="Oval" fill="#55453F" fill-rule="nonzero" cx="41.45" cy="36.6" rx="3.67" ry="3.48" stroke-width="1"/>
            <ellipse id="Oval" fill="#FFFFFF" fill-rule="nonzero" cx="23.19" cy="35.34" rx="1" ry="1" stroke-width="1"/>
            <ellipse id="Oval" fill="#FFFFFF" fill-rule="nonzero" cx="42.39" cy="35.34" rx="1" ry="1" stroke-width="1"/>
            <path d="M18.65,124.49 L48.65,124.49 L50.65,192.78 L38.15,192.78 L34.66,139.51 C34.66,139.51 33.71,138.71 33.37,139.51 L32,194.61 L21.31,194.61 L18.65,124.49 Z" id="Shape" fill="#FF3035" fill-rule="nonzero" stroke-width="1"/>
            <path d="M20.87,188.35 C20.87,188.35 28.2,189.94 32.18,187.67 L32.18,197.23 C32.18,197.23 26.84,202.12 20.87,197.8 L20.87,188.35 Z" id="Shape" fill="#FF4D5A" fill-rule="nonzero" stroke-width="1"/>
            <path d="M37.83,188.35 C37.83,188.35 46.15,189.94 50.67,187.67 L50.67,197.23 C50.67,197.23 44.6,202.12 37.83,197.8 L37.83,188.35 Z" id="Shape" fill="#FF4D5A" fill-rule="nonzero" stroke-width="1"/>
            <rect id="Rectangle-path" fill="#DD1B2A" fill-rule="nonzero" x="16.86" y="123.56" width="32.92" height="1" rx="0.46" stroke-width="1"/>
            <rect id="Rectangle-path" fill="#DD1B2A" fill-rule="nonzero" x="16.75" y="125.28" width="33.13" height="1" rx="0.46" stroke-width="1"/>
            <path d="M63.72,86.29 L53.46,71.06 C52.2609818,69.2888609 50.4026723,68.0715961 48.3,67.68 L42.6,66.68 C41.2921713,66.43909 40.3420877,65.2998305 40.34,63.97 L40.34,63.97 C40.16,62.09 39.51,62.59 39.51,62.59 L39.35,62.59 C36.1461991,62.8163774 33.6667469,65.4882386 33.68,68.7 L33.68,71 C32.9,72.52 32.26,71 32.26,71 L31.66,67.83 C31.2785914,65.6484768 29.4678945,64.0023887 27.26,63.83 C25.5880855,63.5804193 23.9590942,63.0991264 22.42,62.4 L22.42,62.4 C22.1647365,62.281182 21.8693869,62.2844057 21.6167777,62.4087672 C21.3641685,62.5331286 21.1815004,62.7652367 21.12,63.04 C20.95,63.78 20.64,66.33 20.63,66.7 C20.63,68.23 16.18,67.77 14,69.77 C12.526059,71.2725559 11.1875378,72.9022054 10,74.64 L4.06,88.64 C4.06,88.64 0.39,95.2 6.06,96.83 L18.06,101.99 C17.93,114.76 16.67,127.33 16.67,127.33 L50.22,126.33 C48.83,120.71 48.86,113.05 49.03,101.86 L62,93.6 C67.64,92.77 63.72,86.29 63.72,86.29 Z M17.53,84.12 L17.67,84.46 C17.77,84.8 17.85,92.82 17.91,93.46 L12.17,90.19 L17.53,84.12 Z M49.2,93.66 C49.2,92.37 49.26,82.25 49.26,82.25 L49.34,81.78 L54.73,88.4 L49.2,93.66 Z" id="Shape" fill="#FF3035" fill-rule="nonzero" stroke-width="1"/>
            <rect id="Rectangle-path" fill="#C62A36" fill-rule="nonzero" x="16.88" y="121.92" width="32.85" height="1.04" rx="0.52" stroke-width="1"/>
            <rect id="Rectangle-path" fill="#C62A36" fill-rule="nonzero" x="16.88" y="123.6" width="32.85" height="1.04" rx="0.52" stroke-width="1"/>
            <path d="M25.74,96.68 C25.74,96.68 22.15,99.68 23.44,100.94 L29.87,103.94 L32.5,99.53 L25.74,96.68 Z" id="Shape" fill="#FFF3DE" fill-rule="nonzero" stroke-width="1"/>
            <path d="M45,95.51 C45,95.51 47.54,98.76 46.57,100.83 L39.57,102.99 L38.43,98.7 L45,95.51 Z" id="Shape" fill="#FFF3DE" fill-rule="nonzero" stroke-width="1"/>
            <path d="M31.07,99 C31.49,99.88 32.64,98.07 33.62,98 C35.46,97.85 37.54,98.89 38.86,102.13 C38.86,102.13 37.54,108.67 32.86,107.26 C31.9230785,106.903719 31.0614582,106.374535 30.32,105.7 C29.58,104.8 28.81,102.52 27.87,100.49" id="Shape" fill="#FFF3DE" fill-rule="nonzero" stroke-width="1"/>
            <path d="M39.56,99.09 C39.22,99.95 37.74,97.75 36.91,97.6 C35.68,97.38 32.39,99.46 31.63,101.93 C31.5076672,102.839453 31.6320038,103.765069 31.99,104.61 C33.4884072,106.427185 36.1004675,106.854691 38.1,105.61 C39.033865,104.937741 39.764018,104.020724 40.21,102.96 C40.66,101.96 41.73,101.21 42.56,99.36" id="Shape" fill="#FFF3DE" fill-rule="nonzero" stroke-width="1"/>
            <path d="M29.2,72.29 C29.2,72.29 20.71,75.29 18.83,81.06" id="Shape" stroke="#494848" stroke-linecap="round" stroke-linejoin="round" stroke-width="1" fill="none"/>
            <ellipse id="Oval" fill="#494848" fill-rule="nonzero" transform="matrix(0.21763222269565052,-0.9760308476910711,0.9760308476910711,0.21763222269565052,-51.52189776254477,83.15121549179183)" cx="26.1060591" cy="73.7132819" rx="1" ry="1.29" stroke-width="1"/>
            <ellipse id="Oval" fill="#494848" fill-rule="nonzero" transform="matrix(0.21763222269565052,-0.9760308476910711,0.9760308476910711,0.21763222269565052,-55.08067332043977,82.24976196076881)" cx="23.7643743" cy="75.4824032" rx="1" ry="1.29" stroke-width="1"/>
            <ellipse id="Oval" fill="#494848" fill-rule="nonzero" transform="matrix(0.21763222269565052,-0.9760308476910711,0.9760308476910711,0.21763222269565052,-58.59009713785596,81.46725043202284)" cx="21.5215574" cy="77.2802106" rx="1" ry="1.29" stroke-width="1"/>
        </g>
    </g>
</svg>