<?xml version="1.0" encoding="UTF-8" standalone="no"?><svg xmlns="http://www.w3.org/2000/svg" xmlns:xlink="http://www.w3.org/1999/xlink" width="48.26559066772461" height="196.32655334472656" viewBox="-0.11421489715576172 -0.554347038269043 48.26559066772461 196.32655334472656" version="1.1">
    <!-- Generator: Sketch 46.2 (44496) - http://www.bohemiancoding.com/sketch -->
    <title>Mom-b</title>
    <desc>Created with Sketch.</desc>
    <defs/>
    <g id="Page-1" stroke="none" fill-rule="evenodd">
        <g id="Mom-b">
            <path d="M6.31,38.28 L6.31,49.86 C6.30993751,51.9013732 6.94995867,53.8913843 8.14,55.55 C11.24,59.89 19.22,67.87 25.29,67.48 C25.29,67.48 34.07,67.89 42.22,56.01 C43.1071338,54.4764812 43.6592593,52.7723902 43.84,51.01 C43.8515501,50.8735774 43.8515501,50.7364226 43.84,50.6 L44.22,40.23 C44.2843549,38.4539006 43.8625179,36.6939413 43,35.14 L39,28.08 C36.4418042,23.7450579 31.2221896,21.7601925 26.43,23.3 L13.85,27.2 C10.0907567,28.3130621 7.29574222,31.4729812 6.65,35.34 L6.42,36.8 C6.34551412,37.2897915 6.3087394,37.7845786 6.31,38.28 Z" id="Shape" fill="#FFF3DE" fill-rule="nonzero" stroke-width="1"/>
            <path d="M9.63,31.7 C9.63,31.7 4.53,40.57 9.73,58.26 C9.73,58.26 -5.38,41.87 3.9,25.08 C3.9,25.08 5.57,15.83 19.21,12.88 C19.21,12.88 16.21,-2.12 29.38,0.83 C29.38,0.83 43.47,2.83 38.1,15.83 C38.1,15.83 45.68,22.58 46.87,33 C46.87,33 48.29,44.75 44.75,49.53 C44.75,49.53 43.5,42.18 41.48,40.81 C41.48,40.84 17.35,42.26 9.63,31.7 Z" id="Shape" fill="#3D221D" fill-rule="nonzero" stroke-width="1"/>
            <path d="M34.39,44.25 C35.3274084,44.2305369 36.2327963,44.5912492 36.9,45.25 L36.9,45.25 C37.1559243,45.1946675 37.3766665,45.0340138 37.5080066,44.8074996 C37.6393468,44.5809854 37.6691152,44.3095991 37.59,44.06 C38.0632013,44.6456612 37.9927586,45.4997788 37.43,46 C38.2491244,46.079934 39.0199569,45.6002138 39.31,44.83 C39.4438928,45.9071142 38.7931569,46.9273002 37.76,47.26 C37.76,47.26 37.76,47.33 37.76,47.36 C37.8668195,48.7448559 37.1155544,50.0540823 35.8660203,50.6606305 C34.6164863,51.2671787 33.1230879,51.0475556 32.1010824,50.1069489 C31.079077,49.1663421 30.7365446,47.6962589 31.2375396,46.4007899 C31.7385347,45.1053208 32.9810549,44.248223 34.37,44.24 L34.39,44.25 Z" id="Shape" fill="#55453F" fill-rule="nonzero" stroke-width="1"/>
            <ellipse id="Oval" fill="#FFFFFF" fill-rule="nonzero" transform="matrix(0.9999853631686856,-0.005410494283530485,0.005410494283530485,0.9999853631686856,-0.24930706127508273,0.19353814347093845)" cx="35.6459655" cy="46.1748582" rx="1" ry="1" stroke-width="1"/>
            <path d="M16.71,44.35 C15.767275,44.3490652 14.8647454,44.7317378 14.21,45.41 L14.21,45.41 C14.21,45.41 13.36,45.28 13.51,44.23 C13.05208,44.8148677 13.1264393,45.6546905 13.68,46.15 C12.8625765,46.2375186 12.0879677,45.7661958 11.79,45 C11.6635316,46.079198 12.3229592,47.0956406 13.36,47.42 C13.36,47.42 13.36,47.49 13.36,47.52 C13.2696092,48.9062747 14.0366497,50.2066816 15.2936398,50.7982083 C16.5506299,51.3897349 18.0415507,51.1519015 19.0521162,50.1986516 C20.0626817,49.2454018 20.3870638,47.7708898 19.8698543,46.4815403 C19.3526448,45.1921908 18.0991867,44.3506135 16.71,44.36 L16.71,44.35 Z" id="Shape" fill="#55453F" fill-rule="nonzero" stroke-width="1"/>
            <ellipse id="Oval" fill="#FFFFFF" fill-rule="nonzero" transform="matrix(0.9999853631686856,-0.005410494283530485,0.005410494283530485,0.9999853631686856,-0.25003278450789423,0.097453066704837)" cx="17.8867124" cy="46.2609473" rx="1" ry="1" stroke-width="1"/>
            <path d="M29.33,42.11 C29.33,42.11 35.33,39.54 41.33,42.11 C41.33,42.11 34.72,37.36 29.33,41.9" id="Shape" fill="#3D221D" fill-rule="nonzero" stroke-width="1"/>
            <path d="M10.72,41.46 C10.72,41.46 16.72,38.89 22.72,41.46 C22.72,41.46 16.11,36.71 10.72,41.25" id="Shape" fill="#3D221D" fill-rule="nonzero" stroke-width="1"/>
            <path d="M20.59,59.47 C22.3559202,60.2855715 24.2448877,60.8025877 26.18,61 C27.0659289,61.050989 27.9531497,60.9252144 28.79,60.63 C29.2552983,60.4897436 29.7098218,60.3159552 30.15,60.11 C30.62,59.91 31.05,59.63 31.59,59.42 C31.3743559,59.9357948 31.0955605,60.4228471 30.76,60.87 C30.0167748,61.784673 29.0174526,62.4566911 27.89,62.8 C27.3023226,62.9499197 26.6960269,63.0139175 26.09,62.99 C24.9141213,62.9271592 23.7772112,62.5470373 22.8,61.89 C21.8605606,61.2950222 21.0974906,60.4594434 20.59,59.47 Z" id="Shape" fill="#FFAEB8" fill-rule="nonzero" stroke-width="1"/>
            <path d="M16,135.15 C16,135.15 16.77,148.55 17.83,151.25 C17.83,151.25 15.83,159.99 20.96,174.57 L20.96,184 C20.96,184 19.12,189.07 19.73,191.28 C19.73,191.28 22.31,197.13 24.73,192.04 C25.0940381,189.970703 24.9949972,187.846448 24.44,185.82 L23.44,135.12" id="Shape" fill="#FFF3DE" fill-rule="nonzero" stroke-width="1"/>
            <path d="M34,135.15 C34,135.15 33.23,148.55 32.17,151.25 C32.17,151.25 34.17,159.99 29.04,174.57 L29.04,184 C29.04,184 30.88,189.07 30.27,191.28 C30.27,191.28 27.78,197.01 25.27,192.04 C24.9059619,189.970703 25.0050028,187.846448 25.56,185.82 L26.56,135.12" id="Shape" fill="#FFF3DE" fill-rule="nonzero" stroke-width="1"/>
            <path d="M19.62,189.51 C19.62,189.51 23.37,191.36 25.03,188.73 C25.03,188.73 26.03,193.05 23.03,194.6 C23.03,194.6 18.03,195.66 18.55,192.52 C18.7802782,191.476123 19.139713,190.465003 19.62,189.51 L19.62,189.51 Z" id="Shape" fill="#F24E4E" fill-rule="nonzero" stroke-width="1"/>
            <path d="M30.37,189.51 C30.37,189.51 26.69,191.36 25.06,188.73 C25.06,188.73 23.64,193 26.63,194.56 C26.63,194.56 32.2,195.56 31.42,192.56 C31.1979787,191.503685 30.8452642,190.479133 30.37,189.51 L30.37,189.51 Z" id="Shape" fill="#F24E4E" fill-rule="nonzero" stroke-width="1"/>
            <polygon id="Shape" fill="#FFF3DE" fill-rule="nonzero" points="21.84 66.78 21.84 73.78 28.2 73.78 28.2 66.4" stroke-width="1"/>
            <path d="M38,72.41 C36.59,70.67 31.45,69.09 31.45,69.09 C27.97,65.44 27.39,72.82 27.39,72.82 C26.75,73.62 25.02,73.56 25.02,73.56 C25.02,73.56 23.19,73.62 22.56,72.82 C22.56,72.82 21.98,65.44 18.5,69.09 C18.5,69.09 13.36,70.66 11.95,72.41 C11.95,72.41 7.64,76.64 8.05,79.87 L12.61,84.26 C12.61,84.26 13.69,93.54 16.61,94.79 C17.3804569,95.6511615 17.7699768,96.7872612 17.69,97.94 L17.58,101.53 C17.3721957,103.407378 16.6018518,105.178123 15.37,106.61 C15.37,106.61 13.71,109.21 13.88,111.09 C13.88,111.09 11.95,135.74 15.32,140.63 L34.71,140.63 C38.08,135.74 36.15,111.09 36.15,111.09 C36.32,109.21 34.66,106.61 34.66,106.61 C33.4281482,105.178123 32.6578043,103.407378 32.45,101.53 L32.34,97.94 C32.2600232,96.7872612 32.6495431,95.6511615 33.42,94.79 C36.32,93.55 37.42,84.26 37.42,84.26 L41.98,79.87 C42.36,76.64 38,72.41 38,72.41 Z" id="Shape" fill="#FF3035" fill-rule="nonzero" stroke-width="1"/>
            <path d="M22.31,73.09 C22.31,73.09 15.82,77.15 15.31,82.29" id="Shape" stroke="#494848" stroke-linecap="round" stroke-linejoin="round" stroke-width="1" fill="none"/>
            <ellipse id="Oval" fill="#494848" fill-rule="nonzero" cx="20.01" cy="74.84" rx="1.1" ry="1" stroke-width="1"/>
            <ellipse id="Oval" fill="#494848" fill-rule="nonzero" cx="18.39" cy="76.74" rx="1.1" ry="1" stroke-width="1"/>
            <ellipse id="Oval" fill="#494848" fill-rule="nonzero" cx="16.86" cy="78.65" rx="1.1" ry="1" stroke-width="1"/>
            <path d="M9.15,82.29 C8.03851584,86.269807 7.41395322,90.3697584 7.29,94.5 C7.29,94.5 6.63,99.05 11.79,97.63 L20.84,93.37 C21.44,93.08 21.48,94.37 21.84,94.94 C22.37,95.89 24.35,96.07 26.43,94.94 C26.43,94.94 28.43,90.94 25.31,89.78 C24.6611301,89.5916017 23.9838506,89.5204873 23.31,89.57 C22.0895225,90.0565279 20.9092142,90.6383229 19.78,91.31 L11.3,94.52 C11.3,94.52 9.77,94.52 10.76,91.68 L11.5,84.55 L9.15,82.29 Z" id="Shape" stroke="#FFF3DE" stroke-width="2" fill="#FFF3DE" fill-rule="nonzero"/>
            <path d="M41.37,81.87 C42.5203291,85.6372873 43.1198658,89.5511166 43.15,93.49 C43.15,93.49 43.81,98.04 38.65,96.62 L29.39,92.33 C28.8,92.04 29.19,94.17 28.87,94.74 C28.39,95.59 25.8,96.37 24.21,95.42 C23.6825516,94.9513231 23.2833101,94.3559026 23.05,93.69 C22.8154429,91.911214 23.8153698,90.199405 25.48,89.53 C26.2598969,89.3579797 27.0746552,89.4457769 27.8,89.78 C28.5,90.07 29.39,89.87 30.7,90.42 L39.22,93.47 C39.22,93.47 40.75,93.47 39.76,90.63 L38.55,84.48 L41.37,81.87 Z" id="Shape" stroke="#FFF3DE" stroke-width="2" fill="#FFF3DE" fill-rule="nonzero"/>
            <path d="M29.93,134.92 C30.1254854,135.169897 30.1907847,135.497734 30.1059698,135.803463 C30.0211549,136.109191 29.7962904,136.356531 29.5,136.47 L29.39,136.47 C29.020008,136.564634 28.6347192,136.384554 28.47,136.04 C28.3303543,135.660543 28.4329612,135.23433 28.73,134.96 C28.8865271,134.826246 29.0985358,134.777416 29.2978015,134.829225 C29.4970671,134.881034 29.6584437,135.026944 29.73,135.22 C29.7957878,135.341677 29.7957878,135.488323 29.73,135.61 C29.6955561,135.702045 29.6229683,135.774684 29.5309469,135.809192 C29.4389256,135.8437 29.3364739,135.836701 29.25,135.79 C29.25,135.79 29.01,135.58 29.16,135.4 C29.16,135.4 29.39,135.55 29.47,135.4 C29.55,135.25 29.32,134.96 29.07,135.28 C29.07,135.28 28.65,135.76 29.32,135.95 C29.5485401,136.016891 29.7896284,135.894155 29.87,135.67 C30.0132707,135.450612 29.988516,135.161807 29.81,134.97 C29.81,134.97 29.75,134.74 29.93,134.92 Z" id="Shape" fill="#FEDB0A" fill-rule="nonzero" stroke-width="1"/>
            <path d="M34.07,135.23 C34.303384,135.280983 34.5011647,135.434833 34.6079986,135.648501 C34.7148324,135.862168 34.7192444,136.112703 34.62,136.33 L34.62,136.41 C34.4589829,136.658569 34.1426854,136.755567 33.87,136.64 C33.6034204,136.491681 33.4443968,136.204663 33.46,135.9 C33.4822058,135.747473 33.5763075,135.614889 33.7129609,135.543592 C33.8496143,135.472294 34.0121933,135.470958 34.15,135.54 C34.248485,135.579148 34.3201458,135.665896 34.34,135.77 C34.3682755,135.840079 34.3646624,135.918993 34.3301013,135.986195 C34.2955402,136.053397 34.2334512,136.102237 34.16,136.12 C34.16,136.12 33.92,136.12 33.91,135.94 C33.91,135.94 34.12,135.94 34.09,135.78 C34.06,135.62 33.78,135.61 33.8,135.91 C33.8,135.91 33.8,136.4 34.28,136.16 C34.3622441,136.1229 34.4263697,136.054632 34.4582551,135.97023 C34.4901405,135.885827 34.4871708,135.792212 34.45,135.71 C34.4182592,135.509013 34.252847,135.356007 34.05,135.34 C34.05,135.34 33.87,135.23 34.07,135.23 Z" id="Shape" fill="#FEDB0A" fill-rule="nonzero" stroke-width="1"/>
            <path d="M32.79,139 C32.79,139 31.16,140.88 29.87,139 C29.8253453,138.938049 29.7884064,138.870887 29.76,138.8 C29.4336749,138.118053 29.599954,137.302338 30.1671722,136.802535 C30.7343904,136.302732 31.564547,136.240441 32.2,136.65 C32.4790082,136.915031 32.6284689,137.288622 32.6092519,137.672963 C32.5900349,138.057303 32.4040537,138.414122 32.1,138.65 C31.9168627,138.832973 31.6505169,138.905267 31.4,138.84 C31.2173363,138.811182 31.0565579,138.703566 30.9602856,138.54568 C30.8640134,138.387793 30.8419704,138.195582 30.9,138.02 C30.9,138.02 31.18,137.44 31.57,137.62 C31.57,137.62 31.38,138.15 31.67,138.22 C31.67,138.22 32.4,137.67 31.75,137.38 C31.75,137.38 30.75,136.85 30.65,138.23 C30.6246442,138.443528 30.6852326,138.658376 30.818413,138.827196 C30.9515934,138.996017 31.1464351,139.104953 31.36,139.13 C31.36,139.13 31.98,139.43 32.59,138.62 C32.6,138.75 33,138.57 32.79,139 Z" id="Shape" fill="#FEDB0A" fill-rule="nonzero" stroke-width="1"/>
            <path d="M29.69,139.78 C29.5400293,139.966005 29.3139331,140.074142 29.075,140.074142 C28.8360669,140.074142 28.6099707,139.966005 28.46,139.78 L28.41,139.7 C28.2570508,139.450211 28.3032277,139.126972 28.52,138.93 C28.7701967,138.751414 29.1005911,138.731979 29.37,138.88 C29.4956593,138.970159 29.5701786,139.115342 29.5701786,139.27 C29.5701786,139.424658 29.4956593,139.569841 29.37,139.66 C29.2936171,139.734927 29.1839951,139.765167 29.08,139.74 C28.95,139.74 28.81,139.63 28.84,139.43 C28.84,139.43 28.94,139.21 29.11,139.28 C29.11,139.28 29.05,139.48 29.17,139.51 C29.29,139.54 29.46,139.3 29.17,139.19 C29.17,139.19 28.72,138.99 28.74,139.52 C28.7399204,139.70394 28.8861397,139.85459 29.07,139.86 C29.262947,139.91887 29.4708801,139.835697 29.57,139.66 C29.57,139.66 29.78,139.6 29.69,139.78 Z" id="Shape" fill="#FEDB0A" fill-rule="nonzero" stroke-width="1"/>
            <path d="M31,139.66 C31.0542184,139.973038 31.2539581,140.241688 31.5381164,140.383767 C31.8222747,140.525846 32.1570385,140.524448 32.44,140.38 L32.54,140.32 C32.8736992,140.106845 33.00126,139.681643 32.84,139.32 C32.6483236,138.953555 32.250857,138.742897 31.84,138.79 C31.6418628,138.820447 31.4700422,138.943371 31.3772475,139.121063 C31.2844528,139.298755 31.2817618,139.510002 31.37,139.69 C31.4213437,139.818664 31.5341869,139.9127 31.67,139.94 C31.76139,139.974202 31.8630698,139.967489 31.9491699,139.921569 C32.0352701,139.875649 32.0974902,139.794948 32.12,139.7 C32.12,139.7 32.12,139.38 31.89,139.37 C31.89,139.37 31.89,139.64 31.69,139.6 C31.69,139.6 31.47,139.19 31.86,139.22 C31.86,139.22 32.5,139.22 32.19,139.85 C32.0861683,140.06616 31.8310693,140.162921 31.61,140.07 C31.3521126,140.029933 31.1543778,139.81984 31.13,139.56 C31.13,139.56 30.95,139.4 31,139.66 Z" id="Shape" fill="#FEDB0A" fill-rule="nonzero" stroke-width="1"/>
            <path d="M33.69,137.77 C33.7377835,137.981577 33.8771806,138.160948 34.0704081,138.259494 C34.2636356,138.35804 34.4906795,138.365554 34.69,138.28 L34.76,138.28 C34.9851154,138.129157 35.0729136,137.840678 34.97,137.59 C34.8321256,137.341271 34.5639106,137.193558 34.28,137.21 C34.138015,137.22948 34.0144139,137.31689 33.9487341,137.444269 C33.8830543,137.571648 33.8835266,137.723033 33.95,137.85 C33.9850358,137.941667 34.0640535,138.009396 34.16,138.03 C34.2248708,138.05495 34.2973722,138.050553 34.3587519,138.017945 C34.4201315,137.985337 34.4643608,137.927721 34.48,137.86 C34.48,137.86 34.48,137.64 34.32,137.63 C34.32,137.63 34.32,137.82 34.18,137.8 C34.04,137.78 34.02,137.51 34.3,137.53 C34.3,137.53 34.75,137.53 34.53,137.98 C34.4575255,138.133768 34.2774705,138.204034 34.12,138.14 C33.9370843,138.113004 33.7965083,137.964159 33.78,137.78 C33.78,137.78 33.68,137.59 33.69,137.77 Z" id="Shape" fill="#FEDB0A" fill-rule="nonzero" stroke-width="1"/>
            <path d="M28.1,138.33 C28.3057116,138.241601 28.4603379,138.064816 28.5205642,137.849167 C28.5807905,137.633518 28.5401401,137.402196 28.41,137.22 L28.35,137.16 C28.1585523,136.959251 27.8503814,136.925479 27.62,137.08 C27.4008786,137.266349 27.3076402,137.561604 27.38,137.84 C27.4271783,137.976964 27.5374073,138.082841 27.6761599,138.124467 C27.8149125,138.166093 27.9652195,138.138377 28.08,138.05 C28.1644477,137.999017 28.2171888,137.908604 28.22,137.81 C28.22,137.69 28.22,137.54 27.99,137.52 C27.99,137.52 27.77,137.52 27.79,137.73 C27.79,137.73 27.99,137.73 27.98,137.84 C27.97,137.95 27.72,138.05 27.69,137.77 C27.69,137.77 27.61,137.32 28.09,137.45 C28.2564092,137.494167 28.3580436,137.662085 28.32,137.83 C28.3269215,138.019621 28.202826,138.189218 28.02,138.24 C28.02,138.24 27.92,138.37 28.1,138.33 Z" id="Shape" fill="#FEDB0A" fill-rule="nonzero" stroke-width="1"/>
            <path d="M30.71,136.09 C30.7642184,136.403038 30.9639581,136.671688 31.2481164,136.813767 C31.5322747,136.955846 31.8670385,136.954448 32.15,136.81 L32.25,136.75 C32.5836992,136.536845 32.71126,136.111643 32.55,135.75 C32.3583236,135.383555 31.960857,135.172897 31.55,135.22 C31.3518628,135.250447 31.1800422,135.373371 31.0872475,135.551063 C30.9944528,135.728755 30.9917618,135.940002 31.08,136.12 C31.1313437,136.248664 31.2441869,136.3427 31.38,136.37 C31.47139,136.404202 31.5730698,136.397489 31.6591699,136.351569 C31.7452701,136.305649 31.8074902,136.224948 31.83,136.13 C31.83,136.13 31.83,135.81 31.6,135.8 C31.6,135.8 31.6,136.07 31.4,136.03 C31.4,136.03 31.18,135.62 31.57,135.65 C31.57,135.65 32.21,135.65 31.9,136.28 C31.7961683,136.49616 31.5410693,136.592921 31.32,136.5 C31.0621126,136.459933 30.8643778,136.24984 30.84,135.99 C30.84,135.99 30.7,135.83 30.71,136.09 Z" id="Shape" fill="#FEDB0A" fill-rule="nonzero" stroke-width="1"/>
            <path d="M34.76,139.65 C34.7148179,139.877307 34.5670886,140.070959 34.3598013,140.174603 C34.1525141,140.278246 33.908955,140.280239 33.7,140.18 L33.62,140.18 C33.3880641,140.025085 33.2962937,139.728917 33.4,139.47 C33.5418898,139.214195 33.8180003,139.062528 34.11,139.08 C34.2549069,139.102801 34.3802505,139.193346 34.4474281,139.323749 C34.5146056,139.454153 34.515561,139.608776 34.45,139.74 C34.4115495,139.833139 34.3289089,139.900754 34.23,139.92 C34.1638017,139.944992 34.090113,139.940762 34.02721,139.908357 C33.9643071,139.875952 33.9180822,139.81841 33.9,139.75 C33.9,139.75 33.9,139.52 34.07,139.51 C34.07,139.51 34.07,139.71 34.22,139.68 C34.37,139.65 34.38,139.38 34.09,139.4 C34.09,139.4 33.62,139.4 33.85,139.86 C33.9267503,140.020546 34.1169716,140.091326 34.28,140.02 C34.4699864,139.98855 34.6142453,139.831926 34.63,139.64 C34.63,139.64 34.76,139.46 34.76,139.65 Z" id="Shape" fill="#FEDB0A" fill-rule="nonzero" stroke-width="1"/>
            <path d="M32.75,134 C32.6906051,134.268981 32.5125675,134.496582 32.2658004,134.618994 C32.0190332,134.741406 31.7300986,134.745453 31.48,134.63 L31.39,134.58 C31.1062366,134.394548 30.9931557,134.034364 31.12,133.72 C31.2924189,133.410975 31.6267993,133.228232 31.98,133.25 C32.1570283,133.27506 32.3108281,133.384607 32.3923741,133.543721 C32.4739201,133.702835 32.4730346,133.891658 32.39,134.05 C32.3456975,134.162285 32.2480691,134.244894 32.13,134.27 C32.0492609,134.301232 31.958966,134.296064 31.8823177,134.255823 C31.8056695,134.215583 31.7501406,134.144194 31.73,134.06 C31.73,134.06 31.73,133.78 31.94,133.77 C31.94,133.77 31.94,134.01 32.12,133.98 C32.3,133.95 32.32,133.62 31.97,133.65 C31.97,133.65 31.41,133.65 31.68,134.21 C31.7704106,134.401087 31.9966015,134.485354 32.19,134.4 C32.4240095,134.367512 32.6033441,134.175666 32.62,133.94 C32.62,133.94 32.76,133.79 32.75,134 Z" id="Shape" fill="#FEDB0A" fill-rule="nonzero" stroke-width="1"/>
            <path d="M13.79,75.25 C13.9868828,75.5242199 14.0482763,75.873133 13.956822,76.1980876 C13.8653677,76.5230422 13.6310059,76.7887189 13.32,76.92 L13.2,76.92 C12.7971948,77.0222869 12.3782913,76.8254023 12.2,76.45 C12.0607204,76.0385987 12.1695665,75.5837776 12.48,75.28 C12.6484355,75.1439719 12.8715801,75.0962816 13.0809048,75.1515749 C13.2902294,75.2068682 13.4607133,75.3585359 13.54,75.56 C13.6111303,75.6909652 13.6111303,75.8490348 13.54,75.98 C13.5012158,76.0784652 13.4221249,76.1556099 13.3227242,76.1919294 C13.2233235,76.2282489 13.1131284,76.2202663 13.02,76.17 C13.02,76.17 12.76,75.95 12.92,75.74 C12.92,75.74 13.17,75.9 13.26,75.74 C13.26,75.74 13.09,75.26 12.83,75.61 C12.83,75.61 12.38,76.13 13.1,76.33 C13.3511655,76.408633 13.6188093,76.2703504 13.7,76.02 C13.8602627,75.7838267 13.8353369,75.4680997 13.64,75.26 C13.64,75.26 13.59,75.05 13.79,75.25 Z" id="Shape" fill="#FEDB0A" fill-rule="nonzero" stroke-width="1"/>
            <path d="M18.27,75.58 C18.5271231,75.6314907 18.7460864,75.7987769 18.8633584,76.0333208 C18.9806304,76.2678647 18.9830813,76.5434071 18.87,76.78 L18.82,76.87 C18.6437349,77.1352568 18.3051015,77.2397732 18.01,77.12 C17.720595,76.9562682 17.5498261,76.6418982 17.57,76.31 C17.593774,76.1440455 17.6961007,75.9997328 17.8448415,75.9223876 C17.9935823,75.8450423 18.1704895,75.8441534 18.32,75.92 C18.42805,75.9620728 18.507209,76.0563097 18.53,76.17 C18.5579741,76.2468377 18.5522088,76.3319146 18.514124,76.4042758 C18.4760392,76.4766369 18.4091748,76.5295565 18.33,76.55 C18.33,76.55 18.07,76.55 18.05,76.36 C18.05,76.36 18.28,76.36 18.25,76.19 C18.22,76.02 17.91,76 17.93,76.34 C17.93,76.34 17.93,76.87 18.45,76.61 C18.6290774,76.5242189 18.7085173,76.3123791 18.63,76.13 C18.5978643,75.9125056 18.4192469,75.7463498 18.2,75.73 C18.2,75.73 18.05,75.58 18.27,75.58 Z" id="Shape" fill="#FEDB0A" fill-rule="nonzero" stroke-width="1"/>
            <path d="M16.88,79.7 C16.88,79.7 15.11,81.7 13.72,79.7 C13.6709333,79.6319886 13.6306168,79.558075 13.6,79.48 C13.2399123,78.7393247 13.4189518,77.8493589 14.0374463,77.3055505 C14.6559408,76.7617421 15.561502,76.6980779 16.25,77.15 C16.5688803,77.4363154 16.7425392,77.8505537 16.7231673,78.2786727 C16.7037954,78.7067917 16.4934351,79.1036536 16.15,79.36 C15.954274,79.5569339 15.6695327,79.6366615 15.4,79.57 C15.2015843,79.5392616 15.0268957,79.4224077 14.9227443,79.2507507 C14.8185929,79.0790936 14.7956267,78.8701834 14.86,78.68 C14.86,78.68 15.16,78.05 15.59,78.25 C15.59,78.25 15.39,78.83 15.7,78.9 C15.7,78.9 16.49,78.31 15.78,77.99 C15.78,77.99 14.68,77.42 14.59,78.91 C14.5560117,79.1452934 14.6186694,79.3843281 14.7637104,79.572693 C14.9087513,79.7610579 15.1238342,79.8827252 15.36,79.91 C15.36,79.91 16.04,80.23 16.7,79.35 C16.68,79.39 17.15,79.2 16.88,79.7 Z" id="Shape" fill="#FEDB0A" fill-rule="nonzero" stroke-width="1"/>
            <path d="M13.53,80.51 C13.3687321,80.712571 13.1239254,80.83059 12.865,80.83059 C12.6060746,80.83059 12.3612679,80.712571 12.2,80.51 L12.14,80.43 C11.9708617,80.1579786 12.0214612,79.8037819 12.26,79.59 C12.529134,79.3934236 12.8876139,79.3700445 13.18,79.53 C13.314111,79.6278991 13.3934058,79.7839579 13.3934058,79.95 C13.3934058,80.1160421 13.314111,80.2721009 13.18,80.37 C13.0964729,80.4466934 12.9802086,80.4766971 12.87,80.45 C12.73,80.45 12.57,80.33 12.61,80.11 C12.61,80.11 12.71,79.87 12.9,79.94 C12.9,79.94 12.84,80.16 12.97,80.19 C13.1,80.22 13.28,79.96 12.97,79.84 C12.97,79.84 12.48,79.63 12.5,80.2 C12.4999268,80.400503 12.6595703,80.564581 12.86,80.57 C13.0692336,80.63068 13.292741,80.5396214 13.4,80.35 C13.4,80.35 13.63,80.32 13.53,80.51 Z" id="Shape" fill="#FEDB0A" fill-rule="nonzero" stroke-width="1"/>
            <path d="M14.9,80.38 C14.9712451,80.71136 15.1899778,80.9920117 15.4939036,81.1420264 C15.7978295,81.2920411 16.1536395,81.2949777 16.46,81.15 L16.57,81.08 C16.9155464,80.8528946 17.0535008,80.4139488 16.9,80.03 C16.6982747,79.6678889 16.314482,79.4452892 15.9,79.45 C15.6773458,79.4787183 15.4832143,79.6154802 15.3812187,79.8154716 C15.2792231,80.0154629 15.2825092,80.2529077 15.39,80.45 C15.4442676,80.5882351 15.564604,80.689769 15.71,80.72 C15.8093248,80.7573439 15.9199025,80.7502456 16.0136373,80.7005088 C16.1073722,80.6507719 16.1752411,80.5631842 16.2,80.46 C16.2,80.46 16.2,80.12 15.95,80.1 C15.95,80.1 15.95,80.4 15.73,80.35 C15.73,80.35 15.49,79.91 15.92,79.94 C15.92,79.94 16.61,79.94 16.28,80.62 C16.1709723,80.8588281 15.8902964,80.9657523 15.65,80.86 C15.3667292,80.8184903 15.1504417,80.5855653 15.13,80.3 C15.13,80.3 14.89,80.1 14.9,80.38 Z" id="Shape" fill="#FEDB0A" fill-rule="nonzero" stroke-width="1"/>
            <path d="M17.86,78.34 C17.9109825,78.573384 18.0648331,78.7711647 18.2785007,78.8779986 C18.4921684,78.9848324 18.7427032,78.9892444 18.96,78.89 L19.04,78.89 C19.288569,78.7289829 19.3855669,78.4126854 19.27,78.14 C19.1216814,77.8734204 18.8346631,77.7143968 18.53,77.73 C18.3774734,77.7522058 18.2448891,77.8463075 18.1735917,77.9829609 C18.1022943,78.1196143 18.1009582,78.2821933 18.17,78.42 C18.2091484,78.518485 18.2958957,78.5901458 18.4,78.61 C18.4700791,78.6382755 18.5489929,78.6346624 18.616195,78.6001013 C18.6833971,78.5655402 18.7322375,78.5034512 18.75,78.43 C18.75,78.43 18.75,78.19 18.57,78.18 C18.57,78.18 18.57,78.39 18.42,78.36 C18.27,78.33 18.25,78.05 18.55,78.07 C18.55,78.07 19.04,78.07 18.8,78.55 C18.7228804,78.7157343 18.5285189,78.7908285 18.36,78.72 C18.1590133,78.6882592 18.0060071,78.522847 17.99,78.32 C17.99,78.32 17.85,78.14 17.86,78.34 Z" id="Shape" fill="#FEDB0A" fill-rule="nonzero" stroke-width="1"/>
            <path d="M11.81,78.95 C12.0347376,78.854009 12.2032744,78.6605615 12.2675749,78.4247932 C12.3318753,78.1890248 12.2848862,77.9367975 12.14,77.74 L12.08,77.67 C11.8705244,77.4560854 11.5381076,77.422423 11.29,77.59 C11.0533599,77.790927 10.9523721,78.109427 11.03,78.41 C11.0835251,78.5569156 11.2039524,78.6694644 11.3541483,78.7129422 C11.5043442,78.7564199 11.6662715,78.7256053 11.79,78.63 C11.8800675,78.573614 11.9362701,78.4761961 11.94,78.37 C11.94,78.24 11.94,78.07 11.69,78.06 C11.69,78.06 11.45,78.06 11.47,78.29 C11.47,78.29 11.69,78.29 11.68,78.41 C11.67,78.53 11.4,78.64 11.36,78.33 C11.36,78.33 11.28,77.84 11.79,77.98 C11.9687316,78.0289349 12.0783452,78.2087012 12.04,78.39 C12.0524438,78.5965921 11.9192265,78.783929 11.72,78.84 C11.72,78.84 11.61,79 11.81,78.95 Z" id="Shape" fill="#FEDB0A" fill-rule="nonzero" stroke-width="1"/>
            <path d="M14.63,76.51 C14.7012451,76.84136 14.9199778,77.1220117 15.2239036,77.2720264 C15.5278295,77.4220411 15.8836395,77.4249777 16.19,77.28 L16.3,77.21 C16.6455464,76.9828946 16.7835008,76.5439488 16.63,76.16 C16.4282747,75.7978889 16.044482,75.5752892 15.63,75.58 C15.4073458,75.6087183 15.2132143,75.7454802 15.1112187,75.9454716 C15.0092231,76.1454629 15.0125092,76.3829077 15.12,76.58 C15.1742676,76.7182351 15.294604,76.819769 15.44,76.85 C15.5393248,76.8873439 15.6499025,76.8802456 15.7436373,76.8305088 C15.8373722,76.7807719 15.9052411,76.6931842 15.93,76.59 C15.93,76.59 15.93,76.25 15.68,76.23 C15.68,76.23 15.68,76.53 15.46,76.48 C15.46,76.48 15.22,76.04 15.65,76.07 C15.65,76.07 16.34,76.07 16.01,76.75 C15.9009723,76.9888281 15.6202964,77.0957523 15.38,76.99 C15.0967292,76.9484903 14.8804417,76.7155653 14.86,76.43 C14.86,76.43 14.63,76.23 14.63,76.51 Z" id="Shape" fill="#FEDB0A" fill-rule="nonzero" stroke-width="1"/>
            <path d="M19,80.38 C18.9467348,80.6216052 18.7872323,80.8262456 18.5659447,80.9368894 C18.3446571,81.0475332 18.0852433,81.0523509 17.86,80.95 L17.78,80.95 C17.5279912,80.7823729 17.4278627,80.4611272 17.54,80.18 C17.6956952,79.9047426 17.9942798,79.7418783 18.31,79.76 C18.468333,79.7843816 18.6053959,79.8831545 18.6786179,80.0256408 C18.75184,80.168127 18.7523539,80.337071 18.68,80.48 C18.638622,80.5827106 18.5484884,80.6578219 18.44,80.68 C18.3671952,80.7080905 18.2857975,80.7033074 18.2167837,80.6668835 C18.1477699,80.6304595 18.0978906,80.5659575 18.08,80.49 C18.08,80.49 18.08,80.24 18.26,80.23 C18.26,80.23 18.26,80.45 18.42,80.42 C18.58,80.39 18.6,80.1 18.28,80.12 C18.28,80.12 17.77,80.12 18.02,80.62 C18.1050599,80.788492 18.3058104,80.8626824 18.48,80.79 C18.6864883,80.7581223 18.8438742,80.5883112 18.86,80.38 C18.86,80.38 19,80.17 19,80.38 Z" id="Shape" fill="#FEDB0A" fill-rule="nonzero" stroke-width="1"/>
            <path d="M16.85,74.27 C16.7830891,74.5609518 16.5896807,74.806791 16.3226525,74.9403051 C16.0556244,75.0738191 15.742908,75.0810424 15.47,74.96 L15.37,74.9 C15.0645992,74.6983142 14.943364,74.3095253 15.08,73.97 C15.2668817,73.6360588 15.6279532,73.4380518 16.01,73.46 C16.199945,73.4880328 16.3650018,73.6052768 16.4540184,73.7753974 C16.5430349,73.9455179 16.5452585,74.1479654 16.46,74.32 C16.4127753,74.4418618 16.3076507,74.5319686 16.18,74.56 C16.0913262,74.5943742 15.9921335,74.588821 15.9078506,74.544764 C15.8235677,74.5007071 15.7623897,74.4224301 15.74,74.33 C15.74,74.33 15.74,74.03 15.96,74.01 C15.96,74.01 15.96,74.27 16.15,74.24 C16.15,74.24 16.36,73.85 15.98,73.88 C15.98,73.88 15.37,73.88 15.66,74.48 C15.7594475,74.6896107 16.0072476,74.7825357 16.22,74.69 C16.4686778,74.6536141 16.659377,74.450478 16.68,74.2 C16.68,74.2 16.85,74 16.85,74.27 Z" id="Shape" fill="#FEDB0A" fill-rule="nonzero" stroke-width="1"/>
            <path d="M23.83,136.89 C23.83,136.89 25.05,136.67 25.1,137.89 C25.1047223,137.929861 25.1047223,137.970139 25.1,138.01 C25.0477911,138.390083 24.7331086,138.679591 24.35,138.7 C23.9487233,138.686685 23.5943182,138.434663 23.45,138.06 C23.3928279,137.868275 23.4301196,137.660792 23.5504756,137.500975 C23.6708315,137.341159 23.8599424,137.248009 24.06,137.25 C24.1960045,137.241866 24.3271652,137.301825 24.41,137.41 C24.4831851,137.474543 24.5251111,137.56742 24.5251111,137.665 C24.5251111,137.76258 24.4831851,137.855457 24.41,137.92 C24.41,137.92 24.13,138.07 24.01,137.85 C24.01,137.85 24.24,137.69 24.13,137.57 C24.02,137.45 23.67,137.57 23.86,137.89 C23.86,137.89 24.15,138.46 24.57,137.89 C24.7218365,137.703223 24.699805,137.430032 24.52,137.27 C24.3714035,137.054429 24.095058,136.967813 23.85,137.06 C23.85,137.06 23.59,137 23.83,136.89 Z" id="Shape" fill="#FEDB0A" fill-rule="nonzero" stroke-width="1"/>
            <path d="M25.68,133.18 C25.8158647,132.982338 26.0341718,132.857105 26.2733855,132.839601 C26.5125992,132.822098 26.7468102,132.91422 26.91,133.09 L26.97,133.16 C27.1386756,133.402634 27.1091821,133.731276 26.9,133.94 C26.6619633,134.130752 26.3361664,134.169537 26.06,134.04 C25.9255219,133.961705 25.837343,133.823077 25.8234339,133.668089 C25.8095248,133.513102 25.8716115,133.360989 25.99,133.26 C26.0622563,133.184817 26.1674701,133.150998 26.27,133.17 C26.4,133.17 26.55,133.27 26.52,133.47 C26.52,133.47 26.43,133.7 26.26,133.64 C26.26,133.64 26.26,133.43 26.18,133.41 C26.1,133.39 25.9,133.64 26.18,133.73 C26.18,133.73 26.64,133.9 26.6,133.38 C26.5892557,133.196145 26.4340792,133.05427 26.25,133.06 C26.0532509,133.015246 25.8512758,133.11005 25.76,133.29 C25.76,133.29 25.6,133.36 25.68,133.18 Z" id="Shape" fill="#FEDB0A" fill-rule="nonzero" stroke-width="1"/>
            <path d="M28.71,135.8 C28.71,135.8 29.83,138.02 27.65,138.52 L27.42,138.52 C26.6609354,138.537612 25.9742602,138.071798 25.71,137.36 C25.71,137.36 25.37,136.01 26.36,135.45 C26.7160544,135.27886 27.1300432,135.276189 27.4882767,135.442719 C27.8465102,135.609249 28.1113259,135.927473 28.21,136.31 C28.3126991,136.547235 28.2822703,136.821094 28.13,137.03 C28.0361677,137.205755 27.8647289,137.326768 27.6676984,137.356323 C27.4706679,137.385877 27.2712692,137.32049 27.13,137.18 C27.13,137.18 26.7,136.7 27.02,136.41 C27.02,136.41 27.44,136.78 27.61,136.54 C27.61,136.54 27.38,135.66 26.86,136.15 C26.86,136.15 25.99,136.89 27.23,137.49 C27.6194922,137.707038 28.1111536,137.568479 28.33,137.18 C28.33,137.18 28.84,136.72 28.33,135.84 C28.38,135.87 28.38,135.39 28.71,135.8 Z" id="Shape" fill="#FEDB0A" fill-rule="nonzero" stroke-width="1"/>
            <path d="M28.24,139 C28.3605859,139.206693 28.3809862,139.456903 28.2954746,139.680399 C28.209963,139.903895 28.0277569,140.076586 27.8,140.15 L27.71,140.15 C27.4221527,140.196877 27.1413893,140.033448 27.04,139.76 C26.9704929,139.463684 27.075148,139.153595 27.31,138.96 C27.4379903,138.874082 27.5994575,138.854863 27.7440391,138.908339 C27.8886206,138.961814 27.9987213,139.081476 28.04,139.23 C28.0880024,139.320707 28.0880024,139.429293 28.04,139.52 C28.0067413,139.587667 27.9457459,139.637564 27.8728296,139.656753 C27.7999133,139.675941 27.7222582,139.662531 27.66,139.62 C27.66,139.62 27.49,139.45 27.66,139.31 C27.83,139.17 27.83,139.44 27.9,139.31 C27.97,139.18 27.81,138.96 27.61,139.19 C27.61,139.19 27.26,139.53 27.75,139.72 C27.9212118,139.789545 28.116622,139.709604 28.19,139.54 C28.3171147,139.382442 28.3171147,139.157558 28.19,139 C28.19,139 28.1,138.8 28.24,139 Z" id="Shape" fill="#FEDB0A" fill-rule="nonzero" stroke-width="1"/>
            <path d="M28.6,137.74 C28.6,137.74 29.84,137.88 29.81,136.68 C29.8147223,136.640139 29.8147223,136.599861 29.81,136.56 C29.7377112,136.181269 29.4055631,135.907982 29.02,135.91 C28.6183683,135.948475 28.2792024,136.22454 28.16,136.61 C28.1149934,136.804985 28.165297,137.009755 28.2955278,137.16169 C28.4257585,137.313626 28.620426,137.394656 28.82,137.38 C28.9561953,137.380195 29.0835978,137.312747 29.16,137.2 C29.2331851,137.135457 29.2751111,137.04258 29.2751111,136.945 C29.2751111,136.84742 29.2331851,136.754543 29.16,136.69 C29.16,136.69 28.87,136.56 28.77,136.78 C28.77,136.78 29.01,136.92 28.91,137.06 C28.81,137.2 28.45,137.11 28.63,136.76 C28.63,136.76 28.89,136.18 29.34,136.69 C29.5050798,136.863701 29.5050798,137.136299 29.34,137.31 C29.2042488,137.53589 28.9313401,137.639265 28.68,137.56 C28.68,137.56 28.36,137.64 28.6,137.74 Z" id="Shape" fill="#FEDB0A" fill-rule="nonzero" stroke-width="1"/>
            <path d="M27.89,134.5 C27.89,134.5 28.77,134.6 28.74,133.75 C28.7429722,133.723416 28.7429722,133.696584 28.74,133.67 C28.6873812,133.402463 28.4526618,133.209658 28.18,133.21 C27.8998826,133.243692 27.6632974,133.433736 27.57,133.7 C27.5339715,133.837745 27.5668221,133.984409 27.658166,134.093625 C27.7495098,134.20284 27.888055,134.261106 28.03,134.25 C28.1266669,134.249376 28.2166674,134.200626 28.27,134.12 C28.3216601,134.07444 28.3512549,134.00888 28.3512549,133.94 C28.3512549,133.87112 28.3216601,133.80556 28.27,133.76 C28.27,133.76 28.06,133.67 27.99,133.82 C27.99,133.82 28.16,133.92 28.09,134.02 C28.02,134.12 27.76,134.02 27.89,133.8 C27.89,133.8 28.07,133.39 28.39,133.8 C28.506828,133.923402 28.506828,134.116598 28.39,134.24 C28.2954386,134.403392 28.0995135,134.478427 27.92,134.42 C27.92,134.42 27.72,134.43 27.89,134.5 Z" id="Shape" fill="#FEDB0A" fill-rule="nonzero" stroke-width="1"/>
            <path d="M26.3,139.88 C26.3,139.88 26.23,138.99 25.39,139.18 L25.31,139.18 C25.0542306,139.280981 24.9070176,139.55017 24.96,139.82 C25.0490763,140.092662 25.2858699,140.290637 25.57,140.33 C25.7151063,140.338564 25.8554129,140.276508 25.9467011,140.16339 C26.0379892,140.050272 26.0690148,139.900025 26.03,139.76 C26.0144711,139.662512 25.9504175,139.579619 25.86,139.54 C25.8007946,139.504742 25.7296618,139.495485 25.6634045,139.514416 C25.5971473,139.533347 25.5416419,139.578786 25.51,139.64 C25.51,139.64 25.46,139.86 25.63,139.91 C25.63,139.91 25.7,139.72 25.81,139.77 C25.92,139.82 25.91,140.09 25.63,140.01 C25.63,140.01 25.18,139.91 25.49,139.52 C25.5936715,139.381631 25.788507,139.350634 25.93,139.45 C26.1086011,139.513659 26.220255,139.691478 26.2,139.88 C26.2,139.88 26.26,140.06 26.3,139.88 Z" id="Shape" fill="#FEDB0A" fill-rule="nonzero" stroke-width="1"/>
            <path d="M25.21,136.61 C25.21,136.61 26.45,136.75 26.42,135.55 C26.4247223,135.510139 26.4247223,135.469861 26.42,135.43 C26.3477112,135.051269 26.0155631,134.777982 25.63,134.78 C25.2283683,134.818475 24.8892024,135.09454 24.77,135.48 C24.7249934,135.674985 24.775297,135.879755 24.9055278,136.03169 C25.0357585,136.183626 25.230426,136.264656 25.43,136.25 C25.5661953,136.250195 25.6935978,136.182747 25.77,136.07 C25.8431851,136.005457 25.8851111,135.91258 25.8851111,135.815 C25.8851111,135.71742 25.8431851,135.624543 25.77,135.56 C25.77,135.56 25.48,135.43 25.38,135.65 C25.38,135.65 25.62,135.79 25.52,135.93 C25.42,136.07 25.06,135.98 25.24,135.63 C25.24,135.63 25.5,135.05 25.95,135.56 C26.1150798,135.733701 26.1150798,136.006299 25.95,136.18 C25.8142488,136.40589 25.5413401,136.509265 25.29,136.43 C25.29,136.43 25,136.52 25.21,136.61 Z" id="Shape" fill="#FEDB0A" fill-rule="nonzero" stroke-width="1"/>
            <path d="M30,134.21 C30.1927404,134.337818 30.3157327,134.547408 30.333321,134.778009 C30.3509092,135.008611 30.261126,135.23443 30.09,135.39 L30.02,135.44 C29.7877953,135.594512 29.4791132,135.565312 29.28,135.37 C29.0955311,135.14027 29.060459,134.82462 29.19,134.56 C29.2650275,134.433645 29.3959089,134.350741 29.542207,134.336902 C29.6885051,134.323063 29.8326103,134.379955 29.93,134.49 C30.0034983,134.559137 30.0373166,134.660592 30.02,134.76 C30.02,134.88 29.93,135.03 29.73,135 C29.73,135 29.51,134.92 29.57,134.75 C29.57,134.75 29.77,134.75 29.79,134.68 C29.81,134.61 29.57,134.41 29.48,134.68 C29.48,134.68 29.31,135.12 29.82,135.08 C29.9944,135.069411 30.1303212,134.924721 30.13,134.75 C30.1738004,134.561348 30.0829251,134.367206 29.91,134.28 C29.91,134.28 29.86,134.14 30,134.21 Z" id="Shape" fill="#FEDB0A" fill-rule="nonzero" stroke-width="1"/>
            <path d="M24.06,133.94 C24.2883275,134.097006 24.4326771,134.34949 24.4521429,134.625905 C24.4716088,134.90232 24.3640696,135.172544 24.16,135.36 L24.08,135.42 C23.7995501,135.612294 23.4221352,135.578746 23.18,135.34 C22.9481883,135.058009 22.9050273,134.665637 23.07,134.34 C23.160016,134.18741 23.3180237,134.087523 23.4944752,134.071662 C23.6709268,134.055801 23.8442149,134.125909 23.96,134.26 C24.0509038,134.343811 24.0924364,134.468409 24.07,134.59 C24.07,134.74 23.96,134.91 23.72,134.88 C23.72,134.88 23.46,134.78 23.53,134.58 C23.53,134.58 23.77,134.64 23.79,134.49 C23.81,134.34 23.53,134.17 23.42,134.49 C23.42,134.49 23.22,135.02 23.82,134.97 C24.0314701,134.959218 24.195704,134.781668 24.19,134.57 C24.2478667,134.342525 24.1397137,134.105421 23.93,134 C23.93,134 23.85,133.84 24.06,133.94 Z" id="Shape" fill="#FEDB0A" fill-rule="nonzero" stroke-width="1"/>
        </g>
    </g>
</svg>