<?xml version="1.0" encoding="UTF-8" standalone="no"?><svg xmlns="http://www.w3.org/2000/svg" xmlns:xlink="http://www.w3.org/1999/xlink" width="47.15962600708008" height="27.624963760375977" viewBox="-0.2800000011920929 -0.404399037361145 47.15962600708008 27.624963760375977" version="1.1">
    <!-- Generator: Sketch 46.2 (44496) - http://www.bohemiancoding.com/sketch -->
    <title>red packet 2-b</title>
    <desc>Created with Sketch.</desc>
    <defs/>
    <g id="Page-1" stroke="none" fill-rule="evenodd">
        <g id="red-packet-2-b">
            <circle id="Oval" fill="#FEDB0A" fill-rule="nonzero" transform="matrix(0.0020943935712195274,-0.9999978067553793,0.9999978067553793,0.0020943935712195274,29.548267029533452,55.77877367249142)" cx="42.7219926" cy="13.0842776" r="3.65" stroke-width="1"/>
            <path d="M42.72,13.67 C42.771608,8.35730137 40.0950853,3.38931294 35.63,0.51 L32.41,0.51 L0.27,0.45 L0.22,25.65 L32.53,25.72 L36,25.72 C40.0158494,22.9886622 42.5068072,18.5219894 42.72,13.67 Z" id="Shape" fill="#F24E4E" fill-rule="nonzero" stroke-width="1"/>
            <circle id="Oval" fill="#FEDB0A" fill-rule="nonzero" transform="matrix(0.5407575873185961,-0.8411784779447051,0.8411784779447051,0.5407575873185961,10.093410557078386,28.75295177384224)" cx="31.3796" cy="5.1326" r="3.64488642" stroke-width="1"/>
            <text id="￥" stroke="#F9B903" stroke-width="0.75" fill="#F9B903" transform="matrix(-0.543321 0.839525 -0.839525 -0.543321 51.847 -16.345)" font-family="AdobeSongStd-Light, Adobe Song Std" font-size="5.48" font-weight="300" alignment-baseline="text-before-edge" xml:space="preserve">
                <tspan x="28.3690872" y="7.38521712">￥</tspan>
            </text>
            <circle id="Oval" fill="#FEDB0A" fill-rule="nonzero" transform="matrix(0.6458575218931341,-0.7634579630955851,0.7634579630955851,0.6458575218931341,1.573631993338303,29.656019225910256)" cx="32.7529389" cy="13.1317974" r="3.65" stroke-width="1"/>
            <text id="￥" stroke="#F9B903" stroke-width="0.75" fill="#F9B903" transform="matrix(-0.645858 0.763458 -0.763458 -0.645858 62.627 -1.31865)" font-family="AdobeSongStd-Light, Adobe Song Std" font-size="5.48" font-weight="300" alignment-baseline="text-before-edge" xml:space="preserve">
                <tspan x="29.6193434" y="15.4020889">￥</tspan>
            </text>
            <circle id="Oval" fill="#FEDB0A" fill-rule="nonzero" transform="matrix(0.5545539868777074,-0.8321477486829124,0.8321477486829124,0.5545539868777074,6.390523870213286,36.04419184526244)" cx="36.8627462" cy="12.0529549" r="3.65" stroke-width="1"/>
            <text id="￥" stroke="#F9B903" stroke-width="0.746768036" fill="#F9B903" transform="matrix(0.833592 0.55238 -0.55238 0.833592 14.575 -17.3418)" font-family="AdobeSongStd-Light, Adobe Song Std" font-size="5.48" font-weight="300" alignment-baseline="text-before-edge" xml:space="preserve">
                <tspan x="34.0829279" y="14.2129279">￥</tspan>
            </text>
            <circle id="Oval" fill="#FEDB0A" fill-rule="nonzero" transform="matrix(0.8314696123025452,-0.5555702330196022,0.5555702330196022,0.8314696123025452,-3.741082122730944,23.519393017998915)" cx="36.8959825" cy="17.9260441" r="3.65" stroke-width="1"/>
            <text id="￥" stroke="#F9B903" stroke-width="0.750936915" fill="#F9B903" transform="matrix(-0.828964 0.559301 -0.559301 -0.828964 75.6011 13.6726)" font-family="AdobeSongStd-Light, Adobe Song Std" font-size="5.48" font-weight="300" alignment-baseline="text-before-edge" xml:space="preserve">
                <tspan x="33.7062523" y="20.0862523">￥</tspan>
            </text>
            <circle id="Oval" fill="#FEDB0A" fill-rule="nonzero" transform="matrix(0.8314696123025452,-0.5555702330196022,0.5555702330196022,0.8314696123025452,-3.022228070155748,24.909775246044248)" cx="39.5471476" cy="17.4363628" r="3.65" stroke-width="1"/>
            <text id="￥" stroke="#F9B903" stroke-width="0.750936915" fill="#F9B903" transform="matrix(-0.828964 0.559301 -0.559301 -0.828964 80.1738 11.2943)" font-family="AdobeSongStd-Light, Adobe Song Std" font-size="5.48" font-weight="300" alignment-baseline="text-before-edge" xml:space="preserve">
                <tspan x="36.3562523" y="19.5962523">￥</tspan>
            </text>
            <circle id="Oval" fill="#FEDB0A" fill-rule="nonzero" transform="matrix(0.9968152788978594,-0.07974521776121055,0.07974521776121055,0.9968152788978594,-0.42096885089137714,2.9749662302124604)" cx="37.036" cy="6.758" r="3.66166137" stroke-width="1"/>
            <text id="￥" stroke="#F9B903" stroke-width="0.75" fill="#F9B903" transform="matrix(0.0803729 0.996765 -0.996765 0.0803729 41.083 -28.4222)" font-family="AdobeSongStd-Light, Adobe Song Std" font-size="5.48" font-weight="300" alignment-baseline="text-before-edge" xml:space="preserve">
                <tspan x="33.9446484" y="8.96954881">￥</tspan>
            </text>
            <circle id="Oval" fill="#FEDB0A" fill-rule="nonzero" transform="matrix(0.5468328004719724,-0.837241833837739,0.837241833837739,0.5468328004719724,-3.2642917353244236,36.172785852807515)" cx="31.7830806" cy="21.101838" r="3.65" stroke-width="1"/>
            <text id="￥" stroke="#F9B903" stroke-width="0.753031374" fill="#F9B903" transform="matrix(0.836619 0.547786 -0.547786 0.836619 18.5572 -12.993)" font-family="AdobeSongStd-Light, Adobe Song Std" font-size="5.48" font-weight="300" alignment-baseline="text-before-edge" xml:space="preserve">
                <tspan x="29.0478745" y="23.2478745">￥</tspan>
            </text>
            <polygon id="Shape" fill="#D83535" fill-rule="nonzero" points="32.42 0.52 32.58 0.52 32.58 0.52 32.42 0.52" stroke-width="1"/>
            <path d="M32.47,25.72 C29.3,21.42 29.12,13.08 29.12,13.08 C29.24,7.7 32.36,0.63 32.41,0.51 L0.27,0.45 L0.22,25.65 L32.53,25.72 L32.47,25.72 Z" id="Shape" fill="#D83535" fill-rule="nonzero" stroke-width="1"/>
        </g>
    </g>
</svg>