<?xml version="1.0" encoding="UTF-8" standalone="no"?><svg xmlns="http://www.w3.org/2000/svg" xmlns:xlink="http://www.w3.org/1999/xlink" width="32.818899154663086" height="25.839887619018555" viewBox="-0.01559630036354065 -0.07771646976470947 32.818899154663086 25.839887619018555" version="1.1">
    <!-- Generator: Sketch 46.2 (44496) - http://www.bohemiancoding.com/sketch -->
    <title>red packet 2-a</title>
    <desc>Created with Sketch.</desc>
    <defs/>
    <g id="Page-1" stroke="none" fill-rule="evenodd">
        <g id="red-packet-2-a" fill-rule="nonzero">
            <rect id="Rectangle-path" fill="#D63535" transform="matrix(-0.0015707956808309418,0.9999987662997035,-0.9999987662997035,-0.0015707956808309418,29.261815548453292,-3.5314312586252807)" x="3.99885217" y="-3.04777165" width="24.79" height="31.78" stroke-width="1"/>
            <path d="M25.61,0.45 C25.61,0.45 26.04,0.93 25.3,2.24 C25.3,2.24 21.52,8.5 21.93,13.35 C22.0615212,16.3820751 22.9446658,19.3339086 24.5,21.94 C25.1553574,22.9661186 25.6604788,24.0807532 26,25.25 L30.24,25.25 L30.24,0.45 L25.61,0.45 Z" id="Shape" fill="#B00202" stroke-width="1"/>
            <path d="M29.14,0.45 C24.7354673,3.27615289 22.0917886,8.16695844 22.14,13.4 C22.3554483,18.1751364 24.8132748,22.5680843 28.77,25.25 L32.23,25.25 L32.23,0.45 L29.14,0.45 Z" id="Shape" fill="#F04E4E" stroke-width="1"/>
            <circle id="Oval" fill="#FCD90A" transform="matrix(0.0015707956808308423,-0.9999987662997035,0.9999987662997035,0.0015707956808308423,9.017624594740088,34.71738858303991)" cx="21.894795" cy="12.8427941" r="3.59" stroke-width="1"/>
            <path d="M23.17,12.25 L23.17,12.25 C23.17,12.25 23.17,12.25 23.17,12.25 C23.1414189,12.1723595 23.0888875,12.1058197 23.02,12.06 C22.76,11.93 22.51,11.8 22.29,11.66 C22.2223576,11.9057018 22.1030305,12.1341278 21.94,12.33 C21.901491,12.3640356 21.8513575,12.3819404 21.8,12.38 C21.68,12.38 21.55,12.31 21.55,12.22 C21.55,12.13 21.55,12.16 21.72,12.09 C21.9416151,11.9968328 22.1249785,11.8311005 22.24,11.62 L20.62,11.62 C20.07,11.62 19.92,11.62 19.72,11.62 L19.72,11.62 C19.65,11.62 19.62,11.62 19.55,11.47 C19.545147,11.4401963 19.545147,11.4098037 19.55,11.38 C19.55,11.38 19.55,11.38 19.63,11.38 L20.69,11.38 L21.95,11.38 C21.5813594,11.1255548 21.245493,10.8266336 20.95,10.49 L21.01,10.49 C21.5908163,11.0355905 22.2648333,11.4725161 23,11.78 L23,10.93 C22.9969761,10.8069284 22.973314,10.6852374 22.93,10.57 L23.14,10.41 C23.14,10.54 23.14,10.68 23.14,10.8 L23.14,11.8 L23.38,11.95 L23.17,12.25 Z" id="Shape" fill="#F04E4E" stroke-width="1"/>
            <path d="M21.83,12.81 L22.05,12.51 L21.55,12.51 L20.17,12.51 L19.49,12.51 C19.49,12.51 19.42,12.51 19.42,12.51 C19.4118333,12.5462119 19.4118333,12.5837881 19.42,12.62 C19.47,12.72 19.49,12.73 19.55,12.73 L19.8,12.73 L19.86,14.8 L19.53,14.8 C19.53,14.8 19.47,14.8 19.47,14.8 C19.4629823,14.8363309 19.4629823,14.8736691 19.47,14.91 C19.53,15.02 19.54,15.03 19.6,15.03 L19.6,15.03 C19.8,15.03 20.13,15.03 20.37,15.03 L21.57,15.03 L21.68,15.19 C21.68,15.19 21.68,15.19 21.68,15.19 C21.68,15.19 21.68,15.19 21.68,15.19 L21.91,14.86 L21.69,14.71 L21.83,12.81 Z M19.96,12.81 L20.8,12.81 L20.8,13.73 L19.96,13.73 L19.96,12.81 Z M20,14.89 L20,14 L20.84,14 L20.84,14.92 L20,14.89 Z M20.9,12.8 L21.7,12.8 L21.7,13.72 L20.9,13.72 L20.9,12.8 Z M21,14.86 L21,13.94 L21.8,13.94 L21.8,14.86 L21,14.86 Z" id="Shape" fill="#F04E4E" stroke-width="1"/>
            <path d="M23.35,14.45 L23.35,13.17 L23.57,12.87 L23.04,12.87 L22.17,12.87 C22.17,12.87 22.17,12.87 22.17,12.87 C22.1640293,12.9064236 22.1640293,12.9435764 22.17,12.98 C22.23,13.08 22.25,13.09 22.3,13.09 L22.43,13.09 L22.43,14.48 L22.26,14.48 C22.2,14.48 22.17,14.48 22.18,14.48 C22.1740293,14.5164236 22.1740293,14.5535764 22.18,14.59 C22.24,14.69 22.26,14.71 22.31,14.71 L22.31,14.71 L22.77,14.71 L23.08,14.71 L23.17,14.85 C23.17,14.85 23.17,14.85 23.17,14.85 C23.17,14.85 23.17,14.85 23.22,14.85 L23.44,14.53 L23.35,14.45 Z M22.55,14.54 L22.55,13.15 L23.23,13.15 L23.23,14.54 L22.55,14.54 Z" id="Shape" fill="#F04E4E" stroke-width="1"/>
            <path d="M24.41,11.14 C24.31,11.36 24.08,11.83 23.82,11.84 C23.56,11.85 23.54,11.77 23.53,11.65 C23.52,11.53 23.53,11.55 23.69,11.52 C23.9536793,11.4647336 24.1882592,11.3154555 24.35,11.1 L24.41,11.14 Z" id="Shape" fill="#F04E4E" stroke-width="1"/>
            <path d="M24,15.21 C24,15.21 23.94,15.28 23.92,15.28 C23.9,15.28 23.92,15.28 23.92,15.19 L23.85,12.81 C23.8467891,12.6869488 23.823133,12.5652886 23.78,12.45 L23.97,12.29 C23.97,12.42 23.97,12.56 23.97,12.68 L24.03,14.68 L24.3,14.85 L24,15.21 Z" id="Shape" fill="#F04E4E" stroke-width="1"/>
        </g>
    </g>
</svg>