<?xml version="1.0" encoding="UTF-8"?><svg xmlns="http://www.w3.org/2000/svg" xmlns:xlink="http://www.w3.org/1999/xlink" width="108.40336608886719" height="153.4831085205078" viewBox="-0.3254077285528183 0.12217307090759277 108.40336608886719 153.4831085205078" version="1.1">
    <!-- Generator: Sketch 46.2 (44496) - http://www.bohemiancoding.com/sketch -->
    <title>三国主题素材-11</title>
    <desc>Created with Sketch.</desc>
    <defs/>
    <g id="Page-1" stroke="none" fill-rule="evenodd">
        <g id="三国主题素材-11" fill-rule="nonzero">
            <path d="M53,47.73 C53,47.73 30.4,71 20.66,74.06 L18,79.72 C18,79.72 19.12,83.03 25.84,80.08 C25.84,80.08 37.37,72.25 53.05,51 L53,47.73 Z" id="Shape" fill="#AEC2D2" stroke-width="1"/>
            <path d="M21.06,81.53 C20.4223938,81.5441078 19.788869,81.4248961 19.2,81.18 C18.5537533,80.9273768 18.035294,80.4269195 17.76,79.79 C17.7382895,79.7354128 17.7382895,79.6745872 17.76,79.62 L20.45,74 C20.4768438,73.9414296 20.5280132,73.8975702 20.59,73.88 C30.17,70.88 52.59,47.88 52.86,47.61 C52.9241988,47.5418246 53.0245183,47.5217607 53.11,47.56 C53.194336,47.5958577 53.2493375,47.6783599 53.25,47.77 L53.25,51 C53.2625012,51.0424317 53.2625012,51.0875683 53.25,51.13 C37.73,72.13 26.1,80.18 25.98,80.26 C24.4434584,81.0135859 22.769313,81.4457331 21.06,81.53 Z M18.22,79.72 C18.4841395,80.1811923 18.9017295,80.5350822 19.4,80.72 C20.4,81.15 22.27,81.33 25.72,79.82 C25.8,79.76 37.35,71.82 52.8,50.88 L52.8,48.29 C49.68,51.46 29.97,71.29 20.8,74.29 L18.22,79.72 Z" id="Shape" fill="#603404" stroke-width="1"/>
            <path d="M53,55.51 C53,55.51 41,76.4 33.87,83.12 C33.9262396,85.1918115 33.5868435,87.2553403 32.87,89.2 C35.8523135,89.7350881 38.8624371,88.4156901 40.49,85.86 C40.49,85.86 52.13,68.93 55,56.91 L53,55.51 Z" id="Shape" fill="#AEC2D2" stroke-width="1"/>
            <path d="M34.11,89.52 C33.6778877,89.5249146 33.2461925,89.4914499 32.82,89.42 C32.7521444,89.4051074 32.6946558,89.3603426 32.6635876,89.2982062 C32.6325194,89.2360698 32.6312008,89.16322 32.66,89.1 C33.3701303,87.1813316 33.709474,85.1452691 33.66,83.1 C33.6586861,83.0360662 33.6840486,82.9744716 33.73,82.93 C40.79,76.31 52.73,55.58 52.84,55.37 C52.8722813,55.3138485 52.926742,55.2739106 52.99,55.26 C53.0475085,55.2355468 53.1124915,55.2355468 53.17,55.26 L55.17,56.66 C55.2459284,56.71432 55.281489,56.8091484 55.26,56.9 C52.37,68.82 40.78,85.75 40.67,85.9 C39.2948355,88.2000123 36.7890281,89.5827902 34.11,89.52 Z M33.19,89.02 C35.9951883,89.4141698 38.7717103,88.1314948 40.29,85.74 C40.41,85.56 51.86,68.84 54.78,57.01 L53.1,55.84 C51.81,58.06 40.83,76.84 34.1,83.22 C34.1415078,85.1853645 33.8333831,87.1424643 33.19,89 L33.19,89.02 Z" id="Shape" fill="#603404" stroke-width="1"/>
            <path d="M26.72,86.09 C26.72,86.09 32.55,83.56 34.23,89.4 C35.91,95.24 32.53,97.78 30.99,98.78" id="Shape" fill="#F7D5C4" stroke-width="1"/>
            <path d="M31,99 C30.9008418,98.9959715 30.8154493,98.9287971 30.788186,98.8333754 C30.7609226,98.7379538 30.7979373,98.6358059 30.88,98.58 C34.12,96.51 35.18,93.44 34.03,89.46 C33.7288127,88.0617466 32.8245873,86.8683154 31.56,86.2 C30.0264225,85.6399497 28.338537,85.6756344 26.83,86.3 C26.7531885,86.3439977 26.6579436,86.3400095 26.5850791,86.2897445 C26.5122146,86.2394794 26.4746629,86.1518588 26.4885154,86.0644293 C26.502368,85.9769998 26.5651661,85.9052789 26.65,85.88 C28.2773025,85.1917503 30.1070164,85.1559438 31.76,85.78 C33.1487078,86.5008748 34.1452871,87.8015573 34.48,89.33 C35.69,93.52 34.57,96.76 31.14,98.96 C31.0988964,98.9881425 31.049767,99.0021795 31,99 Z" id="Shape" fill="#603404" stroke-width="1"/>
            <path d="M31,99 C30.8818902,99.0015344 30.7764939,98.9261166 30.7398293,98.8138313 C30.7031647,98.7015459 30.7437443,98.5784626 30.84,98.51 C34.06,96.45 35.11,93.39 33.97,89.43 C33.6730765,88.0406383 32.77592,86.8541946 31.52,86.19 C29.9958864,85.6348129 28.31912,85.6704887 26.82,86.29 C26.7297685,86.3471853 26.6143052,86.3457938 26.525478,86.2864505 C26.4366509,86.2271072 26.3911643,86.120972 26.4094517,86.0157225 C26.4277391,85.9104729 26.5063613,85.8259019 26.61,85.8 C28.2467049,85.1068346 30.0875724,85.07102 31.75,85.7 C33.1473772,86.4250009 34.1510224,87.73267 34.49,89.27 C35.7,93.49 34.58,96.74 31.13,98.95 C31.0917853,98.9777493 31.0469604,98.9949896 31,99 Z" id="Shape" fill="#603404" stroke-width="1"/>
            <path d="M28.74,84.9 L34.39,84.9 C34.39,84.9 32.39,101.52 46.12,121.34 L42.92,124.43 C42.92,124.43 25.76,101.74 28.74,84.9 Z" id="Shape" fill="#FFFFFF" stroke-width="1"/>
            <path d="M42.92,124.66 L42.92,124.66 C42.8561002,124.654748 42.7976708,124.621881 42.76,124.57 C42.59,124.34 25.57,101.57 28.54,84.86 C28.5589436,84.7524786 28.6508663,84.6730908 28.76,84.67 L34.41,84.67 C34.4728744,84.6724931 34.5319819,84.7006372 34.5735512,84.747875 C34.6151204,84.7951127 34.635521,84.8573189 34.63,84.92 C34.63,85.09 32.79,101.7 46.32,121.21 C46.3886191,121.294489 46.3886191,121.415511 46.32,121.5 L43.12,124.59 C43.0686921,124.644482 42.9940848,124.670595 42.92,124.66 Z M28.92,85.13 C26.29,100.81 41.25,121.8 42.92,124.13 L45.79,121.35 C40.3743879,113.688672 36.64253,104.967371 34.84,95.76 C34.1474893,92.2719872 33.8988503,88.7104004 34.1,85.16 L28.92,85.13 Z" id="Shape" fill="#603404" stroke-width="1"/>
            <path d="M57.9,71 C57.9,71 89.19,70.15 88.71,70.05 C88.23,69.95 96.91,129.95 96.91,129.95 C96.91,129.95 96.8,139.54 103.28,146.01 C103.28,146.01 71.92,161.49 45.07,146.01 C48.9891487,141.637604 51.3181297,136.070599 51.68,130.21 L57.9,71 Z" id="Shape" fill="#AEC2D2" stroke-width="1"/>
            <path d="M72,153.1 C62.552742,153.232515 53.2382566,150.865946 45,146.24 C44.9451428,146.196365 44.9131782,146.130095 44.9131782,146.06 C44.9131782,145.989905 44.9451428,145.923635 45,145.88 C48.86352,141.538168 51.1654091,136.029825 51.54,130.23 L57.68,71 C57.6945955,70.8885239 57.7876414,70.8039367 57.9,70.8 C68.15,70.52 87.58,69.97 88.64,69.87 C88.6794068,69.8602576 88.7205932,69.8602576 88.76,69.87 C88.8751029,69.8901219 88.956826,69.9933511 88.95,70.11 C88.9591506,70.1358817 88.9591506,70.1641183 88.95,70.19 C88.87,71.96 94.27,109.96 97.17,129.96 C97.17,130.09 97.17,139.57 103.47,145.9 C103.518809,145.952264 103.540532,146.024258 103.528775,146.094796 C103.517019,146.165334 103.473121,146.226391 103.41,146.26 C93.5158887,150.657779 82.8268548,152.985477 72,153.1 L72,153.1 Z M45.44,146 C70.44,160.24 99.71,147.46 102.9,146 C96.66,139.54 96.69,130.1 96.69,130 C96.69,129.9 94.52,115 92.44,100.23 C89.11,76.58 88.52,71.49 88.5,70.32 C87.5,70.44 84.2,70.54 73.32,70.85 L58.11,71.28 L51.91,130.28 C51.5257538,136.085452 49.2536196,141.606001 45.44,146 Z" id="Shape" fill="#603404" stroke-width="1"/>
            <path d="M65,91.3 L84.18,91.3 L84.18,103.3 C84.18,103.3 79.18,97.96 63.08,102.15 L65,91.3 Z" id="Shape" fill="#603404" stroke-width="1"/>
            <path d="M90.07,70.71 C90.07,70.71 88.9,69.71 86.26,70.03 C86.26,70.03 81.06,86.97 83.46,111.43 C83.46,111.43 84.15,131.73 85.11,133.81 C87.0786704,134.021386 89.0687293,133.90651 91,133.47 L90.07,70.71 Z" id="Shape" fill="#FFFFFF" stroke-width="1"/>
            <path d="M87.29,134.14 C86.09,134.14 85.17,134.04 85.1,134.04 C85.0216715,134.030415 84.9537256,133.981343 84.92,133.91 C83.92,131.81 83.28,112.27 83.25,111.44 C82.2638565,101.48403 82.4316362,91.4474459 83.75,81.53 C84.2393872,77.6365181 85.0080349,73.7832539 86.05,70 C86.0766133,69.9141123 86.1508361,69.8516089 86.24,69.84 C88.96,69.51 90.17,70.53 90.24,70.57 C90.2896511,70.6126945 90.3187495,70.6745287 90.32,70.74 L91.26,133.5 C91.2638289,133.60147 91.1977135,133.692379 91.1,133.72 C89.8566641,134.041721 88.5735596,134.183165 87.29,134.14 L87.29,134.14 Z M85.29,133.6 C87.1277976,133.785822 88.9833169,133.684612 90.79,133.3 L89.86,70.83 C88.8245819,70.248228 87.6206928,70.0399304 86.45,70.24 C85.96,71.93 81.45,88.45 83.7,111.41 C83.93,118.29 84.55,131.54 85.28,133.6 L85.29,133.6 Z" id="Shape" fill="#603404" stroke-width="1"/>
            <path d="M90.07,70.71 C90.07,70.71 96.07,74.93 98.6,78.71 L104.67,88.09 C104.67,88.09 110.42,94.38 104.99,104.18 C104.99,104.18 99.45,114.18 96.47,117.29 C96.47,117.29 98.02,124.51 100.25,126.99 C98.0885466,130.408976 94.6243423,132.796713 90.66,133.6 C90.66,133.6 83.99,95.6 87.09,83.2 C87.09,83.2 89.09,73.4 90.09,71.27 L90.07,70.71 Z" id="Shape" fill="#6CA2CE" stroke-width="1"/>
            <path d="M90.66,133.77 C90.617656,133.783095 90.572344,133.783095 90.53,133.77 C90.4814148,133.733805 90.449073,133.679902 90.44,133.62 C90.37,133.24 83.79,95.39 86.87,83.12 C86.95,82.73 88.87,73.41 89.87,71.19 L89.87,70.74 C89.8723952,70.662125 89.9140519,70.590757 89.9806819,70.5503751 C90.0473119,70.5099933 90.1298554,70.5060885 90.2,70.54 C90.2,70.54 96.2,74.8 98.81,78.54 L104.89,87.92 C105.949433,89.215118 106.710782,90.727573 107.12,92.35 C107.82,94.94 108.07,99.11 105.22,104.24 C105,104.65 99.73,114.14 96.74,117.31 C96.95,118.25 98.43,124.55 100.44,126.79 C100.493684,126.868353 100.493684,126.971647 100.44,127.05 C98.2351785,130.514503 94.7215583,132.938684 90.7,133.77 L90.66,133.77 Z M90.3,71.15 L90.3,71.21 C90.3073341,71.2429299 90.3073341,71.2770701 90.3,71.31 C89.3,73.39 87.36,83.09 87.3,83.19 C84.37,94.88 90.3,130.09 90.83,133.28 C94.5873017,132.459441 97.8767981,130.206657 100,127 C97.81,124.4 96.34,117.62 96.27,117.33 C96.2568422,117.257573 96.279147,117.183224 96.33,117.13 C99.26,114.13 104.76,104.13 104.82,104.07 C107.59,99.07 107.36,95.07 106.68,92.52 C106.281537,90.9545445 105.547978,89.4942505 104.53,88.24 L98.43,78.83 C96.23,75.59 91.6,72.1 90.3,71.15 Z" id="Shape" fill="#603404" stroke-width="1"/>
            <path d="M93.7,85.86 C93.7,85.86 90.34,102.48 96.1,116.55" id="Shape" fill="#6CA2CE" stroke-width="1"/>
            <path d="M96.1,116.78 C96.0083599,116.779338 95.9258577,116.724336 95.89,116.64 C90.18,102.64 93.45,85.99 93.48,85.82 C93.5051218,85.6959163 93.625799,85.6154649 93.75,85.64 C93.8740837,85.6651218 93.9545351,85.785799 93.93,85.91 C93.93,86.08 90.65,102.63 96.32,116.47 C96.3688039,116.585989 96.3153333,116.719666 96.2,116.77 L96.1,116.78 Z" id="Shape" fill="#603404" stroke-width="1"/>
            <path d="M58.42,70.89 L62.36,71.01 C62.36,71.01 69.77,87.19 64.02,133.92 L58.43,133.55 C58.43,133.55 68,96.82 58.42,70.89 Z" id="Shape" fill="#FFFFFF" stroke-width="1"/>
            <path d="M64,134.14 L64,134.14 L58.41,133.77 C58.3429069,133.766274 58.2807988,133.733393 58.24,133.68 C58.2126181,133.619626 58.2126181,133.550374 58.24,133.49 C58.34,133.12 67.7,96.49 58.24,70.96 C58.2061784,70.8940854 58.2061784,70.8159146 58.24,70.75 C58.2861252,70.6923805 58.356197,70.6591886 58.43,70.66 L62.37,70.78 C62.455684,70.7826751 62.5327697,70.8327808 62.57,70.91 C62.64,71.07 69.94,87.68 64.25,133.91 C64.2502448,133.974629 64.2232871,134.036378 64.1757247,134.080135 C64.1281622,134.123893 64.0643842,134.14562 64,134.14 Z M58.69,133.34 L63.8,133.68 C69.17,89.82 62.8,72.84 62.19,71.23 L58.73,71.12 C67.64,95.65 59.54,130 58.71,133.34 L58.69,133.34 Z" id="Shape" fill="#603404" stroke-width="1"/>
            <path d="M58.69,70.89 C58.69,70.89 56.04,70.72 53.46,75.64 C53.46,75.64 51.06,83.15 45.31,84.91 L33.49,84.91 C33.49,84.91 30.85,101.91 46.12,121.35 C46.12,121.35 52.83,114.16 53.63,110.35 C53.63,110.35 51.98,122.71 48.57,126.87 C48.57,126.87 50.91,131.87 58.57,133.95 C58.57,133.95 69.57,93.41 59.57,72.79 L58.69,70.89 Z" id="Shape" fill="#6CA2CE" stroke-width="1"/>
            <path d="M58.58,134.14 L58.52,134.14 C50.84,132.05 48.46,127.14 48.36,126.94 C48.3125212,126.867044 48.3125212,126.772956 48.36,126.7 C50.83,123.7 52.36,116.17 53.03,112.45 C51.03,116.31 46.48,121.26 46.25,121.51 C46.2062662,121.557027 46.1441674,121.582597 46.08,121.58 C46.0129069,121.576274 45.9507988,121.543393 45.91,121.49 C30.78,102.23 33.24,85 33.26,84.87 C33.2789436,84.7624786 33.3708663,84.6830908 33.48,84.68 L45.28,84.68 C50.83,82.96 53.23,75.68 53.28,75.57 C55.91,70.57 58.61,70.66 58.74,70.67 C58.8227616,70.6740937 58.8962028,70.724343 58.93,70.8 L59.78,72.67 C69.78,93.12 58.94,133.58 58.83,133.98 C58.7968355,134.087163 58.691201,134.154769 58.58,134.14 L58.58,134.14 Z M48.83,126.86 C49.25,127.62 51.78,131.76 58.42,133.64 C59.27,130.39 68.87,92.38 59.34,72.86 L58.55,71.13 C58,71.18 55.81,71.66 53.67,75.75 C53.59,76.02 51.19,83.36 45.38,85.13 L33.69,85.13 C33.47,87.05 32.14,103.13 46.13,121 C47.2,119.83 52.7,113.66 53.41,110.27 C53.4433524,110.157883 53.5555431,110.088656 53.6707102,110.10913 C53.7858772,110.129604 53.8673338,110.233257 53.86,110.35 C53.78,110.85 52.18,122.6 48.83,126.86 L48.83,126.86 Z" id="Shape" fill="#603404" stroke-width="1"/>
            <path d="M53.63,110.32 C56.5717343,101.885816 56.5717343,92.7041836 53.63,84.27" id="Shape" fill="#6CA2CE" stroke-width="1"/>
            <path d="M53.63,110.54 L53.54,110.54 C53.4246667,110.489666 53.3711961,110.355989 53.42,110.24 C56.3161346,101.852978 56.3161346,92.7370221 53.42,84.35 C53.397893,84.2376474 53.4617999,84.1261449 53.5699173,84.0884295 C53.6780347,84.0507142 53.7974286,84.0982745 53.85,84.2 C56.785022,92.693594 56.785022,101.926406 53.85,110.42 C53.8068096,110.499946 53.7205993,110.54697 53.63,110.54 Z" id="Shape" fill="#603404" stroke-width="1"/>
            <path d="M54.92,46.61 C54.1989447,45.9145519 53.2201035,45.5520181 52.22,45.61 C52.22,45.61 49.53,46.85 51.06,52.76 C51.06,52.76 52.22,57.66 55.88,59.49 L54.92,46.61 Z" id="Shape" fill="#F7D5C4" stroke-width="1"/>
            <path d="M55.88,59.69 L55.78,59.69 C52.07,57.83 50.89,53.02 50.85,52.81 C49.29,46.81 52.02,45.46 52.13,45.41 C53.2213814,45.3263521 54.2960209,45.7161366 55.08,46.48 C55.1197068,46.5165075 55.1446181,46.5663301 55.15,46.62 L56.15,59.47 C56.1534972,59.5494743 56.1156778,59.6251132 56.05,59.67 C55.998017,59.6982902 55.9371293,59.7054534 55.88,59.69 Z M52.3,45.8 C52.06,45.94 49.9,47.34 51.3,52.67 C51.3,52.72 52.4,57.17 55.64,59.06 L54.7,46.72 C54.0591114,46.0986 53.1920399,45.7662226 52.3,45.8 Z" id="Shape" fill="#603404" stroke-width="1"/>
            <path d="M53.51,54.54 C53.3605873,54.5428833 53.2128082,54.5085161 53.08,54.44 C52.7361378,54.220257 52.5199902,53.8475888 52.5,53.44 C52.4400385,53.0530348 52.6114548,52.6666777 52.9385902,52.4514571 C53.2657256,52.2362365 53.6883782,52.2317586 54.02,52.44 C53.7774064,51.3863837 53.2987015,50.4016194 52.62,49.56 C52.5520942,49.4998938 52.525846,49.4054967 52.5529774,49.3189644 C52.5801088,49.2324321 52.6555544,49.16992 52.7456217,49.1593448 C52.8356889,49.1487696 52.9235626,49.1921057 52.97,49.27 C53.08,49.4 55.53,52.41 53.97,54.36 C53.9494562,54.3895219 53.9219877,54.4135568 53.89,54.43 C53.770787,54.4887262 53.6421495,54.5259634 53.51,54.54 Z M53.41,52.72 L53.28,52.72 C52.9,52.86 52.95,53.38 52.95,53.39 C52.9674129,53.6419056 53.0910092,53.8745576 53.29,54.03 C53.4217529,54.0818286 53.5682471,54.0818286 53.7,54.03 C53.87614,53.7844391 53.9894421,53.4994671 54.03,53.2 C53.9886562,53.1743005 53.9570037,53.1356142 53.94,53.09 C53.8620889,52.8649145 53.6481468,52.7155587 53.41,52.72 L53.41,52.72 Z" id="Shape" fill="#603404" stroke-width="1"/>
            <path d="M92.27,46.56 C92.9910553,45.8645519 93.9698965,45.5020181 94.97,45.56 C94.97,45.56 97.66,46.8 96.13,52.71 C96.13,52.71 94.97,57.61 91.31,59.44 L92.27,46.56 Z" id="Shape" fill="#F7D5C4" stroke-width="1"/>
            <path d="M91.31,59.63 C91.2675683,59.6425012 91.2224317,59.6425012 91.18,59.63 C91.1143222,59.5851132 91.0765028,59.5094743 91.08,59.43 L92.08,46.58 C92.0853819,46.5263301 92.1102932,46.4765075 92.15,46.44 C92.8998515,45.6808635 93.9336785,45.2709601 95,45.31 C95.17,45.38 97.89,46.72 96.33,52.74 C96.33,52.94 95.11,57.74 91.4,59.61 L91.31,59.63 Z M92.49,46.63 L91.56,59 C94.8,57.11 95.89,52.66 95.9,52.62 C97.28,47.28 95.13,45.88 94.9,45.74 C94.0047301,45.7046363 93.1339618,46.0370458 92.49,46.66 L92.49,46.63 Z" id="Shape" fill="#603404" stroke-width="1"/>
            <path d="M93.68,54.48 C93.5321591,54.4784195 93.3860653,54.4478417 93.25,54.39 C93.2180123,54.3735568 93.1905438,54.3495219 93.17,54.32 C91.66,52.37 94.11,49.32 94.17,49.23 C94.2164374,49.1521057 94.3043111,49.1087696 94.3943783,49.1193448 C94.4844456,49.12992 94.5598912,49.1924321 94.5870226,49.2789644 C94.614154,49.3654967 94.5879058,49.4598938 94.52,49.52 C93.8415942,50.361807 93.3629238,51.3465003 93.12,52.4 C93.366666,52.2259643 93.6753715,52.1642232 93.97,52.23 C94.4325581,52.4132192 94.7123516,52.8863994 94.65,53.38 C94.628376,53.7871042 94.4126304,54.1590795 94.07,54.38 C93.9492195,54.4423566 93.8158835,54.4765453 93.68,54.48 L93.68,54.48 Z M93.48,54 C93.6144878,54.0555592 93.7655122,54.0555592 93.9,54 C94.1004954,53.8414465 94.2241134,53.6051181 94.24,53.35 C94.24,53.35 94.24,52.83 93.88,52.69 C93.5957595,52.6362232 93.3163101,52.8038928 93.23,53.08 C93.2129963,53.1256142 93.1813438,53.1643005 93.14,53.19 C93.1870336,53.4832742 93.3036182,53.7610201 93.48,54 Z" id="Shape" fill="#603404" stroke-width="1"/>
            <path d="M54.49,46.09 C54.49,46.09 54.9,51.47 55.57,56.37 C56.1241303,60.6753668 58.0694517,64.6818861 61.11,67.78 L61.22,67.89 C62.2346796,68.891279 63.3943469,69.7340605 64.66,70.39 L70.45,73.39 C72.5293294,74.2600134 74.8706706,74.2600134 76.95,73.39 L84.49,69.27 C85.5376922,68.7016685 86.4948658,67.9804179 87.33,67.13 L87.4,67.06 C89.348229,64.9852225 90.6541308,62.3907846 91.16,59.59 C92.0129295,55.2233869 92.5609202,50.8027063 92.8,46.36 C92.8,46.36 74,36.94 54.49,46.09 Z" id="Shape" fill="#F7D5C4" stroke-width="1"/>
            <path d="M73.72,74.29 C72.5584906,74.2988961 71.407703,74.0673767 70.34,73.61 L64.55,70.61 C63.260993,69.9220926 62.0841862,69.0420164 61.06,68 L61,67.94 C57.9090009,64.8109055 55.922003,60.7596766 55.34,56.4 C54.68,51.56 54.26,46.16 54.26,46.11 C54.2548608,46.0171261 54.3061674,45.9302996 54.39,45.89 C73.81,36.8 92.7,46.09 92.89,46.18 C92.9665481,46.2216194 93.0130062,46.302921 93.01,46.39 C92.767461,50.8428525 92.216136,55.2735001 91.36,59.65 C90.8508993,62.4973278 89.5235096,65.134733 87.54,67.24 L87.47,67.31 C86.6199443,68.1757801 85.645979,68.9104668 84.58,69.49 L77.05,73.6 C75.9991715,74.0562687 74.8656092,74.291151 73.72,74.29 Z M54.72,46.23 C54.79,47.15 55.19,51.97 55.79,56.34 C56.3434178,60.5952816 58.2669967,64.5547653 61.27,67.62 L61.38,67.73 C62.3802489,68.7153537 63.5230355,69.5446324 64.77,70.19 L70.56,73.19 C72.5775336,74.0222965 74.8424664,74.0222965 76.86,73.19 L84.38,69.08 C85.4043164,68.5277836 86.3411563,67.8268386 87.16,67 L87.22,66.93 C89.1408454,64.887296 90.4263517,62.3301808 90.92,59.57 C91.7574575,55.2786364 92.3020477,50.9352785 92.55,46.57 C90.86,45.71 73,37.74 54.73,46.23 L54.72,46.23 Z" id="Shape" fill="#603404" stroke-width="1"/>
            <path d="M57.87,53.86 C59.5805277,52.556844 61.7394975,51.9883153 63.87,52.28 C65.7146935,52.5179639 67.3291174,53.6365024 68.2,55.28 C68.2,55.28 64.88,56.91 61.89,56.09 C60.3280835,55.8465191 58.9034098,55.056215 57.87,53.86 L57.87,53.86 Z" id="Shape" fill="#FFFFFF" stroke-width="1"/>
            <path d="M57.85,53.85 C58.2598092,53.4917391 58.7055044,53.1767365 59.18,52.91 C59.6492335,52.6341835 60.1450728,52.4063654 60.66,52.23 C61.1853399,52.0555282 61.7288427,51.9414597 62.28,51.89 C62.8345833,51.8218896 63.3954167,51.8218896 63.95,51.89 L63.95,51.89 C64.4312454,51.9447269 64.9044515,52.0554773 65.36,52.22 C65.8153318,52.3811975 66.2513407,52.5924941 66.66,52.85 C67.4991335,53.3691714 68.1749659,54.1143199 68.61,55 L68.61,55 C68.7033545,55.1933311 68.6228994,55.4257568 68.43,55.52 L68.43,55.52 C67.9175167,55.7472277 67.3895173,55.9377085 66.85,56.09 C66.315068,56.2428387 65.7705219,56.3597658 65.22,56.44 C64.1055991,56.6216109 62.9647657,56.5532975 61.88,56.24 L61.88,56.24 C61.4771706,56.1943639 61.0790283,56.1140663 60.69,56 C60.3098094,55.8644718 59.9445566,55.6902227 59.6,55.48 C58.905529,55.0697821 58.3084346,54.5136313 57.85,53.85 Z M57.85,53.85 C58.0975016,54.1419213 58.3720574,54.4097806 58.67,54.65 C58.981171,54.8932766 59.3162197,55.1043573 59.67,55.28 C60.3628104,55.6381074 61.1092006,55.8812753 61.88,56 L61.88,56 C62.9280146,56.2544287 64.0169879,56.2918622 65.08,56.11 C66.1437579,55.9396602 67.1797336,55.6268494 68.16,55.18 L68.16,55.24 C67.9610671,54.8348898 67.7088296,54.4582151 67.41,54.12 C67.1186367,53.7821592 66.7821434,53.4860452 66.41,53.24 C65.6481728,52.7474962 64.7882642,52.4267366 63.89,52.3 L63.89,52.3 C63.3693505,52.2026114 62.8387734,52.1690306 62.31,52.2 C61.7814628,52.2307169 61.2581164,52.3212961 60.75,52.47 C60.240602,52.615324 59.7452803,52.8060898 59.27,53.04 C58.7916186,53.2753002 58.3334064,53.5495586 57.9,53.86 L57.85,53.85 Z" id="Shape" fill="#161616" stroke-width="1"/>
            <ellipse id="Oval" fill="#161616" cx="63.62" cy="54.24" rx="1.69" ry="1.94" stroke-width="1"/>
            <ellipse id="Oval" fill="#FFFFFF" cx="64.29" cy="53.98" rx="1" ry="1" stroke-width="1"/>
            <ellipse id="Oval" fill="#FFFFFF" cx="63.13" cy="55.2" rx="1" ry="1" stroke-width="1"/>
            <path d="M88.41,54 C86.6994723,52.696844 84.5405025,52.1283153 82.41,52.42 C80.5653065,52.6579639 78.9508826,53.7765024 78.08,55.42 C78.08,55.42 81.4,57.05 84.39,56.23 C85.9519165,55.9865191 87.3765902,55.196215 88.41,54 Z" id="Shape" fill="#FFFFFF" stroke-width="1"/>
            <path d="M88.39,54 C87.5016279,53.4391212 86.524374,53.033341 85.5,52.8 C85.0094128,52.6741953 84.5062741,52.6037559 84,52.59 C83.4924388,52.5783861 82.9853571,52.6287584 82.49,52.74 L82.49,52.74 C82.0699061,52.808172 81.6578011,52.9187367 81.26,53.07 C80.8593069,53.2238061 80.4769578,53.4216885 80.12,53.66 C79.7660124,53.8907937 79.4462181,54.170193 79.17,54.49 C78.9018603,54.7953397 78.6702923,55.1309456 78.48,55.49 L78.25,55 C79.2036124,55.4435391 80.2127182,55.756362 81.25,55.93 C82.2711597,56.1208452 83.3188403,56.1208452 84.34,55.93 L84.34,55.93 C85.0889403,55.8322552 85.8198261,55.6267988 86.51,55.32 C86.8611814,55.167163 87.1961843,54.9795614 87.51,54.76 C87.8272465,54.535754 88.1219634,54.2812258 88.39,54 Z M88.39,54 C87.8972726,54.6189192 87.2763825,55.1238188 86.57,55.48 C85.8711671,55.8426415 85.1179989,56.0891944 84.34,56.21 L84.34,56.21 C83.2827127,56.4693509 82.1836168,56.5101842 81.11,56.33 C80.0367189,56.1644026 78.9906424,55.8549523 78,55.41 L78,55.41 C78.408716,54.5901046 79.0348357,53.8982597 79.81,53.41 C80.5847564,52.914097 81.458427,52.593296 82.37,52.47 L82.37,52.47 C82.8972765,52.3716783 83.4345845,52.3380965 83.97,52.37 C84.5055859,52.4030707 85.0356658,52.4970089 85.55,52.65 C86.063045,52.798289 86.561719,52.9924037 87.04,53.23 C87.5284919,53.4383634 87.9942729,53.6963859 88.43,54 L88.39,54 Z" id="Shape" fill="#161616" stroke-width="1"/>
            <ellipse id="Oval" fill="#161616" cx="82.67" cy="54.37" rx="1.69" ry="1.94" stroke-width="1"/>
            <ellipse id="Oval" fill="#FFFFFF" cx="82" cy="54.12" rx="1" ry="1" stroke-width="1"/>
            <ellipse id="Oval" fill="#FFFFFF" cx="83.15" cy="55.33" rx="1" ry="1" stroke-width="1"/>
            <path d="M62.83,46.36 L69.19,49.27 C69.19,49.27 70.29,49.87 69.47,50.34 C68.4977195,50.0027976 67.4919014,49.7714594 66.47,49.65 L58.47,48.09 L55.88,47.33 C55.88,47.33 59.44,45.39 62.83,46.36 Z" id="Shape" fill="#161616" stroke-width="1"/>
            <path d="M83.45,46.36 L77.09,49.27 C77.09,49.27 75.99,49.87 76.81,50.34 C77.7822805,50.0027976 78.7880986,49.7714594 79.81,49.65 L87.81,48.09 L90.4,47.33 C90.4,47.33 86.85,45.39 83.45,46.36 Z" id="Shape" fill="#161616" stroke-width="1"/>
            <path d="M75.41,62.17 C75.2683592,62.17 75.1349845,62.1033126 75.05,61.99 C74.7851407,61.5622942 74.3396269,61.2787854 73.84,61.22 C73.2087588,61.258192 72.6186713,61.5460396 72.2,62.02 C72.0315532,62.2050154 71.7450154,62.2184468 71.56,62.05 C71.3749846,61.8815532 71.3615532,61.5950154 71.53,61.41 C72.1351235,60.744382 72.9812492,60.3483231 73.88,60.31 C74.6508933,60.3739823 75.3487485,60.7912185 75.77,61.44 C75.8722685,61.5763579 75.8887186,61.7587933 75.8124922,61.9112461 C75.7362658,62.0636989 75.5804474,62.16 75.41,62.16 L75.41,62.17 Z" id="Shape" fill="#161616" stroke-width="1"/>
            <path d="M73.85,69.78 L73.69,69.78 C72.7042626,69.8294898 71.7695629,69.3391555 71.25,68.5 C71.1340202,68.2790861 71.2190861,68.0059798 71.44,67.89 C71.6609139,67.7740202 71.9340202,67.8590861 72.05,68.08 C72.4300111,68.6293755 73.0742141,68.9343236 73.74,68.88 L73.84,68.88 C74.4311319,68.8520808 74.9652069,68.5187574 75.25,68 C75.3853098,67.7901318 75.6651318,67.7296902 75.875,67.865 C76.0848682,68.0003098 76.1453098,68.2801318 76.01,68.49 C75.5612314,69.2643057 74.7445179,69.7520652 73.85,69.78 Z" id="Shape" fill="#161616" stroke-width="1"/>
            <path d="M52.38,36.18 L48.18,26.94 L53.62,7.17 C53.7838125,5.97160153 54.6193543,4.97283761 55.77,4.6 C55.77,4.6 70.77,-3.87 91.6,4.6 C92.3464868,5.04704954 92.8938431,5.76254807 93.13,6.6 C93.23,7.09 93.32,7.6 93.45,8.07 L99.08,27.79 L95.34,36.13 L52.38,36.18 Z" id="Shape" fill="#AEC2D2" stroke-width="1"/>
            <path d="M95.35,36.4 L52.35,36.4 C52.2606972,36.4011137 52.1788234,36.3504299 52.14,36.27 L48,27 C47.9832375,26.9514049 47.9832375,26.8985951 48,26.85 L53.41,7.1 C53.5872082,5.82860132 54.4773924,4.77126463 55.7,4.38 C55.82,4.31 70.97,-4.04 91.7,4.38 C92.5262896,4.862964 93.1269745,5.65428548 93.37,6.58 L93.45,6.98 C93.52,7.33 93.59,7.7 93.69,8.04 L99.32,27.76 C99.3367625,27.8085951 99.3367625,27.8614049 99.32,27.91 L95.58,36.26 C95.5415149,36.351356 95.4488259,36.4077753 95.35,36.4 Z M52.52,36 L95.21,36 L98.86,27.86 L93.26,8.21 C93.16,7.85 93.08,7.48 93.01,7.11 L92.93,6.72 C92.7161849,5.93139134 92.207916,5.25489258 91.51,4.83 C71.01,-3.49 56.05,4.75 55.9,4.83 C54.8312021,5.17873829 54.0548634,6.10646295 53.9,7.22 L48.42,26.92 L52.52,36 Z" id="Shape" fill="#603404" stroke-width="1"/>
            <path d="M52.14,36.48 C52.14,36.48 52.76,43.05 54.72,45.48 C54.72,45.48 71.26,39.48 92.98,45.79 C94.6207891,42.9588865 95.5025964,39.7520014 95.54,36.48 C95.54,36.48 74.2,28.71 52.14,36.48 Z" id="Shape" fill="#6CA2CE" stroke-width="1"/>
            <path d="M93,46 L92.94,46 C71.53,39.75 54.94,45.62 54.82,45.68 C54.7302042,45.710424 54.6309406,45.6826302 54.57,45.61 C52.57,43.16 51.97,36.76 51.94,36.49 C51.9337295,36.3886227 51.9946995,36.2951353 52.09,36.26 C73.97,28.56 95.42,36.18 95.64,36.26 C95.7282607,36.2927115 95.7876818,36.375901 95.79,36.47 C95.74475,39.7827393 94.8531782,43.0288868 93.2,45.9 C93.1551132,45.9656778 93.0794743,46.0034972 93,46 L93,46 Z M72.88,42.67 C79.6476285,42.6732158 86.3808534,43.6327003 92.88,45.52 C94.4092234,42.8048762 95.247169,39.7553037 95.32,36.64 C93.4,35.98 73.11,29.41 52.39,36.64 C52.5,37.64 53.15,43 54.8,45.21 C60.662414,43.4487484 66.7592275,42.592227 72.88,42.67 Z" id="Shape" fill="#603404" stroke-width="1"/>
            <path d="M54.2,40.93 C53.9687021,40.9330004 53.7728052,40.7601543 53.746977,40.5302835 C53.7211488,40.3004126 53.8738036,40.0884034 54.1,40.04 L56.82,39.4 C57.0630053,39.3447715 57.3047715,39.4969947 57.36,39.74 C57.4152285,39.9830053 57.2630053,40.2247715 57.02,40.28 L54.3,40.92 L54.2,40.93 Z" id="Shape" fill="#603404" stroke-width="1"/>
            <path d="M55.1,40.6 L55.1,40.6 C54.9788996,40.6000299 54.8628984,40.5512491 54.7782136,40.4646824 C54.6935288,40.3781157 54.6473089,40.2610705 54.65,40.14 L54.65,36.82 C54.65,36.7006526 54.6974106,36.5861933 54.7818019,36.5018019 C54.8661933,36.4174106 54.9806526,36.37 55.1,36.37 L55.1,36.37 C55.2211004,36.3699701 55.3371016,36.4187509 55.4217864,36.5053176 C55.5064712,36.5918843 55.5526911,36.7089295 55.55,36.83 L55.55,40.15 C55.55,40.3985281 55.3485281,40.6 55.1,40.6 L55.1,40.6 Z" id="Shape" fill="#603404" stroke-width="1"/>
            <path d="M56.41,37.88 C56.1806375,37.8778356 55.989607,37.7035036 55.9665297,37.4752948 C55.9434524,37.2470859 56.0957142,37.038039 56.32,36.99 L60.32,36.15 C60.5657667,36.1002944 60.8052944,36.2592333 60.855,36.505 C60.9047056,36.7507667 60.7457667,36.9902944 60.5,37.04 L56.5,37.88 L56.41,37.88 Z" id="Shape" fill="#603404" stroke-width="1"/>
            <path d="M58.61,41.45 C58.3690774,41.4502381 58.1707076,41.2606847 58.16,41.02 L58,37.18 C57.9945762,37.0606217 58.0368587,36.9439885 58.1175238,36.8558197 C58.1981889,36.7676509 58.3106112,36.715188 58.43,36.71 C58.5507992,36.6987128 58.6707453,36.7389825 58.7602598,36.8208788 C58.8497744,36.9027751 58.9005262,37.0186757 58.9,37.14 L59.07,41 C59.0754238,41.1193783 59.0331413,41.2360115 58.9524762,41.3241803 C58.8718111,41.4123491 58.7593888,41.464812 58.64,41.47 L58.61,41.45 Z" id="Shape" fill="#603404" stroke-width="1"/>
            <path d="M62,38.85 L62,38.85 C61.8788996,38.8500299 61.7628984,38.8012491 61.6782136,38.7146824 C61.5935288,38.6281157 61.5473089,38.5110705 61.55,38.39 L61.55,35.08 C61.55,34.8314719 61.7514719,34.63 62,34.63 L62,34.63 C62.1211004,34.6299701 62.2371016,34.6787509 62.3217864,34.7653176 C62.4064712,34.8518843 62.4526911,34.9689295 62.45,35.09 L62.45,38.4 C62.45,38.6485281 62.2485281,38.85 62,38.85 L62,38.85 Z" id="Shape" fill="#603404" stroke-width="1"/>
            <path d="M60.09,39.32 C59.8414719,39.32 59.64,39.1185281 59.64,38.87 C59.64,38.6214719 59.8414719,38.42 60.09,38.42 L64.09,37.98 C64.3373431,37.9564167 64.5587133,38.1335128 64.59,38.38 C64.6040239,38.4994902 64.5696158,38.6196203 64.4944586,38.7135669 C64.4193013,38.8075134 64.3096542,38.8674523 64.19,38.88 L60.19,39.32 L60.09,39.32 Z" id="Shape" fill="#603404" stroke-width="1"/>
            <path d="M63.46,36.4 C63.2114719,36.4138071 62.9988072,36.2235281 62.985,35.975 C62.9711929,35.7264719 63.1614719,35.5138071 63.41,35.5 L67.8,35 C67.9607695,34.9803504 68.1198096,35.0479629 68.2172114,35.1773686 C68.3146132,35.3067743 68.3355791,35.4783133 68.2722114,35.6273686 C68.2088437,35.7764239 68.0707695,35.8803504 67.91,35.9 L63.51,36.45 L63.46,36.4 Z" id="Shape" fill="#603404" stroke-width="1"/>
            <path d="M65.61,40.16 L65.61,40.16 C65.4888996,40.1600299 65.3728984,40.1112491 65.2882136,40.0246824 C65.2035288,39.9381157 65.1573089,39.8210705 65.16,39.7 L65.16,35.98 C65.16,35.7314719 65.3614719,35.53 65.61,35.53 L65.61,35.53 C65.7311004,35.5299701 65.8471016,35.5787509 65.9317864,35.6653176 C66.0164712,35.7518843 66.0626911,35.8689295 66.06,35.99 L66.06,39.71 C66.06,39.8293474 66.0125894,39.9438067 65.9281981,40.0281981 C65.8438067,40.1125894 65.7293474,40.16 65.61,40.16 L65.61,40.16 Z" id="Shape" fill="#603404" stroke-width="1"/>
            <path d="M69.32,38.06 C69.0753253,38.0600604 68.8754372,37.8646143 68.87,37.62 L68.79,34.54 C68.79,34.2914719 68.9914719,34.09 69.24,34.09 C69.4885281,34.09 69.69,34.2914719 69.69,34.54 L69.77,37.62 C69.7726818,37.7393558 69.7278246,37.8548855 69.6453024,37.9411588 C69.5627801,38.0274321 69.4493571,38.0773771 69.33,38.08 L69.32,38.06 Z" id="Shape" fill="#603404" stroke-width="1"/>
            <path d="M67.19,38.32 C66.9414719,38.32 66.7400001,38.1185281 66.7400001,37.87 C66.7400001,37.6214719 66.9414719,37.42 67.19,37.42 L71.31,37.19 C71.4317347,37.1788659 71.5526144,37.2188772 71.6436651,37.3004436 C71.7347159,37.3820099 71.7877299,37.4977782 71.79,37.62 C71.7981967,37.7410546 71.7571623,37.8602897 71.6762039,37.9506619 C71.5952455,38.041034 71.4812239,38.0948847 71.36,38.1 L67.24,38.33 L67.19,38.32 Z" id="Shape" fill="#603404" stroke-width="1"/>
            <path d="M75.11,35.54 L75.11,35.54 L70.91,35.48 C70.6614719,35.48 70.4600001,35.2785281 70.4600001,35.03 C70.4600001,34.7814719 70.6614719,34.58 70.91,34.58 L70.91,34.58 L75.11,34.64 C75.3585281,34.64 75.56,34.8414719 75.56,35.09 C75.56,35.3385281 75.3585281,35.54 75.11,35.54 Z" id="Shape" fill="#603404" stroke-width="1"/>
            <path d="M73,39.51 L73,39.51 C72.8788996,39.5100299 72.7628984,39.4612491 72.6782136,39.3746824 C72.5935288,39.2881157 72.5473089,39.1710705 72.55,39.05 L72.55,35.25 C72.55,35.0014719 72.7514719,34.8 73,34.8 L73,34.8 C73.1211004,34.7999701 73.2371016,34.8487509 73.3217864,34.9353176 C73.4064712,35.0218843 73.4526911,35.1389295 73.45,35.26 L73.45,39.06 C73.45,39.3085281 73.2485281,39.51 73,39.51 L73,39.51 Z" id="Shape" fill="#603404" stroke-width="1"/>
            <path d="M76.62,37.55 L76.62,37.55 C76.4988996,37.5500299 76.3828984,37.5012491 76.2982136,37.4146824 C76.2135288,37.3281157 76.1673089,37.2110705 76.17,37.09 L76.17,34.76 C76.17,34.6406526 76.2174106,34.5261933 76.3018019,34.4418019 C76.3861933,34.3574106 76.5006526,34.31 76.62,34.31 L76.62,34.31 C76.7411004,34.3099701 76.8571016,34.3587509 76.9417864,34.4453176 C77.0264712,34.5318843 77.0726911,34.6489295 77.07,34.77 L77.07,37.1 C77.07,37.3485281 76.8685281,37.55 76.62,37.55 L76.62,37.55 Z" id="Shape" fill="#603404" stroke-width="1"/>
            <path d="M78.81,37.91 L78.81,37.91 L74.41,37.85 C74.1614719,37.85 73.96,37.6485281 73.96,37.4 C73.96,37.1514719 74.1614719,36.95 74.41,36.95 L78.81,37.01 C79.0585281,37.01 79.26,37.2114719 79.26,37.46 C79.26,37.7085281 79.0585281,37.91 78.81,37.91 L78.81,37.91 Z" id="Shape" fill="#603404" stroke-width="1"/>
            <path d="M82.83,35.84 L82.83,35.84 L78.3,35.58 C78.1787761,35.5748847 78.0647545,35.521034 77.9837961,35.4306619 C77.9028377,35.3402897 77.8618033,35.2210546 77.87,35.1 C77.8691635,34.9767407 77.9212634,34.8590492 78.0130733,34.7768028 C78.1048833,34.6945563 78.2275744,34.6556644 78.35,34.67 L82.88,34.93 C83.1285281,34.93 83.33,35.1314719 83.33,35.38 C83.33,35.6285281 83.1285281,35.83 82.88,35.83 L82.83,35.84 Z" id="Shape" fill="#603404" stroke-width="1"/>
            <path d="M80.19,40 L80.19,40 C80.0688498,39.9974281 79.9538569,39.9461045 79.8710412,39.8576423 C79.7882255,39.7691801 79.744587,39.6510566 79.75,39.53 L79.89,35.34 C79.8954372,35.0953857 80.0953253,34.8999396 80.34,34.9 L80.34,34.9 C80.4611502,34.9025719 80.5761431,34.9538955 80.6589588,35.0423577 C80.7417745,35.1308199 80.785413,35.2489434 80.78,35.37 L80.64,39.56 C80.6345628,39.8046143 80.4346747,40.0000604 80.19,40 L80.19,40 Z" id="Shape" fill="#603404" stroke-width="1"/>
            <path d="M84.28,38.42 L84.28,38.42 C84.1606112,38.414812 84.0481889,38.3623491 83.9675238,38.2741803 C83.8868587,38.1860115 83.8445762,38.0693783 83.85,37.95 L83.95,35.4 C83.9837012,35.1754802 84.1730774,35.0071458 84.4,35 C84.5193888,35.005188 84.6318111,35.0576509 84.7124762,35.1458197 C84.7931413,35.2339885 84.8354238,35.3506217 84.83,35.47 L84.73,38 C84.7141826,38.2367415 84.5172687,38.4205278 84.28,38.42 L84.28,38.42 Z" id="Shape" fill="#603404" stroke-width="1"/>
            <path d="M86.25,39 L86.17,39 L81.87,38.24 C81.6242333,38.1958172 81.4608172,37.9607667 81.505,37.715 C81.5491828,37.4692333 81.7842333,37.3058172 82.03,37.35 L86.33,38.11 C86.5785281,38.1320914 86.7620913,38.3514719 86.74,38.6 C86.7179086,38.8485281 86.4985281,39.0320914 86.25,39.01 L86.25,39 Z" id="Shape" fill="#603404" stroke-width="1"/>
            <path d="M90.34,37.23 L90.24,37.23 L85.79,36.23 C85.5469947,36.1747715 85.3947715,35.9330053 85.45,35.69 C85.5052285,35.4469947 85.7469947,35.2947715 85.99,35.35 L90.44,36.35 C90.6661964,36.3984034 90.8188512,36.6104126 90.793023,36.8402835 C90.7671948,37.0701543 90.5712979,37.2430004 90.34,37.24 L90.34,37.23 Z" id="Shape" fill="#603404" stroke-width="1"/>
            <path d="M87.48,41.18 L87.42,41.18 C87.3001878,41.1651078 87.1913852,41.1026951 87.1180452,41.0067889 C87.0447052,40.9108828 87.0129801,40.7895285 87.03,40.67 L87.56,36.46 C87.5903757,36.2114719 87.8164719,36.0346244 88.065,36.065 C88.3135281,36.0953757 88.4903756,36.3214719 88.46,36.57 L87.93,40.78 C87.9044214,41.0088223 87.7102431,41.1814252 87.48,41.18 Z" id="Shape" fill="#603404" stroke-width="1"/>
            <path d="M91.34,39.86 L91.27,39.86 C91.0243183,39.823959 90.8542623,39.595726 90.89,39.35 L91.27,36.74 C91.3109502,36.4972838 91.5357114,36.3298147 91.78,36.36 C92.0256817,36.396041 92.1957377,36.624274 92.16,36.87 L91.78,39.48 C91.7458201,39.6971256 91.5597883,39.8577894 91.34,39.86 L91.34,39.86 Z" id="Shape" fill="#603404" stroke-width="1"/>
            <path d="M93.08,40.61 L92.96,40.61 L89.2,39.55 C89.0867215,39.5448982 88.980319,39.4942093 88.9049846,39.4094581 C88.8296502,39.3247069 88.7917857,39.2130954 88.8,39.1 C88.8211027,38.8467455 89.0359428,38.6538279 89.29,38.66 C89.35,38.66 89.29,38.66 93.21,39.74 C93.4423292,39.7870483 93.5983239,40.0062581 93.5666494,40.2411774 C93.5349749,40.4760968 93.3264934,40.6461638 93.09,40.63 L93.08,40.61 Z" id="Shape" fill="#603404" stroke-width="1"/>
            <path d="M93.35,43.87 C93.293848,43.8808009 93.236152,43.8808009 93.18,43.87 C78.24,38 61.48,41.78 55,43.69 C54.47,43.85 54.15,43.94 54,43.53 C54,43.41 53.9,43.11 54.33,42.92 C54.398813,42.9017692 54.471187,42.9017692 54.54,42.92 L54.74,42.86 C61.34,40.93 78.34,37.08 93.54,43.04 C93.7439926,43.1183458 93.8622162,43.3319182 93.8203095,43.5463823 C93.7784027,43.7608464 93.5884796,43.9142063 93.37,43.91 L93.35,43.87 Z" id="Shape" fill="#603404" stroke-width="1"/>
            <polygon id="Shape" fill="#6CA2CE" points="67.34 32.67 68.99 25.01 76.33 25.01 78.4 32.67" stroke-width="1"/>
            <path d="M78.4,32.9 L67.34,32.9 C67.2710391,32.9016753 67.2049674,32.8723101 67.16,32.82 C67.1312418,32.7599313 67.1312418,32.6900687 67.16,32.63 L68.77,25 C68.7930429,24.8964417 68.8839294,24.82208 68.99,24.82 L76.33,24.82 C76.4331602,24.8209143 76.5230916,24.8904068 76.55,24.99 L78.62,32.65 C78.6385858,32.7187675 78.6242587,32.7922657 78.5812054,32.8490179 C78.538152,32.90577 78.471232,32.9393702 78.4,32.94 L78.4,32.9 Z M67.62,32.45 L78.1,32.45 L76.15,25.24 L69.15,25.24 L67.62,32.45 Z" id="Shape" fill="#603404" stroke-width="1"/>
            <path d="M68.79,70.13 C70.28,70.69 73.79,71.59 79.1,70.25 C79.47,70.16 79.87,70.32 79.88,70.59 C79.97,73.59 80.12,88.07 74.62,94.19 C74.3432022,94.4645556 73.8967978,94.4645556 73.62,94.19 C72.06,91.99 67.01,83.77 67.94,70.51 C68,70.17 68.42,70 68.79,70.13 Z" id="Shape" fill="#161616" stroke-width="1"/>
            <path d="M83,68.23 C82.7468284,67.7977528 82.4062343,67.4230992 82,67.13 C81.89,67.05 81.64,66.91 81.52,66.82 C80.4269899,66.0691925 79.24451,65.4577967 78,65 C75.6685087,64.4514335 73.2385006,64.4788912 70.92,65.08 C70.0422329,65.318602 69.1936939,65.6539929 68.39,66.08 C67.6004059,66.4662138 66.8938458,67.0029277 66.31,67.66 L66.31,67.66 C65.8452876,68.1777241 65.5549539,68.8283514 65.48,69.52 C65.1703945,72.6467153 65.2375423,75.7993031 65.68,78.91 C65.68,78.91 66.4,84.11 63.86,87.16 C63.86,87.16 66.4,86.84 67.6,79.73 L67.45,70.29 C67.4383784,69.5049084 67.8616284,68.7776881 68.55,68.4 L68.55,68.4 C69.07,68.12 69.55,67.92 70,67.72 C70.6722852,67.3309809 71.4180281,67.0858052 72.19,67 L77.13,67 C77.389311,67.0107689 77.6440471,67.0719056 77.88,67.18 C78.7,67.5 79.78,68.04 79.78,68.04 L79.78,68.04 C80.6016784,68.4585882 81.1414851,69.2797025 81.2,70.2 C81.25,74.11 81.35,82.67 79.11,86.6 C79.11,86.6 84.88,81.52 83.11,68.51 L83,68.23 Z" id="Shape" fill="#161616" stroke-width="1"/>
            <path d="M54.92,5.76 L60.16,33.69" id="Shape" fill="#584642" stroke-width="1"/>
            <path d="M60.16,34.14 C59.9433992,34.1386362 59.7585033,33.9831555 59.72,33.77 L54.47,5.85 C54.4466068,5.73188769 54.4715234,5.60932694 54.5391778,5.50972456 C54.6068323,5.41012219 54.7115809,5.341787 54.83,5.32 C55.0749325,5.27701435 55.3096834,5.43646783 55.36,5.68 L60.6,33.61 C60.6233932,33.7281123 60.5984766,33.8506731 60.5308222,33.9502754 C60.4631677,34.0498778 60.3584191,34.118213 60.24,34.14 L60.16,34.14 Z" id="Shape" fill="#603404" stroke-width="1"/>
            <path d="M60.06,3.25 L64.71,33.02" id="Shape" fill="#584642" stroke-width="1"/>
            <path d="M64.71,33.48 C64.4864252,33.4827191 64.2947643,33.3208722 64.26,33.1 L59.61,3.32 C59.5713401,3.07423329 59.7392333,2.84365993 59.985,2.805 C60.2307667,2.76634007 60.4613401,2.93423329 60.5,3.18 L65.16,33 C65.1800828,33.1195604 65.1510739,33.2421663 65.0795431,33.3400507 C65.0080122,33.4379351 64.9000114,33.5028161 64.78,33.52 L64.71,33.48 Z" id="Shape" fill="#603404" stroke-width="1"/>
            <path d="M65.93,2.01 L68.28,27.29" id="Shape" fill="#584642" stroke-width="1"/>
            <path d="M68.28,27.74 C68.0462902,27.740925 67.8507725,27.5627867 67.83,27.33 L65.48,2 C65.4657094,1.83923048 65.5382738,1.68304937 65.670359,1.59028857 C65.8024442,1.49752777 65.9739832,1.48227985 66.120359,1.55028857 C66.2667348,1.61829728 66.3657094,1.75923048 66.38,1.92 L68.73,27.2 C68.7410935,27.3194496 68.7040331,27.4383841 68.6270498,27.5303886 C68.5500664,27.6223931 68.4395335,27.6798506 68.32,27.69 L68.28,27.74 Z" id="Shape" fill="#603404" stroke-width="1"/>
            <path d="M72.5,25.2 C72.3806526,25.2 72.2661933,25.1525894 72.1818019,25.0681981 C72.0974106,24.9838067 72.05,24.8693474 72.05,24.75 L72.05,1.41 C72.05,1.16147186 72.2514719,0.96 72.5,0.96 C72.7485281,0.96 72.95,1.16147186 72.95,1.41 L72.95,24.75 C72.95,24.8693474 72.9025894,24.9838067 72.8181981,25.0681981 C72.7338067,25.1525894 72.6193474,25.2 72.5,25.2 L72.5,25.2 Z" id="Shape" fill="#603404" stroke-width="1"/>
            <path d="M80.12,2.01 L77.29,27.8" id="Shape" fill="#584642" stroke-width="1"/>
            <path d="M77.29,28.25 L77.24,28.25 C77.1203458,28.2374523 77.0106987,28.1775134 76.9355414,28.0835669 C76.8603842,27.9896203 76.8259761,27.8694902 76.84,27.75 L79.67,2 C79.6878633,1.83923048 79.7901391,1.70020325 79.9383013,1.63528854 C80.0864634,1.57037383 80.2580024,1.58943372 80.3883013,1.68528854 C80.5186001,1.78114336 80.5878633,1.93923048 80.57,2.1 L77.74,27.85 C77.7144214,28.0788223 77.5202431,28.2514252 77.29,28.25 L77.29,28.25 Z" id="Shape" fill="#603404" stroke-width="1"/>
            <path d="M85.49,3.29 C85.49,3.29 81.09,32.63 81,32.67" id="Shape" fill="#584642" stroke-width="1"/>
            <path d="M81,33.12 C80.8577681,33.119743 80.7240303,33.0522589 80.6393227,32.9380022 C80.5546151,32.8237454 80.5289105,32.6761677 80.57,32.54 C80.74,31.71 83.57,13.04 85.03,3.23 C85.0480465,3.06645047 85.1539179,2.9257904 85.3060874,2.86319204 C85.458257,2.80059368 85.6324596,2.82603901 85.7603663,2.92954739 C85.8882731,3.03305577 85.9494879,3.19812169 85.92,3.36 C81.48,32.91 81.48,32.91 81.22,33.06 C81.1532135,33.0989856 81.0773318,33.1196806 81,33.12 L81,33.12 Z" id="Shape" fill="#603404" stroke-width="1"/>
            <path d="M57.94,34.6 C57.6914719,34.6 57.49,34.3985281 57.49,34.15 C57.49,34.08 57.43,26.72 54.57,24.46 C54.0730627,24.0410706 53.3888749,23.9225799 52.78,24.15 C52.0933292,24.4349705 51.6097328,25.0632651 51.51,25.8 C51.4020849,26.5634473 51.4394063,27.3404112 51.62,28.09 C51.62,28.09 52.1,30.44 53.5,30.22 C53.9707924,30.1490823 54.3594086,29.8148723 54.5,29.36 C54.7426281,28.7021398 54.6841305,27.9709195 54.34,27.36 C54.3139399,27.3087033 54.2762757,27.2641911 54.23,27.23 C54.0412845,27.0796981 53.7986305,27.0145075 53.56,27.05 C53.26,27.13 53.04,27.48 52.9,27.76 C52.8303332,27.9064789 52.6878129,28.0046642 52.526125,28.0175704 C52.3644372,28.0304767 52.2081461,27.9561431 52.116125,27.8225704 C52.024104,27.6889978 52.0103332,27.5164789 52.08,27.37 C52.2906414,26.8030933 52.7464935,26.3619461 53.32,26.17 C53.8158868,26.0584443 54.3357218,26.1719294 54.74,26.48 C54.903569,26.5972543 55.0371845,26.751426 55.13,26.93 C55.5860496,27.7612231 55.66255,28.7484426 55.34,29.64 C55.0974185,30.4066563 54.4437619,30.9713538 53.65,31.1 C51.83,31.38 50.95,29.36 50.74,28.25 C50.5373481,27.3881775 50.5000215,26.4957348 50.63,25.62 C50.7890943,24.5730102 51.4884092,23.6874647 52.47,23.29 C53.3749889,22.9521402 54.3912757,23.1196182 55.14,23.73 C58.33,26.26 58.4,33.8 58.4,34.12 C58.4,34.3685281 58.1985281,34.57 57.95,34.57 L57.94,34.6 Z" id="Shape" fill="#603404" stroke-width="1"/>
            <path d="M91.39,5 L86.35,33.69" id="Shape" fill="#584642" stroke-width="1"/>
            <path d="M86.35,34.14 L86.27,34.14 C86.1518196,34.1204269 86.0463208,34.0545414 85.9768717,33.9569374 C85.9074227,33.8593334 85.8797561,33.7380673 85.9,33.62 L90.9,4.93 C90.9441828,4.68423329 91.1792333,4.52081722 91.425,4.565 C91.6707667,4.60918278 91.8341828,4.84423329 91.79,5.09 L86.79,33.78 C86.7473013,33.9891822 86.5634951,34.1395691 86.35,34.14 L86.35,34.14 Z" id="Shape" fill="#603404" stroke-width="1"/>
            <path d="M88.93,34.45 L88.93,34.45 C88.8106112,34.444812 88.6981889,34.3923491 88.6175238,34.3041803 C88.5368587,34.2160115 88.4945762,34.0993783 88.5,33.98 C88.5,33.65 88.86,25.74 92.18,23.23 C92.4896177,22.9958811 92.8623484,22.860026 93.25,22.84 C94.1421351,22.7682687 95.0264375,23.052252 95.71,23.63 C96.4306998,24.3646252 96.8207192,25.3613413 96.79,26.39 C96.8157416,26.6660679 96.8157416,26.9439321 96.79,27.22 C96.6367029,28.7116189 95.7259834,30.019125 94.38,30.68 C93.8569295,30.9121631 93.2541351,30.8786745 92.76,30.59 C92.1976454,30.2489794 91.8275317,29.6641997 91.76,29.01 C91.707932,28.4818519 91.7382946,27.9488193 91.85,27.43 C91.9,27.25 92.29,26 93.28,25.84 C94,25.72 94.71,26.2 95.47,27.3 C95.5716537,27.4318631 95.5921914,27.6090785 95.5233904,27.7606957 C95.4545895,27.912313 95.3076951,28.013551 95.1415184,28.0238778 C94.9753416,28.0342047 94.8170432,27.9519325 94.73,27.81 C94,26.76 93.57,26.7 93.43,26.72 C93.09,26.77 92.81,27.37 92.74,27.63 C92.6503011,28.0436121 92.6233327,28.4683646 92.66,28.89 C92.6976086,29.2630435 92.9088275,29.596547 93.23,29.79 C93.4835337,29.923355 93.7864663,29.923355 94.04,29.79 C95.098795,29.2485418 95.8077899,28.2039057 95.92,27.02 C95.9410034,26.7971605 95.9410034,26.5728395 95.92,26.35 C95.9549395,25.5673082 95.6738821,24.8034084 95.14,24.23 C94.6330706,23.8211767 93.9893882,23.62092 93.34,23.67 C93.1328212,23.6792024 92.9336283,23.7525893 92.77,23.88 C89.77,26.13 89.45,33.88 89.45,33.94 C89.4712266,34.0825472 89.4228936,34.2266373 89.3200016,34.3275506 C89.2171095,34.428464 89.0721082,34.4739903 88.93,34.45 Z" id="Shape" fill="#603404" stroke-width="1"/>
            <path d="M15.55,83.39 C15.55,83.39 3.17,84.88 0.55,74.22 C0.26382452,73.1013486 0.326633777,71.9219303 0.73,70.84 C1.51776703,70.7845563 2.29809803,71.0232877 2.92,71.51 C2.92,71.51 -0.3,65.05 2.34,60.58 C3.38525052,60.7001423 4.37947916,61.0971433 5.22,61.73 C5.22,61.73 4.5,57.1 6.83,54.19 C7.98748665,54.5634695 9.00068166,55.2866811 9.73,56.26 C9.73,56.26 9.94,51.43 12.29,50.63 C12.29,50.63 15.18,50.03 17.59,53.7 C17.6786653,52.6366127 18.1265475,51.6350494 18.86,50.86 C21.3578448,51.377987 23.3481152,53.2637101 24,55.73 C24.2215219,55.290295 24.6288721,54.9733782 25.1095473,54.8667768 C25.5902225,54.7601755 26.0933594,54.8751697 26.48,55.18 C26.9834692,55.5351178 27.3781914,56.0233269 27.62,56.59 C28.27,58.04 29.79,61.59 29.77,63.25 C29.77,63.25 32.16,62.02 32.57,65.94 C32.57,65.94 33.34,73.94 28.75,78.39 L15.55,83.39 Z" id="Shape" fill="#FFFFFF" stroke-width="1"/>
            <path d="M14.1,83.68 C10.7,83.68 2.42,82.78 0.36,74.27 C0.0568572052,73.0979191 0.126769145,71.8604778 0.56,70.73 C0.596269794,70.662518 0.663759,70.6175252 0.74,70.61 C1.31469592,70.5788742 1.88899677,70.6780095 2.42,70.9 C1.67,69.08 -8.8817842e-16,64.16 2.18,60.46 C2.21476005,60.3829124 2.29628288,60.3380748 2.38,60.35 C3.30970059,60.442618 4.20247128,60.7619552 4.98,61.28 C4.85,60 4.74,56.47 6.69,54 C6.76523741,53.9480516 6.86476259,53.9480516 6.94,54 C7.94259937,54.3363318 8.8532495,54.9012088 9.6,55.65 C9.75,54.28 10.3,51.11 12.26,50.44 C12.41,50.44 15.1,49.9 17.5,53.13 C17.6549481,52.2108648 18.0958663,51.364022 18.76,50.71 C18.8102247,50.6686193 18.8756284,50.6504517 18.94,50.66 C21.3623572,51.1752489 23.3321653,52.9321047 24.12,55.28 C24.4147953,54.9086768 24.8455476,54.6703047 25.3167401,54.6177414 C25.7879325,54.5651781 26.2606248,54.7027675 26.63,55 C27.1734842,55.3780352 27.5997077,55.9012852 27.86,56.51 C28.48,57.89 29.86,61.16 30.01,62.95 C30.4870715,62.7987905 31.0045366,62.8419126 31.45,63.07 C32.2,63.48 32.67,64.44 32.82,65.94 C32.82,66.02 33.55,74.11 28.93,78.58 L28.85,78.58 L15.62,83.58 L15.57,83.58 C15.0820708,83.6388572 14.5914049,83.6722358 14.1,83.68 L14.1,83.68 Z M0.91,71.06 C0.587299888,72.0670573 0.552662117,73.144292 0.81,74.17 C1.70180775,78.3458496 4.92968868,81.6283083 9.09,82.59 C11.1761018,83.157913 13.345281,83.3575722 15.5,83.18 L28.66,78.18 C33.09,73.86 32.39,66.02 32.38,65.95 C32.24,64.63 31.85,63.76 31.24,63.43 C30.8185639,63.2329437 30.3314361,63.2329437 29.91,63.43 C29.8419318,63.4692992 29.7580682,63.4692992 29.69,63.43 C29.620506,63.3875141 29.578666,63.3114413 29.58,63.23 C29.58,61.63 28.1,58.1 27.45,56.66 C27.2269001,56.1296263 26.8596942,55.672351 26.39,55.34 C26.0517698,55.0720536 25.6145308,54.9627439 25.19,55.04 C24.7714089,55.1554579 24.4133195,55.4276058 24.19,55.8 C24.1815206,55.9030259 24.102456,55.9862519 24,56 C23.909736,55.9909411 23.8342877,55.9274058 23.81,55.84 C23.2324536,53.4733036 21.372602,51.6327852 19,51.08 C18.3606167,51.8129586 17.9717615,52.730797 17.89,53.7 C17.8806727,53.7956318 17.81288,53.875388 17.72,53.9 C17.6260135,53.9260377 17.5258239,53.8899694 17.47,53.81 C15.18,50.33 12.47,50.81 12.4,50.81 C10.26,51.55 10.02,56.19 10.02,56.23 C10.0147531,56.3294144 9.94614292,56.4141681 9.85,56.44 C9.7512394,56.4657647 9.64772759,56.4202195 9.6,56.33 C8.94122537,55.4374031 8.02262344,54.7702815 6.97,54.42 C4.84,57.23 5.49,61.61 5.5,61.66 C5.5094028,61.7474126 5.46815229,61.8325383 5.39371867,61.8793252 C5.31928505,61.926112 5.22469158,61.9263739 5.15,61.88 C4.36872366,61.3175083 3.46910029,60.9412399 2.52,60.78 C0.1,65.1 3.14,71.31 3.18,71.37 C3.22574476,71.4685435 3.19629657,71.5856564 3.10938182,71.6508424 C3.02246708,71.7160285 2.90179318,71.7115071 2.82,71.64 C2.27123456,71.2282991 1.59503225,71.0229602 0.91,71.06 Z" id="Shape" fill="#603404" stroke-width="1"/>
            <path d="M2.69,71 C2.69,71 6.77,79.11 15.1,80.44" id="Shape" fill="#FFFFFF" stroke-width="1"/>
            <path d="M15.1,80.62 L15.1,80.62 C6.72,79.28 2.53,71.14 2.49,71.06 C2.466048,70.9564525 2.51616292,70.8499787 2.61122406,70.8024481 C2.7062852,70.7549176 2.82153323,70.7787099 2.89,70.86 C2.89,70.94 7.02,78.86 15.13,80.18 C15.2362816,80.2025303 15.312303,80.2963566 15.312303,80.405 C15.312303,80.5136434 15.2362816,80.6074697 15.13,80.63 L15.1,80.62 Z" id="Shape" fill="#603404" stroke-width="1"/>
            <path d="M5.24,61.66 C5.24,61.66 6.44,70.5 15.87,77.88" id="Shape" fill="#FFFFFF" stroke-width="1"/>
            <path d="M15.87,78.11 C15.8244671,78.124548 15.7755329,78.124548 15.73,78.11 C11.9389719,75.1896931 8.88415144,71.4225378 6.81,67.11 C5.95526995,65.4007517 5.34593312,63.5794742 5,61.7 C4.98774761,61.5796717 5.07078449,61.4704127 5.19,61.45 C5.31032828,61.4377476 5.41958733,61.5207845 5.44,61.64 C5.44,61.73 6.74,70.48 15.99,77.71 C16.058525,77.7720801 16.0832117,77.8691601 16.0526662,77.9564332 C16.0221206,78.0437062 15.9422822,78.1042024 15.85,78.11 L15.87,78.11 Z" id="Shape" fill="#603404" stroke-width="1"/>
            <path d="M9.74,56.13 C9.74,56.13 11.48,67.41 18.01,75.13" id="Shape" fill="#FFFFFF" stroke-width="1"/>
            <path d="M18,75.4 C17.9345287,75.3987495 17.8726945,75.3696511 17.83,75.32 C11.34,67.59 9.53,56.32 9.51,56.17 C9.49197801,56.0460572 9.57643934,55.9304785 9.7,55.91 C9.82394279,55.891978 9.93952145,55.9764393 9.96,56.1 C9.96,56.21 11.77,67.4 18.18,75.03 C18.2321289,75.0976968 18.2424349,75.1887117 18.206763,75.2663506 C18.1710911,75.3439895 18.0953208,75.3954557 18.01,75.4 L18,75.4 Z" id="Shape" fill="#603404" stroke-width="1"/>
            <path d="M17.62,53.7 C17.62,53.7 22,63.47 21.49,74" id="Shape" fill="#FFFFFF" stroke-width="1"/>
            <path d="M21.49,74.27 L21.49,74.27 C21.3668984,74.2593934 21.2741718,74.1534201 21.28,74.03 C21.81,63.63 17.48,53.89 17.44,53.79 C17.3860597,53.7147732 17.3824734,53.6145407 17.4308995,53.5356513 C17.4793256,53.4567619 17.5703258,53.4145911 17.6618205,53.4286392 C17.7533151,53.4426873 17.827472,53.5102163 17.85,53.6 C17.85,53.7 22.27,63.54 21.73,74.05 C21.7274047,74.11102 21.7006462,74.1685021 21.6556244,74.2097721 C21.6106026,74.251042 21.5510149,74.2727106 21.49,74.27 Z" id="Shape" fill="#603404" stroke-width="1"/>
            <path d="M24,55.73 C24,55.73 27.16,65.46 24.47,74.22" id="Shape" fill="#FFFFFF" stroke-width="1"/>
            <path d="M24.5,74.45 L24.43,74.45 C24.3132295,74.4117237 24.2471729,74.2884179 24.28,74.17 C26.91,65.58 23.84,55.92 23.81,55.82 C23.7955801,55.7101651 23.8615032,55.6056556 23.9668383,55.5713605 C24.0721734,55.5370653 24.1869901,55.5827293 24.24,55.68 C24.24,55.78 27.39,65.58 24.72,74.3 C24.6860069,74.3916813 24.5977628,74.4518477 24.5,74.45 Z" id="Shape" fill="#603404" stroke-width="1"/>
            <path d="M29.8,63.27 C29.8,63.27 30.88,71.96 27.55,76.27" id="Shape" fill="#FFFFFF" stroke-width="1"/>
            <path d="M27.55,76.49 C27.4664042,76.486508 27.3912987,76.4378951 27.3538809,76.3630595 C27.3164632,76.288224 27.3226361,76.1989718 27.37,76.13 C30.6,71.95 29.59,63.39 29.58,63.3 C29.5682083,63.1763285 29.6567564,63.0656434 29.78,63.05 C29.9036715,63.0382083 30.0143566,63.1267564 30.03,63.25 C30.03,63.61 31.08,72.08 27.73,76.41 C27.6850326,76.4623101 27.6189609,76.4916753 27.55,76.49 Z" id="Shape" fill="#603404" stroke-width="1"/>
            <rect id="Rectangle-path" fill="#FFE9A4" transform="matrix(0.9386134973903187,-0.34497058210333537,0.34497058210333537,0.9386134973903187,-30.35519072828316,14.528988641756584)" x="22.8613105" y="84.6022495" width="5.57" height="15.91" rx="1.11" stroke-width="1"/>
            <path d="M27.44,100.42 C26.1680738,100.420667 25.0339753,99.6191837 24.61,98.42 L21,88.74 C20.5725545,87.5896954 20.8887836,86.2950376 21.7983979,85.4713191 C22.7080122,84.6476005 24.0275918,84.4609207 25.13,85 C25.8538642,85.3337209 26.4151619,85.9417934 26.69,86.69 L30.25,96.39 C30.5300282,97.140326 30.498418,97.9714707 30.1622083,98.6983599 C29.8259985,99.4252491 29.2131039,99.9875309 28.46,100.26 L28.46,100.26 C28.1318014,100.371879 27.7866916,100.426014 27.44,100.42 L27.44,100.42 Z M23.87,85.14 C23.0346361,85.1413038 22.2524509,85.5501067 21.7744705,86.235212 C21.2964901,86.9203173 21.1828423,87.7955416 21.47,88.58 L25.03,98.28 C25.5219758,99.605284 26.9919331,100.284413 28.32,99.8 L28.32,99.8 C28.9582936,99.565873 29.4772387,99.0874579 29.7623851,98.470266 C30.0475314,97.8530742 30.0754559,97.1478046 29.84,96.51 L26.28,86.81 C25.9041625,85.8047331 24.943226,85.1388559 23.87,85.14 L23.87,85.14 Z" id="Shape" fill="#603404" stroke-width="1"/>
            <path d="M20.19,85.2 C20.19,85.2 19.84,87.84 23.68,86.86 C23.68,86.86 26.68,86.41 25.41,83.79 L20.19,85.2 Z" id="Shape" fill="#FFE9A4" stroke-width="1"/>
            <path d="M22.16,87.31 C21.5786779,87.3453753 21.0049295,87.1636289 20.55,86.8 C20.1304222,86.3672979 19.9283574,85.7684513 20,85.17 C20.0131687,85.0781806 20.0802044,85.0032584 20.17,84.98 L25.38,83.57 C25.484401,83.5404032 25.5947891,83.5913516 25.64,83.69 C26.034957,84.3335039 26.0873309,85.1303363 25.78,85.82 C25.3158028,86.4997929 24.5926696,86.9589825 23.78,87.09 C23.2518025,87.2331627 22.7072475,87.3071147 22.16,87.31 L22.16,87.31 Z M20.41,85.38 C20.4028879,85.7869901 20.566005,86.1784712 20.86,86.46 C21.37,86.91 22.33,86.97 23.63,86.64 C24.3168494,86.5504192 24.9395607,86.1904705 25.36,85.64 C25.5779553,85.1403711 25.552104,84.5679488 25.29,84.09 L20.41,85.38 Z" id="Shape" fill="#603404" stroke-width="1"/>
            <path d="M16.9,80.32 C16.4362537,78.7709375 16.8984395,77.0930868 18.09,76 C18.8726717,75.3165077 19.8467934,74.8905477 20.88,74.78 C22.52,74.57 25.04,74.78 25.98,77.83 C26.0235256,77.972457 26.1271569,78.0887647 26.2636699,78.1483689 C26.4001829,78.2079732 26.5559314,78.2049158 26.69,78.14 C27.43,77.76 28.69,77.36 28.69,78.88 C28.705001,79.479803 28.552641,80.0719294 28.25,80.59 C27.2218925,82.5440441 25.5253106,84.0631593 23.47,84.87 C21.4632325,85.6687793 19.2267675,85.6687793 17.22,84.87 C16.4366623,84.4439193 15.8541277,83.7247408 15.6,82.87 C15.4443431,82.2709785 15.6752039,81.6381016 16.18,81.28 C16.2640671,81.2226864 16.3547169,81.1756827 16.45,81.14 C16.7874048,81.0217027 16.98143,80.6681456 16.9,80.32 L16.9,80.32 Z" id="Shape" fill="#FFDC4E" stroke-width="1"/>
            <path d="M20.22,85.7 C19.1847015,85.7033966 18.1610482,85.4816051 17.22,85.05 C16.3767363,84.6289449 15.7335413,83.8923249 15.43,83 C15.2498849,82.3099683 15.5169178,81.5806097 16.1,81.17 C16.199704,81.1037497 16.3071774,81.050013 16.42,81.01 C16.6405925,80.9099593 16.7520867,80.6612417 16.68,80.43 L16.68,80.43 C16.1819176,78.7880897 16.6721622,77.0060894 17.94,75.85 C18.7560262,75.1370265 19.7723395,74.6934809 20.85,74.58 C22.41,74.38 25.19,74.58 26.19,77.79 C26.2142955,77.8761818 26.2770397,77.9463077 26.36,77.98 C26.4328332,78.0142871 26.5171668,78.0142871 26.59,77.98 C27.1280326,77.6159216 27.8062812,77.526971 28.42,77.74 C28.7891321,77.9876364 29.0075072,78.4055611 29,78.85 C29.016673,79.4918507 28.8539018,80.1256194 28.53,80.68 C26.9117481,83.7493428 23.7298065,85.6731285 20.26,85.68 L20.22,85.7 Z M17.12,80.26 C17.251471,80.7191772 17.0137367,81.2032909 16.57,81.38 C16.4924195,81.4074738 16.4185273,81.4444199 16.35,81.49 C15.9248159,81.7963859 15.733676,82.3339668 15.87,82.84 C16.1223638,83.6122822 16.6633677,84.2571875 17.38,84.64 C19.324094,85.405127 21.485906,85.405127 23.43,84.64 C25.4417375,83.8533746 27.1006405,82.3649798 28.1,80.45 C28.381874,79.9684427 28.5238596,79.4178157 28.51,78.86 C28.51,78.45 28.38,78.18 28.18,78.07 C27.98,77.96 27.41,78 26.79,78.32 C26.5967121,78.4103896 26.3732879,78.4103896 26.18,78.32 C25.9769406,78.233771 25.8229426,78.0614399 25.76,77.85 C24.9,75.06 22.65,74.74 20.91,74.96 C19.9250559,75.0635992 18.9961005,75.4687076 18.25,76.12 C17.1097758,77.1644644 16.6736783,78.772574 17.13,80.25 L17.12,80.26 Z" id="Shape" fill="#603404" stroke-width="1"/>
            <circle id="Oval" fill="#FFE9A4" transform="matrix(0.2932061266221304,-0.9560492494172291,0.9560492494172291,0.2932061266221304,-61.485747805995544,77.52041432065015)" cx="21.6863678" cy="80.3447518" r="1.5" stroke-width="1"/>
            <path d="M21.68,82.08 C20.9335356,82.0770324 20.2731547,81.5956082 20.0419508,80.8858458 C19.8107469,80.1760834 20.0608664,79.3980652 20.6623627,78.9560017 C21.263859,78.5139382 22.0810683,78.5075339 22.6894189,78.9401163 C23.2977695,79.3726986 23.5600518,80.1467012 23.34,80.86 L23.34,80.86 C23.1155031,81.5877076 22.4415432,82.0830275 21.68,82.08 L21.68,82.08 Z M21.68,79.08 C21.0207811,79.0772427 20.4672774,79.575618 20.4011102,80.2315136 C20.334943,80.8874092 20.7777544,81.4862934 21.4242415,81.6152567 C22.0707286,81.74422 22.7094371,81.3610808 22.9,80.73 L22.9,80.73 C23.0168075,80.3431724 22.9440982,79.9239024 22.7038621,79.5989929 C22.463626,79.2740834 22.0840751,79.0816901 21.68,79.08 L21.68,79.08 Z" id="Shape" fill="#603404" stroke-width="1"/>
            <path d="M23.27,92.94 C26.63,90.12 27.76,91.26 27.76,91.26 C29.41,93.47 24.31,95.92 24.31,95.92 C25.3898548,95.009229 26.5790214,94.2366066 27.85,93.62 C28.1404143,93.5132961 28.4638651,93.5470292 28.7260128,93.7113606 C28.9881604,93.875692 29.1594788,94.1521126 29.19,94.46 C29.28,97.35 25.58,98.33 25.58,98.33 C29.58,95.59 29.46,96.94 29.46,96.94 C30.53,99.94 26.92,100.75 25.46,100.94 C25.1159021,100.994859 24.7633708,100.931403 24.46,100.76 C18.07,97.12 19.46,91.61 19.46,91.61 C20.84,89.27 23.7,88.09 25.07,87.46 C25.2634731,87.3591041 25.4903632,87.3438615 25.6955933,87.4179724 C25.9008234,87.4920833 26.0656276,87.648771 26.15,87.85 C26.5,88.75 26.81,90.25 23.27,92.94 Z" id="Shape" fill="#F7D5C4" stroke-width="1"/>
            <path d="M25.28,101.18 C24.9791339,101.182254 24.6828245,101.106454 24.42,100.96 C21.9768458,99.7211969 20.1636847,97.5163931 19.42,94.88 C19.127981,93.7971253 19.0835487,92.6623932 19.29,91.56 L19.29,91.5 C20.62,89.24 23.29,88.03 24.72,87.38 L25,87.25 C25.274305,87.1309424 25.585695,87.1309424 25.86,87.25 C26.106546,87.3500596 26.2991372,87.5499184 26.39,87.8 C26.7,88.65 26.79,89.7 25.55,91.18 C27.17,90.45 27.83,91.03 27.92,91.12 C28.2679052,91.544109 28.3940573,92.1080836 28.26,92.64 C28.1928964,92.8988243 28.084868,93.1452642 27.94,93.37 C28.2872738,93.2744652 28.6591952,93.344202 28.94827,93.5590549 C29.2373448,93.7739078 29.4113522,94.1099289 29.42,94.47 C29.4447486,95.1598088 29.2485508,95.8394941 28.86,96.41 C29.0504254,96.3764972 29.2465724,96.4045182 29.42,96.49 C29.5772679,96.5780919 29.6789801,96.740078 29.69,96.92 C30.0043606,97.6699996 29.9526361,98.5234548 29.55,99.23 C28.74,100.57 26.69,101.04 25.55,101.23 L25.28,101.18 Z M19.7,91.7 C19.5247854,92.7281371 19.5725296,93.7819198 19.84,94.79 C20.564902,97.3043188 22.3092106,99.4003903 24.65,100.57 C24.9023067,100.710856 25.1943515,100.763635 25.48,100.72 C26.34,100.6 28.41,100.19 29.16,98.97 C29.5075591,98.3559281 29.5409995,97.612807 29.25,96.97 C29.2434959,96.9403525 29.2434959,96.9096475 29.25,96.88 C29.257784,96.8607574 29.257784,96.8392426 29.25,96.82 C29.2,96.82 28.99,96.73 28.43,96.95 C27.6561451,97.6733111 26.7250877,98.2072999 25.71,98.51 C25.6084233,98.5273715 25.5076897,98.4750585 25.4634747,98.3819745 C25.4192598,98.2888905 25.4423568,98.1777579 25.52,98.11 C26.3504567,97.5051872 27.2419889,96.989037 28.18,96.57 C28.7419576,96.0056305 29.0490038,95.2362086 29.03,94.44 C29.0266926,94.2002247 28.9025763,93.9783198 28.7,93.85 C28.4899091,93.7167162 28.2269018,93.69793 28,93.8 C27.8,93.88 27.59,93.99 27.35,94.12 C26.4931017,94.9240808 25.5227455,95.5979392 24.47,96.12 C24.36836,96.1569487 24.2547079,96.1180957 24.1969579,96.0266582 C24.1392078,95.9352206 24.1529614,95.8159009 24.23,95.74 C25.1283112,95.0025562 26.081019,94.3339893 27.08,93.74 C27.4516708,93.3966906 27.7274068,92.9624063 27.88,92.48 C27.9824575,92.0897387 27.8933732,91.6740118 27.64,91.36 L27.64,91.36 C27.64,91.36 26.72,90.62 24.16,92.54 L23.48,93.08 C23.383466,93.126385 23.2676918,93.1000013 23.200787,93.0163704 C23.1338823,92.9327395 23.133556,92.8139974 23.2,92.73 C23.44,92.53 23.66,92.35 23.88,92.19 C26.73,89.81 26.27,88.54 26.03,87.9 C25.9802148,87.7714313 25.8785687,87.6697852 25.75,87.62 C25.5909897,87.5485561 25.4090103,87.5485561 25.25,87.62 L24.97,87.75 C23.52,88.42 21,89.59 19.7,91.7 Z" id="Shape" fill="#603404" stroke-width="1"/>
            <path d="M26.89,100.93 C26.4466681,101.053006 25.995683,101.146544 25.54,101.21 C25.1472538,101.266865 24.7467038,101.193079 24.4,101 C17.91,97.3 19.21,91.61 19.23,91.55 L19.23,91.48 C20.56,89.21 23.23,88 24.68,87.35 L24.96,87.22 C25.2441758,87.0982521 25.5658242,87.0982521 25.85,87.22 C26.1039742,87.326198 26.3029373,87.5323962 26.4,87.79 C26.8235544,88.9366489 26.5337409,90.225144 25.66,91.08 C27.2,90.44 27.83,91 27.93,91.08 C28.2882485,91.5146841 28.4182078,92.0939314 28.28,92.64 C28.2195348,92.8725396 28.1251916,93.09492 28,93.3 C28.3483605,93.2354772 28.7074984,93.326871 28.9826408,93.5500635 C29.2577832,93.773256 29.4212851,94.1058217 29.43,94.46 C29.4544468,95.1270108 29.2766701,95.7858303 28.92,96.35 C29.0885927,96.3321743 29.2587458,96.3634269 29.41,96.44 C29.5742519,96.5337482 29.6824813,96.7016904 29.7,96.89 C30.0150305,97.6511479 29.9596358,98.5153051 29.55,99.23 C28.8989665,100.100639 27.9535615,100.704846 26.89,100.93 Z M19.73,91.72 C19.62,92.24 18.73,97.16 24.66,100.54 C24.9041546,100.672973 25.1851979,100.722156 25.46,100.68 C26.31,100.56 28.37,100.15 29.11,98.95 C29.4471714,98.3509467 29.4805583,97.627564 29.2,97 C29.1921548,96.963753 29.1921548,96.926247 29.2,96.89 C29.14,96.89 28.95,96.79 28.43,96.98 C27.6450717,97.7167308 26.6953177,98.2550391 25.66,98.55 C25.5357154,98.5776209 25.4090241,98.5146665 25.355977,98.3989272 C25.3029298,98.2831879 25.3379435,98.1461187 25.44,98.07 C26.2673383,97.4658514 27.1554849,96.9497209 28.09,96.53 C28.6456495,95.9744921 28.949258,95.2154709 28.93,94.43 C28.9249345,94.2064191 28.8086492,94.0001065 28.62,93.88 C28.4138057,93.7697773 28.1661943,93.7697773 27.96,93.88 C27.7416432,93.9726238 27.5280442,94.0760857 27.32,94.19 C26.4593163,94.9939874 25.4856809,95.6677835 24.43,96.19 C24.3079832,96.2510337 24.1595436,96.207375 24.09,96.09 C24.0196746,95.9747421 24.0453011,95.8252538 24.15,95.74 C25.051072,95.0015548 26.007181,94.332947 27.01,93.74 C27.3732429,93.4013928 27.6420613,92.9740405 27.79,92.5 C27.8855556,92.1223069 27.7965263,91.7216749 27.55,91.42 L27.55,91.42 C27.55,91.42 26.64,90.72 24.12,92.61 L23.44,93.15 C23.3237921,93.216297 23.176558,93.1874937 23.0939001,93.0822928 C23.0112422,92.9770918 23.0180912,92.8272232 23.11,92.73 C23.35,92.53 23.5766667,92.35 23.79,92.19 C26.62,89.83 26.16,88.57 25.93,87.95 C25.8865649,87.832266 25.7959408,87.738017 25.68,87.69 C25.5334746,87.6253816 25.3665254,87.6253816 25.22,87.69 L24.94,87.82 C23.54,88.46 21,89.62 19.74,91.72 L19.73,91.72 Z" id="Shape" fill="#603404" stroke-width="1"/>
        </g>
    </g>
</svg>