<?xml version="1.0" encoding="UTF-8"?><svg xmlns="http://www.w3.org/2000/svg" xmlns:xlink="http://www.w3.org/1999/xlink" width="86.42424774169922" height="153.4839630126953" viewBox="-0.23628294467926025 0.12217307090759277 86.42424774169922 153.4839630126953" version="1.1">
    <!-- Generator: Sketch 46.2 (44496) - http://www.bohemiancoding.com/sketch -->
    <title>三国主题素材-12</title>
    <desc>Created with Sketch.</desc>
    <defs/>
    <g id="Page-1" stroke="none" fill-rule="evenodd">
        <g id="三国主题素材-12" fill-rule="nonzero">
            <path d="M35.54,47.73 C35.54,47.73 12.92,71 3.18,74.06 L0.49,79.72 C0.49,79.72 1.61,83.03 8.33,80.08 C8.33,80.08 19.86,72.25 35.54,51 L35.54,47.73 Z" id="Shape" fill="#AEC2D2" stroke-width="1"/>
            <path d="M3.58,81.53 C2.94239375,81.5441078 2.30886895,81.4248961 1.72,81.18 C1.07375329,80.9273768 0.555294007,80.4269195 0.28,79.79 C0.25828947,79.7354128 0.25828947,79.6745872 0.28,79.62 L3,74 C3.02684381,73.9414296 3.07801319,73.8975702 3.14,73.88 C12.72,70.88 35.14,47.88 35.41,47.61 C35.4741988,47.5418246 35.5745183,47.5217607 35.66,47.56 C35.744336,47.5958577 35.7993375,47.6783599 35.8,47.77 L35.8,51 C35.8125012,51.0424317 35.8125012,51.0875683 35.8,51.13 C20.28,72.13 8.65,80.18 8.53,80.26 C6.98426809,81.0175409 5.29951211,81.4497914 3.58,81.53 Z M0.73,79.72 C0.99413953,80.1811923 1.41172952,80.5350822 1.91,80.72 C2.91,81.15 4.78,81.33 8.23,79.82 C8.31,79.76 19.86,71.82 35.31,50.88 L35.31,48.29 C32.19,51.46 12.48,71.29 3.31,74.29 L0.73,79.72 Z" id="Shape" fill="#603404" stroke-width="1"/>
            <path d="M35.54,55.51 C35.54,55.51 23.54,76.4 16.39,83.12 C16.4462396,85.1918115 16.1068435,87.2553403 15.39,89.2 C18.3690129,89.7307427 21.373943,88.4118903 23,85.86 C23,85.86 34.64,68.93 37.56,56.91 L35.54,55.51 Z" id="Shape" fill="#AEC2D2" stroke-width="1"/>
            <path d="M16.63,89.52 C16.1978877,89.5249146 15.7661925,89.4914499 15.34,89.42 C15.2721444,89.4051074 15.2146558,89.3603426 15.1835876,89.2982062 C15.1525194,89.2360698 15.1512008,89.16322 15.18,89.1 C15.8901303,87.1813316 16.229474,85.1452691 16.18,83.1 C16.1786861,83.0360662 16.2040486,82.9744716 16.25,82.93 C23.31,76.31 35.25,55.58 35.36,55.37 C35.3922813,55.3138485 35.446742,55.2739106 35.51,55.26 C35.5675085,55.2355468 35.6324915,55.2355468 35.69,55.26 L37.69,56.66 C37.7659284,56.71432 37.801489,56.8091484 37.78,56.9 C34.89,68.88 23.3,85.81 23.18,86 C21.7816138,88.2585024 19.2851648,89.6001055 16.63,89.52 Z M15.71,89.02 C18.5151883,89.4141698 21.2917103,88.1314948 22.81,85.74 C22.93,85.56 34.38,68.84 37.3,57.01 L35.61,55.83 C34.32,58.05 23.34,76.83 16.61,83.21 C16.6559106,85.1781121 16.3511581,87.1386861 15.71,89 L15.71,89.02 Z" id="Shape" fill="#603404" stroke-width="1"/>
            <path d="M36.07,71 C36.07,71 67.36,70.15 66.88,70.05 C66.4,69.95 75.08,129.95 75.08,129.95 C75.08,129.95 75,139.57 81.45,146 C81.45,146 50.09,161.48 23.24,146 C27.1591487,141.627604 29.4881297,136.060599 29.85,130.2 L36.07,71 Z" id="Shape" fill="#AEC2D2" stroke-width="1"/>
            <path d="M50.19,153.1 C40.7224666,153.24313 31.385918,150.876215 23.13,146.24 C23.0751428,146.196365 23.0431782,146.130095 23.0431782,146.06 C23.0431782,145.989905 23.0751428,145.923635 23.13,145.88 C26.99352,141.538168 29.2954091,136.029825 29.67,130.23 L35.85,71 C35.8645955,70.8885239 35.9576414,70.8039367 36.07,70.8 C46.32,70.52 65.75,69.97 66.81,69.87 C66.8494068,69.8602576 66.8905932,69.8602576 66.93,69.87 C67.0451029,69.8901219 67.126826,69.9933511 67.12,70.11 C67.1291506,70.1358817 67.1291506,70.1641183 67.12,70.19 C67.04,71.96 72.44,109.96 75.34,129.96 C75.34,130.09 75.34,139.57 81.64,145.9 C81.6888093,145.952264 81.7105318,146.024258 81.6987755,146.094796 C81.6870191,146.165334 81.6431215,146.226391 81.58,146.26 C71.6920603,150.655116 61.0101042,152.982755 50.19,153.1 L50.19,153.1 Z M23.6,146 C48.6,160.24 77.87,147.46 81.06,146 C74.82,139.54 74.85,130.1 74.85,130 C74.85,129.9 72.68,115 70.6,100.23 C67.27,76.58 66.68,71.49 66.66,70.32 C65.66,70.44 62.36,70.54 51.48,70.85 L36.27,71.28 L30.07,130.28 C29.6857538,136.085452 27.4136196,141.606001 23.6,146 Z" id="Shape" fill="#603404" stroke-width="1"/>
            <path d="M43.17,91.3 L62.35,91.3 L62.35,103.3 C62.35,103.3 57.35,97.96 41.25,102.15 L43.17,91.3 Z" id="Shape" fill="#603404" stroke-width="1"/>
            <path d="M68.24,70.71 C68.24,70.71 67.07,69.71 64.43,70.03 C64.43,70.03 59.23,86.97 61.63,111.43 C61.63,111.43 62.32,131.73 63.28,133.81 C65.2486704,134.021386 67.2387293,133.90651 69.17,133.47 L68.24,70.71 Z" id="Shape" fill="#FFFFFF" stroke-width="1"/>
            <path d="M65.45,134.14 C64.25,134.14 63.33,134.04 63.26,134.04 C63.1816715,134.030415 63.1137256,133.981343 63.08,133.91 C62.08,131.81 61.44,112.27 61.41,111.44 C60.4239459,101.484026 60.5917255,91.4474526 61.91,81.53 C62.4026697,77.6362709 63.17466,73.7830033 64.22,70 C64.2466133,69.9141123 64.3208361,69.8516089 64.41,69.84 C67.13,69.51 68.34,70.53 68.41,70.57 C68.4596511,70.6126945 68.4887495,70.6745287 68.49,70.74 L69.43,133.5 C69.4338289,133.60147 69.3677135,133.692379 69.27,133.72 C68.0234351,134.042675 66.7368939,134.184127 65.45,134.14 L65.45,134.14 Z M63.45,133.6 C65.2878014,133.785659 67.1432955,133.68445 68.95,133.3 L68,70.83 C66.9643064,70.2490032 65.7606918,70.0407532 64.59,70.24 C64.1,71.93 59.59,88.45 61.84,111.41 C62.1,118.29 62.72,131.54 63.45,133.6 Z" id="Shape" fill="#603404" stroke-width="1"/>
            <path d="M68.24,70.71 C68.24,70.71 74.24,74.93 76.77,78.71 L82.84,88 C82.84,88 88.59,94.29 83.16,104.09 C83.16,104.09 77.62,114.09 74.64,117.2 C74.64,117.2 76.19,124.42 78.42,126.9 C76.2585466,130.318976 72.7943423,132.706713 68.83,133.51 C68.83,133.51 62.16,95.51 65.26,83.11 C65.26,83.11 67.26,73.31 68.26,71.18 L68.24,70.71 Z" id="Shape" fill="#6CA2CE" stroke-width="1"/>
            <path d="M68.83,133.77 C68.787656,133.783095 68.742344,133.783095 68.7,133.77 C68.6514148,133.733805 68.619073,133.679902 68.61,133.62 C68.54,133.24 61.96,95.39 65.04,83.12 C65.12,82.73 67.04,73.41 68.04,71.19 L68.04,70.74 C68.0423952,70.662125 68.0840519,70.590757 68.1506819,70.5503751 C68.2173119,70.5099933 68.2998554,70.5060885 68.37,70.54 C68.37,70.54 74.37,74.8 76.98,78.54 L83,87.92 C84.0594331,89.215118 84.8207818,90.727573 85.23,92.35 C85.93,94.94 86.18,99.11 83.33,104.24 C83.11,104.65 77.84,114.14 74.85,117.31 C75.06,118.25 76.54,124.55 78.55,126.79 C78.6036845,126.868353 78.6036845,126.971647 78.55,127.05 C76.3451785,130.514503 72.8315583,132.938684 68.81,133.77 L68.83,133.77 Z M68.47,71.15 L68.47,71.21 C68.4773341,71.2429299 68.4773341,71.2770701 68.47,71.31 C67.47,73.39 65.53,83.09 65.47,83.19 C62.54,94.88 68.47,130.09 69,133.28 C72.7462771,132.4523 76.0238985,130.20028 78.14,127 C75.95,124.4 74.48,117.62 74.41,117.33 C74.3968422,117.257573 74.419147,117.183224 74.47,117.13 C77.4,114.13 82.9,104.13 82.96,104.07 C85.73,99.07 85.5,95.07 84.82,92.52 C84.421537,90.9545445 83.6879781,89.4942505 82.67,88.24 L76.57,78.83 C74.4,75.59 69.76,72.1 68.46,71.15 L68.47,71.15 Z" id="Shape" fill="#603404" stroke-width="1"/>
            <path d="M71.86,85.86 C71.86,85.86 68.5,102.48 74.26,116.55" id="Shape" fill="#6CA2CE" stroke-width="1"/>
            <path d="M74.26,116.78 C74.1683599,116.779338 74.0858577,116.724336 74.05,116.64 C68.34,102.64 71.61,85.99 71.64,85.82 C71.6651218,85.6959163 71.785799,85.6154649 71.91,85.64 C72.0340837,85.6651218 72.1145351,85.785799 72.09,85.91 C72.09,86.08 68.81,102.63 74.48,116.47 C74.5288039,116.585989 74.4753333,116.719666 74.36,116.77 L74.26,116.78 Z" id="Shape" fill="#603404" stroke-width="1"/>
            <path d="M36.59,70.89 L40.53,71.01 C40.53,71.01 47.94,87.19 42.19,133.92 L36.6,133.55 C36.6,133.55 46.18,96.82 36.59,70.89 Z" id="Shape" fill="#FFFFFF" stroke-width="1"/>
            <path d="M42.18,134.14 L42.18,134.14 L36.59,133.77 C36.5229069,133.766274 36.4607988,133.733393 36.42,133.68 C36.3926181,133.619626 36.3926181,133.550374 36.42,133.49 C36.52,133.12 45.88,96.49 36.42,70.96 C36.3861784,70.8940854 36.3861784,70.8159146 36.42,70.75 C36.4678393,70.69459 36.5368208,70.6619146 36.61,70.66 L40.55,70.78 C40.635684,70.7826751 40.7127697,70.8327808 40.75,70.91 C40.82,71.07 48.12,87.68 42.43,133.91 C42.4302448,133.974629 42.4032871,134.036378 42.3557247,134.080135 C42.3081622,134.123893 42.2443842,134.14562 42.18,134.14 Z M36.87,133.34 L41.98,133.68 C47.35,89.82 40.98,72.84 40.37,71.23 L36.91,71.12 C45.81,95.65 37.71,130 36.88,133.34 L36.87,133.34 Z" id="Shape" fill="#603404" stroke-width="1"/>
            <path d="M31.66,110.32 C31.66,110.32 30,122.68 26.6,126.83 C26.6,126.83 28.94,131.83 36.6,133.91 C36.6,133.91 47.6,93.37 37.6,72.75 L36.75,70.88 C36.75,70.88 34.1,70.71 31.52,75.63 C30.7936831,76.9856576 30.2297882,78.422247 29.84,79.91 C32.1391029,89.8739664 32.7609607,100.151518 31.68,110.32" id="Shape" fill="#6CA2CE" stroke-width="1"/>
            <path d="M36.62,134.14 L36.56,134.14 C28.87,132.05 26.49,127.14 26.4,126.94 C26.3549522,126.866342 26.3549522,126.773658 26.4,126.7 C29.72,122.65 31.4,110.47 31.4,110.3 C32.4752574,100.170325 31.8704553,89.9326148 29.61,80 C29.6062641,79.9768162 29.6062641,79.9531838 29.61,79.93 C29.9967611,78.4095935 30.5676488,76.9420763 31.31,75.56 C33.93,70.56 36.63,70.67 36.75,70.69 C36.8327616,70.6940937 36.9062028,70.744343 36.94,70.82 L37.79,72.69 C47.79,93.14 36.95,133.6 36.84,134 C36.8027623,134.087746 36.7152589,134.14343 36.62,134.14 Z M26.87,126.86 C27.29,127.62 29.82,131.76 36.46,133.64 C37.31,130.39 46.91,92.38 37.38,72.86 L36.59,71.13 C36.05,71.18 33.85,71.65 31.71,75.75 C31.0073992,77.0676771 30.4539772,78.4596172 30.06,79.9 C32.3418533,89.8834762 32.960164,100.175139 31.89,110.36 L31.89,110.36 C31.82,110.85 30.22,122.6 26.87,126.86 L26.87,126.86 Z" id="Shape" fill="#603404" stroke-width="1"/>
            <path d="M33.63,46.61 C32.9089447,45.9145519 31.9301035,45.5520181 30.93,45.61 C30.93,45.61 28.24,46.85 29.77,52.76 C29.77,52.76 30.93,57.66 34.59,59.49 L33.63,46.61 Z" id="Shape" fill="#F7D5C4" stroke-width="1"/>
            <path d="M34.59,59.69 L34.49,59.69 C30.78,57.83 29.6,53.02 29.56,52.81 C28,46.81 30.73,45.46 30.84,45.41 C31.9313814,45.3263521 33.0060209,45.7161366 33.79,46.48 C33.8297068,46.5165075 33.8546181,46.5663301 33.86,46.62 L34.86,59.47 C34.8634972,59.5494743 34.8256778,59.6251132 34.76,59.67 C34.708017,59.6982902 34.6471293,59.7054534 34.59,59.69 Z M31,45.8 C30.76,45.94 28.6,47.34 30,52.67 C30,52.72 31.1,57.17 34.34,59.06 L33.42,46.71 C32.7725912,46.0871085 31.8974237,45.7580166 31,45.8 L31,45.8 Z" id="Shape" fill="#603404" stroke-width="1"/>
            <path d="M32.22,54.54 C32.0705873,54.5428833 31.9228082,54.5085161 31.79,54.44 C31.4461378,54.220257 31.2299902,53.8475888 31.21,53.44 C31.1500385,53.0530348 31.3214548,52.6666777 31.6485902,52.4514571 C31.9757256,52.2362365 32.3983782,52.2317586 32.73,52.44 C32.4874064,51.3863837 32.0087015,50.4016194 31.33,49.56 C31.2620942,49.4998938 31.235846,49.4054967 31.2629774,49.3189644 C31.2901088,49.2324321 31.3655544,49.16992 31.4556217,49.1593448 C31.5456889,49.1487696 31.6335626,49.1921057 31.68,49.27 C31.79,49.4 34.24,52.41 32.68,54.36 C32.6594562,54.3895219 32.6319877,54.4135568 32.6,54.43 C32.480787,54.4887262 32.3521495,54.5259634 32.22,54.54 Z M32.12,52.72 L32,52.72 C31.62,52.86 31.67,53.38 31.67,53.39 C31.6929905,53.6295908 31.8120413,53.8496543 32,54 C32.1317529,54.0518286 32.2782471,54.0518286 32.41,54 C32.58614,53.7544391 32.6994421,53.4694671 32.74,53.17 C32.6986562,53.1443005 32.6670037,53.1056142 32.65,53.06 C32.5621062,52.8467431 32.3504833,52.710985 32.12,52.72 L32.12,52.72 Z" id="Shape" fill="#603404" stroke-width="1"/>
            <path d="M71,46.56 C71.7210553,45.8645519 72.6998965,45.5020181 73.7,45.56 C73.7,45.56 76.39,46.8 74.86,52.71 C74.86,52.71 73.7,57.61 70.04,59.44 L71,46.56 Z" id="Shape" fill="#F7D5C4" stroke-width="1"/>
            <path d="M70,59.63 C69.9575683,59.6425012 69.9124317,59.6425012 69.87,59.63 C69.8043222,59.5851132 69.7665028,59.5094743 69.77,59.43 L70.77,46.58 C70.7753819,46.5263301 70.8002932,46.4765075 70.84,46.44 C71.6086416,45.6823068 72.6625796,45.2861715 73.74,45.35 C73.91,45.42 76.63,46.76 75.07,52.78 C75.07,52.98 73.85,57.78 70.14,59.65 L70,59.63 Z M71.18,46.63 L70.27,59 C73.51,57.11 74.6,52.66 74.61,52.62 C75.99,47.28 73.84,45.88 73.61,45.74 C72.7147301,45.7046363 71.8439618,46.0370458 71.2,46.66 L71.18,46.63 Z" id="Shape" fill="#603404" stroke-width="1"/>
            <path d="M72.39,54.48 C72.2421591,54.4784195 72.0960653,54.4478417 71.96,54.39 C71.9280123,54.3735568 71.9005438,54.3495219 71.88,54.32 C70.37,52.37 72.82,49.32 72.88,49.23 C72.9648952,49.1548558 73.0918857,49.1527843 73.1791868,49.2251194 C73.2664878,49.2974546 73.2880556,49.4226173 73.23,49.52 C72.5515942,50.361807 72.0729238,51.3465003 71.83,52.4 C72.076666,52.2259643 72.3853715,52.1642232 72.68,52.23 C73.1425581,52.4132192 73.4223516,52.8863994 73.36,53.38 C73.338376,53.7871042 73.1226304,54.1590795 72.78,54.38 C72.6592195,54.4423566 72.5258835,54.4765453 72.39,54.48 L72.39,54.48 Z M72.19,54 C72.3244878,54.0555592 72.4755122,54.0555592 72.61,54 C72.8104954,53.8414465 72.9341134,53.6051181 72.95,53.35 C72.95,53.35 72.95,52.83 72.59,52.69 C72.3057595,52.6362232 72.0263101,52.8038928 71.94,53.08 C71.9229963,53.1256142 71.8913438,53.1643005 71.85,53.19 C71.8970336,53.4832742 72.0136182,53.7610201 72.19,54 Z" id="Shape" fill="#603404" stroke-width="1"/>
            <path d="M33.2,46.09 C33.2,46.09 33.61,51.47 34.28,56.37 C34.8341303,60.6753668 36.7794517,64.6818861 39.82,67.78 L39.93,67.89 C40.9446796,68.891279 42.1043469,69.7340605 43.37,70.39 L49.16,73.39 C51.2393294,74.2600134 53.5806706,74.2600134 55.66,73.39 L63.2,69.27 C64.2322521,68.7044758 65.175687,67.9901608 66,67.15 L66.07,67.08 C68.018229,65.0052225 69.3241308,62.4107846 69.83,59.61 C70.693003,55.2440967 71.2510186,50.8234102 71.5,46.38 C71.5,46.38 52.74,36.94 33.2,46.09 Z" id="Shape" fill="#F7D5C4" stroke-width="1"/>
            <path d="M52.43,74.29 C51.2684906,74.2988961 50.117703,74.0673767 49.05,73.61 L43.26,70.61 C41.970993,69.9220926 40.7941862,69.0420164 39.77,68 L39.66,67.89 C36.596968,64.7672337 34.6286112,60.7357864 34.05,56.4 C33.39,51.55 33,46.16 33,46.11 C32.9948608,46.0171261 33.0461674,45.9302996 33.13,45.89 C52.55,36.8 71.44,46.09 71.63,46.18 C71.7065481,46.2216194 71.7530062,46.302921 71.75,46.39 C71.507461,50.8428525 70.956136,55.2735001 70.1,59.65 C69.5908993,62.4973278 68.2635096,65.134733 66.28,67.24 L66.21,67.31 C65.3599443,68.1757801 64.385979,68.9104668 63.32,69.49 L55.76,73.6 C54.7091715,74.0562687 53.5756092,74.291151 52.43,74.29 Z M33.43,46.23 C33.5,47.15 33.9,51.97 34.5,56.34 C35.0589345,60.5977459 36.9896771,64.5575233 40,67.62 L40.11,67.73 C41.1102489,68.7153537 42.2530355,69.5446324 43.5,70.19 L49.29,73.19 C51.3075336,74.0222965 53.5724664,74.0222965 55.59,73.19 L63.11,69.08 C64.1272549,68.5261255 65.057261,67.8252513 65.87,67 L65.93,66.93 C67.851323,64.88763 69.1369046,62.3303649 69.63,59.57 C70.4674575,55.2786364 71.0120477,50.9352785 71.26,46.57 C69.56,45.71 51.75,37.74 33.44,46.23 L33.43,46.23 Z" id="Shape" fill="#603404" stroke-width="1"/>
            <path d="M36.58,53.86 C38.2905277,52.556844 40.4494975,51.9883153 42.58,52.28 C44.4246935,52.5179639 46.0391174,53.6365024 46.91,55.28 C46.91,55.28 43.59,56.91 40.6,56.09 C39.0380835,55.8465191 37.6134098,55.056215 36.58,53.86 Z" id="Shape" fill="#FFFFFF" stroke-width="1"/>
            <path d="M36.56,53.85 C36.9698092,53.4917391 37.4155044,53.1767365 37.89,52.91 C38.3592335,52.6341835 38.8550728,52.4063654 39.37,52.23 C39.8985646,52.0547846 40.4454644,51.9407073 41,51.89 C41.5545833,51.8218896 42.1154167,51.8218896 42.67,51.89 L42.67,51.89 C43.1512454,51.9447269 43.6244515,52.0554773 44.08,52.22 C44.5353,52.3812737 44.9713006,52.5925663 45.38,52.85 C46.2191335,53.3691714 46.8949659,54.1143199 47.33,55 L47.33,55 C47.4233545,55.1933311 47.3428994,55.4257568 47.15,55.52 L47.15,55.52 C46.6375293,55.7472591 46.1095276,55.9377408 45.57,56.09 C45.035068,56.2428387 44.4905219,56.3597658 43.94,56.44 C42.8255991,56.6216109 41.6847657,56.5532975 40.6,56.24 L40.6,56.24 C40.1937997,56.1949336 39.7922874,56.1146311 39.4,56 C39.0198094,55.8644718 38.6545566,55.6902227 38.31,55.48 C37.615529,55.0697821 37.0184346,54.5136313 36.56,53.85 Z M36.56,53.85 C36.8075016,54.1419213 37.0820574,54.4097806 37.38,54.65 C37.691171,54.8932766 38.0262197,55.1043573 38.38,55.28 C39.0728104,55.6381074 39.8192006,55.8812753 40.59,56 L40.59,56 C41.6380146,56.2544287 42.7269879,56.2918622 43.79,56.11 C44.8537579,55.9396602 45.8897336,55.6268494 46.87,55.18 L46.87,55.24 C46.6710671,54.8348898 46.4188296,54.4582151 46.12,54.12 C45.8286367,53.7821592 45.4921434,53.4860452 45.12,53.24 C44.3581728,52.7474962 43.4982642,52.4267366 42.6,52.3 L42.6,52.3 C42.0793505,52.2026114 41.5487734,52.1690306 41.02,52.2 C40.4914628,52.2307169 39.9681164,52.3212961 39.46,52.47 C38.9587409,52.6035364 38.4701932,52.7808859 38,53 C37.5098976,53.2466401 37.0415581,53.5343343 36.6,53.86 L36.56,53.85 Z" id="Shape" fill="#161616" stroke-width="1"/>
            <ellipse id="Oval" fill="#161616" cx="42.33" cy="54.24" rx="1.69" ry="1.94" stroke-width="1"/>
            <ellipse id="Oval" fill="#FFFFFF" cx="42.99" cy="53.98" rx="1" ry="1" stroke-width="1"/>
            <ellipse id="Oval" fill="#FFFFFF" cx="41.84" cy="55.2" rx="1" ry="1" stroke-width="1"/>
            <path d="M67.12,54 C65.4094723,52.696844 63.2505025,52.1283153 61.12,52.42 C59.2753065,52.6579639 57.6608826,53.7765024 56.79,55.42 C56.79,55.42 60.11,57.05 63.1,56.23 C64.6619165,55.9865191 66.0865902,55.196215 67.12,54 Z" id="Shape" fill="#FFFFFF" stroke-width="1"/>
            <path d="M67.1,54 C66.2116279,53.4391212 65.234374,53.033341 64.21,52.8 C63.7096629,52.6719551 63.1963337,52.6014982 62.68,52.59 C62.1724388,52.5783861 61.6653571,52.6287584 61.17,52.74 L61.17,52.74 C60.7499061,52.808172 60.3378011,52.9187367 59.94,53.07 C59.5393069,53.2238061 59.1569578,53.4216885 58.8,53.66 C58.4460124,53.8907937 58.1262181,54.170193 57.85,54.49 C57.5819323,54.7953958 57.3503702,55.1309929 57.16,55.49 L57,55 C57.9536124,55.4435391 58.9627182,55.756362 60,55.93 C61.0211597,56.1208452 62.0688403,56.1208452 63.09,55.93 L63.09,55.93 C63.8389403,55.8322552 64.5698261,55.6267988 65.26,55.32 C65.6111814,55.167163 65.9461843,54.9795614 66.26,54.76 C66.5633413,54.5337243 66.8445944,54.2792572 67.1,54 Z M67.1,54 C66.6072726,54.6189192 65.9863825,55.1238188 65.28,55.48 C64.5811671,55.8426415 63.8279989,56.0891944 63.05,56.21 L63.05,56.21 C61.9927127,56.4693509 60.8936168,56.5101842 59.82,56.33 C58.7467189,56.1644026 57.7006424,55.8549523 56.71,55.41 L56.71,55.41 C57.118716,54.5901046 57.7448357,53.8982597 58.52,53.41 C59.2947564,52.914097 60.168427,52.593296 61.08,52.47 L61.08,52.47 C61.6072765,52.3716783 62.1445845,52.3380965 62.68,52.37 C63.2155859,52.4030707 63.7456658,52.4970089 64.26,52.65 C64.773045,52.798289 65.271719,52.9924037 65.75,53.23 C66.2384919,53.4383634 66.7042729,53.6963859 67.14,54 L67.1,54 Z" id="Shape" fill="#161616" stroke-width="1"/>
            <ellipse id="Oval" fill="#161616" cx="61.38" cy="54.37" rx="1.69" ry="1.94" stroke-width="1"/>
            <ellipse id="Oval" fill="#FFFFFF" cx="60.71" cy="54.12" rx="1" ry="1" stroke-width="1"/>
            <ellipse id="Oval" fill="#FFFFFF" cx="61.86" cy="55.33" rx="1" ry="1" stroke-width="1"/>
            <path d="M41.54,46.36 L47.9,49.27 C47.9,49.27 49,49.87 48.18,50.34 C47.2077195,50.0027976 46.2019014,49.7714594 45.18,49.65 L37.18,48.09 L34.59,46.42 C36.8647943,45.8161249 39.2551189,45.7954891 41.54,46.36 L41.54,46.36 Z" id="Shape" fill="#161616" stroke-width="1"/>
            <path d="M62.16,46.36 L55.8,49.27 C55.8,49.27 54.7,49.87 55.52,50.34 C56.4922805,50.0027976 57.4980986,49.7714594 58.52,49.65 L66.52,48.09 L69,47.32 C69,47.32 65.56,45.39 62.16,46.36 Z" id="Shape" fill="#161616" stroke-width="1"/>
            <path d="M54.12,62.17 C53.9783592,62.17 53.8449845,62.1033126 53.76,61.99 C53.4951407,61.5622942 53.0496269,61.2787854 52.55,61.22 C51.9198884,61.2624581 51.3313379,61.5495559 50.91,62.02 C50.801034,62.139684 50.6364946,62.1921439 50.4783623,62.1576185 C50.3202299,62.1230932 50.1925286,62.0068278 50.1433623,61.8526185 C50.0941959,61.6984092 50.131034,61.529684 50.24,61.41 C50.8471222,60.7470978 51.6920544,60.3515977 52.59,60.31 C53.3608933,60.3739823 54.0587485,60.7912185 54.48,61.44 C54.5822685,61.5763579 54.5987186,61.7587933 54.5224922,61.9112461 C54.4462658,62.0636989 54.2904474,62.16 54.12,62.16 L54.12,62.17 Z" id="Shape" fill="#161616" stroke-width="1"/>
            <path d="M52.56,69.78 L52.4,69.78 C51.4283033,69.8147755 50.5124465,69.3263186 50,68.5 C49.8840202,68.2790861 49.9690861,68.0059798 50.19,67.89 C50.4109139,67.7740202 50.6840202,67.8590861 50.8,68.08 C51.1800111,68.6293755 51.8242141,68.9343236 52.49,68.88 L52.59,68.88 C53.1811319,68.8520808 53.7152069,68.5187574 54,68 C54.0875301,67.8642391 54.2408388,67.7854875 54.4021762,67.7934103 C54.5635137,67.8013331 54.7083689,67.8947266 54.7821763,68.0384103 C54.8559836,68.1820941 54.8475301,68.3542391 54.76,68.49 C54.3038519,69.2762708 53.4688965,69.7658583 52.56,69.78 Z" id="Shape" fill="#161616" stroke-width="1"/>
            <path d="M31.09,36.18 L26.89,26.94 L32.33,7.17 C32.4938125,5.97160153 33.3293543,4.97283761 34.48,4.6 C34.48,4.6 49.48,-3.87 70.31,4.6 C71.0564868,5.04704954 71.6038431,5.76254807 71.84,6.6 C71.94,7.09 72.03,7.6 72.16,8.07 L77.79,27.79 L74.05,36.13 L31.09,36.18 Z" id="Shape" fill="#AEC2D2" stroke-width="1"/>
            <path d="M74.06,36.4 L31.06,36.4 C30.9706972,36.4011137 30.8888234,36.3504299 30.85,36.27 L26.68,27 C26.6632375,26.9514049 26.6632375,26.8985951 26.68,26.85 L32.11,7.1 C32.2872082,5.82860132 33.1773924,4.77126463 34.4,4.38 C34.52,4.31 49.67,-4.04 70.4,4.38 C71.2262896,4.862964 71.8269745,5.65428548 72.07,6.58 L72.15,6.98 C72.22,7.33 72.29,7.7 72.39,8.04 L78,27.77 C78.0167625,27.8185951 78.0167625,27.8714049 78,27.92 L74.26,36.27 C74.2227697,36.3472192 74.145684,36.3973249 74.06,36.4 L74.06,36.4 Z M31.23,36 L73.92,36 L77.57,27.86 L72,8.17 C71.9,7.81 71.82,7.44 71.75,7.07 L71.67,6.68 C71.4561849,5.89139134 70.947916,5.21489258 70.25,4.79 C49.75,-3.53 34.79,4.71 34.64,4.79 C33.5712021,5.13873829 32.7948634,6.06646295 32.64,7.18 L27.13,26.92 L31.23,36 Z" id="Shape" fill="#603404" stroke-width="1"/>
            <path d="M30.84,36.48 C30.84,36.48 31.46,43.05 33.42,45.48 C33.42,45.48 49.96,39.48 71.68,45.79 C73.3207891,42.9588865 74.2025964,39.7520014 74.24,36.48 C74.24,36.48 52.91,28.71 30.84,36.48 Z" id="Shape" fill="#6CA2CE" stroke-width="1"/>
            <path d="M71.68,46 L71.62,46 C50.21,39.75 33.62,45.62 33.5,45.68 C33.4102042,45.710424 33.3109406,45.6826302 33.25,45.61 C31.25,43.16 30.65,36.76 30.62,36.49 C30.6137295,36.3886227 30.6746995,36.2951353 30.77,36.26 C52.65,28.56 74.1,36.18 74.32,36.26 C74.4082607,36.2927115 74.4676818,36.375901 74.47,36.47 C74.42475,39.7827393 73.5331782,43.0288868 71.88,45.9 C71.8351132,45.9656778 71.7594743,46.0034972 71.68,46 L71.68,46 Z M51.59,42.67 C58.3576285,42.6732158 65.0908534,43.6327003 71.59,45.52 C73.1087521,42.8021621 73.9363521,39.7527479 74,36.64 C72.08,35.98 51.79,29.41 31.07,36.64 C31.18,37.64 31.83,43 33.48,45.21 C39.3520274,43.4457226 45.4591888,42.5891687 51.59,42.67 L51.59,42.67 Z" id="Shape" fill="#603404" stroke-width="1"/>
            <path d="M32.91,40.93 C32.6787021,40.9330004 32.4828052,40.7601543 32.456977,40.5302835 C32.4311488,40.3004126 32.5838036,40.0884034 32.81,40.04 L35.53,39.4 C35.6871969,39.3642734 35.8515127,39.4151243 35.9610512,39.5333974 C36.0705897,39.6516706 36.1087095,39.8193977 36.0610512,39.9733975 C36.0133929,40.1273972 35.8871969,40.2442734 35.73,40.28 L33,40.91 L32.91,40.93 Z" id="Shape" fill="#603404" stroke-width="1"/>
            <path d="M33.8,40.6 L33.8,40.6 C33.6788996,40.6000299 33.5628984,40.5512491 33.4782136,40.4646824 C33.3935288,40.3781157 33.3473089,40.2610705 33.35,40.14 L33.35,36.82 C33.3499701,36.6988996 33.3987509,36.5828984 33.4853176,36.4982136 C33.5718843,36.4135288 33.6889295,36.3673089 33.81,36.37 C33.9311004,36.3699701 34.0471016,36.4187509 34.1317864,36.5053176 C34.2164712,36.5918843 34.2626911,36.7089295 34.26,36.83 L34.26,40.15 C34.2600299,40.2711004 34.2112491,40.3871016 34.1246824,40.4717864 C34.0381157,40.5564712 33.9210705,40.6026911 33.8,40.6 L33.8,40.6 Z" id="Shape" fill="#603404" stroke-width="1"/>
            <path d="M35.12,37.88 C34.8996508,37.8740565 34.7160429,37.7093726 34.6862599,37.4909646 C34.656477,37.2725565 34.7892873,37.0647247 35,37 L39,36.16 C39.2457667,36.1102944 39.4852944,36.2692333 39.535,36.515 C39.5847056,36.7607667 39.4257667,37.0002944 39.18,37.05 L35.18,37.89 L35.12,37.88 Z" id="Shape" fill="#603404" stroke-width="1"/>
            <path d="M37.32,41.45 C37.0790774,41.4502381 36.8807076,41.2606847 36.87,41.02 L36.69,37.19 C36.6845762,37.0706217 36.7268587,36.9539885 36.8075238,36.8658197 C36.8881889,36.7776509 37.0006112,36.725188 37.12,36.72 C37.2407992,36.7087128 37.3607453,36.7489825 37.4502598,36.8308788 C37.5397744,36.9127751 37.5905262,37.0286757 37.59,37.15 L37.77,41 C37.7754238,41.1193783 37.7331413,41.2360115 37.6524762,41.3241803 C37.5718111,41.4123491 37.4593888,41.464812 37.34,41.47 L37.32,41.45 Z" id="Shape" fill="#603404" stroke-width="1"/>
            <path d="M40.71,38.85 L40.71,38.85 C40.5888996,38.8500299 40.4728984,38.8012491 40.3882136,38.7146824 C40.3035288,38.6281157 40.2573089,38.5110705 40.26,38.39 L40.26,35.08 C40.2751966,34.8342087 40.4739341,34.6397915 40.72,34.63 C40.8411004,34.6299701 40.9571016,34.6787509 41.0417864,34.7653176 C41.1264712,34.8518843 41.1726911,34.9689295 41.17,35.09 L41.17,38.4 C41.1700299,38.5211004 41.1212491,38.6371016 41.0346824,38.7217864 C40.9481157,38.8064712 40.8310705,38.8526911 40.71,38.85 L40.71,38.85 Z" id="Shape" fill="#603404" stroke-width="1"/>
            <path d="M38.8,39.32 C38.5514719,39.32 38.35,39.1185281 38.35,38.87 C38.35,38.6214719 38.5514719,38.42 38.8,38.42 L42.8,37.98 C43.0457614,37.961623 43.2639812,38.1361988 43.3,38.38 C43.3140239,38.4994902 43.2796158,38.6196203 43.2044586,38.7135669 C43.1293013,38.8075134 43.0196542,38.8674523 42.9,38.88 L38.9,39.32 L38.8,39.32 Z" id="Shape" fill="#603404" stroke-width="1"/>
            <path d="M42.16,36.4 C41.9114719,36.4138071 41.6988072,36.2235281 41.685,35.975 C41.6711929,35.7264719 41.8614719,35.5138071 42.11,35.5 L46.51,34.95 C46.7585281,34.9196243 46.9846243,35.0964719 47.015,35.345 C47.0453757,35.5935281 46.8685281,35.8196243 46.62,35.85 L42.22,36.4 L42.16,36.4 Z" id="Shape" fill="#603404" stroke-width="1"/>
            <path d="M44.32,40.16 L44.32,40.16 C44.1988996,40.1600299 44.0828984,40.1112491 43.9982136,40.0246824 C43.9135288,39.9381157 43.8673089,39.8210705 43.87,39.7 L43.87,35.98 C43.87,35.7314719 44.0714719,35.53 44.32,35.53 L44.32,35.53 C44.4411004,35.5299701 44.5571016,35.5787509 44.6417864,35.6653176 C44.7264712,35.7518843 44.7726911,35.8689295 44.77,35.99 L44.77,39.71 C44.77,39.9585281 44.5685281,40.16 44.32,40.16 L44.32,40.16 Z" id="Shape" fill="#603404" stroke-width="1"/>
            <path d="M48,38.06 C47.7553253,38.0600604 47.5554372,37.8646143 47.55,37.62 L47.47,34.54 C47.4673182,34.4206442 47.5121754,34.3051145 47.5946976,34.2188412 C47.6772199,34.1325679 47.7906429,34.0826229 47.91,34.08 C48.0309052,34.0715039 48.1497813,34.1144277 48.2373679,34.1982062 C48.3249546,34.2819847 48.3731168,34.3988367 48.37,34.52 L48.45,37.6 C48.4526818,37.7193558 48.4078246,37.8348855 48.3253024,37.9211588 C48.2427801,38.0074321 48.1293571,38.0573771 48.01,38.06 L48,38.06 Z" id="Shape" fill="#603404" stroke-width="1"/>
            <path d="M45.9,38.32 C45.6514719,38.32 45.4500001,38.1185281 45.4500001,37.87 C45.4500001,37.6214719 45.6514719,37.42 45.9,37.42 L50,37.18 C50.1224256,37.1656644 50.2451167,37.2045563 50.3369267,37.2868028 C50.4287366,37.3690492 50.4808365,37.4867407 50.48,37.61 C50.4881967,37.7310546 50.4471623,37.8502897 50.3662039,37.9406619 C50.2852455,38.031034 50.1712239,38.0848847 50.05,38.09 L45.93,38.32 L45.9,38.32 Z" id="Shape" fill="#603404" stroke-width="1"/>
            <path d="M53.82,35.54 L53.82,35.54 L49.62,35.48 C49.4592305,35.48 49.3106733,35.3942305 49.2302885,35.255 C49.1499038,35.1157695 49.1499038,34.9442305 49.2302885,34.805 C49.3106733,34.6657695 49.4592305,34.58 49.62,34.58 L53.82,34.64 C54.0685281,34.64 54.27,34.8414719 54.27,35.09 C54.27,35.3385281 54.0685281,35.54 53.82,35.54 L53.82,35.54 Z" id="Shape" fill="#603404" stroke-width="1"/>
            <path d="M51.68,39.51 L51.68,39.51 C51.5588996,39.5100299 51.4428984,39.4612491 51.3582136,39.3746824 C51.2735288,39.2881157 51.2273089,39.1710705 51.23,39.05 L51.23,35.25 C51.23,35.0014719 51.4314719,34.8 51.68,34.8 L51.68,34.8 C51.8011004,34.7999701 51.9171016,34.8487509 52.0017864,34.9353176 C52.0864712,35.0218843 52.1326911,35.1389295 52.13,35.26 L52.13,39.06 C52.13,39.1793474 52.0825894,39.2938067 51.9981981,39.3781981 C51.9138067,39.4625894 51.7993474,39.51 51.68,39.51 L51.68,39.51 Z" id="Shape" fill="#603404" stroke-width="1"/>
            <path d="M55.33,37.55 L55.33,37.55 C55.2088996,37.5500299 55.0928984,37.5012491 55.0082136,37.4146824 C54.9235288,37.3281157 54.8773089,37.2110705 54.88,37.09 L54.88,34.76 C54.88,34.6406526 54.9274106,34.5261933 55.0118019,34.4418019 C55.0961933,34.3574106 55.2106526,34.31 55.33,34.31 L55.33,34.31 C55.4511004,34.3099701 55.5671016,34.3587509 55.6517864,34.4453176 C55.7364712,34.5318843 55.7826911,34.6489295 55.78,34.77 L55.78,37.1 C55.78,37.3485281 55.5785281,37.55 55.33,37.55 L55.33,37.55 Z" id="Shape" fill="#603404" stroke-width="1"/>
            <path d="M57.52,37.91 L57.52,37.91 L53.12,37.85 C52.9988996,37.8500299 52.8828984,37.8012491 52.7982136,37.7146824 C52.7135288,37.6281157 52.6673089,37.5110705 52.67,37.39 C52.6670995,37.2680294 52.7149728,37.15033 52.8021862,37.0650126 C52.8893996,36.9796951 53.0081226,36.9344198 53.13,36.94 L57.53,37 C57.7785281,37 57.9799999,37.2014719 57.9799999,37.45 C57.9799999,37.6985281 57.7785281,37.9 57.53,37.9 L57.52,37.91 Z" id="Shape" fill="#603404" stroke-width="1"/>
            <path d="M61.54,35.84 L61.54,35.84 L57,35.59 C56.8787761,35.5848847 56.7647545,35.531034 56.6837961,35.4406619 C56.6028377,35.3502897 56.5618033,35.2310546 56.57,35.11 C56.5691635,34.9867407 56.6212634,34.8690492 56.7130733,34.7868028 C56.8048833,34.7045563 56.9275744,34.6656644 57.05,34.68 L61.58,34.94 C61.8285281,34.94 62.03,35.1414719 62.03,35.39 C62.03,35.6385281 61.8285281,35.84 61.58,35.84 L61.54,35.84 Z" id="Shape" fill="#603404" stroke-width="1"/>
            <path d="M58.9,40 L58.9,40 C58.7788498,39.9974281 58.6638569,39.9461045 58.5810412,39.8576423 C58.4982255,39.7691801 58.454587,39.6510566 58.46,39.53 L58.6,35.34 C58.6054372,35.0953857 58.8053253,34.8999396 59.05,34.9 L59.05,34.9 C59.1711502,34.9025719 59.2861431,34.9538955 59.3689588,35.0423577 C59.4517745,35.1308199 59.495413,35.2489434 59.49,35.37 L59.35,39.56 C59.3445628,39.8046143 59.1446747,40.0000604 58.9,40 L58.9,40 Z" id="Shape" fill="#603404" stroke-width="1"/>
            <path d="M63,38.42 L63,38.42 C62.8806112,38.414812 62.7681889,38.3623491 62.6875238,38.2741803 C62.6068587,38.1860115 62.5645762,38.0693783 62.57,37.95 L62.67,35.4 C62.67,35.1514719 62.8714719,34.95 63.12,34.95 C63.3685281,34.95 63.57,35.1514719 63.57,35.4 L63.44,38 C63.4244831,38.2329386 63.2334081,38.4153284 63,38.42 Z" id="Shape" fill="#603404" stroke-width="1"/>
            <path d="M65,39 L64.92,39 L60.62,38.24 C60.3742333,38.1958172 60.2108172,37.9607667 60.255,37.715 C60.2991828,37.4692333 60.5342333,37.3058172 60.78,37.35 L65.08,38.11 C65.3028282,38.1572808 65.4551825,38.3636123 65.4347893,38.5904867 C65.4143961,38.817361 65.227688,38.9932151 65,39 L65,39 Z" id="Shape" fill="#603404" stroke-width="1"/>
            <path d="M69,37.23 L68.9,37.23 L64.45,36.23 C64.2069947,36.1747715 64.0547715,35.9330053 64.11,35.69 C64.1652285,35.4469947 64.4069947,35.2947715 64.65,35.35 L69.1,36.35 C69.3261964,36.3984034 69.4788512,36.6104126 69.453023,36.8402835 C69.4271948,37.0701543 69.2312979,37.2430004 69,37.24 L69,37.23 Z" id="Shape" fill="#603404" stroke-width="1"/>
            <path d="M66.18,41.18 L66.12,41.18 C66.0001878,41.1651078 65.8913852,41.1026951 65.8180452,41.0067889 C65.7447052,40.9108828 65.7129801,40.7895285 65.73,40.67 L66.26,36.46 C66.2903757,36.2114719 66.5164719,36.0346244 66.765,36.065 C67.0135281,36.0953757 67.1903756,36.3214719 67.16,36.57 L66.63,40.78 C66.6044214,41.0088223 66.4102431,41.1814252 66.18,41.18 Z" id="Shape" fill="#603404" stroke-width="1"/>
            <path d="M70,39.86 L70,39.86 C69.7543183,39.823959 69.5842623,39.595726 69.62,39.35 L70,36.73 C70.0409502,36.4872838 70.2657114,36.3198147 70.51,36.35 C70.7556817,36.386041 70.9257377,36.614274 70.89,36.86 L70.51,39.47 C70.4951078,39.5898122 70.4326951,39.6986148 70.3367889,39.7719548 C70.2408828,39.8452948 70.1195285,39.8770199 70,39.86 L70,39.86 Z" id="Shape" fill="#603404" stroke-width="1"/>
            <path d="M71.79,40.61 L71.67,40.61 L67.91,39.56 C67.7967215,39.5548982 67.690319,39.5042093 67.6149846,39.4194581 C67.5396502,39.3347069 67.5017857,39.2230954 67.51,39.11 C67.5311027,38.8567455 67.7459428,38.6638279 68,38.67 C68.05,38.67 68,38.67 71.92,39.75 C72.1523292,39.7970483 72.3083239,40.0162581 72.2766494,40.2511774 C72.2449749,40.4860968 72.0364934,40.6561638 71.8,40.64 L71.79,40.61 Z" id="Shape" fill="#603404" stroke-width="1"/>
            <path d="M72.06,43.87 C72.003848,43.8808009 71.946152,43.8808009 71.89,43.87 C57,38 40.19,41.78 33.68,43.69 C33.15,43.85 32.83,43.94 32.68,43.53 C32.68,43.41 32.58,43.11 33.01,42.92 C33.0787507,42.9012971 33.1512493,42.9012971 33.22,42.92 L33.42,42.86 C40,40.89 57,37 72.23,43 C72.4339926,43.0783458 72.5522162,43.2919182 72.5103095,43.5063823 C72.4684027,43.7208464 72.2784796,43.8742063 72.06,43.87 Z" id="Shape" fill="#603404" stroke-width="1"/>
            <polygon id="Shape" fill="#6CA2CE" points="46.05 32.67 47.7 25.01 55.04 25.01 57.11 32.67" stroke-width="1"/>
            <path d="M57.11,32.9 L46,32.9 C45.9310391,32.9016753 45.8649674,32.8723101 45.82,32.82 C45.7912418,32.7599313 45.7912418,32.6900687 45.82,32.63 L47.48,25 C47.5030429,24.8964417 47.5939294,24.82208 47.7,24.82 L55,24.82 C55.1031602,24.8209143 55.1930916,24.8904068 55.22,24.99 L57.29,32.65 C57.3085858,32.7187675 57.2942587,32.7922657 57.2512054,32.8490179 C57.208152,32.90577 57.141232,32.9393702 57.07,32.94 L57.11,32.9 Z M46.33,32.45 L56.81,32.45 L54.86,25.24 L47.86,25.24 L46.33,32.45 Z" id="Shape" fill="#603404" stroke-width="1"/>
            <path d="M47.5,70.13 C48.99,70.69 52.5,71.59 57.81,70.25 C58.18,70.16 58.58,70.32 58.59,70.59 C58.68,73.59 58.83,88.07 53.33,94.19 C53.0532022,94.4645556 52.6067978,94.4645556 52.33,94.19 C50.77,91.99 45.72,83.77 46.65,70.51 C46.68,70.17 47.13,70 47.5,70.13 Z" id="Shape" fill="#161616" stroke-width="1"/>
            <path d="M61.69,68.23 C61.4368284,67.7977528 61.0962343,67.4230992 60.69,67.13 C60.58,67.05 60.33,66.91 60.21,66.82 C59.1263768,66.0713927 57.9540973,65.4600607 56.72,65 C54.3885087,64.4514335 51.9585006,64.4788912 49.64,65.08 C48.7622329,65.318602 47.9136939,65.6539929 47.11,66.08 C46.3130998,66.4510444 45.5963472,66.974172 45,67.62 L45,67.62 C44.5352876,68.1377241 44.2449539,68.7883514 44.17,69.48 C43.8603945,72.6067153 43.9275423,75.7593031 44.37,78.87 C44.37,78.87 45.09,84.07 42.55,87.12 C42.55,87.12 45.09,86.8 46.29,79.69 L46.14,70.25 C46.1283784,69.4649084 46.5516284,68.7376881 47.24,68.36 L47.24,68.36 C47.76,68.08 48.24,67.88 48.69,67.68 C49.3714555,67.302331 50.1241066,67.0707461 50.9,67 L55.84,67 C56.099311,67.0107689 56.3540471,67.0719056 56.59,67.18 C57.41,67.5 58.49,68.04 58.49,68.04 L58.49,68.04 C59.3137175,68.4647848 59.8503888,69.2945318 59.9,70.22 C59.95,74.13 60.05,82.69 57.81,86.62 C57.81,86.62 63.58,81.54 61.81,68.53 L61.69,68.23 Z" id="Shape" fill="#161616" stroke-width="1"/>
            <path d="M33.63,5.76 L38.87,33.69" id="Shape" fill="#584642" stroke-width="1"/>
            <path d="M38.87,34.14 C38.6533992,34.1386362 38.4685033,33.9831555 38.43,33.77 L33.18,5.85 C33.1566068,5.73188769 33.1815234,5.60932694 33.2491778,5.50972456 C33.3168323,5.41012219 33.4215809,5.341787 33.54,5.32 C33.7849325,5.27701435 34.0196834,5.43646783 34.07,5.68 L39.31,33.61 C39.3333932,33.7281123 39.3084766,33.8506731 39.2408222,33.9502754 C39.1731677,34.0498778 39.0684191,34.118213 38.95,34.14 L38.87,34.14 Z" id="Shape" fill="#603404" stroke-width="1"/>
            <path d="M38.77,3.25 L43.42,33.02" id="Shape" fill="#584642" stroke-width="1"/>
            <path d="M43.42,33.48 C43.1964252,33.4827191 43.0047643,33.3208722 42.97,33.1 L38.32,3.32 C38.2949914,3.16101681 38.356699,3.00076836 38.4818782,2.8996187 C38.6070574,2.79846903 38.7766904,2.77178518 38.9268782,2.8296187 C39.077066,2.88745221 39.1849914,3.02101681 39.21,3.18 L43.87,33 C43.8900828,33.1195604 43.8610739,33.2421663 43.7895431,33.3400507 C43.7180122,33.4379351 43.6100114,33.5028161 43.49,33.52 L43.42,33.48 Z" id="Shape" fill="#603404" stroke-width="1"/>
            <path d="M44.64,2.01 L47.1,27.04" id="Shape" fill="#584642" stroke-width="1"/>
            <path d="M47.1,27.5 C46.8662902,27.500925 46.6707725,27.3227867 46.65,27.09 L44.19,2.09 C44.1789065,1.97055045 44.2159669,1.8516159 44.2929502,1.75961141 C44.3699336,1.66760692 44.4804665,1.6101494 44.6,1.6 C44.8470827,1.58244496 45.0636983,1.76369479 45.09,2.01 L47.55,27.01 C47.5610935,27.1294496 47.5240331,27.2483841 47.4470498,27.3403886 C47.3700664,27.4323931 47.2595335,27.4898506 47.14,27.5 L47.1,27.5 Z" id="Shape" fill="#603404" stroke-width="1"/>
            <path d="M51.21,25.13 C50.9614719,25.13 50.76,24.9285281 50.76,24.68 L50.76,1.41 C50.76,1.16147186 50.9614719,0.96 51.21,0.96 C51.4585281,0.96 51.66,1.16147186 51.66,1.41 L51.66,24.68 C51.66,24.9285281 51.4585281,25.13 51.21,25.13 Z" id="Shape" fill="#603404" stroke-width="1"/>
            <path d="M58.82,2.01 L55.99,27.85" id="Shape" fill="#584642" stroke-width="1"/>
            <path d="M56,28.3 L55.95,28.3 C55.8303458,28.2874523 55.7206987,28.2275134 55.6455414,28.1335669 C55.5703842,28.0396203 55.5359761,27.9194902 55.55,27.8 L58.37,2 C58.3878633,1.83923048 58.4901391,1.70020325 58.6383013,1.63528854 C58.7864634,1.57037383 58.9580024,1.58943372 59.0883013,1.68528854 C59.2186001,1.78114336 59.2878633,1.93923048 59.27,2.1 L56.44,27.9 C56.4148683,28.1250492 56.2264189,28.2963667 56,28.3 L56,28.3 Z" id="Shape" fill="#603404" stroke-width="1"/>
            <path d="M64.2,3.29 C64.2,3.29 59.8,32.63 59.72,32.67" id="Shape" fill="#584642" stroke-width="1"/>
            <path d="M59.72,33.12 C59.5777681,33.119743 59.4440303,33.0522589 59.3593227,32.9380022 C59.2746151,32.8237454 59.2489105,32.6761677 59.29,32.54 C59.46,31.71 62.29,13.04 63.75,3.23 C63.7680465,3.06645047 63.8739179,2.9257904 64.0260874,2.86319204 C64.178257,2.80059368 64.3524596,2.82603901 64.4803663,2.92954739 C64.6082731,3.03305577 64.6694879,3.19812169 64.64,3.36 C60.2,32.91 60.2,32.91 59.94,33.06 C59.8732135,33.0989856 59.7973318,33.1196806 59.72,33.12 L59.72,33.12 Z" id="Shape" fill="#603404" stroke-width="1"/>
            <path d="M36.65,34.6 C36.4014719,34.6 36.2,34.3985281 36.2,34.15 C36.2,34.08 36.14,26.72 33.28,24.46 C32.7830627,24.0410706 32.0988749,23.9225799 31.49,24.15 C30.8033292,24.4349705 30.3197328,25.0632651 30.22,25.8 C30.1120849,26.5634473 30.1494063,27.3404112 30.33,28.09 C30.33,28.09 30.81,30.44 32.21,30.22 C32.6807924,30.1490823 33.0694086,29.8148723 33.21,29.36 C33.4526281,28.7021398 33.3941305,27.9709195 33.05,27.36 C33.0239399,27.3087033 32.9862757,27.2641911 32.94,27.23 C32.7512845,27.0796981 32.5086305,27.0145075 32.27,27.05 C31.97,27.13 31.75,27.48 31.61,27.76 C31.5023045,27.9864367 31.2314367,28.0826955 31.005,27.975 C30.7785633,27.8673045 30.6823045,27.5964367 30.79,27.37 C30.996697,26.8133889 31.4400215,26.3773921 32,26.18 C32.4958903,26.0698456 33.0151346,26.1832017 33.42,26.49 C33.583569,26.6072543 33.7171845,26.761426 33.81,26.94 C34.2624509,27.7768913 34.331706,28.768333 34,29.66 C33.7574185,30.4266563 33.1037619,30.9913538 32.31,31.12 C30.49,31.4 29.61,29.38 29.4,28.27 C29.1973481,27.4081775 29.1600215,26.5157348 29.29,25.64 C29.4490943,24.5930102 30.1484092,23.7074647 31.13,23.31 C32.0349889,22.9721402 33.0512757,23.1396182 33.8,23.75 C37,26.28 37.1,33.82 37.1,34.14 C37.1,34.3885281 36.8985281,34.59 36.65,34.59 L36.65,34.6 Z" id="Shape" fill="#603404" stroke-width="1"/>
            <path d="M70.1,5 L65.05,33.69" id="Shape" fill="#584642" stroke-width="1"/>
            <path d="M65.06,34.14 L65,34.14 C64.8818196,34.1204269 64.7763208,34.0545414 64.7068717,33.9569374 C64.6374227,33.8593334 64.6097561,33.7380673 64.63,33.62 L69.63,4.93 C69.6741828,4.68423332 69.9092333,4.52081728 70.155,4.56500006 C70.4007667,4.60918284 70.5641827,4.8442333 70.52,5.09 L65.52,33.78 C65.4759649,33.9967343 65.2809651,34.1493429 65.06,34.14 Z" id="Shape" fill="#603404" stroke-width="1"/>
            <path d="M67.63,34.45 L67.63,34.45 C67.5106112,34.444812 67.3981889,34.3923491 67.3175238,34.3041803 C67.2368587,34.2160115 67.1945762,34.0993783 67.2,33.98 C67.2,33.65 67.56,25.74 70.88,23.23 C71.1896177,22.9958811 71.5623484,22.860026 71.95,22.84 C72.8421351,22.7682687 73.7264375,23.052252 74.41,23.63 C75.1306998,24.3646252 75.5207192,25.3613413 75.49,26.39 C75.5157416,26.6660679 75.5157416,26.9439321 75.49,27.22 C75.3207148,28.7288504 74.3769581,30.0402553 73,30.68 C72.4769295,30.9121631 71.8741351,30.8786745 71.38,30.59 C70.8165195,30.2501285 70.4460113,29.6647255 70.38,29.01 C70.327932,28.4818519 70.3582946,27.9488193 70.47,27.43 C70.52,27.25 70.91,26 71.9,25.84 C72.62,25.72 73.33,26.2 74.09,27.3 C74.2150568,27.5039174 74.158719,27.7700369 73.9617553,27.9057822 C73.7647916,28.0415275 73.496048,27.9994504 73.35,27.81 C72.62,26.76 72.2,26.7 72.05,26.72 C71.71,26.77 71.43,27.37 71.36,27.63 C71.2703011,28.0436121 71.2433327,28.4683646 71.28,28.89 C71.3176086,29.2630435 71.5288275,29.596547 71.85,29.79 C72.0931556,29.9341979 72.3907821,29.9527995 72.65,29.84 C73.708795,29.2985418 74.4177899,28.2539057 74.53,27.07 C74.5510034,26.8471605 74.5510034,26.6228395 74.53,26.4 C74.5649395,25.6173082 74.2838821,24.8534084 73.75,24.28 C73.2430706,23.8711767 72.5993882,23.67092 71.95,23.72 C71.7428212,23.7292024 71.5436283,23.8025893 71.38,23.93 C68.38,26.18 68.06,33.93 68.06,33.99 C68.0656801,34.2347817 67.8746085,34.4391838 67.63,34.45 Z" id="Shape" fill="#603404" stroke-width="1"/>
            <path d="M55.57,83.12 C55.57,83.12 46.75,74.31 53.57,65.69 C54.2652754,64.7539188 55.2326954,64.0554206 56.34,63.69 C56.8666679,64.2745734 57.1587092,65.0331687 57.16,65.82 C57.16,65.82 60.24,59.3 65.39,58.61 C65.9473118,59.5128762 66.2512815,60.5491365 66.27,61.61 C66.27,61.61 69.46,58.18 73.19,58.22 C73.6136011,59.3605026 73.672997,60.6043227 73.36,61.78 C73.36,61.78 77.28,58.96 79.36,60.31 C79.36,60.31 81.62,62.21 80.23,66.37 C81.1155287,65.7852595 82.1728778,65.5173977 83.23,65.61 C84.3652658,67.8996579 84.1057015,70.6347681 82.56,72.67 C83.0477691,72.5602422 83.5589647,72.6789782 83.9484205,72.9924901 C84.3378763,73.306002 84.5630507,73.7800438 84.56,74.28 C84.5936225,74.8956976 84.455115,75.5085934 84.16,76.05 C83.42,77.46 81.55,80.86 80.25,81.86 C80.25,81.86 82.69,82.97 79.87,85.72 C79.87,85.72 74.05,91.28 67.72,90.42 L55.57,83.12 Z" id="Shape" fill="#FFFFFF" stroke-width="1"/>
            <path d="M69,90.75 C68.5418235,90.7510169 68.0841058,90.7209479 67.63,90.66 L67.54,90.66 L55.44,83.34 L55.44,83.34 C55.35,83.25 46.55,74.34 53.38,65.61 C54.1190212,64.6575816 55.1360013,63.9586262 56.29,63.61 C56.3673638,63.5958989 56.4465696,63.6223008 56.5,63.68 C56.8809869,64.1115962 57.15807,64.624713 57.31,65.18 C58.31,63.46 61.1,59.1 65.31,58.52 C65.3910048,58.5106531 65.4709031,58.5448953 65.52,58.61 C66.0242036,59.3977366 66.326453,60.2976155 66.4,61.23 C67.33,60.25 70,58 73.1,58 C73.2125363,57.988502 73.3203094,58.0483759 73.37,58.15 C73.7261633,59.1455209 73.8459845,60.2102181 73.72,61.26 C74.89,60.53 77.72,59 79.46,60.12 C79.58,60.21 81.65,62.02 80.59,65.9 C81.4076757,65.4529639 82.3452819,65.2745388 83.27,65.39 C83.3369547,65.4012542 83.3955163,65.4415153 83.43,65.5 C84.5269786,67.7260094 84.3633788,70.3664335 83,72.44 C83.4747765,72.4504909 83.9259255,72.6492173 84.2541392,72.9924351 C84.582353,73.335653 84.760728,73.7952288 84.75,74.27 C84.7871772,74.9310841 84.6382026,75.589344 84.32,76.17 C83.62,77.51 81.91,80.62 80.59,81.84 C81.0040156,82.1193123 81.29141,82.550404 81.39,83.04 C81.54,83.88 81.06,84.84 79.98,85.9 C79.91,86 74.82,90.75 69,90.75 Z M67.74,90.22 C73.87,91.02 79.6,85.63 79.65,85.57 C80.65,84.65 81.04,83.8 80.93,83.12 C80.8107545,82.6824318 80.5081153,82.3178063 80.1,82.12 C80.0277227,82.0714971 79.9890185,81.9863478 80,81.9 C79.9922629,81.8220662 80.0265399,81.7458951 80.09,81.7 C81.36,80.7 83.2,77.37 83.94,75.97 C84.2178239,75.4661089 84.3494319,74.894653 84.32,74.32 C84.3208937,73.8874152 84.1349876,73.4755056 83.81,73.19 C83.462171,72.9514415 83.0377091,72.8515681 82.62,72.91 C82.5303048,72.9250754 82.4401503,72.8858779 82.39,72.81 C82.3407565,72.7339414 82.3407565,72.6360586 82.39,72.56 C83.8727647,70.6322369 84.1471685,68.0350626 83.1,65.84 C82.1297987,65.7890322 81.1689946,66.052026 80.36,66.59 C80.2790836,66.638819 80.1765401,66.6331742 80.1014711,66.5757685 C80.0264021,66.5183628 79.9940873,66.4208807 80.02,66.33 C81.34,62.33 79.31,60.58 79.22,60.51 C77.31,59.29 73.53,61.97 73.49,62 C73.4094685,62.0583837 73.3005315,62.0583837 73.22,62 C73.1430741,61.9374746 73.1148644,61.8326958 73.15,61.74 C73.442334,60.6576737 73.3899004,59.5111265 73,58.46 C69.48,58.52 66.44,61.75 66.4,61.78 C66.3384832,61.844984 66.2448603,61.8683897 66.16,61.84 C66.07497,61.8086993 66.0162403,61.730393 66.01,61.64 C65.9667618,60.6797174 65.7033084,59.7422337 65.24,58.9 C60.35,59.67 57.35,65.9 57.32,65.97 C57.268784,66.0602365 57.1634922,66.1050088 57.0629713,66.0792942 C56.9624503,66.0535795 56.8915927,65.9637457 56.89,65.86 C56.8920756,65.178803 56.6509427,64.5192334 56.21,64 C55.220966,64.367422 54.3548245,65.0049021 53.71,65.84 C50.9803176,69.121672 50.3956147,73.6862527 52.21,77.55 C53.0542478,79.5395821 54.238617,81.3668945 55.71,82.95 L67.74,90.22 Z" id="Shape" fill="#603404" stroke-width="1"/>
            <path d="M57.39,65.32 C57.39,65.32 53.54,73.54 57.65,80.91" id="Shape" fill="#FFFFFF" stroke-width="1"/>
            <path d="M57.65,81.14 C57.5664916,81.1392757 57.4899372,81.093343 57.45,81.02 C53.34,73.64 57.15,65.31 57.19,65.23 C57.2543551,65.1402483 57.3734181,65.1089078 57.4736213,65.1553435 C57.5738245,65.2017791 57.6268777,65.3128807 57.6,65.42 C57.6,65.5 53.85,73.63 57.85,80.8 C57.8886444,80.8709545 57.8872244,80.9569827 57.8462594,81.0266232 C57.8052944,81.0962637 57.7307926,81.1393025 57.65,81.14 L57.65,81.14 Z" id="Shape" fill="#603404" stroke-width="1"/>
            <path d="M66.27,61.58 C66.27,61.58 60.06,68 60.09,80" id="Shape" fill="#FFFFFF" stroke-width="1"/>
            <path d="M60.09,80.19 C59.9629745,80.19 59.86,80.0870255 59.86,79.96 C59.8188829,75.1847744 60.8941334,70.466 63,66.18 C63.8177243,64.4536281 64.8747972,62.8511865 66.14,61.42 C66.1901454,61.3428942 66.2814061,61.3030774 66.3720362,61.3187634 C66.4626663,61.3344494 66.5352367,61.4026216 66.5565509,61.4920954 C66.5778651,61.5815693 66.5438243,61.6751381 66.47,61.73 C66.41,61.79 60.33,68.22 60.36,79.96 C60.36,80.0870255 60.2570255,80.19 60.13,80.19 L60.09,80.19 Z" id="Shape" fill="#603404" stroke-width="1"/>
            <path d="M73.4,61.7 C73.4,61.7 65.62,70 63.55,80" id="Shape" fill="#FFFFFF" stroke-width="1"/>
            <path d="M63.55,80.2 L63.55,80.2 C63.4259163,80.1748782 63.3454649,80.054201 63.37,79.93 C65.43,70.05 73.2,61.63 73.28,61.55 C73.3693785,61.4835791 73.4935018,61.4907279 73.5746637,61.5669709 C73.6558256,61.6432139 73.6707106,61.7666486 73.61,61.86 C73.53,61.94 65.85,70.27 63.82,80.03 C63.7903237,80.1500277 63.6710639,80.2251172 63.55,80.2 Z" id="Shape" fill="#603404" stroke-width="1"/>
            <path d="M80.18,66.39 C80.18,66.39 75.18,75.89 66.58,82.01" id="Shape" fill="#FFFFFF" stroke-width="1"/>
            <path d="M66.59,82.23 C66.4945808,82.2247091 66.4123747,82.160965 66.3834906,82.0698688 C66.3546064,81.9787727 66.3850629,81.8793063 66.46,81.82 C75,75.8 79.93,66.38 80,66.28 C80.0268495,66.1913379 80.1042701,66.1274379 80.1964148,66.1178868 C80.2885595,66.1083358 80.3774402,66.1549981 80.4219037,66.2362685 C80.4663671,66.3175388 80.4577334,66.4175519 80.4,66.49 C80.4,66.59 75.32,76.11 66.73,82.19 C66.6892261,82.2188371 66.6398541,82.2329434 66.59,82.23 L66.59,82.23 Z" id="Shape" fill="#603404" stroke-width="1"/>
            <path d="M82.55,72.68 C82.55,72.68 76.86,81.18 68.32,84.48" id="Shape" fill="#FFFFFF" stroke-width="1"/>
            <path d="M68.31,84.71 C68.2038879,84.7040006 68.1157052,84.6260776 68.0966929,84.5215104 C68.0776807,84.4169431 68.1327908,84.3129669 68.23,84.27 C76.61,81 82.3,72.64 82.36,72.56 C82.3978845,72.4778962 82.480362,72.4256082 82.5707815,72.4263715 C82.661201,72.4271349 82.742784,72.4808079 82.7792769,72.5635396 C82.8157699,72.6462713 82.8004011,72.7427097 82.74,72.81 C82.68,72.9 76.91,81.41 68.4,84.7 L68.31,84.71 Z" id="Shape" fill="#603404" stroke-width="1"/>
            <path d="M80.2,81.87 C80.2,81.87 74.04,88.09 68.6,88.14" id="Shape" fill="#FFFFFF" stroke-width="1"/>
            <path d="M68.59,88.36 C68.4837184,88.3374697 68.407697,88.2436434 68.407697,88.135 C68.407697,88.0263566 68.4837184,87.9325303 68.59,87.91 C73.88,87.91 79.98,81.77 80.04,81.71 C80.1313883,81.6467834 80.2549045,81.6579449 80.3334798,81.7365202 C80.4120551,81.8150955 80.4232166,81.9386117 80.36,82.03 C80.11,82.29 74.07,88.32 68.6,88.36 L68.59,88.36 Z" id="Shape" fill="#603404" stroke-width="1"/>
            <rect id="Rectangle-path" fill="#FFE9A4" transform="matrix(0.8515439766707259,0.524283182827569,-0.524283182827569,0.8515439766707259,58.81830657501181,-14.2707074494555)" x="51.8231707" y="88.7701983" width="5.57" height="15.91" rx="1.11" stroke-width="1"/>
            <path d="M51.9,104.14 C50.8065588,104.145844 49.7965399,103.5563 49.2639212,102.601332 C48.7313025,101.646363 48.7604523,100.477239 49.34,99.55 L54.76,90.75 C55.3244796,89.8336138 56.3349666,89.2879843 57.4108201,89.3186448 C58.4866737,89.3493054 59.4644462,89.951598 59.9758201,90.8986448 C60.4871941,91.8456917 60.4544796,92.9936138 59.89,93.91 L54.47,102.71 C53.9217696,103.602691 52.9475838,104.144748 51.9,104.14 L51.9,104.14 Z M57.33,89.77 C57.1279543,89.7698505 56.926585,89.7933436 56.73,89.84 C56.0656421,89.9972676 55.4925652,90.4153614 55.14,91 L49.72,99.8 C48.9864374,101.005012 49.3613522,102.576084 50.56,103.32 L50.56,103.32 C51.7640838,104.059416 53.3395551,103.683452 54.08,102.48 L59.5,93.68 C59.9842284,92.8917815 60.0055462,91.903637 59.5557617,91.0952685 C59.1059772,90.2869001 58.2550671,89.7840721 57.33,89.78 L57.33,89.77 Z" id="Shape" fill="#603404" stroke-width="1"/>
            <path d="M57,87.89 C57,87.89 54.71,89.25 57.85,91.66 C57.85,91.66 60.07,93.76 61.33,91.12 L57,87.89 Z" id="Shape" fill="#FFE9A4" stroke-width="1"/>
            <path d="M59.64,92.67 C58.9196859,92.6105799 58.2401139,92.3112865 57.71,91.82 C56.52,90.91 55.93,90.01 55.98,89.16 C56.0501319,88.5592596 56.3883494,88.0225231 56.9,87.7 C56.9752374,87.6480516 57.0747626,87.6480516 57.15,87.7 L61.49,90.92 C61.5762768,90.9852578 61.605417,91.1018187 61.56,91.2 C61.3073487,91.9066074 60.7245297,92.4445942 60,92.64 C59.8813372,92.6622516 59.7607091,92.6723039 59.64,92.67 Z M57,88.17 C56.6773138,88.4093348 56.4675111,88.7710637 56.42,89.17 C56.42,89.85 56.92,90.64 57.99,91.46 C58.4976276,91.9442611 59.178837,92.2037694 59.88,92.18 C60.4021011,92.04255 60.832922,91.674327 61.05,91.18 L57,88.17 Z" id="Shape" fill="#603404" stroke-width="1"/>
            <path d="M58.82,82.29 C59.7528728,80.9408222 61.3830276,80.2544413 63,80.53 C64.0127655,80.7377699 64.9375845,81.2507827 65.65,82 C66.83,83.16 68.21,85.29 66.4,87.89 C66.3151457,88.0129113 66.2884347,88.1668414 66.3269184,88.3111551 C66.365402,88.4554688 66.465212,88.57566 66.6,88.64 C67.36,88.99 68.44,89.72 67.29,90.71 C66.8293814,91.0911025 66.2720316,91.3368903 65.68,91.42 C63.5095885,91.8234697 61.26646,91.4330518 59.36,90.32 C57.4935019,89.2363461 56.1124039,87.4795609 55.5,85.41 C55.3301222,84.540136 55.5097577,83.638366 56,82.9 C56.3741194,82.4055584 57.0153328,82.1944758 57.61,82.37 C57.7082723,82.4017863 57.8023002,82.4454421 57.89,82.5 C58.2071272,82.68456 58.6129495,82.5929227 58.82,82.29 L58.82,82.29 Z" id="Shape" fill="#FFDC4E" stroke-width="1"/>
            <path d="M63.9,91.75 C62.2515814,91.7898032 60.6277546,91.3447286 59.23,90.47 C57.3007312,89.3827465 55.8672371,87.5908789 55.23,85.47 C55.0587393,84.5396317 55.2637483,83.5793264 55.8,82.8 C56.2307922,82.2268169 56.973428,81.9832643 57.66,82.19 C57.7757308,82.2262893 57.8865618,82.276667 57.99,82.34 C58.2048082,82.4544119 58.4712473,82.3899508 58.61,82.19 L58.61,82.19 C59.5846661,80.7647027 61.2958573,80.0318919 63,80.31 C64.066052,80.5082502 65.0443476,81.0323372 65.8,81.81 C66.92,82.92 68.52,85.19 66.58,87.99 C66.5453434,88.0662466 66.5453434,88.1537534 66.58,88.23 C66.6013599,88.3066302 66.6566257,88.3692649 66.73,88.4 C67.28,88.65 67.96,89.08 68.05,89.69 C68.0714731,90.1484693 67.8514412,90.5847396 67.47,90.84 C66.9752982,91.2493952 66.3761571,91.5126017 65.74,91.6 C65.1315054,91.6978124 64.5163025,91.7479648 63.9,91.75 L63.9,91.75 Z M57.21,82.52 C56.8170268,82.5313356 56.44992,82.7185601 56.21,83.03 C55.7558853,83.7046674 55.5803038,84.5288251 55.72,85.33 C56.323169,87.3311955 57.6634293,89.0288585 59.47,90.08 C61.3309454,91.177316 63.527191,91.5611259 65.65,91.16 C66.2015632,91.0834752 66.720943,90.854948 67.15,90.5 C67.46,90.23 67.6,89.98 67.57,89.75 C67.54,89.52 67.15,89.1 66.51,88.81 C66.3167022,88.7189611 66.173823,88.5467733 66.12,88.34 C66.0639336,88.1272037 66.1041515,87.9005211 66.23,87.72 C67.89,85.32 66.75,83.35 65.5,82.12 C64.8095055,81.4068649 63.9152867,80.924825 62.94,80.74 C61.4122268,80.4904189 59.8776026,81.1447764 59,82.42 C58.7203612,82.8069789 58.1931171,82.9193424 57.78,82.68 C57.7083406,82.6336704 57.6310459,82.5967033 57.55,82.57 C57.4399137,82.5359416 57.3252307,82.5190765 57.21,82.52 L57.21,82.52 Z" id="Shape" fill="#603404" stroke-width="1"/>
            <circle id="Oval" fill="#FFE9A4" transform="matrix(0.9326390231430941,-0.3608108264876418,0.3608108264876418,0.9326390231430941,-26.889620148747305,28.076999386999958)" cx="61.7506951" cy="86.0539791" r="1.5" stroke-width="1"/>
            <path d="M61.75,87.78 C60.8560026,87.7868297 60.1040558,87.1113594 60.0153255,86.22175 C59.9265952,85.3321406 60.5303119,84.5214554 61.4080461,84.3515713 C62.2857803,84.1816873 63.1483809,84.7085692 63.3979889,85.5670409 C63.6475969,86.4255127 63.2019842,87.3327688 62.37,87.66 L62.37,87.66 C62.1723828,87.7374823 61.9622561,87.778152 61.75,87.78 L61.75,87.78 Z M61.75,84.77 C61.1887512,84.7680311 60.6916852,85.1319191 60.5239844,85.6675314 C60.3562837,86.2031437 60.5570703,86.78553 61.0192255,87.1039899 C61.4813806,87.4224498 62.0970905,87.4026913 62.5378767,87.0552555 C62.9786629,86.7078197 63.1416966,86.1137581 62.94,85.59 C62.749426,85.0995576 62.2761611,84.7774193 61.75,84.78 L61.75,84.77 Z" id="Shape" fill="#603404" stroke-width="1"/>
            <path d="M46,93.66 C46,93.66 53.24,91.51 56.72,94.49 C57.9198962,95.8258446 58.6808329,97.4978111 58.9,99.28 C58.9,99.28 59.11,100.72 57.98,100.85 C57.98,100.85 58.46,103.6 56.85,103.46 C56.85,103.46 57.06,105.78 55.77,105.74 C55.5138597,105.851311 55.2182122,105.820988 54.99,105.66 C54.99,105.66 54.84,107.55 53.5,107.53 C53.1604928,107.542094 52.8317684,107.409717 52.595391,107.165715 C52.3590137,106.921713 52.2371365,106.588952 52.26,106.25 C51.8026464,104.139535 49.9191736,102.645314 47.76,102.68 C46.5053194,103.115824 45.1187412,102.589008 44.47,101.43 C44.47,101.43 40.98,98.03 41.47,95.64 C42.9425772,94.8974897 44.4548588,94.2364925 46,93.66 L46,93.66 Z" id="Shape" fill="#F7D5C4" stroke-width="1"/>
            <path d="M41.47,97.6 C41.1979333,96.9707368 41.1112001,96.2768715 41.22,95.6 C41.2320446,95.5305165 41.2766683,95.4710182 41.34,95.44 C42.8246039,94.6881214 44.3503502,94.0203988 45.91,93.44 C46.24,93.34 53.31,91.29 56.84,94.31 C58.1017005,95.6966737 58.8927243,97.4467263 59.1,99.31 C59.1661658,99.7846346 59.0597067,100.267249 58.8,100.67 C58.649566,100.865833 58.4386279,101.006458 58.2,101.07 C58.352123,101.862215 58.202299,102.68268 57.78,103.37 C57.5912516,103.576905 57.3295097,103.702397 57.05,103.72 C57.1099776,104.409365 56.9298026,105.09827 56.54,105.67 C56.3439985,105.887389 56.0625933,106.007992 55.77,106 C55.5615664,106.064662 55.3384336,106.064662 55.13,106 C54.99,106.75 54.52,107.77 53.45,107.76 C53.0850443,107.769786 52.729197,107.645239 52.45,107.41 C52.1422767,107.114772 51.968826,106.706441 51.97,106.28 C51.528598,104.295777 49.7524381,102.895745 47.72,102.93 C46.383528,103.356649 44.9298341,102.800092 44.22,101.59 C43.0660271,100.440212 42.1337963,99.0876295 41.47,97.6 L41.47,97.6 Z M41.64,95.79 C41.29,98.02 44.55,101.23 44.58,101.26 L44.58,101.26 C45.1629588,102.326831 46.4333013,102.813795 47.58,102.41 L47.67,102.41 C49.9318826,102.391043 51.8974013,103.96012 52.38,106.17 C52.44,107.27 53.29,107.26 53.38,107.26 C54.51,107.26 54.66,105.62 54.66,105.6 C54.6636187,105.516585 54.7141452,105.442406 54.7904428,105.408496 C54.8667405,105.374586 54.9556585,105.386789 55.02,105.44 C55.1813665,105.551787 55.3883262,105.574364 55.57,105.5 L55.67,105.5 C55.8504596,105.512254 56.0268175,105.442446 56.15,105.31 C56.4738801,104.754635 56.6040326,104.107391 56.52,103.47 C56.5137296,103.404626 56.5369932,103.33987 56.5834315,103.293431 C56.6298698,103.246993 56.6946263,103.22373 56.76,103.23 C56.9886828,103.266895 57.2208092,103.188272 57.38,103.02 C57.7249394,102.36269 57.8242165,101.603929 57.66,100.88 C57.6484438,100.818454 57.6636633,100.7549 57.7018442,100.705265 C57.7400252,100.65563 57.797549,100.624617 57.86,100.62 C58.0637714,100.607786 58.25278,100.509647 58.38,100.35 C58.5560444,100.048049 58.6297102,99.6972594 58.59,99.35 C58.3728997,97.6144683 57.6335777,95.9858675 56.47,94.68 C53.14,91.83 46.05,93.89 45.98,93.91 L45.98,93.91 C44.4992592,94.4586708 43.050334,95.0896543 41.64,95.8 L41.64,95.79 Z" id="Shape" fill="#603404" stroke-width="1"/>
            <path d="M55.32,97.56 C55.281739,97.4731804 55.3034466,97.3716122 55.3738547,97.3080177 C55.4442628,97.2444233 55.547509,97.23313 55.63,97.28 C57.0565221,97.9272907 58.026147,99.29011 58.17,100.85 C58.170453,100.969608 58.0791558,101.0696 57.96,101.08 C57.9016366,101.082713 57.8445911,101.062099 57.801444,101.022704 C57.758297,100.983309 57.7325927,100.928369 57.73,100.87 C57.5931983,99.4786032 56.72388,98.2661331 55.45,97.69 C55.3904788,97.666623 55.343377,97.6195212 55.32,97.56 Z" id="Shape" fill="#603404" stroke-width="1"/>
            <path d="M53.65,99.61 C53.6138598,99.5216635 53.6388,99.4201003 53.7117467,99.3585516 C53.7846933,99.2970029 53.8890051,99.2895097 53.97,99.34 C55.4179072,100.29904 56.4886722,101.73026 57,103.39 C57.0331371,103.508741 56.9637412,103.631863 56.845,103.665 C56.7262588,103.698137 56.6031371,103.628741 56.57,103.51 C56.0773513,101.95999 55.072359,100.623526 53.72,99.72 C53.6860878,99.6912488 53.6616824,99.6528975 53.65,99.61 L53.65,99.61 Z" id="Shape" fill="#603404" stroke-width="1"/>
            <path d="M52.24,101.6 C52.1834705,101.501006 52.2119243,101.375228 52.3055586,101.310204 C52.3991928,101.245181 52.5269867,101.262453 52.6,101.35 C53.8964368,102.459167 54.8011105,103.956437 55.18,105.62 C55.198022,105.743943 55.1135607,105.859521 54.99,105.88 C54.8692895,105.898544 54.7551332,105.819512 54.73,105.7 C54.3596667,104.144767 53.509555,102.745406 52.3,101.7 C52.2713685,101.672671 52.2506402,101.638124 52.24,101.6 L52.24,101.6 Z" id="Shape" fill="#603404" stroke-width="1"/>
            <path d="M45.58,90.66 L47.58,93.9 C47.58,93.9 46.22,113.41 35.94,118.33 L33,117.4 L45.58,90.66 Z" id="Shape" fill="#FFFFFF" stroke-width="1"/>
            <path d="M35.91,118.55 L35.84,118.55 L32.91,117.62 C32.8466919,117.599015 32.7956106,117.551582 32.77,117.49 C32.7426181,117.429626 32.7426181,117.360374 32.77,117.3 L45.37,90.56 C45.4055287,90.4858074 45.4779761,90.4362381 45.56,90.43 C45.6444877,90.4271229 45.7242583,90.4689075 45.77,90.54 L47.77,93.78 C47.7825012,93.8224317 47.7825012,93.8675683 47.77,93.91 C47.77,94.11 46.29,113.61 36,118.53 L35.91,118.55 Z M33.3,117.26 L35.89,118.08 C45.56,113.36 47.22,95.24 47.32,93.95 L45.6,91.13 L33.3,117.26 Z" id="Shape" fill="#603404" stroke-width="1"/>
            <path d="M36.36,70.89 C36.36,70.89 15.69,79.89 19.49,102.04 C19.49,102.04 19.91,111.92 32.99,117.41 C32.99,117.41 44.06,111.6 45.75,90.86 L44.39,89.27 C40.0040161,84.1530203 37.2216644,77.8579497 36.39,71.17 L36.36,70.89 Z" id="Shape" fill="#6CA2CE" stroke-width="1"/>
            <path d="M33,117.63 L32.91,117.63 C19.84,112.13 19.27,102.14 19.26,102 C15.48,80 36.06,70.72 36.26,70.63 C36.3261135,70.6011205 36.401947,70.6049364 36.4648275,70.6403067 C36.527708,70.675677 36.5703484,70.7385027 36.58,70.81 L36.58,71.08 C37.3950163,77.7313501 40.1573437,83.9935533 44.52,89.08 L45.88,90.67 C45.91976,90.7171524 45.9379005,90.7788298 45.93,90.84 C45.05,101.6 41.61,108.29 38.87,112 C37.3375262,114.243902 35.3514346,116.14142 33.04,117.57 L33,117.63 Z M36.19,71.23 C33.74,72.41 16.23,81.71 19.71,102 C19.9222037,103.967695 20.5456856,105.868804 21.54,107.58 C23.1,110.41 26.35,114.35 32.97,117.15 C34.03,116.53 43.91,110.22 45.51,90.93 L44.21,89.41 C39.8000696,84.2689007 37.0035183,77.9418774 36.17,71.22 L36.19,71.23 Z" id="Shape" fill="#603404" stroke-width="1"/>
        </g>
    </g>
</svg>