<?xml version="1.0" encoding="UTF-8"?><svg xmlns="http://www.w3.org/2000/svg" xmlns:xlink="http://www.w3.org/1999/xlink" width="208.0170440673828" height="189.19712829589844" viewBox="-0.6700000166893005 -0.36000001430511475 208.0170440673828 189.19712829589844" version="1.1">
    <!-- Generator: Sketch 46.2 (44496) - http://www.bohemiancoding.com/sketch -->
    <title>Firecrackers-a</title>
    <desc>Created with Sketch.</desc>
    <defs/>
    <g id="Page-1" stroke="none" fill-rule="evenodd">
        <g id="Firecrackers-a">
            <path d="M171.66,5.4 C162.99,29.4 165.48,55.81 166.25,81.34 C166.892284,102.716046 166.247786,124.111373 164.32,145.41" id="Shape" stroke="#405D7B" stroke-width="2" stroke-linecap="round" fill="none"/>
            <path d="M144.17,187.83 C144.17,187.83 141.5,188.11 137.11,185.16 C134.923943,183.824871 133.146084,181.915575 131.97,179.64 L152.87,148.54 C155.114093,149.550434 157.265608,150.755015 159.3,152.14 C161.330266,153.523871 163.261612,155.047563 165.08,156.7 L144.17,187.83 Z" id="Shape" fill="#F24E4E" fill-rule="nonzero" stroke-width="1"/>
            <ellipse id="Oval" fill="#EA2424" fill-rule="nonzero" transform="matrix(0.5593013036988399,-0.8289644453658903,0.8289644453658903,0.5593013036988399,-56.50682399128303,199.55215652300774)" cx="159.4277" cy="152.9214" rx="1.09136165" ry="7.35918176" stroke-width="1"/>
            <path d="M145.71,185.54 L146.29,184.68 C143.878313,183.844236 141.57528,182.722934 139.43,181.34 C137.454122,179.956813 135.662968,178.326963 134.1,176.49 L133.52,177.35 C135.053832,179.193915 136.829918,180.821994 138.8,182.19 C140.979811,183.5453 143.295827,184.668115 145.71,185.54 Z" id="Shape" fill="#FCD39F" fill-rule="nonzero" stroke-width="1"/>
            <path d="M146.72,184 L147.3,183.14 C142.542062,181.641913 138.309939,178.818185 135.1,175 L134.52,175.86 C136.061557,177.695116 137.844407,179.313136 139.82,180.67 C141.9056,182.178265 144.241602,183.30564 146.72,184 L146.72,184 Z" id="Shape" fill="#FCD39F" fill-rule="nonzero" stroke-width="1"/>
            <path d="M162.4,160.7 L162.98,159.84 C158.30877,158.138929 154.131214,155.308085 150.82,151.6 L150.24,152.46 C151.793691,154.279953 153.586644,155.881164 155.57,157.22 C157.718211,158.616512 160.007499,159.782942 162.4,160.7 Z" id="Shape" fill="#FCD39F" fill-rule="nonzero" stroke-width="1"/>
            <path d="M163.82,145.69 C162.69228,146.777207 161.639849,147.939893 160.67,149.17 C160.455518,149.413022 160.283145,149.690171 160.16,149.99 C160.031473,150.294193 160.061412,150.642225 160.24,150.92 C160.44,151.21 160.84,151.36 160.95,151.69 C161.007566,151.892449 160.978598,152.109706 160.87,152.29 C160.429849,152.862894 159.730355,153.175034 159.01,153.12" id="Shape" stroke="#405D7B" stroke-linecap="round" stroke-width="1" fill="none"/>
            <path d="M136.42,89.13 C136.42,89.13 133.8,88.54 130.58,84.35 C128.932824,82.384758 127.857032,80.0048713 127.47,77.47 L157.2,54.67 C159.002867,56.3459472 160.655821,58.1762432 162.14,60.14 C163.614885,62.1013605 164.951449,64.1630101 166.14,66.31 L136.42,89.13 Z" id="Shape" fill="#F24E4E" fill-rule="nonzero" stroke-width="1"/>
            <ellipse id="Oval" fill="#EA2424" fill-rule="nonzero" transform="matrix(0.7934595771201869,-0.6086229534582591,0.6086229534582591,0.7934595771201869,-3.3744488494481004,110.9264474682225)" cx="161.74902" cy="60.435052" rx="1.09" ry="7.35" stroke-width="1"/>
            <path d="M138.61,87.45 L139.43,86.82 C137.412715,85.2562808 135.589761,83.4568266 134,81.46 C132.569889,79.5175641 131.393708,77.4004374 130.5,75.16 L129.68,75.79 C130.545548,78.0263549 131.709419,80.1354496 133.14,82.06 C134.76977,84.0430616 136.603144,85.8496212 138.61,87.45 L138.61,87.45 Z" id="Shape" fill="#FCD39F" fill-rule="nonzero" stroke-width="1"/>
            <path d="M140.05,86.34 L140.87,85.71 C136.840058,82.7543702 133.738356,78.7089734 131.93,74.05 L131.11,74.68 C131.985969,76.911276 133.159963,79.0136997 134.6,80.93 C136.082558,83.0413415 137.927795,84.8730354 140.05,86.34 L140.05,86.34 Z" id="Shape" fill="#FCD39F" fill-rule="nonzero" stroke-width="1"/>
            <path d="M162.36,69.23 L163.18,68.6 C159.293858,65.4977284 156.236227,61.4815823 154.28,56.91 L153.46,57.54 C154.354233,59.7603238 155.545055,61.8493092 157,63.75 C158.58937,65.7597358 160.385941,67.5965292 162.36,69.23 Z" id="Shape" fill="#FCD39F" fill-rule="nonzero" stroke-width="1"/>
            <path d="M166.34,57.06 L161.56,60.48" id="Shape" stroke="#405D7B" stroke-linecap="round" stroke-width="1" fill="none"/>
            <path d="M142.72,112.2 C142.72,112.2 140.04,112.08 136.13,108.53 C134.164297,106.886475 132.687329,104.735013 131.86,102.31 L157.08,74.6 C159.151007,75.9306247 161.101762,77.4396992 162.91,79.11 C164.729615,80.7757516 166.430436,82.5667927 168,84.47 L142.72,112.2 Z" id="Shape" fill="#F24E4E" fill-rule="nonzero" stroke-width="1"/>
            <ellipse id="Oval" fill="#EA2424" fill-rule="nonzero" transform="matrix(0.6731415932371263,-0.7395136208713016,0.7395136208713016,0.6731415932371263,-5.63574812298225,146.2106186405677)" cx="162.5821" cy="79.4807192" rx="1.09" ry="7.35" stroke-width="1"/>
            <path d="M144.58,110.16 L145.27,109.4 C143.005558,108.219841 140.890515,106.772883 138.97,105.09 C137.21867,103.431691 135.686276,101.556525 134.41,99.51 L133.71,100.27 C134.956021,102.318024 136.473081,104.18828 138.22,105.83 C140.182386,107.492245 142.314104,108.943557 144.58,110.16 L144.58,110.16 Z" id="Shape" fill="#FCD39F" fill-rule="nonzero" stroke-width="1"/>
            <path d="M145.8,108.82 L146.49,108.06 C142.00199,105.864872 138.234242,102.433654 135.63,98.17 L134.93,98.93 C136.186986,100.969665 137.714173,102.829872 139.47,104.46 C141.305387,106.276443 143.448632,107.752675 145.8,108.82 L145.8,108.82 Z" id="Shape" fill="#FCD39F" fill-rule="nonzero" stroke-width="1"/>
            <path d="M164.73,88 L165.42,87.24 C161.045621,84.8747796 157.324916,81.4632752 154.59,77.31 L153.89,78.07 C155.161761,80.0984151 156.702435,81.9452062 158.47,83.56 C160.394839,85.2558748 162.493102,86.7440995 164.73,88 L164.73,88 Z" id="Shape" fill="#FCD39F" fill-rule="nonzero" stroke-width="1"/>
            <path d="M166.49,75.35 L162.39,79.56" id="Shape" stroke="#405D7B" stroke-linecap="round" stroke-width="1" fill="none"/>
            <path d="M142.61,137.5 C142.61,137.5 139.93,137.38 136.02,133.83 C134.054297,132.186475 132.577329,130.035013 131.75,127.61 L157,99.9 C159.071007,101.230625 161.021762,102.739699 162.83,104.41 C164.635848,106.07714 166.323272,107.868149 167.88,109.77 L142.61,137.5 Z" id="Shape" fill="#F24E4E" fill-rule="nonzero" stroke-width="1"/>
            <ellipse id="Oval" fill="#EA2424" fill-rule="nonzero" transform="matrix(0.6731415932371263,-0.7395136208713016,0.7395136208713016,0.6731415932371263,-24.38601186879947,154.39333509490288)" cx="162.463622" cy="104.783212" rx="1.09" ry="7.35" stroke-width="1"/>
            <path d="M144.46,135.46 L145.15,134.7 C142.885558,133.519841 140.770515,132.072883 138.85,130.39 C137.09867,128.731691 135.566276,126.856525 134.29,124.81 L133.59,125.57 C134.836021,127.618024 136.353081,129.48828 138.1,131.13 C140.062386,132.792245 142.194104,134.243557 144.46,135.46 Z" id="Shape" fill="#FCD39F" fill-rule="nonzero" stroke-width="1"/>
            <path d="M145.69,134.11 L146.38,133.35 C141.89199,131.154872 138.124242,127.723654 135.52,123.46 L134.82,124.22 C136.076986,126.259665 137.604173,128.119872 139.36,129.75 C141.195387,131.566443 143.338632,133.042675 145.69,134.11 Z" id="Shape" fill="#FCD39F" fill-rule="nonzero" stroke-width="1"/>
            <path d="M164.61,113.32 L165.3,112.56 C160.925621,110.19478 157.204916,106.783275 154.47,102.63 L153.77,103.39 C155.041761,105.418415 156.582435,107.265206 158.35,108.88 C160.274839,110.575875 162.373102,112.0641 164.61,113.32 L164.61,113.32 Z" id="Shape" fill="#FCD39F" fill-rule="nonzero" stroke-width="1"/>
            <path d="M166.38,100.65 L162.28,104.86" id="Shape" stroke="#405D7B" stroke-linecap="round" stroke-width="1" fill="none"/>
            <path d="M141.38,162.64 C141.38,162.64 138.7,162.52 134.79,158.97 C132.824297,157.326475 131.347329,155.175013 130.52,152.75 L155.73,125 C157.801007,126.330625 159.751762,127.839699 161.56,129.51 C163.365848,131.17714 165.053272,132.968149 166.61,134.87 L141.38,162.64 Z" id="Shape" fill="#F24E4E" fill-rule="nonzero" stroke-width="1"/>
            <ellipse id="Oval" fill="#EA2424" fill-rule="nonzero" transform="matrix(0.6731415932371263,-0.7395136208713016,0.7395136208713016,0.6731415932371263,-43.383335570371,161.69685706332754)" cx="161.22703" cy="129.925593" rx="1.09" ry="7.35" stroke-width="1"/>
            <path d="M143.23,160.6 L143.92,159.84 C141.655558,158.659841 139.540515,157.212883 137.62,155.53 C135.86867,153.871691 134.336276,151.996525 133.06,149.95 L132.36,150.71 C133.606021,152.758024 135.123081,154.62828 136.87,156.27 C138.832386,157.932245 140.964104,159.383557 143.23,160.6 L143.23,160.6 Z" id="Shape" fill="#FCD39F" fill-rule="nonzero" stroke-width="1"/>
            <path d="M144.46,159.26 L145.15,158.5 C140.66199,156.304872 136.894242,152.873654 134.29,148.61 L133.59,149.37 C134.846986,151.409665 136.374173,153.269872 138.13,154.9 C139.965387,156.716443 142.108632,158.192675 144.46,159.26 Z" id="Shape" fill="#FCD39F" fill-rule="nonzero" stroke-width="1"/>
            <path d="M163.38,138.46 L164.07,137.7 C159.695621,135.33478 155.974916,131.923275 153.24,127.77 L152.54,128.53 C153.811761,130.558415 155.352435,132.405206 157.12,134.02 C159.044839,135.715875 161.143102,137.2041 163.38,138.46 Z" id="Shape" fill="#FCD39F" fill-rule="nonzero" stroke-width="1"/>
            <path d="M165.14,125.79 L161,130" id="Shape" stroke="#405D7B" stroke-linecap="round" stroke-width="1" fill="none"/>
            <path d="M206.32,68.55 C206.32,68.55 206.76,71.2 204.09,75.76 C202.890085,78.0249741 201.091387,79.9170651 198.89,81.23 L166.56,62.29 C167.431194,59.987671 168.501934,57.7658849 169.76,55.65 C171.030559,53.5369508 172.447349,51.5153517 174,49.6 L206.32,68.55 Z" id="Shape" fill="#F24E4E" fill-rule="nonzero" stroke-width="1"/>
            <ellipse id="Oval" fill="#EA2424" fill-rule="nonzero" transform="matrix(0.5052808863647791,-0.8629549384958772,0.8629549384958772,0.5052808863647791,35.959320403829054,174.5161878063967)" cx="170.186844" cy="55.8955772" rx="7.35" ry="1.09" stroke-width="1"/>
            <path d="M203.94,67.15 L203.05,66.63 C202.365273,69.0910487 201.388319,71.4612537 200.14,73.69 C198.882012,75.7476659 197.366422,77.6362727 195.63,79.31 L196.52,79.83 C198.257045,78.183269 199.763971,76.3097026 201,74.26 C202.226472,71.9995864 203.211889,69.616487 203.94,67.15 Z" id="Shape" fill="#FCD39F" fill-rule="nonzero" stroke-width="1"/>
            <path d="M202.37,66.23 L201.48,65.71 C200.265008,70.5571753 197.690684,74.9564239 194.06,78.39 L194.95,78.91 C196.685393,77.2568853 198.189042,75.3764821 199.42,73.32 C200.814742,71.149646 201.81354,68.7491451 202.37,66.23 Z" id="Shape" fill="#FCD39F" fill-rule="nonzero" stroke-width="1"/>
            <path d="M178.1,52 L177.21,51.48 C175.802261,56.2485866 173.235928,60.5945181 169.74,64.13 L170.63,64.65 C172.350356,62.984856 173.837209,61.0943326 175.05,59.03 C176.310521,56.8001776 177.332821,54.4438613 178.1,52 L178.1,52 Z" id="Shape" fill="#FCD39F" fill-rule="nonzero" stroke-width="1"/>
            <path d="M165.34,52.93 L170.34,56.07" id="Shape" stroke="#405D7B" stroke-linecap="round" stroke-width="1" fill="none"/>
            <path d="M205.16,93 C205.16,93 205.23,95.68 201.94,99.82 C200.436309,101.89471 198.39207,103.516957 196.03,104.51 L166.68,81.27 C167.86588,79.1145219 169.23776,77.0667405 170.78,75.15 C172.319239,73.2360679 173.98995,71.4316994 175.78,69.75 L205.16,93 Z" id="Shape" fill="#F24E4E" fill-rule="nonzero" stroke-width="1"/>
            <ellipse id="Oval" fill="#EA2424" fill-rule="nonzero" transform="matrix(0.6222441221822961,-0.7828232574531647,0.7828232574531647,0.6222441221822961,4.959871664400993,162.25113879199026)" cx="170.5964" cy="75.9864" rx="7.3234922" ry="1.08606891" stroke-width="1"/>
            <path d="M203,91.33 L202.19,90.69 C201.167171,93.0298941 199.867929,95.2389416 198.32,97.27 C196.783765,99.1306255 195.016124,100.78737 193.06,102.2 L193.87,102.84 C195.828548,101.45684 197.591169,99.815315 199.11,97.96 C200.635237,95.8923037 201.939058,93.6701108 203,91.33 Z" id="Shape" fill="#FCD39F" fill-rule="nonzero" stroke-width="1"/>
            <path d="M201.57,90.2 L200.76,89.56 C198.87519,94.1880222 195.707594,98.1813451 191.63,101.07 L192.44,101.71 C194.389646,100.319036 196.142198,98.6707616 197.65,96.81 C199.337436,94.8559331 200.664684,92.617896 201.57,90.2 Z" id="Shape" fill="#FCD39F" fill-rule="nonzero" stroke-width="1"/>
            <path d="M179.55,72.73 L178.74,72.09 C176.677851,76.6149629 173.527455,80.5589701 169.57,83.57 L170.38,84.21 C172.318526,82.8043793 174.057677,81.1425989 175.55,79.27 C177.109209,77.2364553 178.449936,75.0443673 179.55,72.73 L179.55,72.73 Z" id="Shape" fill="#FCD39F" fill-rule="nonzero" stroke-width="1"/>
            <path d="M166.78,71.83 L171.26,75.64" id="Shape" stroke="#405D7B" stroke-linecap="round" stroke-width="1" fill="none"/>
            <path d="M205,115.39 C205,115.39 205.07,118.07 201.78,122.21 C200.276309,124.28471 198.23207,125.906957 195.87,126.9 L166.52,103.61 C167.70588,101.454522 169.07776,99.4067405 170.62,97.49 C172.159239,95.5760679 173.82995,93.7716994 175.62,92.09 L205,115.39 Z" id="Shape" fill="#F24E4E" fill-rule="nonzero" stroke-width="1"/>
            <ellipse id="Oval" fill="#EA2424" fill-rule="nonzero" transform="matrix(0.6222441221822961,-0.7828232574531647,0.7828232574531647,0.6222441221822961,-12.576400245274755,170.51513403317537)" cx="170.391" cy="98.2886" rx="7.3234922" ry="1.08606891" stroke-width="1"/>
            <path d="M202.88,113.67 L202.07,113.03 C201.047171,115.369894 199.747929,117.578942 198.2,119.61 C196.663765,121.470625 194.896124,123.12737 192.94,124.54 L193.75,125.18 C195.712076,123.797549 197.478094,122.155994 199,120.3 C200.521764,118.231856 201.822224,116.009679 202.88,113.67 L202.88,113.67 Z" id="Shape" fill="#FCD39F" fill-rule="nonzero" stroke-width="1"/>
            <path d="M201.45,112.54 L200.64,111.9 C198.75519,116.528022 195.587594,120.521345 191.51,123.41 L192.32,124.05 C194.269646,122.659036 196.022198,121.010762 197.53,119.15 C199.217436,117.195933 200.544684,114.957896 201.45,112.54 Z" id="Shape" fill="#FCD39F" fill-rule="nonzero" stroke-width="1"/>
            <path d="M179.42,95.07 L178.61,94.43 C176.547851,98.9549629 173.397455,102.89897 169.44,105.91 L170.25,106.55 C172.188526,105.144379 173.927677,103.482599 175.42,101.61 C176.979209,99.5764553 178.319936,97.3843673 179.42,95.07 L179.42,95.07 Z" id="Shape" fill="#FCD39F" fill-rule="nonzero" stroke-width="1"/>
            <path d="M166.66,94.17 L171.14,97.98" id="Shape" stroke="#405D7B" stroke-linecap="round" stroke-width="1" fill="none"/>
            <path d="M205.11,139.06 C205.11,139.06 205.18,141.74 201.89,145.88 C200.386309,147.95471 198.34207,149.576957 195.98,150.57 L166.63,127.28 C167.81588,125.124522 169.18776,123.07674 170.73,121.16 C172.269239,119.246068 173.93995,117.441699 175.73,115.76 L205.11,139.06 Z" id="Shape" fill="#F24E4E" fill-rule="nonzero" stroke-width="1"/>
            <ellipse id="Oval" fill="#EA2424" fill-rule="nonzero" transform="matrix(0.6222441221822961,-0.7828232574531647,0.7828232574531647,0.6222441221822961,-31.083859458308694,179.44813846358574)" cx="170.3932" cy="121.9316" rx="7.3234922" ry="1.08606891" stroke-width="1"/>
            <path d="M203,137.34 L202.19,136.7 C201.167171,139.039894 199.867929,141.248942 198.32,143.28 C196.783765,145.140625 195.016124,146.79737 193.06,148.21 L193.87,148.85 C195.828548,147.46684 197.591169,145.825315 199.11,143.97 C200.635237,141.902304 201.939058,139.680111 203,137.34 L203,137.34 Z" id="Shape" fill="#FCD39F" fill-rule="nonzero" stroke-width="1"/>
            <path d="M201.53,136.21 L200.72,135.57 C198.83519,140.198022 195.667594,144.191345 191.59,147.08 L192.4,147.72 C194.349646,146.329036 196.102198,144.680762 197.61,142.82 C199.297436,140.865933 200.624684,138.627896 201.53,136.21 L201.53,136.21 Z" id="Shape" fill="#FCD39F" fill-rule="nonzero" stroke-width="1"/>
            <path d="M179.5,118.74 L178.69,118.1 C176.627851,122.624963 173.477455,126.56897 169.52,129.58 L170.33,130.22 C172.268526,128.814379 174.007677,127.152599 175.5,125.28 C177.059209,123.246455 178.399936,121.054367 179.5,118.74 L179.5,118.74 Z" id="Shape" fill="#FCD39F" fill-rule="nonzero" stroke-width="1"/>
            <path d="M166.74,117.84 L171.22,121.65" id="Shape" stroke="#405D7B" stroke-linecap="round" stroke-width="1" fill="none"/>
            <path d="M198.16,63.07 C198.16,63.07 197.53,65.68 193.3,68.84 C191.311207,70.4542126 188.917674,71.4918713 186.38,71.84 L164,41.79 C165.701585,40.0117291 167.555301,38.3855444 169.54,36.93 C171.522792,35.4767807 173.604508,34.1635956 175.77,33 L198.16,63.07 Z" id="Shape" fill="#F24E4E" fill-rule="nonzero" stroke-width="1"/>
            <ellipse id="Oval" fill="#EA2424" fill-rule="nonzero" transform="matrix(0.8020884501190091,-0.597205256327911,0.597205256327911,0.8020884501190091,11.32751779973782,108.81446645388236)" cx="169.839552" cy="37.3166362" rx="7.35" ry="1.09" stroke-width="1"/>
            <path d="M196.51,60.86 L195.9,60 C194.307131,61.9974173 192.480795,63.7968955 190.46,65.36 C188.497151,66.7623884 186.363218,67.9083272 184.11,68.77 L184.73,69.6 C186.97891,68.7666106 189.104829,67.6330113 191.05,66.23 C193.05234,64.6353634 194.882306,62.8355617 196.51,60.86 L196.51,60.86 Z" id="Shape" fill="#FCD39F" fill-rule="nonzero" stroke-width="1"/>
            <path d="M195.43,59.4 L194.81,58.57 C191.791797,62.5636491 187.693826,65.6102351 183,67.35 L183.62,68.18 C185.863815,67.336171 187.983061,66.192451 189.92,64.78 C192.061105,63.3275205 193.926823,61.5058216 195.43,59.4 L195.43,59.4 Z" id="Shape" fill="#FCD39F" fill-rule="nonzero" stroke-width="1"/>
            <path d="M178.64,36.85 L178,36 C174.841146,39.8412005 170.780303,42.840452 166.18,44.73 L166.8,45.56 C169.035786,44.7018038 171.144974,43.5446097 173.07,42.12 C175.10655,40.5637724 176.973517,38.7973607 178.64,36.85 L178.64,36.85 Z" id="Shape" fill="#FCD39F" fill-rule="nonzero" stroke-width="1"/>
            <path d="M166.53,32.7 L169.88,37.53" id="Shape" stroke="#405D7B" stroke-linecap="round" stroke-width="1" fill="none"/>
            <path d="M203.53,44.25 C203.53,44.25 203.24,46.92 199.43,50.59 C197.677591,52.4374853 195.454488,53.7720387 193,54.45 L167,27.45 C168.462822,25.4714058 170.095695,23.6243846 171.88,21.93 C173.662015,20.2365388 175.559952,18.6694045 177.56,17.24 L203.53,44.25 Z" id="Shape" fill="#F24E4E" fill-rule="nonzero" stroke-width="1"/>
            <ellipse id="Oval" fill="#EA2424" fill-rule="nonzero" transform="matrix(0.7200668503280137,-0.6939046988302457,0.6939046988302457,0.7200668503280137,32.72797697194551,125.71781243263574)" cx="172.180084" cy="22.2954774" rx="7.35" ry="1.09" stroke-width="1"/>
            <path d="M201.62,42.27 L200.9,41.53 C199.574838,43.7106365 197.993607,45.7249434 196.19,47.53 C194.419825,49.1710359 192.447178,50.5791093 190.32,51.72 L191.04,52.46 C193.167763,51.3501068 195.135606,49.9574796 196.89,48.32 C198.67396,46.4743452 200.259309,44.4465738 201.62,42.27 L201.62,42.27 Z" id="Shape" fill="#FCD39F" fill-rule="nonzero" stroke-width="1"/>
            <path d="M200.36,41 L199.64,40.26 C197.155814,44.5949904 193.485193,48.1303044 189.06,50.45 L189.78,51.19 C191.9005,50.0628663 193.858342,48.6533546 195.6,47 C197.528003,45.29628 199.139488,43.264996 200.36,41 L200.36,41 Z" id="Shape" fill="#FCD39F" fill-rule="nonzero" stroke-width="1"/>
            <path d="M180.85,20.71 L180.13,19.97 C177.48326,24.181645 173.834642,27.6722249 169.51,30.13 L170.23,30.87 C172.334443,29.7333814 174.275389,28.3171971 176,26.66 C177.821308,24.8526518 179.446963,22.8582921 180.85,20.71 L180.85,20.71 Z" id="Shape" fill="#FCD39F" fill-rule="nonzero" stroke-width="1"/>
            <path d="M168.31,18.12 L172.25,22.49" id="Shape" stroke="#405D7B" stroke-linecap="round" stroke-width="1" fill="none"/>
            <path d="M137.41,69 C137.41,69 134.76,68.55 131.33,64.53 C129.581965,62.6563177 128.381704,60.3388116 127.86,57.83 L156.34,33.48 C158.228108,35.0580154 159.974748,36.7979633 161.56,38.68 C163.146624,40.5597439 164.600154,42.5479054 165.91,44.63 L137.41,69 Z" id="Shape" fill="#F24E4E" fill-rule="nonzero" stroke-width="1"/>
            <ellipse id="Oval" fill="#EA2424" fill-rule="nonzero" transform="matrix(0.7600658111778442,-0.6498461069196041,0.6498461069196041,0.7600658111778442,13.353843564887455,114.0977166362459)" cx="161.190035" cy="38.9648512" rx="1.09" ry="7.35" stroke-width="1"/>
            <path d="M139.5,67.17 L140.28,66.5 C138.178184,65.0477117 136.257845,63.3489507 134.56,61.44 C133.029,59.577901 131.741934,57.5280044 130.73,55.34 L130,56 C130.980372,58.1876853 132.251877,60.2328571 133.78,62.08 C135.503926,63.9715177 137.421029,65.6774714 139.5,67.17 Z" id="Shape" fill="#FCD39F" fill-rule="nonzero" stroke-width="1"/>
            <path d="M140.89,66 L141.67,65.33 C137.487349,62.5927163 134.173951,58.7172557 132.12,54.16 L131.33,54.83 C132.324624,57.0097338 133.609615,59.0448626 135.15,60.88 C136.74506,62.9130936 138.688583,64.6466891 140.89,66 Z" id="Shape" fill="#FCD39F" fill-rule="nonzero" stroke-width="1"/>
            <path d="M162.26,47.72 L163,47 C158.954061,44.1089405 155.686857,40.2611282 153.49,35.8 L152.7,36.47 C153.710439,38.6347892 155.008861,40.6530615 156.56,42.47 C158.268318,44.4173088 160.179085,46.1772252 162.26,47.72 L162.26,47.72 Z" id="Shape" fill="#FCD39F" fill-rule="nonzero" stroke-width="1"/>
            <path d="M165.58,35.36 L161,39" id="Shape" stroke="#405D7B" stroke-linecap="round" stroke-width="1" fill="none"/>
            <path d="M129.58,43.83 C129.58,43.83 127.21,42.56 125.24,37.66 C124.184319,35.3245599 123.789992,32.7441379 124.1,30.2 L158.87,16.2 C160.156417,18.2967027 161.257266,20.5017465 162.16,22.79 C163.06132,25.069069 163.803108,27.4080409 164.38,29.79 L129.58,43.83 Z" id="Shape" fill="#F24E4E" fill-rule="nonzero" stroke-width="1"/>
            <ellipse id="Oval" fill="#EA2424" fill-rule="nonzero" transform="matrix(0.92783625389892,-0.37298778257580883,0.37298778257580883,0.92783625389892,3.090396009103557,61.97190893190239)" cx="161.700166" cy="22.9993957" rx="1.09" ry="7.35" stroke-width="1"/>
            <path d="M132.14,42.8 L133.14,42.42 C131.613744,40.37285 130.338004,38.1503762 129.34,35.8 C128.484617,33.5475985 127.92006,31.1952789 127.66,28.8 L126.66,29.19 C126.887486,31.5867793 127.439187,33.9416004 128.3,36.19 C129.346347,38.5210321 130.633331,40.7363868 132.14,42.8 L132.14,42.8 Z" id="Shape" fill="#FCD39F" fill-rule="nonzero" stroke-width="1"/>
            <path d="M133.83,42.12 L134.83,41.74 C131.74238,37.8113718 129.841139,33.0825547 129.35,28.11 L128.35,28.5 C128.589728,30.898763 129.154918,33.2537218 130.03,35.5 C130.897859,37.9128006 132.184204,40.1537489 133.83,42.12 Z" id="Shape" fill="#FCD39F" fill-rule="nonzero" stroke-width="1"/>
            <path d="M159.92,31.64 L160.92,31.26 C158.011153,27.2278958 156.14567,22.5384231 155.49,17.61 L154.49,18 C154.750518,20.3808613 155.33248,22.7154373 156.22,24.94 C157.215122,27.2968292 158.455272,29.5425056 159.92,31.64 L159.92,31.64 Z" id="Shape" fill="#FCD39F" fill-rule="nonzero" stroke-width="1"/>
            <path d="M167,21 L161.47,23" id="Shape" stroke="#405D7B" stroke-linecap="round" stroke-width="1" fill="none"/>
            <path d="M197,171.7 C197,171.7 196.25,174.28 191.87,177.23 C189.809411,178.751438 187.370915,179.678413 184.82,179.91 L163.89,148.83 C165.672317,147.131783 167.59965,145.592593 169.65,144.23 C171.699394,142.869038 173.841263,141.65275 176.06,140.59 L197,171.7 Z" id="Shape" fill="#F24E4E" fill-rule="nonzero" stroke-width="1"/>
            <ellipse id="Oval" fill="#EA2424" fill-rule="nonzero" transform="matrix(0.829427760784683,-0.5586139898352945,0.5586139898352945,0.829427760784683,-51.81695539389116,119.59413934805995)" cx="169.923387" cy="144.645801" rx="7.35" ry="1.09" stroke-width="1"/>
            <path d="M195.46,169.41 L194.88,168.55 C193.196944,170.470548 191.290046,172.182727 189.2,173.65 C187.17454,174.959109 184.990209,176.004227 182.7,176.76 L183.28,177.62 C185.564624,176.89601 187.740971,175.866702 189.75,174.56 C191.828463,173.04807 193.742304,171.321926 195.46,169.41 Z" id="Shape" fill="#FCD39F" fill-rule="nonzero" stroke-width="1"/>
            <path d="M194.44,167.9 L193.86,167.04 C190.664752,170.880805 186.439041,173.72917 181.68,175.25 L182.26,176.11 C184.540003,175.372371 186.709692,174.329575 188.71,173.01 C190.90701,171.658721 192.847034,169.928612 194.44,167.9 Z" id="Shape" fill="#FCD39F" fill-rule="nonzero" stroke-width="1"/>
            <path d="M178.73,144.58 L178.15,143.72 C174.815594,147.405747 170.620917,150.209069 165.94,151.88 L166.52,152.74 C168.791921,151.987912 170.95154,150.931649 172.94,149.6 C175.040799,148.134466 176.981492,146.451861 178.73,144.58 L178.73,144.58 Z" id="Shape" fill="#FCD39F" fill-rule="nonzero" stroke-width="1"/>
            <path d="M165.37,137.61 C165.940259,139.063598 166.608459,140.476842 167.37,141.84 C167.515213,142.129943 167.707868,142.393575 167.94,142.62 C168.172279,142.854491 168.505304,142.959263 168.83,142.9 C169.17,142.82 169.46,142.51 169.83,142.53 C170.040761,142.551749 170.232876,142.660493 170.36,142.83 C170.712814,143.444019 170.739022,144.192816 170.43,144.83" id="Shape" stroke="#405D7B" stroke-linecap="round" stroke-width="1" fill="none"/>
            <rect id="Rectangle-path" fill="#A85C00" fill-rule="nonzero" x="0.33" y="0.64" width="188.73" height="4.77" rx="2.38" stroke-width="1"/>
        </g>
    </g>
</svg>