<?xml version="1.0" encoding="UTF-8"?><svg xmlns="http://www.w3.org/2000/svg" xmlns:xlink="http://www.w3.org/1999/xlink" width="217.8199920654297" height="195.66000366210938" viewBox="-0.6500000059604645 -0.36000001430511475 217.8199920654297 195.66000366210938" version="1.1">
    <!-- Generator: Sketch 46.2 (44496) - http://www.bohemiancoding.com/sketch -->
    <title>Firecrackers-b</title>
    <desc>Created with Sketch.</desc>
    <defs/>
    <g id="Page-1" stroke="none" fill-rule="evenodd">
        <g id="Firecrackers-b">
            <path d="M171.68,5.4 C163.01,24.92 165.5,46.33 166.27,67.07 C166.910487,84.4272107 166.265391,101.808023 164.34,119.07" id="Shape" stroke="#405D7B" stroke-width="2" stroke-linecap="round" fill="none"/>
            <path d="M136.43,89.13 C136.43,89.13 133.81,88.54 130.59,84.35 C128.942824,82.384758 127.867032,80.0048713 127.48,77.47 L157.21,54.67 C159.012867,56.3459472 160.665821,58.1762432 162.15,60.14 C163.624885,62.1013605 164.961449,64.1630101 166.15,66.31 L136.43,89.13 Z" id="Shape" fill="#F24E4E" fill-rule="nonzero" stroke-width="1"/>
            <ellipse id="Oval" fill="#EA2424" fill-rule="nonzero" transform="matrix(0.7934595771201869,-0.6086229534582591,0.6086229534582591,0.7934595771201869,-3.3676522066130303,110.93806547425746)" cx="161.769536" cy="60.4308468" rx="1.09" ry="7.35" stroke-width="1"/>
            <path d="M138.62,87.45 L139.44,86.82 C137.419205,85.2568955 135.592869,83.4574173 134,81.46 C132.569889,79.5175641 131.393708,77.4004374 130.5,75.16 L129.68,75.79 C130.545548,78.0263549 131.709419,80.1354496 133.14,82.06 C134.772909,84.0435811 136.609653,85.8501591 138.62,87.45 Z" id="Shape" fill="#FCD39F" fill-rule="nonzero" stroke-width="1"/>
            <path d="M140.07,86.34 L140.89,85.71 C136.860058,82.7543702 133.758356,78.7089734 131.95,74.05 L131.13,74.68 C132.005969,76.911276 133.179963,79.0136997 134.62,80.93 C136.102558,83.0413415 137.947795,84.8730354 140.07,86.34 L140.07,86.34 Z" id="Shape" fill="#FCD39F" fill-rule="nonzero" stroke-width="1"/>
            <path d="M162.38,69.23 L163.2,68.6 C159.313858,65.4977284 156.256227,61.4815823 154.3,56.91 L153.48,57.54 C154.368003,59.7592256 155.552068,61.848158 157,63.75 C158.595647,65.7607659 160.398958,67.5975965 162.38,69.23 L162.38,69.23 Z" id="Shape" fill="#FCD39F" fill-rule="nonzero" stroke-width="1"/>
            <path d="M166.35,57.06 L161.57,60.48" id="Shape" stroke="#405D7B" stroke-linecap="round" stroke-width="1" fill="none"/>
            <path d="M142.74,112.2 C142.74,112.2 140.06,112.08 136.15,108.53 C134.184297,106.886475 132.707329,104.735013 131.88,102.31 L157.09,74.6 C159.161007,75.9306247 161.111762,77.4396992 162.92,79.11 C164.736173,80.7760995 166.433645,82.5671325 168,84.47 L142.74,112.2 Z" id="Shape" fill="#F24E4E" fill-rule="nonzero" stroke-width="1"/>
            <ellipse id="Oval" fill="#EA2424" fill-rule="nonzero" transform="matrix(0.6731415932371263,-0.7395136208713016,0.7395136208713016,0.6731415932371263,-5.633932746649947,146.2243719099448)" cx="162.598566" cy="79.485542" rx="1.09" ry="7.35" stroke-width="1"/>
            <path d="M144.6,110.16 L145.29,109.4 C143.025558,108.219841 140.910515,106.772883 138.99,105.09 C137.23867,103.431691 135.706276,101.556525 134.43,99.51 L133.73,100.27 C134.976021,102.318024 136.493081,104.18828 138.24,105.83 C140.202386,107.492245 142.334104,108.943557 144.6,110.16 L144.6,110.16 Z" id="Shape" fill="#FCD39F" fill-rule="nonzero" stroke-width="1"/>
            <path d="M145.82,108.82 L146.51,108.06 C142.02199,105.864872 138.254242,102.433654 135.65,98.17 L134.95,98.93 C136.206986,100.969665 137.734173,102.829872 139.49,104.46 C141.325387,106.276443 143.468632,107.752675 145.82,108.82 Z" id="Shape" fill="#FCD39F" fill-rule="nonzero" stroke-width="1"/>
            <path d="M164.74,88 L165.43,87.24 C161.055621,84.8747796 157.334916,81.4632752 154.6,77.31 L153.9,78.07 C155.171761,80.0984151 156.712435,81.9452062 158.48,83.56 C160.404839,85.2558748 162.503102,86.7440995 164.74,88 L164.74,88 Z" id="Shape" fill="#FCD39F" fill-rule="nonzero" stroke-width="1"/>
            <path d="M166.51,75.35 L162.41,79.56" id="Shape" stroke="#405D7B" stroke-linecap="round" stroke-width="1" fill="none"/>
            <path d="M142.62,137.5 C142.62,137.5 139.94,137.38 136.03,133.83 C134.064297,132.186475 132.587329,130.035013 131.76,127.61 L157,99.9 C159.071007,101.230625 161.021762,102.739699 162.83,104.41 C164.635848,106.07714 166.323272,107.868149 167.88,109.77 L142.62,137.5 Z" id="Shape" fill="#F24E4E" fill-rule="nonzero" stroke-width="1"/>
            <ellipse id="Oval" fill="#EA2424" fill-rule="nonzero" transform="matrix(0.6731415932371263,-0.7395136208713016,0.7395136208713016,0.6731415932371263,-24.379795549858898,154.40225344947692)" cx="162.476819" cy="104.780639" rx="1.09" ry="7.35" stroke-width="1"/>
            <path d="M144.48,135.46 L145.17,134.7 C142.905558,133.519841 140.790515,132.072883 138.87,130.39 C137.11867,128.731691 135.586276,126.856525 134.31,124.81 L133.61,125.57 C134.856021,127.618024 136.373081,129.48828 138.12,131.13 C140.082386,132.792245 142.214104,134.243557 144.48,135.46 L144.48,135.46 Z" id="Shape" fill="#FCD39F" fill-rule="nonzero" stroke-width="1"/>
            <path d="M145.71,134.11 L146.4,133.35 C141.91199,131.154872 138.144242,127.723654 135.54,123.46 L134.84,124.22 C136.096986,126.259665 137.624173,128.119872 139.38,129.75 C141.215387,131.566443 143.358632,133.042675 145.71,134.11 Z" id="Shape" fill="#FCD39F" fill-rule="nonzero" stroke-width="1"/>
            <path d="M164.63,113.32 L165.32,112.56 C160.945621,110.19478 157.224916,106.783275 154.49,102.63 L153.79,103.39 C155.061761,105.418415 156.602435,107.265206 158.37,108.88 C160.294839,110.575875 162.393102,112.0641 164.63,113.32 L164.63,113.32 Z" id="Shape" fill="#FCD39F" fill-rule="nonzero" stroke-width="1"/>
            <path d="M166.39,100.65 L162.29,104.86" id="Shape" stroke="#405D7B" stroke-linecap="round" stroke-width="1" fill="none"/>
            <path d="M206.33,68.55 C206.33,68.55 206.77,71.2 204.1,75.76 C202.900085,78.0249741 201.101387,79.9170651 198.9,81.23 L166.58,62.29 C167.451194,59.987671 168.521934,57.7658849 169.78,55.65 C171.044125,53.5375624 172.454222,51.5159787 174,49.6 L206.33,68.55 Z" id="Shape" fill="#F24E4E" fill-rule="nonzero" stroke-width="1"/>
            <ellipse id="Oval" fill="#EA2424" fill-rule="nonzero" transform="matrix(0.5052808863647791,-0.8629549384958772,0.8629549384958772,0.5052808863647791,35.95707958273192,174.52957906792523)" cx="170.197403" cy="55.9042267" rx="7.35" ry="1.09" stroke-width="1"/>
            <path d="M204,67.15 L203.11,66.63 C202.425273,69.0910487 201.448319,71.4612537 200.2,73.69 C198.942012,75.7476659 197.426422,77.6362727 195.69,79.31 L196.58,79.83 C198.295882,78.1794304 199.782485,76.3060423 201,74.26 C202.247153,72.0020466 203.252714,69.618868 204,67.15 Z" id="Shape" fill="#FCD39F" fill-rule="nonzero" stroke-width="1"/>
            <path d="M202.38,66.23 L201.49,65.71 C200.275008,70.5571753 197.700684,74.9564239 194.07,78.39 L194.96,78.91 C196.695393,77.2568853 198.199042,75.3764821 199.43,73.32 C200.824742,71.149646 201.82354,68.7491451 202.38,66.23 Z" id="Shape" fill="#FCD39F" fill-rule="nonzero" stroke-width="1"/>
            <path d="M178.12,52 L177.23,51.48 C175.822261,56.2485866 173.255928,60.5945181 169.76,64.13 L170.65,64.65 C172.370356,62.984856 173.857209,61.0943326 175.07,59.03 C176.330521,56.8001776 177.352821,54.4438613 178.12,52 L178.12,52 Z" id="Shape" fill="#FCD39F" fill-rule="nonzero" stroke-width="1"/>
            <path d="M165.35,52.93 L170.35,56.07" id="Shape" stroke="#405D7B" stroke-linecap="round" stroke-width="1" fill="none"/>
            <path d="M205.18,93 C205.18,93 205.25,95.68 201.96,99.82 C200.456309,101.89471 198.41207,103.516957 196.05,104.51 L166.69,81.27 C167.87588,79.1145219 169.24776,77.0667405 170.79,75.15 C172.329239,73.2360679 173.99995,71.4316994 175.79,69.75 L205.18,93 Z" id="Shape" fill="#F24E4E" fill-rule="nonzero" stroke-width="1"/>
            <ellipse id="Oval" fill="#EA2424" fill-rule="nonzero" transform="matrix(0.6222441221822961,-0.7828232574531647,0.7828232574531647,0.6222441221822961,5.01879361145879,162.2576427041722)" cx="170.6326" cy="75.9286" rx="7.3234922" ry="1.08606891" stroke-width="1"/>
            <path d="M203,91.33 L202.19,90.69 C201.167171,93.0298941 199.867929,95.2389416 198.32,97.27 C196.783765,99.1306255 195.016124,100.78737 193.06,102.2 L193.87,102.84 C195.828548,101.45684 197.591169,99.815315 199.11,97.96 C200.635237,95.8923037 201.939058,93.6701108 203,91.33 L203,91.33 Z" id="Shape" fill="#FCD39F" fill-rule="nonzero" stroke-width="1"/>
            <path d="M201.59,90.2 L200.78,89.56 C198.89519,94.1880222 195.727594,98.1813451 191.65,101.07 L192.46,101.71 C194.409646,100.319036 196.162198,98.6707616 197.67,96.81 C199.357436,94.8559331 200.684684,92.617896 201.59,90.2 Z" id="Shape" fill="#FCD39F" fill-rule="nonzero" stroke-width="1"/>
            <path d="M179.56,72.73 L178.75,72.09 C176.687851,76.6149629 173.537455,80.5589701 169.58,83.57 L170.39,84.21 C172.328526,82.8043793 174.067677,81.1425989 175.56,79.27 C177.119209,77.2364553 178.459936,75.0443673 179.56,72.73 Z" id="Shape" fill="#FCD39F" fill-rule="nonzero" stroke-width="1"/>
            <path d="M166.8,71.83 L171.28,75.64" id="Shape" stroke="#405D7B" stroke-linecap="round" stroke-width="1" fill="none"/>
            <path d="M205.05,115.39 C205.05,115.39 205.12,118.07 201.83,122.21 C200.326309,124.28471 198.28207,125.906957 195.92,126.9 L166.57,103.61 C167.75588,101.454522 169.12776,99.4067405 170.67,97.49 C172.209239,95.5760679 173.87995,93.7716994 175.67,92.09 L205.05,115.39 Z" id="Shape" fill="#F24E4E" fill-rule="nonzero" stroke-width="1"/>
            <ellipse id="Oval" fill="#EA2424" fill-rule="nonzero" transform="matrix(0.6222441221822961,-0.7828232574531647,0.7828232574531647,0.6222441221822961,-12.516858422940857,170.52732251248472)" cx="170.4334" cy="98.233" rx="7.3234922" ry="1.08606891" stroke-width="1"/>
            <path d="M202.89,113.67 L202.08,113.03 C201.057171,115.369894 199.757929,117.578942 198.21,119.61 C196.673765,121.470625 194.906124,123.12737 192.95,124.54 L193.76,125.18 C195.718548,123.79684 197.481169,122.155315 199,120.3 C200.525237,118.232304 201.829058,116.010111 202.89,113.67 L202.89,113.67 Z" id="Shape" fill="#FCD39F" fill-rule="nonzero" stroke-width="1"/>
            <path d="M201.47,112.54 L200.66,111.9 C198.77519,116.528022 195.607594,120.521345 191.53,123.41 L192.34,124.05 C194.289646,122.659036 196.042198,121.010762 197.55,119.15 C199.237436,117.195933 200.564684,114.957896 201.47,112.54 L201.47,112.54 Z" id="Shape" fill="#FCD39F" fill-rule="nonzero" stroke-width="1"/>
            <path d="M179.44,95.07 L178.63,94.43 C176.567851,98.9549629 173.417455,102.89897 169.46,105.91 L170.27,106.55 C172.208526,105.144379 173.947677,103.482599 175.44,101.61 C176.999209,99.5764553 178.339936,97.3843673 179.44,95.07 Z" id="Shape" fill="#FCD39F" fill-rule="nonzero" stroke-width="1"/>
            <path d="M166.67,94.17 L171.15,97.98" id="Shape" stroke="#405D7B" stroke-linecap="round" stroke-width="1" fill="none"/>
            <path d="M198.18,63.07 C198.18,63.07 197.55,65.68 193.32,68.84 C191.331207,70.4542126 188.937674,71.4918713 186.4,71.84 L164,41.79 C165.701585,40.0117291 167.555301,38.3855444 169.54,36.93 C171.52601,35.4763849 173.611079,34.1631925 175.78,33 L198.18,63.07 Z" id="Shape" fill="#F24E4E" fill-rule="nonzero" stroke-width="1"/>
            <ellipse id="Oval" fill="#EA2424" fill-rule="nonzero" transform="matrix(0.8020884501190091,-0.597205256327911,0.597205256327911,0.8020884501190091,11.328840257552912,108.81708101814667)" cx="169.844158" cy="37.3159482" rx="7.35" ry="1.09" stroke-width="1"/>
            <path d="M196.53,60.86 L195.91,60.03 C194.317131,62.0274173 192.490795,63.8268955 190.47,65.39 C188.507151,66.7923884 186.373218,67.9383272 184.12,68.8 L184.74,69.63 C186.98891,68.7966106 189.114829,67.6630113 191.06,66.26 C193.067371,64.6564821 194.900762,62.8465526 196.53,60.86 L196.53,60.86 Z" id="Shape" fill="#FCD39F" fill-rule="nonzero" stroke-width="1"/>
            <path d="M195.44,59.4 L194.82,58.57 C191.799099,62.5651761 187.697475,65.6118985 183,67.35 L183.62,68.18 C185.863815,67.336171 187.983061,66.192451 189.92,64.78 C192.064686,63.3284492 193.933844,61.5066967 195.44,59.4 L195.44,59.4 Z" id="Shape" fill="#FCD39F" fill-rule="nonzero" stroke-width="1"/>
            <path d="M178.65,36.85 L178,36 C174.841146,39.8412005 170.780303,42.840452 166.18,44.73 L166.8,45.56 C169.035786,44.7018038 171.144974,43.5446097 173.07,42.12 C175.110041,40.5643195 176.980379,38.7978892 178.65,36.85 L178.65,36.85 Z" id="Shape" fill="#FCD39F" fill-rule="nonzero" stroke-width="1"/>
            <path d="M166.55,32.7 L169.9,37.53" id="Shape" stroke="#405D7B" stroke-linecap="round" stroke-width="1" fill="none"/>
            <path d="M203.55,44.25 C203.55,44.25 203.26,46.92 199.45,50.59 C197.692072,52.4405831 195.461673,53.7753642 193,54.45 L167,27.45 C168.462822,25.4714058 170.095695,23.6243846 171.88,21.93 C173.662015,20.2365388 175.559952,18.6694045 177.56,17.24 L203.55,44.25 Z" id="Shape" fill="#F24E4E" fill-rule="nonzero" stroke-width="1"/>
            <ellipse id="Oval" fill="#EA2424" fill-rule="nonzero" transform="matrix(0.7200668503280137,-0.6939046988302457,0.6939046988302457,0.7200668503280137,32.72585109176873,125.72361675219402)" cx="172.186215" cy="22.3010136" rx="7.35" ry="1.09" stroke-width="1"/>
            <path d="M201.63,42.27 L200.91,41.53 C199.584838,43.7106365 198.003607,45.7249434 196.2,47.53 C194.429825,49.1710359 192.457178,50.5791093 190.33,51.72 L191.05,52.46 C193.177763,51.3501068 195.145606,49.9574796 196.9,48.32 C198.68396,46.4743452 200.269309,44.4465738 201.63,42.27 Z" id="Shape" fill="#FCD39F" fill-rule="nonzero" stroke-width="1"/>
            <path d="M200.37,41 L199.65,40.26 C197.165814,44.5949904 193.495193,48.1303044 189.07,50.45 L189.79,51.19 C191.9105,50.0628663 193.868342,48.6533546 195.61,47 C197.538003,45.29628 199.149488,43.264996 200.37,41 Z" id="Shape" fill="#FCD39F" fill-rule="nonzero" stroke-width="1"/>
            <path d="M180.86,20.71 L180.14,19.97 C177.49326,24.181645 173.844642,27.6722249 169.52,30.13 L170.24,30.87 C172.340929,29.7326191 174.278471,28.3164642 176,26.66 C177.824798,24.8531539 179.45382,22.858776 180.86,20.71 L180.86,20.71 Z" id="Shape" fill="#FCD39F" fill-rule="nonzero" stroke-width="1"/>
            <path d="M168.33,18.12 L172.27,22.49" id="Shape" stroke="#405D7B" stroke-linecap="round" stroke-width="1" fill="none"/>
            <path d="M137.42,69 C137.42,69 134.77,68.55 131.34,64.53 C129.591965,62.6563177 128.391704,60.3388116 127.87,57.83 L156.35,33.48 C158.238108,35.0580154 159.984748,36.7979633 161.57,38.68 C163.156624,40.5597439 164.610154,42.5479054 165.92,44.63 L137.42,69 Z" id="Shape" fill="#F24E4E" fill-rule="nonzero" stroke-width="1"/>
            <ellipse id="Oval" fill="#EA2424" fill-rule="nonzero" transform="matrix(0.7600658111778442,-0.6498461069196041,0.6498461069196041,0.7600658111778442,13.357138805738998,114.10871958124538)" cx="161.206583" cy="38.9658905" rx="1.09" ry="7.35" stroke-width="1"/>
            <path d="M139.52,67.17 L140.3,66.5 C138.198184,65.0477117 136.277845,63.3489507 134.58,61.44 C133.049,59.577901 131.761934,57.5280044 130.75,55.34 L130,56 C130.980372,58.1876853 132.251877,60.2328571 133.78,62.08 C135.510205,63.9725901 137.434053,65.6785803 139.52,67.17 Z" id="Shape" fill="#FCD39F" fill-rule="nonzero" stroke-width="1"/>
            <path d="M140.9,66 L141.68,65.33 C137.497349,62.5927163 134.183951,58.7172557 132.13,54.16 L131.34,54.83 C132.334624,57.0097338 133.619615,59.0448626 135.16,60.88 C136.75506,62.9130936 138.698583,64.6466891 140.9,66 Z" id="Shape" fill="#FCD39F" fill-rule="nonzero" stroke-width="1"/>
            <path d="M162.27,47.72 L163.05,47.05 C159.004061,44.1589405 155.736857,40.3111282 153.54,35.85 L152.75,36.52 C153.760439,38.6847892 155.058861,40.7030615 156.61,42.52 C158.3084,44.4477008 160.205582,46.1906953 162.27,47.72 L162.27,47.72 Z" id="Shape" fill="#FCD39F" fill-rule="nonzero" stroke-width="1"/>
            <path d="M165.6,35.36 L161,39" id="Shape" stroke="#405D7B" stroke-linecap="round" stroke-width="1" fill="none"/>
            <path d="M129.6,43.83 C129.6,43.83 127.23,42.56 125.26,37.66 C124.204319,35.3245599 123.809992,32.7441379 124.12,30.2 L158.89,16.2 C160.176417,18.2967027 161.277266,20.5017465 162.18,22.79 C163.08132,25.069069 163.823108,27.4080409 164.4,29.79 L129.6,43.83 Z" id="Shape" fill="#F24E4E" fill-rule="nonzero" stroke-width="1"/>
            <ellipse id="Oval" fill="#EA2424" fill-rule="nonzero" transform="matrix(0.92783625389892,-0.37298778257580883,0.37298778257580883,0.92783625389892,3.089157751159661,61.97365683338048)" cx="161.704064" cy="23.0034703" rx="1.09" ry="7.35" stroke-width="1"/>
            <path d="M132.16,42.8 L133.16,42.42 C131.633744,40.37285 130.358004,38.1503762 129.36,35.8 C128.504617,33.5475985 127.94006,31.1952789 127.68,28.8 L126.68,29.19 C126.907486,31.5867793 127.459187,33.9416004 128.32,36.19 C129.366347,38.5210321 130.653331,40.7363868 132.16,42.8 L132.16,42.8 Z" id="Shape" fill="#FCD39F" fill-rule="nonzero" stroke-width="1"/>
            <path d="M133.85,42.12 L134.85,41.74 C131.76238,37.8113718 129.861139,33.0825547 129.37,28.11 L128.37,28.5 C128.609728,30.898763 129.174918,33.2537218 130.05,35.5 C130.917859,37.9128006 132.204204,40.1537489 133.85,42.12 Z" id="Shape" fill="#FCD39F" fill-rule="nonzero" stroke-width="1"/>
            <path d="M159.93,31.64 L160.93,31.26 C158.021153,27.2278958 156.15567,22.5384231 155.5,17.61 L154.5,18 C154.760518,20.3808613 155.34248,22.7154373 156.23,24.94 C157.225122,27.2968292 158.465272,29.5425056 159.93,31.64 L159.93,31.64 Z" id="Shape" fill="#FCD39F" fill-rule="nonzero" stroke-width="1"/>
            <path d="M167,21 L161.47,23" id="Shape" stroke="#405D7B" stroke-linecap="round" stroke-width="1" fill="none"/>
            <rect id="Rectangle-path" fill="#A85C00" fill-rule="nonzero" x="0.35" y="0.64" width="188.73" height="4.77" rx="2.38" stroke-width="1"/>
            <path d="M149.49,165.94 C150.86,164.7 151.21,161.76 151.21,161.76 C151.993262,163.418888 153.505888,164.617154 155.3,165 C157.65,165.44 160.42,163.41 160.42,163.41 C160.42,163.41 159.13,166.52 159.55,167.96 C159.97,169.4 162.84,170.11 162.84,170.11 C161.52732,170.294094 160.374573,171.077372 159.72,172.23 C158.62,174.18 161.37,176.68 161.37,176.68 C159.484578,175.647407 157.287224,175.33807 155.19,175.81 C151.36,176.51 151.97,179.39 151.97,179.39 C151.97,179.39 151.88,174.59 148.74,174.71 C147.334478,174.824443 145.970149,175.240563 144.74,175.93 C144.74,175.93 148.2,173.86 147.4,170.76 C146.51,167.32 144.35,166.69 144.35,166.69 C144.35,166.69 147.89,167.39 149.49,165.94 Z" id="Shape" fill="#FFD45C" fill-rule="nonzero" stroke-width="1"/>
            <polygon id="Shape" fill="#FFD45C" fill-rule="nonzero" points="154.31 168.36 156.63 162.88 155.32 168.68" stroke-width="1"/>
            <polygon id="Shape" fill="#FFD45C" fill-rule="nonzero" points="153.5 166.1 154.98 160.22 154.61 166.34" stroke-width="1"/>
            <polygon id="Shape" fill="#FFD45C" fill-rule="nonzero" points="151.37 169.09 148.2 163.91 152.31 168.46" stroke-width="1"/>
            <polygon id="Shape" fill="#FFD45C" fill-rule="nonzero" points="148.63 170.48 142.68 169.26 148.81 169.37" stroke-width="1"/>
            <polygon id="Shape" fill="#FFD45C" fill-rule="nonzero" points="151.15 171.81 145.09 172.04 151.06 170.69" stroke-width="1"/>
            <polygon id="Shape" fill="#FFD45C" fill-rule="nonzero" points="152.03 174.79 148.48 179.71 151.09 174.16" stroke-width="1"/>
            <polygon id="Shape" fill="#FFD45C" fill-rule="nonzero" points="155.22 173.9 155.47 179.96 154.09 173.99" stroke-width="1"/>
            <polygon id="Shape" fill="#FFD45C" fill-rule="nonzero" points="156.24 171.94 157.6 177.85 155.15 172.24" stroke-width="1"/>
            <polygon id="Shape" fill="#FFD45C" fill-rule="nonzero" points="156.75 170.96 162.06 173.89 156.24 171.97" stroke-width="1"/>
            <polygon id="Shape" fill="#FFD45C" fill-rule="nonzero" points="151.79 172.98 147.51 177.28 150.96 172.21" stroke-width="1"/>
            <polygon id="Shape" fill="#FFD45C" fill-rule="nonzero" points="155.81 168.72 161.75 168.42 155.96 169.76" stroke-width="1"/>
            <polygon id="Shape" fill="#FFD45C" fill-rule="nonzero" points="156.65 167.07 162.64 166.1 156.88 168.18" stroke-width="1"/>
            <path d="M159.14,169.85 C159.63567,168.696067 159.388655,167.357257 158.513828,166.456186 C157.639002,165.555115 156.308076,165.268645 155.14,165.73 C154.721371,164.837957 153.805479,164.287039 152.821271,164.335263 C151.837063,164.383487 150.979416,165.021304 150.65,165.95 C149.779717,165.773878 148.889576,166.143186 148.399582,166.88367 C147.909589,167.624154 147.917665,168.587832 148.42,169.32 C148.169531,169.74806 148.035102,170.234072 148.03,170.73 C148.03,172.32058 149.31942,173.61 150.91,173.61 L151,173.61 C151.131803,174.19611 151.611378,174.640249 152.205863,174.72676 C152.800349,174.813271 153.386617,174.524236 153.68,174 C154.421326,174.980694 155.629534,175.4914 156.849503,175.33974 C158.069472,175.18808 159.11586,174.397094 159.594503,173.26474 C160.073146,172.132385 159.911326,170.830694 159.17,169.85 L159.14,169.85 Z" id="Shape" fill="#F7E1C6" fill-rule="nonzero" stroke-width="1"/>
            <path d="M202.44,151.91 C203.81,150.67 204.16,147.73 204.16,147.73 C204.933493,149.404255 206.447717,150.618596 208.25,151.01 C210.6,151.45 213.37,149.42 213.37,149.42 C213.37,149.42 212.08,152.53 212.5,153.97 C212.92,155.41 215.79,156.12 215.79,156.12 C214.47732,156.304094 213.324573,157.087372 212.67,158.24 C211.57,160.19 214.32,162.69 214.32,162.69 C212.434578,161.657407 210.237224,161.34807 208.14,161.82 C204.31,162.52 204.92,165.4 204.92,165.4 C204.92,165.4 204.83,160.6 201.69,160.72 C200.284478,160.834443 198.920149,161.250563 197.69,161.94 C197.69,161.94 201.15,159.87 200.35,156.77 C199.46,153.33 197.3,152.7 197.3,152.7 C197.3,152.7 200.84,153.37 202.44,151.91 Z" id="Shape" fill="#FFD45C" fill-rule="nonzero" stroke-width="1"/>
            <polygon id="Shape" fill="#FFD45C" fill-rule="nonzero" points="207.26 154.34 209.58 148.86 208.26 154.65" stroke-width="1"/>
            <polygon id="Shape" fill="#FFD45C" fill-rule="nonzero" points="206.45 152.08 207.93 146.19 207.56 152.31" stroke-width="1"/>
            <polygon id="Shape" fill="#FFD45C" fill-rule="nonzero" points="204.32 155.06 201.15 149.88 205.26 154.43" stroke-width="1"/>
            <polygon id="Shape" fill="#FFD45C" fill-rule="nonzero" points="201.57 156.45 195.63 155.24 201.76 155.34" stroke-width="1"/>
            <polygon id="Shape" fill="#FFD45C" fill-rule="nonzero" points="204.1 157.79 198.03 158.01 204.01 156.66" stroke-width="1"/>
            <polygon id="Shape" fill="#FFD45C" fill-rule="nonzero" points="204.98 160.76 201.43 165.68 204.04 160.13" stroke-width="1"/>
            <polygon id="Shape" fill="#FFD45C" fill-rule="nonzero" points="208.17 159.88 208.42 165.94 207.04 159.96" stroke-width="1"/>
            <polygon id="Shape" fill="#FFD45C" fill-rule="nonzero" points="209.19 157.91 210.55 163.83 208.1 158.21" stroke-width="1"/>
            <polygon id="Shape" fill="#FFD45C" fill-rule="nonzero" points="209.7 156.93 215.01 159.86 209.19 157.94" stroke-width="1"/>
            <polygon id="Shape" fill="#FFD45C" fill-rule="nonzero" points="204.74 158.95 200.46 163.25 203.91 158.18" stroke-width="1"/>
            <polygon id="Shape" fill="#FFD45C" fill-rule="nonzero" points="208.76 154.7 214.7 154.4 208.91 155.74" stroke-width="1"/>
            <polygon id="Shape" fill="#FFD45C" fill-rule="nonzero" points="209.6 153.04 215.59 152.07 209.82 154.15" stroke-width="1"/>
            <path d="M212.09,155.82 C212.58567,154.666067 212.338655,153.327257 211.463828,152.426186 C210.589002,151.525115 209.258076,151.238645 208.09,151.7 C207.671371,150.807957 206.755479,150.257039 205.771271,150.305263 C204.787063,150.353487 203.929416,150.991304 203.6,151.92 C202.729717,151.743878 201.839576,152.113186 201.349582,152.85367 C200.859589,153.594154 200.867665,154.557832 201.37,155.29 C201.119531,155.71806 200.985102,156.204072 200.98,156.7 C200.98,158.29058 202.26942,159.58 203.86,159.58 L203.93,159.58 C204.061803,160.16611 204.541378,160.610249 205.135863,160.69676 C205.730349,160.783271 206.316617,160.494236 206.61,159.97 C207.755991,161.486022 209.913978,161.785991 211.43,160.64 C212.946021,159.494009 213.245991,157.336022 212.1,155.82 L212.09,155.82 Z" id="Shape" fill="#F7E1C6" fill-rule="nonzero" stroke-width="1"/>
            <path d="M177.7,180.27 C179.07,179.03 179.42,176.09 179.42,176.09 C180.193493,177.764255 181.707717,178.978596 183.51,179.37 C185.86,179.81 188.63,177.78 188.63,177.78 C188.63,177.78 187.34,180.89 187.76,182.33 C188.18,183.77 191.05,184.48 191.05,184.48 C189.73732,184.664094 188.584573,185.447372 187.93,186.6 C186.83,188.55 189.58,191.05 189.58,191.05 C187.694578,190.017407 185.497224,189.70807 183.4,190.18 C179.57,190.88 180.18,193.76 180.18,193.76 C180.18,193.76 180.09,188.96 176.95,189.08 C175.544478,189.194443 174.180149,189.610563 172.95,190.3 C172.95,190.3 176.41,188.23 175.61,185.13 C174.72,181.69 172.56,181.06 172.56,181.06 C172.56,181.06 176.1,181.73 177.7,180.27 Z" id="Shape" fill="#FFD45C" fill-rule="nonzero" stroke-width="1"/>
            <polygon id="Shape" fill="#FFD45C" fill-rule="nonzero" points="182.52 182.7 184.84 177.22 183.53 183.01" stroke-width="1"/>
            <polygon id="Shape" fill="#FFD45C" fill-rule="nonzero" points="181.71 180.44 183.19 174.56 182.82 180.67" stroke-width="1"/>
            <polygon id="Shape" fill="#FFD45C" fill-rule="nonzero" points="179.58 183.42 176.41 178.25 180.52 182.79" stroke-width="1"/>
            <polygon id="Shape" fill="#FFD45C" fill-rule="nonzero" points="176.84 184.82 170.9 183.6 177.03 183.7" stroke-width="1"/>
            <polygon id="Shape" fill="#FFD45C" fill-rule="nonzero" points="179.36 186.15 173.3 186.37 179.28 185.02" stroke-width="1"/>
            <polygon id="Shape" fill="#FFD45C" fill-rule="nonzero" points="180.25 189.12 176.69 194.04 179.31 188.5" stroke-width="1"/>
            <polygon id="Shape" fill="#FFD45C" fill-rule="nonzero" points="183.44 188.24 183.68 194.3 182.31 188.33" stroke-width="1"/>
            <polygon id="Shape" fill="#FFD45C" fill-rule="nonzero" points="184.45 186.28 185.81 192.19 183.36 186.57" stroke-width="1"/>
            <polygon id="Shape" fill="#FFD45C" fill-rule="nonzero" points="184.96 185.29 190.28 188.22 184.46 186.3" stroke-width="1"/>
            <polygon id="Shape" fill="#FFD45C" fill-rule="nonzero" points="180 187.31 175.72 191.61 179.17 186.54" stroke-width="1"/>
            <polygon id="Shape" fill="#FFD45C" fill-rule="nonzero" points="184.02 183.06 189.96 182.76 184.17 184.1" stroke-width="1"/>
            <polygon id="Shape" fill="#FFD45C" fill-rule="nonzero" points="184.86 181.4 190.85 180.43 185.09 182.51" stroke-width="1"/>
            <path d="M187.35,184.18 C187.84567,183.026067 187.598655,181.687257 186.723828,180.786186 C185.849002,179.885115 184.518076,179.598645 183.35,180.06 C182.931371,179.167957 182.015479,178.617039 181.031271,178.665263 C180.047063,178.713487 179.189416,179.351304 178.86,180.28 C177.989717,180.103878 177.099576,180.473186 176.609582,181.21367 C176.119589,181.954154 176.127665,182.917832 176.63,183.65 C176.379531,184.07806 176.245102,184.564072 176.24,185.06 C176.24,186.65058 177.52942,187.94 179.12,187.94 L179.19,187.94 C179.321803,188.52611 179.801378,188.970249 180.395863,189.05676 C180.990349,189.143271 181.576617,188.854236 181.87,188.33 C183.015991,189.846022 185.173978,190.145991 186.69,189 C188.206022,187.854009 188.505991,185.696022 187.36,184.18 L187.35,184.18 Z" id="Shape" fill="#F7E1C6" fill-rule="nonzero" stroke-width="1"/>
            <circle id="Oval" fill="#F24E4E" fill-rule="nonzero" cx="205.88" cy="104.87" r="1" stroke-width="1"/>
            <path d="M202.13,104.41 C202.763793,104.335921 203.402485,104.312514 204.04,104.34 C204.67,104.34 205.3,104.41 205.92,104.48 C206.54,104.55 207.17,104.66 207.78,104.79 C208.406647,104.916658 209.021995,105.093905 209.62,105.32 C208.986263,105.39481 208.347513,105.41822 207.71,105.39 C207.08,105.39 206.45,105.32 205.83,105.24 C205.21,105.16 204.58,105.06 203.97,104.92 C203.344094,104.799142 202.728814,104.628603 202.13,104.41 Z" id="Shape" fill="#F24E4E" fill-rule="nonzero" stroke-width="1"/>
            <path d="M202.86,102.6 C203.446406,102.854507 204.011538,103.155465 204.55,103.5 C205.083333,103.833333 205.603333,104.19 206.11,104.57 C206.61,104.95 207.11,105.35 207.57,105.77 C208.049927,106.193271 208.49472,106.654786 208.9,107.15 C208.313599,106.899369 207.748424,106.601733 207.21,106.26 C206.67,105.93 206.15,105.57 205.65,105.19 C205.15,104.81 204.65,104.41 204.19,103.99 C203.710181,103.563007 203.265419,103.098181 202.86,102.6 Z" id="Shape" fill="#F24E4E" fill-rule="nonzero" stroke-width="1"/>
            <path d="M204.4,101.39 C204.77571,101.902665 205.110095,102.444369 205.4,103.01 C205.7,103.57 205.973333,104.136667 206.22,104.71 C206.47,105.29 206.69,105.88 206.88,106.48 C207.083373,107.086542 207.23721,107.708582 207.34,108.34 C206.963687,107.827742 206.629271,107.285988 206.34,106.72 C206.04,106.16 205.77,105.6 205.52,105.02 C205.27,104.44 205.06,103.85 204.86,103.25 C204.657335,102.643252 204.503511,102.02127 204.4,101.39 L204.4,101.39 Z" id="Shape" fill="#F24E4E" fill-rule="nonzero" stroke-width="1"/>
            <path d="M206.34,101.12 C206.414079,101.753793 206.437486,102.392485 206.41,103.03 C206.41,103.66 206.34,104.29 206.27,104.91 C206.2,105.53 206.09,106.16 205.96,106.77 C205.833342,107.396647 205.656095,108.011995 205.43,108.61 C205.35519,107.976263 205.33178,107.337513 205.36,106.7 C205.36,106.07 205.43,105.44 205.51,104.82 C205.59,104.2 205.69,103.57 205.83,102.96 C205.950858,102.334094 206.121397,101.718814 206.34,101.12 L206.34,101.12 Z" id="Shape" fill="#F24E4E" fill-rule="nonzero" stroke-width="1"/>
            <path d="M208.15,101.85 C207.895493,102.436406 207.594535,103.001538 207.25,103.54 C206.916667,104.073333 206.56,104.593333 206.18,105.1 C205.8,105.6 205.4,106.1 204.98,106.56 C204.556729,107.039927 204.095214,107.48472 203.6,107.89 C203.850631,107.303599 204.148267,106.738424 204.49,106.2 C204.82,105.66 205.18,105.14 205.56,104.64 C205.94,104.14 206.34,103.64 206.76,103.18 C207.186993,102.700181 207.651819,102.255419 208.15,101.85 L208.15,101.85 Z" id="Shape" fill="#F24E4E" fill-rule="nonzero" stroke-width="1"/>
            <path d="M209.36,103.39 C208.847335,103.76571 208.305631,104.100095 207.74,104.39 C207.18,104.69 206.613333,104.963333 206.04,105.21 C205.46,105.46 204.87,105.68 204.27,105.87 C203.663458,106.073373 203.041418,106.22721 202.41,106.33 C202.922258,105.953687 203.464012,105.619271 204.03,105.33 C204.59,105.03 205.15,104.76 205.73,104.51 C206.31,104.26 206.9,104.05 207.5,103.85 C208.106748,103.647335 208.72873,103.493511 209.36,103.39 L209.36,103.39 Z" id="Shape" fill="#F24E4E" fill-rule="nonzero" stroke-width="1"/>
            <path d="M144,158.54 C143.868534,158.438404 143.785998,158.286087 143.772673,158.120475 C143.759348,157.954862 143.816469,157.791308 143.93,157.67 C144.03,157.56 144.45,157.53 144.57,157.53 C144.599724,157.884668 144.712793,158.227301 144.9,158.53 C144.7,158.42 144.23,158.3 144,158.54 Z" id="Shape" fill="#EA2424" fill-rule="nonzero" stroke-width="1"/>
            <path d="M146.25,159 C146.08,158.69 145.73,158.09 145.54,157.79 L145.47,157.67 L145.47,157.67 C145.924148,157.866461 146.322649,158.172208 146.63,158.56 C147.27,159.35 147.22,159.75 147.17,159.96 C146.756631,159.762752 146.429487,159.421385 146.25,159 L146.25,159 Z" id="Shape" fill="#EA2424" fill-rule="nonzero" stroke-width="1"/>
            <path d="M145.58,156.7 C145.453872,156.843451 145.340132,156.997335 145.24,157.16 C145.121963,156.878086 145.060792,156.575627 145.06,156.27 C145.360152,155.877982 145.7947,155.610842 146.28,155.52 C146.324533,155.787259 146.415938,156.044547 146.55,156.28 C146.189358,156.309843 145.848528,156.457419 145.58,156.7 L145.58,156.7 Z" id="Shape" fill="#EA2424" fill-rule="nonzero" stroke-width="1"/>
            <path d="M146.51,160.38 C145.97,160.12 145.88,159.9 145.43,159.27 C145.245714,159.019626 145.075453,158.759226 144.92,158.49 C144.732793,158.187301 144.619724,157.844668 144.59,157.49 C144.58303,157.416832 144.58303,157.343168 144.59,157.27 C144.652515,156.898077 144.818915,156.551409 145.07,156.27 C145.070792,156.575627 145.131963,156.878086 145.25,157.16 C145.315417,157.321926 145.392278,157.478989 145.48,157.63 L145.55,157.75 C145.73,158.05 146.08,158.65 146.26,158.96 C146.443952,159.379364 146.774644,159.717168 147.19,159.91 C146.993577,160.106447 146.763191,160.265685 146.51,160.38 Z" id="Shape" fill="#F24E4E" fill-rule="nonzero" stroke-width="1"/>
            <path d="M147.95,156.85 C147.78,156.54 147.43,155.94 147.24,155.64 L147.17,155.52 L147.17,155.52 C147.624148,155.716461 148.022649,156.022208 148.33,156.41 C148.97,157.2 148.92,157.6 148.87,157.81 C148.45608,157.613516 148.128701,157.271903 147.95,156.85 L147.95,156.85 Z" id="Shape" fill="#EA2424" fill-rule="nonzero" stroke-width="1"/>
            <path d="M147.28,154.58 C147.153947,154.723511 147.040211,154.877388 146.94,155.04 C146.821195,154.758322 146.759993,154.455707 146.76,154.15 C147.044476,153.775871 147.451625,153.51388 147.91,153.41 C147.970628,153.674005 148.071831,153.927011 148.21,154.16 C147.86285,154.19616 147.536661,154.343471 147.28,154.58 Z" id="Shape" fill="#EA2424" fill-rule="nonzero" stroke-width="1"/>
            <path d="M148.2,158.26 C147.66,158 147.57,157.78 147.12,157.15 C146.914523,156.872548 146.727455,156.581925 146.56,156.28 C146.425938,156.044547 146.334533,155.787259 146.29,155.52 C146.275054,155.410508 146.275054,155.299492 146.29,155.19 C146.352515,154.818077 146.518915,154.471409 146.77,154.19 C146.769993,154.495707 146.831195,154.798322 146.95,155.08 C147.015386,155.24194 147.092248,155.399005 147.18,155.55 L147.25,155.67 C147.43,155.97 147.78,156.57 147.96,156.88 C148.143172,157.299891 148.474101,157.637937 148.89,157.83 C148.687489,158.013341 148.453806,158.158969 148.2,158.26 L148.2,158.26 Z" id="Shape" fill="#F24E4E" fill-rule="nonzero" stroke-width="1"/>
            <path d="M149.56,154.66 C149.39,154.35 149.04,153.75 148.85,153.45 L148.78,153.33 L148.78,153.33 C149.234148,153.526461 149.632649,153.832208 149.94,154.22 C150.58,155.01 150.53,155.41 150.48,155.62 C150.066631,155.422752 149.739487,155.081385 149.56,154.66 Z" id="Shape" fill="#EA2424" fill-rule="nonzero" stroke-width="1"/>
            <path d="M148.89,152.39 C148.763983,152.53354 148.65025,152.687415 148.55,152.85 C148.431963,152.568086 148.370792,152.265627 148.37,151.96 C148.667697,151.570058 149.098332,151.303135 149.58,151.21 C149.638996,151.47766 149.740266,151.73421 149.88,151.97 C149.512538,151.996267 149.164253,152.144024 148.89,152.39 Z" id="Shape" fill="#EA2424" fill-rule="nonzero" stroke-width="1"/>
            <path d="M149.82,156.07 C149.28,155.81 149.19,155.59 148.74,154.96 C148.552173,154.706498 148.378572,154.442758 148.22,154.17 C148.081831,153.937011 147.980628,153.684005 147.92,153.42 C147.896502,153.280986 147.896502,153.139014 147.92,153 C147.982515,152.628077 148.148915,152.281409 148.4,152 C148.400792,152.305627 148.461963,152.608086 148.58,152.89 C148.64557,153.051858 148.722425,153.208911 148.81,153.36 L148.88,153.48 C149.06,153.78 149.41,154.38 149.59,154.69 C149.773952,155.109364 150.104644,155.447168 150.52,155.64 C150.314233,155.824006 150.077151,155.969642 149.82,156.07 Z" id="Shape" fill="#F24E4E" fill-rule="nonzero" stroke-width="1"/>
            <path d="M151.24,152.46 C151.07,152.15 150.72,151.55 150.53,151.25 L150.46,151.13 L150.46,151.13 C150.914148,151.326461 151.312649,151.632208 151.62,152.02 C152.26,152.81 152.21,153.21 152.16,153.42 C151.746631,153.222752 151.419487,152.881385 151.24,152.46 L151.24,152.46 Z" id="Shape" fill="#EA2424" fill-rule="nonzero" stroke-width="1"/>
            <path d="M150.57,150.2 C150.44391,150.343481 150.330171,150.497362 150.23,150.66 C150.112215,150.378008 150.051053,150.0756 150.05,149.77 C150.396094,149.301606 150.937886,149.017811 151.52,149 L151.69,149.77 C151.278318,149.780232 150.882755,149.9321 150.57,150.2 L150.57,150.2 Z" id="Shape" fill="#EA2424" fill-rule="nonzero" stroke-width="1"/>
            <path d="M151.5,153.87 C150.96,153.61 150.87,153.39 150.42,152.76 C150.231876,152.503244 150.058271,152.23616 149.9,151.96 C149.760266,151.72421 149.658996,151.46766 149.6,151.2 C149.577062,151.064296 149.577062,150.925704 149.6,150.79 C149.662515,150.418077 149.828915,150.071409 150.08,149.79 C150.081053,150.0956 150.142215,150.398008 150.26,150.68 C150.3256,150.841844 150.402454,150.998895 150.49,151.15 L150.56,151.27 C150.74,151.57 151.09,152.17 151.27,152.48 C151.453952,152.899364 151.784644,153.237168 152.2,153.43 C151.995027,153.617571 151.757896,153.766624 151.5,153.87 L151.5,153.87 Z" id="Shape" fill="#F24E4E" fill-rule="nonzero" stroke-width="1"/>
            <path d="M207.15,172.43 C206.948129,172.455308 206.744855,172.395224 206.589183,172.264232 C206.433512,172.13324 206.339568,171.943226 206.33,171.74 C206.33,171.56 206.66,171.16 206.77,171.05 C207.100691,171.313606 207.487163,171.498292 207.9,171.59 C207.64,171.72 207.14,172 207.15,172.43 Z" id="Shape" fill="#EA2424" fill-rule="nonzero" stroke-width="1"/>
            <path d="M209.48,170.84 C209.06,170.72 208.23,170.5 207.81,170.4 L207.65,170.4 L207.65,170.4 C208.21736,170.172146 208.832657,170.089648 209.44,170.16 C210.69,170.29 210.99,170.68 211.13,170.91 C210.590165,171.090786 210.002583,171.065858 209.48,170.84 Z" id="Shape" fill="#EA2424" fill-rule="nonzero" stroke-width="1"/>
            <path d="M206.92,169.45 C206.937299,169.682672 206.974095,169.913482 207.03,170.14 C206.678676,169.997669 206.35915,169.786918 206.09,169.52 C206.012582,168.915865 206.158374,168.304247 206.5,167.8 C206.772283,167.995306 207.076982,168.140884 207.4,168.23 C207.107471,168.571185 206.938382,169.000953 206.92,169.45 L206.92,169.45 Z" id="Shape" fill="#EA2424" fill-rule="nonzero" stroke-width="1"/>
            <path d="M210.93,171.85 C210.309201,172.051023 209.640799,172.051023 209.02,171.85 C208.639167,171.791059 208.261915,171.710934 207.89,171.61 C207.477163,171.518292 207.090691,171.333606 206.76,171.07 C206.690369,171.009612 206.62674,170.942634 206.57,170.87 C206.279978,170.487999 206.109486,170.028715 206.08,169.55 C206.34915,169.816918 206.668676,170.027669 207.02,170.17 C207.218084,170.254408 207.421934,170.324586 207.63,170.38 L207.79,170.38 C208.21,170.48 209.04,170.7 209.46,170.82 C209.985283,171.018064 210.564717,171.018064 211.09,170.82 C211.100901,171.170278 211.046647,171.519535 210.93,171.85 L210.93,171.85 Z" id="Shape" fill="#F24E4E" fill-rule="nonzero" stroke-width="1"/>
            <path d="M209.11,167.52 C208.69,167.4 207.86,167.18 207.44,167.08 L207.28,167.08 L207.28,167.08 C207.84736,166.852146 208.462657,166.769648 209.07,166.84 C210.32,166.97 210.62,167.36 210.76,167.59 C210.220165,167.770786 209.632583,167.745858 209.11,167.52 Z" id="Shape" fill="#EA2424" fill-rule="nonzero" stroke-width="1"/>
            <path d="M206.55,166.13 C206.567392,166.362661 206.604187,166.593464 206.66,166.82 C206.308299,166.678387 205.988639,166.467547 205.72,166.2 C205.646647,165.624965 205.773791,165.042222 206.08,164.55 C206.36458,164.726936 206.67496,164.85851 207,164.94 C206.724471,165.277112 206.566474,165.694926 206.55,166.13 Z" id="Shape" fill="#EA2424" fill-rule="nonzero" stroke-width="1"/>
            <path d="M210.56,168.53 C209.939201,168.731023 209.270799,168.731023 208.65,168.53 C208.227869,168.46748 207.810302,168.377286 207.4,168.26 C207.076982,168.170884 206.772283,168.025306 206.5,167.83 C206.391175,167.75014 206.293628,167.655957 206.21,167.55 C205.918662,167.164918 205.748133,166.702052 205.72,166.22 C205.988639,166.487547 206.308299,166.698387 206.66,166.84 C206.858084,166.924408 207.061934,166.994586 207.27,167.05 L207.43,167.05 C207.85,167.15 208.68,167.37 209.1,167.49 C209.625283,167.688064 210.204717,167.688064 210.73,167.49 C210.738946,167.844253 210.68128,168.197034 210.56,168.53 L210.56,168.53 Z" id="Shape" fill="#F24E4E" fill-rule="nonzero" stroke-width="1"/>
            <path d="M208.61,164.2 C208.19,164.08 207.36,163.86 206.94,163.76 L206.78,163.76 L206.78,163.76 C207.347142,163.531317 207.962649,163.448791 208.57,163.52 C209.82,163.65 210.12,164.04 210.26,164.27 C209.720165,164.450786 209.132583,164.425858 208.61,164.2 Z" id="Shape" fill="#EA2424" fill-rule="nonzero" stroke-width="1"/>
            <path d="M206,162.81 C206.017484,163.042651 206.054278,163.273445 206.11,163.5 C205.758676,163.357669 205.43915,163.146918 205.17,162.88 C205.095997,162.279209 205.241606,161.671912 205.58,161.17 C205.863571,161.35117 206.174101,161.486183 206.5,161.57 C206.199441,161.915841 206.023407,162.352404 206,162.81 Z" id="Shape" fill="#EA2424" fill-rule="nonzero" stroke-width="1"/>
            <path d="M210.06,165.21 C209.439201,165.411023 208.770799,165.411023 208.15,165.21 C207.765855,165.151138 207.38527,165.071015 207.01,164.97 C206.68496,164.88851 206.37458,164.756936 206.09,164.58 C205.944761,164.485264 205.816334,164.366976 205.71,164.23 C205.418127,163.845211 205.247536,163.382176 205.22,162.9 C205.48915,163.166918 205.808676,163.377669 206.16,163.52 C206.358156,163.604221 206.561993,163.674394 206.77,163.73 L206.93,163.73 C207.35,163.83 208.18,164.05 208.6,164.17 C209.125283,164.368064 209.704717,164.368064 210.23,164.17 C210.238709,164.524236 210.18105,164.876974 210.06,165.21 Z" id="Shape" fill="#F24E4E" fill-rule="nonzero" stroke-width="1"/>
            <path d="M208.16,160.82 C207.74,160.7 206.91,160.48 206.49,160.38 L206.32,160.38 L206.32,160.38 C206.887142,160.151317 207.502649,160.068791 208.11,160.14 C209.36,160.27 209.66,160.66 209.8,160.89 C209.263199,161.068235 208.679661,161.043328 208.16,160.82 L208.16,160.82 Z" id="Shape" fill="#EA2424" fill-rule="nonzero" stroke-width="1"/>
            <path d="M205.6,159.43 C205.617346,159.662667 205.654141,159.893473 205.71,160.12 C205.3588,159.977433 205.039318,159.766711 204.77,159.5 C204.647606,158.774508 204.873553,158.033696 205.38,157.5 L206.2,158.02 C205.838244,158.403403 205.625443,158.903485 205.6,159.43 Z" id="Shape" fill="#EA2424" fill-rule="nonzero" stroke-width="1"/>
            <path d="M209.61,161.83 C208.989201,162.031023 208.320799,162.031023 207.7,161.83 C207.312492,161.771503 206.928559,161.691378 206.55,161.59 C206.224101,161.506183 205.913571,161.37117 205.63,161.19 C205.488658,161.097979 205.363616,160.983076 205.26,160.85 C204.969978,160.467999 204.799486,160.008715 204.77,159.53 C205.039318,159.796711 205.3588,160.007433 205.71,160.15 C205.90818,160.234159 206.112012,160.304331 206.32,160.36 L206.49,160.36 C206.91,160.46 207.74,160.68 208.16,160.8 C208.685283,160.998064 209.264717,160.998064 209.79,160.8 C209.794034,161.151496 209.733007,161.500705 209.61,161.83 L209.61,161.83 Z" id="Shape" fill="#F24E4E" fill-rule="nonzero" stroke-width="1"/>
            <path d="M175.64,85.82 C175.46939,85.725355 175.343766,85.5663532 175.29116,85.3784753 C175.238554,85.1905974 175.263345,84.9894793 175.36,84.82 C175.45,84.66 175.96,84.54 176.11,84.5 C176.230954,84.9058111 176.443015,85.2786281 176.73,85.59 C176.45,85.52 175.86,85.48 175.64,85.82 Z" id="Shape" fill="#EA2424" fill-rule="nonzero" stroke-width="1"/>
            <path d="M178.46,85.84 C178.18,85.5 177.62,84.84 177.33,84.53 L177.22,84.4 L177.22,84.4 C177.815651,84.5319804 178.369003,84.8103746 178.83,85.21 C179.83,86.02 179.83,86.52 179.83,86.79 C179.271,86.6549095 178.782491,86.3161625 178.46,85.84 Z" id="Shape" fill="#EA2424" fill-rule="nonzero" stroke-width="1"/>
            <path d="M177.14,83.24 C177.022575,83.4412498 176.922223,83.6519874 176.84,83.87 C176.637497,83.5665077 176.494934,83.2270716 176.42,82.87 C176.698878,82.3306322 177.164524,81.9111955 177.73,81.69 C177.844771,82.0038511 178.014034,82.2949831 178.23,82.55 C177.800427,82.6532913 177.417146,82.8959185 177.14,83.24 Z" id="Shape" fill="#EA2424" fill-rule="nonzero" stroke-width="1"/>
            <path d="M179.08,87.49 C178.36,87.3 178.21,87.05 177.52,86.39 C177.241571,86.1281048 176.977835,85.8510152 176.73,85.56 C176.443015,85.2486281 176.230954,84.8758111 176.11,84.47 C176.101484,84.3802014 176.101484,84.2897986 176.11,84.2 C176.088284,83.7187354 176.210109,83.2418762 176.46,82.83 C176.534934,83.1870716 176.677497,83.5265077 176.88,83.83 C176.994169,84.0121296 177.121156,84.185902 177.26,84.35 L177.37,84.48 C177.66,84.8 178.22,85.48 178.5,85.79 C178.816962,86.2563852 179.293573,86.5907241 179.84,86.73 C179.637541,87.0295557 179.379556,87.2875408 179.08,87.49 L179.08,87.49 Z" id="Shape" fill="#F24E4E" fill-rule="nonzero" stroke-width="1"/>
            <path d="M180,82.89 C179.72,82.55 179.16,81.89 178.87,81.58 L178.76,81.45 L178.76,81.45 C179.355651,81.5819804 179.909003,81.8603746 180.37,82.26 C181.37,83.07 181.37,83.57 181.37,83.84 C180.811,83.7049095 180.322491,83.3661625 180,82.89 L180,82.89 Z" id="Shape" fill="#EA2424" fill-rule="nonzero" stroke-width="1"/>
            <path d="M178.72,80.29 C178.602657,80.4912935 178.502309,80.702024 178.42,80.92 C178.216836,80.6168633 178.074217,80.2772947 178,79.92 C178.266012,79.406973 178.700268,79.0009608 179.23,78.77 C179.362303,79.0756504 179.541082,79.3589996 179.76,79.61 C179.349928,79.7204958 178.985675,79.958661 178.72,80.29 Z" id="Shape" fill="#EA2424" fill-rule="nonzero" stroke-width="1"/>
            <path d="M180.66,84.54 C179.94,84.35 179.79,84.1 179.1,83.44 C178.786587,83.1496362 178.492619,82.8389651 178.22,82.51 C178.004034,82.2549831 177.834771,81.9638511 177.72,81.65 C177.675243,81.5209316 177.648328,81.3863542 177.64,81.25 C177.618888,80.7687976 177.740669,80.292111 177.99,79.88 C178.064217,80.2372947 178.206836,80.5768633 178.41,80.88 C178.524169,81.0621296 178.651156,81.235902 178.79,81.4 L178.9,81.53 C179.19,81.85 179.75,82.53 180.03,82.84 C180.346962,83.3063852 180.823573,83.6407241 181.37,83.78 C181.182316,84.0750199 180.941585,84.3327039 180.66,84.54 L180.66,84.54 Z" id="Shape" fill="#F24E4E" fill-rule="nonzero" stroke-width="1"/>
            <path d="M181.51,79.87 C181.23,79.53 180.67,78.87 180.38,78.56 L180.27,78.43 L180.27,78.43 C180.865937,78.5611762 181.419478,78.8396656 181.88,79.24 C182.88,80.05 182.88,80.55 182.88,80.82 C182.321,80.6849095 181.832491,80.3461625 181.51,79.87 L181.51,79.87 Z" id="Shape" fill="#EA2424" fill-rule="nonzero" stroke-width="1"/>
            <path d="M180.18,77.27 C180.062739,77.4713367 179.962395,77.6820603 179.88,77.9 C179.677497,77.5965077 179.534934,77.2570716 179.46,76.9 C179.737156,76.3629976 180.198747,75.9440147 180.76,75.72 C180.890652,76.0295538 181.069538,76.3164456 181.29,76.57 C180.853295,76.675405 180.463304,76.9213447 180.18,77.27 Z" id="Shape" fill="#EA2424" fill-rule="nonzero" stroke-width="1"/>
            <path d="M182.13,81.52 C181.41,81.33 181.26,81.08 180.57,80.42 C180.287793,80.1517051 180.020715,79.8679343 179.77,79.57 C179.551082,79.3189996 179.372303,79.0356504 179.24,78.73 C179.176049,78.5705282 179.138882,78.4015871 179.13,78.23 C179.108284,77.7487354 179.230109,77.2718762 179.48,76.86 C179.554934,77.2170716 179.697497,77.5565077 179.9,77.86 C180.017548,78.0423319 180.147875,78.2161008 180.29,78.38 L180.4,78.51 C180.69,78.83 181.25,79.51 181.53,79.82 C181.846962,80.2863852 182.323573,80.6207241 182.87,80.76 C182.673253,81.0575595 182.422208,81.3153893 182.13,81.52 L182.13,81.52 Z" id="Shape" fill="#F24E4E" fill-rule="nonzero" stroke-width="1"/>
            <path d="M183,76.83 C182.72,76.49 182.16,75.83 181.87,75.52 L181.76,75.39 L181.76,75.39 C182.355937,75.5211762 182.909478,75.7996656 183.37,76.2 C184.37,77.01 184.37,77.51 184.37,77.78 C183.811,77.6449095 183.322491,77.3061625 183,76.83 Z" id="Shape" fill="#EA2424" fill-rule="nonzero" stroke-width="1"/>
            <path d="M181.73,74.23 C181.612616,74.4312717 181.512267,74.6420058 181.43,74.86 C181.227714,74.556391 181.085169,74.2169982 181.01,73.86 C181.325105,73.2153741 181.918538,72.7509481 182.62,72.6 L183,73.49 C182.504635,73.5845394 182.056502,73.845656 181.73,74.23 Z" id="Shape" fill="#EA2424" fill-rule="nonzero" stroke-width="1"/>
            <path d="M183.67,78.48 C182.95,78.29 182.8,78.04 182.11,77.38 C181.824089,77.108747 181.553662,76.8216269 181.3,76.52 C181.079538,76.2664456 180.900652,75.9795538 180.77,75.67 C180.706418,75.5138955 180.669244,75.3483026 180.66,75.18 C180.638284,74.6987354 180.760109,74.2218762 181.01,73.81 C181.085169,74.1669982 181.227714,74.506391 181.43,74.81 C181.544389,74.9919803 181.671365,75.1657376 181.81,75.33 L181.92,75.46 C182.21,75.78 182.77,76.46 183.05,76.77 C183.366962,77.2363852 183.843573,77.5707241 184.39,77.71 C184.19997,78.0092063 183.955794,78.2703393 183.67,78.48 L183.67,78.48 Z" id="Shape" fill="#F24E4E" fill-rule="nonzero" stroke-width="1"/>
            <polygon id="Shape" fill="#FFD45C" fill-rule="nonzero" points="209.27 125.03 175.86 118.25 175.76 121.04" stroke-width="1"/>
            <polygon id="Shape" fill="#FFD45C" fill-rule="nonzero" points="213.43 146.97 185.44 127.5 184.25 130.02" stroke-width="1"/>
            <polygon id="Shape" fill="#FFD45C" fill-rule="nonzero" points="188.74 162.82 179.78 129.93 177.24 131.1" stroke-width="1"/>
            <polygon id="Shape" fill="#FFD45C" fill-rule="nonzero" points="156.88 164.97 169.7 133.38 166.97 132.77" stroke-width="1"/>
            <polygon id="Shape" fill="#FFD45C" fill-rule="nonzero" points="173.22 162.24 174.62 128.18 171.85 128.52" stroke-width="1"/>
            <polygon id="Shape" fill="#FFD45C" fill-rule="nonzero" points="216.17 109.61 182.42 114.42 183.26 117.08" stroke-width="1"/>
            <polygon id="Shape" fill="#FFD45C" fill-rule="nonzero" points="137.46 120.4 171.51 118.83 170.93 116.1" stroke-width="1"/>
            <polygon id="Shape" fill="#FFD45C" fill-rule="nonzero" points="131.59 148.86 160.66 131.06 158.83 128.95" stroke-width="1"/>
            <polygon id="Shape" fill="#FFD45C" fill-rule="nonzero" points="129.43 129.77 162.79 122.75 161.77 120.15" stroke-width="1"/>
            <polygon id="Shape" fill="#FFD45C" fill-rule="nonzero" points="130.81 101.67 161 117.5 161.88 114.85" stroke-width="1"/>
            <polygon id="Shape" fill="#FFD45C" fill-rule="nonzero" points="153.29 86.19 166.15 117.77 168.53 116.31" stroke-width="1"/>
            <polygon id="Shape" fill="#FFD45C" fill-rule="nonzero" points="166.11 78.81 170.55 112.6 173.23 111.79" stroke-width="1"/>
            <polygon id="Shape" fill="#FFD45C" fill-rule="nonzero" points="188.73 87.17 171.94 116.84 174.56 117.8" stroke-width="1"/>
            <polygon id="Shape" fill="#FFD45C" fill-rule="nonzero" points="203.57 85.37 181.22 111.11 183.6 112.58" stroke-width="1"/>
            <path d="M202.35,121.69 C202.323518,119.59185 201.407536,117.603588 199.83,116.22 C200.603977,114.835646 201.010236,113.276026 201.01,111.69 C201.01,106.28 196.34,101.9 190.59,101.9 C189.946286,101.900987 189.303873,101.957868 188.67,102.07 C187.071515,98.057139 183.158949,95.4500887 178.84,95.52 C176.481538,95.5098335 174.184581,96.2719737 172.3,97.69 C171.166125,96.8874822 169.809109,96.4607917 168.42,96.47 C166.111288,96.411968 163.959896,97.6358367 162.83,99.65 C161.888684,99.2203045 160.864721,99.0018591 159.83,99.01 C157.165561,98.9662762 154.724778,100.494214 153.6,102.91 C153.239223,102.855717 152.874837,102.828973 152.51,102.83 C148.91427,102.717646 145.904956,105.534686 145.78,109.13 C145.780456,109.588002 145.83415,110.044398 145.94,110.49 C142.821132,111.578298 140.720734,114.506852 140.69,117.81 C140.698627,120.32718 141.933925,122.682084 144,124.12 C142.714256,125.527082 142.000908,127.363953 142,129.27 C142.012649,132.262451 143.738347,134.983146 146.44,136.27 C147.167093,140.027131 150.453167,142.743171 154.28,142.75 L154.28,142.75 C154.28,146.75 158.05,150.03 162.7,150.03 C165.126215,150.062694 167.462843,149.11434 169.18,147.4 C171.318763,149.485865 174.192546,150.646156 177.18,150.63 C181.829713,150.687301 186.024992,147.84791 187.7,143.51 C188.830029,143.895495 190.016028,144.091472 191.21,144.09 C196.852246,144.201766 201.523464,139.731701 201.66,134.09 C201.656626,131.735499 200.800481,129.461919 199.25,127.69 C201.175041,126.293641 202.324946,124.068019 202.35,121.69 Z" id="Shape" fill="#F7E1C6" fill-rule="nonzero" stroke-width="1"/>
            <path d="M200.09,139.19 C200.38,138.19 201.6,138.85 202.18,139.19 C201.657678,138.606271 201.207755,137.961604 200.84,137.27 C200.76,137.06 200.51,136.64 200.67,136.42 C200.875976,136.226238 201.17159,136.160972 201.44,136.25 C201.036047,135.995683 200.694317,135.653953 200.44,135.25 C200.329664,135.077682 200.232713,134.897152 200.15,134.71 C199.601631,136.609109 198.567628,138.332446 197.15,139.71 C195.84989,140.994804 194.346275,142.055781 192.7,142.85 L192.89,142.92 C193.161597,142.966942 193.424557,143.054595 193.67,143.18 C194.150842,143.499436 194.529311,143.95082 194.76,144.48 C194.669794,144.093402 194.629466,143.696843 194.64,143.3 C194.64,142.67 195.21,142.77 195.74,142.85 C196.785942,143.137698 197.67018,143.83787 198.19,144.79 C197.992494,144.075235 197.875106,143.340719 197.84,142.6 C197.84,142.08 197.84,141.47 198.49,141.31 C199.495498,141.175129 200.481753,141.666277 200.98,142.55 C200.54,141.61 199.75,140.27 200.09,139.19 Z" id="Shape" fill="#FFD45C" fill-rule="nonzero" stroke-width="1"/>
            <path d="M200.16,130.77 C200.16,130.883333 200.18,130.993333 200.22,131.1 C200.339126,131.939126 200.339126,132.790874 200.22,133.63 C199.733042,135.724328 198.636991,137.627629 197.07,139.1 C194.83609,141.19718 192.068552,142.639759 189.07,143.27 C190.4628,143.433238 191.874213,143.314203 193.22,142.92 C195.008091,142.451371 196.666442,141.582874 198.07,140.38 C200.600133,137.863352 201.404332,134.089502 200.12,130.76 L200.16,130.77 Z" id="Shape" fill="#E5B076" fill-rule="nonzero" stroke-width="1"/>
            <path d="M199.55,113.62 C199.55,113.53 199.55,113.44 199.55,113.35 L199.32,113.56 C199.390259,113.599377 199.469459,113.620037 199.55,113.62 L199.55,113.62 Z" id="Shape" fill="#FFD45C" fill-rule="nonzero" stroke-width="1"/>
            <path d="M201.64,109 C200.96,109.25 200.42,109.45 199.91,108.85 C199.4,108.25 199.91,107.48 200.32,107.02 C200.066117,107.246816 199.705087,107.308929 199.39,107.18 C198.9,106.95 198.96,106.5 198.97,106.06 C199.018675,104.96451 199.276653,103.888471 199.73,102.89 C199.377752,103.272874 198.977818,103.608953 198.54,103.89 C198.123469,104.254052 197.641602,104.535707 197.12,104.72 C196.860246,104.828471 196.564701,104.809162 196.321269,104.667814 C196.077837,104.526466 195.91456,104.279363 195.88,104 C195.725829,103.474406 195.725829,102.915594 195.88,102.39 C195.69,102.57 195.62,102.83 195.41,103.01 C195.200352,103.191843 194.955153,103.328065 194.69,103.41 C193.9,103.67 193.52,103.13 193.46,102.41 C193.08,102.99 192.46,103 191.81,103 C191.42,103 191.23,103 190.96,102.73 C190.69,102.46 190.75,102.26 190.59,102.05 C190.7,102.61 189.69,103.29 189.24,103.49 C190.426852,103.421807 191.612122,103.648555 192.69,104.15 C193.849304,104.564596 194.921003,105.192014 195.85,106 C196.631414,106.643421 197.306385,107.406137 197.85,108.26 C198.31526,109.136746 198.700165,110.053824 199,111 C199.290036,111.762539 199.481583,112.558971 199.57,113.37 L199.67,113.28 C199.91,113.09 200.04,112.69 200.29,112.46 C200.54,112.23 200.93,112.13 201.1,111.89 C199.5,111.83 201.21,109.5 201.64,109 Z" id="Shape" fill="#FFD45C" fill-rule="nonzero" stroke-width="1"/>
            <path d="M198.91,108 C197.58,105.34 194.06,103.77 191.06,103.25 C189.446332,102.927407 187.771154,103.152641 186.3,103.89 C187.620329,103.700127 188.967324,103.855152 190.21,104.34 C191.557378,104.82063 192.840383,105.465491 194.03,106.26 C195.117283,106.936256 196.067228,107.811562 196.83,108.84 C197.603633,109.929548 198.094966,111.193958 198.26,112.52 C198.57223,113.930932 198.703287,115.375917 198.65,116.82 L198.77,116.71 C200.203816,113.995333 200.25583,110.759346 198.91,108 L198.91,108 Z" id="Shape" fill="#F6F6F6" fill-rule="nonzero" stroke-width="1"/>
            <polygon id="Shape" fill="#FFD45C" fill-rule="nonzero" points="186 100.72 186.14 100.88 186.07 100.72" stroke-width="1"/>
            <path d="M186.05,99.74 C186.145826,99.3512528 186.31558,98.9845832 186.55,98.66 C186.265843,98.8789465 185.904815,98.9728139 185.55,98.92 C185.12,98.8 184.98,98.34 184.88,97.99 C184.606143,97.0087495 184.606143,95.9712505 184.88,94.99 C184.677067,95.4543716 184.325207,95.8378989 183.88,96.08 C183.4,96.34 182.98,96.45 182.78,95.85 C182.59,96.04 182.5,96.03 182.31,95.85 C182.053914,95.5480283 181.841815,95.2113624 181.68,94.85 C181.437065,94.3027102 181.317571,93.7086561 181.33,93.11 C181.09,93.47 181.06,93.87 180.76,94.23 C180.501961,94.5582137 180.182738,94.8332886 179.82,95.04 C178.82,95.56 178.19,94.49 177.67,93.84 C177.953513,94.4872516 177.90887,95.2312914 177.55,95.84 C177.22,96.47 176.62,96.66 176.11,97.11 C177.878963,97.1816671 179.642085,97.3586473 181.39,97.64 C182.67695,97.9459377 183.877309,98.5409879 184.9,99.38 C185.405934,99.7161717 185.815965,100.177888 186.09,100.72 L186.09,100.72 C186.050383,100.394937 186.037007,100.067211 186.05,99.74 Z" id="Shape" fill="#FFD45C" fill-rule="nonzero" stroke-width="1"/>
            <path d="M191.14,140.08 C190.96,139.86 190.68,139.69 190.48,139.48 C190.347824,139.34452 190.224249,139.200906 190.11,139.05 C189.456222,139.893205 188.599609,140.557167 187.62,140.98 C185.925514,141.597006 184.156827,141.987059 182.36,142.14 C182.261049,142.160483 182.158951,142.160483 182.06,142.14 L182.06,142.14 C182.44872,142.759015 182.59807,143.498653 182.48,144.22 C182.68,144.06 182.77,143.78 183.07,143.7 C183.353092,143.635055 183.650322,143.681609 183.9,143.83 C184.6,144.31 184.56,145.34 184.9,146 C184.9,145.13 185.5,143.53 186.6,144.51 C187.122897,145.057102 187.542941,145.693942 187.84,146.39 C188.2,147.07 188.56,147.75 188.91,148.39 C188.72,147.29 188.34,146.23 188.15,145.13 C188.06,144.63 187.78,143.37 188.33,142.98 C188.88,142.59 189.26,143.44 189.45,143.72 C189.876667,144.326667 190.306667,144.93 190.74,145.53 C190.715005,145.352607 190.646274,145.184218 190.54,145.04 C190.39,144.73 190.28,144.39 190.15,144.04 C189.832757,143.376092 189.633129,142.662167 189.56,141.93 C189.56,141.68 189.47,141.13 189.71,140.93 C189.95,140.73 190.24,141.02 190.41,141.15 C190.22859,140.850254 190.157832,140.496461 190.21,140.15 C190.42,139.85 190.85,140.16 191.14,140.08 Z" id="Shape" fill="#FFD45C" fill-rule="nonzero" stroke-width="1"/>
            <path d="M182.35,97 C180.138083,96.006603 177.624762,95.920432 175.35,96.76 C174.28024,97.1508529 173.336675,97.8248278 172.62,98.71 C173.53533,98.1623598 174.559152,97.8210857 175.62,97.71 C176.794598,97.565444 177.981178,97.5453325 179.16,97.65 C181.181876,97.9138841 183.082859,98.7618547 184.63,100.09 C185.481148,100.741649 186.247135,101.497557 186.91,102.34 L186.91,102.11 C186.265916,99.7910139 184.581,97.9028738 182.35,97 L182.35,97 Z" id="Shape" fill="#F6F6F6" fill-rule="nonzero" stroke-width="1"/>
            <path d="M189.39,107.27 C189.15,107.06 189.24,106.64 189.26,106.37 C189.382141,105.659227 189.677512,104.989492 190.12,104.42 C189.54,104.96 188.44,105.86 187.92,104.77 C187.32,103.51 187.72,102.23 187.92,100.93 C187.557935,101.692655 186.97644,102.329862 186.25,102.76 C185.09,103.3 184.75,101.65 184.44,100.97 C184.449873,101.523463 184.120875,102.026868 183.61,102.24 C183.06,102.33 182.34,101.44 182.21,101.02 C182.229799,101.336913 182.115347,101.647533 181.894656,101.875834 C181.673965,102.104135 181.367402,102.229048 181.05,102.22 C180.4,102.22 179.9,101.65 179.54,101.22 C179.73,101.59 179.33,102.32 179.06,102.6 C178.79,102.88 178.29,103.06 177.95,103.38 C178.81,103.49 179.67,103.31 180.51,103.49 C181.35,103.67 182.25,103.82 183.11,104.04 C183.992086,104.325937 184.830114,104.733172 185.6,105.25 C186.326353,105.666222 186.967585,106.21585 187.49,106.87 C187.8,107.25 188.09,107.64 188.41,108.02 C188.73,108.4 189,108.59 189.04,109.02 C189.067274,108.977318 189.067274,108.922682 189.04,108.88 C189.094287,108.756272 189.141039,108.629374 189.18,108.5 C189.256552,108.345494 189.34692,108.198228 189.45,108.06 C189.64,107.81 190.01,107.6 190.15,107.35 C189.896066,107.425001 189.622752,107.396231 189.39,107.27 Z" id="Shape" fill="#FFD45C" fill-rule="nonzero" stroke-width="1"/>
            <path d="M174.17,98.11 C173.64,98.36 173.42,98.26 173.26,97.68 C173.116578,97.104765 173.05265,96.512591 173.07,95.92 C172.966413,96.229595 172.80713,96.5176582 172.6,96.77 C172.26,97.08 171.92,96.59 171.72,96.33 C171.453936,95.903928 171.248623,95.4428158 171.11,94.96 C170.96004,94.5533809 170.842996,94.135369 170.76,93.71 C170.52,94.59 170.57,95.76 169.85,96.47 C168.73,97.57 167.58,95.37 167.19,94.7 C167.14,94.97 167.19,95.27 167.13,95.53 C167.080777,95.8369026 166.941565,96.1222884 166.73,96.35 C166.33,96.79 165.73,96.51 165.28,96.28 C165.404435,96.5209878 165.414892,96.80492 165.308521,97.0544082 C165.20215,97.3038965 164.990039,97.4929352 164.73,97.57 C164.249204,97.7447235 163.714848,97.6894453 163.28,97.42 C163.42,97.78 163.79,98.05 163.89,98.42 C163.9721,98.8143665 163.999024,99.2182253 163.97,99.62 C164.9628,98.4727917 166.465877,97.9016223 167.97,98.1 C168.330012,98.1796994 168.681603,98.2935481 169.02,98.44 C169.33,98.57 169.67,98.98 170.02,99.03 C170.171447,99.0161574 170.319856,98.9790551 170.46,98.92 C170.65,98.92 170.85,98.85 171.05,98.82 C171.25,98.79 171.7,98.69 172.05,98.66 C172.382568,98.6280594 172.717432,98.6280594 173.05,98.66 C173.351904,98.7055767 173.649566,98.7758117 173.94,98.87 C173.902318,98.8961624 173.879844,98.939126 173.879844,98.985 C173.879844,99.030874 173.902318,99.0738376 173.94,99.1 L174,99 L174,99 C173.987834,98.6942346 174.045993,98.3897548 174.17,98.11 L174.17,98.11 Z" id="Shape" fill="#FFD45C" fill-rule="nonzero" stroke-width="1"/>
            <path d="M176.19,104.14 C176.081285,104.216068 175.980747,104.3032 175.89,104.4 L176.19,104.14 Z" id="Shape" fill="#F6F6F6" fill-rule="nonzero" stroke-width="1"/>
            <path d="M186.62,104.52 C184.74,102.86 181.53,102.4 179,102.73 C177.937766,102.906457 176.954279,103.401688 176.18,104.15 C177.063094,103.665214 178.064006,103.436632 179.07,103.49 C180.324568,103.50058 181.567254,103.734219 182.74,104.18 C184.94,104.96 187.14,106.18 188.3,108.11 C188.96694,109.164227 189.494656,110.300327 189.87,111.49 L190,111.6 C189.41,109 188.81,106.46 186.62,104.52 Z" id="Shape" fill="#F6F6F6" fill-rule="nonzero" stroke-width="1"/>
            <path d="M174.82,98.46 C173.65082,98.1657435 172.43873,98.0811003 171.24,98.21 C169.730554,97.4694754 168.020824,97.2412774 166.37,97.56 C165.471725,97.7412294 164.681186,98.2694534 164.17,99.03 C163.696363,99.6870246 163.400159,100.455087 163.31,101.26 C163.31,100.65 164.19,100.07 164.66,99.78 C165.341661,99.3556276 166.127068,99.1272714 166.93,99.12 C167.365571,99.090022 167.802929,99.1408776 168.22,99.27 L168.32,99.27 C167.420204,99.9089016 166.661194,100.725773 166.09,101.67 C169.53,97.59 176.5,99.61 179.09,103.43 L179.59,102.63 C178.52,101 177.07,99 174.82,98.46 Z" id="Shape" fill="#F6F6F6" fill-rule="nonzero" stroke-width="1"/>
            <path d="M153.34,140.17 C153.03953,140.100792 152.745217,140.007147 152.46,139.89 C150.860846,139.396568 149.380201,138.57966 148.11,137.49 C148.014286,138.03514 147.824815,138.559567 147.55,139.04 C147.367907,139.394572 147.150113,139.729641 146.9,140.04 C146.66,140.32 146.35,140.52 146.12,140.83 C146.72,140.55 147.48,140.07 148.17,140.32 C148.747781,140.567073 149.076263,141.182458 148.96,141.8 C148.912308,142.339775 148.763021,142.865673 148.52,143.35 C148.23,143.89 147.86,144.35 147.6,144.95 C148.565029,143.6622 149.832341,142.631865 151.29,141.95 C151.94,141.7 152.51,141.73 152.78,142.42 C152.936793,142.941809 152.936793,143.498191 152.78,144.02 L152.78,144.02 C152.910772,143.717225 153.061089,143.423272 153.23,143.14 C153.485479,142.68908 153.769386,142.25487 154.08,141.84 C154.318177,141.423443 154.663443,141.078177 155.08,140.84 C155.237045,140.775313 155.397248,140.718575 155.56,140.67 C154.8,140.57 154.06,140.38 153.34,140.17 Z" id="Shape" fill="#FFD45C" fill-rule="nonzero" stroke-width="1"/>
            <path d="M161.17,101 C161.17,100.83 161.08,100.67 161.02,100.51 C160.946439,100.280365 160.886337,100.046635 160.84,99.81 C160.74,99.41 160.53,99.04 160.46,98.64 C160.29,98.88 160.39,99.53 160.13,99.64 C159.87,99.75 159.4,98.86 159.27,98.64 C158.753656,97.9394874 158.285895,97.2044342 157.87,96.44 C157.55,95.79 157.25,95.14 156.87,94.52 C157.063285,95.2167816 157.213568,95.9247826 157.32,96.64 C157.516007,97.3673268 157.649822,98.1100013 157.72,98.86 C157.72,99.31 157.56,99.98 156.93,99.7 C156.373661,99.3540506 155.854277,98.9519462 155.38,98.5 C155.81,99.06 156.31,100.25 155.73,100.85 C155.15,101.45 153.88,100.62 153.25,100.3 C153.798708,100.697081 154.213726,101.251601 154.44,101.89 C154.52,102.16 154.63,102.43 154.72,102.71 C154.770974,102.994247 154.851408,103.272414 154.96,103.54 C155.026077,103.261816 155.208072,103.025222 155.46,102.89 C155.729883,102.675301 155.98388,102.441357 156.22,102.19 C156.61543,101.794579 157.108997,101.511555 157.65,101.37 C158.200673,101.194647 158.766433,101.070783 159.34,101 C159.64,101 159.92,101.07 160.21,101 C160.50806,100.985905 160.805152,100.955862 161.1,100.91 C161.112834,100.938627 161.112834,100.971373 161.1,101 L161.17,101 Z" id="Shape" fill="#FFD45C" fill-rule="nonzero" stroke-width="1"/>
            <path d="M161.1,101.12 L161.04,101.21 C161.066088,101.184538 161.086531,101.153875 161.1,101.12 Z" id="Shape" fill="#FFD45C" fill-rule="nonzero" stroke-width="1"/>
            <path d="M155.26,103.57 C156.047981,102.665965 157.095583,102.026927 158.26,101.74 C159.526046,101.341191 160.864196,101.225126 162.18,101.4 C163.134659,101.595743 164.054782,101.932784 164.91,102.4 C163.440598,101.104489 161.527204,100.427276 159.57,100.51 C157.93,100.7 155.8,101.41 155.08,102.88 C154.767197,103.468213 154.602445,104.123791 154.6,104.79 C154.757211,104.352374 154.979729,103.941052 155.26,103.57 Z" id="Shape" fill="#F6F6F6" fill-rule="nonzero" stroke-width="1"/>
            <path d="M190.06,138.86 C188.512382,140.136493 186.651327,140.975521 184.67,141.29 C183.628818,141.535762 182.553038,141.600038 181.49,141.48 C180.403464,141.262463 179.343874,140.92715 178.33,140.48 C179.255896,141.150805 180.232121,141.749244 181.25,142.27 C183.337589,143.085184 185.677643,142.94396 187.652044,141.883634 C189.626445,140.823308 191.036593,138.950533 191.51,136.76 L191.51,136.19 C191.390453,137.234124 190.870686,138.191213 190.06,138.86 Z" id="Shape" fill="#E5B076" fill-rule="nonzero" stroke-width="1"/>
            <path d="M160.28,106.43 C160.230966,106.524063 160.197211,106.625329 160.18,106.73 C160.235462,106.638789 160.269643,106.536246 160.28,106.43 Z" id="Shape" fill="#FFD45C" fill-rule="nonzero" stroke-width="1"/>
            <path d="M164,102.3 C163.71,102.59 164.24,103.38 163.39,103.06 C162.835401,102.816952 162.35311,102.434565 161.99,101.95 C161.99,102.29 162.23,102.57 162.25,102.95 C162.288155,103.310077 162.180062,103.670388 161.95,103.95 C161.34,104.74 160.5,104.28 159.73,104.04 C160.112276,104.357815 160.341341,104.823217 160.36,105.32 C160.378278,105.566328 160.378278,105.813672 160.36,106.06 C160.36,106.17 160.36,106.33 160.36,106.48 C160.573444,106.153282 160.848584,105.871348 161.17,105.65 C161.563428,105.275572 162.02513,104.980219 162.53,104.78 C163.02,104.61 163.47,104.38 163.95,104.2 C164.197931,104.135607 164.454095,104.108642 164.71,104.12 C165.04,104.12 165.15,104 165.38,104.24 L165.51,103.94 C164.742874,103.713417 164.162602,103.083187 164,102.3 L164,102.3 Z" id="Shape" fill="#FFD45C" fill-rule="nonzero" stroke-width="1"/>
            <path d="M152.91,104.12 L153,104 C152.780057,103.751684 152.60419,103.467591 152.48,103.16 C152.309787,102.854167 152.220306,102.510008 152.22,102.16 C151.96,102.41 152.22,102.83 151.7,102.82 C151.31351,102.770176 150.958208,102.581866 150.7,102.29 C150.184799,101.807634 149.700506,101.293281 149.25,100.75 C148.83,100.22 148.52,99.61 148.09,99.1 C148.39,99.81 148.68,100.52 148.94,101.24 C149.14,101.78 149.59,102.61 149.34,103.18 C149.09,103.75 148.34,103.8 147.82,103.69 C147.071147,103.460461 146.35007,103.148554 145.67,102.76 C146.46,103.19 147.36,104.37 147.12,105.26 C146.88,106.15 145.12,106.41 144.29,106.04 C145.03,106.45 145.88,106.59 146.29,107.41 C146.436281,107.78432 146.523977,108.178956 146.55,108.58 C146.56334,108.917156 146.610239,109.252143 146.69,109.58 L146.69,109.58 C146.69,109.26 147.39,108.69 147.76,108.87 C147.76,108.55 147.76,108.23 147.76,107.87 C147.76,107.51 147.96,107.22 148.04,106.87 C148.185362,106.154277 148.532331,105.495035 149.04,104.97 C149.283292,104.721135 149.571768,104.520899 149.89,104.38 C150.208718,104.191182 150.543324,104.030571 150.89,103.9 C151.524193,103.702758 152.210611,103.763853 152.8,104.07 L152.91,104.12 Z" id="Shape" fill="#FFD45C" fill-rule="nonzero" stroke-width="1"/>
            <path d="M161.47,105.7 C162.438526,105.002353 163.547683,104.524562 164.72,104.3 C165.572034,104.094122 166.443677,103.980137 167.32,103.96 C165.565586,103.296543 163.604801,103.465766 161.99,104.42 C160.76,105.22 159.34,106.76 159.69,108.24 C159.991325,107.222291 160.616235,106.330566 161.47,105.7 Z" id="Shape" fill="#F6F6F6" fill-rule="nonzero" stroke-width="1"/>
            <path d="M154.61,104.59 L154.61,104.54 C154.643211,104.389387 154.690072,104.242112 154.75,104.1 L154.75,103.94 C152.624095,103.070086 150.186715,103.510765 148.5,105.07 C146.89,106.69 147.1,109.15 148.09,110.94 C147.568432,109.107321 148.190043,107.140197 149.67,105.94 C150.385792,105.390787 151.205711,104.992735 152.08,104.77 C152.514265,104.658813 152.955152,104.575312 153.4,104.52 C153.80922,104.51824 154.217695,104.55507 154.62,104.63 L154.61,104.59 Z" id="Shape" fill="#F6F6F6" fill-rule="nonzero" stroke-width="1"/>
            <path d="M195,113.45 C194.73,113.37 194.53,113.76 194.27,113.59 C194.01,113.42 194.16,113.02 194.19,112.85 C194.287643,112.294451 194.480475,111.759933 194.76,111.27 C194.44,111.78 193.52,112.59 192.93,111.99 C192.34,111.39 192.58,109.89 192.79,109.14 C192.596731,109.490226 192.376042,109.824604 192.13,110.14 C191.93,110.4 191.49,110.91 191.13,110.98 C190.32,111.14 189.95,109.52 189.85,109.04 C189.53,109.43 189.36,110.04 188.77,110.15 C188.18,110.26 187.86,109.72 187.64,109.35 C187.49,109.64 187.41,110 187.11,110.2 C186.742192,110.364437 186.342842,110.446355 185.94,110.44 C185.935871,110.550863 185.893467,110.656872 185.82,110.74 C186.572972,110.8071 187.318947,110.937563 188.05,111.13 C188.636324,111.27137 189.208657,111.465495 189.76,111.71 C191.05616,112.119023 192.235655,112.832206 193.2,113.79 C193.42,114.06 193.6,114.36 193.79,114.65 C193.98,114.94 194.14,115.36 194.41,115.42 L194.41,115.42 C194.4,114.75 194.92,114.11 195,113.45 Z" id="Shape" fill="#FFD45C" fill-rule="nonzero" stroke-width="1"/>
            <path d="M153.63,106.35 C154.885167,105.857355 156.251551,105.718987 157.58,105.95 C158.045843,106.005606 158.502794,106.119844 158.94,106.29 L158.8,106.11 C157.12,105.11 155.22,104.52 153.34,105.44 C151.69,106.25 150.34,107.99 150.75,109.76 C151.087784,108.217386 152.165659,106.941152 153.63,106.35 Z" id="Shape" fill="#F6F6F6" fill-rule="nonzero" stroke-width="1"/>
            <path d="M144.39,112.89 C144.287744,112.877694 144.187143,112.85422 144.09,112.82 L143.37,112.66 C142.889861,112.514245 142.427109,112.316402 141.99,112.07 C142.08,112.31 142.55,112.61 142.31,112.87 C142.07,113.13 141.4,112.93 141.14,112.87 C140.163961,112.616118 139.210687,112.281636 138.29,111.87 C139.2,112.55 140.45,113.02 141.14,113.87 C142.08,115.07 139.74,115.69 138.88,115.87 C139.47,115.87 140.49,116.14 140.78,116.65 C140.957391,116.953308 140.990383,117.319892 140.87,117.65 C140.713066,117.976031 140.532588,118.290196 140.33,118.59 C140.48,118.59 140.51,118.48 140.64,118.47 C140.752056,118.475686 140.861408,118.506442 140.96,118.56 C141.180917,118.626683 141.395169,118.713723 141.6,118.82 C141.814908,118.955936 142.010075,119.120818 142.18,119.31 C142.34,119.5 142.37,119.81 142.53,119.96 C142.276728,119.151172 142.228617,118.292048 142.39,117.46 C142.447713,116.833254 142.551325,116.211586 142.7,115.6 C142.854132,115.029864 143.108056,114.491545 143.45,114.01 C143.741549,113.537919 144.142963,113.143367 144.62,112.86 L144.69,112.74 C144.56,112.81 144.49,112.89 144.39,112.89 Z" id="Shape" fill="#FFD45C" fill-rule="nonzero" stroke-width="1"/>
            <path d="M157.68,139.91 C157.09,139.91 156.5,139.84 155.9,139.76 C154.779104,139.595181 153.677134,139.320526 152.61,138.94 C151.588981,138.581312 150.625563,138.076023 149.75,137.44 C149.1,136.96 147.75,136.23 147.89,135.29 L147.64,135.52 C147.646369,135.442626 147.607385,135.368556 147.54,135.33 C147.504813,137.349761 148.688443,139.192279 150.54,140 C152.379056,140.862355 154.438859,141.138159 156.44,140.79 C157.513389,140.609688 158.554491,140.272762 159.53,139.79 C158.89,139.74 158.3,139.93 157.68,139.91 Z" id="Shape" fill="#E5B076" fill-rule="nonzero" stroke-width="1"/>
            <path d="M144.36,122.42 C143.574962,121.005541 143.133098,119.426477 143.07,117.81 C142.946735,116.358271 143.332069,114.90885 144.16,113.71 C144.653974,113.057848 145.202626,112.448978 145.8,111.89 L146.12,111.59 C144.23,112.41 142.58,113.59 141.91,115.44 C141.352414,117.3672 141.563908,119.435534 142.5,121.21 C143.032684,122.210519 143.889514,123.000355 144.93,123.45 C144.718978,123.118728 144.528616,122.77474 144.36,122.42 Z" id="Shape" fill="#F6F6F6" fill-rule="nonzero" stroke-width="1"/>
            <path d="M145.78,132.09 C145.126312,130.766186 144.642482,129.365094 144.34,127.92 C143.854104,128.187465 143.313904,128.34132 142.76,128.37 C142.332707,128.385134 141.905365,128.34139 141.49,128.24 C141.582675,128.363769 141.666229,128.494113 141.74,128.63 C141.913289,128.97971 141.913289,129.39029 141.74,129.74 C141.601929,130.133389 141.355872,130.479949 141.03,130.74 C140.73,130.97 140.35,131.08 140.03,131.32 C140.677203,131.058111 141.405783,131.087254 142.03,131.4 C142.337347,131.47737 142.59395,131.688209 142.729459,131.974715 C142.864969,132.261221 142.865167,132.593332 142.73,132.88 C142.47916,133.524253 142.061567,134.090247 141.52,134.52 C141.036492,135.030873 140.492474,135.480862 139.9,135.86 C140.716348,135.393147 141.600197,135.0558 142.52,134.86 C143.231772,134.640846 143.984009,134.586137 144.72,134.7 C146.08,135.02 144.86,136.33 144.37,136.91 C144.974443,136.448477 145.601916,136.017923 146.25,135.62 C146.59,135.46 146.95,135.37 147.25,135.23 C147.405361,135.164309 147.555755,135.087441 147.7,135 C146.956491,134.102404 146.312712,133.126678 145.78,132.09 L145.78,132.09 Z" id="Shape" fill="#FFD45C" fill-rule="nonzero" stroke-width="1"/>
            <path d="M180.28,140.24 C180.28,140.06 180.4,139.89 180.62,139.9 C180.814201,139.916263 180.997319,139.997257 181.14,140.13 C181.080563,140.017897 181.002828,139.916503 180.91,139.83 C180.817217,139.701229 180.736857,139.563947 180.67,139.42 C180.59,139.28 180.49,139.14 180.41,139.01 L180.32,138.89 C179.83624,139.620917 179.137371,140.183507 178.32,140.5 C177.37827,140.789402 176.394467,140.917871 175.41,140.88 L175.12,140.88 C174.89,140.88 174.67,140.88 174.44,140.8 C174.408411,141.023783 174.358238,141.244546 174.29,141.46 L174.29,141.46 C174.267662,141.558346 174.230576,141.652747 174.18,141.74 L174.08,141.97 L173.96,142.19 C174.35,141.92 174.96,141.72 175.28,142.19 C175.446414,142.377237 175.551157,142.611164 175.58,142.86 C175.58,143.07 175.49,143.27 175.52,143.47 C175.76,143.02 176.17,142.42 176.8,142.72 C177.02216,142.854046 177.183521,143.069194 177.25,143.32 C177.374377,143.597164 177.442364,143.896304 177.45,144.2 C177.435782,143.742766 177.535436,143.289168 177.74,142.88 C177.90364,142.555468 178.263415,142.379668 178.62,142.45 C178.95,142.57 179.13,143 179.28,143.27 C179.541493,143.74459 179.771976,144.235618 179.97,144.74 C179.84,144.18 179.65,143.64 179.54,143.07 C179.40964,142.598851 179.40964,142.101149 179.54,141.63 C179.591451,141.494307 179.699317,141.387661 179.835588,141.337759 C179.971858,141.287857 180.123087,141.299623 180.25,141.37 C180.469445,141.548399 180.658559,141.761152 180.81,142 C180.438164,141.490756 180.251199,140.86989 180.28,140.24 L180.28,140.24 Z" id="Shape" fill="#FFD45C" fill-rule="nonzero" stroke-width="1"/>
            <path d="M162.76,139.27 C162.485849,139.402327 162.201622,139.512674 161.91,139.6 C161.399217,139.722567 160.869708,139.746327 160.35,139.67 C159.699964,139.582285 159.068442,139.389789 158.48,139.1 C158.49077,139.246469 158.49077,139.393531 158.48,139.54 C158.48,139.79 158.48,140.05 158.38,140.29 C158.302006,140.519439 158.208456,140.743292 158.1,140.96 C157.973421,141.176251 157.875914,141.408252 157.81,141.65 C157.911015,141.44267 158.080589,141.276628 158.29,141.18 C158.46,141.09 158.9,141.01 159.06,141.18 C159.22,141.35 159.16,141.87 159.13,142.06 C159.1,142.25 159.07,142.59 159.03,142.85 C159.206919,142.351874 159.463597,141.885802 159.79,141.47 C159.95,141.26 160.21,140.64 160.53,140.9 C160.607835,142.03212 160.506591,143.169431 160.23,144.27 C160.45,144.05 160.49,143.54 160.59,143.27 C160.77,142.8 160.95,142.34 161.16,141.89 C161.26,141.67 161.9,140.05 162.16,140.18 C162.158848,140.348515 162.192909,140.515412 162.26,140.67 C162.342508,140.177422 162.511801,139.703402 162.76,139.27 L162.76,139.27 Z" id="Shape" fill="#FFD45C" fill-rule="nonzero" stroke-width="1"/>
            <path d="M185.6,111 C187.142395,111.112397 188.654198,111.487811 190.07,112.11 C191.565842,112.816377 192.889867,113.840107 193.95,115.11 C194.27606,115.492246 194.579893,115.892906 194.86,116.31 C193.94,112.69 189.14,109.74 185.19,110.62 C184.806688,110.705817 184.429253,110.816042 184.06,110.95 C184.573859,110.9277 185.08867,110.944415 185.6,111 L185.6,111 Z" id="Shape" fill="#F6F6F6" fill-rule="nonzero" stroke-width="1"/>
            <path d="M183.56,147 C183.146185,147.167291 182.721963,147.307585 182.29,147.42 C181.86,147.55 181.41,147.66 180.97,147.77 C179.668719,148.149956 178.324869,148.364972 176.97,148.41 C176.16551,148.464545 175.357354,148.403933 174.57,148.23 L174.57,148.23 C173.864499,148.143028 173.166072,148.006016 172.48,147.82 C172.484126,148.388886 172.420342,148.956232 172.29,149.51 C172.2808,149.694857 172.257398,149.878732 172.22,150.06 C172.22,150.25 172.13,150.45 172.08,150.63 C172.147213,150.53844 172.224349,150.454597 172.31,150.38 C172.500694,150.258724 172.705561,150.161328 172.92,150.09 C173.303161,149.938834 173.739814,150.038073 174.02,150.34 C174.297083,150.604437 174.470816,150.958993 174.51,151.34 C174.533474,151.706291 174.533474,152.073709 174.51,152.44 C174.577697,152.040822 174.796051,151.682864 175.12,151.44 C175.37,151.27 175.85,151.07 176.12,151.28 C176.67,151.69 176.46,152.86 176.46,153.43 C176.64,152.6 177.1,150.99 178.38,151.51 C178.794428,151.756112 179.090565,152.16059 179.2,152.63 C179.4,153.13 179.57,153.63 179.72,154.17 C179.72,153.49 179.72,152.8 179.72,152.11 C179.72,151.58 179.86,150.79 180.4,150.47 C181.4,149.91 182.15,151.75 182.4,152.35 C182.133374,151.068153 182.177954,149.741065 182.53,148.48 C182.67,148.12 182.87,147.71 183.35,147.8 C183.644714,147.876102 183.907456,148.044257 184.1,148.28 C183.880099,147.871288 183.699295,147.442718 183.56,147 L183.56,147 Z" id="Shape" fill="#FFD45C" fill-rule="nonzero" stroke-width="1"/>
            <path d="M185.67,145.29 C184.476732,146.45315 182.96098,147.230191 181.32,147.52 C179.918026,147.835285 178.486886,148.002866 177.05,148.02 C174.79,148.1 172.14,147.79 170.48,146.33 C171.095694,147.691888 172.257789,148.73051 173.68,149.19 C178.22,151.07 183.68,148.77 186.03,145 L185.67,145.29 Z" id="Shape" fill="#E5B076" fill-rule="nonzero" stroke-width="1"/>
            <path d="M166.72,145 C166.518134,145.167187 166.330797,145.351179 166.16,145.55 C165.190614,146.389947 164.040954,146.995572 162.8,147.32 C162.338129,147.492563 161.858523,147.613303 161.37,147.68 C161.07,147.68 160.76,147.56 160.46,147.54 C160.150222,147.520605 159.84753,147.43898 159.57,147.3 C159.29,147.17 159.01,147.09 158.73,146.98 C158.45785,146.846292 158.199878,146.685478 157.96,146.5 C157.441225,146.204999 156.969364,145.834251 156.56,145.4 C156.589303,146.281972 156.321673,147.148249 155.8,147.86 C156.077847,147.605177 156.446724,147.473183 156.823161,147.493887 C157.199598,147.514591 157.551775,147.686243 157.8,147.97 C158.29,148.61 157.8,149.08 157.65,149.71 C158.077104,149.304223 158.605614,149.02097 159.18,148.89 C159.631442,148.757127 160.114441,148.956989 160.34,149.37 C160.8,150.08 160.48,151.31 160.25,152.07 C160.62,151.07 161.84,149.4 163.16,150.07 C163.759314,150.523544 164.087047,151.250584 164.03,152 C164.102838,152.664677 164.102838,153.335323 164.03,154 C164.302796,153.09963 164.664582,152.228666 165.11,151.4 C165.482031,150.55408 165.988587,149.773984 166.61,149.09 C167.06,148.66 167.61,148.52 167.9,149.2 C168.058758,149.813403 168.099481,150.451391 168.02,151.08 C168.069118,150.340738 168.227505,149.612833 168.49,148.92 C168.665806,148.36435 168.936469,147.843325 169.29,147.38 C169.45,147.17 169.83,146.69 170.15,146.89 C170.47,147.09 170.38,147.53 170.38,147.82 C170.429509,147.646478 170.489622,147.476157 170.56,147.31 C170.637585,147.047877 170.731092,146.790733 170.84,146.54 L171,146.16 C169.538839,145.914194 168.10531,145.525667 166.72,145 L166.72,145 Z" id="Shape" fill="#FFD45C" fill-rule="nonzero" stroke-width="1"/>
            <path d="M177.08,143.55 C176.52397,144.114958 175.788488,144.468555 175,144.55 C173.018455,145.086391 170.972775,145.348831 168.92,145.33 C166.723839,145.05863 164.873462,143.56126 164.15,141.47 C164.339083,142.682162 164.930889,143.795322 165.83,144.63 C165.534216,145.477908 164.900779,146.16564 164.08,146.53 C162.955044,147.034086 161.708896,147.204173 160.49,147.02 C159.3854,146.789595 158.37727,146.227972 157.6,145.41 C156.700386,144.490808 156.10366,143.318293 155.89,142.05 C155.697759,143.31475 155.926122,144.607635 156.54,145.73 C157.54,147.96 159.76,148.96 162.31,148.89 C164.61,148.83 167.04,148.16 168.31,146.35 C168.492339,146.422712 168.679444,146.482853 168.87,146.53 C170.013131,146.724393 171.185333,146.659461 172.3,146.34 C174.176647,145.984967 175.874578,144.996566 177.11,143.54 L177.08,143.55 Z" id="Shape" fill="#E5B076" fill-rule="nonzero" stroke-width="1"/>
            <path d="M146.43,132.44 C145.631798,131.398585 145.0843,130.187247 144.83,128.9 C144.68521,128.160353 144.68521,127.399647 144.83,126.66 C144.894855,126.353024 144.985167,126.051983 145.1,125.76 C145.1,125.64 145.27,125.29 145.27,125.28 L145.27,125.28 C143.77,127.16 142.88,128.97 143.67,131.28 C144.280891,133.461542 145.932305,135.199084 148.08,135.92 C149.277953,136.197383 150.519832,136.228005 151.73,136.01 C149.600643,135.475438 147.725561,134.212411 146.43,132.44 L146.43,132.44 Z" id="Shape" fill="#E5B076" fill-rule="nonzero" stroke-width="1"/>
            <path d="M159.1,139 C157.931137,138.733216 156.824413,138.244357 155.84,137.56 C156.641544,139.14663 158.252808,140.161842 160.03,140.2 C161.141963,140.289666 162.258196,140.089847 163.27,139.62 C164.020713,139.274608 164.646028,138.705187 165.06,137.99 C163.62,139.29 160.87,139.42 159.1,139 Z" id="Shape" fill="#E5B076" fill-rule="nonzero" stroke-width="1"/>
            <path d="M180.55,137.71 C179.912022,138.808868 178.895141,139.637306 177.69,140.04 C175.88805,140.644638 173.93374,140.616417 172.15,139.96 C173.568198,141.069737 175.356852,141.595602 177.15,141.43 C179.42,141.09 181.44,139 181.15,136.83 C180.967237,137.134722 180.766899,137.428552 180.55,137.71 Z" id="Shape" fill="#E5B076" fill-rule="nonzero" stroke-width="1"/>
            <path d="M200.16,127.32 C199.8,127.05 199.31,126.94 198.97,126.66 C198.788878,126.513389 198.633421,126.337654 198.51,126.14 C198.127346,128.343273 196.741312,130.243063 194.76,131.28 C195.1925,131.726222 195.454426,132.310248 195.5,132.93 C195.68,132.56 195.67,132.2 195.97,131.87 C196.220533,131.590121 196.606778,131.474248 196.97,131.57 C197.329402,131.653611 197.669066,131.80646 197.97,132.02 C198.28,132.23 198.47,132.53 198.77,132.74 C198.58,132.05 197.77,131.05 198.23,130.33 C198.69,129.61 199.54,130.13 200.13,130.33 C199.526809,129.648578 199.073669,128.847917 198.8,127.98 C198.62,127.15 199.49,127 200.16,127.32 Z" id="Shape" fill="#FFD45C" fill-rule="nonzero" stroke-width="1"/>
            <path d="M197.45,133.44 C196.33465,134.567292 194.899951,135.324785 193.34,135.61 C191.24,135.99 189.71,135.04 188.13,133.91 C188.659778,134.749352 189.396776,135.438136 190.27,135.91 C191.217905,136.409733 192.297877,136.601961 193.36,136.46 C195.177188,136.29753 196.755273,135.142834 197.46,133.46 L197.45,133.44 Z" id="Shape" fill="#E5B076" fill-rule="nonzero" stroke-width="1"/>
            <path d="M198.53,124.69 C198.53,124.8 198.53,124.91 198.53,125.01 C198.388733,126.307419 197.917035,127.546915 197.16,128.61 C195.994703,130.166432 194.327212,131.272205 192.44,131.74 C196.3,132.19 199.93,128 198.53,124.69 Z" id="Shape" fill="#E5B076" fill-rule="nonzero" stroke-width="1"/>
            <polygon id="Shape" fill="#FFD45C" fill-rule="nonzero" points="207.22 121.93 206.22 120.98 205 121.64 205.6 120.39 204.59 119.44 205.96 119.62 206.56 118.37 206.81 119.73 208.18 119.91 206.97 120.57" stroke-width="1"/>
            <polygon id="Shape" fill="#F24E4E" fill-rule="nonzero" points="162.98 92.88 161.12 92.12 159.81 93.66 159.96 91.65 158.1 90.88 160.06 90.41 160.21 88.4 161.27 90.11 163.22 89.63 161.92 91.17" stroke-width="1"/>
            <polygon id="Shape" fill="#F9B233" fill-rule="nonzero" points="141.57 101.67 139.98 100.65 138.52 101.85 139 100.02 137.41 99 139.29 98.89 139.77 97.06 140.46 98.82 142.34 98.71 140.88 99.91" stroke-width="1"/>
            <path d="M163.3,161 C163.3,161 160.91,164.17 160.3,164 C159.69,163.83 165.08,164.52 165.08,164.52 L169.16,160.63 L163.3,161 Z" id="Shape" fill="#F24E4E" fill-rule="nonzero" stroke-width="1"/>
            <path d="M125.95,145 C125.95,145 127.36,148.71 126.88,149.16 C126.4,149.61 129.88,145.4 129.88,145.4 L128.77,139.88 L125.95,145 Z" id="Shape" fill="#F24E4E" fill-rule="nonzero" stroke-width="1"/>
            <path d="M194.14,166.13 C194.777556,167.895003 195.229985,169.721477 195.49,171.58 C195.74777,170.029216 196.115361,168.498698 196.59,167 C197.57,163.51 194.14,166.13 194.14,166.13 Z" id="Shape" fill="#F24E4E" fill-rule="nonzero" stroke-width="1"/>
            <path d="M180.45,158.06 C180.794086,159.008769 181.038731,159.9907 181.18,160.99 C181.318305,160.157092 181.515466,159.335032 181.77,158.53 C182.3,156.65 180.45,158.06 180.45,158.06 Z" id="Shape" fill="#F24E4E" fill-rule="nonzero" stroke-width="1"/>
            <path d="M138.48,122.24 C137.492353,122.436688 136.486986,122.530522 135.48,122.52 C136.286181,122.796859 137.071519,123.131046 137.83,123.52 C139.6,124.28 138.48,122.24 138.48,122.24 Z" id="Shape" fill="#F24E4E" fill-rule="nonzero" stroke-width="1"/>
            <path d="M198.41,146.43 L199.6,149.49 C199.75,149.88 201.38,146.49 201.38,146.49 L199.8,144.49 L198.41,146.43 Z" id="Shape" fill="#F24E4E" fill-rule="nonzero" stroke-width="1"/>
            <path d="M205.55,135.24 L208.55,136.49 C208.94,136.65 207.62,133.14 207.62,133.14 L205.1,132.92 L205.55,135.24 Z" id="Shape" fill="#F24E4E" fill-rule="nonzero" stroke-width="1"/>
        </g>
    </g>
</svg>