<?xml version="1.0" encoding="UTF-8"?><svg xmlns="http://www.w3.org/2000/svg" xmlns:xlink="http://www.w3.org/1999/xlink" width="71.72000122070312" height="44.250003814697266" viewBox="0.01000213623046875 0.18000030517578125 71.72000122070312 44.250003814697266" version="1.1">
    <!-- Generator: Sketch 46.2 (44496) - http://www.bohemiancoding.com/sketch -->
    <title>dumpling 2-a</title>
    <desc>Created with Sketch.</desc>
    <defs/>
    <g id="Page-1" stroke="none" fill-rule="evenodd">
        <g id="dumpling-2-a" fill-rule="nonzero">
            <ellipse id="Oval" fill="#FCD1B4" cx="35.87" cy="36.37" rx="22.83" ry="7.56" stroke-width="1"/>
            <ellipse id="Oval" fill="#F7E1C6" cx="35.87" cy="21.12" rx="35.36" ry="20.44" stroke-width="1"/>
            <ellipse id="Oval" fill="#FCD1B4" cx="35.87" cy="21.12" rx="22.98" ry="12.59" stroke-width="1"/>
            <path d="M31.35,9 L31.35,9 C30.9713344,8.81525466 30.517494,8.88766953 30.2151232,9.18108119 C29.9127524,9.47449284 29.8267241,9.9259506 30,10.31 C30.1229765,10.5026173 30.2635806,10.683394 30.42,10.85 C30.5209135,10.946803 30.5785858,11.0801702 30.58,11.22 C30.58,12.22 30.96,16.22 35.91,17.69 L36.09,17.75 C36.81,18.04 42.33,20 45.28,14.85 C45.3312426,14.7600104 45.4077256,14.6870039 45.5,14.64 C45.94,14.41 47.29,13.64 46.75,12.64 C46.7221905,12.5870075 46.6849085,12.5395577 46.64,12.5 C46.2787029,12.212152 45.8472393,12.0257597 45.39,11.96 C45.1992842,11.9299017 45.0391493,11.8002687 44.97,11.62 C44.7823438,11.1264713 44.3346784,10.7791446 43.81,10.72 C43.4842189,10.6321821 43.1439442,10.6117656 42.81,10.66 C42.5812975,10.7051491 42.3499451,10.5955611 42.24,10.39 C42.069277,9.96326124 41.6973002,9.64952715 41.2478808,9.55322299 C40.7984614,9.45691883 40.3305915,9.59068578 40,9.91 C39.9078729,9.98000292 39.7956968,10.0185634 39.68,10.02 L39.37,10.02 C39.2066601,10.0216182 39.0516992,9.94782734 38.95,9.82 C38.1497781,8.84948466 36.7613944,8.60747282 35.68,9.25 C35.4838926,9.33421209 35.2565844,9.29502102 35.1,9.15 C34.2867124,8.26992768 32.929424,8.17360399 32,8.93 C31.8236761,9.09673738 31.5577818,9.12537216 31.35,9 Z" id="Shape" fill="#FFF8F2" stroke-width="1"/>
            <path d="M32,10.88 C32,10.88 39.6,10.28 44.7,13.5" id="Shape" fill="#FFF8F2" stroke-width="1"/>
            <path d="M32,10.88 C33.0845818,10.6248292 34.1958449,10.5006095 35.31,10.51 C36.4260528,10.5057616 37.5403254,10.5994542 38.64,10.79 C40.8684669,11.1267687 42.9632976,12.0635659 44.7,13.5 C43.7,13.11 42.64,12.76 41.6,12.5 C40.56,12.24 39.52,11.98 38.46,11.8 C36.35,11.38 34.21,11.15 32,10.88 Z" id="Shape" fill="#FCE9C8" stroke-width="1"/>
            <path d="M31.72,9 C31.72,9 32.37,9.8 32,10.19" id="Shape" fill="#FFF8F2" stroke-width="1"/>
            <path d="M31.72,9 C31.9778795,9.05081983 32.1903377,9.23292686 32.28,9.48 C32.3242313,9.61308788 32.3242313,9.75691212 32.28,9.89 C32.2529576,10.0430958 32.1330958,10.1629576 31.98,10.19 C31.9787783,10.084892 31.9512765,9.98176009 31.9,9.89 C31.8584791,9.81575079 31.8217378,9.73892807 31.79,9.66 C31.7199006,9.44750204 31.696034,9.2224746 31.72,9 Z" id="Shape" fill="#FCE9C8" stroke-width="1"/>
            <path d="M35.25,9.26 C35.25,9.26 35.87,9.93 35.58,10.26" id="Shape" fill="#FFF8F2" stroke-width="1"/>
            <path d="M35.25,9.26 C35.4789829,9.26489258 35.686617,9.39562519 35.79,9.6 C35.8433423,9.70841814 35.8608516,9.83098273 35.84,9.95 C35.84,10.08 35.73,10.24 35.58,10.23 C35.5709387,10.1407924 35.5279852,10.0584648 35.46,10 C35.4113907,9.94992858 35.3709025,9.89257031 35.34,9.83 C35.2546399,9.65297206 35.2233363,9.45471591 35.25,9.26 L35.25,9.26 Z" id="Shape" fill="#FCE9C8" stroke-width="1"/>
            <path d="M39.23,10 C39.23,10 40,10.55 39.43,11.15" id="Shape" fill="#FFF8F2" stroke-width="1"/>
            <path d="M39.23,10 C39.523966,9.99039759 39.7854589,10.1854797 39.86,10.47 C39.9014668,10.6231434 39.8760264,10.7866888 39.79,10.92 C39.7115049,11.0460989 39.5780218,11.127672 39.43,11.14 C39.4371695,11.0267801 39.4371695,10.9132199 39.43,10.8 C39.4341097,10.7300603 39.4341097,10.6599397 39.43,10.59 C39.35,10.46 39.28,10.29 39.23,10 Z" id="Shape" fill="#FCE9C8" stroke-width="1"/>
            <path d="M42.5,10.58 C42.5,10.58 43.19,11.58 42.5,11.85" id="Shape" fill="#FFF8F2" stroke-width="1"/>
            <path d="M42.5,10.58 C42.7793062,10.6731619 42.9860627,10.9105491 43.04,11.2 C43.0740353,11.3669436 43.0378701,11.5405366 42.94,11.68 C42.8431245,11.8225624 42.6658206,11.8870366 42.5,11.84 C42.65,11.54 42.57,11.48 42.5,11.28 C42.4681993,11.0477502 42.4681993,10.8122498 42.5,10.58 Z" id="Shape" fill="#FCE9C8" stroke-width="1"/>
            <path d="M45.17,11.85 C45.17,11.85 45.5,12.85 44.93,12.85" id="Shape" fill="#FFF8F2" stroke-width="1"/>
            <path d="M45.17,11.85 C45.3922148,11.9700144 45.5247962,12.2078811 45.51,12.46 C45.5063975,12.6042963 45.445176,12.7411444 45.34,12.84 C45.2212797,12.939049 45.0487203,12.939049 44.93,12.84 C44.9926681,12.7723239 45.0251519,12.6820913 45.02,12.59 C45.0139697,12.5268102 45.0139697,12.4631898 45.02,12.4 C45.0333733,12.2085912 45.0843448,12.0216956 45.17,11.85 Z" id="Shape" fill="#FCE9C8" stroke-width="1"/>
            <path d="M42.05,13.86 L42,13.86 C41.5729964,13.8971657 41.2171627,14.2023223 41.1153386,14.6186698 C41.0135145,15.0350172 41.1883465,15.4699562 41.55,15.7 C41.7511683,15.8093511 41.9620779,15.899741 42.18,15.97 C42.3124142,16.0088945 42.4239359,16.0988313 42.49,16.22 C43,17.12 45.27,20.44 50.29,19.29 L50.48,19.29 C51.25,19.19 57.03,18.23 57.1,12.29 C57.1010745,12.1866245 57.1323586,12.0858202 57.19,12 C57.47,11.59 58.26,10.24 57.29,9.62 C57.2382574,9.58614979 57.1805757,9.56239847 57.12,9.55 C56.6664237,9.47313597 56.2005742,9.51799555 55.77,9.68 C55.5881438,9.74359739 55.3861792,9.70549086 55.24,9.58 C54.8378484,9.23790465 54.2782748,9.14914471 53.79,9.35 C53.4717631,9.43038573 53.1726491,9.57314466 52.91,9.77 C52.7227883,9.90835533 52.4672117,9.90835533 52.28,9.77 C51.9159695,9.46706225 51.4220249,9.3719556 50.9715333,9.518061 C50.5210416,9.6641664 50.176939,10.0310721 50.06,10.49 C50.0122241,10.5959063 49.9315647,10.6835794 49.83,10.74 L49.56,10.89 C49.4118985,10.9632632 49.2381015,10.9632632 49.09,10.89 C47.9271184,10.4594809 46.6231098,10.9279112 46,12 C45.8701552,12.1726964 45.6498686,12.2513701 45.44,12.2 C44.2930289,11.8193479 43.0489153,12.4040373 42.61,13.53 C42.5178512,13.7526083 42.289382,13.887242 42.05,13.86 L42.05,13.86 Z" id="Shape" fill="#FFF8F2" stroke-width="1"/>
            <path d="M43.56,15.22 C43.56,15.22 49.91,11 55.94,11.34" id="Shape" fill="#FFF8F2" stroke-width="1"/>
            <path d="M43.56,15.22 C44.3830479,14.4707892 45.2928594,13.8228423 46.27,13.29 C47.2285838,12.7476013 48.2323325,12.2892228 49.27,11.92 C51.3839486,11.1323068 53.6725181,10.9352548 55.89,11.35 C54.78,11.52 53.73,11.7 52.68,11.95 C51.63,12.2 50.61,12.51 49.59,12.87 C47.6,13.55 45.62,14.39 43.56,15.22 Z" id="Shape" fill="#FCE9C8" stroke-width="1"/>
            <path d="M42.42,13.74 C42.42,13.74 43.42,14.13 43.24,14.64" id="Shape" fill="#FFF8F2" stroke-width="1"/>
            <path d="M42.42,13.74 C42.6727162,13.6570123 42.9504824,13.7140875 43.15,13.89 C43.2594679,13.9796165 43.3367094,14.1025006 43.37,14.24 C43.4209057,14.3882878 43.3728259,14.5525605 43.25,14.65 C43.1975606,14.5557676 43.1218099,14.4765737 43.03,14.42 C42.9568438,14.3745731 42.8866978,14.3244688 42.82,14.27 C42.6504053,14.1238717 42.5140222,13.9431641 42.42,13.74 L42.42,13.74 Z" id="Shape" fill="#FCE9C8" stroke-width="1"/>
            <path d="M45.62,12.22 C45.62,12.22 46.49,12.51 46.38,12.9" id="Shape" fill="#FFF8F2" stroke-width="1"/>
            <path d="M45.62,12.22 C45.8143536,12.1053571 46.0556464,12.1053571 46.25,12.22 C46.3513532,12.2874443 46.42845,12.3855675 46.47,12.5 C46.5365148,12.6285141 46.4981113,12.7863949 46.38,12.87 C46.3274379,12.7967371 46.2486292,12.746586 46.16,12.73 C46.0923251,12.7101855 46.0282026,12.6798116 45.97,12.64 C45.8165851,12.5352289 45.6953886,12.3897931 45.62,12.22 L45.62,12.22 Z" id="Shape" fill="#FCE9C8" stroke-width="1"/>
            <path d="M49.45,10.95 C49.45,10.95 50.39,11.06 50.19,11.86" id="Shape" fill="#FFF8F2" stroke-width="1"/>
            <path d="M49.45,10.95 C49.7036941,10.7995611 50.0278042,10.8452689 50.23,11.06 C50.3422962,11.1739052 50.4005246,11.330394 50.39,11.49 C50.385316,11.637946 50.3112105,11.7750413 50.19,11.86 C50.1398566,11.7564415 50.0830715,11.6562326 50.02,11.56 C49.9765629,11.5039249 49.9298129,11.4504963 49.88,11.4 C49.78,11.29 49.64,11.17 49.45,10.95 Z" id="Shape" fill="#FCE9C8" stroke-width="1"/>
            <path d="M52.59,9.86 C52.59,9.86 53.67,10.4 53.21,10.97" id="Shape" fill="#FFF8F2" stroke-width="1"/>
            <path d="M52.59,9.86 C52.88031,9.80940281 53.175195,9.92046339 53.36,10.15 C53.4728636,10.2791713 53.5271692,10.4493288 53.51,10.62 C53.4981185,10.7921471 53.3771824,10.9372704 53.21,10.98 C53.21,10.64 53.09,10.63 52.98,10.47 C52.821974,10.2860088 52.6906816,10.080654 52.59,9.86 L52.59,9.86 Z" id="Shape" fill="#FCE9C8" stroke-width="1"/>
            <path d="M55.55,9.67 C55.55,9.67 56.31,10.35 55.84,10.67" id="Shape" fill="#FFF8F2" stroke-width="1"/>
            <path d="M55.55,9.67 C55.7994563,9.66683268 56.0287153,9.80671953 56.14,10.03 C56.196675,10.1642642 56.196675,10.3157358 56.14,10.45 C56.0972454,10.5988334 55.954055,10.6956975 55.8,10.68 C55.8372671,10.5938579 55.8372671,10.4961421 55.8,10.41 C55.7616985,10.3599376 55.7282161,10.3063658 55.7,10.25 C55.6104458,10.0691137 55.5593707,9.87162342 55.55,9.67 Z" id="Shape" fill="#FCE9C8" stroke-width="1"/>
            <path d="M29,22.08 L29,22.08 C29.3294461,22.3708644 29.810181,22.412551 30.1847775,22.1827373 C30.5593739,21.9529235 30.7400273,21.5054772 30.63,21.08 C30.5667531,20.8593556 30.483057,20.6450936 30.38,20.44 C30.3266667,20.312 30.3266667,20.168 30.38,20.04 C30.67,19.04 31.48,15.11 27.17,12.3 L27,12.29 C26.39,11.81 21.68,8.29 17.37,12.39 C17.29561,12.4620421 17.2017446,12.5107131 17.1,12.53 C16.61,12.62 15.1,12.99 15.32,14.11 C15.333564,14.1670947 15.3572739,14.2212887 15.39,14.27 C15.6412606,14.645194 15.9859051,14.9484812 16.39,15.15 C16.5633227,15.2355068 16.6777332,15.4071226 16.69,15.6 C16.7239634,16.1254697 17.0478952,16.5882293 17.53,16.8 C17.8079533,16.9722155 18.1172188,17.0877652 18.44,17.14 C18.6719392,17.1615066 18.8626501,17.3319291 18.91,17.56 C18.9386616,18.0422062 19.2173725,18.4743244 19.6448386,18.6993066 C20.0723048,18.9242888 20.5862928,18.9093805 21,18.66 C21.1103768,18.6233902 21.2296232,18.6233902 21.34,18.66 L21.63,18.75 C21.7867431,18.7983104 21.9122874,18.9164697 21.97,19.07 C22.454199,20.2498509 23.7355999,20.8905513 24.97,20.57 C25.1825968,20.5438822 25.3905342,20.6458893 25.5,20.83 C26.0238159,21.9227694 27.313616,22.4113968 28.43,21.94 C28.6309901,21.8703213 28.854161,21.9251352 29,22.08 L29,22.08 Z" id="Shape" fill="#FFF8F2" stroke-width="1"/>
            <path d="M29,20 C29,20 21.55,18.36 17.61,13.8" id="Shape" fill="#FFF8F2" stroke-width="1"/>
            <path d="M29,20 C27.8861895,19.9287045 26.7849716,19.7239049 25.72,19.39 C24.6524179,19.0680458 23.6151141,18.6531242 22.62,18.15 C20.5888433,17.1768961 18.8605196,15.6697978 17.62,13.79 C18.51,14.47 19.37,15.1 20.28,15.68 C21.19,16.26 22.12,16.78 23.08,17.26 C24.95,18.3 26.93,19.14 29,20 Z" id="Shape" fill="#FCE9C8" stroke-width="1"/>
            <path d="M28.69,21.9 C28.69,21.9 28.3,20.9 28.77,20.68" id="Shape" fill="#FFF8F2" stroke-width="1"/>
            <path d="M28.69,21.9 C28.4571996,21.7777429 28.3054282,21.5424972 28.29,21.28 C28.2790412,21.1393476 28.3141411,20.998948 28.39,20.88 C28.4610666,20.7391299 28.6136464,20.6588247 28.77,20.68 C28.7441799,20.7817204 28.7441799,20.8882796 28.77,20.99 C28.7752134,21.0732518 28.7752134,21.1567482 28.77,21.24 C28.7907537,21.4631884 28.7634755,21.6882333 28.69,21.9 Z" id="Shape" fill="#FCE9C8" stroke-width="1"/>
            <path d="M25.37,20.65 C25.37,20.65 24.97,19.83 25.37,19.65" id="Shape" fill="#FFF8F2" stroke-width="1"/>
            <path d="M25.37,20.65 C25.1521263,20.5797998 24.9906577,20.3952642 24.95,20.17 C24.9132949,20.0562203 24.9132949,19.9337797 24.95,19.82 C25,19.7 25.14,19.58 25.28,19.63 C25.2466154,19.7134517 25.2466154,19.8065483 25.28,19.89 C25.3103293,19.9531213 25.3305751,20.0206074 25.34,20.09 C25.4032083,20.2699843 25.4136177,20.4642928 25.37,20.65 Z" id="Shape" fill="#FCE9C8" stroke-width="1"/>
            <path d="M21.79,18.78 C21.79,18.78 21.22,18.03 21.93,17.62" id="Shape" fill="#FFF8F2" stroke-width="1"/>
            <path d="M21.79,18.78 C21.5016897,18.7046688 21.305591,18.4376407 21.32,18.14 C21.325458,17.9811427 21.3981671,17.8320891 21.52,17.73 C21.6313808,17.6301884 21.783616,17.5893448 21.93,17.62 C21.8929512,17.7279552 21.8628891,17.8381831 21.84,17.95 C21.8358672,18.019939 21.8358672,18.090061 21.84,18.16 C21.81,18.31 21.82,18.49 21.79,18.78 Z" id="Shape" fill="#FCE9C8" stroke-width="1"/>
            <path d="M18.83,17.28 C18.83,17.28 18.46,16.13 19.2,16.07" id="Shape" fill="#FFF8F2" stroke-width="1"/>
            <path d="M18.83,17.28 C18.592338,17.1081745 18.4661158,16.8213058 18.5,16.53 C18.5147142,16.3612677 18.5978176,16.2059005 18.73,16.1 C18.8701468,15.9982529 19.0598532,15.9982529 19.2,16.1 C18.97,16.35 19.03,16.43 19,16.62 C18.9727685,16.8465496 18.9156032,17.0684855 18.83,17.28 L18.83,17.28 Z" id="Shape" fill="#FCE9C8" stroke-width="1"/>
            <path d="M16.64,15.29 C16.64,15.29 16.64,14.29 17.17,14.38" id="Shape" fill="#FFF8F2" stroke-width="1"/>
            <path d="M16.64,15.29 C16.4625624,15.111492 16.4041283,14.8465909 16.49,14.61 C16.5379676,14.4732887 16.6388593,14.3615871 16.77,14.3 C16.9052538,14.2272141 17.0731449,14.2607923 17.17,14.38 C17.05,14.47 17.01,14.54 17.01,14.6 C17.015411,14.659878 17.015411,14.720122 17.01,14.78 C16.9252567,14.9749038 16.7989832,15.1489565 16.64,15.29 L16.64,15.29 Z" id="Shape" fill="#FCE9C8" stroke-width="1"/>
            <path d="M56.95,17.14 L57,17.14 C57.3790541,16.9383342 57.5870673,16.5172045 57.5168481,16.0936241 C57.4466289,15.6700437 57.1138515,15.3385638 56.69,15.27 C56.4638165,15.2490702 56.2361835,15.2490702 56.01,15.27 C55.8718461,15.2903878 55.7312981,15.2543498 55.62,15.17 C54.8,14.54 51.41,12.38 47.25,15.41 L47.09,15.51 C46.42,15.91 41.48,19.06 43.74,24.51 C43.7688925,24.6079131 43.7688925,24.7120869 43.74,24.81 C43.65,25.3 43.45,26.81 44.58,27.04 C44.6394852,27.051115 44.7005148,27.051115 44.76,27.04 C45.223929,26.9436424 45.6527061,26.7223381 46,26.4 C46.1422036,26.2675462 46.3446109,26.2217181 46.53,26.28 C47.033421,26.4345952 47.5810361,26.2957633 47.95,25.92 C48.2093429,25.7212066 48.4268429,25.4731207 48.59,25.19 C48.6957014,24.9846019 48.9222607,24.8713223 49.15,24.91 C49.79,25.01 50.87,24.91 50.91,23.38 C50.9114366,23.2643032 50.9499971,23.1521271 51.02,23.06 L51.21,22.82 C51.30966,22.6884162 51.464937,22.6107777 51.63,22.61 C52.8912501,22.5747661 53.9371038,21.622444 54.09,20.37 C54.1419625,20.1635669 54.3103541,20.0069235 54.52,19.97 C55.726361,19.8693887 56.641518,18.8398371 56.6,17.63 C56.6063182,17.4107404 56.7446414,17.2170879 56.95,17.14 L56.95,17.14 Z" id="Shape" fill="#FFF8F2" stroke-width="1"/>
            <path d="M55,16.48 C55,16.48 50.81,22.85 45.14,24.91" id="Shape" fill="#FFF8F2" stroke-width="1"/>
            <path d="M55,16.48 C54.5355829,17.4928026 53.9514144,18.4462731 53.26,19.32 C52.5800366,20.2044968 51.8238056,21.0276509 51,21.78 C49.3659557,23.3324597 47.3402506,24.4109921 45.14,24.9 C46.14,24.31 46.99,23.73 47.85,23.09 C48.71,22.45 49.54,21.76 50.33,21.04 C52,19.6 53.45,18.05 55,16.48 Z" id="Shape" fill="#FCE9C8" stroke-width="1"/>
            <path d="M56.66,17.39 C56.66,17.39 55.66,17.39 55.55,16.88" id="Shape" fill="#FFF8F2" stroke-width="1"/>
            <path d="M56.66,17.39 C56.4604824,17.5659125 56.1827162,17.6229877 55.93,17.54 C55.7947981,17.5020715 55.6755144,17.4213796 55.59,17.31 C55.5028412,17.1835654 55.5028412,17.0164346 55.59,16.89 C55.674996,16.9538233 55.7747582,16.9951042 55.88,17.01 C55.9645339,17.0246175 56.0480397,17.0446589 56.13,17.07 C56.3261553,17.1404308 56.5063244,17.2492121 56.66,17.39 L56.66,17.39 Z" id="Shape" fill="#FCE9C8" stroke-width="1"/>
            <path d="M54.31,20 C54.31,20 53.4,20.08 53.31,19.67" id="Shape" fill="#FFF8F2" stroke-width="1"/>
            <path d="M54.31,20 C54.1661102,20.1786986 53.9353,20.263329 53.71,20.22 C53.5912601,20.197623 53.4827029,20.1380916 53.4,20.05 C53.2867697,19.9567392 53.2610126,19.793611 53.34,19.67 C53.4234517,19.7033846 53.5165483,19.7033846 53.6,19.67 C53.6695648,19.6589617 53.7404352,19.6589617 53.81,19.67 C54.0064742,19.7263186 54.1809734,19.8414881 54.31,20 Z" id="Shape" fill="#FCE9C8" stroke-width="1"/>
            <path d="M51.28,22.72 C51.28,22.72 50.38,22.99 50.28,22.18" id="Shape" fill="#FFF8F2" stroke-width="1"/>
            <path d="M51.28,22.72 C51.1071957,22.9594721 50.7912411,23.0467754 50.52,22.93 C50.3710218,22.8708649 50.2545242,22.7507268 50.2,22.6 C50.1339679,22.4677861 50.1339679,22.3122139 50.2,22.18 C50.2889528,22.2525957 50.3824788,22.3194 50.48,22.38 C50.5415048,22.4137173 50.6049488,22.4437697 50.67,22.47 C50.85,22.54 51,22.59 51.28,22.72 Z" id="Shape" fill="#FCE9C8" stroke-width="1"/>
            <path d="M48.82,25 C48.82,25 47.61,24.93 47.82,24.22" id="Shape" fill="#FFF8F2" stroke-width="1"/>
            <path d="M48.82,25 C48.5668563,25.1485734 48.2531437,25.1485734 48,25 C47.84713,24.9257384 47.7314464,24.7919793 47.68,24.63 C47.6239684,24.4655139 47.6805429,24.2836674 47.82,24.18 C47.97,24.49 48.06,24.45 48.23,24.56 C48.4466835,24.6777171 48.6453714,24.8258911 48.82,25 Z" id="Shape" fill="#FCE9C8" stroke-width="1"/>
            <path d="M46.18,26.29 C46.18,26.29 45.18,25.96 45.52,25.47" id="Shape" fill="#FFF8F2" stroke-width="1"/>
            <path d="M46.18,26.29 C45.9500659,26.3932727 45.6811554,26.3543002 45.49,26.19 C45.3798034,26.0969837 45.3113889,25.9637554 45.3,25.82 C45.2780224,25.6652629 45.3710353,25.5172877 45.52,25.47 C45.5330272,25.5626658 45.5836707,25.6458659 45.66,25.7 C45.7167752,25.7313899 45.770361,25.7682302 45.82,25.81 C45.9719371,25.9433511 46.0945254,26.106802 46.18,26.29 L46.18,26.29 Z" id="Shape" fill="#FCE9C8" stroke-width="1"/>
            <path d="M30.53,14 L30.53,14 C30.2188259,13.7106454 29.7587716,13.6495376 29.3828515,13.8476272 C29.0069314,14.0457169 28.7972462,14.4597413 28.86,14.88 C28.9129839,15.1030299 28.9866356,15.3206373 29.08,15.53 C29.1333333,15.658 29.1333333,15.802 29.08,15.93 C28.75,16.93 27.76,20.81 31.95,23.8 L32.1,23.92 C32.69,24.43 37.24,28.12 41.73,24.24 C41.8056205,24.1715958 41.8993683,24.1264579 42,24.11 C42.49,24.04 44,23.74 43.85,22.61 C43.8406861,22.5501102 43.8203418,22.4924682 43.79,22.44 C43.5454871,22.0464346 43.2002447,21.7253592 42.79,21.51 C42.6214147,21.4174644 42.5147641,21.2422528 42.51,21.05 C42.4963618,20.5248464 42.1919054,20.0508194 41.72,19.82 C41.451165,19.636119 41.1487416,19.5069945 40.83,19.44 C40.5997286,19.4079105 40.4172554,19.2294923 40.38,19 C40.365464,18.5288163 40.1114153,18.0976506 39.7062954,17.8566043 C39.3011756,17.615558 38.8010399,17.5979839 38.38,17.81 C38.2696232,17.8466098 38.1503768,17.8466098 38.04,17.81 L37.75,17.71 C37.5948833,17.6569563 37.4730437,17.5351167 37.42,17.38 C36.9858643,16.1980851 35.7540506,15.5099684 34.52,15.76 C34.3042179,15.7762545 34.0995708,15.6621244 34,15.47 C33.5257724,14.3587542 32.2642161,13.8136916 31.13,14.23 C30.9011831,14.2936172 30.6576612,14.2002672 30.53,14 L30.53,14 Z" id="Shape" fill="#FFF8F2" stroke-width="1"/>
            <path d="M30.51,16 C30.51,16 37.88,18 41.62,22.69" id="Shape" fill="#FFF8F2" stroke-width="1"/>
            <path d="M30.51,16 C31.6194455,16.1190276 32.7105874,16.3708296 33.76,16.75 C34.7976675,17.1192228 35.8014162,17.5776013 36.76,18.12 C38.7517574,19.1775035 40.4180124,20.7573345 41.58,22.69 C40.72,21.98 39.89,21.3 39,20.69 C38.11,20.08 37.21,19.51 36.27,18.99 C34.44,18 32.49,17 30.51,16 Z" id="Shape" fill="#FCE9C8" stroke-width="1"/>
            <path d="M30.86,14.2 C30.86,14.2 31.21,15.2 30.73,15.42" id="Shape" fill="#FFF8F2" stroke-width="1"/>
            <path d="M30.86,14.2 C31.0872084,14.3335128 31.2276726,14.5764779 31.23,14.84 C31.2328992,14.9795106 31.1908253,15.1162508 31.11,15.23 C31.0316983,15.3670411 30.8750855,15.4393239 30.72,15.41 C30.7458201,15.3082796 30.7458201,15.2017204 30.72,15.1 C30.7147866,15.0167482 30.7147866,14.9332518 30.72,14.85 C30.7197254,14.625823 30.7674624,14.4041867 30.86,14.2 Z" id="Shape" fill="#FCE9C8" stroke-width="1"/>
            <path d="M34.11,15.59 C34.11,15.59 34.47,16.43 34.11,16.59" id="Shape" fill="#FFF8F2" stroke-width="1"/>
            <path d="M34.11,15.59 C34.3257392,15.669592 34.4797066,15.8620513 34.51,16.09 C34.5277785,16.2100792 34.5067581,16.3326985 34.45,16.44 C34.39,16.56 34.25,16.67 34.11,16.62 C34.1433846,16.5365483 34.1433846,16.4434517 34.11,16.36 C34.0796707,16.2968787 34.0594249,16.2293926 34.05,16.16 C34.0139561,15.9682156 34.0348129,15.7700759 34.11,15.59 Z" id="Shape" fill="#FCE9C8" stroke-width="1"/>
            <path d="M37.61,17.62 C37.61,17.62 38.15,18.39 37.42,18.77" id="Shape" fill="#FFF8F2" stroke-width="1"/>
            <path d="M37.61,17.62 C37.8902111,17.7076676 38.0727146,17.977275 38.05,18.27 C38.0368083,18.4285285 37.9568178,18.5739658 37.83,18.67 C37.7150652,18.7627527 37.5632163,18.7960854 37.42,18.76 C37.4637742,18.6524982 37.5005183,18.542266 37.53,18.43 C37.5341562,18.3600617 37.5341562,18.2899383 37.53,18.22 C37.57,18.09 37.57,17.91 37.61,17.62 Z" id="Shape" fill="#FCE9C8" stroke-width="1"/>
            <path d="M40.51,19.25 C40.51,19.25 40.83,20.42 40.09,20.45" id="Shape" fill="#FFF8F2" stroke-width="1"/>
            <path d="M40.51,19.25 C40.7432541,19.4325166 40.8582952,19.7277888 40.81,20.02 C40.7876948,20.188327 40.6973299,20.3401401 40.56,20.44 C40.4198532,20.5417471 40.2301468,20.5417471 40.09,20.44 C40.33,20.2 40.27,20.12 40.32,19.93 C40.3518726,19.6956975 40.4158045,19.4668888 40.51,19.25 L40.51,19.25 Z" id="Shape" fill="#FCE9C8" stroke-width="1"/>
            <path d="M42.61,21.33 C42.61,21.33 42.61,22.33 42.04,22.22" id="Shape" fill="#FFF8F2" stroke-width="1"/>
            <path d="M42.61,21.33 C42.7810833,21.5169439 42.827923,21.7862724 42.73,22.02 C42.6774328,22.1548161 42.5729572,22.2628943 42.44,22.32 C42.3000979,22.3884529 42.1312299,22.3462359 42.04,22.22 C42.16,22.14 42.2,22.07 42.21,22.01 C42.2242498,21.948234 42.2443402,21.8879627 42.27,21.83 C42.3472017,21.6414341 42.4630183,21.4711155 42.61,21.33 L42.61,21.33 Z" id="Shape" fill="#FCE9C8" stroke-width="1"/>
            <path d="M40.82,21.87 L40.87,21.87 C41.2501854,21.6640976 41.4549861,21.23718 41.3776429,20.8117922 C41.3002996,20.3864044 40.9583312,20.0588994 40.53,20 C40.3038165,19.9790702 40.0761835,19.9790702 39.85,20 C39.7118461,20.0203878 39.5712981,19.9843498 39.46,19.9 C38.63,19.29 35.21,17.17 31.09,20.26 L30.93,20.37 C30.27,20.78 25.37,24 27.71,29.45 C27.7388925,29.5479131 27.7388925,29.6520869 27.71,29.75 C27.63,30.24 27.45,31.75 28.58,31.97 C28.6394852,31.981115 28.7005148,31.981115 28.76,31.97 C29.2282232,31.8622583 29.6574354,31.6268839 30,31.29 C30.1401635,31.15402 30.3428233,31.104311 30.53,31.16 C31.0371419,31.3096013 31.5853573,31.1628958 31.95,30.78 C32.2067492,30.5772971 32.4208597,30.3258023 32.58,30.04 C32.6825924,29.8307129 32.9098732,29.7130139 33.14,29.75 C33.79,29.84 34.86,29.75 34.88,28.19 C34.8814366,28.0743032 34.9199971,27.9621271 34.99,27.87 L35.17,27.63 C35.26966,27.4984162 35.424937,27.4207777 35.59,27.42 C36.8454922,27.3578904 37.8684383,26.3901239 38,25.14 C38.0485109,24.9296775 38.2176071,24.7684463 38.43,24.73 C39.61649,24.5894435 40.4909302,23.5532319 40.43,22.36 C40.4423439,22.1302638 40.5988911,21.9335763 40.82,21.87 L40.82,21.87 Z" id="Shape" fill="#FFF8F2" stroke-width="1"/>
            <path d="M38.89,21.24 C38.89,21.24 34.79,27.67 29.15,29.81" id="Shape" fill="#FFF8F2" stroke-width="1"/>
            <path d="M38.89,21.24 C38.4433875,22.2607679 37.8760055,23.2243102 37.2,24.11 C36.5400089,24.9989305 35.8038977,25.8287286 35,26.59 C33.3904211,28.1672878 31.3820235,29.2769188 29.19,29.8 C30.13,29.19 31.02,28.6 31.88,27.95 C32.74,27.3 33.55,26.6 34.33,25.86 C35.87,24.4 37.34,22.83 38.89,21.24 Z" id="Shape" fill="#FCE9C8" stroke-width="1"/>
            <path d="M40.53,22.13 C40.53,22.13 39.53,22.13 39.41,21.64" id="Shape" fill="#FFF8F2" stroke-width="1"/>
            <path d="M40.53,22.13 C40.3346165,22.3058117 40.0614559,22.366514 39.81,22.29 C39.6747981,22.2520715 39.5555144,22.1713796 39.47,22.06 C39.367068,21.944265 39.3471157,21.7766655 39.42,21.64 C39.504996,21.7038233 39.6047582,21.7451042 39.71,21.76 C39.7943119,21.7713328 39.8778149,21.7880334 39.96,21.81 C40.1703473,21.8754931 40.3645561,21.9845227 40.53,22.13 L40.53,22.13 Z" id="Shape" fill="#FCE9C8" stroke-width="1"/>
            <path d="M38.22,24.81 C38.22,24.81 37.31,24.9 37.22,24.49" id="Shape" fill="#FFF8F2" stroke-width="1"/>
            <path d="M38.22,24.81 C38.0802668,24.9888929 37.8539421,25.0771212 37.63,25.04 C37.5112601,25.017623 37.4027029,24.9580916 37.32,24.87 C37.2033914,24.779587 37.1732624,24.6160294 37.25,24.49 C37.3334517,24.5233846 37.4265483,24.5233846 37.51,24.49 C37.5795648,24.4789617 37.6504352,24.4789617 37.72,24.49 C37.9152149,24.543598 38.0895656,24.6551824 38.22,24.81 Z" id="Shape" fill="#FCE9C8" stroke-width="1"/>
            <path d="M35.23,27.53 C35.23,27.53 34.33,27.81 34.23,27" id="Shape" fill="#FFF8F2" stroke-width="1"/>
            <path d="M35.23,27.53 C35.0600462,27.7731026 34.7435352,27.8647242 34.47,27.75 C34.3210218,27.6908649 34.2045242,27.5707268 34.15,27.42 C34.0839679,27.2877861 34.0839679,27.1322139 34.15,27 C34.238936,27.0726177 34.3324635,27.139423 34.43,27.2 C34.4914941,27.2337381 34.5549394,27.2637911 34.62,27.29 C34.8,27.35 35,27.4 35.23,27.53 Z" id="Shape" fill="#FCE9C8" stroke-width="1"/>
            <path d="M32.8,29.8 C32.8,29.8 31.59,29.75 31.8,29.04" id="Shape" fill="#FFF8F2" stroke-width="1"/>
            <path d="M32.8,29.8 C32.5560223,29.9643238 32.2421354,29.9834632 31.98,29.85 C31.8233294,29.7779287 31.7037552,29.6438607 31.65,29.48 C31.5917937,29.3176597 31.6441892,29.1362909 31.78,29.03 C31.93,29.33 32.03,29.3 32.2,29.4 C32.4177391,29.5045881 32.6197114,29.6392363 32.8,29.8 Z" id="Shape" fill="#FCE9C8" stroke-width="1"/>
            <path d="M30.18,31.17 C30.18,31.17 29.18,30.85 29.51,30.36" id="Shape" fill="#FFF8F2" stroke-width="1"/>
            <path d="M30.18,31.17 C29.9519552,31.2760024 29.6832248,31.2409506 29.49,31.08 C29.3760683,30.9887648 29.3039221,30.8552944 29.29,30.71 C29.2680224,30.5552629 29.3610353,30.4072877 29.51,30.36 C29.5254409,30.4543455 29.5798881,30.5378313 29.66,30.59 C29.7167752,30.6213899 29.770361,30.6582302 29.82,30.7 C29.9708383,30.8304373 30.0933568,30.990392 30.18,31.17 L30.18,31.17 Z" id="Shape" fill="#FCE9C8" stroke-width="1"/>
            <path d="M42.61,20.87 L42.61,20.87 C42.2193868,20.7000533 41.7639929,20.7962125 41.4754326,21.109571 C41.1868723,21.4229295 41.1284984,21.8846899 41.33,22.26 C41.4529765,22.4526173 41.5935806,22.633394 41.75,22.8 C41.8509135,22.896803 41.9085858,23.0301702 41.91,23.17 C41.91,24.17 42.29,28.17 47.24,29.64 L47.42,29.7 C48.14,29.99 53.66,31.95 56.61,26.8 C56.6612426,26.7100104 56.7377256,26.6370039 56.83,26.59 C57.27,26.36 58.62,25.59 58.08,24.59 C58.0521905,24.5370075 58.0149085,24.4895577 57.97,24.45 C57.6087029,24.162152 57.1772393,23.9757597 56.72,23.91 C56.5292842,23.8799017 56.3691493,23.7502687 56.3,23.57 C56.1123438,23.0764713 55.6646784,22.7291446 55.14,22.67 C54.8142189,22.5821821 54.4739442,22.5617656 54.14,22.61 C53.9112975,22.6551491 53.6799451,22.5455611 53.57,22.34 C53.3991377,21.898319 53.0137283,21.5751021 52.5490374,21.4837873 C52.0843465,21.3924725 51.6052899,21.5458162 51.28,21.89 C51.1878729,21.9600029 51.0756968,21.9985634 50.96,22 L50.65,22 C50.4866601,22.0016182 50.3316992,21.9278273 50.23,21.8 C49.4297781,20.8294847 48.0413944,20.5874728 46.96,21.23 C46.7638926,21.3142121 46.5365844,21.275021 46.38,21.13 C45.5617194,20.2406183 44.1900844,20.1482967 43.26,20.92 C43.0565785,21.0507528 42.7910309,21.0303261 42.61,20.87 Z" id="Shape" fill="#FFF8F2" stroke-width="1"/>
            <path d="M43.26,22.8 C43.26,22.8 50.86,22.2 55.96,25.42" id="Shape" fill="#FFF8F2" stroke-width="1"/>
            <path d="M43.26,22.8 C44.3445818,22.5448292 45.4558449,22.4206095 46.57,22.43 C47.6860528,22.4257616 48.8003254,22.5194542 49.9,22.71 C52.1415067,23.036887 54.2509318,23.9705669 56,25.41 C55,25.02 53.94,24.67 52.9,24.41 C51.86,24.15 50.82,23.89 49.76,23.71 C47.61,23.3 45.47,23.07 43.26,22.8 Z" id="Shape" fill="#FCE9C8" stroke-width="1"/>
            <path d="M43,20.95 C43,20.95 43.65,21.75 43.28,22.14" id="Shape" fill="#FFF8F2" stroke-width="1"/>
            <path d="M43,20.95 C43.2578795,21.0008198 43.4703377,21.1829269 43.56,21.43 C43.6042313,21.5630879 43.6042313,21.7069121 43.56,21.84 C43.5329576,21.9930958 43.4130958,22.1129576 43.26,22.14 C43.2587783,22.034892 43.2312765,21.9317601 43.18,21.84 C43.1384791,21.7657508 43.1017378,21.6889281 43.07,21.61 C42.9999006,21.397502 42.976034,21.1724746 43,20.95 L43,20.95 Z" id="Shape" fill="#FCE9C8" stroke-width="1"/>
            <path d="M46.52,21.18 C46.52,21.18 47.14,21.85 46.85,22.18" id="Shape" fill="#FFF8F2" stroke-width="1"/>
            <path d="M46.52,21.18 C46.7489829,21.1848926 46.956617,21.3156252 47.06,21.52 C47.1133423,21.6284181 47.1308516,21.7509827 47.11,21.87 C47.11,22 47,22.16 46.85,22.15 C46.8409387,22.0607924 46.7979852,21.9784648 46.73,21.92 C46.6813907,21.8699286 46.6409025,21.8125703 46.61,21.75 C46.5246399,21.5729721 46.4933363,21.3747159 46.52,21.18 Z" id="Shape" fill="#FCE9C8" stroke-width="1"/>
            <path d="M50.49,21.92 C50.49,21.92 51.26,22.47 50.69,23.07" id="Shape" fill="#FFF8F2" stroke-width="1"/>
            <path d="M50.49,21.92 C50.783966,21.9103976 51.0454589,22.1054797 51.12,22.39 C51.1614668,22.5431434 51.1360264,22.7066888 51.05,22.84 C50.9715049,22.9660989 50.8380218,23.047672 50.69,23.06 C50.6971963,22.9467809 50.6971963,22.8332191 50.69,22.72 C50.6941097,22.6500603 50.6941097,22.5799397 50.69,22.51 C50.61,22.38 50.55,22.21 50.49,21.92 Z" id="Shape" fill="#FCE9C8" stroke-width="1"/>
            <path d="M53.76,22.5 C53.76,22.5 54.45,23.5 53.76,23.77" id="Shape" fill="#FFF8F2" stroke-width="1"/>
            <path d="M53.76,22.5 C54.0393062,22.5931619 54.2460627,22.8305491 54.3,23.12 C54.3340353,23.2869436 54.2978701,23.4605366 54.2,23.6 C54.1031245,23.7425624 53.9258206,23.8070366 53.76,23.76 C53.91,23.46 53.83,23.4 53.76,23.2 C53.7281993,22.9677502 53.7281993,22.7322498 53.76,22.5 L53.76,22.5 Z" id="Shape" fill="#FCE9C8" stroke-width="1"/>
            <path d="M56.44,23.77 C56.44,23.77 56.77,24.77 56.2,24.77" id="Shape" fill="#FFF8F2" stroke-width="1"/>
            <path d="M56.44,23.77 C56.6622148,23.8900144 56.7947962,24.1278811 56.78,24.38 C56.7763975,24.5242963 56.715176,24.6611444 56.61,24.76 C56.4912797,24.859049 56.3187203,24.859049 56.2,24.76 C56.2626681,24.6923239 56.2951519,24.6020913 56.29,24.51 C56.2839697,24.4468102 56.2839697,24.3831898 56.29,24.32 C56.3033733,24.1285912 56.3543448,23.9416956 56.44,23.77 L56.44,23.77 Z" id="Shape" fill="#FCE9C8" stroke-width="1"/>
            <path d="M38.58,29.14 L38.53,29.14 C38.1032233,29.1484263 37.7288471,29.4268226 37.5979319,29.8331114 C37.4670166,30.2394001 37.6084289,30.683995 37.95,30.94 C38.143293,31.0620034 38.3475041,31.1657828 38.56,31.25 C38.6885115,31.2982004 38.7927547,31.3952544 38.85,31.52 C39.29,32.46 41.31,35.93 46.39,35.16 L46.58,35.16 C47.36,35.16 53.19,34.59 53.71,28.68 C53.7188527,28.5780012 53.7570586,28.4807497 53.82,28.4 C54.12,28 55,26.7 54.09,26 C54.0420274,25.9637415 53.9877904,25.936623 53.93,25.92 C53.484696,25.7993359 53.015304,25.7993359 52.57,25.92 C52.3858759,25.9718217 52.1880758,25.9223717 52.05,25.79 C51.6726521,25.4210536 51.1208622,25.2937175 50.62,25.46 C50.2964958,25.5153037 49.987186,25.634269 49.71,25.81 C49.5227883,25.9483553 49.2672117,25.9483553 49.08,25.81 C48.7399646,25.4794744 48.2540402,25.3466876 47.7931691,25.4583524 C47.3322979,25.5700172 46.9610402,25.9104913 46.81,26.36 C46.7561746,26.4599953 46.6721943,26.5404765 46.57,26.59 L46.29,26.72 C46.1418985,26.7932632 45.9681015,26.7932632 45.82,26.72 C44.6844672,26.1743596 43.3206507,26.5397435 42.61,27.58 C42.4687721,27.7420154 42.2449105,27.8048537 42.04,27.74 C40.9263527,27.2749673 39.6435179,27.7626202 39.12,28.85 C39.0176168,29.0493559 38.8027383,29.1647536 38.58,29.14 Z" id="Shape" fill="#FFF8F2" stroke-width="1"/>
            <path d="M40,30.62 C40,30.62 46.65,26.89 52.63,27.68" id="Shape" fill="#FFF8F2" stroke-width="1"/>
            <path d="M40,30.62 C40.8773713,29.9313968 41.8342129,29.3505772 42.85,28.89 C43.8645457,28.4183806 44.9186073,28.0369107 46,27.75 C48.1650487,27.1211699 50.4604294,27.0935147 52.64,27.67 C51.52,27.76 50.46,27.86 49.4,28.03 C48.34,28.2 47.29,28.43 46.25,28.71 C44.14,29.25 42.1,29.94 40,30.62 Z" id="Shape" fill="#FCE9C8" stroke-width="1"/>
            <path d="M39,29.05 C39,29.05 39.93,29.51 39.75,30.05" id="Shape" fill="#FFF8F2" stroke-width="1"/>
            <path d="M39,29.05 C39.2553622,28.9876364 39.5247357,29.0635162 39.71,29.25 C39.810244,29.3465621 39.8768444,29.4727524 39.9,29.61 C39.939797,29.7616471 39.8796972,29.9219132 39.75,30.01 C39.7045409,29.914477 39.6357595,29.8319394 39.55,29.77 C39.4831156,29.7174318 39.4196534,29.6606498 39.36,29.6 C39.2025345,29.4441234 39.0798457,29.2566822 39,29.05 Z" id="Shape" fill="#FCE9C8" stroke-width="1"/>
            <path d="M42.25,27.78 C42.25,27.78 43.09,28.13 42.95,28.52" id="Shape" fill="#FFF8F2" stroke-width="1"/>
            <path d="M42.25,27.78 C42.4587537,27.6889285 42.700634,27.7196435 42.88,27.86 C42.9756152,27.9331239 43.0456266,28.0346404 43.08,28.15 C43.1349587,28.283149 43.0838564,28.4364561 42.96,28.51 C42.9135699,28.4312985 42.8382022,28.3738755 42.75,28.35 C42.6852056,28.3261409 42.6244888,28.2924092 42.57,28.25 C42.4201022,28.1275977 42.3089413,27.9643301 42.25,27.78 Z" id="Shape" fill="#FCE9C8" stroke-width="1"/>
            <path d="M46.18,26.79 C46.18,26.79 47.1,26.96 46.85,27.79" id="Shape" fill="#FFF8F2" stroke-width="1"/>
            <path d="M46.18,26.79 C46.4425291,26.6569131 46.7622229,26.723343 46.95,26.95 C47.0541832,27.07137 47.1014938,27.2314981 47.08,27.39 C47.0624224,27.5362651 46.9772821,27.6658265 46.85,27.74 C46.8066978,27.6335577 46.7565944,27.5300106 46.7,27.43 C46.6601352,27.3707631 46.6167226,27.3139927 46.57,27.26 C46.48,27.16 46.35,27 46.18,26.79 Z" id="Shape" fill="#FCE9C8" stroke-width="1"/>
            <path d="M49.39,25.95 C49.39,25.95 50.39,26.57 49.92,27.1" id="Shape" fill="#FFF8F2" stroke-width="1"/>
            <path d="M49.39,25.95 C49.6832581,25.9183222 49.970554,26.048563 50.14,26.29 C50.2413601,26.4279529 50.2811715,26.6016753 50.25,26.77 C50.2222181,26.9394208 50.0894208,27.0722181 49.92,27.1 C49.92,26.76 49.83,26.74 49.73,26.58 C49.5879407,26.3868205 49.473506,26.1747797 49.39,25.95 L49.39,25.95 Z" id="Shape" fill="#FCE9C8" stroke-width="1"/>
            <path d="M52.35,26 C52.35,26 53.05,26.74 52.56,27" id="Shape" fill="#FFF8F2" stroke-width="1"/>
            <path d="M52.35,26 C52.6038211,26.0134641 52.8265065,26.1736414 52.92,26.41 C52.976675,26.5442642 52.976675,26.6957358 52.92,26.83 C52.8682821,26.9792615 52.7153841,27.068452 52.56,27.04 C52.5972671,26.9538579 52.5972671,26.8561421 52.56,26.77 C52.524607,26.716357 52.4944676,26.659427 52.47,26.6 C52.3880688,26.4107211 52.3471708,26.2062309 52.35,26 Z" id="Shape" fill="#FCE9C8" stroke-width="1"/>
            <path d="M25.74,30.76 L25.69,30.76 C25.2639023,30.7424877 24.8735829,30.9971234 24.717927,31.3941589 C24.562271,31.7911943 24.6755327,32.2432567 25,32.52 C25.1857666,32.6512764 25.3832741,32.7650942 25.59,32.86 C25.7166081,32.9127534 25.8172466,33.0133919 25.87,33.14 C26.27,34.14 28.1,37.67 33.22,37.14 L33.41,37.14 C34.19,37.14 40.04,36.9 40.85,31.02 C40.8617373,30.9169345 40.9034611,30.819579 40.97,30.74 C41.3,30.36 42.25,29.12 41.37,28.39 C41.3228128,28.3501882 41.2685269,28.3196524 41.21,28.3 C40.764696,28.1793359 40.295304,28.1793359 39.85,28.3 C39.660499,28.3442594 39.4618414,28.283134 39.33,28.14 C38.9716627,27.7536783 38.4278196,27.5993966 37.92,27.74 C37.5993728,27.7661773 37.2869012,27.8544846 37,28 C36.8127883,28.1383553 36.5572117,28.1383553 36.37,28 C36.046149,27.6553318 35.5683525,27.5005135 35.1039044,27.5897524 C34.6394563,27.6789914 34.2530574,27.999856 34.08,28.44 C34.0193342,28.53946 33.9281294,28.6166334 33.82,28.66 L33.54,28.77 C33.3918985,28.8432632 33.2181015,28.8432632 33.07,28.77 C31.9625539,28.1680125 30.5814302,28.4654853 29.82,29.47 C29.6700538,29.6254105 29.4419352,29.6765405 29.24,29.6 C28.1341038,29.0674146 26.8051657,29.510394 26.24,30.6 C26.1122171,30.7362108 25.9231212,30.7967215 25.74,30.76 Z" id="Shape" fill="#FFF8F2" stroke-width="1"/>
            <path d="M27.07,32.3 C27.07,32.3 33.9,28.91 39.83,30" id="Shape" fill="#FFF8F2" stroke-width="1"/>
            <path d="M27.07,32.3 C27.9800512,31.6581918 28.9637298,31.127744 30,30.72 C31.0320268,30.2939743 32.0994563,29.9593569 33.19,29.72 C35.3849609,29.1987313 37.6804499,29.2851579 39.83,29.97 C38.71,29.97 37.64,30.05 36.57,30.17 C35.5,30.29 34.45,30.47 33.39,30.7 C31.29,31.15 29.22,31.73 27.07,32.3 Z" id="Shape" fill="#FCE9C8" stroke-width="1"/>
            <path d="M26.12,30.69 C26.12,30.69 27.02,31.19 26.82,31.69" id="Shape" fill="#FFF8F2" stroke-width="1"/>
            <path d="M26.12,30.69 C26.3793049,30.6413072 26.645123,30.7324448 26.82,30.93 C26.9148316,31.031943 26.9744233,31.1616426 26.99,31.3 C27.0212114,31.4528383 26.9532133,31.608834 26.82,31.69 C26.7787823,31.591966 26.7134187,31.5059613 26.63,31.44 C26.5662386,31.3838831 26.5061169,31.3237614 26.45,31.26 C26.3009353,31.0954699 26.1884607,30.9011956 26.12,30.69 L26.12,30.69 Z" id="Shape" fill="#FCE9C8" stroke-width="1"/>
            <path d="M29.48,29.58 C29.48,29.58 30.3,29.97 30.15,30.35" id="Shape" fill="#FFF8F2" stroke-width="1"/>
            <path d="M29.48,29.58 C29.6912919,29.5011807 29.9287187,29.5433049 30.1,29.69 C30.1899645,29.7686588 30.2529315,29.8736036 30.28,29.99 C30.3316668,30.1281415 30.271421,30.2830593 30.14,30.35 C30.0979114,30.2695336 30.0261959,30.2085755 29.94,30.18 C29.8780879,30.1521573 29.8207668,30.1150672 29.77,30.07 C29.6278934,29.9382193 29.5271421,29.7679842 29.48,29.58 L29.48,29.58 Z" id="Shape" fill="#FCE9C8" stroke-width="1"/>
            <path d="M33.45,28.79 C33.45,28.79 34.37,29.01 34.07,29.79" id="Shape" fill="#FFF8F2" stroke-width="1"/>
            <path d="M33.45,28.79 C33.7189634,28.6711259 34.0343895,28.7541328 34.21,28.99 C34.3063885,29.1186888 34.3428131,29.2825997 34.31,29.44 C34.2850933,29.5864785 34.1923908,29.7125539 34.06,29.78 C34.0203413,29.6704025 33.9735754,29.5635089 33.92,29.46 C33.8836864,29.3976225 33.8436124,29.3375115 33.8,29.28 C33.73,29.17 33.61,29 33.45,28.79 Z" id="Shape" fill="#FCE9C8" stroke-width="1"/>
            <path d="M36.7,28.11 C36.7,28.11 37.7,28.78 37.17,29.29" id="Shape" fill="#FFF8F2" stroke-width="1"/>
            <path d="M36.7,28.11 C36.9943492,28.0944065 37.2739342,28.2399438 37.43,28.49 C37.5244051,28.6309491 37.5569319,28.8044252 37.52,28.97 C37.4859608,29.1417822 37.344137,29.2714497 37.17,29.29 C37.17,28.95 37.1,28.93 37,28.76 C36.8702798,28.5583274 36.769308,28.3395552 36.7,28.11 L36.7,28.11 Z" id="Shape" fill="#FCE9C8" stroke-width="1"/>
            <path d="M39.65,28.28 C39.65,28.28 40.32,29.05 39.81,29.28" id="Shape" fill="#FFF8F2" stroke-width="1"/>
            <path d="M39.65,28.28 C39.9000271,28.3097001 40.1104119,28.4811248 40.19,28.72 C40.246675,28.8542642 40.246675,29.0057358 40.19,29.14 C40.130255,29.2857805 39.9732892,29.3663845 39.82,29.33 C39.8572671,29.2438579 39.8572671,29.1461421 39.82,29.06 C39.7880573,29.0059696 39.7612724,28.9490517 39.74,28.89 C39.6669155,28.6953926 39.6362313,28.4874218 39.65,28.28 L39.65,28.28 Z" id="Shape" fill="#FCE9C8" stroke-width="1"/>
            <path d="M18.88,17.78 L18.88,17.78 C18.659068,17.3683698 18.182571,17.16456 17.7323047,17.2891017 C17.2820384,17.4136435 16.9780022,17.8333454 17,18.3 C17.0127193,18.5259271 17.0461937,18.7502053 17.1,18.97 C17.1533333,19.098 17.1533333,19.242 17.1,19.37 C16.6,20.27 14.93,23.93 18.51,27.63 L18.64,27.77 C19.13,28.38 22.94,32.83 28.05,29.82 C28.1369106,29.7658828 28.2376354,29.7380967 28.34,29.74 C28.84,29.74 30.4,29.74 30.43,28.6 C30.441115,28.5405148 30.441115,28.4794852 30.43,28.42 C30.26133,27.9913251 29.9817946,27.6151602 29.62,27.33 C29.4727737,27.2086094 29.4005436,27.0185301 29.43,26.83 C29.5132825,26.3075046 29.2970465,25.7823599 28.87,25.47 C28.6374338,25.2418439 28.3621917,25.0617473 28.06,24.94 C27.8383963,24.8651031 27.692099,24.6537848 27.7,24.42 C27.7,23.77 27.49,22.71 25.93,22.89 C25.8164198,22.9055352 25.7008427,22.8845212 25.6,22.83 L25.33,22.68 C25.1874343,22.5974698 25.0913487,22.4533414 25.07,22.29 C24.8577135,21.0478618 23.7699389,20.1470485 22.51,20.17 C22.2782083,20.1689077 22.0729697,20.0200091 22,19.8 C21.7351765,18.6200309 20.5917924,17.8548431 19.4,18.06 C19.1864622,18.0781193 18.9824166,17.9682486 18.88,17.78 Z" id="Shape" fill="#FFF8F2" stroke-width="1"/>
            <path d="M18.49,19.77 C18.49,19.77 25.38,23.03 28.21,28.35" id="Shape" fill="#FFF8F2" stroke-width="1"/>
            <path d="M18.49,19.77 C19.5591138,20.0860552 20.5864532,20.5292212 21.55,21.09 C22.5208657,21.6448513 23.4410746,22.2839781 24.3,23 C26.0667165,24.4018007 27.4183968,26.2582006 28.21,28.37 C27.49,27.51 26.79,26.7 26.03,25.94 C25.27,25.18 24.48,24.46 23.65,23.77 C22,22.37 20.27,21.11 18.49,19.77 Z" id="Shape" fill="#FCE9C8" stroke-width="1"/>
            <path d="M19.17,18 C19.17,18 19.34,19 18.82,19.17" id="Shape" fill="#FFF8F2" stroke-width="1"/>
            <path d="M19.17,18 C19.3712293,18.1727249 19.4662838,18.4388776 19.42,18.7 C19.3989015,18.8408147 19.3321492,18.970806 19.23,19.07 C19.1300494,19.1892152 18.9662015,19.2331744 18.82,19.18 C18.8712765,19.0882399 18.8987783,18.985108 18.9,18.88 C18.8947866,18.7967482 18.8947866,18.7132518 18.9,18.63 C18.9425019,18.4026775 19.0346988,18.1875514 19.17,18 Z" id="Shape" fill="#FCE9C8" stroke-width="1"/>
            <path d="M22.12,20 C22.12,20 22.32,20.89 21.93,21" id="Shape" fill="#FFF8F2" stroke-width="1"/>
            <path d="M22.12,20 C22.3153043,20.1173596 22.4304985,20.3323889 22.42,20.56 C22.4128641,20.681026 22.3673253,20.7966244 22.29,20.89 C22.2125249,21.0153438 22.0533683,21.0626607 21.92,21 C21.9533846,20.9165483 21.9533846,20.8234517 21.92,20.74 C21.9089617,20.6704352 21.9089617,20.5995648 21.92,20.53 C21.934188,20.3377489 22.0036418,20.1536963 22.12,20 Z" id="Shape" fill="#FCE9C8" stroke-width="1"/>
            <path d="M25.2,22.61 C25.2,22.61 25.59,23.46 24.81,23.71" id="Shape" fill="#FFF8F2" stroke-width="1"/>
            <path d="M25.2,22.61 C25.4582466,22.74866 25.5867449,23.0471076 25.51,23.33 C25.4696841,23.4861616 25.3639971,23.6173593 25.22,23.69 C25.0877861,23.7560321 24.9322139,23.7560321 24.8,23.69 C24.8596293,23.5934873 24.9130701,23.4932857 24.96,23.39 C24.9838964,23.3245648 25.0039308,23.2577833 25.02,23.19 C25.08,23.06 25.1,22.88 25.2,22.61 Z" id="Shape" fill="#FCE9C8" stroke-width="1"/>
            <path d="M27.75,24.73 C27.75,24.73 27.85,25.93 27.12,25.83" id="Shape" fill="#FFF8F2" stroke-width="1"/>
            <path d="M27.75,24.73 C27.9438124,24.9525198 28.0012779,25.2628338 27.9,25.54 C27.8485536,25.7019793 27.73287,25.8357384 27.58,25.91 C27.4253956,25.9848736 27.2402483,25.9526741 27.12,25.83 C27.4,25.64 27.36,25.55 27.43,25.37 C27.5064222,25.1428389 27.6141244,24.9274344 27.75,24.73 L27.75,24.73 Z" id="Shape" fill="#FCE9C8" stroke-width="1"/>
            <path d="M29.44,27.16 C29.44,27.16 29.25,28.16 28.72,27.93" id="Shape" fill="#FFF8F2" stroke-width="1"/>
            <path d="M29.44,27.16 C29.5763699,27.3734082 29.5763699,27.6465918 29.44,27.86 C29.3652698,27.9860027 29.2425527,28.0762359 29.1,28.11 C28.9487471,28.1547283 28.78746,28.0825735 28.72,27.94 C28.86,27.88 28.91,27.82 28.93,27.77 C28.9544676,27.710573 28.984607,27.653643 29.02,27.6 C29.1275558,27.4254726 29.2706612,27.2755527 29.44,27.16 L29.44,27.16 Z" id="Shape" fill="#FCE9C8" stroke-width="1"/>
        </g>
    </g>
</svg>