<?xml version="1.0" encoding="UTF-8"?><svg xmlns="http://www.w3.org/2000/svg" xmlns:xlink="http://www.w3.org/1999/xlink" width="70.37999725341797" height="43.41999816894531" viewBox="-0.48999786376953125 -0.23999786376953125 70.37999725341797 43.41999816894531" version="1.1">
    <!-- Generator: Sketch 46.2 (44496) - http://www.bohemiancoding.com/sketch -->
    <title>dumpling 2-b</title>
    <desc>Created with Sketch.</desc>
    <defs/>
    <g id="Page-1" stroke="none" fill-rule="evenodd">
        <g id="dumpling-2-b" fill-rule="nonzero">
            <ellipse id="Oval" fill="#FCD1B4" cx="34.7" cy="35.26" rx="22.39" ry="7.42" stroke-width="1"/>
            <ellipse id="Oval" fill="#F7E1C6" cx="34.7" cy="20.31" rx="34.69" ry="20.05" stroke-width="1"/>
            <ellipse id="Oval" fill="#FCD1B4" cx="34.7" cy="20.31" rx="22.54" ry="12.35" stroke-width="1"/>
            <path d="M22.23,8.37 L22.23,8.37 C21.849067,8.22542108 21.4185078,8.32641614 21.1415974,8.6253035 C20.8646871,8.92419087 20.7968052,9.36119578 20.97,9.73 C21.0899868,9.91896266 21.2272413,10.0963892 21.38,10.26 C21.4757197,10.3553883 21.529669,10.4848664 21.53,10.62 C21.53,11.62 21.9,15.56 26.75,16.96 L26.93,17.02 C27.64,17.3 33.06,19.23 35.93,14.18 C35.9780972,14.091074 36.051074,14.0180972 36.14,13.97 C36.57,13.75 37.89,12.97 37.36,11.97 C37.3321905,11.9170075 37.2949085,11.8695577 37.25,11.83 C36.8899826,11.5400248 36.4579109,11.3533698 36,11.29 C35.8121744,11.2585578 35.6556571,11.128763 35.59,10.95 C35.4050768,10.4702514 34.9704314,10.1317665 34.46,10.07 C34.1344522,9.98076083 33.7938826,9.96032665 33.46,10.01 C33.236514,10.0555212 33.0094486,9.95009798 32.9,9.75 C32.7299156,9.31799934 32.351205,9.00261145 31.8955586,8.91350725 C31.4399121,8.82440306 30.9702917,8.9738951 30.65,9.31 C30.5609482,9.37861649 30.4523844,9.41713911 30.34,9.42 L30.04,9.42 C29.8798244,9.42003757 29.7285696,9.34625472 29.63,9.22 C28.8453181,8.26588292 27.481398,8.02794047 26.42,8.66 C26.2269626,8.74249228 26.0034289,8.70327584 25.85,8.56 C25.0477176,7.68828179 23.7038475,7.59605541 22.79,8.35 C22.6224067,8.46286841 22.4052181,8.47062515 22.23,8.37 L22.23,8.37 Z" id="Shape" fill="#FFF8F2" stroke-width="1"/>
            <path d="M22.87,10.26 C22.87,10.26 30.33,9.67 35.33,12.83" id="Shape" fill="#FFF8F2" stroke-width="1"/>
            <path d="M22.87,10.26 C23.9344176,10.0058801 25.0257003,9.8816418 26.12,9.89 C27.2158275,9.88344377 28.3100885,9.97379561 29.39,10.16 C31.5801731,10.4891642 33.6381371,11.4126539 35.34,12.83 C34.34,12.45 33.34,12.11 32.34,11.83 C31.34,11.55 30.34,11.32 29.26,11.15 C27.13,10.76 25,10.54 22.87,10.26 Z" id="Shape" fill="#FCE9C8" stroke-width="1"/>
            <path d="M22.6,8.45 C22.6,8.45 23.24,9.24 22.87,9.62" id="Shape" fill="#FFF8F2" stroke-width="1"/>
            <path d="M22.6,8.45 C22.857321,8.49517179 23.0708848,8.67441281 23.16,8.92 C23.2027368,9.04990876 23.2027368,9.19009124 23.16,9.32 C23.1292406,9.46921074 23.0101674,9.58431485 22.86,9.61 C22.8596551,9.50477373 22.8320958,9.40142603 22.78,9.31 C22.7413888,9.23573771 22.7079753,9.15888661 22.68,9.08 C22.6089758,8.87804531 22.5817061,8.66329667 22.6,8.45 L22.6,8.45 Z" id="Shape" fill="#FCE9C8" stroke-width="1"/>
            <path d="M26.06,8.67 C26.06,8.67 26.67,9.33 26.38,9.62" id="Shape" fill="#FFF8F2" stroke-width="1"/>
            <path d="M26.06,8.67 C26.284492,8.67218195 26.4889844,8.79950743 26.59,9 C26.641889,9.10529197 26.6593795,9.22422736 26.64,9.34 C26.64,9.47 26.53,9.62 26.38,9.61 C26.3719703,9.52048663 26.3288261,9.43779356 26.26,9.38 C26.2107084,9.3304984 26.1701371,9.27302241 26.14,9.21 C26.0637682,9.04090296 26.0360693,8.85393593 26.06,8.67 Z" id="Shape" fill="#FCE9C8" stroke-width="1"/>
            <path d="M30,9.4 C30,9.4 30.75,9.94 30.2,10.53" id="Shape" fill="#FFF8F2" stroke-width="1"/>
            <path d="M30,9.4 C30.2897501,9.38641869 30.5489899,9.57875787 30.62,9.86 C30.6627813,10.0130683 30.637256,10.1771597 30.55,10.31 C30.4747128,10.4345796 30.3449037,10.5161739 30.2,10.53 C30.2074182,10.4167881 30.2074182,10.3032119 30.2,10.19 C30.2034566,10.1233781 30.2034566,10.0566219 30.2,9.99 C30.07,9.85 30,9.69 30,9.4 Z" id="Shape" fill="#FCE9C8" stroke-width="1"/>
            <path d="M33.17,10 C33.17,10 33.84,11 33.17,11.25" id="Shape" fill="#FFF8F2" stroke-width="1"/>
            <path d="M33.17,10 C33.4451619,10.0907561 33.6485634,10.3248597 33.7,10.61 C33.7323758,10.77375 33.6962346,10.9436139 33.6,11.08 C33.5065147,11.2209194 33.3328632,11.2855339 33.17,11.24 C33.32,10.94 33.23,10.89 33.17,10.69 C33.1374501,10.4611516 33.1374501,10.2288484 33.17,10 L33.17,10 Z" id="Shape" fill="#FCE9C8" stroke-width="1"/>
            <path d="M35.79,11.21 C35.79,11.21 36.11,12.15 35.55,12.21" id="Shape" fill="#FFF8F2" stroke-width="1"/>
            <path d="M35.79,11.21 C36.0124563,11.3247056 36.1459134,11.5602182 36.13,11.81 C36.1275329,11.9545512 36.0661227,12.091821 35.96,12.19 C35.8428455,12.2932796 35.6671545,12.2932796 35.55,12.19 C35.6137056,12.1229593 35.6463563,12.032263 35.64,11.94 C35.6333947,11.8801818 35.6333947,11.8198182 35.64,11.76 C35.6517486,11.5683192 35.702807,11.381105 35.79,11.21 Z" id="Shape" fill="#FCE9C8" stroke-width="1"/>
            <path d="M32.73,13.18 L32.68,13.18 C32.2773571,13.2392294 31.950774,13.536564 31.8541363,13.9319 C31.7574986,14.327236 31.9100862,14.7417012 32.24,14.98 C32.4381539,15.0857117 32.6457155,15.1727537 32.86,15.24 C32.9911828,15.2755012 33.1027709,15.3618919 33.17,15.48 C33.67,16.36 35.9,19.62 40.82,18.48 L41,18.48 C41.76,18.38 47.43,17.48 47.5,11.62 C47.4994553,11.5209523 47.5272105,11.4238093 47.58,11.34 C47.85,10.93 48.58,9.61 47.68,9.01 C47.6305926,8.980783 47.5764359,8.96047425 47.52,8.95 C47.0729929,8.87433204 46.6138943,8.91920633 46.19,9.08 C46.0129913,9.14456302 45.8150136,9.11029766 45.67,8.99 C45.2742204,8.65872054 44.7274688,8.57401255 44.25,8.77 C43.9390877,8.84858038 43.6468043,8.9879248 43.39,9.18 C43.2059307,9.31667665 42.9540693,9.31667665 42.77,9.18 C42.411259,8.88523753 41.9269299,8.79385957 41.4854485,8.93764479 C41.0439672,9.08143001 40.706346,9.44050738 40.59,9.89 C40.5454319,9.99480615 40.4682891,10.0824684 40.37,10.14 L40.11,10.29 C39.9650037,10.3615081 39.7949963,10.3615081 39.65,10.29 C38.499994,9.8359852 37.190834,10.2907908 36.57,11.36 C36.4409349,11.5273112 36.2248168,11.6019701 36.02,11.55 C34.8923302,11.1765228 33.6698407,11.7525879 33.24,12.86 C33.1529709,13.0622455 32.9499653,13.1896216 32.73,13.18 Z" id="Shape" fill="#FFF8F2" stroke-width="1"/>
            <path d="M34.21,14.52 C34.21,14.52 40.44,10.39 46.35,10.71" id="Shape" fill="#FFF8F2" stroke-width="1"/>
            <path d="M34.21,14.52 C35.0167433,13.781643 35.9099077,13.1436684 36.87,12.62 C37.8281636,12.0822754 38.8320893,11.6305088 39.87,11.27 C41.9425122,10.4974248 44.1870332,10.3072112 46.36,10.72 C45.27,10.89 44.24,11.07 43.21,11.32 C42.18,11.57 41.21,11.87 40.21,12.22 C38.18,12.89 36.23,13.71 34.21,14.52 Z" id="Shape" fill="#FCE9C8" stroke-width="1"/>
            <path d="M33.09,13.07 C33.09,13.07 34.03,13.45 33.9,13.96" id="Shape" fill="#FFF8F2" stroke-width="1"/>
            <path d="M33.09,13.07 C33.3347713,12.9878205 33.6047462,13.0410549 33.8,13.21 C33.9044961,13.2980135 33.9780848,13.4171571 34.01,13.55 C34.0562589,13.6953222 34.0086137,13.8541396 33.89,13.95 C33.8369154,13.8588834 33.7611166,13.7830846 33.67,13.73 C33.5999558,13.6846693 33.5331298,13.6345498 33.47,13.58 C33.3085623,13.4389061 33.1790227,13.2650502 33.09,13.07 L33.09,13.07 Z" id="Shape" fill="#FCE9C8" stroke-width="1"/>
            <path d="M36.23,11.58 C36.23,11.58 37.08,11.86 36.97,12.25" id="Shape" fill="#FFF8F2" stroke-width="1"/>
            <path d="M36.23,11.58 C36.4206546,11.4649493 36.6593454,11.4649493 36.85,11.58 C36.9464459,11.6458959 37.0198722,11.7403011 37.06,11.85 C37.1265148,11.9785141 37.0881113,12.1363949 36.97,12.22 C36.9181884,12.1459483 36.8390258,12.0955721 36.75,12.08 C36.685499,12.0600029 36.6246983,12.0296025 36.57,11.99 C36.4216848,11.8865842 36.3041832,11.7448911 36.23,11.58 Z" id="Shape" fill="#FCE9C8" stroke-width="1"/>
            <path d="M40,10.33 C40,10.33 40.92,10.43 40.72,11.22" id="Shape" fill="#FFF8F2" stroke-width="1"/>
            <path d="M40,10.33 C40.2474844,10.1745856 40.5704232,10.2165257 40.77,10.43 C40.8834247,10.543183 40.9418507,10.7002029 40.93,10.86 C40.9237726,11.0048075 40.8496598,11.1382105 40.73,11.22 C40.6764167,11.1194951 40.6162872,11.0226198 40.55,10.93 C40.506026,10.877553 40.4592933,10.8274823 40.41,10.78 C40.31,10.67 40.17,10.55 40,10.33 Z" id="Shape" fill="#FCE9C8" stroke-width="1"/>
            <path d="M43.07,9.26 C43.07,9.26 44.13,9.79 43.67,10.35" id="Shape" fill="#FFF8F2" stroke-width="1"/>
            <path d="M43.07,9.26 C43.3555464,9.20649135 43.6474216,9.31402432 43.83,9.54 C43.9485214,9.66280037 44.0101783,9.82963667 44,10 C43.9870283,10.1696063 43.865627,10.3112411 43.7,10.35 C43.7,10.02 43.58,10.01 43.47,9.85 C43.3086172,9.6738849 43.173858,9.47511499 43.07,9.26 L43.07,9.26 Z" id="Shape" fill="#FCE9C8" stroke-width="1"/>
            <path d="M46,9.08 C46,9.08 46.74,9.75 46.28,10.08" id="Shape" fill="#FFF8F2" stroke-width="1"/>
            <path d="M46,9.08 C46.2508136,9.07178249 46.4825854,9.21320255 46.59,9.44 C46.6450021,9.5711327 46.6450021,9.7188673 46.59,9.85 C46.5509281,10.0014684 46.4051303,10.1000963 46.25,10.08 C46.28558,9.99698507 46.28558,9.90301493 46.25,9.82 C46.2106213,9.77069205 46.1770659,9.7170034 46.15,9.66 C46.0587359,9.47975464 46.0075645,9.28189181 46,9.08 L46,9.08 Z" id="Shape" fill="#FCE9C8" stroke-width="1"/>
            <path d="M19.95,21.25 L19.95,21.25 C20.2731887,21.4994951 20.7155958,21.5274576 21.0676259,21.3206399 C21.4196561,21.1138222 21.6106016,20.7137651 21.55,20.31 C21.4891872,20.0964091 21.4088485,19.8888674 21.31,19.69 C21.2583311,19.565134 21.2583311,19.424866 21.31,19.3 C21.59,18.3 22.39,14.46 18.16,11.71 L18,11.64 C17.4,11.17 12.78,7.74 8.55,11.74 C8.47868319,11.8108112 8.38837459,11.8594389 8.29,11.88 C7.81,11.97 6.29,12.33 6.54,13.43 C6.55356404,13.4870947 6.57727389,13.5412887 6.61,13.59 C6.86081773,13.9630774 7.20580598,14.2632172 7.61,14.46 C7.78177459,14.5421325 7.89629356,14.7100937 7.91,14.9 C7.94850602,15.4136638 8.26791632,15.8639169 8.74,16.07 C9.01208913,16.237436 9.31452473,16.3495751 9.63,16.4 C9.85651633,16.4213175 10.0428722,16.5874173 10.09,16.81 C10.1294855,17.2661593 10.3958529,17.6718332 10.7987309,17.8893873 C11.2016088,18.1069414 11.6869158,18.1071717 12.09,17.89 C12.1971971,17.8548821 12.3128029,17.8548821 12.42,17.89 L12.71,17.98 C12.8653708,18.0248442 12.991035,18.1394204 13.05,18.29 C13.5290544,19.4466627 14.7898108,20.0706303 16,19.75 C16.2096431,19.7253836 16.4139072,19.8275157 16.52,20.01 C17.0344967,21.0788315 18.2956938,21.5578228 19.39,21.1 C19.5898933,21.0344281 19.8096464,21.0932905 19.95,21.25 Z" id="Shape" fill="#FFF8F2" stroke-width="1"/>
            <path d="M19.88,19.26 C19.88,19.26 12.58,17.65 8.71,13.18" id="Shape" fill="#FFF8F2" stroke-width="1"/>
            <path d="M19.88,19.26 C18.7867669,19.1941883 17.7055449,18.9960762 16.66,18.67 C15.6267412,18.3546026 14.6229419,17.9497369 13.66,17.46 C11.6631692,16.5085207 9.96507425,15.0283075 8.75,13.18 C9.63,13.84 10.47,14.46 11.37,15.03 C12.27,15.6 13.18,16.11 14.12,16.58 C16,17.53 17.9,18.36 19.88,19.26 Z" id="Shape" fill="#FCE9C8" stroke-width="1"/>
            <path d="M19.62,21.07 C19.62,21.07 19.24,20.13 19.7,19.87" id="Shape" fill="#FFF8F2" stroke-width="1"/>
            <path d="M19.62,21.07 C19.3873514,20.9526312 19.2349055,20.7201511 19.22,20.46 C19.2105098,20.3226273 19.2455791,20.1858571 19.32,20.07 C19.3926946,19.9367778 19.5393719,19.861457 19.69,19.88 C19.6633051,19.9816093 19.6633051,20.0883907 19.69,20.19 C19.6957619,20.2732337 19.6957619,20.3567663 19.69,20.44 C19.7115035,20.6525874 19.6876445,20.867318 19.62,21.07 L19.62,21.07 Z" id="Shape" fill="#FCE9C8" stroke-width="1"/>
            <path d="M16.37,19.85 C16.37,19.85 15.98,19.04 16.37,18.85" id="Shape" fill="#FFF8F2" stroke-width="1"/>
            <path d="M16.37,19.85 C16.1562458,19.7822544 15.9981052,19.6009713 15.96,19.38 C15.928371,19.252561 15.942529,19.11806 16,19 C16.05,18.88 16.19,18.76 16.33,18.81 C16.298251,18.8903093 16.298251,18.9796907 16.33,19.06 C16.3601124,19.1196845 16.380374,19.1838461 16.39,19.25 C16.4449408,19.4473282 16.4379595,19.6567685 16.37,19.85 Z" id="Shape" fill="#FCE9C8" stroke-width="1"/>
            <path d="M12.85,18 C12.85,18 12.29,17.27 12.99,16.86" id="Shape" fill="#FFF8F2" stroke-width="1"/>
            <path d="M12.85,18 C12.5687579,17.9289899 12.3764187,17.6697501 12.39,17.38 C12.3941747,17.2208259 12.4671274,17.0712727 12.59,16.97 C12.6982918,16.8718787 12.8467633,16.831049 12.99,16.86 C12.9527889,16.9679052 12.9227239,17.0781437 12.9,17.19 C12.8961889,17.2599481 12.8961889,17.3300519 12.9,17.4 C12.87,17.55 12.88,17.72 12.85,18 Z" id="Shape" fill="#FCE9C8" stroke-width="1"/>
            <path d="M9.95,16.54 C9.95,16.54 9.59,15.41 10.31,15.35" id="Shape" fill="#FFF8F2" stroke-width="1"/>
            <path d="M9.95,16.54 C9.71224994,16.3728182 9.5854998,16.0885907 9.62,15.8 C9.63354862,15.6309232 9.71688407,15.4751222 9.85,15.37 C9.98701173,15.2699471 10.1729883,15.2699471 10.31,15.37 C10.08,15.62 10.15,15.69 10.12,15.88 C10.0943594,16.1068458 10.0371392,16.3289947 9.95,16.54 L9.95,16.54 Z" id="Shape" fill="#FCE9C8" stroke-width="1"/>
            <path d="M7.8,14.58 C7.8,14.58 7.8,13.58 8.32,13.69" id="Shape" fill="#FFF8F2" stroke-width="1"/>
            <path d="M7.8,14.58 C7.62200532,14.4059246 7.56322068,14.1433532 7.65,13.91 C7.69462693,13.7745492 7.7919579,13.6627989 7.92,13.6 C8.05696816,13.5249563 8.22837409,13.5635226 8.32,13.69 C8.2,13.78 8.17,13.85 8.16,13.9 C8.16652526,13.9598226 8.16652526,14.0201774 8.16,14.08 C8.07861744,14.2713315 7.95563981,14.4421337 7.8,14.58 Z" id="Shape" fill="#FCE9C8" stroke-width="1"/>
            <path d="M47.34,16.41 L47.34,16.41 C47.6883171,16.1981749 47.8731789,15.7961149 47.8072281,15.3938151 C47.7412773,14.9915152 47.4377186,14.6695241 47.04,14.58 C46.8171469,14.559288 46.5928531,14.559288 46.37,14.58 C46.2350611,14.5987595 46.0982258,14.5627502 45.99,14.48 C45.18,13.87 41.86,11.74 37.78,14.71 L37.62,14.81 C36.96,15.2 32.12,18.29 34.34,23.67 C34.3675005,23.7647108 34.3675005,23.8652892 34.34,23.96 C34.25,24.44 34.06,25.96 35.16,26.15 C35.2162338,26.159905 35.2737662,26.159905 35.33,26.15 C35.7698674,26.0442308 36.1736774,25.8233433 36.5,25.51 C36.6390811,25.3792857 36.8377039,25.3334497 37.02,25.39 C37.5469312,25.5677619 38.129099,25.4143528 38.5,25 C38.7546312,24.8070485 38.9687148,24.5657796 39.13,24.29 C39.2321393,24.0861989 39.4551112,23.9726859 39.68,24.01 C40.31,24.11 41.37,24.01 41.41,22.51 C41.4128609,22.3976156 41.4513835,22.2890518 41.52,22.2 L41.7,22 C41.7985696,21.8737453 41.9498244,21.7999624 42.11,21.8 C43.3438091,21.7650293 44.3674417,20.8348404 44.52,19.61 C44.5730645,19.4060814 44.7418848,19.2529653 44.95,19.22 C46.1143622,19.0998779 46.9876742,18.0999356 46.95,16.93 C46.9459781,16.6879372 47.1064936,16.4739165 47.34,16.41 L47.34,16.41 Z" id="Shape" fill="#FFF8F2" stroke-width="1"/>
            <path d="M45.45,15.75 C45.45,15.75 41.34,22 35.78,24" id="Shape" fill="#FFF8F2" stroke-width="1"/>
            <path d="M45.45,15.75 C44.9979369,16.7451623 44.4271219,17.6819703 43.75,18.54 C43.0878745,19.4240236 42.3482824,20.24728 41.54,21 C39.9289564,22.5057857 37.9373328,23.5430896 35.78,24 C36.71,23.42 37.59,22.85 38.44,22.21 C39.29,21.57 40.09,20.91 40.87,20.21 C42.44,18.81 43.91,17.29 45.45,15.75 Z" id="Shape" fill="#FCE9C8" stroke-width="1"/>
            <path d="M47.05,16.65 C47.05,16.65 46.05,16.65 45.96,16.15" id="Shape" fill="#FFF8F2" stroke-width="1"/>
            <path d="M47.05,16.65 C46.8567055,16.8224214 46.586518,16.8795032 46.34,16.8 C46.2081399,16.760792 46.0924224,16.6801404 46.01,16.57 C45.9228412,16.4435654 45.9228412,16.2764346 46.01,16.15 C46.0945459,16.2146087 46.1945217,16.2559779 46.3,16.27 C46.3812748,16.2845031 46.461462,16.3045499 46.54,16.33 C46.7297575,16.4013496 46.9032048,16.5101793 47.05,16.65 L47.05,16.65 Z" id="Shape" fill="#FCE9C8" stroke-width="1"/>
            <path d="M44.75,19.25 C44.75,19.25 43.86,19.33 43.8,18.93" id="Shape" fill="#FFF8F2" stroke-width="1"/>
            <path d="M44.75,19.25 C44.6125132,19.4253382 44.3891853,19.5100487 44.17,19.47 C44.0546087,19.4462975 43.9496305,19.3868099 43.87,19.3 C43.7622722,19.2078992 43.7368979,19.0514245 43.81,18.93 C43.8903093,18.961749 43.9796907,18.961749 44.06,18.93 C44.1262274,18.9191765 44.1937726,18.9191765 44.26,18.93 C44.4515897,18.9854164 44.6222321,19.0968564 44.75,19.25 Z" id="Shape" fill="#FCE9C8" stroke-width="1"/>
            <path d="M41.78,21.88 C41.78,21.88 40.9,22.15 40.78,21.35" id="Shape" fill="#FFF8F2" stroke-width="1"/>
            <path d="M41.78,21.88 C41.6130358,22.1212591 41.2979704,22.2094774 41.03,22.09 C40.8840821,22.0296066 40.7711646,21.9094041 40.72,21.76 C40.6557265,21.6308902 40.6557265,21.4791098 40.72,21.35 C40.8088147,21.4227763 40.9023528,21.4895893 41,21.55 L41.19,21.64 C41.36,21.69 41.52,21.75 41.78,21.88 Z" id="Shape" fill="#FCE9C8" stroke-width="1"/>
            <path d="M39.37,24.07 C39.37,24.07 38.19,24 38.37,23.31" id="Shape" fill="#FFF8F2" stroke-width="1"/>
            <path d="M39.37,24.07 C39.1205424,24.218949 38.8094576,24.218949 38.56,24.07 C38.4063859,23.9967107 38.290377,23.8625754 38.24,23.7 C38.185502,23.5384984 38.2421968,23.3603149 38.38,23.26 C38.53,23.56 38.62,23.52 38.79,23.62 C39.0048361,23.7400199 39.2003638,23.8917225 39.37,24.07 L39.37,24.07 Z" id="Shape" fill="#FCE9C8" stroke-width="1"/>
            <path d="M36.77,25.37 C36.77,25.37 35.83,25.05 36.12,24.56" id="Shape" fill="#FFF8F2" stroke-width="1"/>
            <path d="M36.77,25.37 C36.5435113,25.4741351 36.2769202,25.4349306 36.09,25.27 C35.9788961,25.1777085 35.9102711,25.0440705 35.9,24.9 C35.8789459,24.7478081 35.9725443,24.6031561 36.12,24.56 C36.12,24.7 36.21,24.76 36.26,24.79 C36.3140104,24.8208586 36.3643341,24.8577626 36.41,24.9 C36.5621322,25.0292126 36.6848763,25.1894618 36.77,25.37 Z" id="Shape" fill="#FCE9C8" stroke-width="1"/>
            <path d="M21.43,13.32 L21.43,13.32 C21.1179347,13.0561319 20.6767115,13.0087025 20.3156947,13.2002175 C19.9546778,13.3917326 19.7465224,13.7836493 19.79,14.19 C19.8405495,14.4059906 19.9108452,14.6168778 20,14.82 C20.0516689,14.944866 20.0516689,15.085134 20,15.21 C19.67,16.21 18.71,19.99 22.82,22.93 L22.97,23.04 C23.55,23.54 27.97,27.16 32.41,23.36 C32.4865036,23.2947344 32.5802901,23.2530515 32.68,23.24 C33.16,23.17 34.68,22.88 34.49,21.77 C34.4795258,21.7135641 34.459217,21.6594074 34.43,21.61 C34.1846214,21.2222119 33.8391433,20.9078269 33.43,20.7 C33.2629829,20.6107867 33.1562475,20.4392477 33.15,20.25 C33.1541507,19.7229405 32.8598384,19.2388741 32.39,19 C32.1240159,18.8196954 31.8249119,18.6939358 31.51,18.63 C31.2851798,18.5981091 31.1070501,18.4240278 31.07,18.2 C31.056261,17.7294347 30.800143,17.2994402 30.3929159,17.0632484 C29.9856888,16.8270567 29.4852746,16.8182626 29.07,17.04 C28.9628029,17.0751179 28.8471971,17.0751179 28.74,17.04 L28.46,16.94 C28.3078652,16.8856769 28.1896174,16.7637339 28.14,16.61 C27.7239062,15.4528083 26.5280375,14.7700605 25.32,15 C25.1093876,15.0166577 24.908998,14.9066399 24.81,14.72 C24.3450535,13.6325205 23.111986,13.0971674 22,13.5 C21.7910618,13.5630867 21.564814,13.49164 21.43,13.32 Z" id="Shape" fill="#FFF8F2" stroke-width="1"/>
            <path d="M21.4,15.32 C21.4,15.32 28.63,17.25 32.3,21.89" id="Shape" fill="#FFF8F2" stroke-width="1"/>
            <path d="M21.4,15.32 C22.4889201,15.4335654 23.5600631,15.6786859 24.59,16.05 C25.6275901,16.4072461 26.6315102,16.8556637 27.59,17.39 C29.5439161,18.4274462 31.176318,19.9803031 32.31,21.88 C31.46,21.18 30.64,20.52 29.78,19.88 C28.92,19.24 28,18.77 27.09,18.26 C25.25,17.21 23.35,16.3 21.4,15.32 Z" id="Shape" fill="#FCE9C8" stroke-width="1"/>
            <path d="M21.75,13.52 C21.75,13.52 22.09,14.52 21.62,14.71" id="Shape" fill="#FFF8F2" stroke-width="1"/>
            <path d="M21.75,13.52 C21.9771095,13.6487347 22.1181872,13.8889482 22.12,14.15 C22.1236234,14.2896109 22.0814806,14.426575 22,14.54 C21.9230458,14.6731367 21.7717645,14.7447963 21.62,14.72 C21.6466949,14.6183907 21.6466949,14.5116093 21.62,14.41 C21.6142381,14.3267663 21.6142381,14.2432337 21.62,14.16 C21.6161292,13.9397378 21.6605002,13.7212963 21.75,13.52 L21.75,13.52 Z" id="Shape" fill="#FCE9C8" stroke-width="1"/>
            <path d="M24.94,14.88 C24.94,14.88 25.29,15.7 24.94,15.88" id="Shape" fill="#FFF8F2" stroke-width="1"/>
            <path d="M24.94,14.88 C25.1516904,14.9571515 25.3023138,15.1463962 25.33,15.37 C25.3463074,15.486824 25.3253091,15.6058142 25.27,15.71 C25.21,15.82 25.07,15.94 24.93,15.88 C24.961749,15.7996907 24.961749,15.7103093 24.93,15.63 C24.898837,15.5672048 24.8785493,15.4995793 24.87,15.43 C24.8410277,15.2437335 24.8652938,15.0530711 24.94,14.88 L24.94,14.88 Z" id="Shape" fill="#FCE9C8" stroke-width="1"/>
            <path d="M28.38,16.87 C28.38,16.87 28.91,17.63 28.19,18" id="Shape" fill="#FFF8F2" stroke-width="1"/>
            <path d="M28.38,16.87 C28.6570812,16.954216 28.8367581,17.221642 28.81,17.51 C28.7980768,17.6689083 28.7178178,17.8148337 28.59,17.91 C28.4757851,18.0042419 28.3231864,18.0377392 28.18,18 C28.2202093,17.8956049 28.2536126,17.7887144 28.28,17.68 C28.283831,17.6100524 28.283831,17.5399476 28.28,17.47 C28.33,17.33 28.33,17.16 28.38,16.87 Z" id="Shape" fill="#FCE9C8" stroke-width="1"/>
            <path d="M31.21,18.47 C31.21,18.47 31.52,19.62 30.8,19.64" id="Shape" fill="#FFF8F2" stroke-width="1"/>
            <path d="M31.21,18.47 C31.439915,18.6461108 31.5550344,18.9339094 31.51,19.22 C31.4888499,19.3887259 31.3982312,19.5409652 31.26,19.64 C31.1229883,19.7400529 30.9370117,19.7400529 30.8,19.64 C31.04,19.4 30.97,19.33 31.02,19.14 C31.0511067,18.9087588 31.1150863,18.6831467 31.21,18.47 L31.21,18.47 Z" id="Shape" fill="#FCE9C8" stroke-width="1"/>
            <path d="M33.27,20.51 C33.27,20.51 33.27,21.51 32.71,21.38" id="Shape" fill="#FFF8F2" stroke-width="1"/>
            <path d="M33.27,20.51 C33.4417178,20.6926093 33.4888417,20.9596449 33.39,21.19 C33.3384189,21.3254455 33.2336197,21.4338584 33.1,21.49 C32.9630971,21.5571083 32.7977203,21.514704 32.71,21.39 C32.83,21.31 32.87,21.24 32.88,21.18 C32.8897552,21.1182912 32.9065307,21.0578994 32.93,21 C33.0068237,20.8141421 33.122788,20.647017 33.27,20.51 Z" id="Shape" fill="#FCE9C8" stroke-width="1"/>
            <path d="M31.52,21 L31.52,21 C31.8685048,20.7837069 32.0495906,20.3765302 31.9767998,19.9728722 C31.904009,19.5692142 31.5921037,19.2509374 31.19,19.17 C30.9671469,19.149288 30.7428531,19.149288 30.52,19.17 C30.3850611,19.1887595 30.2482258,19.1527502 30.14,19.07 C29.32,18.47 25.97,16.39 21.93,19.42 L21.78,19.52 C21.13,19.92 16.33,23.08 18.62,28.42 C18.6475005,28.5147108 18.6475005,28.6152892 18.62,28.71 C18.54,29.19 18.37,30.71 19.47,30.88 C19.5262338,30.889905 19.5837662,30.889905 19.64,30.88 C20.0784025,30.7668821 20.4787826,30.5390797 20.8,30.22 C20.9370331,30.0857526 21.1359132,30.0360325 21.32,30.09 C21.8160892,30.2346247 22.3514605,30.0921158 22.71,29.72 C22.9620317,29.5231364 23.1727253,29.2784599 23.33,29 C23.428987,28.7923011 23.6526987,28.674344 23.88,28.71 C24.51,28.8 25.57,28.71 25.59,27.18 C25.5878295,27.0653228 25.6229191,26.9530361 25.69,26.86 L25.87,26.62 C25.9665157,26.4899819 26.1180911,26.4123458 26.28,26.41 C27.5157391,26.3577465 28.5275252,25.4097284 28.66,24.18 C28.7081508,23.9750959 28.8729921,23.8181042 29.08,23.78 C30.2563415,23.6592652 31.1339047,22.6412919 31.08,21.46 C31.1080015,21.2258567 31.2873317,21.0383751 31.52,21 L31.52,21 Z" id="Shape" fill="#FFF8F2" stroke-width="1"/>
            <path d="M29.62,20.42 C29.62,20.42 25.62,26.73 20.07,28.82" id="Shape" fill="#FFF8F2" stroke-width="1"/>
            <path d="M29.62,20.42 C29.1951744,21.42163 28.6512577,22.368448 28,23.24 C27.3432875,24.1162458 26.6104381,24.9327539 25.81,25.68 C24.229314,27.2287195 22.2544787,28.314706 20.1,28.82 C21.02,28.22 21.9,27.64 22.73,27 C23.56,26.36 24.36,25.67 25.13,25 C26.66,23.52 28.1,22 29.62,20.42 Z" id="Shape" fill="#FCE9C8" stroke-width="1"/>
            <path d="M31.24,21.29 C31.24,21.29 30.24,21.29 30.14,20.81" id="Shape" fill="#FFF8F2" stroke-width="1"/>
            <path d="M31.24,21.29 C31.0486896,21.4659199 30.7782746,21.5268585 30.53,21.45 C30.3944874,21.412744 30.2750058,21.3319182 30.19,21.22 C30.087068,21.104265 30.0671157,20.9366655 30.14,20.8 C30.2255746,20.8610403 30.3254704,20.8989319 30.43,20.91 C30.5110381,20.9212235 30.5912219,20.9379285 30.67,20.96 C30.8819676,21.0267178 31.0765969,21.139398 31.24,21.29 L31.24,21.29 Z" id="Shape" fill="#FCE9C8" stroke-width="1"/>
            <path d="M29,23.93 C29,23.93 28.11,24.02 28,23.62" id="Shape" fill="#FFF8F2" stroke-width="1"/>
            <path d="M29,23.93 C28.8648666,24.1090661 28.6411281,24.19779 28.42,24.16 C28.3022666,24.1410341 28.1936616,24.08498 28.11,24 C28.0022722,23.9078992 27.9768979,23.7514245 28.05,23.63 C28.1303093,23.661749 28.2196907,23.661749 28.3,23.63 C28.3662274,23.6191765 28.4337726,23.6191765 28.5,23.63 C28.6927681,23.6781094 28.8668361,23.7825502 29,23.93 L29,23.93 Z" id="Shape" fill="#FCE9C8" stroke-width="1"/>
            <path d="M26,26.6 C26,26.6 25.12,26.88 25,26.08" id="Shape" fill="#FFF8F2" stroke-width="1"/>
            <path d="M26,26.6 C25.837015,26.8399489 25.5275998,26.9319372 25.26,26.82 C25.1102761,26.7619853 24.9933815,26.6414377 24.94,26.49 C24.8757265,26.3608902 24.8757265,26.2091098 24.94,26.08 C25.0288147,26.1527763 25.1223528,26.2195893 25.22,26.28 L25.41,26.36 C25.61,26.42 25.78,26.47 26,26.6 Z" id="Shape" fill="#FCE9C8" stroke-width="1"/>
            <path d="M23.66,28.82 C23.66,28.82 22.48,28.77 22.66,28.07" id="Shape" fill="#FFF8F2" stroke-width="1"/>
            <path d="M23.66,28.82 C23.4198484,28.9846723 23.1085811,29.0038863 22.85,28.87 C22.6984668,28.7989761 22.5827681,28.6688151 22.53,28.51 C22.4733557,28.3506602 22.525855,28.1729703 22.66,28.07 C22.81,28.37 22.91,28.33 23.07,28.43 C23.2844941,28.5307802 23.4832309,28.6621487 23.66,28.82 L23.66,28.82 Z" id="Shape" fill="#FCE9C8" stroke-width="1"/>
            <path d="M21.08,30.16 C21.08,30.16 20.13,29.85 20.42,29.36" id="Shape" fill="#FFF8F2" stroke-width="1"/>
            <path d="M21.08,30.16 C20.8554368,30.2668393 20.5890371,30.2315805 20.4,30.07 C20.2875311,29.9818661 20.2154132,29.8520538 20.2,29.71 C20.1734846,29.5543283 20.2682257,29.4036039 20.42,29.36 C20.42,29.5 20.52,29.56 20.57,29.58 C20.6235234,29.6077191 20.6738273,29.641255 20.72,29.68 C20.8732785,29.8121034 20.9960987,29.9758637 21.08,30.16 Z" id="Shape" fill="#FCE9C8" stroke-width="1"/>
            <path d="M31.94,21.43 L31.94,21.43 C31.559067,21.2854211 31.1285078,21.3864161 30.8515974,21.6853035 C30.5746871,21.9841909 30.5068052,22.4211958 30.68,22.79 C30.7999868,22.9789627 30.9372413,23.1563892 31.09,23.32 C31.1857197,23.4153883 31.239669,23.5448664 31.24,23.68 C31.24,24.68 31.61,28.62 36.46,30.02 L36.64,30.08 C37.35,30.36 42.77,32.29 45.64,27.24 C45.6880972,27.151074 45.761074,27.0780972 45.85,27.03 C46.28,26.81 47.6,26.03 47.07,25.03 C47.0421905,24.9770075 47.0049085,24.9295577 46.96,24.89 C46.6073833,24.6085124 46.1863937,24.4256234 45.74,24.36 C45.5359367,24.3354666 45.3644561,24.1951644 45.3,24 C45.1150768,23.5202514 44.6804314,23.1817665 44.17,23.12 C43.8444522,23.0307608 43.5038826,23.0103267 43.17,23.06 C42.946514,23.1055212 42.7194486,23.000098 42.61,22.8 C42.4399156,22.3679993 42.061205,22.0526115 41.6055586,21.9635073 C41.1499121,21.8744031 40.6802917,22.0238951 40.36,22.36 C40.2709482,22.4286165 40.1623844,22.4671391 40.05,22.47 L39.75,22.47 C39.5898244,22.4700376 39.4385696,22.3962547 39.34,22.27 C38.5553181,21.3158829 37.191398,21.0779405 36.13,21.71 C35.9369626,21.7924923 35.7134289,21.7532758 35.56,21.61 C34.7577176,20.7382818 33.4138475,20.6460554 32.5,21.4 C32.3343469,21.5160278 32.117101,21.527666 31.94,21.43 L31.94,21.43 Z" id="Shape" fill="#FFF8F2" stroke-width="1"/>
            <path d="M32.58,23.31 C32.58,23.31 40,22.73 45,25.88" id="Shape" fill="#FFF8F2" stroke-width="1"/>
            <path d="M32.58,23.31 C33.6444176,23.0558801 34.7357003,22.9316418 35.83,22.94 C36.9258275,22.9334438 38.0200885,23.0237956 39.1,23.21 C41.2725836,23.5478927 43.3121839,24.4708982 45,25.88 C44,25.5 43,25.16 42,24.88 C41,24.6 40,24.37 38.92,24.2 C36.84,23.82 34.74,23.59 32.58,23.31 Z" id="Shape" fill="#FCE9C8" stroke-width="1"/>
            <path d="M32.31,21.5 C32.31,21.5 32.95,22.29 32.58,22.67" id="Shape" fill="#FFF8F2" stroke-width="1"/>
            <path d="M32.31,21.5 C32.567321,21.5451718 32.7808848,21.7244128 32.87,21.97 C32.9127368,22.0999088 32.9127368,22.2400912 32.87,22.37 C32.8392406,22.5192107 32.7201674,22.6343149 32.57,22.66 C32.5696551,22.5547737 32.5420958,22.451426 32.49,22.36 C32.4513888,22.2857377 32.4179753,22.2088866 32.39,22.13 C32.3189758,21.9280453 32.2917061,21.7132967 32.31,21.5 L32.31,21.5 Z" id="Shape" fill="#FCE9C8" stroke-width="1"/>
            <path d="M35.77,21.72 C35.77,21.72 36.38,22.38 36.09,22.67" id="Shape" fill="#FFF8F2" stroke-width="1"/>
            <path d="M35.77,21.72 C35.994492,21.7221819 36.1989844,21.8495074 36.3,22.05 C36.351889,22.155292 36.3693795,22.2742274 36.35,22.39 C36.35,22.52 36.24,22.67 36.09,22.66 C36.0819703,22.5704866 36.0388261,22.4877936 35.97,22.43 C35.9207084,22.3804984 35.8801371,22.3230224 35.85,22.26 C35.7737682,22.090903 35.7460693,21.9039359 35.77,21.72 Z" id="Shape" fill="#FCE9C8" stroke-width="1"/>
            <path d="M39.67,22.46 C39.67,22.46 40.42,23 39.87,23.59" id="Shape" fill="#FFF8F2" stroke-width="1"/>
            <path d="M39.67,22.46 C39.9597501,22.4464187 40.2189899,22.6387579 40.29,22.92 C40.3327813,23.0730683 40.307256,23.2371597 40.22,23.37 C40.1447128,23.4945796 40.0149037,23.5761739 39.87,23.59 C39.8774182,23.4767881 39.8774182,23.3632119 39.87,23.25 C39.8734746,23.1833786 39.8734746,23.1166214 39.87,23.05 C39.78,22.91 39.72,22.74 39.67,22.46 Z" id="Shape" fill="#FCE9C8" stroke-width="1"/>
            <path d="M42.88,23 C42.88,23 43.55,24 42.88,24.25" id="Shape" fill="#FFF8F2" stroke-width="1"/>
            <path d="M42.88,23 C43.1551619,23.0907561 43.3585634,23.3248597 43.41,23.61 C43.4423758,23.77375 43.4062346,23.9436139 43.31,24.08 C43.2165147,24.2209194 43.0428632,24.2855339 42.88,24.24 C43.03,23.94 42.94,23.89 42.88,23.69 C42.8474501,23.4611516 42.8474501,23.2288484 42.88,23 L42.88,23 Z" id="Shape" fill="#FCE9C8" stroke-width="1"/>
            <path d="M45.5,24.27 C45.5,24.27 45.82,25.21 45.26,25.27" id="Shape" fill="#FFF8F2" stroke-width="1"/>
            <path d="M45.5,24.27 C45.7224563,24.3847056 45.8559134,24.6202182 45.84,24.87 C45.8375329,25.0145512 45.7761227,25.151821 45.67,25.25 C45.5528455,25.3532796 45.3771545,25.3532796 45.26,25.25 C45.3237056,25.1829593 45.3563563,25.092263 45.35,25 C45.3433947,24.9401818 45.3433947,24.8798182 45.35,24.82 C45.3617486,24.6283192 45.412807,24.441105 45.5,24.27 L45.5,24.27 Z" id="Shape" fill="#FCE9C8" stroke-width="1"/>
            <path d="M20.9,27.22 L20.85,27.22 C20.4391425,27.2251446 20.0732469,27.4810865 19.9275231,27.8652674 C19.7817993,28.2494483 19.8859094,28.6836682 20.19,28.96 C20.3723678,29.0910798 20.5665383,29.2049039 20.77,29.3 C20.8972362,29.3518114 20.9981886,29.4527638 21.05,29.58 C21.44,30.52 23.24,34.02 28.26,33.51 L28.45,33.51 C29.21,33.51 34.96,33.27 35.75,27.51 C35.7630515,27.4102901 35.8047344,27.3165036 35.87,27.24 C36.19,26.87 37.12,25.65 36.26,24.94 C36.2150431,24.9047973 36.1642793,24.8777233 36.11,24.86 C35.674472,24.7423501 35.215528,24.7423501 34.78,24.86 C34.5935843,24.9025712 34.3986904,24.841428 34.27,24.7 C33.9199215,24.3208268 33.3885876,24.1668169 32.89,24.3 C32.5732038,24.3398994 32.2673766,24.4418418 31.99,24.6 C31.8059307,24.7366766 31.5540693,24.7366766 31.37,24.6 C31.0511446,24.2633936 30.5827718,24.1124207 30.1273624,24.1994545 C29.671953,24.2864883 29.2922597,24.5995361 29.12,25.03 C29.0624684,25.1282891 28.9748061,25.2054319 28.87,25.25 L28.59,25.36 C28.4450037,25.4315081 28.2749963,25.4315081 28.13,25.36 C27.0448653,24.7662897 25.6886882,25.0553807 24.94,26.04 C24.7932424,26.1936843 24.5688805,26.2448545 24.37,26.17 C23.2989317,25.6593895 22.0155857,26.0769164 21.45,27.12 C21.3005791,27.2551689 21.0874374,27.2939219 20.9,27.22 L20.9,27.22 Z" id="Shape" fill="#FFF8F2" stroke-width="1"/>
            <path d="M22.2,28.73 C22.2,28.73 28.9,25.4 34.72,26.46" id="Shape" fill="#FFF8F2" stroke-width="1"/>
            <path d="M22.2,28.73 C23.0902573,28.0961663 24.0539248,27.572361 25.07,27.17 C26.0817894,26.7449816 27.1292088,26.4103429 28.2,26.17 C30.3530072,25.6603484 32.604495,25.7502696 34.71,26.43 C33.61,26.43 32.56,26.51 31.51,26.63 C30.46,26.75 29.43,26.92 28.4,27.15 C26.34,27.61 24.31,28.18 22.2,28.73 Z" id="Shape" fill="#FCE9C8" stroke-width="1"/>
            <path d="M21.27,27.15 C21.27,27.15 22.16,27.64 21.96,28.15" id="Shape" fill="#FFF8F2" stroke-width="1"/>
            <path d="M21.27,27.15 C21.5245379,27.0984734 21.7872857,27.186056 21.96,27.38 C22.0554358,27.4815373 22.1151247,27.6114484 22.13,27.75 C22.1567225,27.8995556 22.0893078,28.0502474 21.96,28.13 C21.9195678,28.0315143 21.8540642,27.9453253 21.77,27.88 C21.7061901,27.8275082 21.6460494,27.7707087 21.59,27.71 C21.4442466,27.5485585 21.3350902,27.3575348 21.27,27.15 L21.27,27.15 Z" id="Shape" fill="#FCE9C8" stroke-width="1"/>
            <path d="M24.57,26.06 C24.57,26.06 25.38,26.44 25.22,26.82" id="Shape" fill="#FFF8F2" stroke-width="1"/>
            <path d="M24.57,26.06 C24.7808487,25.9765627 25.0207235,26.0191212 25.19,26.17 C25.2804991,26.2482105 25.3435786,26.3533429 25.37,26.47 C25.4158631,26.6052233 25.3564687,26.7537095 25.23,26.82 C25.1867383,26.7426354 25.1149742,26.6852241 25.03,26.66 C24.9676883,26.6328969 24.9102559,26.5957348 24.86,26.55 C24.7178934,26.4182193 24.6171421,26.2479842 24.57,26.06 Z" id="Shape" fill="#FCE9C8" stroke-width="1"/>
            <path d="M28.46,25.29 C28.46,25.29 29.36,25.51 29.07,26.29" id="Shape" fill="#FFF8F2" stroke-width="1"/>
            <path d="M28.46,25.29 C28.7256394,25.168491 29.0401347,25.2523564 29.21,25.49 C29.304731,25.6156132 29.3411328,25.7757814 29.31,25.93 C29.2866378,26.0771287 29.1934719,26.2038343 29.06,26.27 C29.0201236,26.1637325 28.9733576,26.0601793 28.92,25.96 C28.8831024,25.9012058 28.8430436,25.8444558 28.8,25.79 C28.73,25.66 28.62,25.53 28.46,25.29 Z" id="Shape" fill="#FCE9C8" stroke-width="1"/>
            <path d="M31.65,24.61 C31.65,24.61 32.65,25.27 32.11,25.77" id="Shape" fill="#FFF8F2" stroke-width="1"/>
            <path d="M31.65,24.61 C31.9397561,24.5916581 32.2162241,24.7337319 32.37,24.98 C32.4655334,25.120486 32.4981513,25.2944482 32.46,25.46 C32.4261842,25.6263013 32.2887092,25.7516462 32.12,25.77 C32.12,25.44 32.04,25.42 31.95,25.25 C31.8195906,25.0522889 31.7185393,24.8367127 31.65,24.61 Z" id="Shape" fill="#FCE9C8" stroke-width="1"/>
            <path d="M34.55,24.79 C34.55,24.79 35.2,25.54 34.7,25.79" id="Shape" fill="#FFF8F2" stroke-width="1"/>
            <path d="M34.55,24.79 C34.7994956,24.8131916 35.0115292,24.9820332 35.09,25.22 C35.1450021,25.3511327 35.1450021,25.4988673 35.09,25.63 C35.0305609,25.7703355 34.8779319,25.8466501 34.73,25.81 C34.7685028,25.724118 34.7685028,25.625882 34.73,25.54 C34.6969081,25.4865856 34.6700653,25.4295446 34.65,25.37 C34.5759456,25.1859365 34.5418592,24.9882351 34.55,24.79 L34.55,24.79 Z" id="Shape" fill="#FCE9C8" stroke-width="1"/>
            <path d="M10,17 L10,17 C9.74063326,16.6841835 9.31519612,16.5579668 8.92556209,16.6812409 C8.53592806,16.8045149 8.26051155,17.1524706 8.23,17.56 C8.24293475,17.7826104 8.27641037,18.0035495 8.33,18.22 C8.38166888,18.344866 8.38166888,18.485134 8.33,18.61 C7.84,19.5 6.2,23.08 9.71,26.71 L9.83,26.85 C10.31,27.45 14.05,31.85 19.06,28.85 C19.1477549,28.798843 19.2485712,28.7745081 19.35,28.78 C19.84,28.78 21.35,28.78 21.35,27.66 C21.359905,27.6037662 21.359905,27.5462338 21.35,27.49 C21.1831655,27.068574 20.9070209,26.6992306 20.55,26.42 C20.4010425,26.2998581 20.3284199,26.1087461 20.36,25.92 C20.4383232,25.4088755 20.226447,24.8965203 19.81,24.59 C19.5803181,24.3655016 19.3084107,24.1887618 19.01,24.07 C18.793916,23.995411 18.6518848,23.7884512 18.66,23.56 C18.66,22.92 18.46,21.88 16.93,22.06 C16.8164052,22.0762519 16.7006041,22.0551972 16.6,22 L16.34,21.85 C16.1989214,21.7706952 16.1028104,21.6302252 16.08,21.47 C15.8725539,20.2515177 14.8058106,19.3675233 13.57,19.39 C13.3595874,19.3675582 13.1826877,19.2221073 13.12,19.02 C12.8557163,17.8664913 11.7364248,17.120297 10.57,17.32 C10.3290105,17.3571528 10.0937674,17.2250865 10,17 L10,17 Z" id="Shape" fill="#FFF8F2" stroke-width="1"/>
            <path d="M9.62,19 C9.62,19 16.38,22.2 19.16,27.42" id="Shape" fill="#FFF8F2" stroke-width="1"/>
            <path d="M9.62,19 C10.6683484,19.3074853 11.6756619,19.7406302 12.62,20.29 C13.5730239,20.82927 14.4765369,21.4516901 15.32,22.15 C17.0540812,23.5238415 18.3786824,25.346465 19.15,27.42 C18.44,26.58 17.75,25.79 17.01,25.04 C16.27,24.29 15.49,23.59 14.67,22.92 C13.07,21.54 11.36,20.3 9.62,19 Z" id="Shape" fill="#FCE9C8" stroke-width="1"/>
            <path d="M10.28,17.27 C10.28,17.27 10.44,18.27 9.94,18.42" id="Shape" fill="#FFF8F2" stroke-width="1"/>
            <path d="M10.28,17.27 C10.481293,17.4383488 10.5767405,17.701784 10.53,17.96 C10.5102769,18.0962351 10.4471542,18.2224805 10.35,18.32 C10.2476046,18.4356467 10.0841423,18.4755156 9.94,18.42 C9.99209576,18.328574 10.0196551,18.2252263 10.02,18.12 C10.0142381,18.0367663 10.0142381,17.9532337 10.02,17.87 C10.0618011,17.6534099 10.1505485,17.4486083 10.28,17.27 L10.28,17.27 Z" id="Shape" fill="#FCE9C8" stroke-width="1"/>
            <path d="M13.18,19.19 C13.18,19.19 13.38,20.06 12.99,20.19" id="Shape" fill="#FFF8F2" stroke-width="1"/>
            <path d="M13.18,19.19 C13.3753748,19.3024251 13.4912532,19.5148687 13.48,19.74 C13.4743209,19.8565648 13.4323666,19.968443 13.36,20.06 C13.2833343,20.1801486 13.1307268,20.2267787 13,20.17 C13.0344459,20.086756 13.0344459,19.993244 13,19.91 C12.9891765,19.8437726 12.9891765,19.7762274 13,19.71 C13.0101907,19.5232444 13.0725519,19.3430896 13.18,19.19 Z" id="Shape" fill="#FCE9C8" stroke-width="1"/>
            <path d="M16.2,21.76 C16.2,21.76 16.59,22.6 15.81,22.84" id="Shape" fill="#FFF8F2" stroke-width="1"/>
            <path d="M16.2,21.76 C16.4596485,21.8922485 16.5895081,22.189669 16.51,22.47 C16.4705948,22.6211305 16.3687945,22.748381 16.23,22.82 C16.0981707,22.8876431 15.9418293,22.8876431 15.81,22.82 C15.8698217,22.723598 15.9232693,22.6233838 15.97,22.52 C15.9935943,22.4544649 16.0136236,22.3877005 16.03,22.32 C16.07,22.21 16.1,22 16.2,21.76 Z" id="Shape" fill="#FCE9C8" stroke-width="1"/>
            <path d="M18.7,23.85 C18.7,23.85 18.8,25.03 18.08,24.93" id="Shape" fill="#FFF8F2" stroke-width="1"/>
            <path d="M18.7,23.85 C18.8937666,24.0642707 18.9551234,24.3672199 18.86,24.64 C18.8072319,24.7988151 18.6915332,24.9289761 18.54,25 C18.3858784,25.0782025 18.1986699,25.0456445 18.08,24.92 C18.36,24.73 18.31,24.64 18.38,24.46 C18.4574073,24.2426113 18.5651385,24.0372487 18.7,23.85 Z" id="Shape" fill="#FCE9C8" stroke-width="1"/>
            <path d="M20.36,26.23 C20.36,26.23 20.17,27.23 19.65,26.98" id="Shape" fill="#FFF8F2" stroke-width="1"/>
            <path d="M20.36,26.23 C20.4971487,26.4395546 20.4971487,26.7104454 20.36,26.92 C20.2841303,27.0430114 20.1613159,27.1297039 20.02,27.16 C19.8715228,27.2036307 19.7136115,27.1310769 19.65,26.99 C19.79,26.93 19.84,26.87 19.85,26.82 C19.8700653,26.7604554 19.8969081,26.7034144 19.93,26.65 C20.0412342,26.4805186 20.1879486,26.3372162 20.36,26.23 L20.36,26.23 Z" id="Shape" fill="#FCE9C8" stroke-width="1"/>
            <path d="M57.31,19.83 C58.4478987,20.1215858 59.469946,20.752953 60.24,21.64 C60.9967907,22.6859971 61.0286274,24.0907923 60.32,25.17 C59.9708149,25.7090091 59.5229653,26.1772155 59,26.55" id="Shape" fill="#FCE9C8" stroke-width="1"/>
            <rect id="Rectangle-path" fill="#098C09" transform="matrix(-0.12238902262553965,0.9924822049491694,-0.9924822049491694,-0.12238902262553965,86.86665162718896,-34.46047633218927)" x="58.1693131" y="20.6760559" width="1" height="1" stroke-width="1"/>
            <ellipse id="Oval" fill="#2D1B04" transform="matrix(0.12238902262553955,-0.9924822049491694,0.9924822049491694,0.12238902262553955,29.83540515242374,78.63712803940501)" cx="59.2327062" cy="22.2082708" rx="1" ry="1" stroke-width="1"/>
            <ellipse id="Oval" fill="#F7DB63" transform="matrix(0.12238902262553955,-0.9924822049491694,0.9924822049491694,0.12238902262553955,31.71420455647695,78.03529505328109)" cx="59.8118023" cy="20.9549957" rx="1" ry="1" stroke-width="1"/>
            <rect id="Rectangle-path" fill="#FF5317" transform="matrix(-0.12238902262553965,0.9924822049491694,-0.9924822049491694,-0.12238902262553965,87.03433999215129,-33.09712821986389)" x="57.6503814" y="21.4318703" width="1" height="1" stroke-width="1"/>
            <rect id="Rectangle-path" fill="#FF5317" transform="matrix(-0.37767918616292007,0.9259365163656277,-0.9259365163656277,-0.37767918616292007,104.68652521462107,-24.975011103660492)" x="60.2361003" y="22.1923377" width="1" height="1" stroke-width="1"/>
            <rect id="Rectangle-path" fill="#098C09" transform="matrix(0.9892978141936766,-0.14591036574422556,0.14591036574422556,0.9892978141936766,-2.4016418068349097,9.099171682165746)" x="60.3268574" y="20.421215" width="1" height="1" stroke-width="1"/>
            <ellipse id="Oval" fill="#2D1B04" transform="matrix(0.9892978141936766,-0.14591036574422556,0.14591036574422556,0.9892978141936766,-2.684714400595034,8.795851518785026)" cx="58.4676325" cy="22.4592184" rx="1" ry="1" stroke-width="1"/>
            <ellipse id="Oval" fill="#F7DB63" transform="matrix(0.9892978141936766,-0.14591036574422556,0.14591036574422556,0.9892978141936766,-2.881259029806799,8.926963464482645)" cx="59.2431313" cy="23.9745889" rx="1" ry="1" stroke-width="1"/>
            <rect id="Rectangle-path" fill="#098C09" transform="matrix(-0.8801461629613544,0.4747027826170866,-0.4747027826170866,-0.8801461629613544,123.0005340318316,15.204237543239895)" x="59.0808703" y="22.6298205" width="1" height="1" stroke-width="1"/>
            <rect id="Rectangle-path" fill="#FF5317" transform="matrix(0.7368055062377432,0.676104759617726,-0.676104759617726,0.7368055062377432,30.854490418877454,-34.52377852012792)" x="59.2702906" y="21.8682477" width="1" height="1" stroke-width="1"/>
            <ellipse id="Oval" fill="#2D1B04" transform="matrix(0.9892978141936766,-0.14591036574422556,0.14591036574422556,0.9892978141936766,-2.8321224493828794,9.157162746761701)" cx="60.7669327" cy="23.7347318" rx="1" ry="1" stroke-width="1"/>
            <ellipse id="Oval" fill="#F7DB63" transform="matrix(0.9892978141936766,-0.14591036574422556,0.14591036574422556,0.9892978141936766,-2.560568957293782,9.158610960473176)" cx="61.022582" cy="21.8643175" rx="1" ry="1" stroke-width="1"/>
            <rect id="Rectangle-path" fill="#FF5317" transform="matrix(-0.12238902262553965,0.9924822049491694,-0.9924822049491694,-0.12238902262553965,91.7765822990478,-29.385897012924627)" x="58.3806575" y="25.3841695" width="1" height="1" stroke-width="1"/>
            <ellipse id="Oval" fill="#2D1B04" transform="matrix(0.12238902262553955,-0.9924822049491694,0.9924822049491694,0.12238902262553955,27.566877007553863,81.24831036709398)" cx="59.5749225" cy="24.7965906" rx="1" ry="1" stroke-width="1"/>
            <ellipse id="Oval" fill="#F7DB63" transform="matrix(0.12238902262553955,-0.9924822049491694,0.9924822049491694,0.12238902262553955,27.069035589854273,79.57515807397118)" cx="58.3599264" cy="24.3515166" rx="1" ry="1" stroke-width="1"/>
            <rect id="Rectangle-path" fill="#098C09" transform="matrix(-0.12238902262553965,0.9924822049491694,-0.9924822049491694,-0.12238902262553965,93.46507747512192,-30.177417482405914)" x="59.5748598" y="25.7349435" width="1" height="1" stroke-width="1"/>
            <rect id="Rectangle-path" fill="#FF5317" transform="matrix(-0.37767918616292007,0.9259365163656277,-0.9259365163656277,-0.37767918616292007,102.38843340788182,-21.69286237714322)" x="57.9840905" y="23.0611403" width="1" height="1" stroke-width="1"/>
            <rect id="Rectangle-path" fill="#098C09" transform="matrix(0.9892978141936766,-0.14591036574422556,0.14591036574422556,0.9892978141936766,-2.914604595963617,9.06826009670155)" x="59.8596555" y="23.9025493" width="1" height="1" stroke-width="1"/>
            <rect id="Rectangle-path" fill="#FF5317" transform="matrix(-0.9646034583018065,0.2637046989194449,-0.2637046989194449,-0.9646034583018065,124.91012405922854,32.96295584950947)" x="59.7427868" y="24.3646929" width="1" height="1" stroke-width="1"/>
            <ellipse id="Oval" fill="#2D1B04" transform="matrix(0.9646034583018065,-0.263704698919445,0.263704698919445,0.9646034583018065,-4.106558304588248,17.116186884418543)" cx="61.554629" cy="23.6150502" rx="1" ry="1" stroke-width="1"/>
            <ellipse id="Oval" fill="#F7DB63" transform="matrix(0.12238902262553955,-0.9924822049491694,0.9924822049491694,0.12238902262553955,29.035979521164357,82.32368692526892)" cx="60.8975408" cy="24.6135817" rx="1" ry="1" stroke-width="1"/>
            <path d="M59.35,22.81 C59.2473205,21.2304377 58.8218953,19.688697 58.1,18.28 C57.5479672,18.1315634 56.9607507,18.3286159 56.61,18.78 C56.5288753,18.8611584 56.4236016,18.9137953 56.31,18.93 L56,19 C55.8395203,19.0245791 55.6767698,18.9727949 55.56,18.86 C54.6527261,18.0188535 53.2666597,17.9678327 52.3,18.74 C52.123819,18.8551714 51.896181,18.8551714 51.72,18.74 C50.8061525,17.9860554 49.4622824,18.0782818 48.66,18.95 C48.502762,19.1017911 48.2684739,19.141501 48.07,19.05 L48.07,19.05 C47.6896451,18.975601 47.3005511,19.1276766 47.0714533,19.4402774 C46.8423555,19.7528782 46.814513,20.1697066 47,20.51 C47.1450858,20.6812062 47.3057776,20.8385503 47.48,20.98 C47.5895713,21.0619205 47.661635,21.1844287 47.68,21.32 C47.83,22.32 48.68,26.16 53.68,26.89 L53.86,26.89 C55.5679387,27.3032187 57.3613714,27.1845869 59,26.55 C59.3149412,25.3299008 59.4330944,24.0673485 59.35,22.81 Z" id="Shape" fill="#FFF8F2" stroke-width="1"/>
            <path d="M49,20.93 C52.3156791,20.1237027 55.7734636,20.0997379 59.1,20.86" id="Shape" fill="#FFF8F2" stroke-width="1"/>
            <path d="M49,20.93 C49.771502,20.5220598 50.6012266,20.2353664 51.46,20.08 C52.2965063,19.9129844 53.1470042,19.8259255 54,19.82 C55.7388795,19.7864208 57.4646192,20.1274761 59.06,20.82 C58.18,20.82 57.34,20.82 56.51,20.82 C55.68,20.82 54.84,20.82 54.01,20.82 C53.18,20.82 52.35,20.82 51.51,20.82 L49,20.93 Z" id="Shape" fill="#FCE9C8" stroke-width="1"/>
            <path d="M48.44,19.17 C48.44,19.17 49.18,19.86 48.87,20.29" id="Shape" fill="#FFF8F2" stroke-width="1"/>
            <path d="M48.44,19.17 C48.7016511,19.1794096 48.9382255,19.3282225 49.06,19.56 C49.1295821,19.6810384 49.1576764,19.8215099 49.14,19.96 C49.1302422,20.1133081 49.0267687,20.2446399 48.88,20.29 C48.8643239,20.18802 48.8230364,20.0916827 48.76,20.01 C48.7119358,19.9430416 48.6685013,19.8728783 48.63,19.8 C48.5211235,19.606521 48.45625,19.391414 48.44,19.17 L48.44,19.17 Z" id="Shape" fill="#FCE9C8" stroke-width="1"/>
            <path d="M51.9,18.92 C51.9,18.92 52.59,19.49 52.35,19.81" id="Shape" fill="#FFF8F2" stroke-width="1"/>
            <path d="M51.9,18.92 C52.1217475,18.8905639 52.3414578,18.986928 52.47,19.17 C52.5372127,19.2667441 52.5722055,19.3822201 52.57,19.5 C52.57,19.63 52.5,19.8 52.35,19.81 C52.3295414,19.7230071 52.2756553,19.6475666 52.2,19.6 C52.1453263,19.5581226 52.0980119,19.5074285 52.06,19.45 C51.9578515,19.2919113 51.9023925,19.1082037 51.9,18.92 Z" id="Shape" fill="#FCE9C8" stroke-width="1"/>
            <path d="M55.87,19.11 C55.87,19.11 56.69,19.54 56.22,20.2" id="Shape" fill="#FFF8F2" stroke-width="1"/>
            <path d="M55.87,19.11 C56.1559158,19.0552784 56.4406563,19.2102108 56.55,19.48 C56.6141713,19.6231367 56.6141713,19.7868633 56.55,19.93 C56.4928474,20.066141 56.3738173,20.1665727 56.23,20.2 C56.2171235,20.0888233 56.1970818,19.978594 56.17,19.87 C56.1467373,19.8052867 56.1200326,19.7418629 56.09,19.68 C56,19.55 56,19.39 55.87,19.11 Z" id="Shape" fill="#FCE9C8" stroke-width="1"/>
        </g>
    </g>
</svg>